<?xml version="1.0" encoding="UTF-8" standalone="no"?>
<!DOCTYPE svg PUBLIC "-//W3C//DTD SVG 1.1//EN"
 "http://www.w3.org/Graphics/SVG/1.1/DTD/svg11.dtd">
<!-- Generated by graphviz version 2.36.0 (20140111.2315)
 -->
<!-- Title: o2::header::NameHeader&lt; N &gt; Pages: 1 -->
<svg width="921pt" height="964pt"
 viewBox="0.00 0.00 920.92 964.00" xmlns="http://www.w3.org/2000/svg" xmlns:xlink="http://www.w3.org/1999/xlink">
<g id="graph0" class="graph" transform="scale(1 1) rotate(0) translate(4 960)">
<title>o2::header::NameHeader&lt; N &gt;</title>
<!-- Node1 -->
<g id="node1" class="node"><title>Node1</title>
<polygon fill="#bfbfbf" stroke="black" points="576.922,-0.5 576.922,-101.5 728.922,-101.5 728.922,-0.5 576.922,-0.5"/>
<text text-anchor="middle" x="652.922" y="-89.5" font-family="Helvetica,sans-Serif" font-size="10.00">o2::header::NameHeader&lt; N &gt;</text>
<polyline fill="none" stroke="black" points="576.922,-82.5 728.922,-82.5 "/>
<text text-anchor="middle" x="652.922" y="-70.5" font-family="Helvetica,sans-Serif" font-size="10.00"> </text>
<polyline fill="none" stroke="black" points="576.922,-63.5 728.922,-63.5 "/>
<text text-anchor="start" x="584.922" y="-51.5" font-family="Helvetica,sans-Serif" font-size="10.00">+ NameHeader()</text>
<text text-anchor="start" x="584.922" y="-40.5" font-family="Helvetica,sans-Serif" font-size="10.00">+ NameHeader()</text>
<text text-anchor="start" x="584.922" y="-29.5" font-family="Helvetica,sans-Serif" font-size="10.00">+ operator=()</text>
<text text-anchor="start" x="584.922" y="-18.5" font-family="Helvetica,sans-Serif" font-size="10.00">+ sHeaderType()</text>
<text text-anchor="start" x="584.922" y="-7.5" font-family="Helvetica,sans-Serif" font-size="10.00">+ sHeaderType()</text>
</g>
<!-- Node2 -->
<g id="node2" class="node"><title>Node2</title>
<g id="a_node2"><a xlink:href="../../d8/dbd/structo2_1_1header_1_1BaseHeader.html" target="_top" xlink:title="the base header struct Every header type must begin (i.e. derive) with this. Don&#39;t use this struct di...">
<polygon fill="none" stroke="black" points="591.922,-140.5 591.922,-263.5 713.922,-263.5 713.922,-140.5 591.922,-140.5"/>
<text text-anchor="middle" x="652.922" y="-251.5" font-family="Helvetica,sans-Serif" font-size="10.00">o2::header::BaseHeader</text>
<polyline fill="none" stroke="black" points="591.922,-244.5 713.922,-244.5 "/>
<text text-anchor="middle" x="652.922" y="-232.5" font-family="Helvetica,sans-Serif" font-size="10.00"> </text>
<polyline fill="none" stroke="black" points="591.922,-225.5 713.922,-225.5 "/>
<text text-anchor="start" x="599.922" y="-213.5" font-family="Helvetica,sans-Serif" font-size="10.00">+ BaseHeader()</text>
<text text-anchor="start" x="599.922" y="-202.5" font-family="Helvetica,sans-Serif" font-size="10.00">+ BaseHeader()</text>
<text text-anchor="start" x="599.922" y="-191.5" font-family="Helvetica,sans-Serif" font-size="10.00">+ BaseHeader()</text>
<text text-anchor="start" x="599.922" y="-180.5" font-family="Helvetica,sans-Serif" font-size="10.00">+ size()</text>
<text text-anchor="start" x="599.922" y="-169.5" font-family="Helvetica,sans-Serif" font-size="10.00">+ data()</text>
<text text-anchor="start" x="599.922" y="-158.5" font-family="Helvetica,sans-Serif" font-size="10.00">+ next()</text>
<text text-anchor="start" x="599.922" y="-147.5" font-family="Helvetica,sans-Serif" font-size="10.00">+ get()</text>
</a>
</g>
</g>
<!-- Node2&#45;&gt;Node1 -->
<g id="edge1" class="edge"><title>Node2&#45;&gt;Node1</title>
<path fill="none" stroke="midnightblue" d="M652.922,-130.339C652.922,-120.631 652.922,-110.835 652.922,-101.615"/>
<polygon fill="none" stroke="midnightblue" points="649.422,-130.396 652.922,-140.396 656.422,-130.396 649.422,-130.396"/>
</g>
<!-- Node3 -->
<g id="node3" class="node"><title>Node3</title>
<g id="a_node3"><a xlink:href="../../d9/db3/structo2_1_1header_1_1Descriptor.html" target="_top" xlink:title="{o2::header::Descriptor\l\&lt; gSizeHeaderDescriptionString \&gt;\n||+ Descriptor()\l+ Descriptor()\l+ Descriptor()\l+ Descriptor()\l+ operator=()\l+ operator ItgType()\l+ runtimeInit()\l+ operator==()\l+ operator==()\l+ operator!=()\l+ operator!=()\l+ print()\l}">
<polygon fill="none" stroke="black" points="270.922,-388.5 270.922,-577.5 436.922,-577.5 436.922,-388.5 270.922,-388.5"/>
<text text-anchor="start" x="278.922" y="-565.5" font-family="Helvetica,sans-Serif" font-size="10.00">o2::header::Descriptor</text>
<text text-anchor="middle" x="353.922" y="-554.5" font-family="Helvetica,sans-Serif" font-size="10.00">&lt; gSizeHeaderDescriptionString &gt;</text>
<polyline fill="none" stroke="black" points="270.922,-547.5 436.922,-547.5 "/>
<text text-anchor="middle" x="353.922" y="-535.5" font-family="Helvetica,sans-Serif" font-size="10.00"> </text>
<polyline fill="none" stroke="black" points="270.922,-528.5 436.922,-528.5 "/>
<text text-anchor="start" x="278.922" y="-516.5" font-family="Helvetica,sans-Serif" font-size="10.00">+ Descriptor()</text>
<text text-anchor="start" x="278.922" y="-505.5" font-family="Helvetica,sans-Serif" font-size="10.00">+ Descriptor()</text>
<text text-anchor="start" x="278.922" y="-494.5" font-family="Helvetica,sans-Serif" font-size="10.00">+ Descriptor()</text>
<text text-anchor="start" x="278.922" y="-483.5" font-family="Helvetica,sans-Serif" font-size="10.00">+ Descriptor()</text>
<text text-anchor="start" x="278.922" y="-472.5" font-family="Helvetica,sans-Serif" font-size="10.00">+ operator=()</text>
<text text-anchor="start" x="278.922" y="-461.5" font-family="Helvetica,sans-Serif" font-size="10.00">+ operator ItgType()</text>
<text text-anchor="start" x="278.922" y="-450.5" font-family="Helvetica,sans-Serif" font-size="10.00">+ runtimeInit()</text>
<text text-anchor="start" x="278.922" y="-439.5" font-family="Helvetica,sans-Serif" font-size="10.00">+ operator==()</text>
<text text-anchor="start" x="278.922" y="-428.5" font-family="Helvetica,sans-Serif" font-size="10.00">+ operator==()</text>
<text text-anchor="start" x="278.922" y="-417.5" font-family="Helvetica,sans-Serif" font-size="10.00">+ operator!=()</text>
<text text-anchor="start" x="278.922" y="-406.5" font-family="Helvetica,sans-Serif" font-size="10.00">+ operator!=()</text>
<text text-anchor="start" x="278.922" y="-395.5" font-family="Helvetica,sans-Serif" font-size="10.00">+ print()</text>
</a>
</g>
</g>
<!-- Node3&#45;&gt;Node2 -->
<g id="edge2" class="edge"><title>Node3&#45;&gt;Node2</title>
<path fill="none" stroke="#404040" d="M403.32,-388.477C426.037,-351.872 455.604,-311.644 489.922,-282 516.194,-259.306 550.119,-241.494 580.211,-228.573"/>
<polygon fill="none" stroke="#404040" points="580.454,-228.472 584.456,-222.473 591.533,-223.861 587.531,-229.859 580.454,-228.472"/>
<text text-anchor="middle" x="518.422" y="-323.5" font-family="Helvetica,sans-Serif" font-size="10.00"> +description</text>
</g>
<!-- Node4 -->
<g id="node4" class="node"><title>Node4</title>
<polygon fill="none" stroke="#bfbfbf" points="270.922,-897.5 270.922,-954.5 308.922,-954.5 308.922,-897.5 270.922,-897.5"/>
<text text-anchor="middle" x="289.922" y="-942.5" font-family="Helvetica,sans-Serif" font-size="10.00">Type</text>
<polyline fill="none" stroke="#bfbfbf" points="270.922,-935.5 308.922,-935.5 "/>
<text text-anchor="middle" x="289.922" y="-923.5" font-family="Helvetica,sans-Serif" font-size="10.00"> </text>
<polyline fill="none" stroke="#bfbfbf" points="270.922,-916.5 308.922,-916.5 "/>
<text text-anchor="middle" x="289.922" y="-904.5" font-family="Helvetica,sans-Serif" font-size="10.00"> </text>
</g>
<!-- Node4&#45;&gt;Node3 -->
<g id="edge3" class="edge"><title>Node4&#45;&gt;Node3</title>
<path fill="none" stroke="#404040" d="M270.798,-920.862C233.181,-911.548 150.486,-884.978 118.922,-826 79.076,-751.547 72.7623,-706.712 118.922,-636 155.289,-580.289 200.828,-613.774 256.922,-578 258.229,-577.167 259.533,-576.314 260.833,-575.442"/>
<polygon fill="none" stroke="#404040" points="260.93,-575.374 263.513,-568.641 270.721,-568.437 268.138,-575.169 260.93,-575.374"/>
<text text-anchor="middle" x="128.922" y="-728.5" font-family="Helvetica,sans-Serif" font-size="10.00"> +itg</text>
</g>
<!-- Node8 -->
<g id="node8" class="node"><title>Node8</title>
<g id="a_node8"><a xlink:href="../../d9/db3/structo2_1_1header_1_1Descriptor.html" target="_top" xlink:title="{o2::header::Descriptor\l\&lt; N, PrinterPolicy \&gt;\n||+ Descriptor()\l+ Descriptor()\l+ Descriptor()\l+ operator=()\l+ operator ItgType()\l+ Descriptor()\l+ runtimeInit()\l+ operator==()\l+ operator!=()\l+ operator==()\l+ operator!=()\l+ print()\l}">
<polygon fill="none" stroke="black" points="230.422,-636.5 230.422,-825.5 343.422,-825.5 343.422,-636.5 230.422,-636.5"/>
<text text-anchor="start" x="238.422" y="-813.5" font-family="Helvetica,sans-Serif" font-size="10.00">o2::header::Descriptor</text>
<text text-anchor="middle" x="286.922" y="-802.5" font-family="Helvetica,sans-Serif" font-size="10.00">&lt; N, PrinterPolicy &gt;</text>
<polyline fill="none" stroke="black" points="230.422,-795.5 343.422,-795.5 "/>
<text text-anchor="middle" x="286.922" y="-783.5" font-family="Helvetica,sans-Serif" font-size="10.00"> </text>
<polyline fill="none" stroke="black" points="230.422,-776.5 343.422,-776.5 "/>
<text text-anchor="start" x="238.422" y="-764.5" font-family="Helvetica,sans-Serif" font-size="10.00">+ Descriptor()</text>
<text text-anchor="start" x="238.422" y="-753.5" font-family="Helvetica,sans-Serif" font-size="10.00">+ Descriptor()</text>
<text text-anchor="start" x="238.422" y="-742.5" font-family="Helvetica,sans-Serif" font-size="10.00">+ Descriptor()</text>
<text text-anchor="start" x="238.422" y="-731.5" font-family="Helvetica,sans-Serif" font-size="10.00">+ operator=()</text>
<text text-anchor="start" x="238.422" y="-720.5" font-family="Helvetica,sans-Serif" font-size="10.00">+ operator ItgType()</text>
<text text-anchor="start" x="238.422" y="-709.5" font-family="Helvetica,sans-Serif" font-size="10.00">+ Descriptor()</text>
<text text-anchor="start" x="238.422" y="-698.5" font-family="Helvetica,sans-Serif" font-size="10.00">+ runtimeInit()</text>
<text text-anchor="start" x="238.422" y="-687.5" font-family="Helvetica,sans-Serif" font-size="10.00">+ operator==()</text>
<text text-anchor="start" x="238.422" y="-676.5" font-family="Helvetica,sans-Serif" font-size="10.00">+ operator!=()</text>
<text text-anchor="start" x="238.422" y="-665.5" font-family="Helvetica,sans-Serif" font-size="10.00">+ operator==()</text>
<text text-anchor="start" x="238.422" y="-654.5" font-family="Helvetica,sans-Serif" font-size="10.00">+ operator!=()</text>
<text text-anchor="start" x="238.422" y="-643.5" font-family="Helvetica,sans-Serif" font-size="10.00">+ print()</text>
</a>
</g>
</g>
<!-- Node4&#45;&gt;Node8 -->
<g id="edge8" class="edge"><title>Node4&#45;&gt;Node8</title>
<path fill="none" stroke="#404040" d="M289.492,-897.348C289.243,-881.342 288.912,-860.063 288.571,-838.114"/>
<polygon fill="none" stroke="#404040" points="288.568,-837.879 284.475,-831.942 288.381,-825.881 292.474,-831.818 288.568,-837.879"/>
<text text-anchor="middle" x="299.922" y="-858.5" font-family="Helvetica,sans-Serif" font-size="10.00"> +itg</text>
</g>
<!-- Node10 -->
<g id="node10" class="node"><title>Node10</title>
<g id="a_node10"><a xlink:href="../../d9/db3/structo2_1_1header_1_1Descriptor.html" target="_top" xlink:title="{o2::header::Descriptor\l\&lt; gSizeSerializationMethodString \&gt;\n||+ Descriptor()\l+ Descriptor()\l+ Descriptor()\l+ Descriptor()\l+ operator=()\l+ operator ItgType()\l+ runtimeInit()\l+ operator==()\l+ operator==()\l+ operator!=()\l+ operator!=()\l+ print()\l}">
<polygon fill="none" stroke="black" points="454.922,-388.5 454.922,-577.5 624.922,-577.5 624.922,-388.5 454.922,-388.5"/>
<text text-anchor="start" x="462.922" y="-565.5" font-family="Helvetica,sans-Serif" font-size="10.00">o2::header::Descriptor</text>
<text text-anchor="middle" x="539.922" y="-554.5" font-family="Helvetica,sans-Serif" font-size="10.00">&lt; gSizeSerializationMethodString &gt;</text>
<polyline fill="none" stroke="black" points="454.922,-547.5 624.922,-547.5 "/>
<text text-anchor="middle" x="539.922" y="-535.5" font-family="Helvetica,sans-Serif" font-size="10.00"> </text>
<polyline fill="none" stroke="black" points="454.922,-528.5 624.922,-528.5 "/>
<text text-anchor="start" x="462.922" y="-516.5" font-family="Helvetica,sans-Serif" font-size="10.00">+ Descriptor()</text>
<text text-anchor="start" x="462.922" y="-505.5" font-family="Helvetica,sans-Serif" font-size="10.00">+ Descriptor()</text>
<text text-anchor="start" x="462.922" y="-494.5" font-family="Helvetica,sans-Serif" font-size="10.00">+ Descriptor()</text>
<text text-anchor="start" x="462.922" y="-483.5" font-family="Helvetica,sans-Serif" font-size="10.00">+ Descriptor()</text>
<text text-anchor="start" x="462.922" y="-472.5" font-family="Helvetica,sans-Serif" font-size="10.00">+ operator=()</text>
<text text-anchor="start" x="462.922" y="-461.5" font-family="Helvetica,sans-Serif" font-size="10.00">+ operator ItgType()</text>
<text text-anchor="start" x="462.922" y="-450.5" font-family="Helvetica,sans-Serif" font-size="10.00">+ runtimeInit()</text>
<text text-anchor="start" x="462.922" y="-439.5" font-family="Helvetica,sans-Serif" font-size="10.00">+ operator==()</text>
<text text-anchor="start" x="462.922" y="-428.5" font-family="Helvetica,sans-Serif" font-size="10.00">+ operator==()</text>
<text text-anchor="start" x="462.922" y="-417.5" font-family="Helvetica,sans-Serif" font-size="10.00">+ operator!=()</text>
<text text-anchor="start" x="462.922" y="-406.5" font-family="Helvetica,sans-Serif" font-size="10.00">+ operator!=()</text>
<text text-anchor="start" x="462.922" y="-395.5" font-family="Helvetica,sans-Serif" font-size="10.00">+ print()</text>
</a>
</g>
</g>
<!-- Node4&#45;&gt;Node10 -->
<g id="edge17" class="edge"><title>Node4&#45;&gt;Node10</title>
<path fill="none" stroke="#404040" d="M309.004,-914.849C324.726,-906.071 347.231,-892.534 364.922,-878 380.956,-864.827 382.472,-858.894 396.922,-844 404.8,-835.88 409.533,-835.948 414.922,-826 456.025,-750.122 394.763,-697.87 454.922,-636 478.819,-611.423 507.711,-644.111 529.922,-618 537.005,-609.673 541.831,-599.904 544.987,-589.5"/>
<polygon fill="none" stroke="#404040" points="545.061,-589.193 542.578,-582.423 547.873,-577.527 550.356,-584.297 545.061,-589.193"/>
<text text-anchor="middle" x="464.922" y="-728.5" font-family="Helvetica,sans-Serif" font-size="10.00"> +itg</text>
</g>
<!-- Node5 -->
<g id="node5" class="node"><title>Node5</title>
<polygon fill="none" stroke="#bfbfbf" points="430.422,-897.5 430.422,-954.5 465.422,-954.5 465.422,-897.5 430.422,-897.5"/>
<text text-anchor="middle" x="447.922" y="-942.5" font-family="Helvetica,sans-Serif" font-size="10.00">char</text>
<polyline fill="none" stroke="#bfbfbf" points="430.422,-935.5 465.422,-935.5 "/>
<text text-anchor="middle" x="447.922" y="-923.5" font-family="Helvetica,sans-Serif" font-size="10.00"> </text>
<polyline fill="none" stroke="#bfbfbf" points="430.422,-916.5 465.422,-916.5 "/>
<text text-anchor="middle" x="447.922" y="-904.5" font-family="Helvetica,sans-Serif" font-size="10.00"> </text>
</g>
<!-- Node5&#45;&gt;Node2 -->
<g id="edge15" class="edge"><title>Node5&#45;&gt;Node2</title>
<path fill="none" stroke="#404040" d="M465.581,-917.992C496.124,-904.888 558.46,-873.622 588.922,-826 646.207,-736.444 653.319,-420.188 653.484,-275.826"/>
<polygon fill="none" stroke="#404040" points="653.484,-275.651 649.483,-269.652 653.482,-263.651 657.483,-269.65 653.484,-275.651"/>
<text text-anchor="middle" x="670.422" y="-604.5" font-family="Helvetica,sans-Serif" font-size="10.00"> +magicString</text>
</g>
<!-- Node5&#45;&gt;Node3 -->
<g id="edge4" class="edge"><title>Node5&#45;&gt;Node3</title>
<path fill="none" stroke="#404040" d="M430.345,-900.316C417.693,-881.07 401.562,-853.138 393.922,-826 372.145,-748.646 362.209,-658.227 357.683,-589.794"/>
<polygon fill="none" stroke="#404040" points="357.677,-589.689 353.309,-583.952 356.925,-577.713 361.293,-583.45 357.677,-589.689"/>
<text text-anchor="middle" x="404.422" y="-728.5" font-family="Helvetica,sans-Serif" font-size="10.00"> +str</text>
</g>
<!-- Node5&#45;&gt;Node8 -->
<g id="edge9" class="edge"><title>Node5&#45;&gt;Node8</title>
<path fill="none" stroke="#404040" d="M430.122,-917.694C412.823,-909.896 386.639,-896.165 368.922,-878 356.882,-865.656 346.02,-851.195 336.435,-836.26"/>
<polygon fill="none" stroke="#404040" points="336.318,-836.071 329.76,-833.072 330.005,-825.865 336.563,-828.864 336.318,-836.071"/>
<text text-anchor="middle" x="379.422" y="-858.5" font-family="Helvetica,sans-Serif" font-size="10.00"> +str</text>
</g>
<!-- Node5&#45;&gt;Node10 -->
<g id="edge18" class="edge"><title>Node5&#45;&gt;Node10</title>
<path fill="none" stroke="#404040" d="M465.676,-902.729C470.764,-895.264 475.779,-886.634 478.922,-878 515.96,-776.259 440.23,-721.295 506.922,-636 520.956,-618.051 541.944,-636.727 554.922,-618 560.864,-609.426 564.282,-599.776 565.876,-589.686"/>
<polygon fill="none" stroke="#404040" points="565.881,-589.628 562.432,-583.295 566.951,-577.676 570.4,-584.008 565.881,-589.628"/>
<text text-anchor="middle" x="517.422" y="-728.5" font-family="Helvetica,sans-Serif" font-size="10.00"> +str</text>
</g>
<!-- Node6 -->
<g id="node6" class="node"><title>Node6</title>
<polygon fill="none" stroke="#bfbfbf" points="143.422,-897.5 143.422,-954.5 172.422,-954.5 172.422,-897.5 143.422,-897.5"/>
<text text-anchor="middle" x="157.922" y="-942.5" font-family="Helvetica,sans-Serif" font-size="10.00">int</text>
<polyline fill="none" stroke="#bfbfbf" points="143.422,-935.5 172.422,-935.5 "/>
<text text-anchor="middle" x="157.922" y="-923.5" font-family="Helvetica,sans-Serif" font-size="10.00"> </text>
<polyline fill="none" stroke="#bfbfbf" points="143.422,-916.5 172.422,-916.5 "/>
<text text-anchor="middle" x="157.922" y="-904.5" font-family="Helvetica,sans-Serif" font-size="10.00"> </text>
</g>
<!-- Node6&#45;&gt;Node3 -->
<g id="edge5" class="edge"><title>Node6&#45;&gt;Node3</title>
<path fill="none" stroke="#404040" d="M143.049,-918.738C115.089,-906.037 55.3925,-874.29 31.9218,-826 -4.99202,-750.051 -15.4202,-705.926 31.9218,-636 89.8174,-550.486 164.221,-623.508 256.922,-578 258.106,-577.419 259.285,-576.818 260.458,-576.198"/>
<polygon fill="none" stroke="#404040" points="260.487,-576.181 263.662,-569.706 270.859,-570.146 267.685,-576.621 260.487,-576.181"/>
<text text-anchor="middle" x="57.4218" y="-739.5" font-family="Helvetica,sans-Serif" font-size="10.00"> +arraySize</text>
<text text-anchor="middle" x="57.4218" y="-728.5" font-family="Helvetica,sans-Serif" font-size="10.00">+size</text>
<text text-anchor="middle" x="57.4218" y="-717.5" font-family="Helvetica,sans-Serif" font-size="10.00">+bitcount</text>
</g>
<!-- Node6&#45;&gt;Node8 -->
<g id="edge10" class="edge"><title>Node6&#45;&gt;Node8</title>
<path fill="none" stroke="#404040" d="M172.469,-903.236C185.142,-884.276 204.443,-855.398 223.605,-826.729"/>
<polygon fill="none" stroke="#404040" points="223.698,-826.591 223.706,-819.38 230.366,-816.614 230.358,-823.825 223.698,-826.591"/>
<text text-anchor="middle" x="236.422" y="-869.5" font-family="Helvetica,sans-Serif" font-size="10.00"> +arraySize</text>
<text text-anchor="middle" x="236.422" y="-858.5" font-family="Helvetica,sans-Serif" font-size="10.00">+size</text>
<text text-anchor="middle" x="236.422" y="-847.5" font-family="Helvetica,sans-Serif" font-size="10.00">+bitcount</text>
</g>
<!-- Node6&#45;&gt;Node10 -->
<g id="edge19" class="edge"><title>Node6&#45;&gt;Node10</title>
<path fill="none" stroke="#404040" d="M152.67,-897.232C143.936,-843.943 130.983,-724.752 169.922,-636 218.757,-524.691 325.317,-623.938 443.782,-578.124"/>
<polygon fill="none" stroke="#404040" points="443.865,-578.089 447.824,-572.062 454.911,-573.399 450.951,-579.426 443.865,-578.089"/>
<text text-anchor="middle" x="195.422" y="-739.5" font-family="Helvetica,sans-Serif" font-size="10.00"> +arraySize</text>
<text text-anchor="middle" x="195.422" y="-728.5" font-family="Helvetica,sans-Serif" font-size="10.00">+size</text>
<text text-anchor="middle" x="195.422" y="-717.5" font-family="Helvetica,sans-Serif" font-size="10.00">+bitcount</text>
</g>
<!-- Node7 -->
<g id="node7" class="node"><title>Node7</title>
<polygon fill="none" stroke="#bfbfbf" points="644.422,-897 644.422,-955 673.422,-955 673.422,-897 644.422,-897"/>
<polyline fill="none" stroke="#bfbfbf" points="644.422,-935 673.422,-935 "/>
<text text-anchor="middle" x="658.922" y="-923" font-family="Helvetica,sans-Serif" font-size="10.00"> </text>
<polyline fill="none" stroke="#bfbfbf" points="644.422,-916 673.422,-916 "/>
<text text-anchor="middle" x="658.922" y="-904" font-family="Helvetica,sans-Serif" font-size="10.00"> </text>
</g>
<!-- Node7&#45;&gt;Node2 -->
<g id="edge12" class="edge"><title>Node7&#45;&gt;Node2</title>
<path fill="none" stroke="#404040" d="M673.374,-896.842C682.457,-877.486 693.302,-850.883 697.922,-826 734.441,-629.318 694.963,-392.596 670.051,-275.667"/>
<polygon fill="none" stroke="#404040" points="670.002,-275.439 664.824,-270.42 667.465,-263.71 672.643,-268.729 670.002,-275.439"/>
<text text-anchor="middle" x="725.422" y="-604.5" font-family="Helvetica,sans-Serif" font-size="10.00"> +@5</text>
</g>
<!-- Node7&#45;&gt;Node2 -->
<g id="edge14" class="edge"><title>Node7&#45;&gt;Node2</title>
<path fill="none" stroke="#404040" d="M673.745,-911.827C682.913,-903.013 694.339,-890.733 701.922,-878 714.435,-856.987 714.829,-849.92 719.922,-826 760.463,-635.593 745.978,-580.341 715.922,-388 708.493,-340.462 710.044,-327.334 693.922,-282 693.126,-279.762 692.277,-277.507 691.386,-275.246"/>
<polygon fill="none" stroke="#404040" points="691.279,-274.994 685.261,-271.022 686.612,-263.939 692.631,-267.911 691.279,-274.994"/>
<text text-anchor="middle" x="757.422" y="-604.5" font-family="Helvetica,sans-Serif" font-size="10.00"> +@7</text>
</g>
<!-- Node7&#45;&gt;Node3 -->
<g id="edge6" class="edge"><title>Node7&#45;&gt;Node3</title>
<path fill="none" stroke="#404040" d="M649.408,-896.882C624.489,-824.842 555.735,-636.467 504.922,-596 485.989,-580.922 472.761,-589.535 447.624,-577.932"/>
<polygon fill="none" stroke="#404040" points="447.492,-577.861 440.31,-578.517 436.943,-572.141 444.124,-571.484 447.492,-577.861"/>
<text text-anchor="middle" x="635.422" y="-728.5" font-family="Helvetica,sans-Serif" font-size="10.00"> +@3</text>
</g>
<!-- Node7&#45;&gt;Node8 -->
<g id="edge11" class="edge"><title>Node7&#45;&gt;Node8</title>
<path fill="none" stroke="#404040" d="M644.199,-920.721C587.14,-904.064 382.532,-843.6 357.922,-826 356.206,-824.773 354.514,-823.493 352.845,-822.165"/>
<polygon fill="none" stroke="#404040" points="352.611,-821.961 345.459,-821.041 343.557,-814.085 350.709,-815.005 352.611,-821.961"/>
<text text-anchor="middle" x="515.422" y="-858.5" font-family="Helvetica,sans-Serif" font-size="10.00"> +@3</text>
</g>
<!-- Node7&#45;&gt;Node10 -->
<g id="edge20" class="edge"><title>Node7&#45;&gt;Node10</title>
<path fill="none" stroke="#404040" d="M660.788,-896.962C665.56,-822.401 677.008,-623.058 664.922,-596 657.513,-579.414 646.299,-564.264 633.573,-550.834"/>
<polygon fill="none" stroke="#404040" points="633.493,-550.753 626.424,-549.332 625.017,-542.259 632.086,-543.681 633.493,-550.753"/>
<text text-anchor="middle" x="683.422" y="-728.5" font-family="Helvetica,sans-Serif" font-size="10.00"> +@3</text>
</g>
<!-- Node8&#45;&gt;Node1 -->
<g id="edge24" class="edge"><title>Node8&#45;&gt;Node1</title>
<path fill="none" stroke="#404040" d="M230.389,-640.494C228.605,-638.93 226.783,-637.429 224.922,-636 204.855,-620.595 192.357,-631.436 170.922,-618 149.884,-604.813 142.636,-600.399 131.922,-578 74.9505,-458.901 33.9022,-391.993 106.922,-282 209.429,-127.589 438.132,-76.5992 564.599,-59.9406"/>
<polygon fill="none" stroke="#404040" points="564.606,-59.9398 570.057,-55.2182 576.511,-58.4333 571.061,-63.1549 564.606,-59.9398"/>
<text text-anchor="middle" x="155.422" y="-329" font-family="Helvetica,sans-Serif" font-size="10.00"> +sHeaderType</text>
<text text-anchor="middle" x="155.422" y="-318" font-family="Helvetica,sans-Serif" font-size="10.00">+sSerializationMethod</text>
</g>
<!-- Node8&#45;&gt;Node2 -->
<g id="edge22" class="edge"><title>Node8&#45;&gt;Node2</title>
<path fill="none" stroke="#404040" d="M230.245,-653.947C225.455,-647.832 220.639,-641.785 215.922,-636 194.229,-609.397 177.034,-610.118 164.922,-578 135.124,-498.988 118.138,-458.301 164.922,-388 176.4,-370.752 188.84,-378.069 207.922,-370 299.619,-331.222 320.796,-317.21 413.922,-282 468.94,-261.198 532.17,-240.433 579.769,-225.415"/>
<polygon fill="none" stroke="#404040" points="580.071,-225.32 584.596,-219.706 591.519,-221.724 586.994,-227.339 580.071,-225.32"/>
<text text-anchor="middle" x="213.422" y="-486" font-family="Helvetica,sans-Serif" font-size="10.00"> +sHeaderType</text>
<text text-anchor="middle" x="213.422" y="-475" font-family="Helvetica,sans-Serif" font-size="10.00">+sSerializationMethod</text>
</g>
<!-- Node8&#45;&gt;Node3 -->
<g id="edge7" class="edge"><title>Node8&#45;&gt;Node3</title>
<path fill="none" stroke="orange" d="M225.377,-641.83C215.343,-622.554 209.929,-605.175 215.922,-596 226.804,-579.338 240.404,-589.1 256.922,-578 261.593,-574.861 266.241,-571.484 270.829,-567.942"/>
<polygon fill="orange" stroke="orange" points="222.415,-643.708 230.289,-650.798 228.555,-640.346 222.415,-643.708"/>
<text text-anchor="start" x="215.922" y="-610" font-family="Helvetica,sans-Serif" font-size="10.00"> &lt; gSizeHeaderDescription</text>
<text text-anchor="middle" x="274.922" y="-599" font-family="Helvetica,sans-Serif" font-size="10.00">String &gt;</text>
</g>
<!-- Node8&#45;&gt;Node10 -->
<g id="edge21" class="edge"><title>Node8&#45;&gt;Node10</title>
<path fill="none" stroke="orange" d="M350.271,-644.234C352.805,-641.414 355.359,-638.661 357.922,-636 377.422,-615.75 383.081,-610.898 406.922,-596 423.111,-585.883 430.262,-588.919 445.922,-578 448.856,-575.954 451.78,-573.811 454.683,-571.59"/>
<polygon fill="orange" stroke="orange" points="347.57,-642.005 343.616,-651.834 352.837,-646.616 347.57,-642.005"/>
<text text-anchor="start" x="406.922" y="-610" font-family="Helvetica,sans-Serif" font-size="10.00"> &lt; gSizeSerializationMethod</text>
<text text-anchor="middle" x="468.422" y="-599" font-family="Helvetica,sans-Serif" font-size="10.00">String &gt;</text>
</g>
<!-- Node9 -->
<g id="node9" class="node"><title>Node9</title>
<polygon fill="none" stroke="#bfbfbf" points="825.422,-454.5 825.422,-511.5 876.422,-511.5 876.422,-454.5 825.422,-454.5"/>
<text text-anchor="middle" x="850.922" y="-499.5" font-family="Helvetica,sans-Serif" font-size="10.00">uint32_t</text>
<polyline fill="none" stroke="#bfbfbf" points="825.422,-492.5 876.422,-492.5 "/>
<text text-anchor="middle" x="850.922" y="-480.5" font-family="Helvetica,sans-Serif" font-size="10.00"> </text>
<polyline fill="none" stroke="#bfbfbf" points="825.422,-473.5 876.422,-473.5 "/>
<text text-anchor="middle" x="850.922" y="-461.5" font-family="Helvetica,sans-Serif" font-size="10.00"> </text>
</g>
<!-- Node9&#45;&gt;Node1 -->
<g id="edge23" class="edge"><title>Node9&#45;&gt;Node1</title>
<path fill="none" stroke="#404040" d="M862.254,-454.354C876.732,-414.694 897.286,-340.036 873.922,-282 845.547,-211.515 784.101,-150.514 733.187,-109.08"/>
<polygon fill="none" stroke="#404040" points="733.18,-109.074 725.996,-108.445 723.813,-101.573 730.997,-102.201 733.18,-109.074"/>
<text text-anchor="middle" x="888.922" y="-199.5" font-family="Helvetica,sans-Serif" font-size="10.00"> +sVersion</text>
</g>
<!-- Node9&#45;&gt;Node2 -->
<g id="edge13" class="edge"><title>Node9&#45;&gt;Node2</title>
<path fill="none" stroke="#404040" d="M834.662,-454.227C822.187,-432.017 805.239,-399.776 793.922,-370 779.56,-332.212 794.352,-314.942 770.922,-282 758.798,-264.954 741.748,-250.529 724.37,-238.861"/>
<polygon fill="none" stroke="#404040" points="724.242,-238.779 717.032,-238.913 714.134,-232.31 721.344,-232.175 724.242,-238.779"/>
<text text-anchor="middle" x="833.922" y="-362" font-family="Helvetica,sans-Serif" font-size="10.00"> +headerVersion</text>
<text text-anchor="middle" x="833.922" y="-351" font-family="Helvetica,sans-Serif" font-size="10.00">+headerSize</text>
<text text-anchor="middle" x="833.922" y="-340" font-family="Helvetica,sans-Serif" font-size="10.00">+sMagicString</text>
<text text-anchor="middle" x="833.922" y="-329" font-family="Helvetica,sans-Serif" font-size="10.00">+flagsNextHeader</text>
<text text-anchor="middle" x="833.922" y="-318" font-family="Helvetica,sans-Serif" font-size="10.00">+magicStringInt</text>
<text text-anchor="middle" x="833.922" y="-307" font-family="Helvetica,sans-Serif" font-size="10.00">+flagsUnused</text>
<text text-anchor="middle" x="833.922" y="-296" font-family="Helvetica,sans-Serif" font-size="10.00">+flags</text>
<text text-anchor="middle" x="833.922" y="-285" font-family="Helvetica,sans-Serif" font-size="10.00">+sVersion</text>
</g>
<!-- Node10&#45;&gt;Node2 -->
<g id="edge16" class="edge"><title>Node10&#45;&gt;Node2</title>
<path fill="none" stroke="#404040" d="M546.549,-388.296C551.833,-353.476 561.238,-314.554 577.922,-282 579.938,-278.066 582.211,-274.192 584.678,-270.399"/>
<polygon fill="none" stroke="#404040" points="584.698,-270.371 584.888,-263.163 591.615,-260.566 591.425,-267.774 584.698,-270.371"/>
<text text-anchor="middle" x="608.422" y="-323.5" font-family="Helvetica,sans-Serif" font-size="10.00"> +serialization</text>
</g>
</g>
</svg>
