<?xml version="1.0" encoding="UTF-8" standalone="no"?>
<!DOCTYPE svg PUBLIC "-//W3C//DTD SVG 1.1//EN"
 "http://www.w3.org/Graphics/SVG/1.1/DTD/svg11.dtd">
<!-- Generated by graphviz version 2.36.0 (20140111.2315)
 -->
<!-- Title: /home/travis/build/AliceO2Group/AliceO2/Common/Field/include/Field/MagFieldFast.h Pages: 1 -->
<svg width="1300pt" height="254pt"
 viewBox="0.00 0.00 1300.00 254.00" xmlns="http://www.w3.org/2000/svg" xmlns:xlink="http://www.w3.org/1999/xlink">
<g id="graph0" class="graph" transform="scale(1 1) rotate(0) translate(4 250)">
<title>/home/travis/build/AliceO2Group/AliceO2/Common/Field/include/Field/MagFieldFast.h</title>
<!-- Node1 -->
<g id="node1" class="node"><title>Node1</title>
<polygon fill="#bfbfbf" stroke="black" points="324,-193 324,-245 442,-245 442,-193 324,-193"/>
<text text-anchor="start" x="332" y="-233" font-family="Helvetica,sans-Serif" font-size="10.00">/home/travis/build</text>
<text text-anchor="start" x="332" y="-222" font-family="Helvetica,sans-Serif" font-size="10.00">/AliceO2Group/AliceO2</text>
<text text-anchor="start" x="332" y="-211" font-family="Helvetica,sans-Serif" font-size="10.00">/Common/Field/include</text>
<text text-anchor="middle" x="383" y="-200" font-family="Helvetica,sans-Serif" font-size="10.00">/Field/MagFieldFast.h</text>
</g>
<!-- Node2 -->
<g id="node2" class="node"><title>Node2</title>
<polygon fill="none" stroke="#bfbfbf" points="0,-74.5 0,-93.5 56,-93.5 56,-74.5 0,-74.5"/>
<text text-anchor="middle" x="28" y="-81.5" font-family="Helvetica,sans-Serif" font-size="10.00">Rtypes.h</text>
</g>
<!-- Node1&#45;&gt;Node2 -->
<g id="edge1" class="edge"><title>Node1&#45;&gt;Node2</title>
<path fill="none" stroke="midnightblue" d="M323.899,-196.667C259.896,-173.426 154.893,-134.891 65,-100 62.7646,-99.1324 60.4578,-98.2253 58.1395,-97.3054"/>
<polygon fill="midnightblue" stroke="midnightblue" points="59.284,-93.9934 48.6998,-93.5186 56.6778,-100.49 59.284,-93.9934"/>
</g>
<!-- Node3 -->
<g id="node3" class="node"><title>Node3</title>
<polygon fill="none" stroke="#bfbfbf" points="362.5,-136.5 362.5,-155.5 403.5,-155.5 403.5,-136.5 362.5,-136.5"/>
<text text-anchor="middle" x="383" y="-143.5" font-family="Helvetica,sans-Serif" font-size="10.00">string</text>
</g>
<!-- Node1&#45;&gt;Node3 -->
<g id="edge2" class="edge"><title>Node1&#45;&gt;Node3</title>
<path fill="none" stroke="midnightblue" d="M383,-192.768C383,-183.89 383,-174.074 383,-165.816"/>
<polygon fill="midnightblue" stroke="midnightblue" points="386.5,-165.757 383,-155.757 379.5,-165.757 386.5,-165.757"/>
</g>
<!-- Node4 -->
<g id="node4" class="node"><title>Node4</title>
<g id="a_node4"><a xlink:href="../../dd/d76/Cartesian3D_8h.html" target="_top" xlink:title="MathUtils/Cartesian3D.h">
<polygon fill="none" stroke="black" points="500.5,-136.5 500.5,-155.5 625.5,-155.5 625.5,-136.5 500.5,-136.5"/>
<text text-anchor="middle" x="563" y="-143.5" font-family="Helvetica,sans-Serif" font-size="10.00">MathUtils/Cartesian3D.h</text>
</a>
</g>
</g>
<!-- Node1&#45;&gt;Node4 -->
<g id="edge3" class="edge"><title>Node1&#45;&gt;Node4</title>
<path fill="none" stroke="midnightblue" d="M442.438,-194.555C472.318,-182.769 507.299,-168.971 531.862,-159.282"/>
<polygon fill="midnightblue" stroke="midnightblue" points="533.362,-162.453 541.38,-155.528 530.793,-155.941 533.362,-162.453"/>
</g>
<!-- Node4&#45;&gt;Node2 -->
<g id="edge7" class="edge"><title>Node4&#45;&gt;Node2</title>
<path fill="none" stroke="midnightblue" d="M500.092,-140.357C375.609,-131.018 106.289,-110.001 65,-100 61.9327,-99.2571 58.7861,-98.3039 55.6854,-97.2388"/>
<polygon fill="midnightblue" stroke="midnightblue" points="56.6809,-93.8725 46.0902,-93.5754 54.1841,-100.412 56.6809,-93.8725"/>
</g>
<!-- Node5 -->
<g id="node5" class="node"><title>Node5</title>
<polygon fill="none" stroke="#bfbfbf" points="73.5,-74.5 73.5,-93.5 222.5,-93.5 222.5,-74.5 73.5,-74.5"/>
<text text-anchor="middle" x="148" y="-81.5" font-family="Helvetica,sans-Serif" font-size="10.00">Math/GenVector/Rotation3D.h</text>
</g>
<!-- Node4&#45;&gt;Node5 -->
<g id="edge4" class="edge"><title>Node4&#45;&gt;Node5</title>
<path fill="none" stroke="midnightblue" d="M500.355,-137.272C433.707,-128.865 325.24,-114.657 232,-100 222.865,-98.564 213.191,-96.9365 203.783,-95.2962"/>
<polygon fill="midnightblue" stroke="midnightblue" points="204.174,-91.8112 193.717,-93.5198 202.957,-98.7047 204.174,-91.8112"/>
</g>
<!-- Node6 -->
<g id="node6" class="node"><title>Node6</title>
<polygon fill="none" stroke="#bfbfbf" points="241,-74.5 241,-93.5 397,-93.5 397,-74.5 241,-74.5"/>
<text text-anchor="middle" x="319" y="-81.5" font-family="Helvetica,sans-Serif" font-size="10.00">Math/GenVector/Transform3D.h</text>
</g>
<!-- Node4&#45;&gt;Node6 -->
<g id="edge5" class="edge"><title>Node4&#45;&gt;Node6</title>
<path fill="none" stroke="midnightblue" d="M528.3,-136.467C485.03,-125.827 410.994,-107.622 363.568,-95.9593"/>
<polygon fill="midnightblue" stroke="midnightblue" points="364.127,-92.4926 353.58,-93.5034 362.455,-99.2901 364.127,-92.4926"/>
</g>
<!-- Node7 -->
<g id="node7" class="node"><title>Node7</title>
<polygon fill="none" stroke="#bfbfbf" points="415,-74.5 415,-93.5 575,-93.5 575,-74.5 415,-74.5"/>
<text text-anchor="middle" x="495" y="-81.5" font-family="Helvetica,sans-Serif" font-size="10.00">Math/GenVector/Translation3D.h</text>
</g>
<!-- Node4&#45;&gt;Node7 -->
<g id="edge6" class="edge"><title>Node4&#45;&gt;Node7</title>
<path fill="none" stroke="midnightblue" d="M553.257,-136.403C542.653,-127.047 525.481,-111.895 512.521,-100.46"/>
<polygon fill="midnightblue" stroke="midnightblue" points="514.539,-97.5724 504.725,-93.5806 509.907,-102.821 514.539,-97.5724"/>
</g>
<!-- Node8 -->
<g id="node8" class="node"><title>Node8</title>
<polygon fill="none" stroke="#bfbfbf" points="593,-74.5 593,-93.5 669,-93.5 669,-74.5 593,-74.5"/>
<text text-anchor="middle" x="631" y="-81.5" font-family="Helvetica,sans-Serif" font-size="10.00">TGeoMatrix.h</text>
</g>
<!-- Node4&#45;&gt;Node8 -->
<g id="edge8" class="edge"><title>Node4&#45;&gt;Node8</title>
<path fill="none" stroke="midnightblue" d="M572.743,-136.403C583.347,-127.047 600.519,-111.895 613.479,-100.46"/>
<polygon fill="midnightblue" stroke="midnightblue" points="616.093,-102.821 621.275,-93.5806 611.461,-97.5724 616.093,-102.821"/>
</g>
<!-- Node9 -->
<g id="node9" class="node"><title>Node9</title>
<polygon fill="none" stroke="#bfbfbf" points="687.5,-69 687.5,-99 838.5,-99 838.5,-69 687.5,-69"/>
<text text-anchor="start" x="695.5" y="-87" font-family="Helvetica,sans-Serif" font-size="10.00">Math/GenVector/Displacement</text>
<text text-anchor="middle" x="763" y="-76" font-family="Helvetica,sans-Serif" font-size="10.00">Vector3D.h</text>
</g>
<!-- Node4&#45;&gt;Node9 -->
<g id="edge9" class="edge"><title>Node4&#45;&gt;Node9</title>
<path fill="none" stroke="midnightblue" d="M591.655,-136.403C621.5,-127.45 669.034,-113.19 706.474,-101.958"/>
<polygon fill="midnightblue" stroke="midnightblue" points="707.676,-105.251 716.249,-99.0253 705.665,-98.5465 707.676,-105.251"/>
</g>
<!-- Node10 -->
<g id="node10" class="node"><title>Node10</title>
<polygon fill="none" stroke="#bfbfbf" points="857,-74.5 857,-93.5 1033,-93.5 1033,-74.5 857,-74.5"/>
<text text-anchor="middle" x="945" y="-81.5" font-family="Helvetica,sans-Serif" font-size="10.00">Math/GenVector/PositionVector3D.h</text>
</g>
<!-- Node4&#45;&gt;Node10 -->
<g id="edge10" class="edge"><title>Node4&#45;&gt;Node10</title>
<path fill="none" stroke="midnightblue" d="M617.326,-136.467C686.771,-125.559 806.839,-106.701 880.749,-95.0918"/>
<polygon fill="midnightblue" stroke="midnightblue" points="881.526,-98.5127 890.862,-93.5034 880.44,-91.5975 881.526,-98.5127"/>
</g>
<!-- Node11 -->
<g id="node11" class="node"><title>Node11</title>
<g id="a_node11"><a xlink:href="../../d2/dd0/Cartesian2D_8h.html" target="_top" xlink:title="MathUtils/Cartesian2D.h">
<polygon fill="none" stroke="black" points="1050.5,-74.5 1050.5,-93.5 1175.5,-93.5 1175.5,-74.5 1050.5,-74.5"/>
<text text-anchor="middle" x="1113" y="-81.5" font-family="Helvetica,sans-Serif" font-size="10.00">MathUtils/Cartesian2D.h</text>
</a>
</g>
</g>
<!-- Node4&#45;&gt;Node11 -->
<g id="edge11" class="edge"><title>Node4&#45;&gt;Node11</title>
<path fill="none" stroke="midnightblue" d="M625.526,-141.346C717.085,-135.491 892.847,-122.335 1041,-100 1049.17,-98.7686 1057.81,-97.2016 1066.16,-95.5472"/>
<polygon fill="midnightblue" stroke="midnightblue" points="1067.05,-98.9369 1076.14,-93.5027 1065.65,-92.0791 1067.05,-98.9369"/>
</g>
<!-- Node14 -->
<g id="node14" class="node"><title>Node14</title>
<polygon fill="none" stroke="#bfbfbf" points="1194,-74.5 1194,-93.5 1248,-93.5 1248,-74.5 1194,-74.5"/>
<text text-anchor="middle" x="1221" y="-81.5" font-family="Helvetica,sans-Serif" font-size="10.00">iostream</text>
</g>
<!-- Node4&#45;&gt;Node14 -->
<g id="edge14" class="edge"><title>Node4&#45;&gt;Node14</title>
<path fill="none" stroke="midnightblue" d="M625.559,-142.946C761.307,-138.087 1079.12,-124.42 1184,-100 1187.07,-99.2844 1190.22,-98.3488 1193.33,-97.2942"/>
<polygon fill="midnightblue" stroke="midnightblue" points="1194.82,-100.47 1202.93,-93.6431 1192.33,-93.9272 1194.82,-100.47"/>
</g>
<!-- Node12 -->
<g id="node12" class="node"><title>Node12</title>
<polygon fill="none" stroke="#bfbfbf" points="946.5,-1 946.5,-31 1097.5,-31 1097.5,-1 946.5,-1"/>
<text text-anchor="start" x="954.5" y="-19" font-family="Helvetica,sans-Serif" font-size="10.00">Math/GenVector/Displacement</text>
<text text-anchor="middle" x="1022" y="-8" font-family="Helvetica,sans-Serif" font-size="10.00">Vector2D.h</text>
</g>
<!-- Node11&#45;&gt;Node12 -->
<g id="edge12" class="edge"><title>Node11&#45;&gt;Node12</title>
<path fill="none" stroke="midnightblue" d="M1101.1,-74.3717C1088.22,-65.0286 1067.22,-49.7966 1050.09,-37.375"/>
<polygon fill="midnightblue" stroke="midnightblue" points="1051.7,-34.2194 1041.55,-31.1815 1047.59,-39.8859 1051.7,-34.2194"/>
</g>
<!-- Node13 -->
<g id="node13" class="node"><title>Node13</title>
<polygon fill="none" stroke="#bfbfbf" points="1116,-6.5 1116,-25.5 1292,-25.5 1292,-6.5 1116,-6.5"/>
<text text-anchor="middle" x="1204" y="-13.5" font-family="Helvetica,sans-Serif" font-size="10.00">Math/GenVector/PositionVector2D.h</text>
</g>
<!-- Node11&#45;&gt;Node13 -->
<g id="edge13" class="edge"><title>Node11&#45;&gt;Node13</title>
<path fill="none" stroke="midnightblue" d="M1124.9,-74.3717C1139.88,-63.5015 1165.86,-44.6602 1183.94,-31.5474"/>
<polygon fill="midnightblue" stroke="midnightblue" points="1186.06,-34.3349 1192.1,-25.6305 1181.95,-28.6684 1186.06,-34.3349"/>
</g>
</g>
</svg>
