<?xml version="1.0" encoding="UTF-8" standalone="no"?>
<!DOCTYPE svg PUBLIC "-//W3C//DTD SVG 1.1//EN"
 "http://www.w3.org/Graphics/SVG/1.1/DTD/svg11.dtd">
<!-- Generated by graphviz version 2.36.0 (20140111.2315)
 -->
<!-- Title: /home/travis/build/AliceO2Group/AliceO2/Detectors/TOF/base/include/TOFBase/Geo.h Pages: 1 -->
<svg width="930pt" height="432pt"
 viewBox="0.00 0.00 930.00 432.00" xmlns="http://www.w3.org/2000/svg" xmlns:xlink="http://www.w3.org/1999/xlink">
<g id="graph0" class="graph" transform="scale(1 1) rotate(0) translate(4 428)">
<title>/home/travis/build/AliceO2Group/AliceO2/Detectors/TOF/base/include/TOFBase/Geo.h</title>
<!-- Node1 -->
<g id="node1" class="node"><title>Node1</title>
<polygon fill="#bfbfbf" stroke="black" points="181.5,-371 181.5,-423 324.5,-423 324.5,-371 181.5,-371"/>
<text text-anchor="start" x="189.5" y="-411" font-family="Helvetica,sans-Serif" font-size="10.00">/home/travis/build</text>
<text text-anchor="start" x="189.5" y="-400" font-family="Helvetica,sans-Serif" font-size="10.00">/AliceO2Group/AliceO2</text>
<text text-anchor="start" x="189.5" y="-389" font-family="Helvetica,sans-Serif" font-size="10.00">/Detectors/TOF/base/include</text>
<text text-anchor="middle" x="253" y="-378" font-family="Helvetica,sans-Serif" font-size="10.00">/TOFBase/Geo.h</text>
</g>
<!-- Node2 -->
<g id="node2" class="node"><title>Node2</title>
<g id="a_node2"><a xlink:href="../../da/d39/Geo_8cxx.html" target="_top" xlink:title="/home/travis/build\l/AliceO2Group/AliceO2\l/Detectors/TOF/base/src\l/Geo.cxx">
<polygon fill="none" stroke="black" points="-0.5,-281 -0.5,-333 124.5,-333 124.5,-281 -0.5,-281"/>
<text text-anchor="start" x="7.5" y="-321" font-family="Helvetica,sans-Serif" font-size="10.00">/home/travis/build</text>
<text text-anchor="start" x="7.5" y="-310" font-family="Helvetica,sans-Serif" font-size="10.00">/AliceO2Group/AliceO2</text>
<text text-anchor="start" x="7.5" y="-299" font-family="Helvetica,sans-Serif" font-size="10.00">/Detectors/TOF/base/src</text>
<text text-anchor="middle" x="62" y="-288" font-family="Helvetica,sans-Serif" font-size="10.00">/Geo.cxx</text>
</a>
</g>
</g>
<!-- Node1&#45;&gt;Node2 -->
<g id="edge1" class="edge"><title>Node1&#45;&gt;Node2</title>
<path fill="none" stroke="midnightblue" d="M189.305,-366.654C165.731,-355.792 139.238,-343.586 116.55,-333.133"/>
<polygon fill="midnightblue" stroke="midnightblue" points="187.976,-369.895 198.523,-370.901 190.905,-363.537 187.976,-369.895"/>
</g>
<!-- Node3 -->
<g id="node3" class="node"><title>Node3</title>
<g id="a_node3"><a xlink:href="../../d3/d5a/testTOFIndex_8cxx.html" target="_top" xlink:title="/home/travis/build\l/AliceO2Group/AliceO2\l/Detectors/TOF/base/test\l/testTOFIndex.cxx">
<polygon fill="none" stroke="black" points="143,-281 143,-333 271,-333 271,-281 143,-281"/>
<text text-anchor="start" x="151" y="-321" font-family="Helvetica,sans-Serif" font-size="10.00">/home/travis/build</text>
<text text-anchor="start" x="151" y="-310" font-family="Helvetica,sans-Serif" font-size="10.00">/AliceO2Group/AliceO2</text>
<text text-anchor="start" x="151" y="-299" font-family="Helvetica,sans-Serif" font-size="10.00">/Detectors/TOF/base/test</text>
<text text-anchor="middle" x="207" y="-288" font-family="Helvetica,sans-Serif" font-size="10.00">/testTOFIndex.cxx</text>
</a>
</g>
</g>
<!-- Node1&#45;&gt;Node3 -->
<g id="edge2" class="edge"><title>Node1&#45;&gt;Node3</title>
<path fill="none" stroke="midnightblue" d="M235.055,-361.671C230.076,-352.145 224.764,-341.983 220.116,-333.092"/>
<polygon fill="midnightblue" stroke="midnightblue" points="231.961,-363.306 239.695,-370.547 238.164,-360.063 231.961,-363.306"/>
</g>
<!-- Node4 -->
<g id="node4" class="node"><title>Node4</title>
<g id="a_node4"><a xlink:href="../../d5/d3c/TOF_2simulation_2include_2TOFSimulation_2Detector_8h.html" target="_top" xlink:title="/home/travis/build\l/AliceO2Group/AliceO2\l/Detectors/TOF/simulation\l/include/TOFSimulation/Detector.h">
<polygon fill="none" stroke="black" points="446.5,-281 446.5,-333 613.5,-333 613.5,-281 446.5,-281"/>
<text text-anchor="start" x="454.5" y="-321" font-family="Helvetica,sans-Serif" font-size="10.00">/home/travis/build</text>
<text text-anchor="start" x="454.5" y="-310" font-family="Helvetica,sans-Serif" font-size="10.00">/AliceO2Group/AliceO2</text>
<text text-anchor="start" x="454.5" y="-299" font-family="Helvetica,sans-Serif" font-size="10.00">/Detectors/TOF/simulation</text>
<text text-anchor="middle" x="530" y="-288" font-family="Helvetica,sans-Serif" font-size="10.00">/include/TOFSimulation/Detector.h</text>
</a>
</g>
</g>
<!-- Node1&#45;&gt;Node4 -->
<g id="edge3" class="edge"><title>Node1&#45;&gt;Node4</title>
<path fill="none" stroke="midnightblue" d="M334.417,-370.135C371.305,-358.416 414.742,-344.616 451.299,-333.003"/>
<polygon fill="midnightblue" stroke="midnightblue" points="333.165,-366.86 324.695,-373.223 335.285,-373.531 333.165,-366.86"/>
</g>
<!-- Node7 -->
<g id="node7" class="node"><title>Node7</title>
<g id="a_node7"><a xlink:href="../../d0/d85/TOF_2simulation_2include_2TOFSimulation_2Digitizer_8h.html" target="_top" xlink:title="/home/travis/build\l/AliceO2Group/AliceO2\l/Detectors/TOF/simulation\l/include/TOFSimulation/Digitizer.h">
<polygon fill="none" stroke="black" points="96,-191 96,-243 262,-243 262,-191 96,-191"/>
<text text-anchor="start" x="104" y="-231" font-family="Helvetica,sans-Serif" font-size="10.00">/home/travis/build</text>
<text text-anchor="start" x="104" y="-220" font-family="Helvetica,sans-Serif" font-size="10.00">/AliceO2Group/AliceO2</text>
<text text-anchor="start" x="104" y="-209" font-family="Helvetica,sans-Serif" font-size="10.00">/Detectors/TOF/simulation</text>
<text text-anchor="middle" x="179" y="-198" font-family="Helvetica,sans-Serif" font-size="10.00">/include/TOFSimulation/Digitizer.h</text>
</a>
</g>
</g>
<!-- Node1&#45;&gt;Node7 -->
<g id="edge14" class="edge"><title>Node1&#45;&gt;Node7</title>
<path fill="none" stroke="midnightblue" d="M273.44,-361.427C284.804,-337.349 294.083,-305.17 280,-280 271.31,-264.469 256.961,-252.354 241.77,-243.121"/>
<polygon fill="midnightblue" stroke="midnightblue" points="270.217,-360.045 268.854,-370.552 276.472,-363.188 270.217,-360.045"/>
</g>
<!-- Node5 -->
<g id="node5" class="node"><title>Node5</title>
<g id="a_node5"><a xlink:href="../../d3/ddc/drawEMCALgeometry_8C.html" target="_top" xlink:title="/home/travis/build\l/AliceO2Group/AliceO2\l/Detectors/EMCAL/testsimulation\l/drawEMCALgeometry.C">
<polygon fill="none" stroke="black" points="280,-191 280,-243 444,-243 444,-191 280,-191"/>
<text text-anchor="start" x="288" y="-231" font-family="Helvetica,sans-Serif" font-size="10.00">/home/travis/build</text>
<text text-anchor="start" x="288" y="-220" font-family="Helvetica,sans-Serif" font-size="10.00">/AliceO2Group/AliceO2</text>
<text text-anchor="start" x="288" y="-209" font-family="Helvetica,sans-Serif" font-size="10.00">/Detectors/EMCAL/testsimulation</text>
<text text-anchor="middle" x="362" y="-198" font-family="Helvetica,sans-Serif" font-size="10.00">/drawEMCALgeometry.C</text>
</a>
</g>
</g>
<!-- Node4&#45;&gt;Node5 -->
<g id="edge4" class="edge"><title>Node4&#45;&gt;Node5</title>
<path fill="none" stroke="midnightblue" d="M472.927,-276.105C452.415,-265.36 429.507,-253.361 409.858,-243.069"/>
<polygon fill="midnightblue" stroke="midnightblue" points="471.376,-279.243 481.858,-280.783 474.624,-273.042 471.376,-279.243"/>
</g>
<!-- Node6 -->
<g id="node6" class="node"><title>Node6</title>
<g id="a_node6"><a xlink:href="../../de/d69/drawTOFgeometry_8C.html" target="_top" xlink:title="/home/travis/build\l/AliceO2Group/AliceO2\l/Detectors/TOF/prototyping\l/drawTOFgeometry.C">
<polygon fill="none" stroke="black" points="462,-191 462,-243 598,-243 598,-191 462,-191"/>
<text text-anchor="start" x="470" y="-231" font-family="Helvetica,sans-Serif" font-size="10.00">/home/travis/build</text>
<text text-anchor="start" x="470" y="-220" font-family="Helvetica,sans-Serif" font-size="10.00">/AliceO2Group/AliceO2</text>
<text text-anchor="start" x="470" y="-209" font-family="Helvetica,sans-Serif" font-size="10.00">/Detectors/TOF/prototyping</text>
<text text-anchor="middle" x="530" y="-198" font-family="Helvetica,sans-Serif" font-size="10.00">/drawTOFgeometry.C</text>
</a>
</g>
</g>
<!-- Node4&#45;&gt;Node6 -->
<g id="edge5" class="edge"><title>Node4&#45;&gt;Node6</title>
<path fill="none" stroke="midnightblue" d="M530,-270.489C530,-261.309 530,-251.616 530,-243.092"/>
<polygon fill="midnightblue" stroke="midnightblue" points="526.5,-270.547 530,-280.547 533.5,-270.547 526.5,-270.547"/>
</g>
<!-- Node4&#45;&gt;Node7 -->
<g id="edge6" class="edge"><title>Node4&#45;&gt;Node7</title>
<path fill="none" stroke="midnightblue" d="M436.372,-284.551C387.051,-273.009 325.62,-258.249 271,-244 268.109,-243.246 265.17,-242.469 262.204,-241.677"/>
<polygon fill="midnightblue" stroke="midnightblue" points="435.853,-288.024 446.387,-286.89 437.445,-281.207 435.853,-288.024"/>
</g>
<!-- Node8 -->
<g id="node8" class="node"><title>Node8</title>
<g id="a_node8"><a xlink:href="../../d8/dc6/TOF_2simulation_2include_2TOFSimulation_2DigitizerTask_8h.html" target="_top" xlink:title="/home/travis/build\l/AliceO2Group/AliceO2\l/Detectors/TOF/simulation\l/include/TOFSimulation/Digitizer\lTask.h">
<polygon fill="none" stroke="black" points="405,-90.5 405,-153.5 563,-153.5 563,-90.5 405,-90.5"/>
<text text-anchor="start" x="413" y="-141.5" font-family="Helvetica,sans-Serif" font-size="10.00">/home/travis/build</text>
<text text-anchor="start" x="413" y="-130.5" font-family="Helvetica,sans-Serif" font-size="10.00">/AliceO2Group/AliceO2</text>
<text text-anchor="start" x="413" y="-119.5" font-family="Helvetica,sans-Serif" font-size="10.00">/Detectors/TOF/simulation</text>
<text text-anchor="start" x="413" y="-108.5" font-family="Helvetica,sans-Serif" font-size="10.00">/include/TOFSimulation/Digitizer</text>
<text text-anchor="middle" x="484" y="-97.5" font-family="Helvetica,sans-Serif" font-size="10.00">Task.h</text>
</a>
</g>
</g>
<!-- Node4&#45;&gt;Node8 -->
<g id="edge11" class="edge"><title>Node4&#45;&gt;Node8</title>
<path fill="none" stroke="midnightblue" d="M582.726,-274.245C592.541,-265.729 601.445,-255.605 607,-244 617.362,-222.352 619.257,-210.634 607,-190 596.817,-172.857 580.537,-159.822 563.112,-150.022"/>
<polygon fill="midnightblue" stroke="midnightblue" points="580.283,-271.72 574.706,-280.728 584.683,-277.164 580.283,-271.72"/>
</g>
<!-- Node12 -->
<g id="node12" class="node"><title>Node12</title>
<g id="a_node12"><a xlink:href="../../d4/d59/TOF_2simulation_2src_2Detector_8cxx.html" target="_top" xlink:title="/home/travis/build\l/AliceO2Group/AliceO2\l/Detectors/TOF/simulation\l/src/Detector.cxx">
<polygon fill="none" stroke="black" points="654,-191 654,-243 786,-243 786,-191 654,-191"/>
<text text-anchor="start" x="662" y="-231" font-family="Helvetica,sans-Serif" font-size="10.00">/home/travis/build</text>
<text text-anchor="start" x="662" y="-220" font-family="Helvetica,sans-Serif" font-size="10.00">/AliceO2Group/AliceO2</text>
<text text-anchor="start" x="662" y="-209" font-family="Helvetica,sans-Serif" font-size="10.00">/Detectors/TOF/simulation</text>
<text text-anchor="middle" x="720" y="-198" font-family="Helvetica,sans-Serif" font-size="10.00">/src/Detector.cxx</text>
</a>
</g>
</g>
<!-- Node4&#45;&gt;Node12 -->
<g id="edge12" class="edge"><title>Node4&#45;&gt;Node12</title>
<path fill="none" stroke="midnightblue" d="M593.362,-276.654C616.812,-265.792 643.166,-253.586 665.736,-243.133"/>
<polygon fill="midnightblue" stroke="midnightblue" points="591.795,-273.522 584.192,-280.901 594.737,-279.874 591.795,-273.522"/>
</g>
<!-- Node13 -->
<g id="node13" class="node"><title>Node13</title>
<g id="a_node13"><a xlink:href="../../dc/d6a/run__sim__tof_8C.html" target="_top" xlink:title="/home/travis/build\l/AliceO2Group/AliceO2\l/macro/run_sim_tof.C">
<polygon fill="none" stroke="black" points="804,-196.5 804,-237.5 922,-237.5 922,-196.5 804,-196.5"/>
<text text-anchor="start" x="812" y="-225.5" font-family="Helvetica,sans-Serif" font-size="10.00">/home/travis/build</text>
<text text-anchor="start" x="812" y="-214.5" font-family="Helvetica,sans-Serif" font-size="10.00">/AliceO2Group/AliceO2</text>
<text text-anchor="middle" x="863" y="-203.5" font-family="Helvetica,sans-Serif" font-size="10.00">/macro/run_sim_tof.C</text>
</a>
</g>
</g>
<!-- Node4&#45;&gt;Node13 -->
<g id="edge13" class="edge"><title>Node4&#45;&gt;Node13</title>
<path fill="none" stroke="midnightblue" d="M623.761,-287.304C674.835,-276.311 738.886,-261.205 795,-244 801.284,-242.073 807.82,-239.857 814.248,-237.547"/>
<polygon fill="midnightblue" stroke="midnightblue" points="622.774,-283.936 613.725,-289.448 624.236,-290.782 622.774,-283.936"/>
</g>
<!-- Node7&#45;&gt;Node8 -->
<g id="edge7" class="edge"><title>Node7&#45;&gt;Node8</title>
<path fill="none" stroke="midnightblue" d="M270.967,-187.958C313.659,-174.94 363.907,-159.619 404.878,-147.126"/>
<polygon fill="midnightblue" stroke="midnightblue" points="269.68,-184.691 261.136,-190.955 271.722,-191.387 269.68,-184.691"/>
</g>
<!-- Node11 -->
<g id="node11" class="node"><title>Node11</title>
<g id="a_node11"><a xlink:href="../../d4/df3/TOF_2simulation_2src_2Digitizer_8cxx.html" target="_top" xlink:title="/home/travis/build\l/AliceO2Group/AliceO2\l/Detectors/TOF/simulation\l/src/Digitizer.cxx">
<polygon fill="none" stroke="black" points="113,-96 113,-148 245,-148 245,-96 113,-96"/>
<text text-anchor="start" x="121" y="-136" font-family="Helvetica,sans-Serif" font-size="10.00">/home/travis/build</text>
<text text-anchor="start" x="121" y="-125" font-family="Helvetica,sans-Serif" font-size="10.00">/AliceO2Group/AliceO2</text>
<text text-anchor="start" x="121" y="-114" font-family="Helvetica,sans-Serif" font-size="10.00">/Detectors/TOF/simulation</text>
<text text-anchor="middle" x="179" y="-103" font-family="Helvetica,sans-Serif" font-size="10.00">/src/Digitizer.cxx</text>
</a>
</g>
</g>
<!-- Node7&#45;&gt;Node11 -->
<g id="edge10" class="edge"><title>Node7&#45;&gt;Node11</title>
<path fill="none" stroke="midnightblue" d="M179,-180.549C179,-169.722 179,-158.046 179,-148.06"/>
<polygon fill="midnightblue" stroke="midnightblue" points="175.5,-180.587 179,-190.587 182.5,-180.587 175.5,-180.587"/>
</g>
<!-- Node9 -->
<g id="node9" class="node"><title>Node9</title>
<g id="a_node9"><a xlink:href="../../dd/df3/TOF_2simulation_2src_2DigitizerTask_8cxx.html" target="_top" xlink:title="/home/travis/build\l/AliceO2Group/AliceO2\l/Detectors/TOF/simulation\l/src/DigitizerTask.cxx">
<polygon fill="none" stroke="black" points="347,-1 347,-53 479,-53 479,-1 347,-1"/>
<text text-anchor="start" x="355" y="-41" font-family="Helvetica,sans-Serif" font-size="10.00">/home/travis/build</text>
<text text-anchor="start" x="355" y="-30" font-family="Helvetica,sans-Serif" font-size="10.00">/AliceO2Group/AliceO2</text>
<text text-anchor="start" x="355" y="-19" font-family="Helvetica,sans-Serif" font-size="10.00">/Detectors/TOF/simulation</text>
<text text-anchor="middle" x="413" y="-8" font-family="Helvetica,sans-Serif" font-size="10.00">/src/DigitizerTask.cxx</text>
</a>
</g>
</g>
<!-- Node8&#45;&gt;Node9 -->
<g id="edge8" class="edge"><title>Node8&#45;&gt;Node9</title>
<path fill="none" stroke="midnightblue" d="M454.366,-82.1833C446.86,-72.3522 438.995,-62.0498 432.162,-53.1001"/>
<polygon fill="midnightblue" stroke="midnightblue" points="451.705,-84.466 460.555,-90.2906 457.269,-80.2183 451.705,-84.466"/>
</g>
<!-- Node10 -->
<g id="node10" class="node"><title>Node10</title>
<g id="a_node10"><a xlink:href="../../db/d79/run__digi__tof_8C.html" target="_top" xlink:title="/home/travis/build\l/AliceO2Group/AliceO2\l/macro/run_digi_tof.C">
<polygon fill="none" stroke="black" points="497,-6.5 497,-47.5 615,-47.5 615,-6.5 497,-6.5"/>
<text text-anchor="start" x="505" y="-35.5" font-family="Helvetica,sans-Serif" font-size="10.00">/home/travis/build</text>
<text text-anchor="start" x="505" y="-24.5" font-family="Helvetica,sans-Serif" font-size="10.00">/AliceO2Group/AliceO2</text>
<text text-anchor="middle" x="556" y="-13.5" font-family="Helvetica,sans-Serif" font-size="10.00">/macro/run_digi_tof.C</text>
</a>
</g>
</g>
<!-- Node8&#45;&gt;Node10 -->
<g id="edge9" class="edge"><title>Node8&#45;&gt;Node10</title>
<path fill="none" stroke="midnightblue" d="M514.052,-82.1833C523.287,-70.2549 533.059,-57.6327 540.845,-47.5747"/>
<polygon fill="midnightblue" stroke="midnightblue" points="511.129,-80.2407 507.775,-90.2906 516.664,-84.5259 511.129,-80.2407"/>
</g>
</g>
</svg>
