<?xml version="1.0" encoding="UTF-8" standalone="no"?>
<!DOCTYPE svg PUBLIC "-//W3C//DTD SVG 1.1//EN"
 "http://www.w3.org/Graphics/SVG/1.1/DTD/svg11.dtd">
<!-- Generated by graphviz version 2.36.0 (20140111.2315)
 -->
<!-- Title: o2::DataFormat::TPC::ClusterNativeAccessFullTPC Pages: 1 -->
<svg width="591pt" height="630pt"
 viewBox="0.00 0.00 591.00 630.00" xmlns="http://www.w3.org/2000/svg" xmlns:xlink="http://www.w3.org/1999/xlink">
<g id="graph0" class="graph" transform="scale(1 1) rotate(0) translate(4 626)">
<title>o2::DataFormat::TPC::ClusterNativeAccessFullTPC</title>
<!-- Node1 -->
<g id="node1" class="node"><title>Node1</title>
<polygon fill="#bfbfbf" stroke="black" points="248,-1 248,-69 400,-69 400,-1 248,-1"/>
<text text-anchor="start" x="256" y="-57" font-family="Helvetica,sans-Serif" font-size="10.00">o2::DataFormat::TPC</text>
<text text-anchor="middle" x="324" y="-46" font-family="Helvetica,sans-Serif" font-size="10.00">::ClusterNativeAccessFullTPC</text>
<polyline fill="none" stroke="black" points="248,-39 400,-39 "/>
<text text-anchor="middle" x="324" y="-27" font-family="Helvetica,sans-Serif" font-size="10.00"> </text>
<polyline fill="none" stroke="black" points="248,-20 400,-20 "/>
<text text-anchor="middle" x="324" y="-8" font-family="Helvetica,sans-Serif" font-size="10.00"> </text>
</g>
<!-- Node2 -->
<g id="node2" class="node"><title>Node2</title>
<g id="a_node2"><a xlink:href="../../da/dad/structo2_1_1DataFormat_1_1TPC_1_1ClusterNative.html" target="_top" xlink:title="{o2::DataFormat::TPC\l::ClusterNative\n||+ getFlags()\l+ getTimePacked()\l+ setTimePackedFlags()\l+ setTimePacked()\l+ setFlags()\l+ getTime()\l+ setTime()\l+ setTimeFlags()\l+ getPad()\l+ setPad()\l+ getSigmaTime()\l+ setSigmaTime()\l+ getSigmaPad()\l+ setSigmaPad()\l}">
<polygon fill="none" stroke="black" points="149,-118.5 149,-329.5 273,-329.5 273,-118.5 149,-118.5"/>
<text text-anchor="start" x="157" y="-317.5" font-family="Helvetica,sans-Serif" font-size="10.00">o2::DataFormat::TPC</text>
<text text-anchor="middle" x="211" y="-306.5" font-family="Helvetica,sans-Serif" font-size="10.00">::ClusterNative</text>
<polyline fill="none" stroke="black" points="149,-299.5 273,-299.5 "/>
<text text-anchor="middle" x="211" y="-287.5" font-family="Helvetica,sans-Serif" font-size="10.00"> </text>
<polyline fill="none" stroke="black" points="149,-280.5 273,-280.5 "/>
<text text-anchor="start" x="157" y="-268.5" font-family="Helvetica,sans-Serif" font-size="10.00">+ getFlags()</text>
<text text-anchor="start" x="157" y="-257.5" font-family="Helvetica,sans-Serif" font-size="10.00">+ getTimePacked()</text>
<text text-anchor="start" x="157" y="-246.5" font-family="Helvetica,sans-Serif" font-size="10.00">+ setTimePackedFlags()</text>
<text text-anchor="start" x="157" y="-235.5" font-family="Helvetica,sans-Serif" font-size="10.00">+ setTimePacked()</text>
<text text-anchor="start" x="157" y="-224.5" font-family="Helvetica,sans-Serif" font-size="10.00">+ setFlags()</text>
<text text-anchor="start" x="157" y="-213.5" font-family="Helvetica,sans-Serif" font-size="10.00">+ getTime()</text>
<text text-anchor="start" x="157" y="-202.5" font-family="Helvetica,sans-Serif" font-size="10.00">+ setTime()</text>
<text text-anchor="start" x="157" y="-191.5" font-family="Helvetica,sans-Serif" font-size="10.00">+ setTimeFlags()</text>
<text text-anchor="start" x="157" y="-180.5" font-family="Helvetica,sans-Serif" font-size="10.00">+ getPad()</text>
<text text-anchor="start" x="157" y="-169.5" font-family="Helvetica,sans-Serif" font-size="10.00">+ setPad()</text>
<text text-anchor="start" x="157" y="-158.5" font-family="Helvetica,sans-Serif" font-size="10.00">+ getSigmaTime()</text>
<text text-anchor="start" x="157" y="-147.5" font-family="Helvetica,sans-Serif" font-size="10.00">+ setSigmaTime()</text>
<text text-anchor="start" x="157" y="-136.5" font-family="Helvetica,sans-Serif" font-size="10.00">+ getSigmaPad()</text>
<text text-anchor="start" x="157" y="-125.5" font-family="Helvetica,sans-Serif" font-size="10.00">+ setSigmaPad()</text>
</a>
</g>
</g>
<!-- Node2&#45;&gt;Node1 -->
<g id="edge1" class="edge"><title>Node2&#45;&gt;Node1</title>
<path fill="none" stroke="#404040" d="M257.464,-118.422C263.282,-107.897 269.492,-97.5729 276,-88 278.176,-84.7995 280.543,-81.5993 283.021,-78.4478"/>
<polygon fill="none" stroke="#404040" points="283.044,-78.4201 283.8,-71.2486 290.71,-69.1878 289.955,-76.3592 283.044,-78.4201"/>
<text text-anchor="middle" x="298" y="-91.5" font-family="Helvetica,sans-Serif" font-size="10.00"> +clusters</text>
</g>
<!-- Node3 -->
<g id="node3" class="node"><title>Node3</title>
<polygon fill="none" stroke="#bfbfbf" points="-0.5,-487.5 -0.5,-544.5 50.5,-544.5 50.5,-487.5 -0.5,-487.5"/>
<text text-anchor="middle" x="25" y="-532.5" font-family="Helvetica,sans-Serif" font-size="10.00">uint32_t</text>
<polyline fill="none" stroke="#bfbfbf" points="-0.5,-525.5 50.5,-525.5 "/>
<text text-anchor="middle" x="25" y="-513.5" font-family="Helvetica,sans-Serif" font-size="10.00"> </text>
<polyline fill="none" stroke="#bfbfbf" points="-0.5,-506.5 50.5,-506.5 "/>
<text text-anchor="middle" x="25" y="-494.5" font-family="Helvetica,sans-Serif" font-size="10.00"> </text>
</g>
<!-- Node3&#45;&gt;Node2 -->
<g id="edge2" class="edge"><title>Node3&#45;&gt;Node2</title>
<path fill="none" stroke="#404040" d="M23.9271,-487.496C23.81,-452.595 27.8659,-391.689 54,-348 74.2818,-314.095 107.673,-285.978 138.459,-265.226"/>
<polygon fill="none" stroke="#404040" points="138.736,-265.045 141.566,-258.412 148.777,-258.473 145.947,-265.106 138.736,-265.045"/>
<text text-anchor="middle" x="96.5" y="-367.5" font-family="Helvetica,sans-Serif" font-size="10.00"> +timeFlagsPacked</text>
</g>
<!-- Node4 -->
<g id="node4" class="node"><title>Node4</title>
<polygon fill="none" stroke="#bfbfbf" points="107.5,-487.5 107.5,-544.5 158.5,-544.5 158.5,-487.5 107.5,-487.5"/>
<text text-anchor="middle" x="133" y="-532.5" font-family="Helvetica,sans-Serif" font-size="10.00">uint16_t</text>
<polyline fill="none" stroke="#bfbfbf" points="107.5,-525.5 158.5,-525.5 "/>
<text text-anchor="middle" x="133" y="-513.5" font-family="Helvetica,sans-Serif" font-size="10.00"> </text>
<polyline fill="none" stroke="#bfbfbf" points="107.5,-506.5 158.5,-506.5 "/>
<text text-anchor="middle" x="133" y="-494.5" font-family="Helvetica,sans-Serif" font-size="10.00"> </text>
</g>
<!-- Node4&#45;&gt;Node2 -->
<g id="edge3" class="edge"><title>Node4&#45;&gt;Node2</title>
<path fill="none" stroke="#404040" d="M133.346,-487.262C134.402,-453.672 138.278,-395.671 152,-348 152.651,-345.738 153.34,-343.467 154.064,-341.19"/>
<polygon fill="none" stroke="#404040" points="154.082,-341.136 152.231,-334.167 157.952,-329.777 159.803,-336.746 154.082,-341.136"/>
<text text-anchor="middle" x="179.5" y="-378.5" font-family="Helvetica,sans-Serif" font-size="10.00"> +qTot</text>
<text text-anchor="middle" x="179.5" y="-367.5" font-family="Helvetica,sans-Serif" font-size="10.00">+padPacked</text>
<text text-anchor="middle" x="179.5" y="-356.5" font-family="Helvetica,sans-Serif" font-size="10.00">+qMax</text>
</g>
<!-- Node5 -->
<g id="node5" class="node"><title>Node5</title>
<polygon fill="none" stroke="#bfbfbf" points="196.5,-487.5 196.5,-544.5 225.5,-544.5 225.5,-487.5 196.5,-487.5"/>
<text text-anchor="middle" x="211" y="-532.5" font-family="Helvetica,sans-Serif" font-size="10.00">int</text>
<polyline fill="none" stroke="#bfbfbf" points="196.5,-525.5 225.5,-525.5 "/>
<text text-anchor="middle" x="211" y="-513.5" font-family="Helvetica,sans-Serif" font-size="10.00"> </text>
<polyline fill="none" stroke="#bfbfbf" points="196.5,-506.5 225.5,-506.5 "/>
<text text-anchor="middle" x="211" y="-494.5" font-family="Helvetica,sans-Serif" font-size="10.00"> </text>
</g>
<!-- Node5&#45;&gt;Node2 -->
<g id="edge4" class="edge"><title>Node5&#45;&gt;Node2</title>
<path fill="none" stroke="#404040" d="M211,-487.456C211,-453.938 211,-395.19 211,-341.763"/>
<polygon fill="none" stroke="#404040" points="211,-341.745 207,-335.746 211,-329.745 215,-335.745 211,-341.745"/>
<text text-anchor="middle" x="267" y="-384" font-family="Helvetica,sans-Serif" font-size="10.00"> +scaleTimePacked</text>
<text text-anchor="middle" x="267" y="-373" font-family="Helvetica,sans-Serif" font-size="10.00">+scaleSigmaPadPacked</text>
<text text-anchor="middle" x="267" y="-362" font-family="Helvetica,sans-Serif" font-size="10.00">+scaleSigmaTimePacked</text>
<text text-anchor="middle" x="267" y="-351" font-family="Helvetica,sans-Serif" font-size="10.00">+scalePadPacked</text>
</g>
<!-- Node6 -->
<g id="node6" class="node"><title>Node6</title>
<polygon fill="none" stroke="#bfbfbf" points="323,-487.5 323,-544.5 369,-544.5 369,-487.5 323,-487.5"/>
<text text-anchor="middle" x="346" y="-532.5" font-family="Helvetica,sans-Serif" font-size="10.00">uint8_t</text>
<polyline fill="none" stroke="#bfbfbf" points="323,-525.5 369,-525.5 "/>
<text text-anchor="middle" x="346" y="-513.5" font-family="Helvetica,sans-Serif" font-size="10.00"> </text>
<polyline fill="none" stroke="#bfbfbf" points="323,-506.5 369,-506.5 "/>
<text text-anchor="middle" x="346" y="-494.5" font-family="Helvetica,sans-Serif" font-size="10.00"> </text>
</g>
<!-- Node6&#45;&gt;Node2 -->
<g id="edge5" class="edge"><title>Node6&#45;&gt;Node2</title>
<path fill="none" stroke="#404040" d="M349.832,-487.28C353.223,-451.595 353.751,-389.28 324,-348 313.308,-333.164 301.004,-341.76 287,-330 285.401,-328.657 283.817,-327.273 282.251,-325.853"/>
<polygon fill="none" stroke="#404040" points="282.098,-325.706 275.004,-324.409 273.473,-317.363 280.566,-318.659 282.098,-325.706"/>
<text text-anchor="middle" x="389.5" y="-373" font-family="Helvetica,sans-Serif" font-size="10.00"> +sigmaTimePacked</text>
<text text-anchor="middle" x="389.5" y="-362" font-family="Helvetica,sans-Serif" font-size="10.00">+sigmaPadPacked</text>
</g>
<!-- Node7 -->
<g id="node7" class="node"><title>Node7</title>
<polygon fill="none" stroke="#bfbfbf" points="296,-195.5 296,-252.5 352,-252.5 352,-195.5 296,-195.5"/>
<text text-anchor="middle" x="324" y="-240.5" font-family="Helvetica,sans-Serif" font-size="10.00">unsigned</text>
<polyline fill="none" stroke="#bfbfbf" points="296,-233.5 352,-233.5 "/>
<text text-anchor="middle" x="324" y="-221.5" font-family="Helvetica,sans-Serif" font-size="10.00"> </text>
<polyline fill="none" stroke="#bfbfbf" points="296,-214.5 352,-214.5 "/>
<text text-anchor="middle" x="324" y="-202.5" font-family="Helvetica,sans-Serif" font-size="10.00"> </text>
</g>
<!-- Node7&#45;&gt;Node1 -->
<g id="edge6" class="edge"><title>Node7&#45;&gt;Node1</title>
<path fill="none" stroke="#404040" d="M324,-195.408C324,-165.326 324,-116.726 324,-81.086"/>
<polygon fill="none" stroke="#404040" points="324,-81.0719 320,-75.0719 324,-69.0719 328,-75.0718 324,-81.0719"/>
<text text-anchor="middle" x="350" y="-91.5" font-family="Helvetica,sans-Serif" font-size="10.00"> +nClusters</text>
</g>
<!-- Node8 -->
<g id="node8" class="node"><title>Node8</title>
<g id="a_node8"><a xlink:href="../../dc/daa/classo2_1_1dataformats_1_1MCTruthContainer.html" target="_top" xlink:title="{o2::dataformats::MCTruth\lContainer\&lt; o2::o2::MCCompLabel \&gt;\n||+ MCTruthContainer()\l+ MCTruthContainer()\l+ ~MCTruthContainer()\l+ operator=()\l+ getMCTruthHeader()\l+ getElement()\l+ getIndexedSize()\l+ getNElements()\l+ getLabels()\l+ getLabels()\l+ clear()\l+ addElement()\l+ addElementRandomAccess()\l+ ClassDefNV()\l}">
<polygon fill="none" stroke="black" points="373.5,-118.5 373.5,-329.5 548.5,-329.5 548.5,-118.5 373.5,-118.5"/>
<text text-anchor="start" x="381.5" y="-317.5" font-family="Helvetica,sans-Serif" font-size="10.00">o2::dataformats::MCTruth</text>
<text text-anchor="middle" x="461" y="-306.5" font-family="Helvetica,sans-Serif" font-size="10.00">Container&lt; o2::o2::MCCompLabel &gt;</text>
<polyline fill="none" stroke="black" points="373.5,-299.5 548.5,-299.5 "/>
<text text-anchor="middle" x="461" y="-287.5" font-family="Helvetica,sans-Serif" font-size="10.00"> </text>
<polyline fill="none" stroke="black" points="373.5,-280.5 548.5,-280.5 "/>
<text text-anchor="start" x="381.5" y="-268.5" font-family="Helvetica,sans-Serif" font-size="10.00">+ MCTruthContainer()</text>
<text text-anchor="start" x="381.5" y="-257.5" font-family="Helvetica,sans-Serif" font-size="10.00">+ MCTruthContainer()</text>
<text text-anchor="start" x="381.5" y="-246.5" font-family="Helvetica,sans-Serif" font-size="10.00">+ ~MCTruthContainer()</text>
<text text-anchor="start" x="381.5" y="-235.5" font-family="Helvetica,sans-Serif" font-size="10.00">+ operator=()</text>
<text text-anchor="start" x="381.5" y="-224.5" font-family="Helvetica,sans-Serif" font-size="10.00">+ getMCTruthHeader()</text>
<text text-anchor="start" x="381.5" y="-213.5" font-family="Helvetica,sans-Serif" font-size="10.00">+ getElement()</text>
<text text-anchor="start" x="381.5" y="-202.5" font-family="Helvetica,sans-Serif" font-size="10.00">+ getIndexedSize()</text>
<text text-anchor="start" x="381.5" y="-191.5" font-family="Helvetica,sans-Serif" font-size="10.00">+ getNElements()</text>
<text text-anchor="start" x="381.5" y="-180.5" font-family="Helvetica,sans-Serif" font-size="10.00">+ getLabels()</text>
<text text-anchor="start" x="381.5" y="-169.5" font-family="Helvetica,sans-Serif" font-size="10.00">+ getLabels()</text>
<text text-anchor="start" x="381.5" y="-158.5" font-family="Helvetica,sans-Serif" font-size="10.00">+ clear()</text>
<text text-anchor="start" x="381.5" y="-147.5" font-family="Helvetica,sans-Serif" font-size="10.00">+ addElement()</text>
<text text-anchor="start" x="381.5" y="-136.5" font-family="Helvetica,sans-Serif" font-size="10.00">+ addElementRandomAccess()</text>
<text text-anchor="start" x="381.5" y="-125.5" font-family="Helvetica,sans-Serif" font-size="10.00">+ ClassDefNV()</text>
</a>
</g>
</g>
<!-- Node8&#45;&gt;Node1 -->
<g id="edge7" class="edge"><title>Node8&#45;&gt;Node1</title>
<path fill="none" stroke="#404040" d="M402.18,-118.163C395.107,-107.688 387.661,-97.4468 380,-88 377.203,-84.5512 374.18,-81.1154 371.038,-77.7481"/>
<polygon fill="none" stroke="#404040" points="370.907,-77.6133 363.852,-76.1195 362.517,-69.033 369.572,-70.5268 370.907,-77.6133"/>
<text text-anchor="middle" x="429" y="-91.5" font-family="Helvetica,sans-Serif" font-size="10.00"> +clustersMCTruth</text>
</g>
<!-- Node9 -->
<g id="node9" class="node"><title>Node9</title>
<g id="a_node9"><a xlink:href="../../dc/daa/classo2_1_1dataformats_1_1MCTruthContainer.html" target="_top" xlink:title="{o2::dataformats::MCTruth\lContainer\&lt; TruthElement \&gt;\n||+ MCTruthContainer()\l+ ~MCTruthContainer()\l+ MCTruthContainer()\l+ operator=()\l+ getMCTruthHeader()\l+ getElement()\l+ getIndexedSize()\l+ getNElements()\l+ getLabels()\l+ getLabels()\l+ clear()\l+ addElement()\l+ addElementRandomAccess()\l+ ClassDefNV()\l}">
<polygon fill="none" stroke="black" points="387.5,-410.5 387.5,-621.5 540.5,-621.5 540.5,-410.5 387.5,-410.5"/>
<text text-anchor="start" x="395.5" y="-609.5" font-family="Helvetica,sans-Serif" font-size="10.00">o2::dataformats::MCTruth</text>
<text text-anchor="middle" x="464" y="-598.5" font-family="Helvetica,sans-Serif" font-size="10.00">Container&lt; TruthElement &gt;</text>
<polyline fill="none" stroke="black" points="387.5,-591.5 540.5,-591.5 "/>
<text text-anchor="middle" x="464" y="-579.5" font-family="Helvetica,sans-Serif" font-size="10.00"> </text>
<polyline fill="none" stroke="black" points="387.5,-572.5 540.5,-572.5 "/>
<text text-anchor="start" x="395.5" y="-560.5" font-family="Helvetica,sans-Serif" font-size="10.00">+ MCTruthContainer()</text>
<text text-anchor="start" x="395.5" y="-549.5" font-family="Helvetica,sans-Serif" font-size="10.00">+ ~MCTruthContainer()</text>
<text text-anchor="start" x="395.5" y="-538.5" font-family="Helvetica,sans-Serif" font-size="10.00">+ MCTruthContainer()</text>
<text text-anchor="start" x="395.5" y="-527.5" font-family="Helvetica,sans-Serif" font-size="10.00">+ operator=()</text>
<text text-anchor="start" x="395.5" y="-516.5" font-family="Helvetica,sans-Serif" font-size="10.00">+ getMCTruthHeader()</text>
<text text-anchor="start" x="395.5" y="-505.5" font-family="Helvetica,sans-Serif" font-size="10.00">+ getElement()</text>
<text text-anchor="start" x="395.5" y="-494.5" font-family="Helvetica,sans-Serif" font-size="10.00">+ getIndexedSize()</text>
<text text-anchor="start" x="395.5" y="-483.5" font-family="Helvetica,sans-Serif" font-size="10.00">+ getNElements()</text>
<text text-anchor="start" x="395.5" y="-472.5" font-family="Helvetica,sans-Serif" font-size="10.00">+ getLabels()</text>
<text text-anchor="start" x="395.5" y="-461.5" font-family="Helvetica,sans-Serif" font-size="10.00">+ getLabels()</text>
<text text-anchor="start" x="395.5" y="-450.5" font-family="Helvetica,sans-Serif" font-size="10.00">+ clear()</text>
<text text-anchor="start" x="395.5" y="-439.5" font-family="Helvetica,sans-Serif" font-size="10.00">+ addElement()</text>
<text text-anchor="start" x="395.5" y="-428.5" font-family="Helvetica,sans-Serif" font-size="10.00">+ addElementRandomAccess()</text>
<text text-anchor="start" x="395.5" y="-417.5" font-family="Helvetica,sans-Serif" font-size="10.00">+ ClassDefNV()</text>
</a>
</g>
</g>
<!-- Node9&#45;&gt;Node8 -->
<g id="edge8" class="edge"><title>Node9&#45;&gt;Node8</title>
<path fill="none" stroke="orange" d="M462.811,-400.052C462.57,-376.782 462.318,-352.431 462.081,-329.543"/>
<polygon fill="orange" stroke="orange" points="459.314,-400.34 462.917,-410.303 466.313,-400.268 459.314,-400.34"/>
<text text-anchor="middle" x="523" y="-367.5" font-family="Helvetica,sans-Serif" font-size="10.00"> &lt; o2::o2::MCCompLabel &gt;</text>
</g>
</g>
</svg>
