<?xml version="1.0" encoding="UTF-8" standalone="no"?>
<!DOCTYPE svg PUBLIC "-//W3C//DTD SVG 1.1//EN"
 "http://www.w3.org/Graphics/SVG/1.1/DTD/svg11.dtd">
<!-- Generated by graphviz version 2.36.0 (20140111.2315)
 -->
<!-- Title: /home/travis/build/AliceO2Group/AliceO2/run/o2sim.cxx Pages: 1 -->
<svg width="1781pt" height="342pt"
 viewBox="0.00 0.00 1780.63 342.00" xmlns="http://www.w3.org/2000/svg" xmlns:xlink="http://www.w3.org/1999/xlink">
<g id="graph0" class="graph" transform="scale(1 1) rotate(0) translate(4 338)">
<title>/home/travis/build/AliceO2Group/AliceO2/run/o2sim.cxx</title>
<!-- Node1 -->
<g id="node1" class="node"><title>Node1</title>
<polygon fill="#bfbfbf" stroke="black" points="860,-292.5 860,-333.5 978,-333.5 978,-292.5 860,-292.5"/>
<text text-anchor="start" x="868" y="-321.5" font-family="Helvetica,sans-Serif" font-size="10.00">/home/travis/build</text>
<text text-anchor="start" x="868" y="-310.5" font-family="Helvetica,sans-Serif" font-size="10.00">/AliceO2Group/AliceO2</text>
<text text-anchor="middle" x="919" y="-299.5" font-family="Helvetica,sans-Serif" font-size="10.00">/run/o2sim.cxx</text>
</g>
<!-- Node2 -->
<g id="node2" class="node"><title>Node2</title>
<g id="a_node2"><a xlink:href="../../dc/d6b/o2sim_8C.html" target="_top" xlink:title="../macro/o2sim.C">
<polygon fill="none" stroke="black" points="652,-236.5 652,-255.5 744,-255.5 744,-236.5 652,-236.5"/>
<text text-anchor="middle" x="698" y="-243.5" font-family="Helvetica,sans-Serif" font-size="10.00">../macro/o2sim.C</text>
</a>
</g>
</g>
<!-- Node1&#45;&gt;Node2 -->
<g id="edge1" class="edge"><title>Node1&#45;&gt;Node2</title>
<path fill="none" stroke="midnightblue" d="M859.776,-294.581C820.844,-283.13 770.999,-268.47 736.993,-258.468"/>
<polygon fill="midnightblue" stroke="midnightblue" points="737.558,-254.987 726.977,-255.523 735.583,-261.702 737.558,-254.987"/>
</g>
<!-- Node10 -->
<g id="node10" class="node"><title>Node10</title>
<g id="a_node10"><a xlink:href="../../d4/dee/SimConfig_8h.html" target="_top" xlink:title="SimConfig/SimConfig.h">
<polygon fill="none" stroke="black" points="1385.5,-174.5 1385.5,-193.5 1504.5,-193.5 1504.5,-174.5 1385.5,-174.5"/>
<text text-anchor="middle" x="1445" y="-181.5" font-family="Helvetica,sans-Serif" font-size="10.00">SimConfig/SimConfig.h</text>
</a>
</g>
</g>
<!-- Node1&#45;&gt;Node10 -->
<g id="edge39" class="edge"><title>Node1&#45;&gt;Node10</title>
<path fill="none" stroke="midnightblue" d="M978.062,-297.74C1084.1,-272.138 1304.54,-218.913 1399.68,-195.943"/>
<polygon fill="midnightblue" stroke="midnightblue" points="1400.67,-199.305 1409.56,-193.556 1399.02,-192.5 1400.67,-199.305"/>
</g>
<!-- Node3 -->
<g id="node3" class="node"><title>Node3</title>
<polygon fill="none" stroke="#bfbfbf" points="651.5,-174.5 651.5,-193.5 744.5,-193.5 744.5,-174.5 651.5,-174.5"/>
<text text-anchor="middle" x="698" y="-181.5" font-family="Helvetica,sans-Serif" font-size="10.00">build_geometry.C</text>
</g>
<!-- Node2&#45;&gt;Node3 -->
<g id="edge2" class="edge"><title>Node2&#45;&gt;Node3</title>
<path fill="none" stroke="midnightblue" d="M698,-236.403C698,-227.938 698,-214.728 698,-203.82"/>
<polygon fill="midnightblue" stroke="midnightblue" points="701.5,-203.581 698,-193.581 694.5,-203.581 701.5,-203.581"/>
</g>
<!-- Node4 -->
<g id="node4" class="node"><title>Node4</title>
<polygon fill="none" stroke="#bfbfbf" points="-0.5,-174.5 -0.5,-193.5 100.5,-193.5 100.5,-174.5 -0.5,-174.5"/>
<text text-anchor="middle" x="50" y="-181.5" font-family="Helvetica,sans-Serif" font-size="10.00">FairBoxGenerator.h</text>
</g>
<!-- Node2&#45;&gt;Node4 -->
<g id="edge3" class="edge"><title>Node2&#45;&gt;Node4</title>
<path fill="none" stroke="midnightblue" d="M651.944,-244.111C552.417,-241.615 310.105,-232.432 110,-200 103.531,-198.952 96.7368,-197.551 90.1394,-196.025"/>
<polygon fill="midnightblue" stroke="midnightblue" points="90.5539,-192.523 80.0096,-193.556 88.8968,-199.324 90.5539,-192.523"/>
</g>
<!-- Node5 -->
<g id="node5" class="node"><title>Node5</title>
<polygon fill="none" stroke="#bfbfbf" points="119,-174.5 119,-193.5 237,-193.5 237,-174.5 119,-174.5"/>
<text text-anchor="middle" x="178" y="-181.5" font-family="Helvetica,sans-Serif" font-size="10.00">FairPrimaryGenerator.h</text>
</g>
<!-- Node2&#45;&gt;Node5 -->
<g id="edge4" class="edge"><title>Node2&#45;&gt;Node5</title>
<path fill="none" stroke="midnightblue" d="M651.895,-242.212C569.875,-236.851 393.38,-223.508 246,-200 238.446,-198.795 230.472,-197.27 222.747,-195.655"/>
<polygon fill="midnightblue" stroke="midnightblue" points="223.306,-192.195 212.792,-193.502 221.826,-199.037 223.306,-192.195"/>
</g>
<!-- Node6 -->
<g id="node6" class="node"><title>Node6</title>
<polygon fill="none" stroke="#bfbfbf" points="255.5,-174.5 255.5,-193.5 332.5,-193.5 332.5,-174.5 255.5,-174.5"/>
<text text-anchor="middle" x="294" y="-181.5" font-family="Helvetica,sans-Serif" font-size="10.00">TStopwatch.h</text>
</g>
<!-- Node2&#45;&gt;Node6 -->
<g id="edge5" class="edge"><title>Node2&#45;&gt;Node6</title>
<path fill="none" stroke="midnightblue" d="M651.757,-241.785C583.423,-236.442 451.722,-223.881 342,-200 337.561,-199.034 332.944,-197.841 328.404,-196.553"/>
<polygon fill="midnightblue" stroke="midnightblue" points="329.273,-193.16 318.688,-193.634 327.258,-199.863 329.273,-193.16"/>
</g>
<!-- Node7 -->
<g id="node7" class="node"><title>Node7</title>
<polygon fill="none" stroke="#bfbfbf" points="351,-174.5 351,-193.5 403,-193.5 403,-174.5 351,-174.5"/>
<text text-anchor="middle" x="377" y="-181.5" font-family="Helvetica,sans-Serif" font-size="10.00">memory</text>
</g>
<!-- Node2&#45;&gt;Node7 -->
<g id="edge6" class="edge"><title>Node2&#45;&gt;Node7</title>
<path fill="none" stroke="midnightblue" d="M651.915,-241.304C594.747,-235.913 494.713,-223.827 412,-200 409.352,-199.237 406.638,-198.325 403.95,-197.332"/>
<polygon fill="midnightblue" stroke="midnightblue" points="405.075,-194.012 394.493,-193.508 402.451,-200.502 405.075,-194.012"/>
</g>
<!-- Node8 -->
<g id="node8" class="node"><title>Node8</title>
<polygon fill="none" stroke="#bfbfbf" points="421.5,-174.5 421.5,-193.5 522.5,-193.5 522.5,-174.5 421.5,-174.5"/>
<text text-anchor="middle" x="472" y="-181.5" font-family="Helvetica,sans-Serif" font-size="10.00">FairParRootFileIo.h</text>
</g>
<!-- Node2&#45;&gt;Node8 -->
<g id="edge7" class="edge"><title>Node2&#45;&gt;Node8</title>
<path fill="none" stroke="midnightblue" d="M665.62,-236.403C625.762,-225.822 557.981,-207.827 514.112,-196.18"/>
<polygon fill="midnightblue" stroke="midnightblue" points="514.884,-192.764 504.32,-193.581 513.087,-199.529 514.884,-192.764"/>
</g>
<!-- Node9 -->
<g id="node9" class="node"><title>Node9</title>
<polygon fill="none" stroke="#bfbfbf" points="541,-174.5 541,-193.5 633,-193.5 633,-174.5 541,-174.5"/>
<text text-anchor="middle" x="587" y="-181.5" font-family="Helvetica,sans-Serif" font-size="10.00">FairSystemInfo.h</text>
</g>
<!-- Node2&#45;&gt;Node9 -->
<g id="edge8" class="edge"><title>Node2&#45;&gt;Node9</title>
<path fill="none" stroke="midnightblue" d="M682.096,-236.403C663.715,-226.468 633.244,-209.997 611.755,-198.381"/>
<polygon fill="midnightblue" stroke="midnightblue" points="613.335,-195.257 602.874,-193.581 610.007,-201.415 613.335,-195.257"/>
</g>
<!-- Node2&#45;&gt;Node10 -->
<g id="edge9" class="edge"><title>Node2&#45;&gt;Node10</title>
<path fill="none" stroke="midnightblue" d="M744.204,-244.23C854.068,-241.9 1139.34,-232.905 1375,-200 1383.14,-198.864 1391.74,-197.314 1400.03,-195.64"/>
<polygon fill="midnightblue" stroke="midnightblue" points="1400.86,-199.041 1409.93,-193.555 1399.42,-192.191 1400.86,-199.041"/>
</g>
<!-- Node12 -->
<g id="node12" class="node"><title>Node12</title>
<g id="a_node12"><a xlink:href="../../de/daf/GeneratorFromFile_8h.html" target="_top" xlink:title="Generators/GeneratorFrom\lFile.h">
<polygon fill="none" stroke="black" points="762.5,-169 762.5,-199 895.5,-199 895.5,-169 762.5,-169"/>
<text text-anchor="start" x="770.5" y="-187" font-family="Helvetica,sans-Serif" font-size="10.00">Generators/GeneratorFrom</text>
<text text-anchor="middle" x="829" y="-176" font-family="Helvetica,sans-Serif" font-size="10.00">File.h</text>
</a>
</g>
</g>
<!-- Node2&#45;&gt;Node12 -->
<g id="edge11" class="edge"><title>Node2&#45;&gt;Node12</title>
<path fill="none" stroke="midnightblue" d="M716.769,-236.403C735.569,-227.793 765.085,-214.274 789.13,-203.261"/>
<polygon fill="midnightblue" stroke="midnightblue" points="790.744,-206.372 798.378,-199.025 787.829,-200.007 790.744,-206.372"/>
</g>
<!-- Node14 -->
<g id="node14" class="node"><title>Node14</title>
<g id="a_node14"><a xlink:href="../../d6/df5/Pythia8Generator_8h.html" target="_top" xlink:title="Generators/Pythia8Generator.h">
<polygon fill="none" stroke="black" points="914,-174.5 914,-193.5 1066,-193.5 1066,-174.5 914,-174.5"/>
<text text-anchor="middle" x="990" y="-181.5" font-family="Helvetica,sans-Serif" font-size="10.00">Generators/Pythia8Generator.h</text>
</a>
</g>
</g>
<!-- Node2&#45;&gt;Node14 -->
<g id="edge13" class="edge"><title>Node2&#45;&gt;Node14</title>
<path fill="none" stroke="midnightblue" d="M739.526,-236.467C791.959,-225.693 882.143,-207.162 938.791,-195.522"/>
<polygon fill="midnightblue" stroke="midnightblue" points="939.526,-198.945 948.617,-193.503 938.117,-192.088 939.526,-198.945"/>
</g>
<!-- Node20 -->
<g id="node20" class="node"><title>Node20</title>
<polygon fill="none" stroke="#bfbfbf" points="1084,-174.5 1084,-193.5 1158,-193.5 1158,-174.5 1084,-174.5"/>
<text text-anchor="middle" x="1121" y="-181.5" font-family="Helvetica,sans-Serif" font-size="10.00">TVirtualMC.h</text>
</g>
<!-- Node2&#45;&gt;Node20 -->
<g id="edge21" class="edge"><title>Node2&#45;&gt;Node20</title>
<path fill="none" stroke="midnightblue" d="M744.04,-242.426C815.559,-237.775 957.364,-225.936 1075,-200 1079.25,-199.064 1083.65,-197.894 1087.99,-196.622"/>
<polygon fill="midnightblue" stroke="midnightblue" points="1089.35,-199.862 1097.84,-193.532 1087.26,-193.183 1089.35,-199.862"/>
</g>
<!-- Node21 -->
<g id="node21" class="node"><title>Node21</title>
<g id="a_node21"><a xlink:href="../../de/d28/GRPObject_8h.html" target="_top" xlink:title="Header of the General Run Parameters object. ">
<polygon fill="none" stroke="black" points="1243,-169 1243,-199 1367,-199 1367,-169 1243,-169"/>
<text text-anchor="start" x="1251" y="-187" font-family="Helvetica,sans-Serif" font-size="10.00">DataFormatsParameters</text>
<text text-anchor="middle" x="1305" y="-176" font-family="Helvetica,sans-Serif" font-size="10.00">/GRPObject.h</text>
</a>
</g>
</g>
<!-- Node2&#45;&gt;Node21 -->
<g id="edge22" class="edge"><title>Node2&#45;&gt;Node21</title>
<path fill="none" stroke="midnightblue" d="M744.284,-240.754C828.452,-232.99 1012.19,-215.84 1167,-200 1188.32,-197.818 1211.49,-195.342 1232.64,-193.039"/>
<polygon fill="midnightblue" stroke="midnightblue" points="1233.29,-196.489 1242.85,-191.924 1232.53,-189.531 1233.29,-196.489"/>
</g>
<!-- Node11 -->
<g id="node11" class="node"><title>Node11</title>
<polygon fill="none" stroke="#bfbfbf" points="1590,-56.5 1590,-75.5 1646,-75.5 1646,-56.5 1590,-56.5"/>
<text text-anchor="middle" x="1618" y="-63.5" font-family="Helvetica,sans-Serif" font-size="10.00">Rtypes.h</text>
</g>
<!-- Node10&#45;&gt;Node11 -->
<g id="edge10" class="edge"><title>Node10&#45;&gt;Node11</title>
<path fill="none" stroke="midnightblue" d="M1504.52,-182.358C1587.69,-180.056 1732.18,-170.463 1765,-132 1797.86,-93.4921 1710.33,-76.9199 1656.54,-70.5317"/>
<polygon fill="midnightblue" stroke="midnightblue" points="1656.6,-67.0171 1646.27,-69.3864 1655.82,-73.9739 1656.6,-67.0171"/>
</g>
<!-- Node13 -->
<g id="node13" class="node"><title>Node13</title>
<polygon fill="none" stroke="#bfbfbf" points="548,-112.5 548,-131.5 632,-131.5 632,-112.5 548,-112.5"/>
<text text-anchor="middle" x="590" y="-119.5" font-family="Helvetica,sans-Serif" font-size="10.00">FairGenerator.h</text>
</g>
<!-- Node12&#45;&gt;Node13 -->
<g id="edge12" class="edge"><title>Node12&#45;&gt;Node13</title>
<path fill="none" stroke="midnightblue" d="M772.965,-168.933C730.446,-158.258 672.826,-143.793 633.687,-133.968"/>
<polygon fill="midnightblue" stroke="midnightblue" points="634.46,-130.553 623.909,-131.513 632.756,-137.342 634.46,-130.553"/>
</g>
<!-- Node14&#45;&gt;Node11 -->
<g id="edge17" class="edge"><title>Node14&#45;&gt;Node11</title>
<path fill="none" stroke="midnightblue" d="M1037.63,-174.445C1049.8,-172.299 1062.88,-170.03 1075,-168 1175.75,-151.123 1204.73,-163.207 1302,-132 1320.93,-125.928 1323.09,-118.113 1342,-112 1424.29,-85.4021 1525.69,-74.0316 1579.76,-69.5752"/>
<polygon fill="midnightblue" stroke="midnightblue" points="1580.23,-73.049 1589.93,-68.7736 1579.68,-66.0707 1580.23,-73.049"/>
</g>
<!-- Node14&#45;&gt;Node13 -->
<g id="edge15" class="edge"><title>Node14&#45;&gt;Node13</title>
<path fill="none" stroke="midnightblue" d="M942.737,-174.436C930.163,-172.245 916.58,-169.957 904,-168 790.612,-150.357 759.256,-150.247 642.092,-132.117"/>
<polygon fill="midnightblue" stroke="midnightblue" points="642.423,-128.627 632.003,-130.545 641.345,-135.543 642.423,-128.627"/>
</g>
<!-- Node15 -->
<g id="node15" class="node"><title>Node15</title>
<polygon fill="none" stroke="#bfbfbf" points="650.5,-112.5 650.5,-131.5 741.5,-131.5 741.5,-112.5 650.5,-112.5"/>
<text text-anchor="middle" x="696" y="-119.5" font-family="Helvetica,sans-Serif" font-size="10.00">Pythia8/Basics.h</text>
</g>
<!-- Node14&#45;&gt;Node15 -->
<g id="edge14" class="edge"><title>Node14&#45;&gt;Node15</title>
<path fill="none" stroke="midnightblue" d="M948.189,-174.467C895.397,-163.693 804.595,-145.162 747.559,-133.522"/>
<polygon fill="midnightblue" stroke="midnightblue" points="748.165,-130.074 737.667,-131.503 746.765,-136.932 748.165,-130.074"/>
</g>
<!-- Node16 -->
<g id="node16" class="node"><title>Node16</title>
<polygon fill="none" stroke="#bfbfbf" points="759.5,-112.5 759.5,-131.5 848.5,-131.5 848.5,-112.5 759.5,-112.5"/>
<text text-anchor="middle" x="804" y="-119.5" font-family="Helvetica,sans-Serif" font-size="10.00">Pythia8/Pythia.h</text>
</g>
<!-- Node14&#45;&gt;Node16 -->
<g id="edge16" class="edge"><title>Node14&#45;&gt;Node16</title>
<path fill="none" stroke="midnightblue" d="M963.351,-174.403C931.031,-163.978 876.403,-146.356 840.267,-134.699"/>
<polygon fill="midnightblue" stroke="midnightblue" points="841.191,-131.32 830.6,-131.581 839.042,-137.982 841.191,-131.32"/>
</g>
<!-- Node17 -->
<g id="node17" class="node"><title>Node17</title>
<polygon fill="none" stroke="#bfbfbf" points="867,-112.5 867,-131.5 935,-131.5 935,-112.5 867,-112.5"/>
<text text-anchor="middle" x="901" y="-119.5" font-family="Helvetica,sans-Serif" font-size="10.00">TRandom.h</text>
</g>
<!-- Node14&#45;&gt;Node17 -->
<g id="edge18" class="edge"><title>Node14&#45;&gt;Node17</title>
<path fill="none" stroke="midnightblue" d="M977.248,-174.403C962.973,-164.78 939.603,-149.024 922.492,-137.489"/>
<polygon fill="midnightblue" stroke="midnightblue" points="923.976,-134.268 913.728,-131.581 920.063,-140.073 923.976,-134.268"/>
</g>
<!-- Node18 -->
<g id="node18" class="node"><title>Node18</title>
<polygon fill="none" stroke="#bfbfbf" points="953.5,-112.5 953.5,-131.5 1026.5,-131.5 1026.5,-112.5 953.5,-112.5"/>
<text text-anchor="middle" x="990" y="-119.5" font-family="Helvetica,sans-Serif" font-size="10.00">TRandom1.h</text>
</g>
<!-- Node14&#45;&gt;Node18 -->
<g id="edge19" class="edge"><title>Node14&#45;&gt;Node18</title>
<path fill="none" stroke="midnightblue" d="M990,-174.403C990,-165.938 990,-152.728 990,-141.82"/>
<polygon fill="midnightblue" stroke="midnightblue" points="993.5,-141.581 990,-131.581 986.5,-141.581 993.5,-141.581"/>
</g>
<!-- Node19 -->
<g id="node19" class="node"><title>Node19</title>
<polygon fill="none" stroke="#bfbfbf" points="1044.5,-112.5 1044.5,-131.5 1117.5,-131.5 1117.5,-112.5 1044.5,-112.5"/>
<text text-anchor="middle" x="1081" y="-119.5" font-family="Helvetica,sans-Serif" font-size="10.00">TRandom3.h</text>
</g>
<!-- Node14&#45;&gt;Node19 -->
<g id="edge20" class="edge"><title>Node14&#45;&gt;Node19</title>
<path fill="none" stroke="midnightblue" d="M1003.04,-174.403C1017.77,-164.691 1041.97,-148.732 1059.51,-137.17"/>
<polygon fill="midnightblue" stroke="midnightblue" points="1061.56,-140.007 1067.99,-131.581 1057.71,-134.163 1061.56,-140.007"/>
</g>
<!-- Node21&#45;&gt;Node11 -->
<g id="edge23" class="edge"><title>Node21&#45;&gt;Node11</title>
<path fill="none" stroke="midnightblue" d="M1367.37,-169.591C1370.62,-169.022 1373.85,-168.487 1377,-168 1455.36,-155.897 1678.83,-190.829 1732,-132 1758.09,-103.129 1698.62,-83.8476 1656.14,-74.2122"/>
<polygon fill="midnightblue" stroke="midnightblue" points="1656.82,-70.7783 1646.31,-72.0808 1655.34,-77.6195 1656.82,-70.7783"/>
</g>
<!-- Node22 -->
<g id="node22" class="node"><title>Node22</title>
<polygon fill="none" stroke="#bfbfbf" points="1018,-56.5 1018,-75.5 1064,-75.5 1064,-56.5 1018,-56.5"/>
<text text-anchor="middle" x="1041" y="-63.5" font-family="Helvetica,sans-Serif" font-size="10.00">cstdint</text>
</g>
<!-- Node21&#45;&gt;Node22 -->
<g id="edge24" class="edge"><title>Node21&#45;&gt;Node22</title>
<path fill="none" stroke="midnightblue" d="M1262.47,-168.979C1234.67,-159.427 1197.75,-146.01 1166,-132 1156.12,-127.641 1100.4,-98.3729 1066.78,-80.6304"/>
<polygon fill="midnightblue" stroke="midnightblue" points="1068.01,-77.3225 1057.53,-75.7482 1064.74,-83.5126 1068.01,-77.3225"/>
</g>
<!-- Node23 -->
<g id="node23" class="node"><title>Node23</title>
<polygon fill="none" stroke="#bfbfbf" points="1350.5,-112.5 1350.5,-131.5 1391.5,-131.5 1391.5,-112.5 1350.5,-112.5"/>
<text text-anchor="middle" x="1371" y="-119.5" font-family="Helvetica,sans-Serif" font-size="10.00">ctime</text>
</g>
<!-- Node21&#45;&gt;Node23 -->
<g id="edge25" class="edge"><title>Node21&#45;&gt;Node23</title>
<path fill="none" stroke="midnightblue" d="M1320.64,-168.781C1330.63,-159.703 1343.58,-147.929 1353.85,-138.595"/>
<polygon fill="midnightblue" stroke="midnightblue" points="1356.35,-141.047 1361.4,-131.731 1351.64,-135.867 1356.35,-141.047"/>
</g>
<!-- Node24 -->
<g id="node24" class="node"><title>Node24</title>
<g id="a_node24"><a xlink:href="../../d4/dc6/LHCConstants_8h.html" target="_top" xlink:title="Header to collect LHC related constants. ">
<polygon fill="none" stroke="black" points="1409,-112.5 1409,-131.5 1587,-131.5 1587,-112.5 1409,-112.5"/>
<text text-anchor="middle" x="1498" y="-119.5" font-family="Helvetica,sans-Serif" font-size="10.00">CommonConstants/LHCConstants.h</text>
</a>
</g>
</g>
<!-- Node21&#45;&gt;Node24 -->
<g id="edge26" class="edge"><title>Node21&#45;&gt;Node24</title>
<path fill="none" stroke="midnightblue" d="M1350.25,-168.933C1383.93,-158.462 1429.34,-144.345 1460.89,-134.536"/>
<polygon fill="midnightblue" stroke="midnightblue" points="1462.11,-137.824 1470.62,-131.513 1460.03,-131.139 1462.11,-137.824"/>
</g>
<!-- Node25 -->
<g id="node25" class="node"><title>Node25</title>
<g id="a_node25"><a xlink:href="../../da/d58/Units_8h.html" target="_top" xlink:title="Header to collect definitions for different units. ">
<polygon fill="none" stroke="black" points="1605,-112.5 1605,-131.5 1723,-131.5 1723,-112.5 1605,-112.5"/>
<text text-anchor="middle" x="1664" y="-119.5" font-family="Helvetica,sans-Serif" font-size="10.00">CommonTypes/Units.h</text>
</a>
</g>
</g>
<!-- Node21&#45;&gt;Node25 -->
<g id="edge27" class="edge"><title>Node21&#45;&gt;Node25</title>
<path fill="none" stroke="midnightblue" d="M1367.01,-169.876C1370.39,-169.225 1373.73,-168.596 1377,-168 1451.07,-154.486 1536.35,-141.431 1594.58,-132.894"/>
<polygon fill="midnightblue" stroke="midnightblue" points="1595.38,-136.315 1604.77,-131.407 1594.36,-129.389 1595.38,-136.315"/>
</g>
<!-- Node26 -->
<g id="node26" class="node"><title>Node26</title>
<g id="a_node26"><a xlink:href="../../d6/d31/DetID_8h.html" target="_top" xlink:title="DetectorsBase/DetID.h">
<polygon fill="none" stroke="black" points="1174.5,-112.5 1174.5,-131.5 1293.5,-131.5 1293.5,-112.5 1174.5,-112.5"/>
<text text-anchor="middle" x="1234" y="-119.5" font-family="Helvetica,sans-Serif" font-size="10.00">DetectorsBase/DetID.h</text>
</a>
</g>
</g>
<!-- Node21&#45;&gt;Node26 -->
<g id="edge28" class="edge"><title>Node21&#45;&gt;Node26</title>
<path fill="none" stroke="midnightblue" d="M1288.17,-168.781C1277.33,-159.613 1263.22,-147.696 1252.13,-138.319"/>
<polygon fill="midnightblue" stroke="midnightblue" points="1254.23,-135.512 1244.33,-131.731 1249.71,-140.858 1254.23,-135.512"/>
</g>
<!-- Node26&#45;&gt;Node11 -->
<g id="edge29" class="edge"><title>Node26&#45;&gt;Node11</title>
<path fill="none" stroke="midnightblue" d="M1293.58,-112.622C1373.36,-101.402 1512.63,-81.8174 1579.72,-72.3828"/>
<polygon fill="midnightblue" stroke="midnightblue" points="1580.44,-75.8171 1589.85,-70.9585 1579.46,-68.8853 1580.44,-75.8171"/>
</g>
<!-- Node26&#45;&gt;Node22 -->
<g id="edge33" class="edge"><title>Node26&#45;&gt;Node22</title>
<path fill="none" stroke="midnightblue" d="M1203.43,-112.472C1173,-103.979 1124.71,-90.4914 1073.92,-76.2544"/>
<polygon fill="midnightblue" stroke="midnightblue" points="1074.64,-72.8231 1064.07,-73.4935 1072.75,-79.5632 1074.64,-72.8231"/>
</g>
<!-- Node27 -->
<g id="node27" class="node"><title>Node27</title>
<polygon fill="none" stroke="#bfbfbf" points="1322,-0.5 1322,-19.5 1360,-19.5 1360,-0.5 1322,-0.5"/>
<text text-anchor="middle" x="1341" y="-7.5" font-family="Helvetica,sans-Serif" font-size="10.00">array</text>
</g>
<!-- Node26&#45;&gt;Node27 -->
<g id="edge30" class="edge"><title>Node26&#45;&gt;Node27</title>
<path fill="none" stroke="midnightblue" d="M1293.9,-113.573C1339.1,-106.594 1395.69,-94.4338 1410,-76 1426.2,-55.1374 1394.97,-34.8856 1369.41,-22.6788"/>
<polygon fill="midnightblue" stroke="midnightblue" points="1370.55,-19.3552 1360,-18.4098 1367.66,-25.7295 1370.55,-19.3552"/>
</g>
<!-- Node28 -->
<g id="node28" class="node"><title>Node28</title>
<polygon fill="none" stroke="#bfbfbf" points="1213.5,-56.5 1213.5,-75.5 1254.5,-75.5 1254.5,-56.5 1213.5,-56.5"/>
<text text-anchor="middle" x="1234" y="-63.5" font-family="Helvetica,sans-Serif" font-size="10.00">bitset</text>
</g>
<!-- Node26&#45;&gt;Node28 -->
<g id="edge31" class="edge"><title>Node26&#45;&gt;Node28</title>
<path fill="none" stroke="midnightblue" d="M1234,-112.083C1234,-105.006 1234,-94.8611 1234,-85.9865"/>
<polygon fill="midnightblue" stroke="midnightblue" points="1237.5,-85.751 1234,-75.7511 1230.5,-85.7511 1237.5,-85.751"/>
</g>
<!-- Node29 -->
<g id="node29" class="node"><title>Node29</title>
<polygon fill="none" stroke="#bfbfbf" points="1272.5,-56.5 1272.5,-75.5 1321.5,-75.5 1321.5,-56.5 1272.5,-56.5"/>
<text text-anchor="middle" x="1297" y="-63.5" font-family="Helvetica,sans-Serif" font-size="10.00">cassert</text>
</g>
<!-- Node26&#45;&gt;Node29 -->
<g id="edge32" class="edge"><title>Node26&#45;&gt;Node29</title>
<path fill="none" stroke="midnightblue" d="M1244.12,-112.324C1253.53,-104.263 1267.74,-92.0765 1279.07,-82.3695"/>
<polygon fill="midnightblue" stroke="midnightblue" points="1281.38,-84.9993 1286.69,-75.8339 1276.82,-79.6844 1281.38,-84.9993"/>
</g>
<!-- Node30 -->
<g id="node30" class="node"><title>Node30</title>
<polygon fill="none" stroke="#bfbfbf" points="1340,-56.5 1340,-75.5 1402,-75.5 1402,-56.5 1340,-56.5"/>
<text text-anchor="middle" x="1371" y="-63.5" font-family="Helvetica,sans-Serif" font-size="10.00">type_traits</text>
</g>
<!-- Node26&#45;&gt;Node30 -->
<g id="edge34" class="edge"><title>Node26&#45;&gt;Node30</title>
<path fill="none" stroke="midnightblue" d="M1255.71,-112.444C1278.35,-103.517 1314.07,-89.4387 1339.75,-79.3168"/>
<polygon fill="midnightblue" stroke="midnightblue" points="1341.37,-82.4397 1349.39,-75.5164 1338.81,-75.9273 1341.37,-82.4397"/>
</g>
<!-- Node31 -->
<g id="node31" class="node"><title>Node31</title>
<g id="a_node31"><a xlink:href="../../d9/ded/Utils_8h.html" target="_top" xlink:title="DetectorsBase/Utils.h">
<polygon fill="none" stroke="black" points="1082.5,-56.5 1082.5,-75.5 1195.5,-75.5 1195.5,-56.5 1082.5,-56.5"/>
<text text-anchor="middle" x="1139" y="-63.5" font-family="Helvetica,sans-Serif" font-size="10.00">DetectorsBase/Utils.h</text>
</a>
</g>
</g>
<!-- Node26&#45;&gt;Node31 -->
<g id="edge35" class="edge"><title>Node26&#45;&gt;Node31</title>
<path fill="none" stroke="midnightblue" d="M1218.74,-112.324C1203.78,-103.822 1180.75,-90.7288 1163.27,-80.7975"/>
<polygon fill="midnightblue" stroke="midnightblue" points="1164.65,-77.5534 1154.23,-75.6545 1161.19,-83.639 1164.65,-77.5534"/>
</g>
<!-- Node31&#45;&gt;Node27 -->
<g id="edge38" class="edge"><title>Node31&#45;&gt;Node27</title>
<path fill="none" stroke="midnightblue" d="M1171.01,-56.4435C1209.85,-46.0594 1274.78,-28.7033 1312.14,-18.7143"/>
<polygon fill="midnightblue" stroke="midnightblue" points="1313.15,-22.068 1321.91,-16.1041 1311.34,-15.3055 1313.15,-22.068"/>
</g>
<!-- Node32 -->
<g id="node32" class="node"><title>Node32</title>
<g id="a_node32"><a xlink:href="../../d1/daa/Base_2include_2DetectorsBase_2Constants_8h.html" target="_top" xlink:title="DetectorsBase/Constants.h">
<polygon fill="none" stroke="black" points="1016,-0.5 1016,-19.5 1154,-19.5 1154,-0.5 1016,-0.5"/>
<text text-anchor="middle" x="1085" y="-7.5" font-family="Helvetica,sans-Serif" font-size="10.00">DetectorsBase/Constants.h</text>
</a>
</g>
</g>
<!-- Node31&#45;&gt;Node32 -->
<g id="edge36" class="edge"><title>Node31&#45;&gt;Node32</title>
<path fill="none" stroke="midnightblue" d="M1130.08,-56.083C1122.22,-48.2195 1110.57,-36.5688 1101.08,-27.0813"/>
<polygon fill="midnightblue" stroke="midnightblue" points="1103.3,-24.3473 1093.75,-19.7511 1098.35,-29.2971 1103.3,-24.3473"/>
</g>
<!-- Node33 -->
<g id="node33" class="node"><title>Node33</title>
<polygon fill="none" stroke="#bfbfbf" points="1172,-0.5 1172,-19.5 1216,-19.5 1216,-0.5 1172,-0.5"/>
<text text-anchor="middle" x="1194" y="-7.5" font-family="Helvetica,sans-Serif" font-size="10.00">cmath</text>
</g>
<!-- Node31&#45;&gt;Node33 -->
<g id="edge37" class="edge"><title>Node31&#45;&gt;Node33</title>
<path fill="none" stroke="midnightblue" d="M1148.08,-56.083C1156.17,-48.1409 1168.2,-36.3354 1177.91,-26.7973"/>
<polygon fill="midnightblue" stroke="midnightblue" points="1180.4,-29.2545 1185.09,-19.7511 1175.5,-24.2595 1180.4,-29.2545"/>
</g>
</g>
</svg>
