<?xml version="1.0" encoding="UTF-8" standalone="no"?>
<!DOCTYPE svg PUBLIC "-//W3C//DTD SVG 1.1//EN"
 "http://www.w3.org/Graphics/SVG/1.1/DTD/svg11.dtd">
<!-- Generated by graphviz version 2.36.0 (20140111.2315)
 -->
<!-- Title: /home/travis/build/AliceO2Group/AliceO2/Detectors/EMCAL/simulation Pages: 1 -->
<svg width="199pt" height="447pt"
 viewBox="0.00 0.00 199.00 447.00" xmlns="http://www.w3.org/2000/svg" xmlns:xlink="http://www.w3.org/1999/xlink">
<g id="graph0" class="graph" transform="scale(1 1) rotate(0) translate(4 443)">
<title>/home/travis/build/AliceO2Group/AliceO2/Detectors/EMCAL/simulation</title>
<g id="clust1" class="cluster"><title>clusterdir_088378b58cb1ba39db48039cbd66d10f</title>
<g id="a_clust1"><a xlink:href="dir_088378b58cb1ba39db48039cbd66d10f.html" target="_top" xlink:title="EMCAL">
<polygon fill="#ddddee" stroke="black" points="8,-272 8,-431 174,-431 174,-272 8,-272"/>
<text text-anchor="middle" x="91" y="-419" font-family="Helvetica,sans-Serif" font-size="10.00">EMCAL</text>
</a>
</g>
</g>
<g id="clust2" class="cluster"><title>clusterdir_40743f2e882add17463d3ecfa83bffd4</title>
<g id="a_clust2"><a xlink:href="dir_40743f2e882add17463d3ecfa83bffd4.html" target="_top">
<polygon fill="#eeeeff" stroke="black" points="16,-280 16,-404 166,-404 166,-280 16,-280"/>
</a>
</g>
</g>
<!-- dir_40743f2e882add17463d3ecfa83bffd4 -->
<g id="node1" class="node"><title>dir_40743f2e882add17463d3ecfa83bffd4</title>
<text text-anchor="middle" x="127" y="-375.5" font-family="Helvetica,sans-Serif" font-size="10.00">simulation</text>
</g>
<!-- dir_7bf79a161bebea1697ee327feea7a1aa -->
<g id="node2" class="node"><title>dir_7bf79a161bebea1697ee327feea7a1aa</title>
<g id="a_node2"><a xlink:href="dir_7bf79a161bebea1697ee327feea7a1aa.html" target="_top" xlink:title="include">
<polygon fill="white" stroke="red" points="78,-324 24,-324 24,-288 78,-288 78,-324"/>
<text text-anchor="middle" x="51" y="-303.5" font-family="Helvetica,sans-Serif" font-size="10.00">include</text>
</a>
</g>
</g>
<!-- dir_4ab6b4cc6a7edbff49100e9123df213f -->
<g id="node4" class="node"><title>dir_4ab6b4cc6a7edbff49100e9123df213f</title>
<g id="a_node4"><a xlink:href="dir_4ab6b4cc6a7edbff49100e9123df213f.html" target="_top" xlink:title="Common">
<polygon fill="none" stroke="red" points="116.5,-108 61.5,-108 61.5,-72 116.5,-72 116.5,-108"/>
<text text-anchor="middle" x="89" y="-87.5" font-family="Helvetica,sans-Serif" font-size="10.00">Common</text>
</a>
</g>
</g>
<!-- dir_7bf79a161bebea1697ee327feea7a1aa&#45;&gt;dir_4ab6b4cc6a7edbff49100e9123df213f -->
<g id="edge8" class="edge"><title>dir_7bf79a161bebea1697ee327feea7a1aa&#45;&gt;dir_4ab6b4cc6a7edbff49100e9123df213f</title>
<path fill="none" stroke="black" d="M54.0455,-287.849C60.6326,-250.753 76.2487,-162.81 84.1874,-118.103"/>
<polygon fill="black" stroke="black" points="87.6377,-118.69 85.94,-108.232 80.7455,-117.466 87.6377,-118.69"/>
<g id="a_edge8&#45;headlabel"><a xlink:href="dir_000090_000016.html" target="_top" xlink:title="1">
<text text-anchor="middle" x="89.8049" y="-120.226" font-family="Helvetica,sans-Serif" font-size="10.00">1</text>
</a>
</g>
</g>
<!-- dir_37c90836491b695b472bf98d1be8336b -->
<g id="node5" class="node"><title>dir_37c90836491b695b472bf98d1be8336b</title>
<g id="a_node5"><a xlink:href="dir_37c90836491b695b472bf98d1be8336b.html" target="_top" xlink:title="Base">
<polygon fill="none" stroke="red" points="116,-36 62,-36 62,-0 116,-0 116,-36"/>
<text text-anchor="middle" x="89" y="-15.5" font-family="Helvetica,sans-Serif" font-size="10.00">Base</text>
</a>
</g>
</g>
<!-- dir_7bf79a161bebea1697ee327feea7a1aa&#45;&gt;dir_37c90836491b695b472bf98d1be8336b -->
<g id="edge9" class="edge"><title>dir_7bf79a161bebea1697ee327feea7a1aa&#45;&gt;dir_37c90836491b695b472bf98d1be8336b</title>
<path fill="none" stroke="black" d="M47.666,-287.797C40.7633,-248.448 27.4995,-149.317 52,-72 55.1198,-62.1549 60.7782,-52.5388 66.7469,-44.2593"/>
<polygon fill="black" stroke="black" points="69.6552,-46.2193 72.9858,-36.1616 64.1101,-41.9471 69.6552,-46.2193"/>
<g id="a_edge9&#45;headlabel"><a xlink:href="dir_000090_000073.html" target="_top" xlink:title="1">
<text text-anchor="middle" x="69.7105" y="-48.2996" font-family="Helvetica,sans-Serif" font-size="10.00">1</text>
</a>
</g>
</g>
<!-- dir_478733f24fb8878a4cdf7773310adedd -->
<g id="node6" class="node"><title>dir_478733f24fb8878a4cdf7773310adedd</title>
<g id="a_node6"><a xlink:href="dir_478733f24fb8878a4cdf7773310adedd.html" target="_top" xlink:title="base">
<polygon fill="none" stroke="red" points="133,-252 79,-252 79,-216 133,-216 133,-252"/>
<text text-anchor="middle" x="106" y="-231.5" font-family="Helvetica,sans-Serif" font-size="10.00">base</text>
</a>
</g>
</g>
<!-- dir_7bf79a161bebea1697ee327feea7a1aa&#45;&gt;dir_478733f24fb8878a4cdf7773310adedd -->
<g id="edge10" class="edge"><title>dir_7bf79a161bebea1697ee327feea7a1aa&#45;&gt;dir_478733f24fb8878a4cdf7773310adedd</title>
<path fill="none" stroke="black" d="M64.5955,-287.697C71.1227,-279.389 79.068,-269.277 86.2466,-260.141"/>
<polygon fill="black" stroke="black" points="89.1347,-262.13 92.5609,-252.104 83.6305,-257.805 89.1347,-262.13"/>
<g id="a_edge10&#45;headlabel"><a xlink:href="dir_000090_000077.html" target="_top" xlink:title="1">
<text text-anchor="middle" x="89.1465" y="-264.211" font-family="Helvetica,sans-Serif" font-size="10.00">1</text>
</a>
</g>
</g>
<!-- dir_f58e8c7317032c3b254e2280a1692bd1 -->
<g id="node3" class="node"><title>dir_f58e8c7317032c3b254e2280a1692bd1</title>
<g id="a_node3"><a xlink:href="dir_f58e8c7317032c3b254e2280a1692bd1.html" target="_top" xlink:title="src">
<polygon fill="white" stroke="black" points="78,-396 24,-396 24,-360 78,-360 78,-396"/>
<text text-anchor="middle" x="51" y="-375.5" font-family="Helvetica,sans-Serif" font-size="10.00">src</text>
</a>
</g>
</g>
<!-- dir_f58e8c7317032c3b254e2280a1692bd1&#45;&gt;dir_7bf79a161bebea1697ee327feea7a1aa -->
<g id="edge2" class="edge"><title>dir_f58e8c7317032c3b254e2280a1692bd1&#45;&gt;dir_7bf79a161bebea1697ee327feea7a1aa</title>
<path fill="none" stroke="black" d="M51,-359.697C51,-351.983 51,-342.712 51,-334.112"/>
<polygon fill="black" stroke="black" points="54.5001,-334.104 51,-324.104 47.5001,-334.104 54.5001,-334.104"/>
<g id="a_edge2&#45;headlabel"><a xlink:href="dir_000126_000090.html" target="_top" xlink:title="3">
<text text-anchor="middle" x="57.3393" y="-335.199" font-family="Helvetica,sans-Serif" font-size="10.00">3</text>
</a>
</g>
</g>
<!-- dir_f58e8c7317032c3b254e2280a1692bd1&#45;&gt;dir_478733f24fb8878a4cdf7773310adedd -->
<g id="edge1" class="edge"><title>dir_f58e8c7317032c3b254e2280a1692bd1&#45;&gt;dir_478733f24fb8878a4cdf7773310adedd</title>
<path fill="none" stroke="black" d="M65.1647,-359.851C72.6902,-349.93 81.4971,-336.89 87,-324 95.4132,-304.293 100.245,-280.488 102.928,-262.458"/>
<polygon fill="black" stroke="black" points="106.427,-262.705 104.303,-252.326 99.4903,-261.764 106.427,-262.705"/>
<g id="a_edge1&#45;headlabel"><a xlink:href="dir_000126_000077.html" target="_top" xlink:title="3">
<text text-anchor="middle" x="108.757" y="-264.149" font-family="Helvetica,sans-Serif" font-size="10.00">3</text>
</a>
</g>
</g>
<!-- dir_2171f7ec022c5423887b07c69b2f5b48 -->
<g id="node7" class="node"><title>dir_2171f7ec022c5423887b07c69b2f5b48</title>
<g id="a_node7"><a xlink:href="dir_2171f7ec022c5423887b07c69b2f5b48.html" target="_top" xlink:title="DataFormats">
<polygon fill="none" stroke="red" points="191,-180 117,-180 117,-144 191,-144 191,-180"/>
<text text-anchor="middle" x="154" y="-159.5" font-family="Helvetica,sans-Serif" font-size="10.00">DataFormats</text>
</a>
</g>
</g>
<!-- dir_f58e8c7317032c3b254e2280a1692bd1&#45;&gt;dir_2171f7ec022c5423887b07c69b2f5b48 -->
<g id="edge3" class="edge"><title>dir_f58e8c7317032c3b254e2280a1692bd1&#45;&gt;dir_2171f7ec022c5423887b07c69b2f5b48</title>
<path fill="none" stroke="black" d="M73.6936,-359.925C85.3389,-350.321 99.1144,-337.556 109,-324 129.741,-295.558 132.208,-285.812 142,-252 147.882,-231.69 150.9,-207.92 152.437,-190.058"/>
<polygon fill="black" stroke="black" points="155.931,-190.275 153.199,-180.038 148.951,-189.744 155.931,-190.275"/>
<g id="a_edge3&#45;headlabel"><a xlink:href="dir_000126_000043.html" target="_top" xlink:title="1">
<text text-anchor="middle" x="158.489" y="-191.574" font-family="Helvetica,sans-Serif" font-size="10.00">1</text>
</a>
</g>
</g>
<!-- dir_4ab6b4cc6a7edbff49100e9123df213f&#45;&gt;dir_37c90836491b695b472bf98d1be8336b -->
<g id="edge4" class="edge"><title>dir_4ab6b4cc6a7edbff49100e9123df213f&#45;&gt;dir_37c90836491b695b472bf98d1be8336b</title>
<path fill="none" stroke="black" d="M83.0843,-71.6966C82.2886,-63.9827 82.0621,-54.7125 82.4047,-46.1124"/>
<polygon fill="black" stroke="black" points="85.8984,-46.3243 83.105,-36.1043 78.9154,-45.8356 85.8984,-46.3243"/>
<g id="a_edge4&#45;headlabel"><a xlink:href="dir_000016_000073.html" target="_top" xlink:title="1">
<text text-anchor="middle" x="88.4799" y="-47.6083" font-family="Helvetica,sans-Serif" font-size="10.00">1</text>
</a>
</g>
</g>
<!-- dir_37c90836491b695b472bf98d1be8336b&#45;&gt;dir_4ab6b4cc6a7edbff49100e9123df213f -->
<g id="edge5" class="edge"><title>dir_37c90836491b695b472bf98d1be8336b&#45;&gt;dir_4ab6b4cc6a7edbff49100e9123df213f</title>
<path fill="none" stroke="black" d="M94.895,-36.1043C95.7005,-43.7913 95.9369,-53.0537 95.604,-61.6651"/>
<polygon fill="black" stroke="black" points="92.1085,-61.4805 94.9157,-71.6966 99.0921,-61.9597 92.1085,-61.4805"/>
<g id="a_edge5&#45;headlabel"><a xlink:href="dir_000073_000016.html" target="_top" xlink:title="8">
<text text-anchor="middle" x="89.5219" y="-55.2" font-family="Helvetica,sans-Serif" font-size="10.00">8</text>
</a>
</g>
</g>
<!-- dir_478733f24fb8878a4cdf7773310adedd&#45;&gt;dir_4ab6b4cc6a7edbff49100e9123df213f -->
<g id="edge6" class="edge"><title>dir_478733f24fb8878a4cdf7773310adedd&#45;&gt;dir_4ab6b4cc6a7edbff49100e9123df213f</title>
<path fill="none" stroke="black" d="M103.949,-215.871C101.052,-191.67 95.7295,-147.211 92.2795,-118.393"/>
<polygon fill="black" stroke="black" points="95.7218,-117.702 91.0579,-108.189 88.7715,-118.534 95.7218,-117.702"/>
<g id="a_edge6&#45;headlabel"><a xlink:href="dir_000077_000016.html" target="_top" xlink:title="1">
<text text-anchor="middle" x="98.9682" y="-118.434" font-family="Helvetica,sans-Serif" font-size="10.00">1</text>
</a>
</g>
</g>
<!-- dir_478733f24fb8878a4cdf7773310adedd&#45;&gt;dir_2171f7ec022c5423887b07c69b2f5b48 -->
<g id="edge7" class="edge"><title>dir_478733f24fb8878a4cdf7773310adedd&#45;&gt;dir_2171f7ec022c5423887b07c69b2f5b48</title>
<path fill="none" stroke="black" d="M117.865,-215.697C123.503,-207.474 130.354,-197.483 136.569,-188.421"/>
<polygon fill="black" stroke="black" points="139.503,-190.331 142.271,-180.104 133.729,-186.372 139.503,-190.331"/>
<g id="a_edge7&#45;headlabel"><a xlink:href="dir_000077_000043.html" target="_top" xlink:title="1">
<text text-anchor="middle" x="139.811" y="-192.401" font-family="Helvetica,sans-Serif" font-size="10.00">1</text>
</a>
</g>
</g>
<!-- dir_2171f7ec022c5423887b07c69b2f5b48&#45;&gt;dir_4ab6b4cc6a7edbff49100e9123df213f -->
<g id="edge11" class="edge"><title>dir_2171f7ec022c5423887b07c69b2f5b48&#45;&gt;dir_4ab6b4cc6a7edbff49100e9123df213f</title>
<path fill="none" stroke="black" d="M137.933,-143.697C130.061,-135.22 120.445,-124.864 111.827,-115.583"/>
<polygon fill="black" stroke="black" points="114.252,-113.051 104.883,-108.104 109.122,-117.814 114.252,-113.051"/>
<g id="a_edge11&#45;headlabel"><a xlink:href="dir_000043_000016.html" target="_top" xlink:title="4">
<text text-anchor="middle" x="118.778" y="-111.253" font-family="Helvetica,sans-Serif" font-size="10.00">4</text>
</a>
</g>
</g>
<!-- dir_2171f7ec022c5423887b07c69b2f5b48&#45;&gt;dir_37c90836491b695b472bf98d1be8336b -->
<g id="edge12" class="edge"><title>dir_2171f7ec022c5423887b07c69b2f5b48&#45;&gt;dir_37c90836491b695b472bf98d1be8336b</title>
<path fill="none" stroke="black" d="M149.916,-143.714C145.229,-125.362 136.661,-95.7845 125,-72 120.421,-62.66 114.383,-53.0714 108.564,-44.6621"/>
<polygon fill="black" stroke="black" points="111.311,-42.4862 102.649,-36.3855 105.616,-46.5564 111.311,-42.4862"/>
<g id="a_edge12&#45;headlabel"><a xlink:href="dir_000043_000073.html" target="_top" xlink:title="6">
<text text-anchor="middle" x="115.711" y="-41.2598" font-family="Helvetica,sans-Serif" font-size="10.00">6</text>
</a>
</g>
</g>
</g>
</svg>
