<?xml version="1.0" encoding="UTF-8" standalone="no"?>
<!DOCTYPE svg PUBLIC "-//W3C//DTD SVG 1.1//EN"
 "http://www.w3.org/Graphics/SVG/1.1/DTD/svg11.dtd">
<!-- Generated by graphviz version 2.36.0 (20140111.2315)
 -->
<!-- Title: /home/travis/build/AliceO2Group/AliceO2/Framework/TestWorkflows/src Pages: 1 -->
<svg width="244pt" height="295pt"
 viewBox="0.00 0.00 243.52 295.00" xmlns="http://www.w3.org/2000/svg" xmlns:xlink="http://www.w3.org/1999/xlink">
<g id="graph0" class="graph" transform="scale(1 1) rotate(0) translate(4 291)">
<title>/home/travis/build/AliceO2Group/AliceO2/Framework/TestWorkflows/src</title>
<g id="clust1" class="cluster"><title>clusterdir_a8f73827fca2a0188d35dc47dc5b0ea3</title>
<g id="a_clust1"><a xlink:href="dir_a8f73827fca2a0188d35dc47dc5b0ea3.html" target="_top" xlink:title="TestWorkflows">
<polygon fill="#ddddee" stroke="black" points="75.534,-208 75.534,-279 158.534,-279 158.534,-208 75.534,-208"/>
<text text-anchor="middle" x="117.034" y="-267" font-family="Helvetica,sans-Serif" font-size="10.00">TestWorkflows</text>
</a>
</g>
</g>
<!-- dir_80c3b7d4c168c9aa75dd1ba81b9fa387 -->
<g id="node1" class="node"><title>dir_80c3b7d4c168c9aa75dd1ba81b9fa387</title>
<g id="a_node1"><a xlink:href="dir_80c3b7d4c168c9aa75dd1ba81b9fa387.html" target="_top" xlink:title="src">
<polygon fill="#eeeeff" stroke="black" points="143.534,-252 89.534,-252 89.534,-216 143.534,-216 143.534,-252"/>
<text text-anchor="middle" x="116.534" y="-231.5" font-family="Helvetica,sans-Serif" font-size="10.00">src</text>
</a>
</g>
</g>
<!-- dir_0b342c6c6b7d2278121a0bb9c4985063 -->
<g id="node2" class="node"><title>dir_0b342c6c6b7d2278121a0bb9c4985063</title>
<g id="a_node2"><a xlink:href="dir_0b342c6c6b7d2278121a0bb9c4985063.html" target="_top" xlink:title="Generators">
<polygon fill="none" stroke="red" points="217.784,-108 153.284,-108 153.284,-72 217.784,-72 217.784,-108"/>
<text text-anchor="middle" x="185.534" y="-87.5" font-family="Helvetica,sans-Serif" font-size="10.00">Generators</text>
</a>
</g>
</g>
<!-- dir_80c3b7d4c168c9aa75dd1ba81b9fa387&#45;&gt;dir_0b342c6c6b7d2278121a0bb9c4985063 -->
<g id="edge1" class="edge"><title>dir_80c3b7d4c168c9aa75dd1ba81b9fa387&#45;&gt;dir_0b342c6c6b7d2278121a0bb9c4985063</title>
<path fill="none" stroke="black" d="M130.897,-215.675C138.656,-205.7 147.964,-192.663 154.534,-180 164.849,-160.118 172.997,-136.05 178.346,-117.958"/>
<polygon fill="black" stroke="black" points="181.715,-118.907 181.096,-108.33 174.984,-116.984 181.715,-118.907"/>
<g id="a_edge1&#45;headlabel"><a xlink:href="dir_000272_000274.html" target="_top" xlink:title="1">
<text text-anchor="middle" x="183.457" y="-120.643" font-family="Helvetica,sans-Serif" font-size="10.00">1</text>
</a>
</g>
</g>
<!-- dir_4ab6b4cc6a7edbff49100e9123df213f -->
<g id="node3" class="node"><title>dir_4ab6b4cc6a7edbff49100e9123df213f</title>
<g id="a_node3"><a xlink:href="dir_4ab6b4cc6a7edbff49100e9123df213f.html" target="_top" xlink:title="Common">
<polygon fill="none" stroke="red" points="143.034,-36 88.034,-36 88.034,-0 143.034,-0 143.034,-36"/>
<text text-anchor="middle" x="115.534" y="-15.5" font-family="Helvetica,sans-Serif" font-size="10.00">Common</text>
</a>
</g>
</g>
<!-- dir_80c3b7d4c168c9aa75dd1ba81b9fa387&#45;&gt;dir_4ab6b4cc6a7edbff49100e9123df213f -->
<g id="edge2" class="edge"><title>dir_80c3b7d4c168c9aa75dd1ba81b9fa387&#45;&gt;dir_4ab6b4cc6a7edbff49100e9123df213f</title>
<path fill="none" stroke="black" d="M143.559,-215.886C186.043,-186.771 260.303,-125.545 226.534,-72 210.494,-46.5661 178.517,-33.0768 152.988,-26.0868"/>
<polygon fill="black" stroke="black" points="153.766,-22.6736 143.215,-23.6341 152.062,-29.4631 153.766,-22.6736"/>
<g id="a_edge2&#45;headlabel"><a xlink:href="dir_000272_000016.html" target="_top" xlink:title="2">
<text text-anchor="middle" x="157.944" y="-18.2946" font-family="Helvetica,sans-Serif" font-size="10.00">2</text>
</a>
</g>
</g>
<!-- dir_9f165b2481dacfe69aa54d326bd5cd47 -->
<g id="node4" class="node"><title>dir_9f165b2481dacfe69aa54d326bd5cd47</title>
<g id="a_node4"><a xlink:href="dir_9f165b2481dacfe69aa54d326bd5cd47.html" target="_top" xlink:title="Core">
<polygon fill="none" stroke="red" points="68.534,-180 14.534,-180 14.534,-144 68.534,-144 68.534,-180"/>
<text text-anchor="middle" x="41.534" y="-159.5" font-family="Helvetica,sans-Serif" font-size="10.00">Core</text>
</a>
</g>
</g>
<!-- dir_80c3b7d4c168c9aa75dd1ba81b9fa387&#45;&gt;dir_9f165b2481dacfe69aa54d326bd5cd47 -->
<g id="edge3" class="edge"><title>dir_80c3b7d4c168c9aa75dd1ba81b9fa387&#45;&gt;dir_9f165b2481dacfe69aa54d326bd5cd47</title>
<path fill="none" stroke="black" d="M97.9947,-215.697C88.7307,-207.05 77.3718,-196.449 67.2773,-187.027"/>
<polygon fill="black" stroke="black" points="69.5588,-184.369 59.8601,-180.104 64.7825,-189.486 69.5588,-184.369"/>
<g id="a_edge3&#45;headlabel"><a xlink:href="dir_000272_000260.html" target="_top" xlink:title="38">
<text text-anchor="middle" x="74.1239" y="-182.246" font-family="Helvetica,sans-Serif" font-size="10.00">38</text>
</a>
</g>
</g>
<!-- dir_051dca18e802f8e9474f2e30d29c04e0 -->
<g id="node5" class="node"><title>dir_051dca18e802f8e9474f2e30d29c04e0</title>
<g id="a_node5"><a xlink:href="dir_051dca18e802f8e9474f2e30d29c04e0.html" target="_top" xlink:title="Detectors">
<polygon fill="none" stroke="red" points="145.784,-180 87.284,-180 87.284,-144 145.784,-144 145.784,-180"/>
<text text-anchor="middle" x="116.534" y="-159.5" font-family="Helvetica,sans-Serif" font-size="10.00">Detectors</text>
</a>
</g>
</g>
<!-- dir_80c3b7d4c168c9aa75dd1ba81b9fa387&#45;&gt;dir_051dca18e802f8e9474f2e30d29c04e0 -->
<g id="edge4" class="edge"><title>dir_80c3b7d4c168c9aa75dd1ba81b9fa387&#45;&gt;dir_051dca18e802f8e9474f2e30d29c04e0</title>
<path fill="none" stroke="black" d="M116.534,-215.697C116.534,-207.983 116.534,-198.712 116.534,-190.112"/>
<polygon fill="black" stroke="black" points="120.034,-190.104 116.534,-180.104 113.034,-190.104 120.034,-190.104"/>
<g id="a_edge4&#45;headlabel"><a xlink:href="dir_000272_000072.html" target="_top" xlink:title="4">
<text text-anchor="middle" x="122.873" y="-191.199" font-family="Helvetica,sans-Serif" font-size="10.00">4</text>
</a>
</g>
</g>
<!-- dir_2171f7ec022c5423887b07c69b2f5b48 -->
<g id="node6" class="node"><title>dir_2171f7ec022c5423887b07c69b2f5b48</title>
<g id="a_node6"><a xlink:href="dir_2171f7ec022c5423887b07c69b2f5b48.html" target="_top" xlink:title="DataFormats">
<polygon fill="none" stroke="red" points="78.534,-108 4.53402,-108 4.53402,-72 78.534,-72 78.534,-108"/>
<text text-anchor="middle" x="41.534" y="-87.5" font-family="Helvetica,sans-Serif" font-size="10.00">DataFormats</text>
</a>
</g>
</g>
<!-- dir_80c3b7d4c168c9aa75dd1ba81b9fa387&#45;&gt;dir_2171f7ec022c5423887b07c69b2f5b48 -->
<g id="edge5" class="edge"><title>dir_80c3b7d4c168c9aa75dd1ba81b9fa387&#45;&gt;dir_2171f7ec022c5423887b07c69b2f5b48</title>
<path fill="none" stroke="black" d="M89.1022,-228.423C62.5633,-222.378 23.7605,-208.9 5.53402,-180 -7.1109,-159.95 5.40431,-134.709 19.0272,-116.233"/>
<polygon fill="black" stroke="black" points="21.8607,-118.292 25.2779,-108.263 16.3526,-113.972 21.8607,-118.292"/>
<g id="a_edge5&#45;headlabel"><a xlink:href="dir_000272_000043.html" target="_top" xlink:title="2">
<text text-anchor="middle" x="21.8765" y="-120.373" font-family="Helvetica,sans-Serif" font-size="10.00">2</text>
</a>
</g>
</g>
<!-- dir_4ab6b4cc6a7edbff49100e9123df213f&#45;&gt;dir_051dca18e802f8e9474f2e30d29c04e0 -->
<g id="edge6" class="edge"><title>dir_4ab6b4cc6a7edbff49100e9123df213f&#45;&gt;dir_051dca18e802f8e9474f2e30d29c04e0</title>
<path fill="none" stroke="black" d="M120.246,-36.1893C122.971,-60.4244 123.572,-104.888 121.796,-133.679"/>
<polygon fill="black" stroke="black" points="118.289,-133.629 120.998,-143.871 125.268,-134.175 118.289,-133.629"/>
<g id="a_edge6&#45;headlabel"><a xlink:href="dir_000016_000072.html" target="_top" xlink:title="1">
<text text-anchor="middle" x="115.739" y="-127.324" font-family="Helvetica,sans-Serif" font-size="10.00">1</text>
</a>
</g>
</g>
<!-- dir_9f165b2481dacfe69aa54d326bd5cd47&#45;&gt;dir_2171f7ec022c5423887b07c69b2f5b48 -->
<g id="edge7" class="edge"><title>dir_9f165b2481dacfe69aa54d326bd5cd47&#45;&gt;dir_2171f7ec022c5423887b07c69b2f5b48</title>
<path fill="none" stroke="black" d="M41.534,-143.697C41.534,-135.983 41.534,-126.712 41.534,-118.112"/>
<polygon fill="black" stroke="black" points="45.0341,-118.104 41.534,-108.104 38.0341,-118.104 45.0341,-118.104"/>
<g id="a_edge7&#45;headlabel"><a xlink:href="dir_000260_000043.html" target="_top" xlink:title="12">
<text text-anchor="middle" x="47.8733" y="-119.199" font-family="Helvetica,sans-Serif" font-size="10.00">12</text>
</a>
</g>
</g>
<!-- dir_051dca18e802f8e9474f2e30d29c04e0&#45;&gt;dir_0b342c6c6b7d2278121a0bb9c4985063 -->
<g id="edge8" class="edge"><title>dir_051dca18e802f8e9474f2e30d29c04e0&#45;&gt;dir_0b342c6c6b7d2278121a0bb9c4985063</title>
<path fill="none" stroke="black" d="M133.59,-143.697C142.029,-135.135 152.359,-124.656 161.577,-115.304"/>
<polygon fill="black" stroke="black" points="164.147,-117.683 168.674,-108.104 159.161,-112.769 164.147,-117.683"/>
<g id="a_edge8&#45;headlabel"><a xlink:href="dir_000072_000274.html" target="_top" xlink:title="1">
<text text-anchor="middle" x="163.645" y="-119.736" font-family="Helvetica,sans-Serif" font-size="10.00">1</text>
</a>
</g>
</g>
<!-- dir_051dca18e802f8e9474f2e30d29c04e0&#45;&gt;dir_4ab6b4cc6a7edbff49100e9123df213f -->
<g id="edge9" class="edge"><title>dir_051dca18e802f8e9474f2e30d29c04e0&#45;&gt;dir_4ab6b4cc6a7edbff49100e9123df213f</title>
<path fill="none" stroke="black" d="M111.829,-143.871C109.1,-119.67 108.496,-75.2108 110.268,-46.3932"/>
<polygon fill="black" stroke="black" points="113.776,-46.4313 111.064,-36.1893 106.797,-45.8866 113.776,-46.4313"/>
<g id="a_edge9&#45;headlabel"><a xlink:href="dir_000072_000016.html" target="_top" xlink:title="36">
<text text-anchor="middle" x="116.327" y="-47.7358" font-family="Helvetica,sans-Serif" font-size="10.00">36</text>
</a>
</g>
</g>
<!-- dir_051dca18e802f8e9474f2e30d29c04e0&#45;&gt;dir_2171f7ec022c5423887b07c69b2f5b48 -->
<g id="edge10" class="edge"><title>dir_051dca18e802f8e9474f2e30d29c04e0&#45;&gt;dir_2171f7ec022c5423887b07c69b2f5b48</title>
<path fill="none" stroke="black" d="M92.079,-143.697C82.0227,-135.135 70.6134,-124.656 61.1128,-115.304"/>
<polygon fill="black" stroke="black" points="63.4942,-112.735 53.9651,-108.104 58.5264,-117.667 63.4942,-112.735"/>
<g id="a_edge10&#45;headlabel"><a xlink:href="dir_000072_000043.html" target="_top" xlink:title="83">
<text text-anchor="middle" x="68.0416" y="-110.786" font-family="Helvetica,sans-Serif" font-size="10.00">83</text>
</a>
</g>
</g>
<!-- dir_2171f7ec022c5423887b07c69b2f5b48&#45;&gt;dir_4ab6b4cc6a7edbff49100e9123df213f -->
<g id="edge11" class="edge"><title>dir_2171f7ec022c5423887b07c69b2f5b48&#45;&gt;dir_4ab6b4cc6a7edbff49100e9123df213f</title>
<path fill="none" stroke="black" d="M59.8262,-71.6966C68.9666,-63.0503 80.1741,-52.4486 90.134,-43.027"/>
<polygon fill="black" stroke="black" points="92.5928,-45.519 97.4523,-36.1043 87.7824,-40.4337 92.5928,-45.519"/>
<g id="a_edge11&#45;headlabel"><a xlink:href="dir_000043_000016.html" target="_top" xlink:title="4">
<text text-anchor="middle" x="91.9326" y="-47.5518" font-family="Helvetica,sans-Serif" font-size="10.00">4</text>
</a>
</g>
</g>
<!-- dir_2171f7ec022c5423887b07c69b2f5b48&#45;&gt;dir_051dca18e802f8e9474f2e30d29c04e0 -->
<g id="edge12" class="edge"><title>dir_2171f7ec022c5423887b07c69b2f5b48&#45;&gt;dir_051dca18e802f8e9474f2e30d29c04e0</title>
<path fill="none" stroke="black" d="M65.7551,-108.104C75.7902,-116.636 87.2036,-127.108 96.7336,-136.478"/>
<polygon fill="black" stroke="black" points="94.378,-139.072 103.91,-143.697 99.3423,-134.137 94.378,-139.072"/>
<g id="a_edge12&#45;headlabel"><a xlink:href="dir_000043_000072.html" target="_top" xlink:title="8">
<text text-anchor="middle" x="89.8302" y="-136.025" font-family="Helvetica,sans-Serif" font-size="10.00">8</text>
</a>
</g>
</g>
</g>
</svg>
