<?xml version="1.0" encoding="UTF-8" standalone="no"?>
<!DOCTYPE svg PUBLIC "-//W3C//DTD SVG 1.1//EN"
 "http://www.w3.org/Graphics/SVG/1.1/DTD/svg11.dtd">
<!-- Generated by graphviz version 2.36.0 (20140111.2315)
 -->
<!-- Title: /home/travis/build/AliceO2Group/AliceO2/macro Pages: 1 -->
<svg width="172pt" height="260pt"
 viewBox="0.00 0.00 172.00 260.00" xmlns="http://www.w3.org/2000/svg" xmlns:xlink="http://www.w3.org/1999/xlink">
<g id="graph0" class="graph" transform="scale(1 1) rotate(0) translate(4 256)">
<title>/home/travis/build/AliceO2Group/AliceO2/macro</title>
<!-- dir_3b579af105d68949fc87077585f616df -->
<g id="node1" class="node"><title>dir_3b579af105d68949fc87077585f616df</title>
<g id="a_node1"><a xlink:href="dir_3b579af105d68949fc87077585f616df.html" target="_top" xlink:title="macro">
<polygon fill="#eeeeff" stroke="black" points="113,-252 59,-252 59,-216 113,-216 113,-252"/>
<text text-anchor="middle" x="86" y="-231.5" font-family="Helvetica,sans-Serif" font-size="10.00">macro</text>
</a>
</g>
</g>
<!-- dir_0b342c6c6b7d2278121a0bb9c4985063 -->
<g id="node2" class="node"><title>dir_0b342c6c6b7d2278121a0bb9c4985063</title>
<g id="a_node2"><a xlink:href="dir_0b342c6c6b7d2278121a0bb9c4985063.html" target="_top" xlink:title="Generators">
<polygon fill="none" stroke="red" points="64.25,-36 -0.25,-36 -0.25,-0 64.25,-0 64.25,-36"/>
<text text-anchor="middle" x="32" y="-15.5" font-family="Helvetica,sans-Serif" font-size="10.00">Generators</text>
</a>
</g>
</g>
<!-- dir_3b579af105d68949fc87077585f616df&#45;&gt;dir_0b342c6c6b7d2278121a0bb9c4985063 -->
<g id="edge5" class="edge"><title>dir_3b579af105d68949fc87077585f616df&#45;&gt;dir_0b342c6c6b7d2278121a0bb9c4985063</title>
<path fill="none" stroke="black" d="M77.1977,-215.751C65.6268,-192.133 45.7466,-148.081 37,-108 32.5735,-87.7157 31.4132,-64.2495 31.3115,-46.507"/>
<polygon fill="black" stroke="black" points="34.8126,-46.2974 31.3653,-36.2791 27.8127,-46.2605 34.8126,-46.2974"/>
<g id="a_edge5&#45;headlabel"><a xlink:href="dir_000162_000274.html" target="_top" xlink:title="5">
<text text-anchor="middle" x="37.633" y="-47.4068" font-family="Helvetica,sans-Serif" font-size="10.00">5</text>
</a>
</g>
</g>
<!-- dir_4ab6b4cc6a7edbff49100e9123df213f -->
<g id="node3" class="node"><title>dir_4ab6b4cc6a7edbff49100e9123df213f</title>
<g id="a_node3"><a xlink:href="dir_4ab6b4cc6a7edbff49100e9123df213f.html" target="_top" xlink:title="Common">
<polygon fill="none" stroke="red" points="141.5,-180 86.5,-180 86.5,-144 141.5,-144 141.5,-180"/>
<text text-anchor="middle" x="114" y="-159.5" font-family="Helvetica,sans-Serif" font-size="10.00">Common</text>
</a>
</g>
</g>
<!-- dir_3b579af105d68949fc87077585f616df&#45;&gt;dir_4ab6b4cc6a7edbff49100e9123df213f -->
<g id="edge6" class="edge"><title>dir_3b579af105d68949fc87077585f616df&#45;&gt;dir_4ab6b4cc6a7edbff49100e9123df213f</title>
<path fill="none" stroke="black" d="M92.9214,-215.697C96.0747,-207.813 99.8783,-198.304 103.381,-189.546"/>
<polygon fill="black" stroke="black" points="106.694,-190.689 107.158,-180.104 100.195,-188.089 106.694,-190.689"/>
<g id="a_edge6&#45;headlabel"><a xlink:href="dir_000162_000016.html" target="_top" xlink:title="12">
<text text-anchor="middle" x="107.995" y="-192.581" font-family="Helvetica,sans-Serif" font-size="10.00">12</text>
</a>
</g>
</g>
<!-- dir_051dca18e802f8e9474f2e30d29c04e0 -->
<g id="node4" class="node"><title>dir_051dca18e802f8e9474f2e30d29c04e0</title>
<g id="a_node4"><a xlink:href="dir_051dca18e802f8e9474f2e30d29c04e0.html" target="_top" xlink:title="Detectors">
<polygon fill="none" stroke="red" points="105.25,-108 46.75,-108 46.75,-72 105.25,-72 105.25,-108"/>
<text text-anchor="middle" x="76" y="-87.5" font-family="Helvetica,sans-Serif" font-size="10.00">Detectors</text>
</a>
</g>
</g>
<!-- dir_3b579af105d68949fc87077585f616df&#45;&gt;dir_051dca18e802f8e9474f2e30d29c04e0 -->
<g id="edge7" class="edge"><title>dir_3b579af105d68949fc87077585f616df&#45;&gt;dir_051dca18e802f8e9474f2e30d29c04e0</title>
<path fill="none" stroke="black" d="M82.3955,-215.903C80.391,-205.563 78.0871,-192.084 77,-180 75.1425,-159.353 74.9573,-135.904 75.2016,-118.261"/>
<polygon fill="black" stroke="black" points="78.704,-118.168 75.3982,-108.102 71.7053,-118.032 78.704,-118.168"/>
<g id="a_edge7&#45;headlabel"><a xlink:href="dir_000162_000072.html" target="_top" xlink:title="38">
<text text-anchor="middle" x="81.4733" y="-119.317" font-family="Helvetica,sans-Serif" font-size="10.00">38</text>
</a>
</g>
</g>
<!-- dir_2171f7ec022c5423887b07c69b2f5b48 -->
<g id="node5" class="node"><title>dir_2171f7ec022c5423887b07c69b2f5b48</title>
<g id="a_node5"><a xlink:href="dir_2171f7ec022c5423887b07c69b2f5b48.html" target="_top" xlink:title="DataFormats">
<polygon fill="none" stroke="red" points="164,-36 90,-36 90,-0 164,-0 164,-36"/>
<text text-anchor="middle" x="127" y="-15.5" font-family="Helvetica,sans-Serif" font-size="10.00">DataFormats</text>
</a>
</g>
</g>
<!-- dir_3b579af105d68949fc87077585f616df&#45;&gt;dir_2171f7ec022c5423887b07c69b2f5b48 -->
<g id="edge8" class="edge"><title>dir_3b579af105d68949fc87077585f616df&#45;&gt;dir_2171f7ec022c5423887b07c69b2f5b48</title>
<path fill="none" stroke="black" d="M113.096,-218.388C126.887,-209.337 142.326,-196.319 150,-180 170.58,-136.236 153.325,-78.9623 139.651,-45.8477"/>
<polygon fill="black" stroke="black" points="142.744,-44.1824 135.568,-36.3881 136.318,-46.9564 142.744,-44.1824"/>
<g id="a_edge8&#45;headlabel"><a xlink:href="dir_000162_000043.html" target="_top" xlink:title="4">
<text text-anchor="middle" x="146.776" y="-43.8575" font-family="Helvetica,sans-Serif" font-size="10.00">4</text>
</a>
</g>
</g>
<!-- dir_4ab6b4cc6a7edbff49100e9123df213f&#45;&gt;dir_051dca18e802f8e9474f2e30d29c04e0 -->
<g id="edge1" class="edge"><title>dir_4ab6b4cc6a7edbff49100e9123df213f&#45;&gt;dir_051dca18e802f8e9474f2e30d29c04e0</title>
<path fill="none" stroke="black" d="M98.691,-143.697C93.5435,-135.728 88.1018,-126.1 83.6981,-117.264"/>
<polygon fill="black" stroke="black" points="86.8134,-115.664 79.3902,-108.104 80.4789,-118.643 86.8134,-115.664"/>
<g id="a_edge1&#45;headlabel"><a xlink:href="dir_000016_000072.html" target="_top" xlink:title="1">
<text text-anchor="middle" x="90.9124" y="-115.208" font-family="Helvetica,sans-Serif" font-size="10.00">1</text>
</a>
</g>
</g>
<!-- dir_051dca18e802f8e9474f2e30d29c04e0&#45;&gt;dir_0b342c6c6b7d2278121a0bb9c4985063 -->
<g id="edge2" class="edge"><title>dir_051dca18e802f8e9474f2e30d29c04e0&#45;&gt;dir_0b342c6c6b7d2278121a0bb9c4985063</title>
<path fill="none" stroke="black" d="M65.1236,-71.6966C60.0084,-63.5589 53.8045,-53.689 48.1551,-44.7013"/>
<polygon fill="black" stroke="black" points="51.0363,-42.7081 42.7513,-36.1043 45.1098,-46.4333 51.0363,-42.7081"/>
<g id="a_edge2&#45;headlabel"><a xlink:href="dir_000072_000274.html" target="_top" xlink:title="1">
<text text-anchor="middle" x="55.353" y="-41.7405" font-family="Helvetica,sans-Serif" font-size="10.00">1</text>
</a>
</g>
</g>
<!-- dir_051dca18e802f8e9474f2e30d29c04e0&#45;&gt;dir_4ab6b4cc6a7edbff49100e9123df213f -->
<g id="edge3" class="edge"><title>dir_051dca18e802f8e9474f2e30d29c04e0&#45;&gt;dir_4ab6b4cc6a7edbff49100e9123df213f</title>
<path fill="none" stroke="black" d="M91.1802,-108.104C96.3228,-116.045 101.771,-125.666 106.191,-134.515"/>
<polygon fill="black" stroke="black" points="103.091,-136.145 110.522,-143.697 109.422,-133.159 103.091,-136.145"/>
<g id="a_edge3&#45;headlabel"><a xlink:href="dir_000072_000016.html" target="_top" xlink:title="36">
<text text-anchor="middle" x="98.9894" y="-131.606" font-family="Helvetica,sans-Serif" font-size="10.00">36</text>
</a>
</g>
</g>
<!-- dir_051dca18e802f8e9474f2e30d29c04e0&#45;&gt;dir_2171f7ec022c5423887b07c69b2f5b48 -->
<g id="edge4" class="edge"><title>dir_051dca18e802f8e9474f2e30d29c04e0&#45;&gt;dir_2171f7ec022c5423887b07c69b2f5b48</title>
<path fill="none" stroke="black" d="M82.691,-71.6966C87.8866,-63.3893 95.0573,-53.2771 102.177,-44.1407"/>
<polygon fill="black" stroke="black" points="105.101,-46.0896 108.643,-36.1043 99.6475,-41.7014 105.101,-46.0896"/>
<g id="a_edge4&#45;headlabel"><a xlink:href="dir_000072_000043.html" target="_top" xlink:title="83">
<text text-anchor="middle" x="105.06" y="-48.1701" font-family="Helvetica,sans-Serif" font-size="10.00">83</text>
</a>
</g>
</g>
<!-- dir_2171f7ec022c5423887b07c69b2f5b48&#45;&gt;dir_4ab6b4cc6a7edbff49100e9123df213f -->
<g id="edge9" class="edge"><title>dir_2171f7ec022c5423887b07c69b2f5b48&#45;&gt;dir_4ab6b4cc6a7edbff49100e9123df213f</title>
<path fill="none" stroke="black" d="M125.426,-36.1893C123.208,-60.4244 119.137,-104.888 116.501,-133.679"/>
<polygon fill="black" stroke="black" points="112.994,-133.594 115.568,-143.871 119.965,-134.232 112.994,-133.594"/>
<g id="a_edge9&#45;headlabel"><a xlink:href="dir_000043_000016.html" target="_top" xlink:title="4">
<text text-anchor="middle" x="110.495" y="-127.256" font-family="Helvetica,sans-Serif" font-size="10.00">4</text>
</a>
</g>
</g>
<!-- dir_2171f7ec022c5423887b07c69b2f5b48&#45;&gt;dir_051dca18e802f8e9474f2e30d29c04e0 -->
<g id="edge10" class="edge"><title>dir_2171f7ec022c5423887b07c69b2f5b48&#45;&gt;dir_051dca18e802f8e9474f2e30d29c04e0</title>
<path fill="none" stroke="black" d="M120.433,-36.1043C115.269,-44.3826 108.114,-54.488 100.994,-63.6398"/>
<polygon fill="black" stroke="black" points="98.056,-61.7084 94.5225,-71.6966 103.513,-66.0919 98.056,-61.7084"/>
<g id="a_edge10&#45;headlabel"><a xlink:href="dir_000043_000072.html" target="_top" xlink:title="8">
<text text-anchor="middle" x="98.0933" y="-54.6279" font-family="Helvetica,sans-Serif" font-size="10.00">8</text>
</a>
</g>
</g>
</g>
</svg>
