<?xml version="1.0" encoding="UTF-8" standalone="no"?>
<!DOCTYPE svg PUBLIC "-//W3C//DTD SVG 1.1//EN"
 "http://www.w3.org/Graphics/SVG/1.1/DTD/svg11.dtd">
<!-- Generated by graphviz version 2.36.0 (20140111.2315)
 -->
<!-- Title: /home/travis/build/AliceO2Group/AliceO2/Detectors/Base Pages: 1 -->
<svg width="310pt" height="183pt"
 viewBox="0.00 0.00 310.00 183.00" xmlns="http://www.w3.org/2000/svg" xmlns:xlink="http://www.w3.org/1999/xlink">
<g id="graph0" class="graph" transform="scale(1 1) rotate(0) translate(4 179)">
<title>/home/travis/build/AliceO2Group/AliceO2/Detectors/Base</title>
<g id="clust1" class="cluster"><title>clusterdir_051dca18e802f8e9474f2e30d29c04e0</title>
<g id="a_clust1"><a xlink:href="dir_051dca18e802f8e9474f2e30d29c04e0.html" target="_top" xlink:title="Detectors">
<polygon fill="#ddddee" stroke="black" points="8,-8 8,-167 238,-167 238,-8 8,-8"/>
<text text-anchor="middle" x="123" y="-155" font-family="Helvetica,sans-Serif" font-size="10.00">Detectors</text>
</a>
</g>
</g>
<g id="clust2" class="cluster"><title>clusterdir_37c90836491b695b472bf98d1be8336b</title>
<g id="a_clust2"><a xlink:href="dir_37c90836491b695b472bf98d1be8336b.html" target="_top">
<polygon fill="#eeeeff" stroke="black" points="16,-16 16,-140 230,-140 230,-16 16,-16"/>
</a>
</g>
</g>
<!-- dir_37c90836491b695b472bf98d1be8336b -->
<g id="node1" class="node"><title>dir_37c90836491b695b472bf98d1be8336b</title>
<text text-anchor="middle" x="195" y="-111.5" font-family="Helvetica,sans-Serif" font-size="10.00">Base</text>
</g>
<!-- dir_548839eeca1931d32df07653a7903e44 -->
<g id="node2" class="node"><title>dir_548839eeca1931d32df07653a7903e44</title>
<g id="a_node2"><a xlink:href="dir_548839eeca1931d32df07653a7903e44.html" target="_top" xlink:title="include">
<polygon fill="white" stroke="red" points="114,-60 60,-60 60,-24 114,-24 114,-60"/>
<text text-anchor="middle" x="87" y="-39.5" font-family="Helvetica,sans-Serif" font-size="10.00">include</text>
</a>
</g>
</g>
<!-- dir_4ab6b4cc6a7edbff49100e9123df213f -->
<g id="node5" class="node"><title>dir_4ab6b4cc6a7edbff49100e9123df213f</title>
<g id="a_node5"><a xlink:href="dir_4ab6b4cc6a7edbff49100e9123df213f.html" target="_top" xlink:title="Common">
<polygon fill="none" stroke="red" points="301.5,-60 246.5,-60 246.5,-24 301.5,-24 301.5,-60"/>
<text text-anchor="middle" x="274" y="-39.5" font-family="Helvetica,sans-Serif" font-size="10.00">Common</text>
</a>
</g>
</g>
<!-- dir_548839eeca1931d32df07653a7903e44&#45;&gt;dir_4ab6b4cc6a7edbff49100e9123df213f -->
<g id="edge1" class="edge"><title>dir_548839eeca1931d32df07653a7903e44&#45;&gt;dir_4ab6b4cc6a7edbff49100e9123df213f</title>
<path fill="none" stroke="black" d="M114.027,-42C154.727,-42 195.426,-42 236.125,-42"/>
<polygon fill="black" stroke="black" points="236.192,-45.5001 246.192,-42 236.192,-38.5001 236.192,-45.5001"/>
<g id="a_edge1&#45;headlabel"><a xlink:href="dir_000074_000016.html" target="_top" xlink:title="5">
<text text-anchor="middle" x="232.598" y="-45.8393" font-family="Helvetica,sans-Serif" font-size="10.00">5</text>
</a>
</g>
</g>
<!-- dir_eeeef6c2eb7f500b211a8736eff99ff9 -->
<g id="node3" class="node"><title>dir_eeeef6c2eb7f500b211a8736eff99ff9</title>
<g id="a_node3"><a xlink:href="dir_eeeef6c2eb7f500b211a8736eff99ff9.html" target="_top" xlink:title="src">
<polygon fill="white" stroke="black" points="150,-132 96,-132 96,-96 150,-96 150,-132"/>
<text text-anchor="middle" x="123" y="-111.5" font-family="Helvetica,sans-Serif" font-size="10.00">src</text>
</a>
</g>
</g>
<!-- dir_eeeef6c2eb7f500b211a8736eff99ff9&#45;&gt;dir_548839eeca1931d32df07653a7903e44 -->
<g id="edge4" class="edge"><title>dir_eeeef6c2eb7f500b211a8736eff99ff9&#45;&gt;dir_548839eeca1931d32df07653a7903e44</title>
<path fill="none" stroke="black" d="M114.101,-95.6966C110.003,-87.7284 105.051,-78.0995 100.507,-69.2641"/>
<polygon fill="black" stroke="black" points="103.483,-67.3965 95.7965,-60.1043 97.2575,-70.598 103.483,-67.3965"/>
<g id="a_edge4&#45;headlabel"><a xlink:href="dir_000125_000074.html" target="_top" xlink:title="15">
<text text-anchor="middle" x="107.651" y="-66.7946" font-family="Helvetica,sans-Serif" font-size="10.00">15</text>
</a>
</g>
</g>
<!-- dir_eeeef6c2eb7f500b211a8736eff99ff9&#45;&gt;dir_4ab6b4cc6a7edbff49100e9123df213f -->
<g id="edge5" class="edge"><title>dir_eeeef6c2eb7f500b211a8736eff99ff9&#45;&gt;dir_4ab6b4cc6a7edbff49100e9123df213f</title>
<path fill="none" stroke="black" d="M150.114,-100.163C153.111,-98.7543 156.119,-97.3442 159,-96 184.974,-83.8825 214.318,-70.3611 236.864,-60.0085"/>
<polygon fill="black" stroke="black" points="238.452,-63.131 246.081,-55.7791 235.532,-56.7689 238.452,-63.131"/>
<g id="a_edge5&#45;headlabel"><a xlink:href="dir_000125_000016.html" target="_top" xlink:title="3">
<text text-anchor="middle" x="236.369" y="-64.7107" font-family="Helvetica,sans-Serif" font-size="10.00">3</text>
</a>
</g>
</g>
<!-- dir_c1eec9d1003d3beb84502b0a1059f30e -->
<g id="node4" class="node"><title>dir_c1eec9d1003d3beb84502b0a1059f30e</title>
<g id="a_node4"><a xlink:href="dir_c1eec9d1003d3beb84502b0a1059f30e.html" target="_top" xlink:title="test">
<polygon fill="white" stroke="black" points="78,-132 24,-132 24,-96 78,-96 78,-132"/>
<text text-anchor="middle" x="51" y="-111.5" font-family="Helvetica,sans-Serif" font-size="10.00">test</text>
</a>
</g>
</g>
<!-- dir_c1eec9d1003d3beb84502b0a1059f30e&#45;&gt;dir_548839eeca1931d32df07653a7903e44 -->
<g id="edge3" class="edge"><title>dir_c1eec9d1003d3beb84502b0a1059f30e&#45;&gt;dir_548839eeca1931d32df07653a7903e44</title>
<path fill="none" stroke="black" d="M59.8989,-95.6966C63.9968,-87.7284 68.9488,-78.0995 73.4927,-69.2641"/>
<polygon fill="black" stroke="black" points="76.7425,-70.598 78.2035,-60.1043 70.5174,-67.3965 76.7425,-70.598"/>
<g id="a_edge3&#45;headlabel"><a xlink:href="dir_000136_000074.html" target="_top" xlink:title="1">
<text text-anchor="middle" x="77.6235" y="-72.5931" font-family="Helvetica,sans-Serif" font-size="10.00">1</text>
</a>
</g>
</g>
<!-- dir_4ab6b4cc6a7edbff49100e9123df213f&#45;&gt;dir_548839eeca1931d32df07653a7903e44 -->
<g id="edge2" class="edge"><title>dir_4ab6b4cc6a7edbff49100e9123df213f&#45;&gt;dir_548839eeca1931d32df07653a7903e44</title>
<path fill="none" stroke="black" d="M246.192,-42C205.493,-42 164.794,-42 124.095,-42"/>
<polygon fill="black" stroke="black" points="124.027,-38.5001 114.027,-42 124.027,-45.5001 124.027,-38.5001"/>
<g id="a_edge2&#45;headlabel"><a xlink:href="dir_000016_000074.html" target="_top" xlink:title="1">
<text text-anchor="middle" x="127.622" y="-33.1607" font-family="Helvetica,sans-Serif" font-size="10.00">1</text>
</a>
</g>
</g>
</g>
</svg>
