<?xml version="1.0" encoding="UTF-8" standalone="no"?>
<!DOCTYPE svg PUBLIC "-//W3C//DTD SVG 1.1//EN"
 "http://www.w3.org/Graphics/SVG/1.1/DTD/svg11.dtd">
<!-- Generated by graphviz version 2.36.0 (20140111.2315)
 -->
<!-- Title: /home/travis/build/AliceO2Group/AliceO2/Detectors/ITSMFT/MFT/macros Pages: 1 -->
<!--zoomable 511 -->
<svg id="main" version="1.1" xmlns="http://www.w3.org/2000/svg" xmlns:xlink="http://www.w3.org/1999/xlink" xml:space="preserve" onload="init(evt)">
<style type="text/css"><![CDATA[
.edge:hover path { stroke: red; }
.edge:hover polygon { stroke: red; fill: red; }
]]></style>
<script type="text/javascript"><![CDATA[
var edges = document.getElementsByTagName('g');
if (edges && edges.length) {
  for (var i=0;i<edges.length;i++) {
    if (edges[i].id.substr(0,4)=='edge') {
      edges[i].setAttribute('class','edge');
    }
  }
}
]]></script>
        <defs>
                <circle id="rim" cx="0" cy="0" r="7"/>
                <circle id="rim2" cx="0" cy="0" r="3.5"/>
                <g id="zoomPlus">
                        <use xlink:href="#rim" fill="#404040">
                                <set attributeName="fill" to="#808080" begin="zoomplus.mouseover" end="zoomplus.mouseout"/>
                        </use>
                        <path d="M-4,0h8M0,-4v8" fill="none" stroke="white" stroke-width="1.5" pointer-events="none"/>
                </g>
                <g id="zoomMin">
                        <use xlink:href="#rim" fill="#404040">
                                <set attributeName="fill" to="#808080" begin="zoomminus.mouseover" end="zoomminus.mouseout"/>
                        </use>
                        <path d="M-4,0h8" fill="none" stroke="white" stroke-width="1.5" pointer-events="none"/>
                </g>
                <g id="dirArrow">
                        <path fill="none" stroke="white" stroke-width="1.5" d="M0,-3.0v7 M-2.5,-0.5L0,-3.0L2.5,-0.5"/>
                </g>
               <g id="resetDef">
                       <use xlink:href="#rim2" fill="#404040">
                               <set attributeName="fill" to="#808080" begin="reset.mouseover" end="reset.mouseout"/>
                       </use>
               </g>
        </defs>

<script type="text/javascript">
var viewWidth = 372;
var viewHeight = 511;
var sectionId = 'dynsection-0';
</script>
<script xlink:href="svgpan.js"/>
<svg id="graph" class="graph">
<g id="viewport">
<title>/home/travis/build/AliceO2Group/AliceO2/Detectors/ITSMFT/MFT/macros</title>
<g id="clust1" class="cluster"><title>clusterdir_f39d1cd569ca2d16022b762a0e4a53c8</title>
<g id="a_clust1"><a xlink:href="dir_f39d1cd569ca2d16022b762a0e4a53c8.html" target="_top" xlink:title="MFT">
<polygon fill="#ddddee" stroke="black" points="131,-424 131,-495 201,-495 201,-424 131,-424"/>
<text text-anchor="middle" x="166" y="-483" font-family="Helvetica,sans-Serif" font-size="10.00">MFT</text>
</a>
</g>
</g>
<!-- dir_5b6015b386f827cc0d1582f414a67114 -->
<g id="node1" class="node"><title>dir_5b6015b386f827cc0d1582f414a67114</title>
<g id="a_node1"><a xlink:href="dir_5b6015b386f827cc0d1582f414a67114.html" target="_top" xlink:title="macros">
<polygon fill="#eeeeff" stroke="black" points="193,-468 139,-468 139,-432 193,-432 193,-468"/>
<text text-anchor="middle" x="166" y="-447.5" font-family="Helvetica,sans-Serif" font-size="10.00">macros</text>
</a>
</g>
</g>
<!-- dir_3d8e691f27a9a1a3f5b37028248bc44b -->
<g id="node2" class="node"><title>dir_3d8e691f27a9a1a3f5b37028248bc44b</title>
<g id="a_node2"><a xlink:href="dir_3d8e691f27a9a1a3f5b37028248bc44b.html" target="_top" xlink:title="reconstruction">
<polygon fill="none" stroke="red" points="272,-396 194,-396 194,-360 272,-360 272,-396"/>
<text text-anchor="middle" x="233" y="-375.5" font-family="Helvetica,sans-Serif" font-size="10.00">reconstruction</text>
</a>
</g>
</g>
<!-- dir_5b6015b386f827cc0d1582f414a67114&#45;&gt;dir_3d8e691f27a9a1a3f5b37028248bc44b -->
<g id="edge15" class="edge"><title>dir_5b6015b386f827cc0d1582f414a67114&#45;&gt;dir_3d8e691f27a9a1a3f5b37028248bc44b</title>
<path fill="none" stroke="black" d="M182.562,-431.697C190.675,-423.22 200.588,-412.864 209.471,-403.583"/>
<polygon fill="black" stroke="black" points="212.243,-405.749 216.629,-396.104 207.186,-400.908 212.243,-405.749"/>
<g id="a_edge15&#45;headlabel"><a xlink:href="dir_000179_000122.html" target="_top" xlink:title="1">
<text text-anchor="middle" x="211.808" y="-407.809" font-family="Helvetica,sans-Serif" font-size="10.00">1</text>
</a>
</g>
</g>
<!-- dir_4ab6b4cc6a7edbff49100e9123df213f -->
<g id="node3" class="node"><title>dir_4ab6b4cc6a7edbff49100e9123df213f</title>
<g id="a_node3"><a xlink:href="dir_4ab6b4cc6a7edbff49100e9123df213f.html" target="_top" xlink:title="Common">
<polygon fill="none" stroke="red" points="161.5,-108 106.5,-108 106.5,-72 161.5,-72 161.5,-108"/>
<text text-anchor="middle" x="134" y="-87.5" font-family="Helvetica,sans-Serif" font-size="10.00">Common</text>
</a>
</g>
</g>
<!-- dir_5b6015b386f827cc0d1582f414a67114&#45;&gt;dir_4ab6b4cc6a7edbff49100e9123df213f -->
<g id="edge16" class="edge"><title>dir_5b6015b386f827cc0d1582f414a67114&#45;&gt;dir_4ab6b4cc6a7edbff49100e9123df213f</title>
<path fill="none" stroke="black" d="M138.854,-434.682C101.281,-412.675 38,-366.742 38,-307 38,-307 38,-307 38,-233 38,-184.855 76.3433,-140.848 104.565,-114.978"/>
<polygon fill="black" stroke="black" points="107.069,-117.435 112.216,-108.174 102.418,-112.204 107.069,-117.435"/>
<g id="a_edge16&#45;headlabel"><a xlink:href="dir_000179_000016.html" target="_top" xlink:title="2">
<text text-anchor="middle" x="106.27" y="-119.445" font-family="Helvetica,sans-Serif" font-size="10.00">2</text>
</a>
</g>
</g>
<!-- dir_a336bf94aab96007822cb34c9e2cb8a5 -->
<g id="node4" class="node"><title>dir_a336bf94aab96007822cb34c9e2cb8a5</title>
<g id="a_node4"><a xlink:href="dir_a336bf94aab96007822cb34c9e2cb8a5.html" target="_top" xlink:title="simulation">
<polygon fill="none" stroke="red" points="144.25,-324 83.75,-324 83.75,-288 144.25,-288 144.25,-324"/>
<text text-anchor="middle" x="114" y="-303.5" font-family="Helvetica,sans-Serif" font-size="10.00">simulation</text>
</a>
</g>
</g>
<!-- dir_5b6015b386f827cc0d1582f414a67114&#45;&gt;dir_a336bf94aab96007822cb34c9e2cb8a5 -->
<g id="edge17" class="edge"><title>dir_5b6015b386f827cc0d1582f414a67114&#45;&gt;dir_a336bf94aab96007822cb34c9e2cb8a5</title>
<path fill="none" stroke="black" d="M159.728,-431.871C150.787,-407.457 134.297,-362.426 123.754,-333.635"/>
<polygon fill="black" stroke="black" points="127.02,-332.376 120.295,-324.189 120.447,-334.783 127.02,-332.376"/>
<g id="a_edge17&#45;headlabel"><a xlink:href="dir_000179_000100.html" target="_top" xlink:title="2">
<text text-anchor="middle" x="130.922" y="-332.275" font-family="Helvetica,sans-Serif" font-size="10.00">2</text>
</a>
</g>
</g>
<!-- dir_37c90836491b695b472bf98d1be8336b -->
<g id="node5" class="node"><title>dir_37c90836491b695b472bf98d1be8336b</title>
<g id="a_node5"><a xlink:href="dir_37c90836491b695b472bf98d1be8336b.html" target="_top" xlink:title="Base">
<polygon fill="none" stroke="red" points="161,-36 107,-36 107,-0 161,-0 161,-36"/>
<text text-anchor="middle" x="134" y="-15.5" font-family="Helvetica,sans-Serif" font-size="10.00">Base</text>
</a>
</g>
</g>
<!-- dir_5b6015b386f827cc0d1582f414a67114&#45;&gt;dir_37c90836491b695b472bf98d1be8336b -->
<g id="edge18" class="edge"><title>dir_5b6015b386f827cc0d1582f414a67114&#45;&gt;dir_37c90836491b695b472bf98d1be8336b</title>
<path fill="none" stroke="black" d="M138.735,-441.291C114.065,-433.223 77.8901,-418.551 53,-396 18.8823,-365.089 0,-353.038 0,-307 0,-307 0,-307 0,-161 0,-103.767 58.2928,-60.2581 97.9831,-37.2674"/>
<polygon fill="black" stroke="black" points="99.8762,-40.2185 106.883,-32.2715 96.4498,-34.1144 99.8762,-40.2185"/>
<g id="a_edge18&#45;headlabel"><a xlink:href="dir_000179_000073.html" target="_top" xlink:title="2">
<text text-anchor="middle" x="98.1315" y="-41.9538" font-family="Helvetica,sans-Serif" font-size="10.00">2</text>
</a>
</g>
</g>
<!-- dir_85bf31a2e8d306e7598ffcb73f8df6bf -->
<g id="node6" class="node"><title>dir_85bf31a2e8d306e7598ffcb73f8df6bf</title>
<g id="a_node6"><a xlink:href="dir_85bf31a2e8d306e7598ffcb73f8df6bf.html" target="_top" xlink:title="common">
<polygon fill="none" stroke="red" points="234,-252 180,-252 180,-216 234,-216 234,-252"/>
<text text-anchor="middle" x="207" y="-231.5" font-family="Helvetica,sans-Serif" font-size="10.00">common</text>
</a>
</g>
</g>
<!-- dir_5b6015b386f827cc0d1582f414a67114&#45;&gt;dir_85bf31a2e8d306e7598ffcb73f8df6bf -->
<g id="edge19" class="edge"><title>dir_5b6015b386f827cc0d1582f414a67114&#45;&gt;dir_85bf31a2e8d306e7598ffcb73f8df6bf</title>
<path fill="none" stroke="black" d="M169.286,-431.849C176.393,-394.753 193.242,-306.81 201.807,-262.103"/>
<polygon fill="black" stroke="black" points="205.254,-262.712 203.698,-252.232 198.379,-261.395 205.254,-262.712"/>
<g id="a_edge19&#45;headlabel"><a xlink:href="dir_000179_000137.html" target="_top" xlink:title="5">
<text text-anchor="middle" x="207.366" y="-264.277" font-family="Helvetica,sans-Serif" font-size="10.00">5</text>
</a>
</g>
</g>
<!-- dir_f01815b857f9009bea48e2cb39492245 -->
<g id="node7" class="node"><title>dir_f01815b857f9009bea48e2cb39492245</title>
<g id="a_node7"><a xlink:href="dir_f01815b857f9009bea48e2cb39492245.html" target="_top" xlink:title="Passive">
<polygon fill="none" stroke="red" points="364,-180 310,-180 310,-144 364,-144 364,-180"/>
<text text-anchor="middle" x="337" y="-159.5" font-family="Helvetica,sans-Serif" font-size="10.00">Passive</text>
</a>
</g>
</g>
<!-- dir_5b6015b386f827cc0d1582f414a67114&#45;&gt;dir_f01815b857f9009bea48e2cb39492245 -->
<g id="edge20" class="edge"><title>dir_5b6015b386f827cc0d1582f414a67114&#45;&gt;dir_f01815b857f9009bea48e2cb39492245</title>
<path fill="none" stroke="black" d="M193.083,-446.48C224.649,-442.011 275.933,-429.703 303,-396 351.327,-335.825 346.866,-237.683 341.193,-190.301"/>
<polygon fill="black" stroke="black" points="344.638,-189.656 339.869,-180.195 337.697,-190.565 344.638,-189.656"/>
<g id="a_edge20&#45;headlabel"><a xlink:href="dir_000179_000197.html" target="_top" xlink:title="1">
<text text-anchor="middle" x="347.92" y="-190.351" font-family="Helvetica,sans-Serif" font-size="10.00">1</text>
</a>
</g>
</g>
<!-- dir_2171f7ec022c5423887b07c69b2f5b48 -->
<g id="node8" class="node"><title>dir_2171f7ec022c5423887b07c69b2f5b48</title>
<g id="a_node8"><a xlink:href="dir_2171f7ec022c5423887b07c69b2f5b48.html" target="_top" xlink:title="DataFormats">
<polygon fill="none" stroke="red" points="292,-180 218,-180 218,-144 292,-144 292,-180"/>
<text text-anchor="middle" x="255" y="-159.5" font-family="Helvetica,sans-Serif" font-size="10.00">DataFormats</text>
</a>
</g>
</g>
<!-- dir_5b6015b386f827cc0d1582f414a67114&#45;&gt;dir_2171f7ec022c5423887b07c69b2f5b48 -->
<g id="edge21" class="edge"><title>dir_5b6015b386f827cc0d1582f414a67114&#45;&gt;dir_2171f7ec022c5423887b07c69b2f5b48</title>
<path fill="none" stroke="black" d="M193.108,-444.994C220.593,-439.332 261.738,-426.086 281,-396 322.403,-331.33 288.663,-235.438 268.046,-189.462"/>
<polygon fill="black" stroke="black" points="271.128,-187.788 263.755,-180.18 264.774,-190.726 271.128,-187.788"/>
<g id="a_edge21&#45;headlabel"><a xlink:href="dir_000179_000043.html" target="_top" xlink:title="2">
<text text-anchor="middle" x="275.214" y="-187.36" font-family="Helvetica,sans-Serif" font-size="10.00">2</text>
</a>
</g>
</g>
<!-- dir_3d8e691f27a9a1a3f5b37028248bc44b&#45;&gt;dir_a336bf94aab96007822cb34c9e2cb8a5 -->
<g id="edge1" class="edge"><title>dir_3d8e691f27a9a1a3f5b37028248bc44b&#45;&gt;dir_a336bf94aab96007822cb34c9e2cb8a5</title>
<path fill="none" stroke="black" d="M203.889,-359.876C188.33,-350.724 168.981,-339.342 152.224,-329.485"/>
<polygon fill="black" stroke="black" points="153.617,-326.243 143.223,-324.19 150.067,-332.277 153.617,-326.243"/>
<g id="a_edge1&#45;headlabel"><a xlink:href="dir_000122_000100.html" target="_top" xlink:title="7">
<text text-anchor="middle" x="158.154" y="-323.118" font-family="Helvetica,sans-Serif" font-size="10.00">7</text>
</a>
</g>
</g>
<!-- dir_3d8e691f27a9a1a3f5b37028248bc44b&#45;&gt;dir_85bf31a2e8d306e7598ffcb73f8df6bf -->
<g id="edge2" class="edge"><title>dir_3d8e691f27a9a1a3f5b37028248bc44b&#45;&gt;dir_85bf31a2e8d306e7598ffcb73f8df6bf</title>
<path fill="none" stroke="black" d="M229.864,-359.871C225.433,-335.67 217.292,-291.211 212.016,-262.393"/>
<polygon fill="black" stroke="black" points="215.391,-261.395 210.147,-252.189 208.506,-262.656 215.391,-261.395"/>
<g id="a_edge2&#45;headlabel"><a xlink:href="dir_000122_000137.html" target="_top" xlink:title="5">
<text text-anchor="middle" x="218.831" y="-261.92" font-family="Helvetica,sans-Serif" font-size="10.00">5</text>
</a>
</g>
</g>
<!-- dir_3d8e691f27a9a1a3f5b37028248bc44b&#45;&gt;dir_2171f7ec022c5423887b07c69b2f5b48 -->
<g id="edge3" class="edge"><title>dir_3d8e691f27a9a1a3f5b37028248bc44b&#45;&gt;dir_2171f7ec022c5423887b07c69b2f5b48</title>
<path fill="none" stroke="black" d="M234.763,-359.849C238.569,-322.832 247.58,-235.181 252.185,-190.386"/>
<polygon fill="black" stroke="black" points="255.687,-190.538 253.228,-180.232 248.724,-189.822 255.687,-190.538"/>
<g id="a_edge3&#45;headlabel"><a xlink:href="dir_000122_000043.html" target="_top" xlink:title="2">
<text text-anchor="middle" x="258.144" y="-191.904" font-family="Helvetica,sans-Serif" font-size="10.00">2</text>
</a>
</g>
</g>
<!-- dir_4ab6b4cc6a7edbff49100e9123df213f&#45;&gt;dir_37c90836491b695b472bf98d1be8336b -->
<g id="edge4" class="edge"><title>dir_4ab6b4cc6a7edbff49100e9123df213f&#45;&gt;dir_37c90836491b695b472bf98d1be8336b</title>
<path fill="none" stroke="black" d="M128.084,-71.6966C127.289,-63.9827 127.062,-54.7125 127.405,-46.1124"/>
<polygon fill="black" stroke="black" points="130.898,-46.3243 128.105,-36.1043 123.915,-45.8356 130.898,-46.3243"/>
<g id="a_edge4&#45;headlabel"><a xlink:href="dir_000016_000073.html" target="_top" xlink:title="1">
<text text-anchor="middle" x="133.48" y="-47.6083" font-family="Helvetica,sans-Serif" font-size="10.00">1</text>
</a>
</g>
</g>
<!-- dir_a336bf94aab96007822cb34c9e2cb8a5&#45;&gt;dir_4ab6b4cc6a7edbff49100e9123df213f -->
<g id="edge5" class="edge"><title>dir_a336bf94aab96007822cb34c9e2cb8a5&#45;&gt;dir_4ab6b4cc6a7edbff49100e9123df213f</title>
<path fill="none" stroke="black" d="M115.603,-287.849C119.062,-250.832 127.254,-163.181 131.441,-118.386"/>
<polygon fill="black" stroke="black" points="134.944,-118.515 132.389,-108.232 127.974,-117.863 134.944,-118.515"/>
<g id="a_edge5&#45;headlabel"><a xlink:href="dir_000100_000016.html" target="_top" xlink:title="1">
<text text-anchor="middle" x="137.436" y="-119.858" font-family="Helvetica,sans-Serif" font-size="10.00">1</text>
</a>
</g>
</g>
<!-- dir_a336bf94aab96007822cb34c9e2cb8a5&#45;&gt;dir_37c90836491b695b472bf98d1be8336b -->
<g id="edge6" class="edge"><title>dir_a336bf94aab96007822cb34c9e2cb8a5&#45;&gt;dir_37c90836491b695b472bf98d1be8336b</title>
<path fill="none" stroke="black" d="M108.509,-287.833C96.8487,-248.559 72.601,-149.574 97,-72 100.099,-62.1483 105.751,-52.5302 111.721,-44.2511"/>
<polygon fill="black" stroke="black" points="114.629,-46.2111 117.963,-36.1544 109.086,-41.9371 114.629,-46.2111"/>
<g id="a_edge6&#45;headlabel"><a xlink:href="dir_000100_000073.html" target="_top" xlink:title="3">
<text text-anchor="middle" x="114.683" y="-48.2914" font-family="Helvetica,sans-Serif" font-size="10.00">3</text>
</a>
</g>
</g>
<!-- dir_a336bf94aab96007822cb34c9e2cb8a5&#45;&gt;dir_85bf31a2e8d306e7598ffcb73f8df6bf -->
<g id="edge7" class="edge"><title>dir_a336bf94aab96007822cb34c9e2cb8a5&#45;&gt;dir_85bf31a2e8d306e7598ffcb73f8df6bf</title>
<path fill="none" stroke="black" d="M136.989,-287.697C148.814,-278.796 163.392,-267.823 176.179,-258.199"/>
<polygon fill="black" stroke="black" points="178.391,-260.915 184.276,-252.104 174.181,-255.322 178.391,-260.915"/>
<g id="a_edge7&#45;headlabel"><a xlink:href="dir_000100_000137.html" target="_top" xlink:title="5">
<text text-anchor="middle" x="177.226" y="-262.845" font-family="Helvetica,sans-Serif" font-size="10.00">5</text>
</a>
</g>
</g>
<!-- dir_a336bf94aab96007822cb34c9e2cb8a5&#45;&gt;dir_2171f7ec022c5423887b07c69b2f5b48 -->
<g id="edge8" class="edge"><title>dir_a336bf94aab96007822cb34c9e2cb8a5&#45;&gt;dir_2171f7ec022c5423887b07c69b2f5b48</title>
<path fill="none" stroke="black" d="M122.169,-287.693C131.838,-268.514 149.39,-237.465 171,-216 182.842,-204.238 197.739,-193.793 211.686,-185.351"/>
<polygon fill="black" stroke="black" points="213.805,-188.166 220.673,-180.099 210.273,-182.123 213.805,-188.166"/>
<g id="a_edge8&#45;headlabel"><a xlink:href="dir_000100_000043.html" target="_top" xlink:title="1">
<text text-anchor="middle" x="212.134" y="-189.931" font-family="Helvetica,sans-Serif" font-size="10.00">1</text>
</a>
</g>
</g>
<!-- dir_37c90836491b695b472bf98d1be8336b&#45;&gt;dir_4ab6b4cc6a7edbff49100e9123df213f -->
<g id="edge9" class="edge"><title>dir_37c90836491b695b472bf98d1be8336b&#45;&gt;dir_4ab6b4cc6a7edbff49100e9123df213f</title>
<path fill="none" stroke="black" d="M139.895,-36.1043C140.701,-43.7913 140.937,-53.0537 140.604,-61.6651"/>
<polygon fill="black" stroke="black" points="137.109,-61.4805 139.916,-71.6966 144.092,-61.9597 137.109,-61.4805"/>
<g id="a_edge9&#45;headlabel"><a xlink:href="dir_000073_000016.html" target="_top" xlink:title="8">
<text text-anchor="middle" x="134.522" y="-55.2" font-family="Helvetica,sans-Serif" font-size="10.00">8</text>
</a>
</g>
</g>
<!-- dir_85bf31a2e8d306e7598ffcb73f8df6bf&#45;&gt;dir_4ab6b4cc6a7edbff49100e9123df213f -->
<g id="edge10" class="edge"><title>dir_85bf31a2e8d306e7598ffcb73f8df6bf&#45;&gt;dir_4ab6b4cc6a7edbff49100e9123df213f</title>
<path fill="none" stroke="black" d="M196.272,-215.553C190.112,-205.32 182.362,-192.07 176,-180 165.111,-159.34 153.876,-135.37 145.769,-117.514"/>
<polygon fill="black" stroke="black" points="148.909,-115.962 141.609,-108.283 142.527,-118.838 148.909,-115.962"/>
<g id="a_edge10&#45;headlabel"><a xlink:href="dir_000137_000016.html" target="_top" xlink:title="2">
<text text-anchor="middle" x="152.974" y="-115.572" font-family="Helvetica,sans-Serif" font-size="10.00">2</text>
</a>
</g>
</g>
<!-- dir_85bf31a2e8d306e7598ffcb73f8df6bf&#45;&gt;dir_37c90836491b695b472bf98d1be8336b -->
<g id="edge11" class="edge"><title>dir_85bf31a2e8d306e7598ffcb73f8df6bf&#45;&gt;dir_37c90836491b695b472bf98d1be8336b</title>
<path fill="none" stroke="black" d="M205.176,-215.898C201.51,-185.762 191.67,-121.685 170,-72 165.841,-62.4654 159.917,-52.8243 154.072,-44.4269"/>
<polygon fill="black" stroke="black" points="156.794,-42.2188 148.087,-36.1826 151.13,-46.3312 156.794,-42.2188"/>
<g id="a_edge11&#45;headlabel"><a xlink:href="dir_000137_000073.html" target="_top" xlink:title="2">
<text text-anchor="middle" x="161.204" y="-40.9597" font-family="Helvetica,sans-Serif" font-size="10.00">2</text>
</a>
</g>
</g>
<!-- dir_85bf31a2e8d306e7598ffcb73f8df6bf&#45;&gt;dir_2171f7ec022c5423887b07c69b2f5b48 -->
<g id="edge12" class="edge"><title>dir_85bf31a2e8d306e7598ffcb73f8df6bf&#45;&gt;dir_2171f7ec022c5423887b07c69b2f5b48</title>
<path fill="none" stroke="black" d="M218.865,-215.697C224.503,-207.474 231.354,-197.483 237.569,-188.421"/>
<polygon fill="black" stroke="black" points="240.503,-190.331 243.271,-180.104 234.729,-186.372 240.503,-190.331"/>
<g id="a_edge12&#45;headlabel"><a xlink:href="dir_000137_000043.html" target="_top" xlink:title="8">
<text text-anchor="middle" x="240.811" y="-192.401" font-family="Helvetica,sans-Serif" font-size="10.00">8</text>
</a>
</g>
</g>
<!-- dir_f01815b857f9009bea48e2cb39492245&#45;&gt;dir_4ab6b4cc6a7edbff49100e9123df213f -->
<g id="edge13" class="edge"><title>dir_f01815b857f9009bea48e2cb39492245&#45;&gt;dir_4ab6b4cc6a7edbff49100e9123df213f</title>
<path fill="none" stroke="black" d="M309.649,-147.621C306.752,-146.344 303.831,-145.112 301,-144 257.381,-126.868 205.78,-111.161 171.601,-101.369"/>
<polygon fill="black" stroke="black" points="172.157,-97.8888 161.582,-98.525 170.246,-104.623 172.157,-97.8888"/>
<g id="a_edge13&#45;headlabel"><a xlink:href="dir_000197_000016.html" target="_top" xlink:title="1">
<text text-anchor="middle" x="176.391" y="-93.6389" font-family="Helvetica,sans-Serif" font-size="10.00">1</text>
</a>
</g>
</g>
<!-- dir_f01815b857f9009bea48e2cb39492245&#45;&gt;dir_37c90836491b695b472bf98d1be8336b -->
<g id="edge14" class="edge"><title>dir_f01815b857f9009bea48e2cb39492245&#45;&gt;dir_37c90836491b695b472bf98d1be8336b</title>
<path fill="none" stroke="black" d="M318.751,-143.735C298.311,-124.871 263.74,-94.3627 231,-72 211.75,-58.8517 188.928,-46.2478 170.258,-36.6321"/>
<polygon fill="black" stroke="black" points="171.689,-33.4334 161.188,-32.0261 168.52,-39.6747 171.689,-33.4334"/>
<g id="a_edge14&#45;headlabel"><a xlink:href="dir_000197_000073.html" target="_top" xlink:title="16">
<text text-anchor="middle" x="176.18" y="-30.0294" font-family="Helvetica,sans-Serif" font-size="10.00">16</text>
</a>
</g>
</g>
<!-- dir_2171f7ec022c5423887b07c69b2f5b48&#45;&gt;dir_4ab6b4cc6a7edbff49100e9123df213f -->
<g id="edge22" class="edge"><title>dir_2171f7ec022c5423887b07c69b2f5b48&#45;&gt;dir_4ab6b4cc6a7edbff49100e9123df213f</title>
<path fill="none" stroke="black" d="M225.4,-143.876C208.837,-134.294 188.05,-122.269 170.487,-112.108"/>
<polygon fill="black" stroke="black" points="172.044,-108.965 161.635,-106.987 168.539,-115.025 172.044,-108.965"/>
<g id="a_edge22&#45;headlabel"><a xlink:href="dir_000043_000016.html" target="_top" xlink:title="4">
<text text-anchor="middle" x="176.577" y="-105.808" font-family="Helvetica,sans-Serif" font-size="10.00">4</text>
</a>
</g>
</g>
<!-- dir_2171f7ec022c5423887b07c69b2f5b48&#45;&gt;dir_37c90836491b695b472bf98d1be8336b -->
<g id="edge23" class="edge"><title>dir_2171f7ec022c5423887b07c69b2f5b48&#45;&gt;dir_37c90836491b695b472bf98d1be8336b</title>
<path fill="none" stroke="black" d="M247.762,-143.964C239.174,-125.028 223.527,-94.1947 204,-72 194.034,-60.6728 181.311,-50.1819 169.452,-41.5739"/>
<polygon fill="black" stroke="black" points="171.217,-38.5362 161.021,-35.6536 167.194,-44.2649 171.217,-38.5362"/>
<g id="a_edge23&#45;headlabel"><a xlink:href="dir_000043_000073.html" target="_top" xlink:title="6">
<text text-anchor="middle" x="175.79" y="-35.7784" font-family="Helvetica,sans-Serif" font-size="10.00">6</text>
</a>
</g>
</g>
</g>
</svg>
        <g id="navigator" transform="translate(0 0)" fill="#404254">
                <rect fill="#f2f5e9" fill-opacity="0.5" stroke="#606060" stroke-width=".5" x="0" y="0" width="60" height="60"/>
                <use id="zoomplus" xlink:href="#zoomPlus" x="17" y="9" onmousedown="handleZoom(evt,'in')"/>
                <use id="zoomminus" xlink:href="#zoomMin" x="42" y="9" onmousedown="handleZoom(evt,'out')"/>
                <use id="reset" xlink:href="#resetDef" x="30" y="36" onmousedown="handleReset()"/>
                <g id="arrowUp" xlink:href="#dirArrow" transform="translate(30 24)" onmousedown="handlePan(0,-1)">
                  <use xlink:href="#rim" fill="#404040">
                        <set attributeName="fill" to="#808080" begin="arrowUp.mouseover" end="arrowUp.mouseout"/>
                  </use>
                  <path fill="none" stroke="white" stroke-width="1.5" d="M0,-3.0v7 M-2.5,-0.5L0,-3.0L2.5,-0.5"/>
                </g>
                <g id="arrowRight" xlink:href="#dirArrow" transform="rotate(90) translate(36 -43)" onmousedown="handlePan(1,0)">
                  <use xlink:href="#rim" fill="#404040">
                        <set attributeName="fill" to="#808080" begin="arrowRight.mouseover" end="arrowRight.mouseout"/>
                  </use>
                  <path fill="none" stroke="white" stroke-width="1.5" d="M0,-3.0v7 M-2.5,-0.5L0,-3.0L2.5,-0.5"/>
                </g>
                <g id="arrowDown" xlink:href="#dirArrow" transform="rotate(180) translate(-30 -48)" onmousedown="handlePan(0,1)">
                  <use xlink:href="#rim" fill="#404040">
                        <set attributeName="fill" to="#808080" begin="arrowDown.mouseover" end="arrowDown.mouseout"/>
                  </use>
                  <path fill="none" stroke="white" stroke-width="1.5" d="M0,-3.0v7 M-2.5,-0.5L0,-3.0L2.5,-0.5"/>
                </g>
                <g id="arrowLeft" xlink:href="#dirArrow" transform="rotate(270) translate(-36 17)" onmousedown="handlePan(-1,0)">
                  <use xlink:href="#rim" fill="#404040">
                        <set attributeName="fill" to="#808080" begin="arrowLeft.mouseover" end="arrowLeft.mouseout"/>
                  </use>
                  <path fill="none" stroke="white" stroke-width="1.5" d="M0,-3.0v7 M-2.5,-0.5L0,-3.0L2.5,-0.5"/>
                </g>
        </g>
        <svg viewBox="0 0 15 15" width="100%" height="30px" preserveAspectRatio="xMaxYMin meet">
         <g id="arrow_out" transform="scale(0.3 0.3)">
          <a xlink:href="dir_5b6015b386f827cc0d1582f414a67114_dep_org.svg" target="_base">
           <rect id="button" ry="5" rx="5" y="6" x="6" height="38" width="38"
                fill="#f2f5e9" fill-opacity="0.5" stroke="#606060" stroke-width="1.0"/>
           <path id="arrow"
             d="M 11.500037,31.436501 C 11.940474,20.09759 22.043105,11.32322 32.158766,21.979434 L 37.068811,17.246167 C 37.068811,17.246167 37.088388,32 37.088388,32 L 22.160133,31.978069 C 22.160133,31.978069 26.997745,27.140456 26.997745,27.140456 C 18.528582,18.264221 13.291696,25.230495 11.500037,31.436501 z"
             style="fill:#404040;"/>
          </a>
         </g>
        </svg>
</svg>
