<?xml version="1.0" encoding="UTF-8" standalone="no"?>
<!DOCTYPE svg PUBLIC "-//W3C//DTD SVG 1.1//EN"
 "http://www.w3.org/Graphics/SVG/1.1/DTD/svg11.dtd">
<!-- Generated by graphviz version 2.36.0 (20140111.2315)
 -->
<!-- Title: /home/travis/build/AliceO2Group/AliceO2/Detectors/ITSMFT/ITS Pages: 1 -->
<svg width="500pt" height="447pt"
 viewBox="0.00 0.00 500.00 447.00" xmlns="http://www.w3.org/2000/svg" xmlns:xlink="http://www.w3.org/1999/xlink">
<g id="graph0" class="graph" transform="scale(1 1) rotate(0) translate(4 443)">
<title>/home/travis/build/AliceO2Group/AliceO2/Detectors/ITSMFT/ITS</title>
<g id="clust1" class="cluster"><title>clusterdir_1306292b77b40360479b729ac9ee7efe</title>
<g id="a_clust1"><a xlink:href="dir_1306292b77b40360479b729ac9ee7efe.html" target="_top" xlink:title="ITSMFT">
<polygon fill="#ddddee" stroke="black" points="128,-200 128,-431 338,-431 338,-200 128,-200"/>
<text text-anchor="middle" x="233" y="-419" font-family="Helvetica,sans-Serif" font-size="10.00">ITSMFT</text>
</a>
</g>
</g>
<g id="clust2" class="cluster"><title>clusterdir_871aad07cbf94d6cd423c3d8d5bdf4e9</title>
<g id="a_clust2"><a xlink:href="dir_871aad07cbf94d6cd423c3d8d5bdf4e9.html" target="_top">
<polygon fill="#eeeeff" stroke="black" points="136,-208 136,-404 330,-404 330,-208 136,-208"/>
</a>
</g>
</g>
<!-- dir_871aad07cbf94d6cd423c3d8d5bdf4e9 -->
<g id="node1" class="node"><title>dir_871aad07cbf94d6cd423c3d8d5bdf4e9</title>
<text text-anchor="middle" x="295" y="-375.5" font-family="Helvetica,sans-Serif" font-size="10.00">ITS</text>
</g>
<!-- dir_eedff867f3c4e67d20b227cb6e0f96ab -->
<g id="node2" class="node"><title>dir_eedff867f3c4e67d20b227cb6e0f96ab</title>
<g id="a_node2"><a xlink:href="dir_eedff867f3c4e67d20b227cb6e0f96ab.html" target="_top" xlink:title="base">
<polygon fill="white" stroke="red" points="230,-252 176,-252 176,-216 230,-216 230,-252"/>
<text text-anchor="middle" x="203" y="-231.5" font-family="Helvetica,sans-Serif" font-size="10.00">base</text>
</a>
</g>
</g>
<!-- dir_4ab6b4cc6a7edbff49100e9123df213f -->
<g id="node6" class="node"><title>dir_4ab6b4cc6a7edbff49100e9123df213f</title>
<g id="a_node6"><a xlink:href="dir_4ab6b4cc6a7edbff49100e9123df213f.html" target="_top" xlink:title="Common">
<polygon fill="none" stroke="red" points="305.5,-108 250.5,-108 250.5,-72 305.5,-72 305.5,-108"/>
<text text-anchor="middle" x="278" y="-87.5" font-family="Helvetica,sans-Serif" font-size="10.00">Common</text>
</a>
</g>
</g>
<!-- dir_eedff867f3c4e67d20b227cb6e0f96ab&#45;&gt;dir_4ab6b4cc6a7edbff49100e9123df213f -->
<g id="edge1" class="edge"><title>dir_eedff867f3c4e67d20b227cb6e0f96ab&#45;&gt;dir_4ab6b4cc6a7edbff49100e9123df213f</title>
<path fill="none" stroke="black" d="M212.047,-215.871C224.998,-191.35 248.934,-146.032 264.131,-117.259"/>
<polygon fill="black" stroke="black" points="267.346,-118.666 268.921,-108.189 261.156,-115.397 267.346,-118.666"/>
<g id="a_edge1&#45;headlabel"><a xlink:href="dir_000164_000016.html" target="_top" xlink:title="1">
<text text-anchor="middle" x="268.178" y="-120.671" font-family="Helvetica,sans-Serif" font-size="10.00">1</text>
</a>
</g>
</g>
<!-- dir_37c90836491b695b472bf98d1be8336b -->
<g id="node8" class="node"><title>dir_37c90836491b695b472bf98d1be8336b</title>
<g id="a_node8"><a xlink:href="dir_37c90836491b695b472bf98d1be8336b.html" target="_top" xlink:title="Base">
<polygon fill="none" stroke="red" points="230,-36 176,-36 176,-0 230,-0 230,-36"/>
<text text-anchor="middle" x="203" y="-15.5" font-family="Helvetica,sans-Serif" font-size="10.00">Base</text>
</a>
</g>
</g>
<!-- dir_eedff867f3c4e67d20b227cb6e0f96ab&#45;&gt;dir_37c90836491b695b472bf98d1be8336b -->
<g id="edge2" class="edge"><title>dir_eedff867f3c4e67d20b227cb6e0f96ab&#45;&gt;dir_37c90836491b695b472bf98d1be8336b</title>
<path fill="none" stroke="black" d="M203,-215.849C203,-178.832 203,-91.1809 203,-46.3863"/>
<polygon fill="black" stroke="black" points="206.5,-46.2324 203,-36.2325 199.5,-46.2325 206.5,-46.2324"/>
<g id="a_edge2&#45;headlabel"><a xlink:href="dir_000164_000073.html" target="_top" xlink:title="4">
<text text-anchor="middle" x="209.339" y="-47.3271" font-family="Helvetica,sans-Serif" font-size="10.00">4</text>
</a>
</g>
</g>
<!-- dir_85bf31a2e8d306e7598ffcb73f8df6bf -->
<g id="node9" class="node"><title>dir_85bf31a2e8d306e7598ffcb73f8df6bf</title>
<g id="a_node9"><a xlink:href="dir_85bf31a2e8d306e7598ffcb73f8df6bf.html" target="_top" xlink:title="common">
<polygon fill="none" stroke="red" points="120,-252 66,-252 66,-216 120,-216 120,-252"/>
<text text-anchor="middle" x="93" y="-231.5" font-family="Helvetica,sans-Serif" font-size="10.00">common</text>
</a>
</g>
</g>
<!-- dir_eedff867f3c4e67d20b227cb6e0f96ab&#45;&gt;dir_85bf31a2e8d306e7598ffcb73f8df6bf -->
<g id="edge3" class="edge"><title>dir_eedff867f3c4e67d20b227cb6e0f96ab&#45;&gt;dir_85bf31a2e8d306e7598ffcb73f8df6bf</title>
<path fill="none" stroke="black" d="M175.789,-234C160.553,-234 145.318,-234 130.082,-234"/>
<polygon fill="black" stroke="black" points="130.07,-230.5 120.07,-234 130.07,-237.5 130.07,-230.5"/>
<g id="a_edge3&#45;headlabel"><a xlink:href="dir_000164_000137.html" target="_top" xlink:title="2">
<text text-anchor="middle" x="133.665" y="-225.161" font-family="Helvetica,sans-Serif" font-size="10.00">2</text>
</a>
</g>
</g>
<!-- dir_d1915fc52ae3a2d414030e7b83b60b4d -->
<g id="node3" class="node"><title>dir_d1915fc52ae3a2d414030e7b83b60b4d</title>
<g id="a_node3"><a xlink:href="dir_d1915fc52ae3a2d414030e7b83b60b4d.html" target="_top" xlink:title="macros">
<polygon fill="white" stroke="red" points="250,-396 196,-396 196,-360 250,-360 250,-396"/>
<text text-anchor="middle" x="223" y="-375.5" font-family="Helvetica,sans-Serif" font-size="10.00">macros</text>
</a>
</g>
</g>
<!-- dir_d1915fc52ae3a2d414030e7b83b60b4d&#45;&gt;dir_eedff867f3c4e67d20b227cb6e0f96ab -->
<g id="edge21" class="edge"><title>dir_d1915fc52ae3a2d414030e7b83b60b4d&#45;&gt;dir_eedff867f3c4e67d20b227cb6e0f96ab</title>
<path fill="none" stroke="black" d="M221.799,-359.871C220.415,-341.901 217.827,-312.866 214,-288 212.693,-279.51 210.917,-270.326 209.174,-262.026"/>
<polygon fill="black" stroke="black" points="212.562,-261.134 207.021,-252.104 205.721,-262.619 212.562,-261.134"/>
<g id="a_edge21&#45;headlabel"><a xlink:href="dir_000177_000164.html" target="_top" xlink:title="4">
<text text-anchor="middle" x="216.099" y="-261.545" font-family="Helvetica,sans-Serif" font-size="10.00">4</text>
</a>
</g>
</g>
<!-- dir_5125ceb2b58f632ed0a3019fe2d5cbbc -->
<g id="node4" class="node"><title>dir_5125ceb2b58f632ed0a3019fe2d5cbbc</title>
<g id="a_node4"><a xlink:href="dir_5125ceb2b58f632ed0a3019fe2d5cbbc.html" target="_top" xlink:title="reconstruction">
<polygon fill="white" stroke="red" points="322,-324 244,-324 244,-288 322,-288 322,-324"/>
<text text-anchor="middle" x="283" y="-303.5" font-family="Helvetica,sans-Serif" font-size="10.00">reconstruction</text>
</a>
</g>
</g>
<!-- dir_d1915fc52ae3a2d414030e7b83b60b4d&#45;&gt;dir_5125ceb2b58f632ed0a3019fe2d5cbbc -->
<g id="edge26" class="edge"><title>dir_d1915fc52ae3a2d414030e7b83b60b4d&#45;&gt;dir_5125ceb2b58f632ed0a3019fe2d5cbbc</title>
<path fill="none" stroke="black" d="M237.831,-359.697C245.025,-351.305 253.797,-341.07 261.69,-331.861"/>
<polygon fill="black" stroke="black" points="264.489,-333.975 268.339,-324.104 259.174,-329.419 264.489,-333.975"/>
<g id="a_edge26&#45;headlabel"><a xlink:href="dir_000177_000180.html" target="_top" xlink:title="2">
<text text-anchor="middle" x="264.305" y="-336.052" font-family="Helvetica,sans-Serif" font-size="10.00">2</text>
</a>
</g>
</g>
<!-- dir_d1915fc52ae3a2d414030e7b83b60b4d&#45;&gt;dir_4ab6b4cc6a7edbff49100e9123df213f -->
<g id="edge22" class="edge"><title>dir_d1915fc52ae3a2d414030e7b83b60b4d&#45;&gt;dir_4ab6b4cc6a7edbff49100e9123df213f</title>
<path fill="none" stroke="black" d="M250.145,-364.11C281.748,-349.04 329.816,-325.9 331,-324 372.464,-257.464 323.828,-162.19 295.521,-116.865"/>
<polygon fill="black" stroke="black" points="298.335,-114.77 289.996,-108.235 292.44,-118.544 298.335,-114.77"/>
<g id="a_edge22&#45;headlabel"><a xlink:href="dir_000177_000016.html" target="_top" xlink:title="2">
<text text-anchor="middle" x="302.664" y="-113.767" font-family="Helvetica,sans-Serif" font-size="10.00">2</text>
</a>
</g>
</g>
<!-- dir_a597e8e061b11201a1dff411feb10d0b -->
<g id="node7" class="node"><title>dir_a597e8e061b11201a1dff411feb10d0b</title>
<g id="a_node7"><a xlink:href="dir_a597e8e061b11201a1dff411feb10d0b.html" target="_top" xlink:title="TPC">
<polygon fill="none" stroke="red" points="492,-252 438,-252 438,-216 492,-216 492,-252"/>
<text text-anchor="middle" x="465" y="-231.5" font-family="Helvetica,sans-Serif" font-size="10.00">TPC</text>
</a>
</g>
</g>
<!-- dir_d1915fc52ae3a2d414030e7b83b60b4d&#45;&gt;dir_a597e8e061b11201a1dff411feb10d0b -->
<g id="edge23" class="edge"><title>dir_d1915fc52ae3a2d414030e7b83b60b4d&#45;&gt;dir_a597e8e061b11201a1dff411feb10d0b</title>
<path fill="none" stroke="black" d="M250.252,-363.35C253.168,-362.125 256.121,-360.98 259,-360 330.057,-335.82 365.493,-371.019 424,-324 443.197,-308.573 453.793,-282.133 459.378,-262.069"/>
<polygon fill="black" stroke="black" points="462.802,-262.803 461.86,-252.25 456.016,-261.087 462.802,-262.803"/>
<g id="a_edge23&#45;headlabel"><a xlink:href="dir_000177_000085.html" target="_top" xlink:title="1">
<text text-anchor="middle" x="464.674" y="-264.484" font-family="Helvetica,sans-Serif" font-size="10.00">1</text>
</a>
</g>
</g>
<!-- dir_d1915fc52ae3a2d414030e7b83b60b4d&#45;&gt;dir_37c90836491b695b472bf98d1be8336b -->
<g id="edge24" class="edge"><title>dir_d1915fc52ae3a2d414030e7b83b60b4d&#45;&gt;dir_37c90836491b695b472bf98d1be8336b</title>
<path fill="none" stroke="black" d="M195.656,-372.766C136.108,-361.831 0,-326.796 0,-235 0,-235 0,-235 0,-161 0,-81.07 106.98,-42.3562 165.617,-27.1399"/>
<polygon fill="black" stroke="black" points="166.764,-30.4613 175.623,-24.6494 165.073,-23.6685 166.764,-30.4613"/>
<g id="a_edge24&#45;headlabel"><a xlink:href="dir_000177_000073.html" target="_top" xlink:title="3">
<text text-anchor="middle" x="163.962" y="-31.5847" font-family="Helvetica,sans-Serif" font-size="10.00">3</text>
</a>
</g>
</g>
<!-- dir_d1915fc52ae3a2d414030e7b83b60b4d&#45;&gt;dir_85bf31a2e8d306e7598ffcb73f8df6bf -->
<g id="edge25" class="edge"><title>dir_d1915fc52ae3a2d414030e7b83b60b4d&#45;&gt;dir_85bf31a2e8d306e7598ffcb73f8df6bf</title>
<path fill="none" stroke="black" d="M195.887,-365.819C176.843,-356.841 151.86,-342.658 135,-324 118.785,-306.055 107.66,-280.743 100.954,-261.697"/>
<polygon fill="black" stroke="black" points="104.243,-260.497 97.763,-252.115 97.6021,-262.709 104.243,-260.497"/>
<g id="a_edge25&#45;headlabel"><a xlink:href="dir_000177_000137.html" target="_top" xlink:title="11">
<text text-anchor="middle" x="108.073" y="-260.51" font-family="Helvetica,sans-Serif" font-size="10.00">11</text>
</a>
</g>
</g>
<!-- dir_2171f7ec022c5423887b07c69b2f5b48 -->
<g id="node10" class="node"><title>dir_2171f7ec022c5423887b07c69b2f5b48</title>
<g id="a_node10"><a xlink:href="dir_2171f7ec022c5423887b07c69b2f5b48.html" target="_top" xlink:title="DataFormats">
<polygon fill="none" stroke="red" points="436,-180 362,-180 362,-144 436,-144 436,-180"/>
<text text-anchor="middle" x="399" y="-159.5" font-family="Helvetica,sans-Serif" font-size="10.00">DataFormats</text>
</a>
</g>
</g>
<!-- dir_d1915fc52ae3a2d414030e7b83b60b4d&#45;&gt;dir_2171f7ec022c5423887b07c69b2f5b48 -->
<g id="edge27" class="edge"><title>dir_d1915fc52ae3a2d414030e7b83b60b4d&#45;&gt;dir_2171f7ec022c5423887b07c69b2f5b48</title>
<path fill="none" stroke="black" d="M250.378,-363.688C253.27,-362.397 256.182,-361.144 259,-360 304.708,-341.439 331.201,-360.851 364,-324 397.09,-286.821 401.367,-225.805 400.713,-190.53"/>
<polygon fill="black" stroke="black" points="404.208,-190.342 400.377,-180.464 397.212,-190.575 404.208,-190.342"/>
<g id="a_edge27&#45;headlabel"><a xlink:href="dir_000177_000043.html" target="_top" xlink:title="7">
<text text-anchor="middle" x="407.166" y="-191.34" font-family="Helvetica,sans-Serif" font-size="10.00">7</text>
</a>
</g>
</g>
<!-- dir_5125ceb2b58f632ed0a3019fe2d5cbbc&#45;&gt;dir_eedff867f3c4e67d20b227cb6e0f96ab -->
<g id="edge16" class="edge"><title>dir_5125ceb2b58f632ed0a3019fe2d5cbbc&#45;&gt;dir_eedff867f3c4e67d20b227cb6e0f96ab</title>
<path fill="none" stroke="black" d="M263.225,-287.697C253.246,-278.965 240.989,-268.24 230.143,-258.75"/>
<polygon fill="black" stroke="black" points="232.378,-256.055 222.548,-252.104 227.769,-261.323 232.378,-256.055"/>
<g id="a_edge16&#45;headlabel"><a xlink:href="dir_000180_000164.html" target="_top" xlink:title="5">
<text text-anchor="middle" x="236.953" y="-253.786" font-family="Helvetica,sans-Serif" font-size="10.00">5</text>
</a>
</g>
</g>
<!-- dir_5125ceb2b58f632ed0a3019fe2d5cbbc&#45;&gt;dir_4ab6b4cc6a7edbff49100e9123df213f -->
<g id="edge17" class="edge"><title>dir_5125ceb2b58f632ed0a3019fe2d5cbbc&#45;&gt;dir_4ab6b4cc6a7edbff49100e9123df213f</title>
<path fill="none" stroke="black" d="M282.599,-287.849C281.734,-250.832 279.686,-163.181 278.64,-118.386"/>
<polygon fill="black" stroke="black" points="282.135,-118.148 278.403,-108.232 275.137,-118.312 282.135,-118.148"/>
<g id="a_edge17&#45;headlabel"><a xlink:href="dir_000180_000016.html" target="_top" xlink:title="6">
<text text-anchor="middle" x="285.058" y="-119.175" font-family="Helvetica,sans-Serif" font-size="10.00">6</text>
</a>
</g>
</g>
<!-- dir_5125ceb2b58f632ed0a3019fe2d5cbbc&#45;&gt;dir_37c90836491b695b472bf98d1be8336b -->
<g id="edge18" class="edge"><title>dir_5125ceb2b58f632ed0a3019fe2d5cbbc&#45;&gt;dir_37c90836491b695b472bf98d1be8336b</title>
<path fill="none" stroke="black" d="M243.819,-292.236C213.75,-281.555 175.917,-265.878 167,-252 125.17,-186.899 164.755,-90.8806 188.32,-45.113"/>
<polygon fill="black" stroke="black" points="191.485,-46.6142 193.07,-36.1386 185.298,-43.3395 191.485,-46.6142"/>
<g id="a_edge18&#45;headlabel"><a xlink:href="dir_000180_000073.html" target="_top" xlink:title="13">
<text text-anchor="middle" x="192.313" y="-48.6195" font-family="Helvetica,sans-Serif" font-size="10.00">13</text>
</a>
</g>
</g>
<!-- dir_5125ceb2b58f632ed0a3019fe2d5cbbc&#45;&gt;dir_85bf31a2e8d306e7598ffcb73f8df6bf -->
<g id="edge19" class="edge"><title>dir_5125ceb2b58f632ed0a3019fe2d5cbbc&#45;&gt;dir_85bf31a2e8d306e7598ffcb73f8df6bf</title>
<path fill="none" stroke="black" d="M243.917,-292.162C213.259,-281.88 169.626,-266.781 132,-252 131.158,-251.669 130.307,-251.331 129.45,-250.987"/>
<polygon fill="black" stroke="black" points="130.747,-247.736 120.169,-247.146 128.07,-254.204 130.747,-247.736"/>
<g id="a_edge19&#45;headlabel"><a xlink:href="dir_000180_000137.html" target="_top" xlink:title="12">
<text text-anchor="middle" x="135.154" y="-243.987" font-family="Helvetica,sans-Serif" font-size="10.00">12</text>
</a>
</g>
</g>
<!-- dir_5125ceb2b58f632ed0a3019fe2d5cbbc&#45;&gt;dir_2171f7ec022c5423887b07c69b2f5b48 -->
<g id="edge20" class="edge"><title>dir_5125ceb2b58f632ed0a3019fe2d5cbbc&#45;&gt;dir_2171f7ec022c5423887b07c69b2f5b48</title>
<path fill="none" stroke="black" d="M296.992,-287.871C317.285,-263.031 355.013,-216.846 378.462,-188.142"/>
<polygon fill="black" stroke="black" points="381.342,-190.148 384.958,-180.189 375.921,-185.719 381.342,-190.148"/>
<g id="a_edge20&#45;headlabel"><a xlink:href="dir_000180_000043.html" target="_top" xlink:title="10">
<text text-anchor="middle" x="381.267" y="-192.228" font-family="Helvetica,sans-Serif" font-size="10.00">10</text>
</a>
</g>
</g>
<!-- dir_e6f6998399f381fa585023934f76a907 -->
<g id="node5" class="node"><title>dir_e6f6998399f381fa585023934f76a907</title>
<g id="a_node5"><a xlink:href="dir_e6f6998399f381fa585023934f76a907.html" target="_top" xlink:title="simulation">
<polygon fill="white" stroke="red" points="205.25,-324 144.75,-324 144.75,-288 205.25,-288 205.25,-324"/>
<text text-anchor="middle" x="175" y="-303.5" font-family="Helvetica,sans-Serif" font-size="10.00">simulation</text>
</a>
</g>
</g>
<!-- dir_e6f6998399f381fa585023934f76a907&#45;&gt;dir_eedff867f3c4e67d20b227cb6e0f96ab -->
<g id="edge12" class="edge"><title>dir_e6f6998399f381fa585023934f76a907&#45;&gt;dir_eedff867f3c4e67d20b227cb6e0f96ab</title>
<path fill="none" stroke="black" d="M181.921,-287.697C185.075,-279.813 188.878,-270.304 192.381,-261.546"/>
<polygon fill="black" stroke="black" points="195.694,-262.689 196.158,-252.104 189.195,-260.089 195.694,-262.689"/>
<g id="a_edge12&#45;headlabel"><a xlink:href="dir_000097_000164.html" target="_top" xlink:title="5">
<text text-anchor="middle" x="196.995" y="-264.581" font-family="Helvetica,sans-Serif" font-size="10.00">5</text>
</a>
</g>
</g>
<!-- dir_e6f6998399f381fa585023934f76a907&#45;&gt;dir_37c90836491b695b472bf98d1be8336b -->
<g id="edge13" class="edge"><title>dir_e6f6998399f381fa585023934f76a907&#45;&gt;dir_37c90836491b695b472bf98d1be8336b</title>
<path fill="none" stroke="black" d="M144.57,-300.688C116.452,-294.913 76.2158,-281.696 57,-252 44.4445,-232.597 51.9752,-222.558 57,-200 70.6601,-138.674 75.1757,-118.885 117,-72 130.693,-56.6508 149.889,-44.2417 166.673,-35.3003"/>
<polygon fill="black" stroke="black" points="168.383,-38.3569 175.698,-30.6929 165.2,-32.1222 168.383,-38.3569"/>
<g id="a_edge13&#45;headlabel"><a xlink:href="dir_000097_000073.html" target="_top" xlink:title="3">
<text text-anchor="middle" x="166.472" y="-40.02" font-family="Helvetica,sans-Serif" font-size="10.00">3</text>
</a>
</g>
</g>
<!-- dir_e6f6998399f381fa585023934f76a907&#45;&gt;dir_85bf31a2e8d306e7598ffcb73f8df6bf -->
<g id="edge14" class="edge"><title>dir_e6f6998399f381fa585023934f76a907&#45;&gt;dir_85bf31a2e8d306e7598ffcb73f8df6bf</title>
<path fill="none" stroke="black" d="M154.73,-287.697C144.502,-278.965 131.939,-268.24 120.822,-258.75"/>
<polygon fill="black" stroke="black" points="122.915,-255.935 113.037,-252.104 118.37,-261.259 122.915,-255.935"/>
<g id="a_edge14&#45;headlabel"><a xlink:href="dir_000097_000137.html" target="_top" xlink:title="9">
<text text-anchor="middle" x="127.492" y="-253.609" font-family="Helvetica,sans-Serif" font-size="10.00">9</text>
</a>
</g>
</g>
<!-- dir_e6f6998399f381fa585023934f76a907&#45;&gt;dir_2171f7ec022c5423887b07c69b2f5b48 -->
<g id="edge15" class="edge"><title>dir_e6f6998399f381fa585023934f76a907&#45;&gt;dir_2171f7ec022c5423887b07c69b2f5b48</title>
<path fill="none" stroke="black" d="M196.989,-287.863C225.435,-266.084 276.933,-227.964 324,-200 333.081,-194.605 343.057,-189.288 352.687,-184.441"/>
<polygon fill="black" stroke="black" points="354.359,-187.519 361.773,-179.95 351.257,-181.243 354.359,-187.519"/>
<g id="a_edge15&#45;headlabel"><a xlink:href="dir_000097_000043.html" target="_top" xlink:title="1">
<text text-anchor="middle" x="352.395" y="-189.157" font-family="Helvetica,sans-Serif" font-size="10.00">1</text>
</a>
</g>
</g>
<!-- dir_4ab6b4cc6a7edbff49100e9123df213f&#45;&gt;dir_37c90836491b695b472bf98d1be8336b -->
<g id="edge4" class="edge"><title>dir_4ab6b4cc6a7edbff49100e9123df213f&#45;&gt;dir_37c90836491b695b472bf98d1be8336b</title>
<path fill="none" stroke="black" d="M253.545,-71.6966C243.489,-63.135 232.079,-52.6562 222.579,-43.3045"/>
<polygon fill="black" stroke="black" points="224.96,-40.7354 215.431,-36.1043 219.992,-45.667 224.96,-40.7354"/>
<g id="a_edge4&#45;headlabel"><a xlink:href="dir_000016_000073.html" target="_top" xlink:title="1">
<text text-anchor="middle" x="229.508" y="-38.7861" font-family="Helvetica,sans-Serif" font-size="10.00">1</text>
</a>
</g>
</g>
<!-- dir_a597e8e061b11201a1dff411feb10d0b&#45;&gt;dir_4ab6b4cc6a7edbff49100e9123df213f -->
<g id="edge5" class="edge"><title>dir_a597e8e061b11201a1dff411feb10d0b&#45;&gt;dir_4ab6b4cc6a7edbff49100e9123df213f</title>
<path fill="none" stroke="black" d="M465.909,-215.983C466.013,-196.193 463.091,-163.723 445,-144 411.828,-107.835 354.141,-96.2036 316.012,-92.5463"/>
<polygon fill="black" stroke="black" points="316.066,-89.039 305.814,-91.7125 315.495,-96.0158 316.066,-89.039"/>
<g id="a_edge5&#45;headlabel"><a xlink:href="dir_000085_000016.html" target="_top" xlink:title="6">
<text text-anchor="middle" x="319.88" y="-84.002" font-family="Helvetica,sans-Serif" font-size="10.00">6</text>
</a>
</g>
</g>
<!-- dir_a597e8e061b11201a1dff411feb10d0b&#45;&gt;dir_37c90836491b695b472bf98d1be8336b -->
<g id="edge6" class="edge"><title>dir_a597e8e061b11201a1dff411feb10d0b&#45;&gt;dir_37c90836491b695b472bf98d1be8336b</title>
<path fill="none" stroke="black" d="M470.617,-215.681C475.66,-196.77 480.527,-166.221 468,-144 421.243,-61.0606 301.198,-32.5811 240.027,-23.2624"/>
<polygon fill="black" stroke="black" points="240.423,-19.7835 230.027,-21.8307 239.43,-26.7128 240.423,-19.7835"/>
<g id="a_edge6&#45;headlabel"><a xlink:href="dir_000085_000073.html" target="_top" xlink:title="8">
<text text-anchor="middle" x="244.383" y="-14.9822" font-family="Helvetica,sans-Serif" font-size="10.00">8</text>
</a>
</g>
</g>
<!-- dir_a597e8e061b11201a1dff411feb10d0b&#45;&gt;dir_2171f7ec022c5423887b07c69b2f5b48 -->
<g id="edge7" class="edge"><title>dir_a597e8e061b11201a1dff411feb10d0b&#45;&gt;dir_2171f7ec022c5423887b07c69b2f5b48</title>
<path fill="none" stroke="black" d="M442.77,-215.697C433.992,-207.305 424.15,-197.07 415.949,-187.861"/>
<polygon fill="black" stroke="black" points="418.424,-185.373 409.232,-180.104 413.132,-189.955 418.424,-185.373"/>
<g id="a_edge7&#45;headlabel"><a xlink:href="dir_000085_000043.html" target="_top" xlink:title="40">
<text text-anchor="middle" x="422.923" y="-183.732" font-family="Helvetica,sans-Serif" font-size="10.00">40</text>
</a>
</g>
</g>
<!-- dir_37c90836491b695b472bf98d1be8336b&#45;&gt;dir_4ab6b4cc6a7edbff49100e9123df213f -->
<g id="edge8" class="edge"><title>dir_37c90836491b695b472bf98d1be8336b&#45;&gt;dir_4ab6b4cc6a7edbff49100e9123df213f</title>
<path fill="none" stroke="black" d="M227.221,-36.1043C237.256,-44.636 248.67,-55.1084 258.2,-64.4775"/>
<polygon fill="black" stroke="black" points="255.844,-67.0724 265.376,-71.6966 260.808,-62.1372 255.844,-67.0724"/>
<g id="a_edge8&#45;headlabel"><a xlink:href="dir_000073_000016.html" target="_top" xlink:title="8">
<text text-anchor="middle" x="251.296" y="-64.0249" font-family="Helvetica,sans-Serif" font-size="10.00">8</text>
</a>
</g>
</g>
<!-- dir_85bf31a2e8d306e7598ffcb73f8df6bf&#45;&gt;dir_4ab6b4cc6a7edbff49100e9123df213f -->
<g id="edge9" class="edge"><title>dir_85bf31a2e8d306e7598ffcb73f8df6bf&#45;&gt;dir_4ab6b4cc6a7edbff49100e9123df213f</title>
<path fill="none" stroke="black" d="M112.646,-215.975C118.78,-210.769 125.613,-205.079 132,-200 170.421,-169.449 215.91,-135.885 245.78,-114.186"/>
<polygon fill="black" stroke="black" points="248.105,-116.824 254.148,-108.121 243.997,-111.156 248.105,-116.824"/>
<g id="a_edge9&#45;headlabel"><a xlink:href="dir_000137_000016.html" target="_top" xlink:title="2">
<text text-anchor="middle" x="246.861" y="-118.732" font-family="Helvetica,sans-Serif" font-size="10.00">2</text>
</a>
</g>
</g>
<!-- dir_85bf31a2e8d306e7598ffcb73f8df6bf&#45;&gt;dir_37c90836491b695b472bf98d1be8336b -->
<g id="edge10" class="edge"><title>dir_85bf31a2e8d306e7598ffcb73f8df6bf&#45;&gt;dir_37c90836491b695b472bf98d1be8336b</title>
<path fill="none" stroke="black" d="M94.4082,-215.614C97.6385,-184.474 107.797,-118.136 138,-72 145.69,-60.2537 156.808,-49.8371 167.681,-41.4148"/>
<polygon fill="black" stroke="black" points="169.909,-44.121 175.887,-35.3741 165.759,-38.4837 169.909,-44.121"/>
<g id="a_edge10&#45;headlabel"><a xlink:href="dir_000137_000073.html" target="_top" xlink:title="2">
<text text-anchor="middle" x="168.697" y="-46.0385" font-family="Helvetica,sans-Serif" font-size="10.00">2</text>
</a>
</g>
</g>
<!-- dir_85bf31a2e8d306e7598ffcb73f8df6bf&#45;&gt;dir_2171f7ec022c5423887b07c69b2f5b48 -->
<g id="edge11" class="edge"><title>dir_85bf31a2e8d306e7598ffcb73f8df6bf&#45;&gt;dir_2171f7ec022c5423887b07c69b2f5b48</title>
<path fill="none" stroke="black" d="M109.012,-215.892C115.562,-209.913 123.577,-203.761 132,-200 170.279,-182.907 285.757,-171.616 351.627,-166.379"/>
<polygon fill="black" stroke="black" points="352.055,-169.856 361.753,-165.59 351.512,-162.877 352.055,-169.856"/>
<g id="a_edge11&#45;headlabel"><a xlink:href="dir_000137_000043.html" target="_top" xlink:title="8">
<text text-anchor="middle" x="348.692" y="-170.466" font-family="Helvetica,sans-Serif" font-size="10.00">8</text>
</a>
</g>
</g>
<!-- dir_2171f7ec022c5423887b07c69b2f5b48&#45;&gt;dir_4ab6b4cc6a7edbff49100e9123df213f -->
<g id="edge28" class="edge"><title>dir_2171f7ec022c5423887b07c69b2f5b48&#45;&gt;dir_4ab6b4cc6a7edbff49100e9123df213f</title>
<path fill="none" stroke="black" d="M369.4,-143.876C352.837,-134.294 332.05,-122.269 314.487,-112.108"/>
<polygon fill="black" stroke="black" points="316.044,-108.965 305.635,-106.987 312.539,-115.025 316.044,-108.965"/>
<g id="a_edge28&#45;headlabel"><a xlink:href="dir_000043_000016.html" target="_top" xlink:title="4">
<text text-anchor="middle" x="320.577" y="-105.808" font-family="Helvetica,sans-Serif" font-size="10.00">4</text>
</a>
</g>
</g>
<!-- dir_2171f7ec022c5423887b07c69b2f5b48&#45;&gt;dir_a597e8e061b11201a1dff411feb10d0b -->
<g id="edge29" class="edge"><title>dir_2171f7ec022c5423887b07c69b2f5b48&#45;&gt;dir_a597e8e061b11201a1dff411feb10d0b</title>
<path fill="none" stroke="black" d="M421.022,-180.104C429.783,-188.467 439.629,-198.694 447.856,-207.92"/>
<polygon fill="black" stroke="black" points="445.405,-210.436 454.601,-215.697 450.693,-205.849 445.405,-210.436"/>
<g id="a_edge29&#45;headlabel"><a xlink:href="dir_000043_000085.html" target="_top" xlink:title="2">
<text text-anchor="middle" x="440.905" y="-207.08" font-family="Helvetica,sans-Serif" font-size="10.00">2</text>
</a>
</g>
</g>
<!-- dir_2171f7ec022c5423887b07c69b2f5b48&#45;&gt;dir_37c90836491b695b472bf98d1be8336b -->
<g id="edge30" class="edge"><title>dir_2171f7ec022c5423887b07c69b2f5b48&#45;&gt;dir_37c90836491b695b472bf98d1be8336b</title>
<path fill="none" stroke="black" d="M385.8,-143.799C370.264,-124.429 342.896,-92.9328 314,-72 291.102,-55.4122 262.197,-41.8052 239.624,-32.5331"/>
<polygon fill="black" stroke="black" points="240.643,-29.1713 230.059,-28.7059 238.043,-35.6704 240.643,-29.1713"/>
<g id="a_edge30&#45;headlabel"><a xlink:href="dir_000043_000073.html" target="_top" xlink:title="6">
<text text-anchor="middle" x="245.035" y="-25.3705" font-family="Helvetica,sans-Serif" font-size="10.00">6</text>
</a>
</g>
</g>
</g>
</svg>
