<?xml version="1.0" encoding="UTF-8" standalone="no"?>
<!DOCTYPE svg PUBLIC "-//W3C//DTD SVG 1.1//EN"
 "http://www.w3.org/Graphics/SVG/1.1/DTD/svg11.dtd">
<!-- Generated by graphviz version 2.36.0 (20140111.2315)
 -->
<!-- Title: /home/travis/build/AliceO2Group/AliceO2/Detectors/TPC Pages: 1 -->
<svg width="273pt" height="519pt"
 viewBox="0.00 0.00 272.53 519.00" xmlns="http://www.w3.org/2000/svg" xmlns:xlink="http://www.w3.org/1999/xlink">
<g id="graph0" class="graph" transform="scale(1 1) rotate(0) translate(4 515)">
<title>/home/travis/build/AliceO2Group/AliceO2/Detectors/TPC</title>
<g id="clust1" class="cluster"><title>clusterdir_051dca18e802f8e9474f2e30d29c04e0</title>
<g id="a_clust1"><a xlink:href="dir_051dca18e802f8e9474f2e30d29c04e0.html" target="_top" xlink:title="Detectors">
<polygon fill="#ddddee" stroke="black" points="8,-128 8,-503 166,-503 166,-128 8,-128"/>
<text text-anchor="middle" x="87" y="-491" font-family="Helvetica,sans-Serif" font-size="10.00">Detectors</text>
</a>
</g>
</g>
<g id="clust2" class="cluster"><title>clusterdir_a597e8e061b11201a1dff411feb10d0b</title>
<g id="a_clust2"><a xlink:href="dir_a597e8e061b11201a1dff411feb10d0b.html" target="_top">
<polygon fill="#eeeeff" stroke="black" points="16,-136 16,-476 158,-476 158,-136 16,-136"/>
</a>
</g>
</g>
<!-- dir_a597e8e061b11201a1dff411feb10d0b -->
<g id="node1" class="node"><title>dir_a597e8e061b11201a1dff411feb10d0b</title>
<text text-anchor="middle" x="123" y="-447.5" font-family="Helvetica,sans-Serif" font-size="10.00">TPC</text>
</g>
<!-- dir_677b030cc750909e4cd27413873678d8 -->
<g id="node2" class="node"><title>dir_677b030cc750909e4cd27413873678d8</title>
<g id="a_node2"><a xlink:href="dir_677b030cc750909e4cd27413873678d8.html" target="_top" xlink:title="base">
<polygon fill="white" stroke="red" points="138,-180 84,-180 84,-144 138,-144 138,-180"/>
<text text-anchor="middle" x="111" y="-159.5" font-family="Helvetica,sans-Serif" font-size="10.00">base</text>
</a>
</g>
</g>
<!-- dir_4ab6b4cc6a7edbff49100e9123df213f -->
<g id="node7" class="node"><title>dir_4ab6b4cc6a7edbff49100e9123df213f</title>
<g id="a_node7"><a xlink:href="dir_4ab6b4cc6a7edbff49100e9123df213f.html" target="_top" xlink:title="Common">
<polygon fill="none" stroke="red" points="138.5,-108 83.5,-108 83.5,-72 138.5,-72 138.5,-108"/>
<text text-anchor="middle" x="111" y="-87.5" font-family="Helvetica,sans-Serif" font-size="10.00">Common</text>
</a>
</g>
</g>
<!-- dir_677b030cc750909e4cd27413873678d8&#45;&gt;dir_4ab6b4cc6a7edbff49100e9123df213f -->
<g id="edge9" class="edge"><title>dir_677b030cc750909e4cd27413873678d8&#45;&gt;dir_4ab6b4cc6a7edbff49100e9123df213f</title>
<path fill="none" stroke="black" d="M111,-143.697C111,-135.983 111,-126.712 111,-118.112"/>
<polygon fill="black" stroke="black" points="114.5,-118.104 111,-108.104 107.5,-118.104 114.5,-118.104"/>
<g id="a_edge9&#45;headlabel"><a xlink:href="dir_000086_000016.html" target="_top" xlink:title="2">
<text text-anchor="middle" x="117.339" y="-119.199" font-family="Helvetica,sans-Serif" font-size="10.00">2</text>
</a>
</g>
</g>
<!-- dir_4995562033b321477cfe3c34a14a5189 -->
<g id="node3" class="node"><title>dir_4995562033b321477cfe3c34a14a5189</title>
<g id="a_node3"><a xlink:href="dir_4995562033b321477cfe3c34a14a5189.html" target="_top" xlink:title="calibration">
<polygon fill="white" stroke="red" points="109.25,-396 48.75,-396 48.75,-360 109.25,-360 109.25,-396"/>
<text text-anchor="middle" x="79" y="-375.5" font-family="Helvetica,sans-Serif" font-size="10.00">calibration</text>
</a>
</g>
</g>
<!-- dir_4995562033b321477cfe3c34a14a5189&#45;&gt;dir_677b030cc750909e4cd27413873678d8 -->
<g id="edge6" class="edge"><title>dir_4995562033b321477cfe3c34a14a5189&#45;&gt;dir_677b030cc750909e4cd27413873678d8</title>
<path fill="none" stroke="black" d="M71.4692,-359.815C59.3605,-329.549 38.8626,-265.278 59,-216 63.488,-205.017 71.4705,-195.081 79.8545,-186.858"/>
<polygon fill="black" stroke="black" points="82.2351,-189.424 87.2479,-180.09 77.5085,-184.261 82.2351,-189.424"/>
<g id="a_edge6&#45;headlabel"><a xlink:href="dir_000206_000086.html" target="_top" xlink:title="13">
<text text-anchor="middle" x="81.5008" y="-191.445" font-family="Helvetica,sans-Serif" font-size="10.00">13</text>
</a>
</g>
</g>
<!-- dir_a5de047958dd458e809773c6ffaa8478 -->
<g id="node5" class="node"><title>dir_a5de047958dd458e809773c6ffaa8478</title>
<g id="a_node5"><a xlink:href="dir_a5de047958dd458e809773c6ffaa8478.html" target="_top" xlink:title="reconstruction">
<polygon fill="white" stroke="red" points="148,-324 70,-324 70,-288 148,-288 148,-324"/>
<text text-anchor="middle" x="109" y="-303.5" font-family="Helvetica,sans-Serif" font-size="10.00">reconstruction</text>
</a>
</g>
</g>
<!-- dir_4995562033b321477cfe3c34a14a5189&#45;&gt;dir_a5de047958dd458e809773c6ffaa8478 -->
<g id="edge8" class="edge"><title>dir_4995562033b321477cfe3c34a14a5189&#45;&gt;dir_a5de047958dd458e809773c6ffaa8478</title>
<path fill="none" stroke="black" d="M80.5,-359.697C83.093,-351.728 87.0051,-342.1 91.1844,-333.264"/>
<polygon fill="black" stroke="black" points="94.4235,-334.613 95.7745,-324.104 88.1653,-331.477 94.4235,-334.613"/>
<g id="a_edge8&#45;headlabel"><a xlink:href="dir_000206_000171.html" target="_top" xlink:title="3">
<text text-anchor="middle" x="95.3515" y="-336.598" font-family="Helvetica,sans-Serif" font-size="10.00">3</text>
</a>
</g>
</g>
<!-- dir_4995562033b321477cfe3c34a14a5189&#45;&gt;dir_4ab6b4cc6a7edbff49100e9123df213f -->
<g id="edge7" class="edge"><title>dir_4995562033b321477cfe3c34a14a5189&#45;&gt;dir_4ab6b4cc6a7edbff49100e9123df213f</title>
<path fill="none" stroke="black" d="M66.3426,-359.827C59.8044,-349.899 52.4825,-336.859 49,-324 36.4519,-277.667 42.9059,-263.731 48,-216 52.2462,-176.214 46.3554,-162.275 67,-128 69.8323,-123.298 73.4785,-118.908 77.4583,-114.914"/>
<polygon fill="black" stroke="black" points="79.8327,-117.485 84.8781,-108.169 75.1241,-112.306 79.8327,-117.485"/>
<g id="a_edge7&#45;headlabel"><a xlink:href="dir_000206_000016.html" target="_top" xlink:title="3">
<text text-anchor="middle" x="79.0826" y="-119.504" font-family="Helvetica,sans-Serif" font-size="10.00">3</text>
</a>
</g>
</g>
<!-- dir_c8aedc994017b243e124cedd663b3bbb -->
<g id="node4" class="node"><title>dir_c8aedc994017b243e124cedd663b3bbb</title>
<g id="a_node4"><a xlink:href="dir_c8aedc994017b243e124cedd663b3bbb.html" target="_top" xlink:title="monitor">
<polygon fill="white" stroke="red" points="78,-468 24,-468 24,-432 78,-432 78,-468"/>
<text text-anchor="middle" x="51" y="-447.5" font-family="Helvetica,sans-Serif" font-size="10.00">monitor</text>
</a>
</g>
</g>
<!-- dir_c8aedc994017b243e124cedd663b3bbb&#45;&gt;dir_677b030cc750909e4cd27413873678d8 -->
<g id="edge18" class="edge"><title>dir_c8aedc994017b243e124cedd663b3bbb&#45;&gt;dir_677b030cc750909e4cd27413873678d8</title>
<path fill="none" stroke="black" d="M45.661,-431.713C34.2356,-391.346 11.3075,-288.791 48,-216 54.2548,-203.592 64.8447,-192.964 75.575,-184.554"/>
<polygon fill="black" stroke="black" points="77.7476,-187.301 83.7385,-178.563 73.6058,-181.658 77.7476,-187.301"/>
<g id="a_edge18&#45;headlabel"><a xlink:href="dir_000211_000086.html" target="_top" xlink:title="12">
<text text-anchor="middle" x="76.5297" y="-189.217" font-family="Helvetica,sans-Serif" font-size="10.00">12</text>
</a>
</g>
</g>
<!-- dir_c8aedc994017b243e124cedd663b3bbb&#45;&gt;dir_4995562033b321477cfe3c34a14a5189 -->
<g id="edge17" class="edge"><title>dir_c8aedc994017b243e124cedd663b3bbb&#45;&gt;dir_4995562033b321477cfe3c34a14a5189</title>
<path fill="none" stroke="black" d="M57.9214,-431.697C61.0747,-423.813 64.8783,-414.304 68.3814,-405.546"/>
<polygon fill="black" stroke="black" points="71.694,-406.689 72.1583,-396.104 65.1946,-404.089 71.694,-406.689"/>
<g id="a_edge17&#45;headlabel"><a xlink:href="dir_000211_000206.html" target="_top" xlink:title="1">
<text text-anchor="middle" x="72.9952" y="-408.581" font-family="Helvetica,sans-Serif" font-size="10.00">1</text>
</a>
</g>
</g>
<!-- dir_c8aedc994017b243e124cedd663b3bbb&#45;&gt;dir_a5de047958dd458e809773c6ffaa8478 -->
<g id="edge19" class="edge"><title>dir_c8aedc994017b243e124cedd663b3bbb&#45;&gt;dir_a5de047958dd458e809773c6ffaa8478</title>
<path fill="none" stroke="black" d="M78.2971,-435.316C92.9794,-426.338 109.729,-413.088 118,-396 127.319,-376.746 124.005,-352.448 118.954,-334.106"/>
<polygon fill="black" stroke="black" points="122.236,-332.869 115.951,-324.339 115.545,-334.926 122.236,-332.869"/>
<g id="a_edge19&#45;headlabel"><a xlink:href="dir_000211_000171.html" target="_top" xlink:title="2">
<text text-anchor="middle" x="126.006" y="-332.97" font-family="Helvetica,sans-Serif" font-size="10.00">2</text>
</a>
</g>
</g>
<!-- dir_a5de047958dd458e809773c6ffaa8478&#45;&gt;dir_677b030cc750909e4cd27413873678d8 -->
<g id="edge13" class="edge"><title>dir_a5de047958dd458e809773c6ffaa8478&#45;&gt;dir_677b030cc750909e4cd27413873678d8</title>
<path fill="none" stroke="black" d="M121.307,-287.784C127.65,-277.843 134.726,-264.804 138,-252 141.964,-236.499 141.735,-231.558 138,-216 135.793,-206.807 131.712,-197.412 127.379,-189.134"/>
<polygon fill="black" stroke="black" points="130.397,-187.359 122.467,-180.333 124.285,-190.771 130.397,-187.359"/>
<g id="a_edge13&#45;headlabel"><a xlink:href="dir_000171_000086.html" target="_top" xlink:title="51">
<text text-anchor="middle" x="134.628" y="-186.614" font-family="Helvetica,sans-Serif" font-size="10.00">51</text>
</a>
</g>
</g>
<!-- dir_a5de047958dd458e809773c6ffaa8478&#45;&gt;dir_4995562033b321477cfe3c34a14a5189 -->
<g id="edge12" class="edge"><title>dir_a5de047958dd458e809773c6ffaa8478&#45;&gt;dir_4995562033b321477cfe3c34a14a5189</title>
<path fill="none" stroke="black" d="M107.565,-324.104C104.994,-332.045 101.095,-341.666 96.9201,-350.515"/>
<polygon fill="black" stroke="black" points="93.671,-349.187 92.3315,-359.697 99.9326,-352.316 93.671,-349.187"/>
<g id="a_edge12&#45;headlabel"><a xlink:href="dir_000171_000206.html" target="_top" xlink:title="1">
<text text-anchor="middle" x="92.7381" y="-342.202" font-family="Helvetica,sans-Serif" font-size="10.00">1</text>
</a>
</g>
</g>
<!-- dir_7f309bec8670bb3fb666e7e061b24659 -->
<g id="node6" class="node"><title>dir_7f309bec8670bb3fb666e7e061b24659</title>
<g id="a_node6"><a xlink:href="dir_7f309bec8670bb3fb666e7e061b24659.html" target="_top" xlink:title="simulation">
<polygon fill="white" stroke="red" points="129.25,-252 68.75,-252 68.75,-216 129.25,-216 129.25,-252"/>
<text text-anchor="middle" x="99" y="-231.5" font-family="Helvetica,sans-Serif" font-size="10.00">simulation</text>
</a>
</g>
</g>
<!-- dir_a5de047958dd458e809773c6ffaa8478&#45;&gt;dir_7f309bec8670bb3fb666e7e061b24659 -->
<g id="edge11" class="edge"><title>dir_a5de047958dd458e809773c6ffaa8478&#45;&gt;dir_7f309bec8670bb3fb666e7e061b24659</title>
<path fill="none" stroke="black" d="M100.612,-287.697C98.7147,-279.983 97.1638,-270.712 96.2779,-262.112"/>
<polygon fill="black" stroke="black" points="99.7662,-261.823 95.5484,-252.104 92.7848,-262.332 99.7662,-261.823"/>
<g id="a_edge11&#45;headlabel"><a xlink:href="dir_000171_000111.html" target="_top" xlink:title="1">
<text text-anchor="middle" x="102.859" y="-262.702" font-family="Helvetica,sans-Serif" font-size="10.00">1</text>
</a>
</g>
</g>
<!-- dir_37c90836491b695b472bf98d1be8336b -->
<g id="node8" class="node"><title>dir_37c90836491b695b472bf98d1be8336b</title>
<g id="a_node8"><a xlink:href="dir_37c90836491b695b472bf98d1be8336b.html" target="_top" xlink:title="Base">
<polygon fill="none" stroke="red" points="138,-36 84,-36 84,-0 138,-0 138,-36"/>
<text text-anchor="middle" x="111" y="-15.5" font-family="Helvetica,sans-Serif" font-size="10.00">Base</text>
</a>
</g>
</g>
<!-- dir_a5de047958dd458e809773c6ffaa8478&#45;&gt;dir_37c90836491b695b472bf98d1be8336b -->
<g id="edge14" class="edge"><title>dir_a5de047958dd458e809773c6ffaa8478&#45;&gt;dir_37c90836491b695b472bf98d1be8336b</title>
<path fill="none" stroke="black" d="M143.074,-287.983C179.138,-267.819 233.961,-230.485 257,-180 266.595,-158.975 267.358,-148.66 257,-128 234.322,-82.7679 182.981,-51.5048 147.652,-34.4138"/>
<polygon fill="black" stroke="black" points="148.69,-31.0355 138.148,-29.9693 145.724,-37.3763 148.69,-31.0355"/>
<g id="a_edge14&#45;headlabel"><a xlink:href="dir_000171_000073.html" target="_top" xlink:title="6">
<text text-anchor="middle" x="153.148" y="-27.4864" font-family="Helvetica,sans-Serif" font-size="10.00">6</text>
</a>
</g>
</g>
<!-- dir_2171f7ec022c5423887b07c69b2f5b48 -->
<g id="node9" class="node"><title>dir_2171f7ec022c5423887b07c69b2f5b48</title>
<g id="a_node9"><a xlink:href="dir_2171f7ec022c5423887b07c69b2f5b48.html" target="_top" xlink:title="DataFormats">
<polygon fill="none" stroke="red" points="248,-180 174,-180 174,-144 248,-144 248,-180"/>
<text text-anchor="middle" x="211" y="-159.5" font-family="Helvetica,sans-Serif" font-size="10.00">DataFormats</text>
</a>
</g>
</g>
<!-- dir_a5de047958dd458e809773c6ffaa8478&#45;&gt;dir_2171f7ec022c5423887b07c69b2f5b48 -->
<g id="edge15" class="edge"><title>dir_a5de047958dd458e809773c6ffaa8478&#45;&gt;dir_2171f7ec022c5423887b07c69b2f5b48</title>
<path fill="none" stroke="black" d="M121.304,-287.871C139.07,-263.137 172.037,-217.242 192.674,-188.512"/>
<polygon fill="black" stroke="black" points="195.661,-190.353 198.653,-180.189 189.976,-186.269 195.661,-190.353"/>
<g id="a_edge15&#45;headlabel"><a xlink:href="dir_000171_000043.html" target="_top" xlink:title="35">
<text text-anchor="middle" x="195.87" y="-192.429" font-family="Helvetica,sans-Serif" font-size="10.00">35</text>
</a>
</g>
</g>
<!-- dir_7f309bec8670bb3fb666e7e061b24659&#45;&gt;dir_677b030cc750909e4cd27413873678d8 -->
<g id="edge1" class="edge"><title>dir_7f309bec8670bb3fb666e7e061b24659&#45;&gt;dir_677b030cc750909e4cd27413873678d8</title>
<path fill="none" stroke="black" d="M101.966,-215.697C103.289,-207.983 104.878,-198.712 106.352,-190.112"/>
<polygon fill="black" stroke="black" points="109.828,-190.552 108.068,-180.104 102.928,-189.369 109.828,-190.552"/>
<g id="a_edge1&#45;headlabel"><a xlink:href="dir_000111_000086.html" target="_top" xlink:title="44">
<text text-anchor="middle" x="112.019" y="-192.075" font-family="Helvetica,sans-Serif" font-size="10.00">44</text>
</a>
</g>
</g>
<!-- dir_7f309bec8670bb3fb666e7e061b24659&#45;&gt;dir_a5de047958dd458e809773c6ffaa8478 -->
<g id="edge3" class="edge"><title>dir_7f309bec8670bb3fb666e7e061b24659&#45;&gt;dir_a5de047958dd458e809773c6ffaa8478</title>
<path fill="none" stroke="black" d="M107.339,-252.104C109.242,-259.791 110.802,-269.054 111.699,-277.665"/>
<polygon fill="black" stroke="black" points="108.213,-277.983 112.444,-287.697 115.194,-277.465 108.213,-277.983"/>
<g id="a_edge3&#45;headlabel"><a xlink:href="dir_000111_000171.html" target="_top" xlink:title="2">
<text text-anchor="middle" x="105.115" y="-272.109" font-family="Helvetica,sans-Serif" font-size="10.00">2</text>
</a>
</g>
</g>
<!-- dir_7f309bec8670bb3fb666e7e061b24659&#45;&gt;dir_4ab6b4cc6a7edbff49100e9123df213f -->
<g id="edge2" class="edge"><title>dir_7f309bec8670bb3fb666e7e061b24659&#45;&gt;dir_4ab6b4cc6a7edbff49100e9123df213f</title>
<path fill="none" stroke="black" d="M88.8393,-215.758C77.7171,-194.522 62.966,-157.625 75,-128 76.755,-123.68 79.2838,-119.587 82.1992,-115.808"/>
<polygon fill="black" stroke="black" points="85.0417,-117.877 89.0491,-108.07 79.8002,-113.238 85.0417,-117.877"/>
<g id="a_edge2&#45;headlabel"><a xlink:href="dir_000111_000016.html" target="_top" xlink:title="1">
<text text-anchor="middle" x="84.7852" y="-119.951" font-family="Helvetica,sans-Serif" font-size="10.00">1</text>
</a>
</g>
</g>
<!-- dir_7f309bec8670bb3fb666e7e061b24659&#45;&gt;dir_37c90836491b695b472bf98d1be8336b -->
<g id="edge4" class="edge"><title>dir_7f309bec8670bb3fb666e7e061b24659&#45;&gt;dir_37c90836491b695b472bf98d1be8336b</title>
<path fill="none" stroke="black" d="M85.4357,-215.972C78.4419,-206.09 70.6332,-193.047 67,-180 60.8,-157.736 65.5639,-151.066 67,-128 68.5586,-102.966 65.0021,-95.4131 74,-72 77.7048,-62.3598 83.5277,-52.8013 89.467,-44.5115"/>
<polygon fill="black" stroke="black" points="92.3747,-46.4691 95.6145,-36.3818 86.7913,-42.247 92.3747,-46.4691"/>
<g id="a_edge4&#45;headlabel"><a xlink:href="dir_000111_000073.html" target="_top" xlink:title="2">
<text text-anchor="middle" x="92.4713" y="-48.5488" font-family="Helvetica,sans-Serif" font-size="10.00">2</text>
</a>
</g>
</g>
<!-- dir_7f309bec8670bb3fb666e7e061b24659&#45;&gt;dir_2171f7ec022c5423887b07c69b2f5b48 -->
<g id="edge5" class="edge"><title>dir_7f309bec8670bb3fb666e7e061b24659&#45;&gt;dir_2171f7ec022c5423887b07c69b2f5b48</title>
<path fill="none" stroke="black" d="M126.398,-215.876C140.907,-206.808 158.916,-195.552 174.585,-185.759"/>
<polygon fill="black" stroke="black" points="176.871,-188.458 183.496,-180.19 173.161,-182.522 176.871,-188.458"/>
<g id="a_edge5&#45;headlabel"><a xlink:href="dir_000111_000043.html" target="_top" xlink:title="5">
<text text-anchor="middle" x="175.328" y="-190.271" font-family="Helvetica,sans-Serif" font-size="10.00">5</text>
</a>
</g>
</g>
<!-- dir_4ab6b4cc6a7edbff49100e9123df213f&#45;&gt;dir_37c90836491b695b472bf98d1be8336b -->
<g id="edge10" class="edge"><title>dir_4ab6b4cc6a7edbff49100e9123df213f&#45;&gt;dir_37c90836491b695b472bf98d1be8336b</title>
<path fill="none" stroke="black" d="M105.084,-71.6966C104.289,-63.9827 104.062,-54.7125 104.405,-46.1124"/>
<polygon fill="black" stroke="black" points="107.898,-46.3243 105.105,-36.1043 100.915,-45.8356 107.898,-46.3243"/>
<g id="a_edge10&#45;headlabel"><a xlink:href="dir_000016_000073.html" target="_top" xlink:title="1">
<text text-anchor="middle" x="110.48" y="-47.6083" font-family="Helvetica,sans-Serif" font-size="10.00">1</text>
</a>
</g>
</g>
<!-- dir_37c90836491b695b472bf98d1be8336b&#45;&gt;dir_4ab6b4cc6a7edbff49100e9123df213f -->
<g id="edge16" class="edge"><title>dir_37c90836491b695b472bf98d1be8336b&#45;&gt;dir_4ab6b4cc6a7edbff49100e9123df213f</title>
<path fill="none" stroke="black" d="M116.895,-36.1043C117.701,-43.7913 117.937,-53.0537 117.604,-61.6651"/>
<polygon fill="black" stroke="black" points="114.109,-61.4805 116.916,-71.6966 121.092,-61.9597 114.109,-61.4805"/>
<g id="a_edge16&#45;headlabel"><a xlink:href="dir_000073_000016.html" target="_top" xlink:title="8">
<text text-anchor="middle" x="111.522" y="-55.2" font-family="Helvetica,sans-Serif" font-size="10.00">8</text>
</a>
</g>
</g>
<!-- dir_2171f7ec022c5423887b07c69b2f5b48&#45;&gt;dir_677b030cc750909e4cd27413873678d8 -->
<g id="edge20" class="edge"><title>dir_2171f7ec022c5423887b07c69b2f5b48&#45;&gt;dir_677b030cc750909e4cd27413873678d8</title>
<path fill="none" stroke="black" d="M173.82,-162C165.413,-162 157.006,-162 148.599,-162"/>
<polygon fill="black" stroke="black" points="148.344,-158.5 138.344,-162 148.344,-165.5 148.344,-158.5"/>
<g id="a_edge20&#45;headlabel"><a xlink:href="dir_000043_000086.html" target="_top" xlink:title="2">
<text text-anchor="middle" x="151.938" y="-153.161" font-family="Helvetica,sans-Serif" font-size="10.00">2</text>
</a>
</g>
</g>
<!-- dir_2171f7ec022c5423887b07c69b2f5b48&#45;&gt;dir_4ab6b4cc6a7edbff49100e9123df213f -->
<g id="edge21" class="edge"><title>dir_2171f7ec022c5423887b07c69b2f5b48&#45;&gt;dir_4ab6b4cc6a7edbff49100e9123df213f</title>
<path fill="none" stroke="black" d="M186.537,-143.876C173.704,-134.893 157.804,-123.763 143.906,-114.034"/>
<polygon fill="black" stroke="black" points="145.756,-111.057 135.557,-108.19 141.742,-116.792 145.756,-111.057"/>
<g id="a_edge21&#45;headlabel"><a xlink:href="dir_000043_000016.html" target="_top" xlink:title="4">
<text text-anchor="middle" x="150.329" y="-108.292" font-family="Helvetica,sans-Serif" font-size="10.00">4</text>
</a>
</g>
</g>
<!-- dir_2171f7ec022c5423887b07c69b2f5b48&#45;&gt;dir_37c90836491b695b472bf98d1be8336b -->
<g id="edge22" class="edge"><title>dir_2171f7ec022c5423887b07c69b2f5b48&#45;&gt;dir_37c90836491b695b472bf98d1be8336b</title>
<path fill="none" stroke="black" d="M198.938,-143.871C181.519,-119.137 149.199,-73.2424 128.966,-44.5121"/>
<polygon fill="black" stroke="black" points="131.725,-42.3501 123.105,-36.1893 126.001,-46.3806 131.725,-42.3501"/>
<g id="a_edge22&#45;headlabel"><a xlink:href="dir_000043_000073.html" target="_top" xlink:title="6">
<text text-anchor="middle" x="136.116" y="-41.1543" font-family="Helvetica,sans-Serif" font-size="10.00">6</text>
</a>
</g>
</g>
</g>
</svg>
