<?xml version="1.0" encoding="UTF-8" standalone="no"?>
<!DOCTYPE svg PUBLIC "-//W3C//DTD SVG 1.1//EN"
 "http://www.w3.org/Graphics/SVG/1.1/DTD/svg11.dtd">
<!-- Generated by graphviz version 2.36.0 (20140111.2315)
 -->
<!-- Title: /home/travis/build/AliceO2Group/AliceO2/Detectors/ITSMFT/ITS/macros Pages: 1 -->
<!--zoomable 591 -->
<svg id="main" version="1.1" xmlns="http://www.w3.org/2000/svg" xmlns:xlink="http://www.w3.org/1999/xlink" xml:space="preserve" onload="init(evt)">
<style type="text/css"><![CDATA[
.edge:hover path { stroke: red; }
.edge:hover polygon { stroke: red; fill: red; }
]]></style>
<script type="text/javascript"><![CDATA[
var edges = document.getElementsByTagName('g');
if (edges && edges.length) {
  for (var i=0;i<edges.length;i++) {
    if (edges[i].id.substr(0,4)=='edge') {
      edges[i].setAttribute('class','edge');
    }
  }
}
]]></script>
        <defs>
                <circle id="rim" cx="0" cy="0" r="7"/>
                <circle id="rim2" cx="0" cy="0" r="3.5"/>
                <g id="zoomPlus">
                        <use xlink:href="#rim" fill="#404040">
                                <set attributeName="fill" to="#808080" begin="zoomplus.mouseover" end="zoomplus.mouseout"/>
                        </use>
                        <path d="M-4,0h8M0,-4v8" fill="none" stroke="white" stroke-width="1.5" pointer-events="none"/>
                </g>
                <g id="zoomMin">
                        <use xlink:href="#rim" fill="#404040">
                                <set attributeName="fill" to="#808080" begin="zoomminus.mouseover" end="zoomminus.mouseout"/>
                        </use>
                        <path d="M-4,0h8" fill="none" stroke="white" stroke-width="1.5" pointer-events="none"/>
                </g>
                <g id="dirArrow">
                        <path fill="none" stroke="white" stroke-width="1.5" d="M0,-3.0v7 M-2.5,-0.5L0,-3.0L2.5,-0.5"/>
                </g>
               <g id="resetDef">
                       <use xlink:href="#rim2" fill="#404040">
                               <set attributeName="fill" to="#808080" begin="reset.mouseover" end="reset.mouseout"/>
                       </use>
               </g>
        </defs>

<script type="text/javascript">
var viewWidth = 410;
var viewHeight = 591;
var sectionId = 'dynsection-0';
</script>
<script xlink:href="svgpan.js"/>
<svg id="graph" class="graph">
<g id="viewport">
<title>/home/travis/build/AliceO2Group/AliceO2/Detectors/ITSMFT/ITS/macros</title>
<g id="clust1" class="cluster"><title>clusterdir_871aad07cbf94d6cd423c3d8d5bdf4e9</title>
<g id="a_clust1"><a xlink:href="dir_871aad07cbf94d6cd423c3d8d5bdf4e9.html" target="_top" xlink:title="ITS">
<polygon fill="#ddddee" stroke="black" points="123,-488 123,-575 281,-575 281,-488 123,-488"/>
<text text-anchor="middle" x="202" y="-563" font-family="Helvetica,sans-Serif" font-size="10.00">ITS</text>
</a>
</g>
</g>
<g id="clust2" class="cluster"><title>clusterdir_d1915fc52ae3a2d414030e7b83b60b4d</title>
<g id="a_clust2"><a xlink:href="dir_d1915fc52ae3a2d414030e7b83b60b4d.html" target="_top">
<polygon fill="#eeeeff" stroke="black" points="131,-496 131,-548 273,-548 273,-496 131,-496"/>
</a>
</g>
</g>
<!-- dir_d1915fc52ae3a2d414030e7b83b60b4d -->
<g id="node1" class="node"><title>dir_d1915fc52ae3a2d414030e7b83b60b4d</title>
<text text-anchor="middle" x="238" y="-519.5" font-family="Helvetica,sans-Serif" font-size="10.00">macros</text>
</g>
<!-- dir_2182485e2bad8012cf176841f5534402 -->
<g id="node2" class="node"><title>dir_2182485e2bad8012cf176841f5534402</title>
<g id="a_node2"><a xlink:href="dir_2182485e2bad8012cf176841f5534402.html" target="_top" xlink:title="test">
<polygon fill="white" stroke="black" points="193,-540 139,-540 139,-504 193,-504 193,-540"/>
<text text-anchor="middle" x="166" y="-519.5" font-family="Helvetica,sans-Serif" font-size="10.00">test</text>
</a>
</g>
</g>
<!-- dir_eedff867f3c4e67d20b227cb6e0f96ab -->
<g id="node3" class="node"><title>dir_eedff867f3c4e67d20b227cb6e0f96ab</title>
<g id="a_node3"><a xlink:href="dir_eedff867f3c4e67d20b227cb6e0f96ab.html" target="_top" xlink:title="base">
<polygon fill="none" stroke="red" points="138,-396 84,-396 84,-360 138,-360 138,-396"/>
<text text-anchor="middle" x="111" y="-375.5" font-family="Helvetica,sans-Serif" font-size="10.00">base</text>
</a>
</g>
</g>
<!-- dir_2182485e2bad8012cf176841f5534402&#45;&gt;dir_eedff867f3c4e67d20b227cb6e0f96ab -->
<g id="edge9" class="edge"><title>dir_2182485e2bad8012cf176841f5534402&#45;&gt;dir_eedff867f3c4e67d20b227cb6e0f96ab</title>
<path fill="none" stroke="black" d="M159.366,-503.871C149.909,-479.457 132.468,-434.426 121.316,-405.635"/>
<polygon fill="black" stroke="black" points="124.533,-404.25 117.658,-396.189 118.006,-406.778 124.533,-404.25"/>
<g id="a_edge9&#45;headlabel"><a xlink:href="dir_000178_000164.html" target="_top" xlink:title="4">
<text text-anchor="middle" x="128.479" y="-404.077" font-family="Helvetica,sans-Serif" font-size="10.00">4</text>
</a>
</g>
</g>
<!-- dir_4ab6b4cc6a7edbff49100e9123df213f -->
<g id="node4" class="node"><title>dir_4ab6b4cc6a7edbff49100e9123df213f</title>
<g id="a_node4"><a xlink:href="dir_4ab6b4cc6a7edbff49100e9123df213f.html" target="_top" xlink:title="Common">
<polygon fill="none" stroke="red" points="236.5,-108 181.5,-108 181.5,-72 236.5,-72 236.5,-108"/>
<text text-anchor="middle" x="209" y="-87.5" font-family="Helvetica,sans-Serif" font-size="10.00">Common</text>
</a>
</g>
</g>
<!-- dir_2182485e2bad8012cf176841f5534402&#45;&gt;dir_4ab6b4cc6a7edbff49100e9123df213f -->
<g id="edge10" class="edge"><title>dir_2182485e2bad8012cf176841f5534402&#45;&gt;dir_4ab6b4cc6a7edbff49100e9123df213f</title>
<path fill="none" stroke="black" d="M145.544,-503.672C115.112,-475.68 62.736,-417.79 75,-360 96.8084,-257.234 118.789,-235.162 171,-144 176.402,-134.568 183.096,-124.757 189.354,-116.178"/>
<polygon fill="black" stroke="black" points="192.229,-118.177 195.402,-108.068 186.618,-113.992 192.229,-118.177"/>
<g id="a_edge10&#45;headlabel"><a xlink:href="dir_000178_000016.html" target="_top" xlink:title="2">
<text text-anchor="middle" x="192.356" y="-120.256" font-family="Helvetica,sans-Serif" font-size="10.00">2</text>
</a>
</g>
</g>
<!-- dir_a597e8e061b11201a1dff411feb10d0b -->
<g id="node5" class="node"><title>dir_a597e8e061b11201a1dff411feb10d0b</title>
<g id="a_node5"><a xlink:href="dir_a597e8e061b11201a1dff411feb10d0b.html" target="_top" xlink:title="TPC">
<polygon fill="none" stroke="red" points="386,-180 332,-180 332,-144 386,-144 386,-180"/>
<text text-anchor="middle" x="359" y="-159.5" font-family="Helvetica,sans-Serif" font-size="10.00">TPC</text>
</a>
</g>
</g>
<!-- dir_2182485e2bad8012cf176841f5534402&#45;&gt;dir_a597e8e061b11201a1dff411feb10d0b -->
<g id="edge11" class="edge"><title>dir_2182485e2bad8012cf176841f5534402&#45;&gt;dir_a597e8e061b11201a1dff411feb10d0b</title>
<path fill="none" stroke="black" d="M181.003,-503.724C186.97,-497.874 194.257,-491.853 202,-488 246.096,-466.059 274.021,-500.534 311,-468 391.487,-397.189 375.512,-250.873 364.67,-190.24"/>
<polygon fill="black" stroke="black" points="368.085,-189.46 362.795,-180.281 361.206,-190.756 368.085,-189.46"/>
<g id="a_edge11&#45;headlabel"><a xlink:href="dir_000178_000085.html" target="_top" xlink:title="1">
<text text-anchor="middle" x="371.54" y="-189.967" font-family="Helvetica,sans-Serif" font-size="10.00">1</text>
</a>
</g>
</g>
<!-- dir_37c90836491b695b472bf98d1be8336b -->
<g id="node6" class="node"><title>dir_37c90836491b695b472bf98d1be8336b</title>
<g id="a_node6"><a xlink:href="dir_37c90836491b695b472bf98d1be8336b.html" target="_top" xlink:title="Base">
<polygon fill="none" stroke="red" points="236,-36 182,-36 182,-0 236,-0 236,-36"/>
<text text-anchor="middle" x="209" y="-15.5" font-family="Helvetica,sans-Serif" font-size="10.00">Base</text>
</a>
</g>
</g>
<!-- dir_2182485e2bad8012cf176841f5534402&#45;&gt;dir_37c90836491b695b472bf98d1be8336b -->
<g id="edge12" class="edge"><title>dir_2182485e2bad8012cf176841f5534402&#45;&gt;dir_37c90836491b695b472bf98d1be8336b</title>
<path fill="none" stroke="black" d="M138.96,-512.058C91.9217,-494.602 0,-451.247 0,-379 0,-379 0,-379 0,-161 0,-114.266 19.407,-101.07 56,-72 89.8638,-45.0984 138.284,-31.3891 171.534,-24.7317"/>
<polygon fill="black" stroke="black" points="172.577,-28.097 181.759,-22.8102 171.285,-21.2174 172.577,-28.097"/>
<g id="a_edge12&#45;headlabel"><a xlink:href="dir_000178_000073.html" target="_top" xlink:title="3">
<text text-anchor="middle" x="169.569" y="-29.0513" font-family="Helvetica,sans-Serif" font-size="10.00">3</text>
</a>
</g>
</g>
<!-- dir_85bf31a2e8d306e7598ffcb73f8df6bf -->
<g id="node7" class="node"><title>dir_85bf31a2e8d306e7598ffcb73f8df6bf</title>
<g id="a_node7"><a xlink:href="dir_85bf31a2e8d306e7598ffcb73f8df6bf.html" target="_top" xlink:title="common">
<polygon fill="none" stroke="red" points="198,-324 144,-324 144,-288 198,-288 198,-324"/>
<text text-anchor="middle" x="171" y="-303.5" font-family="Helvetica,sans-Serif" font-size="10.00">common</text>
</a>
</g>
</g>
<!-- dir_2182485e2bad8012cf176841f5534402&#45;&gt;dir_85bf31a2e8d306e7598ffcb73f8df6bf -->
<g id="edge13" class="edge"><title>dir_2182485e2bad8012cf176841f5534402&#45;&gt;dir_85bf31a2e8d306e7598ffcb73f8df6bf</title>
<path fill="none" stroke="black" d="M166.401,-503.849C167.266,-466.832 169.314,-379.181 170.36,-334.386"/>
<polygon fill="black" stroke="black" points="173.863,-334.312 170.597,-324.232 166.865,-334.148 173.863,-334.312"/>
<g id="a_edge13&#45;headlabel"><a xlink:href="dir_000178_000137.html" target="_top" xlink:title="11">
<text text-anchor="middle" x="176.617" y="-335.471" font-family="Helvetica,sans-Serif" font-size="10.00">11</text>
</a>
</g>
</g>
<!-- dir_5125ceb2b58f632ed0a3019fe2d5cbbc -->
<g id="node8" class="node"><title>dir_5125ceb2b58f632ed0a3019fe2d5cbbc</title>
<g id="a_node8"><a xlink:href="dir_5125ceb2b58f632ed0a3019fe2d5cbbc.html" target="_top" xlink:title="reconstruction">
<polygon fill="none" stroke="red" points="277,-468 199,-468 199,-432 277,-432 277,-468"/>
<text text-anchor="middle" x="238" y="-447.5" font-family="Helvetica,sans-Serif" font-size="10.00">reconstruction</text>
</a>
</g>
</g>
<!-- dir_2182485e2bad8012cf176841f5534402&#45;&gt;dir_5125ceb2b58f632ed0a3019fe2d5cbbc -->
<g id="edge14" class="edge"><title>dir_2182485e2bad8012cf176841f5534402&#45;&gt;dir_5125ceb2b58f632ed0a3019fe2d5cbbc</title>
<path fill="none" stroke="black" d="M183.798,-503.697C192.604,-495.135 203.382,-484.656 213.001,-475.304"/>
<polygon fill="black" stroke="black" points="215.677,-477.585 220.407,-468.104 210.797,-472.566 215.677,-477.585"/>
<g id="a_edge14&#45;headlabel"><a xlink:href="dir_000178_000180.html" target="_top" xlink:title="2">
<text text-anchor="middle" x="215.079" y="-479.626" font-family="Helvetica,sans-Serif" font-size="10.00">2</text>
</a>
</g>
</g>
<!-- dir_2171f7ec022c5423887b07c69b2f5b48 -->
<g id="node9" class="node"><title>dir_2171f7ec022c5423887b07c69b2f5b48</title>
<g id="a_node9"><a xlink:href="dir_2171f7ec022c5423887b07c69b2f5b48.html" target="_top" xlink:title="DataFormats">
<polygon fill="none" stroke="red" points="341,-252 267,-252 267,-216 341,-216 341,-252"/>
<text text-anchor="middle" x="304" y="-231.5" font-family="Helvetica,sans-Serif" font-size="10.00">DataFormats</text>
</a>
</g>
</g>
<!-- dir_2182485e2bad8012cf176841f5534402&#45;&gt;dir_2171f7ec022c5423887b07c69b2f5b48 -->
<g id="edge15" class="edge"><title>dir_2182485e2bad8012cf176841f5534402&#45;&gt;dir_2171f7ec022c5423887b07c69b2f5b48</title>
<path fill="none" stroke="black" d="M181.116,-503.942C187.094,-498.116 194.361,-492.054 202,-488 235.9,-470.012 260.982,-497.101 286,-468 336.162,-409.651 321.879,-309.875 311.107,-262.079"/>
<polygon fill="black" stroke="black" points="314.469,-261.087 308.752,-252.166 307.658,-262.705 314.469,-261.087"/>
<g id="a_edge15&#45;headlabel"><a xlink:href="dir_000178_000043.html" target="_top" xlink:title="7">
<text text-anchor="middle" x="318.062" y="-261.428" font-family="Helvetica,sans-Serif" font-size="10.00">7</text>
</a>
</g>
</g>
<!-- dir_eedff867f3c4e67d20b227cb6e0f96ab&#45;&gt;dir_4ab6b4cc6a7edbff49100e9123df213f -->
<g id="edge1" class="edge"><title>dir_eedff867f3c4e67d20b227cb6e0f96ab&#45;&gt;dir_4ab6b4cc6a7edbff49100e9123df213f</title>
<path fill="none" stroke="black" d="M115.119,-359.796C119.556,-341.764 127.058,-312.679 135,-288 154.848,-226.329 182.705,-155.572 197.953,-117.907"/>
<polygon fill="black" stroke="black" points="201.377,-118.778 201.902,-108.196 194.893,-116.141 201.377,-118.778"/>
<g id="a_edge1&#45;headlabel"><a xlink:href="dir_000164_000016.html" target="_top" xlink:title="1">
<text text-anchor="middle" x="202.653" y="-120.677" font-family="Helvetica,sans-Serif" font-size="10.00">1</text>
</a>
</g>
</g>
<!-- dir_eedff867f3c4e67d20b227cb6e0f96ab&#45;&gt;dir_37c90836491b695b472bf98d1be8336b -->
<g id="edge2" class="edge"><title>dir_eedff867f3c4e67d20b227cb6e0f96ab&#45;&gt;dir_37c90836491b695b472bf98d1be8336b</title>
<path fill="none" stroke="black" d="M95.1601,-359.655C73.6902,-334.273 38,-284.618 38,-235 38,-235 38,-235 38,-161 38,-91.7208 122.1,-49.7743 172.342,-30.8964"/>
<polygon fill="black" stroke="black" points="173.698,-34.1279 181.905,-27.4271 171.31,-27.5477 173.698,-34.1279"/>
<g id="a_edge2&#45;headlabel"><a xlink:href="dir_000164_000073.html" target="_top" xlink:title="4">
<text text-anchor="middle" x="171.287" y="-35.5229" font-family="Helvetica,sans-Serif" font-size="10.00">4</text>
</a>
</g>
</g>
<!-- dir_eedff867f3c4e67d20b227cb6e0f96ab&#45;&gt;dir_85bf31a2e8d306e7598ffcb73f8df6bf -->
<g id="edge3" class="edge"><title>dir_eedff867f3c4e67d20b227cb6e0f96ab&#45;&gt;dir_85bf31a2e8d306e7598ffcb73f8df6bf</title>
<path fill="none" stroke="black" d="M125.831,-359.697C133.025,-351.305 141.797,-341.07 149.69,-331.861"/>
<polygon fill="black" stroke="black" points="152.489,-333.975 156.339,-324.104 147.174,-329.419 152.489,-333.975"/>
<g id="a_edge3&#45;headlabel"><a xlink:href="dir_000164_000137.html" target="_top" xlink:title="2">
<text text-anchor="middle" x="152.305" y="-336.052" font-family="Helvetica,sans-Serif" font-size="10.00">2</text>
</a>
</g>
</g>
<!-- dir_4ab6b4cc6a7edbff49100e9123df213f&#45;&gt;dir_37c90836491b695b472bf98d1be8336b -->
<g id="edge4" class="edge"><title>dir_4ab6b4cc6a7edbff49100e9123df213f&#45;&gt;dir_37c90836491b695b472bf98d1be8336b</title>
<path fill="none" stroke="black" d="M203.084,-71.6966C202.289,-63.9827 202.062,-54.7125 202.405,-46.1124"/>
<polygon fill="black" stroke="black" points="205.898,-46.3243 203.105,-36.1043 198.915,-45.8356 205.898,-46.3243"/>
<g id="a_edge4&#45;headlabel"><a xlink:href="dir_000016_000073.html" target="_top" xlink:title="1">
<text text-anchor="middle" x="208.48" y="-47.6083" font-family="Helvetica,sans-Serif" font-size="10.00">1</text>
</a>
</g>
</g>
<!-- dir_a597e8e061b11201a1dff411feb10d0b&#45;&gt;dir_4ab6b4cc6a7edbff49100e9123df213f -->
<g id="edge5" class="edge"><title>dir_a597e8e061b11201a1dff411feb10d0b&#45;&gt;dir_4ab6b4cc6a7edbff49100e9123df213f</title>
<path fill="none" stroke="black" d="M331.836,-148.324C307.85,-137.13 272.661,-120.708 246.087,-108.307"/>
<polygon fill="black" stroke="black" points="247.265,-104.995 236.723,-103.938 244.305,-111.338 247.265,-104.995"/>
<g id="a_edge5&#45;headlabel"><a xlink:href="dir_000085_000016.html" target="_top" xlink:title="6">
<text text-anchor="middle" x="251.723" y="-101.442" font-family="Helvetica,sans-Serif" font-size="10.00">6</text>
</a>
</g>
</g>
<!-- dir_a597e8e061b11201a1dff411feb10d0b&#45;&gt;dir_37c90836491b695b472bf98d1be8336b -->
<g id="edge6" class="edge"><title>dir_a597e8e061b11201a1dff411feb10d0b&#45;&gt;dir_37c90836491b695b472bf98d1be8336b</title>
<path fill="none" stroke="black" d="M354.885,-143.919C349.405,-124.367 337.997,-92.4193 318,-72 298.161,-51.7423 269.007,-38.1263 245.842,-29.7727"/>
<polygon fill="black" stroke="black" points="246.919,-26.4422 236.325,-26.5107 244.65,-33.064 246.919,-26.4422"/>
<g id="a_edge6&#45;headlabel"><a xlink:href="dir_000085_000073.html" target="_top" xlink:title="8">
<text text-anchor="middle" x="251.24" y="-22.4217" font-family="Helvetica,sans-Serif" font-size="10.00">8</text>
</a>
</g>
</g>
<!-- dir_a597e8e061b11201a1dff411feb10d0b&#45;&gt;dir_2171f7ec022c5423887b07c69b2f5b48 -->
<g id="edge7" class="edge"><title>dir_a597e8e061b11201a1dff411feb10d0b&#45;&gt;dir_2171f7ec022c5423887b07c69b2f5b48</title>
<path fill="none" stroke="black" d="M351.456,-180.104C345.762,-188.467 337.928,-198.694 330.209,-207.92"/>
<polygon fill="black" stroke="black" points="327.385,-205.835 323.511,-215.697 332.689,-210.403 327.385,-205.835"/>
<g id="a_edge7&#45;headlabel"><a xlink:href="dir_000085_000043.html" target="_top" xlink:title="40">
<text text-anchor="middle" x="327.579" y="-198.759" font-family="Helvetica,sans-Serif" font-size="10.00">40</text>
</a>
</g>
</g>
<!-- dir_37c90836491b695b472bf98d1be8336b&#45;&gt;dir_4ab6b4cc6a7edbff49100e9123df213f -->
<g id="edge8" class="edge"><title>dir_37c90836491b695b472bf98d1be8336b&#45;&gt;dir_4ab6b4cc6a7edbff49100e9123df213f</title>
<path fill="none" stroke="black" d="M214.895,-36.1043C215.701,-43.7913 215.937,-53.0537 215.604,-61.6651"/>
<polygon fill="black" stroke="black" points="212.109,-61.4805 214.916,-71.6966 219.092,-61.9597 212.109,-61.4805"/>
<g id="a_edge8&#45;headlabel"><a xlink:href="dir_000073_000016.html" target="_top" xlink:title="8">
<text text-anchor="middle" x="209.522" y="-55.2" font-family="Helvetica,sans-Serif" font-size="10.00">8</text>
</a>
</g>
</g>
<!-- dir_85bf31a2e8d306e7598ffcb73f8df6bf&#45;&gt;dir_4ab6b4cc6a7edbff49100e9123df213f -->
<g id="edge16" class="edge"><title>dir_85bf31a2e8d306e7598ffcb73f8df6bf&#45;&gt;dir_4ab6b4cc6a7edbff49100e9123df213f</title>
<path fill="none" stroke="black" d="M174.045,-287.849C180.633,-250.753 196.249,-162.81 204.187,-118.103"/>
<polygon fill="black" stroke="black" points="207.638,-118.69 205.94,-108.232 200.746,-117.466 207.638,-118.69"/>
<g id="a_edge16&#45;headlabel"><a xlink:href="dir_000137_000016.html" target="_top" xlink:title="2">
<text text-anchor="middle" x="209.805" y="-120.226" font-family="Helvetica,sans-Serif" font-size="10.00">2</text>
</a>
</g>
</g>
<!-- dir_85bf31a2e8d306e7598ffcb73f8df6bf&#45;&gt;dir_37c90836491b695b472bf98d1be8336b -->
<g id="edge17" class="edge"><title>dir_85bf31a2e8d306e7598ffcb73f8df6bf&#45;&gt;dir_37c90836491b695b472bf98d1be8336b</title>
<path fill="none" stroke="black" d="M167.666,-287.797C160.763,-248.448 147.499,-149.317 172,-72 175.12,-62.1549 180.778,-52.5388 186.747,-44.2593"/>
<polygon fill="black" stroke="black" points="189.655,-46.2193 192.986,-36.1616 184.11,-41.9471 189.655,-46.2193"/>
<g id="a_edge17&#45;headlabel"><a xlink:href="dir_000137_000073.html" target="_top" xlink:title="2">
<text text-anchor="middle" x="189.711" y="-48.2996" font-family="Helvetica,sans-Serif" font-size="10.00">2</text>
</a>
</g>
</g>
<!-- dir_85bf31a2e8d306e7598ffcb73f8df6bf&#45;&gt;dir_2171f7ec022c5423887b07c69b2f5b48 -->
<g id="edge18" class="edge"><title>dir_85bf31a2e8d306e7598ffcb73f8df6bf&#45;&gt;dir_2171f7ec022c5423887b07c69b2f5b48</title>
<path fill="none" stroke="black" d="M198.235,-290.666C216.772,-280.91 241.649,-267.816 262.62,-256.779"/>
<polygon fill="black" stroke="black" points="264.421,-259.786 271.64,-252.032 261.161,-253.592 264.421,-259.786"/>
<g id="a_edge18&#45;headlabel"><a xlink:href="dir_000137_000043.html" target="_top" xlink:title="8">
<text text-anchor="middle" x="262.562" y="-261.473" font-family="Helvetica,sans-Serif" font-size="10.00">8</text>
</a>
</g>
</g>
<!-- dir_5125ceb2b58f632ed0a3019fe2d5cbbc&#45;&gt;dir_eedff867f3c4e67d20b227cb6e0f96ab -->
<g id="edge19" class="edge"><title>dir_5125ceb2b58f632ed0a3019fe2d5cbbc&#45;&gt;dir_eedff867f3c4e67d20b227cb6e0f96ab</title>
<path fill="none" stroke="black" d="M206.932,-431.876C188.884,-421.928 166.057,-409.346 147.198,-398.952"/>
<polygon fill="black" stroke="black" points="148.744,-395.808 138.297,-394.046 145.365,-401.938 148.744,-395.808"/>
<g id="a_edge19&#45;headlabel"><a xlink:href="dir_000180_000164.html" target="_top" xlink:title="5">
<text text-anchor="middle" x="153.263" y="-392.556" font-family="Helvetica,sans-Serif" font-size="10.00">5</text>
</a>
</g>
</g>
<!-- dir_5125ceb2b58f632ed0a3019fe2d5cbbc&#45;&gt;dir_4ab6b4cc6a7edbff49100e9123df213f -->
<g id="edge20" class="edge"><title>dir_5125ceb2b58f632ed0a3019fe2d5cbbc&#45;&gt;dir_4ab6b4cc6a7edbff49100e9123df213f</title>
<path fill="none" stroke="black" d="M236.601,-431.733C231.94,-374.194 216.911,-188.658 211.216,-118.351"/>
<polygon fill="black" stroke="black" points="214.681,-117.779 210.385,-108.094 207.704,-118.344 214.681,-117.779"/>
<g id="a_edge20&#45;headlabel"><a xlink:href="dir_000180_000016.html" target="_top" xlink:title="6">
<text text-anchor="middle" x="217.801" y="-118.632" font-family="Helvetica,sans-Serif" font-size="10.00">6</text>
</a>
</g>
</g>
<!-- dir_5125ceb2b58f632ed0a3019fe2d5cbbc&#45;&gt;dir_37c90836491b695b472bf98d1be8336b -->
<g id="edge21" class="edge"><title>dir_5125ceb2b58f632ed0a3019fe2d5cbbc&#45;&gt;dir_37c90836491b695b472bf98d1be8336b</title>
<path fill="none" stroke="black" d="M258.251,-431.691C308.477,-386.547 432.119,-260.621 395,-144 383.106,-106.633 374.875,-96.1761 344,-72 314.917,-49.2271 274.833,-35.1496 245.907,-27.2801"/>
<polygon fill="black" stroke="black" points="246.736,-23.8794 236.177,-24.7514 244.975,-30.6543 246.736,-23.8794"/>
<g id="a_edge21&#45;headlabel"><a xlink:href="dir_000180_000073.html" target="_top" xlink:title="13">
<text text-anchor="middle" x="250.929" y="-19.5356" font-family="Helvetica,sans-Serif" font-size="10.00">13</text>
</a>
</g>
</g>
<!-- dir_5125ceb2b58f632ed0a3019fe2d5cbbc&#45;&gt;dir_85bf31a2e8d306e7598ffcb73f8df6bf -->
<g id="edge22" class="edge"><title>dir_5125ceb2b58f632ed0a3019fe2d5cbbc&#45;&gt;dir_85bf31a2e8d306e7598ffcb73f8df6bf</title>
<path fill="none" stroke="black" d="M229.918,-431.871C218.348,-407.35 196.966,-362.032 183.39,-333.259"/>
<polygon fill="black" stroke="black" points="186.543,-331.74 179.11,-324.189 180.212,-334.727 186.543,-331.74"/>
<g id="a_edge22&#45;headlabel"><a xlink:href="dir_000180_000137.html" target="_top" xlink:title="12">
<text text-anchor="middle" x="190.645" y="-331.279" font-family="Helvetica,sans-Serif" font-size="10.00">12</text>
</a>
</g>
</g>
<!-- dir_5125ceb2b58f632ed0a3019fe2d5cbbc&#45;&gt;dir_2171f7ec022c5423887b07c69b2f5b48 -->
<g id="edge23" class="edge"><title>dir_5125ceb2b58f632ed0a3019fe2d5cbbc&#45;&gt;dir_2171f7ec022c5423887b07c69b2f5b48</title>
<path fill="none" stroke="black" d="M244.001,-431.868C247.582,-421.515 252.163,-408.036 256,-396 270.882,-349.311 286.904,-294.561 296.16,-262.439"/>
<polygon fill="black" stroke="black" points="299.631,-263.036 299.029,-252.458 292.903,-261.102 299.631,-263.036"/>
<g id="a_edge23&#45;headlabel"><a xlink:href="dir_000180_000043.html" target="_top" xlink:title="10">
<text text-anchor="middle" x="301.367" y="-264.775" font-family="Helvetica,sans-Serif" font-size="10.00">10</text>
</a>
</g>
</g>
<!-- dir_2171f7ec022c5423887b07c69b2f5b48&#45;&gt;dir_4ab6b4cc6a7edbff49100e9123df213f -->
<g id="edge24" class="edge"><title>dir_2171f7ec022c5423887b07c69b2f5b48&#45;&gt;dir_4ab6b4cc6a7edbff49100e9123df213f</title>
<path fill="none" stroke="black" d="M292.541,-215.871C275.993,-191.137 245.289,-145.242 226.068,-116.512"/>
<polygon fill="black" stroke="black" points="228.969,-114.555 220.5,-108.189 223.151,-118.447 228.969,-114.555"/>
<g id="a_edge24&#45;headlabel"><a xlink:href="dir_000043_000016.html" target="_top" xlink:title="4">
<text text-anchor="middle" x="233.328" y="-113.463" font-family="Helvetica,sans-Serif" font-size="10.00">4</text>
</a>
</g>
</g>
<!-- dir_2171f7ec022c5423887b07c69b2f5b48&#45;&gt;dir_a597e8e061b11201a1dff411feb10d0b -->
<g id="edge25" class="edge"><title>dir_2171f7ec022c5423887b07c69b2f5b48&#45;&gt;dir_a597e8e061b11201a1dff411feb10d0b</title>
<path fill="none" stroke="black" d="M311.68,-215.697C317.408,-207.305 325.257,-197.07 332.974,-187.861"/>
<polygon fill="black" stroke="black" points="335.784,-189.962 339.666,-180.104 330.484,-185.39 335.784,-189.962"/>
<g id="a_edge25&#45;headlabel"><a xlink:href="dir_000043_000085.html" target="_top" xlink:title="2">
<text text-anchor="middle" x="335.586" y="-192.039" font-family="Helvetica,sans-Serif" font-size="10.00">2</text>
</a>
</g>
</g>
<!-- dir_2171f7ec022c5423887b07c69b2f5b48&#45;&gt;dir_37c90836491b695b472bf98d1be8336b -->
<g id="edge26" class="edge"><title>dir_2171f7ec022c5423887b07c69b2f5b48&#45;&gt;dir_37c90836491b695b472bf98d1be8336b</title>
<path fill="none" stroke="black" d="M299.268,-215.976C290.6,-185.959 270.68,-122.062 245,-72 240.252,-62.7446 234.169,-53.1788 228.36,-44.7643"/>
<polygon fill="black" stroke="black" points="231.117,-42.6007 222.473,-36.4737 225.409,-46.6536 231.117,-42.6007"/>
<g id="a_edge26&#45;headlabel"><a xlink:href="dir_000043_000073.html" target="_top" xlink:title="6">
<text text-anchor="middle" x="235.513" y="-41.3877" font-family="Helvetica,sans-Serif" font-size="10.00">6</text>
</a>
</g>
</g>
</g>
</svg>
        <g id="navigator" transform="translate(0 0)" fill="#404254">
                <rect fill="#f2f5e9" fill-opacity="0.5" stroke="#606060" stroke-width=".5" x="0" y="0" width="60" height="60"/>
                <use id="zoomplus" xlink:href="#zoomPlus" x="17" y="9" onmousedown="handleZoom(evt,'in')"/>
                <use id="zoomminus" xlink:href="#zoomMin" x="42" y="9" onmousedown="handleZoom(evt,'out')"/>
                <use id="reset" xlink:href="#resetDef" x="30" y="36" onmousedown="handleReset()"/>
                <g id="arrowUp" xlink:href="#dirArrow" transform="translate(30 24)" onmousedown="handlePan(0,-1)">
                  <use xlink:href="#rim" fill="#404040">
                        <set attributeName="fill" to="#808080" begin="arrowUp.mouseover" end="arrowUp.mouseout"/>
                  </use>
                  <path fill="none" stroke="white" stroke-width="1.5" d="M0,-3.0v7 M-2.5,-0.5L0,-3.0L2.5,-0.5"/>
                </g>
                <g id="arrowRight" xlink:href="#dirArrow" transform="rotate(90) translate(36 -43)" onmousedown="handlePan(1,0)">
                  <use xlink:href="#rim" fill="#404040">
                        <set attributeName="fill" to="#808080" begin="arrowRight.mouseover" end="arrowRight.mouseout"/>
                  </use>
                  <path fill="none" stroke="white" stroke-width="1.5" d="M0,-3.0v7 M-2.5,-0.5L0,-3.0L2.5,-0.5"/>
                </g>
                <g id="arrowDown" xlink:href="#dirArrow" transform="rotate(180) translate(-30 -48)" onmousedown="handlePan(0,1)">
                  <use xlink:href="#rim" fill="#404040">
                        <set attributeName="fill" to="#808080" begin="arrowDown.mouseover" end="arrowDown.mouseout"/>
                  </use>
                  <path fill="none" stroke="white" stroke-width="1.5" d="M0,-3.0v7 M-2.5,-0.5L0,-3.0L2.5,-0.5"/>
                </g>
                <g id="arrowLeft" xlink:href="#dirArrow" transform="rotate(270) translate(-36 17)" onmousedown="handlePan(-1,0)">
                  <use xlink:href="#rim" fill="#404040">
                        <set attributeName="fill" to="#808080" begin="arrowLeft.mouseover" end="arrowLeft.mouseout"/>
                  </use>
                  <path fill="none" stroke="white" stroke-width="1.5" d="M0,-3.0v7 M-2.5,-0.5L0,-3.0L2.5,-0.5"/>
                </g>
        </g>
        <svg viewBox="0 0 15 15" width="100%" height="30px" preserveAspectRatio="xMaxYMin meet">
         <g id="arrow_out" transform="scale(0.3 0.3)">
          <a xlink:href="dir_d1915fc52ae3a2d414030e7b83b60b4d_dep_org.svg" target="_base">
           <rect id="button" ry="5" rx="5" y="6" x="6" height="38" width="38"
                fill="#f2f5e9" fill-opacity="0.5" stroke="#606060" stroke-width="1.0"/>
           <path id="arrow"
             d="M 11.500037,31.436501 C 11.940474,20.09759 22.043105,11.32322 32.158766,21.979434 L 37.068811,17.246167 C 37.068811,17.246167 37.088388,32 37.088388,32 L 22.160133,31.978069 C 22.160133,31.978069 26.997745,27.140456 26.997745,27.140456 C 18.528582,18.264221 13.291696,25.230495 11.500037,31.436501 z"
             style="fill:#404040;"/>
          </a>
         </g>
        </svg>
</svg>
