<?xml version="1.0" encoding="UTF-8" standalone="no"?>
<!DOCTYPE svg PUBLIC "-//W3C//DTD SVG 1.1//EN"
 "http://www.w3.org/Graphics/SVG/1.1/DTD/svg11.dtd">
<!-- Generated by graphviz version 2.36.0 (20140111.2315)
 -->
<!-- Title: /home/travis/build/AliceO2Group/AliceO2/Detectors/Passive Pages: 1 -->
<svg width="327pt" height="231pt"
 viewBox="0.00 0.00 326.98 231.00" xmlns="http://www.w3.org/2000/svg" xmlns:xlink="http://www.w3.org/1999/xlink">
<g id="graph0" class="graph" transform="scale(1 1) rotate(0) translate(4 227)">
<title>/home/travis/build/AliceO2Group/AliceO2/Detectors/Passive</title>
<g id="clust1" class="cluster"><title>clusterdir_051dca18e802f8e9474f2e30d29c04e0</title>
<g id="a_clust1"><a xlink:href="dir_051dca18e802f8e9474f2e30d29c04e0.html" target="_top" xlink:title="Detectors">
<polygon fill="#ddddee" stroke="black" points="8,-56 8,-215 238,-215 238,-56 8,-56"/>
<text text-anchor="middle" x="123" y="-203" font-family="Helvetica,sans-Serif" font-size="10.00">Detectors</text>
</a>
</g>
</g>
<g id="clust2" class="cluster"><title>clusterdir_f01815b857f9009bea48e2cb39492245</title>
<g id="a_clust2"><a xlink:href="dir_f01815b857f9009bea48e2cb39492245.html" target="_top">
<polygon fill="#eeeeff" stroke="black" points="16,-64 16,-188 230,-188 230,-64 16,-64"/>
</a>
</g>
</g>
<!-- dir_f01815b857f9009bea48e2cb39492245 -->
<g id="node1" class="node"><title>dir_f01815b857f9009bea48e2cb39492245</title>
<text text-anchor="middle" x="195" y="-159.5" font-family="Helvetica,sans-Serif" font-size="10.00">Passive</text>
</g>
<!-- dir_d5ecc06a730b889a096d12946000dd48 -->
<g id="node2" class="node"><title>dir_d5ecc06a730b889a096d12946000dd48</title>
<g id="a_node2"><a xlink:href="dir_d5ecc06a730b889a096d12946000dd48.html" target="_top" xlink:title="include">
<polygon fill="white" stroke="red" points="114,-108 60,-108 60,-72 114,-72 114,-108"/>
<text text-anchor="middle" x="87" y="-87.5" font-family="Helvetica,sans-Serif" font-size="10.00">include</text>
</a>
</g>
</g>
<!-- dir_60ceea4fffc21e7f6027a6980597a46c -->
<g id="node3" class="node"><title>dir_60ceea4fffc21e7f6027a6980597a46c</title>
<g id="a_node3"><a xlink:href="dir_60ceea4fffc21e7f6027a6980597a46c.html" target="_top" xlink:title="macro">
<polygon fill="white" stroke="black" points="78,-180 24,-180 24,-144 78,-144 78,-180"/>
<text text-anchor="middle" x="51" y="-159.5" font-family="Helvetica,sans-Serif" font-size="10.00">macro</text>
</a>
</g>
</g>
<!-- dir_60ceea4fffc21e7f6027a6980597a46c&#45;&gt;dir_d5ecc06a730b889a096d12946000dd48 -->
<g id="edge2" class="edge"><title>dir_60ceea4fffc21e7f6027a6980597a46c&#45;&gt;dir_d5ecc06a730b889a096d12946000dd48</title>
<path fill="none" stroke="black" d="M59.8989,-143.697C63.9968,-135.728 68.9488,-126.1 73.4927,-117.264"/>
<polygon fill="black" stroke="black" points="76.7425,-118.598 78.2035,-108.104 70.5174,-115.396 76.7425,-118.598"/>
<g id="a_edge2&#45;headlabel"><a xlink:href="dir_000200_000198.html" target="_top" xlink:title="2">
<text text-anchor="middle" x="77.6235" y="-120.593" font-family="Helvetica,sans-Serif" font-size="10.00">2</text>
</a>
</g>
</g>
<!-- dir_10d76898a04551763acb591e169d8789 -->
<g id="node4" class="node"><title>dir_10d76898a04551763acb591e169d8789</title>
<g id="a_node4"><a xlink:href="dir_10d76898a04551763acb591e169d8789.html" target="_top" xlink:title="src">
<polygon fill="white" stroke="black" points="150,-180 96,-180 96,-144 150,-144 150,-180"/>
<text text-anchor="middle" x="123" y="-159.5" font-family="Helvetica,sans-Serif" font-size="10.00">src</text>
</a>
</g>
</g>
<!-- dir_10d76898a04551763acb591e169d8789&#45;&gt;dir_d5ecc06a730b889a096d12946000dd48 -->
<g id="edge6" class="edge"><title>dir_10d76898a04551763acb591e169d8789&#45;&gt;dir_d5ecc06a730b889a096d12946000dd48</title>
<path fill="none" stroke="black" d="M114.101,-143.697C110.003,-135.728 105.051,-126.1 100.507,-117.264"/>
<polygon fill="black" stroke="black" points="103.483,-115.396 95.7965,-108.104 97.2575,-118.598 103.483,-115.396"/>
<g id="a_edge6&#45;headlabel"><a xlink:href="dir_000201_000198.html" target="_top" xlink:title="9">
<text text-anchor="middle" x="107.651" y="-114.795" font-family="Helvetica,sans-Serif" font-size="10.00">9</text>
</a>
</g>
</g>
<!-- dir_4ab6b4cc6a7edbff49100e9123df213f -->
<g id="node5" class="node"><title>dir_4ab6b4cc6a7edbff49100e9123df213f</title>
<g id="a_node5"><a xlink:href="dir_4ab6b4cc6a7edbff49100e9123df213f.html" target="_top" xlink:title="Common">
<polygon fill="none" stroke="red" points="301.5,-108 246.5,-108 246.5,-72 301.5,-72 301.5,-108"/>
<text text-anchor="middle" x="274" y="-87.5" font-family="Helvetica,sans-Serif" font-size="10.00">Common</text>
</a>
</g>
</g>
<!-- dir_10d76898a04551763acb591e169d8789&#45;&gt;dir_4ab6b4cc6a7edbff49100e9123df213f -->
<g id="edge4" class="edge"><title>dir_10d76898a04551763acb591e169d8789&#45;&gt;dir_4ab6b4cc6a7edbff49100e9123df213f</title>
<path fill="none" stroke="black" d="M150.114,-148.163C153.111,-146.754 156.119,-145.344 159,-144 184.974,-131.882 214.318,-118.361 236.864,-108.009"/>
<polygon fill="black" stroke="black" points="238.452,-111.131 246.081,-103.779 235.532,-104.769 238.452,-111.131"/>
<g id="a_edge4&#45;headlabel"><a xlink:href="dir_000201_000016.html" target="_top" xlink:title="1">
<text text-anchor="middle" x="236.369" y="-112.711" font-family="Helvetica,sans-Serif" font-size="10.00">1</text>
</a>
</g>
</g>
<!-- dir_37c90836491b695b472bf98d1be8336b -->
<g id="node6" class="node"><title>dir_37c90836491b695b472bf98d1be8336b</title>
<g id="a_node6"><a xlink:href="dir_37c90836491b695b472bf98d1be8336b.html" target="_top" xlink:title="Base">
<polygon fill="none" stroke="red" points="301,-36 247,-36 247,-0 301,-0 301,-36"/>
<text text-anchor="middle" x="274" y="-15.5" font-family="Helvetica,sans-Serif" font-size="10.00">Base</text>
</a>
</g>
</g>
<!-- dir_10d76898a04551763acb591e169d8789&#45;&gt;dir_37c90836491b695b472bf98d1be8336b -->
<g id="edge5" class="edge"><title>dir_10d76898a04551763acb591e169d8789&#45;&gt;dir_37c90836491b695b472bf98d1be8336b</title>
<path fill="none" stroke="black" d="M150.271,-147.406C153.184,-146.171 156.13,-145.007 159,-144 224.097,-121.148 267.245,-162.147 310,-108 324.322,-89.8617 318.698,-77.412 310,-56 308.245,-51.6796 305.716,-47.5869 302.801,-43.808"/>
<polygon fill="black" stroke="black" points="305.2,-41.2376 295.951,-36.0695 299.958,-45.8773 305.2,-41.2376"/>
<g id="a_edge5&#45;headlabel"><a xlink:href="dir_000201_000073.html" target="_top" xlink:title="16">
<text text-anchor="middle" x="309.708" y="-39.5473" font-family="Helvetica,sans-Serif" font-size="10.00">16</text>
</a>
</g>
</g>
<!-- dir_4ab6b4cc6a7edbff49100e9123df213f&#45;&gt;dir_37c90836491b695b472bf98d1be8336b -->
<g id="edge1" class="edge"><title>dir_4ab6b4cc6a7edbff49100e9123df213f&#45;&gt;dir_37c90836491b695b472bf98d1be8336b</title>
<path fill="none" stroke="black" d="M268.084,-71.6966C267.289,-63.9827 267.062,-54.7125 267.405,-46.1124"/>
<polygon fill="black" stroke="black" points="270.898,-46.3243 268.105,-36.1043 263.915,-45.8356 270.898,-46.3243"/>
<g id="a_edge1&#45;headlabel"><a xlink:href="dir_000016_000073.html" target="_top" xlink:title="1">
<text text-anchor="middle" x="273.48" y="-47.6083" font-family="Helvetica,sans-Serif" font-size="10.00">1</text>
</a>
</g>
</g>
<!-- dir_37c90836491b695b472bf98d1be8336b&#45;&gt;dir_4ab6b4cc6a7edbff49100e9123df213f -->
<g id="edge3" class="edge"><title>dir_37c90836491b695b472bf98d1be8336b&#45;&gt;dir_4ab6b4cc6a7edbff49100e9123df213f</title>
<path fill="none" stroke="black" d="M279.895,-36.1043C280.701,-43.7913 280.937,-53.0537 280.604,-61.6651"/>
<polygon fill="black" stroke="black" points="277.109,-61.4805 279.916,-71.6966 284.092,-61.9597 277.109,-61.4805"/>
<g id="a_edge3&#45;headlabel"><a xlink:href="dir_000073_000016.html" target="_top" xlink:title="8">
<text text-anchor="middle" x="274.522" y="-55.2" font-family="Helvetica,sans-Serif" font-size="10.00">8</text>
</a>
</g>
</g>
</g>
</svg>
