<?xml version="1.0" encoding="UTF-8" standalone="no"?>
<!DOCTYPE svg PUBLIC "-//W3C//DTD SVG 1.1//EN"
 "http://www.w3.org/Graphics/SVG/1.1/DTD/svg11.dtd">
<!-- Generated by graphviz version 2.36.0 (20140111.2315)
 -->
<!-- Title: /home/travis/build/AliceO2Group/AliceO2/Detectors/PHOS Pages: 1 -->
<svg width="248pt" height="447pt"
 viewBox="0.00 0.00 248.13 447.00" xmlns="http://www.w3.org/2000/svg" xmlns:xlink="http://www.w3.org/1999/xlink">
<g id="graph0" class="graph" transform="scale(1 1) rotate(0) translate(4 443)">
<title>/home/travis/build/AliceO2Group/AliceO2/Detectors/PHOS</title>
<g id="clust1" class="cluster"><title>clusterdir_051dca18e802f8e9474f2e30d29c04e0</title>
<g id="a_clust1"><a xlink:href="dir_051dca18e802f8e9474f2e30d29c04e0.html" target="_top" xlink:title="Detectors">
<polygon fill="#ddddee" stroke="black" points="20.1277,-200 20.1277,-431 202.128,-431 202.128,-200 20.1277,-200"/>
<text text-anchor="middle" x="111.128" y="-419" font-family="Helvetica,sans-Serif" font-size="10.00">Detectors</text>
</a>
</g>
</g>
<g id="clust2" class="cluster"><title>clusterdir_cd3c152a7db0580c86a4c50ad0325149</title>
<g id="a_clust2"><a xlink:href="dir_cd3c152a7db0580c86a4c50ad0325149.html" target="_top">
<polygon fill="#eeeeff" stroke="black" points="28.1277,-208 28.1277,-404 194.128,-404 194.128,-208 28.1277,-208"/>
</a>
</g>
</g>
<!-- dir_cd3c152a7db0580c86a4c50ad0325149 -->
<g id="node1" class="node"><title>dir_cd3c152a7db0580c86a4c50ad0325149</title>
<text text-anchor="middle" x="159.128" y="-375.5" font-family="Helvetica,sans-Serif" font-size="10.00">PHOS</text>
</g>
<!-- dir_fa21b46838f21636bfdcc60e4853f0ed -->
<g id="node2" class="node"><title>dir_fa21b46838f21636bfdcc60e4853f0ed</title>
<g id="a_node2"><a xlink:href="dir_fa21b46838f21636bfdcc60e4853f0ed.html" target="_top" xlink:title="base">
<polygon fill="white" stroke="red" points="92.1277,-252 38.1277,-252 38.1277,-216 92.1277,-216 92.1277,-252"/>
<text text-anchor="middle" x="65.1277" y="-231.5" font-family="Helvetica,sans-Serif" font-size="10.00">base</text>
</a>
</g>
</g>
<!-- dir_2171f7ec022c5423887b07c69b2f5b48 -->
<g id="node8" class="node"><title>dir_2171f7ec022c5423887b07c69b2f5b48</title>
<g id="a_node8"><a xlink:href="dir_2171f7ec022c5423887b07c69b2f5b48.html" target="_top" xlink:title="DataFormats">
<polygon fill="none" stroke="red" points="92.1277,-180 18.1277,-180 18.1277,-144 92.1277,-144 92.1277,-180"/>
<text text-anchor="middle" x="55.1277" y="-159.5" font-family="Helvetica,sans-Serif" font-size="10.00">DataFormats</text>
</a>
</g>
</g>
<!-- dir_fa21b46838f21636bfdcc60e4853f0ed&#45;&gt;dir_2171f7ec022c5423887b07c69b2f5b48 -->
<g id="edge1" class="edge"><title>dir_fa21b46838f21636bfdcc60e4853f0ed&#45;&gt;dir_2171f7ec022c5423887b07c69b2f5b48</title>
<path fill="none" stroke="black" d="M62.6558,-215.697C61.5538,-207.983 60.2295,-198.712 59.0009,-190.112"/>
<polygon fill="black" stroke="black" points="62.4503,-189.509 57.5712,-180.104 55.5207,-190.499 62.4503,-189.509"/>
<g id="a_edge1&#45;headlabel"><a xlink:href="dir_000147_000043.html" target="_top" xlink:title="1">
<text text-anchor="middle" x="65.7693" y="-190.166" font-family="Helvetica,sans-Serif" font-size="10.00">1</text>
</a>
</g>
</g>
<!-- dir_3af9af54da49e799fe4b1df79119dad7 -->
<g id="node3" class="node"><title>dir_3af9af54da49e799fe4b1df79119dad7</title>
<g id="a_node3"><a xlink:href="dir_3af9af54da49e799fe4b1df79119dad7.html" target="_top" xlink:title="simulation">
<polygon fill="white" stroke="red" points="97.3777,-324 36.8777,-324 36.8777,-288 97.3777,-288 97.3777,-324"/>
<text text-anchor="middle" x="67.1277" y="-303.5" font-family="Helvetica,sans-Serif" font-size="10.00">simulation</text>
</a>
</g>
</g>
<!-- dir_3af9af54da49e799fe4b1df79119dad7&#45;&gt;dir_fa21b46838f21636bfdcc60e4853f0ed -->
<g id="edge4" class="edge"><title>dir_3af9af54da49e799fe4b1df79119dad7&#45;&gt;dir_fa21b46838f21636bfdcc60e4853f0ed</title>
<path fill="none" stroke="black" d="M66.6333,-287.697C66.4129,-279.983 66.1481,-270.712 65.9024,-262.112"/>
<polygon fill="black" stroke="black" points="69.4007,-262 65.6164,-252.104 62.4035,-262.2 69.4007,-262"/>
<g id="a_edge4&#45;headlabel"><a xlink:href="dir_000104_000147.html" target="_top" xlink:title="3">
<text text-anchor="middle" x="72.3414" y="-263.012" font-family="Helvetica,sans-Serif" font-size="10.00">3</text>
</a>
</g>
</g>
<!-- dir_4ab6b4cc6a7edbff49100e9123df213f -->
<g id="node5" class="node"><title>dir_4ab6b4cc6a7edbff49100e9123df213f</title>
<g id="a_node5"><a xlink:href="dir_4ab6b4cc6a7edbff49100e9123df213f.html" target="_top" xlink:title="Common">
<polygon fill="none" stroke="red" points="147.628,-108 92.6277,-108 92.6277,-72 147.628,-72 147.628,-108"/>
<text text-anchor="middle" x="120.128" y="-87.5" font-family="Helvetica,sans-Serif" font-size="10.00">Common</text>
</a>
</g>
</g>
<!-- dir_3af9af54da49e799fe4b1df79119dad7&#45;&gt;dir_4ab6b4cc6a7edbff49100e9123df213f -->
<g id="edge5" class="edge"><title>dir_3af9af54da49e799fe4b1df79119dad7&#45;&gt;dir_4ab6b4cc6a7edbff49100e9123df213f</title>
<path fill="none" stroke="black" d="M80.933,-287.911C88.1742,-278.009 96.4832,-264.968 101.128,-252 117.243,-207.007 120.339,-150.867 120.597,-118.163"/>
<polygon fill="black" stroke="black" points="124.097,-118.018 120.59,-108.021 117.097,-118.023 124.097,-118.018"/>
<g id="a_edge5&#45;headlabel"><a xlink:href="dir_000104_000016.html" target="_top" xlink:title="1">
<text text-anchor="middle" x="126.938" y="-119.111" font-family="Helvetica,sans-Serif" font-size="10.00">1</text>
</a>
</g>
</g>
<!-- dir_37c90836491b695b472bf98d1be8336b -->
<g id="node6" class="node"><title>dir_37c90836491b695b472bf98d1be8336b</title>
<g id="a_node6"><a xlink:href="dir_37c90836491b695b472bf98d1be8336b.html" target="_top" xlink:title="Base">
<polygon fill="none" stroke="red" points="147.128,-36 93.1277,-36 93.1277,-0 147.128,-0 147.128,-36"/>
<text text-anchor="middle" x="120.128" y="-15.5" font-family="Helvetica,sans-Serif" font-size="10.00">Base</text>
</a>
</g>
</g>
<!-- dir_3af9af54da49e799fe4b1df79119dad7&#45;&gt;dir_37c90836491b695b472bf98d1be8336b -->
<g id="edge6" class="edge"><title>dir_3af9af54da49e799fe4b1df79119dad7&#45;&gt;dir_37c90836491b695b472bf98d1be8336b</title>
<path fill="none" stroke="black" d="M47.2132,-287.804C37.4715,-278.258 26.4986,-265.584 20.1277,-252 -0.359298,-208.317 -6.53062,-189.637 9.12772,-144 23.6387,-101.707 60.8851,-65.0471 88.2468,-42.5574"/>
<polygon fill="black" stroke="black" points="90.7658,-45.0243 96.3849,-36.0423 86.391,-39.5597 90.7658,-45.0243"/>
<g id="a_edge6&#45;headlabel"><a xlink:href="dir_000104_000073.html" target="_top" xlink:title="1">
<text text-anchor="middle" x="89.7341" y="-46.9872" font-family="Helvetica,sans-Serif" font-size="10.00">1</text>
</a>
</g>
</g>
<!-- dir_3af9af54da49e799fe4b1df79119dad7&#45;&gt;dir_2171f7ec022c5423887b07c69b2f5b48 -->
<g id="edge7" class="edge"><title>dir_3af9af54da49e799fe4b1df79119dad7&#45;&gt;dir_2171f7ec022c5423887b07c69b2f5b48</title>
<path fill="none" stroke="black" d="M50.6642,-287.919C42.4739,-278.218 33.4241,-265.366 29.1277,-252 22.0551,-229.998 22.1596,-222.036 29.1277,-200 30.3446,-196.152 32.1211,-192.357 34.1835,-188.75"/>
<polygon fill="black" stroke="black" points="37.2013,-190.53 39.7429,-180.244 31.342,-186.7 37.2013,-190.53"/>
<g id="a_edge7&#45;headlabel"><a xlink:href="dir_000104_000043.html" target="_top" xlink:title="1">
<text text-anchor="middle" x="37.6113" y="-192.592" font-family="Helvetica,sans-Serif" font-size="10.00">1</text>
</a>
</g>
</g>
<!-- dir_9e3d25d7c257305d9f7be6cf72d34a88 -->
<g id="node4" class="node"><title>dir_9e3d25d7c257305d9f7be6cf72d34a88</title>
<g id="a_node4"><a xlink:href="dir_9e3d25d7c257305d9f7be6cf72d34a88.html" target="_top" xlink:title="testsimulation">
<polygon fill="white" stroke="black" points="113.378,-396 36.8777,-396 36.8777,-360 113.378,-360 113.378,-396"/>
<text text-anchor="middle" x="75.1277" y="-375.5" font-family="Helvetica,sans-Serif" font-size="10.00">testsimulation</text>
</a>
</g>
</g>
<!-- dir_9e3d25d7c257305d9f7be6cf72d34a88&#45;&gt;dir_3af9af54da49e799fe4b1df79119dad7 -->
<g id="edge9" class="edge"><title>dir_9e3d25d7c257305d9f7be6cf72d34a88&#45;&gt;dir_3af9af54da49e799fe4b1df79119dad7</title>
<path fill="none" stroke="black" d="M73.1502,-359.697C72.2686,-351.983 71.2091,-342.712 70.2263,-334.112"/>
<polygon fill="black" stroke="black" points="73.6954,-333.642 69.0825,-324.104 66.7407,-334.437 73.6954,-333.642"/>
<g id="a_edge9&#45;headlabel"><a xlink:href="dir_000202_000104.html" target="_top" xlink:title="1">
<text text-anchor="middle" x="76.9244" y="-334.391" font-family="Helvetica,sans-Serif" font-size="10.00">1</text>
</a>
</g>
</g>
<!-- dir_9e3d25d7c257305d9f7be6cf72d34a88&#45;&gt;dir_4ab6b4cc6a7edbff49100e9123df213f -->
<g id="edge8" class="edge"><title>dir_9e3d25d7c257305d9f7be6cf72d34a88&#45;&gt;dir_4ab6b4cc6a7edbff49100e9123df213f</title>
<path fill="none" stroke="black" d="M87.1952,-359.552C93.6349,-349.538 101.221,-336.503 106.128,-324 129.914,-263.385 128.197,-244.928 133.128,-180 134.339,-164.046 135.047,-159.884 133.128,-144 132.105,-135.535 130.194,-126.471 128.147,-118.276"/>
<polygon fill="black" stroke="black" points="131.491,-117.234 125.537,-108.471 124.727,-119.034 131.491,-117.234"/>
<g id="a_edge8&#45;headlabel"><a xlink:href="dir_000202_000016.html" target="_top" xlink:title="1">
<text text-anchor="middle" x="135.16" y="-117.477" font-family="Helvetica,sans-Serif" font-size="10.00">1</text>
</a>
</g>
</g>
<!-- dir_f01815b857f9009bea48e2cb39492245 -->
<g id="node7" class="node"><title>dir_f01815b857f9009bea48e2cb39492245</title>
<g id="a_node7"><a xlink:href="dir_f01815b857f9009bea48e2cb39492245.html" target="_top" xlink:title="Passive">
<polygon fill="none" stroke="red" points="240.128,-180 186.128,-180 186.128,-144 240.128,-144 240.128,-180"/>
<text text-anchor="middle" x="213.128" y="-159.5" font-family="Helvetica,sans-Serif" font-size="10.00">Passive</text>
</a>
</g>
</g>
<!-- dir_9e3d25d7c257305d9f7be6cf72d34a88&#45;&gt;dir_f01815b857f9009bea48e2cb39492245 -->
<g id="edge10" class="edge"><title>dir_9e3d25d7c257305d9f7be6cf72d34a88&#45;&gt;dir_f01815b857f9009bea48e2cb39492245</title>
<path fill="none" stroke="black" d="M113.554,-359.899C137.053,-348.728 164.097,-334.346 172.128,-324 202.688,-284.627 210.672,-225.053 212.635,-190.488"/>
<polygon fill="black" stroke="black" points="216.144,-190.344 213.081,-180.201 209.151,-190.04 216.144,-190.344"/>
<g id="a_edge10&#45;headlabel"><a xlink:href="dir_000202_000197.html" target="_top" xlink:title="4">
<text text-anchor="middle" x="218.825" y="-191.558" font-family="Helvetica,sans-Serif" font-size="10.00">4</text>
</a>
</g>
</g>
<!-- dir_4ab6b4cc6a7edbff49100e9123df213f&#45;&gt;dir_37c90836491b695b472bf98d1be8336b -->
<g id="edge2" class="edge"><title>dir_4ab6b4cc6a7edbff49100e9123df213f&#45;&gt;dir_37c90836491b695b472bf98d1be8336b</title>
<path fill="none" stroke="black" d="M114.212,-71.6966C113.416,-63.9827 113.19,-54.7125 113.532,-46.1124"/>
<polygon fill="black" stroke="black" points="117.026,-46.3243 114.233,-36.1043 110.043,-45.8356 117.026,-46.3243"/>
<g id="a_edge2&#45;headlabel"><a xlink:href="dir_000016_000073.html" target="_top" xlink:title="1">
<text text-anchor="middle" x="119.608" y="-47.6083" font-family="Helvetica,sans-Serif" font-size="10.00">1</text>
</a>
</g>
</g>
<!-- dir_37c90836491b695b472bf98d1be8336b&#45;&gt;dir_4ab6b4cc6a7edbff49100e9123df213f -->
<g id="edge3" class="edge"><title>dir_37c90836491b695b472bf98d1be8336b&#45;&gt;dir_4ab6b4cc6a7edbff49100e9123df213f</title>
<path fill="none" stroke="black" d="M126.023,-36.1043C126.828,-43.7913 127.065,-53.0537 126.732,-61.6651"/>
<polygon fill="black" stroke="black" points="123.236,-61.4805 126.043,-71.6966 130.22,-61.9597 123.236,-61.4805"/>
<g id="a_edge3&#45;headlabel"><a xlink:href="dir_000073_000016.html" target="_top" xlink:title="8">
<text text-anchor="middle" x="120.65" y="-55.2" font-family="Helvetica,sans-Serif" font-size="10.00">8</text>
</a>
</g>
</g>
<!-- dir_f01815b857f9009bea48e2cb39492245&#45;&gt;dir_4ab6b4cc6a7edbff49100e9123df213f -->
<g id="edge11" class="edge"><title>dir_f01815b857f9009bea48e2cb39492245&#45;&gt;dir_4ab6b4cc6a7edbff49100e9123df213f</title>
<path fill="none" stroke="black" d="M190.139,-143.697C178.314,-134.796 163.736,-123.823 150.949,-114.199"/>
<polygon fill="black" stroke="black" points="152.947,-111.322 142.852,-108.104 148.737,-116.915 152.947,-111.322"/>
<g id="a_edge11&#45;headlabel"><a xlink:href="dir_000197_000016.html" target="_top" xlink:title="1">
<text text-anchor="middle" x="157.526" y="-108.715" font-family="Helvetica,sans-Serif" font-size="10.00">1</text>
</a>
</g>
</g>
<!-- dir_f01815b857f9009bea48e2cb39492245&#45;&gt;dir_37c90836491b695b472bf98d1be8336b -->
<g id="edge12" class="edge"><title>dir_f01815b857f9009bea48e2cb39492245&#45;&gt;dir_37c90836491b695b472bf98d1be8336b</title>
<path fill="none" stroke="black" d="M202.337,-143.85C190.974,-125.862 172.496,-96.8123 156.128,-72 150.156,-62.9471 143.511,-53.1021 137.572,-44.3816"/>
<polygon fill="black" stroke="black" points="140.45,-42.3898 131.919,-36.1068 134.67,-46.3383 140.45,-42.3898"/>
<g id="a_edge12&#45;headlabel"><a xlink:href="dir_000197_000073.html" target="_top" xlink:title="16">
<text text-anchor="middle" x="144.822" y="-41.2564" font-family="Helvetica,sans-Serif" font-size="10.00">16</text>
</a>
</g>
</g>
<!-- dir_2171f7ec022c5423887b07c69b2f5b48&#45;&gt;dir_4ab6b4cc6a7edbff49100e9123df213f -->
<g id="edge13" class="edge"><title>dir_2171f7ec022c5423887b07c69b2f5b48&#45;&gt;dir_4ab6b4cc6a7edbff49100e9123df213f</title>
<path fill="none" stroke="black" d="M71.1951,-143.697C79.0665,-135.22 88.683,-124.864 97.301,-115.583"/>
<polygon fill="black" stroke="black" points="100.005,-117.814 104.245,-108.104 94.8758,-113.051 100.005,-117.814"/>
<g id="a_edge13&#45;headlabel"><a xlink:href="dir_000043_000016.html" target="_top" xlink:title="4">
<text text-anchor="middle" x="99.64" y="-119.88" font-family="Helvetica,sans-Serif" font-size="10.00">4</text>
</a>
</g>
</g>
<!-- dir_2171f7ec022c5423887b07c69b2f5b48&#45;&gt;dir_37c90836491b695b472bf98d1be8336b -->
<g id="edge14" class="edge"><title>dir_2171f7ec022c5423887b07c69b2f5b48&#45;&gt;dir_37c90836491b695b472bf98d1be8336b</title>
<path fill="none" stroke="black" d="M58.9148,-143.677C63.3092,-125.295 71.4742,-95.6918 83.1277,-72 87.7596,-62.5834 93.9447,-52.9741 99.9303,-44.5695"/>
<polygon fill="black" stroke="black" points="102.906,-46.4317 106.022,-36.3056 97.2712,-42.2781 102.906,-46.4317"/>
<g id="a_edge14&#45;headlabel"><a xlink:href="dir_000043_000073.html" target="_top" xlink:title="6">
<text text-anchor="middle" x="103.058" y="-48.5099" font-family="Helvetica,sans-Serif" font-size="10.00">6</text>
</a>
</g>
</g>
</g>
</svg>
