<?xml version="1.0" encoding="UTF-8" standalone="no"?>
<!DOCTYPE svg PUBLIC "-//W3C//DTD SVG 1.1//EN"
 "http://www.w3.org/Graphics/SVG/1.1/DTD/svg11.dtd">
<!-- Generated by graphviz version 2.36.0 (20140111.2315)
 -->
<!-- Title: /home/travis/build/AliceO2Group/AliceO2/DataFormats Pages: 1 -->
<svg width="500pt" height="204pt"
 viewBox="0.00 0.00 500.39 204.00" xmlns="http://www.w3.org/2000/svg" xmlns:xlink="http://www.w3.org/1999/xlink">
<g id="graph0" class="graph" transform="scale(1 1) rotate(0) translate(4 200)">
<title>/home/travis/build/AliceO2Group/AliceO2/DataFormats</title>
<g id="clust1" class="cluster"><title>clusterdir_2171f7ec022c5423887b07c69b2f5b48</title>
<g id="a_clust1"><a xlink:href="dir_2171f7ec022c5423887b07c69b2f5b48.html" target="_top">
<polygon fill="#eeeeff" stroke="black" points="8,-64 8,-188 412,-188 412,-64 8,-64"/>
</a>
</g>
</g>
<!-- dir_2171f7ec022c5423887b07c69b2f5b48 -->
<g id="node1" class="node"><title>dir_2171f7ec022c5423887b07c69b2f5b48</title>
<text text-anchor="middle" x="367" y="-159.5" font-family="Helvetica,sans-Serif" font-size="10.00">DataFormats</text>
</g>
<!-- dir_183e7c4434404fe9096e1bd8673e1fcf -->
<g id="node2" class="node"><title>dir_183e7c4434404fe9096e1bd8673e1fcf</title>
<g id="a_node2"><a xlink:href="dir_183e7c4434404fe9096e1bd8673e1fcf.html" target="_top" xlink:title="Headers">
<polygon fill="white" stroke="red" points="76,-108 22,-108 22,-72 76,-72 76,-108"/>
<text text-anchor="middle" x="49" y="-87.5" font-family="Helvetica,sans-Serif" font-size="10.00">Headers</text>
</a>
</g>
</g>
<!-- dir_dfa95816b29f32ea9733fcc47ad2b363 -->
<g id="node3" class="node"><title>dir_dfa95816b29f32ea9733fcc47ad2b363</title>
<g id="a_node3"><a xlink:href="dir_dfa95816b29f32ea9733fcc47ad2b363.html" target="_top" xlink:title="Legacy">
<polygon fill="white" stroke="red" points="312,-180 258,-180 258,-144 312,-144 312,-180"/>
<text text-anchor="middle" x="285" y="-159.5" font-family="Helvetica,sans-Serif" font-size="10.00">Legacy</text>
</a>
</g>
</g>
<!-- dir_d462256f2f72f303235b8fb5b5a9f479 -->
<g id="node4" class="node"><title>dir_d462256f2f72f303235b8fb5b5a9f479</title>
<g id="a_node4"><a xlink:href="dir_d462256f2f72f303235b8fb5b5a9f479.html" target="_top" xlink:title="Parameters">
<polygon fill="white" stroke="red" points="239.25,-180 172.75,-180 172.75,-144 239.25,-144 239.25,-180"/>
<text text-anchor="middle" x="206" y="-159.5" font-family="Helvetica,sans-Serif" font-size="10.00">Parameters</text>
</a>
</g>
</g>
<!-- dir_4ab6b4cc6a7edbff49100e9123df213f -->
<g id="node8" class="node"><title>dir_4ab6b4cc6a7edbff49100e9123df213f</title>
<g id="a_node8"><a xlink:href="dir_4ab6b4cc6a7edbff49100e9123df213f.html" target="_top" xlink:title="Common">
<polygon fill="none" stroke="red" points="475.5,-108 420.5,-108 420.5,-72 475.5,-72 475.5,-108"/>
<text text-anchor="middle" x="448" y="-87.5" font-family="Helvetica,sans-Serif" font-size="10.00">Common</text>
</a>
</g>
</g>
<!-- dir_d462256f2f72f303235b8fb5b5a9f479&#45;&gt;dir_4ab6b4cc6a7edbff49100e9123df213f -->
<g id="edge7" class="edge"><title>dir_d462256f2f72f303235b8fb5b5a9f479&#45;&gt;dir_4ab6b4cc6a7edbff49100e9123df213f</title>
<path fill="none" stroke="black" d="M239.616,-147.105C242.765,-145.987 245.927,-144.932 249,-144 318.538,-122.915 342.614,-133.083 410.823,-109.666"/>
<polygon fill="black" stroke="black" points="412.035,-112.95 420.285,-106.303 409.69,-106.354 412.035,-112.95"/>
<g id="a_edge7&#45;headlabel"><a xlink:href="dir_000053_000016.html" target="_top" xlink:title="3">
<text text-anchor="middle" x="409.598" y="-114.329" font-family="Helvetica,sans-Serif" font-size="10.00">3</text>
</a>
</g>
</g>
<!-- dir_051dca18e802f8e9474f2e30d29c04e0 -->
<g id="node9" class="node"><title>dir_051dca18e802f8e9474f2e30d29c04e0</title>
<g id="a_node9"><a xlink:href="dir_051dca18e802f8e9474f2e30d29c04e0.html" target="_top" xlink:title="Detectors">
<polygon fill="none" stroke="red" points="449.25,-36 390.75,-36 390.75,-0 449.25,-0 449.25,-36"/>
<text text-anchor="middle" x="420" y="-15.5" font-family="Helvetica,sans-Serif" font-size="10.00">Detectors</text>
</a>
</g>
</g>
<!-- dir_d462256f2f72f303235b8fb5b5a9f479&#45;&gt;dir_051dca18e802f8e9474f2e30d29c04e0 -->
<g id="edge8" class="edge"><title>dir_d462256f2f72f303235b8fb5b5a9f479&#45;&gt;dir_051dca18e802f8e9474f2e30d29c04e0</title>
<path fill="none" stroke="black" d="M239.559,-146.907C242.72,-145.83 245.9,-144.839 249,-144 299.998,-130.201 449.587,-148.086 484,-108 496.738,-93.1621 493.013,-81.3548 484,-64 478.229,-52.8875 468.315,-43.943 457.99,-37.0459"/>
<polygon fill="black" stroke="black" points="459.66,-33.9642 449.303,-31.7314 456.007,-39.9355 459.66,-33.9642"/>
<g id="a_edge8&#45;headlabel"><a xlink:href="dir_000053_000072.html" target="_top" xlink:title="1">
<text text-anchor="middle" x="464.208" y="-30.918" font-family="Helvetica,sans-Serif" font-size="10.00">1</text>
</a>
</g>
</g>
<!-- dir_047746f9f311f49446db9474b7431d0d -->
<g id="node5" class="node"><title>dir_047746f9f311f49446db9474b7431d0d</title>
<g id="a_node5"><a xlink:href="dir_047746f9f311f49446db9474b7431d0d.html" target="_top" xlink:title="simulation">
<polygon fill="white" stroke="red" points="325.25,-108 264.75,-108 264.75,-72 325.25,-72 325.25,-108"/>
<text text-anchor="middle" x="295" y="-87.5" font-family="Helvetica,sans-Serif" font-size="10.00">simulation</text>
</a>
</g>
</g>
<!-- dir_047746f9f311f49446db9474b7431d0d&#45;&gt;dir_4ab6b4cc6a7edbff49100e9123df213f -->
<g id="edge5" class="edge"><title>dir_047746f9f311f49446db9474b7431d0d&#45;&gt;dir_4ab6b4cc6a7edbff49100e9123df213f</title>
<path fill="none" stroke="black" d="M325.48,-90C353.613,-90 381.745,-90 409.877,-90"/>
<polygon fill="black" stroke="black" points="410.242,-93.5001 420.242,-90 410.242,-86.5001 410.242,-93.5001"/>
<g id="a_edge5&#45;headlabel"><a xlink:href="dir_000057_000016.html" target="_top" xlink:title="1">
<text text-anchor="middle" x="406.647" y="-93.8393" font-family="Helvetica,sans-Serif" font-size="10.00">1</text>
</a>
</g>
</g>
<!-- dir_047746f9f311f49446db9474b7431d0d&#45;&gt;dir_051dca18e802f8e9474f2e30d29c04e0 -->
<g id="edge6" class="edge"><title>dir_047746f9f311f49446db9474b7431d0d&#45;&gt;dir_051dca18e802f8e9474f2e30d29c04e0</title>
<path fill="none" stroke="black" d="M319.681,-71.8761C337.383,-61.3461 361.421,-47.8654 381.587,-37.1512"/>
<polygon fill="black" stroke="black" points="383.32,-40.1945 390.543,-32.4436 380.063,-33.9983 383.32,-40.1945"/>
<g id="a_edge6&#45;headlabel"><a xlink:href="dir_000057_000072.html" target="_top" xlink:title="5">
<text text-anchor="middle" x="381.459" y="-41.8801" font-family="Helvetica,sans-Serif" font-size="10.00">5</text>
</a>
</g>
</g>
<!-- dir_938f0f489a9afdd9521c88acbea7d897 -->
<g id="node6" class="node"><title>dir_938f0f489a9afdd9521c88acbea7d897</title>
<g id="a_node6"><a xlink:href="dir_938f0f489a9afdd9521c88acbea7d897.html" target="_top" xlink:title="TimeFrame">
<polygon fill="white" stroke="red" points="82,-180 16,-180 16,-144 82,-144 82,-180"/>
<text text-anchor="middle" x="49" y="-159.5" font-family="Helvetica,sans-Serif" font-size="10.00">TimeFrame</text>
</a>
</g>
</g>
<!-- dir_938f0f489a9afdd9521c88acbea7d897&#45;&gt;dir_183e7c4434404fe9096e1bd8673e1fcf -->
<g id="edge11" class="edge"><title>dir_938f0f489a9afdd9521c88acbea7d897&#45;&gt;dir_183e7c4434404fe9096e1bd8673e1fcf</title>
<path fill="none" stroke="black" d="M49,-143.697C49,-135.983 49,-126.712 49,-118.112"/>
<polygon fill="black" stroke="black" points="52.5001,-118.104 49,-108.104 45.5001,-118.104 52.5001,-118.104"/>
<g id="a_edge11&#45;headlabel"><a xlink:href="dir_000062_000044.html" target="_top" xlink:title="2">
<text text-anchor="middle" x="55.3393" y="-119.199" font-family="Helvetica,sans-Serif" font-size="10.00">2</text>
</a>
</g>
</g>
<!-- dir_ca8d7a97db1fcc83aa37982b02bd5e83 -->
<g id="node7" class="node"><title>dir_ca8d7a97db1fcc83aa37982b02bd5e83</title>
<g id="a_node7"><a xlink:href="dir_ca8d7a97db1fcc83aa37982b02bd5e83.html" target="_top" xlink:title="TPC">
<polygon fill="white" stroke="red" points="154,-180 100,-180 100,-144 154,-144 154,-180"/>
<text text-anchor="middle" x="127" y="-159.5" font-family="Helvetica,sans-Serif" font-size="10.00">TPC</text>
</a>
</g>
</g>
<!-- dir_ca8d7a97db1fcc83aa37982b02bd5e83&#45;&gt;dir_047746f9f311f49446db9474b7431d0d -->
<g id="edge10" class="edge"><title>dir_ca8d7a97db1fcc83aa37982b02bd5e83&#45;&gt;dir_047746f9f311f49446db9474b7431d0d</title>
<path fill="none" stroke="black" d="M154.048,-148.017C157.057,-146.635 160.086,-145.272 163,-144 193.606,-130.643 228.709,-116.609 255.018,-106.34"/>
<polygon fill="black" stroke="black" points="256.591,-109.484 264.643,-102.598 254.055,-102.96 256.591,-109.484"/>
<g id="a_edge10&#45;headlabel"><a xlink:href="dir_000067_000057.html" target="_top" xlink:title="2">
<text text-anchor="middle" x="254.27" y="-110.933" font-family="Helvetica,sans-Serif" font-size="10.00">2</text>
</a>
</g>
</g>
<!-- dir_ca8d7a97db1fcc83aa37982b02bd5e83&#45;&gt;dir_051dca18e802f8e9474f2e30d29c04e0 -->
<g id="edge9" class="edge"><title>dir_ca8d7a97db1fcc83aa37982b02bd5e83&#45;&gt;dir_051dca18e802f8e9474f2e30d29c04e0</title>
<path fill="none" stroke="black" d="M154.244,-147.328C157.162,-146.107 160.117,-144.969 163,-144 236.617,-119.249 268.205,-149.268 334,-108 354.936,-94.8682 351.016,-81.9531 368,-64 374.869,-56.7392 382.806,-49.4147 390.379,-42.8448"/>
<polygon fill="black" stroke="black" points="393.025,-45.1896 398.385,-36.0505 388.496,-39.8525 393.025,-45.1896"/>
<g id="a_edge9&#45;headlabel"><a xlink:href="dir_000067_000072.html" target="_top" xlink:title="2">
<text text-anchor="middle" x="392.121" y="-47.1803" font-family="Helvetica,sans-Serif" font-size="10.00">2</text>
</a>
</g>
</g>
<!-- dir_4ab6b4cc6a7edbff49100e9123df213f&#45;&gt;dir_051dca18e802f8e9474f2e30d29c04e0 -->
<g id="edge1" class="edge"><title>dir_4ab6b4cc6a7edbff49100e9123df213f&#45;&gt;dir_051dca18e802f8e9474f2e30d29c04e0</title>
<path fill="none" stroke="black" d="M435.163,-71.6966C431.239,-63.8979 427.261,-54.5085 424.148,-45.8292"/>
<polygon fill="black" stroke="black" points="427.398,-44.5086 420.947,-36.1043 420.749,-46.6973 427.398,-44.5086"/>
<g id="a_edge1&#45;headlabel"><a xlink:href="dir_000016_000072.html" target="_top" xlink:title="1">
<text text-anchor="middle" x="431.219" y="-44.5352" font-family="Helvetica,sans-Serif" font-size="10.00">1</text>
</a>
</g>
</g>
<!-- dir_051dca18e802f8e9474f2e30d29c04e0&#45;&gt;dir_047746f9f311f49446db9474b7431d0d -->
<g id="edge3" class="edge"><title>dir_051dca18e802f8e9474f2e30d29c04e0&#45;&gt;dir_047746f9f311f49446db9474b7431d0d</title>
<path fill="none" stroke="black" d="M395.201,-36.194C377.795,-46.5445 354.303,-59.727 334.386,-70.3313"/>
<polygon fill="black" stroke="black" points="332.737,-67.2443 325.521,-75.0027 336,-73.437 332.737,-67.2443"/>
<g id="a_edge3&#45;headlabel"><a xlink:href="dir_000072_000057.html" target="_top" xlink:title="68">
<text text-anchor="middle" x="334.593" y="-60.5567" font-family="Helvetica,sans-Serif" font-size="10.00">68</text>
</a>
</g>
</g>
<!-- dir_051dca18e802f8e9474f2e30d29c04e0&#45;&gt;dir_ca8d7a97db1fcc83aa37982b02bd5e83 -->
<g id="edge4" class="edge"><title>dir_051dca18e802f8e9474f2e30d29c04e0&#45;&gt;dir_ca8d7a97db1fcc83aa37982b02bd5e83</title>
<path fill="none" stroke="black" d="M414.916,-36.139C407.882,-56.683 393.118,-90.5215 368,-108 294.664,-159.03 254.003,-118.951 163.961,-144.285"/>
<polygon fill="black" stroke="black" points="162.774,-140.988 154.212,-147.228 164.797,-147.689 162.774,-140.988"/>
<g id="a_edge4&#45;headlabel"><a xlink:href="dir_000072_000067.html" target="_top" xlink:title="15">
<text text-anchor="middle" x="165.395" y="-134.731" font-family="Helvetica,sans-Serif" font-size="10.00">15</text>
</a>
</g>
</g>
<!-- dir_051dca18e802f8e9474f2e30d29c04e0&#45;&gt;dir_4ab6b4cc6a7edbff49100e9123df213f -->
<g id="edge2" class="edge"><title>dir_051dca18e802f8e9474f2e30d29c04e0&#45;&gt;dir_4ab6b4cc6a7edbff49100e9123df213f</title>
<path fill="none" stroke="black" d="M432.737,-36.1043C436.66,-43.8757 440.645,-53.2575 443.772,-61.9488"/>
<polygon fill="black" stroke="black" points="440.533,-63.3003 446.994,-71.6966 447.179,-61.1034 440.533,-63.3003"/>
<g id="a_edge2&#45;headlabel"><a xlink:href="dir_000072_000016.html" target="_top" xlink:title="36">
<text text-anchor="middle" x="436.709" y="-58.2784" font-family="Helvetica,sans-Serif" font-size="10.00">36</text>
</a>
</g>
</g>
</g>
</svg>
