<?xml version="1.0" encoding="UTF-8" standalone="no"?>
<!DOCTYPE svg PUBLIC "-//W3C//DTD SVG 1.1//EN"
 "http://www.w3.org/Graphics/SVG/1.1/DTD/svg11.dtd">
<!-- Generated by graphviz version 2.36.0 (20140111.2315)
 -->
<!-- Title: /home/travis/build/AliceO2Group/AliceO2/Detectors/EMCAL Pages: 1 -->
<!--zoomable 375 -->
<svg id="main" version="1.1" xmlns="http://www.w3.org/2000/svg" xmlns:xlink="http://www.w3.org/1999/xlink" xml:space="preserve" onload="init(evt)">
<style type="text/css"><![CDATA[
.edge:hover path { stroke: red; }
.edge:hover polygon { stroke: red; fill: red; }
]]></style>
<script type="text/javascript"><![CDATA[
var edges = document.getElementsByTagName('g');
if (edges && edges.length) {
  for (var i=0;i<edges.length;i++) {
    if (edges[i].id.substr(0,4)=='edge') {
      edges[i].setAttribute('class','edge');
    }
  }
}
]]></script>
        <defs>
                <circle id="rim" cx="0" cy="0" r="7"/>
                <circle id="rim2" cx="0" cy="0" r="3.5"/>
                <g id="zoomPlus">
                        <use xlink:href="#rim" fill="#404040">
                                <set attributeName="fill" to="#808080" begin="zoomplus.mouseover" end="zoomplus.mouseout"/>
                        </use>
                        <path d="M-4,0h8M0,-4v8" fill="none" stroke="white" stroke-width="1.5" pointer-events="none"/>
                </g>
                <g id="zoomMin">
                        <use xlink:href="#rim" fill="#404040">
                                <set attributeName="fill" to="#808080" begin="zoomminus.mouseover" end="zoomminus.mouseout"/>
                        </use>
                        <path d="M-4,0h8" fill="none" stroke="white" stroke-width="1.5" pointer-events="none"/>
                </g>
                <g id="dirArrow">
                        <path fill="none" stroke="white" stroke-width="1.5" d="M0,-3.0v7 M-2.5,-0.5L0,-3.0L2.5,-0.5"/>
                </g>
               <g id="resetDef">
                       <use xlink:href="#rim2" fill="#404040">
                               <set attributeName="fill" to="#808080" begin="reset.mouseover" end="reset.mouseout"/>
                       </use>
               </g>
        </defs>

<script type="text/javascript">
var viewWidth = 532;
var viewHeight = 375;
var sectionId = 'dynsection-0';
</script>
<script xlink:href="svgpan.js"/>
<svg id="graph" class="graph">
<g id="viewport">
<title>/home/travis/build/AliceO2Group/AliceO2/Detectors/EMCAL</title>
<g id="clust1" class="cluster"><title>clusterdir_051dca18e802f8e9474f2e30d29c04e0</title>
<g id="a_clust1"><a xlink:href="dir_051dca18e802f8e9474f2e30d29c04e0.html" target="_top" xlink:title="Detectors">
<polygon fill="#ddddee" stroke="black" points="8,-200 8,-359 269,-359 269,-200 8,-200"/>
<text text-anchor="middle" x="138.5" y="-347" font-family="Helvetica,sans-Serif" font-size="10.00">Detectors</text>
</a>
</g>
</g>
<g id="clust2" class="cluster"><title>clusterdir_088378b58cb1ba39db48039cbd66d10f</title>
<g id="a_clust2"><a xlink:href="dir_088378b58cb1ba39db48039cbd66d10f.html" target="_top">
<polygon fill="#eeeeff" stroke="black" points="16,-208 16,-332 261,-332 261,-208 16,-208"/>
</a>
</g>
</g>
<!-- dir_088378b58cb1ba39db48039cbd66d10f -->
<g id="node1" class="node"><title>dir_088378b58cb1ba39db48039cbd66d10f</title>
<text text-anchor="middle" x="226" y="-303.5" font-family="Helvetica,sans-Serif" font-size="10.00">EMCAL</text>
</g>
<!-- dir_478733f24fb8878a4cdf7773310adedd -->
<g id="node2" class="node"><title>dir_478733f24fb8878a4cdf7773310adedd</title>
<g id="a_node2"><a xlink:href="dir_478733f24fb8878a4cdf7773310adedd.html" target="_top" xlink:title="base">
<polygon fill="white" stroke="red" points="213,-252 159,-252 159,-216 213,-216 213,-252"/>
<text text-anchor="middle" x="186" y="-231.5" font-family="Helvetica,sans-Serif" font-size="10.00">base</text>
</a>
</g>
</g>
<!-- dir_4ab6b4cc6a7edbff49100e9123df213f -->
<g id="node6" class="node"><title>dir_4ab6b4cc6a7edbff49100e9123df213f</title>
<g id="a_node6"><a xlink:href="dir_4ab6b4cc6a7edbff49100e9123df213f.html" target="_top" xlink:title="Common">
<polygon fill="none" stroke="red" points="239.5,-108 184.5,-108 184.5,-72 239.5,-72 239.5,-108"/>
<text text-anchor="middle" x="212" y="-87.5" font-family="Helvetica,sans-Serif" font-size="10.00">Common</text>
</a>
</g>
</g>
<!-- dir_478733f24fb8878a4cdf7773310adedd&#45;&gt;dir_4ab6b4cc6a7edbff49100e9123df213f -->
<g id="edge18" class="edge"><title>dir_478733f24fb8878a4cdf7773310adedd&#45;&gt;dir_4ab6b4cc6a7edbff49100e9123df213f</title>
<path fill="none" stroke="black" d="M186.008,-215.743C186.329,-197.669 187.733,-168.55 193,-144 194.866,-135.303 197.806,-126.092 200.821,-117.831"/>
<polygon fill="black" stroke="black" points="204.154,-118.915 204.469,-108.325 197.619,-116.408 204.154,-118.915"/>
<g id="a_edge18&#45;headlabel"><a xlink:href="dir_000077_000016.html" target="_top" xlink:title="1">
<text text-anchor="middle" x="205.517" y="-120.788" font-family="Helvetica,sans-Serif" font-size="10.00">1</text>
</a>
</g>
</g>
<!-- dir_2171f7ec022c5423887b07c69b2f5b48 -->
<g id="node11" class="node"><title>dir_2171f7ec022c5423887b07c69b2f5b48</title>
<g id="a_node11"><a xlink:href="dir_2171f7ec022c5423887b07c69b2f5b48.html" target="_top" xlink:title="DataFormats">
<polygon fill="none" stroke="red" points="309,-180 235,-180 235,-144 309,-144 309,-180"/>
<text text-anchor="middle" x="272" y="-159.5" font-family="Helvetica,sans-Serif" font-size="10.00">DataFormats</text>
</a>
</g>
</g>
<!-- dir_478733f24fb8878a4cdf7773310adedd&#45;&gt;dir_2171f7ec022c5423887b07c69b2f5b48 -->
<g id="edge19" class="edge"><title>dir_478733f24fb8878a4cdf7773310adedd&#45;&gt;dir_2171f7ec022c5423887b07c69b2f5b48</title>
<path fill="none" stroke="black" d="M207.258,-215.697C218.089,-206.881 231.418,-196.032 243.16,-186.474"/>
<polygon fill="black" stroke="black" points="245.44,-189.132 250.986,-180.104 241.021,-183.703 245.44,-189.132"/>
<g id="a_edge19&#45;headlabel"><a xlink:href="dir_000077_000043.html" target="_top" xlink:title="1">
<text text-anchor="middle" x="244.444" y="-191.103" font-family="Helvetica,sans-Serif" font-size="10.00">1</text>
</a>
</g>
</g>
<!-- dir_40743f2e882add17463d3ecfa83bffd4 -->
<g id="node3" class="node"><title>dir_40743f2e882add17463d3ecfa83bffd4</title>
<g id="a_node3"><a xlink:href="dir_40743f2e882add17463d3ecfa83bffd4.html" target="_top" xlink:title="simulation">
<polygon fill="white" stroke="red" points="85.25,-324 24.75,-324 24.75,-288 85.25,-288 85.25,-324"/>
<text text-anchor="middle" x="55" y="-303.5" font-family="Helvetica,sans-Serif" font-size="10.00">simulation</text>
</a>
</g>
</g>
<!-- dir_40743f2e882add17463d3ecfa83bffd4&#45;&gt;dir_478733f24fb8878a4cdf7773310adedd -->
<g id="edge3" class="edge"><title>dir_40743f2e882add17463d3ecfa83bffd4&#45;&gt;dir_478733f24fb8878a4cdf7773310adedd</title>
<path fill="none" stroke="black" d="M85.3833,-288.765C104.654,-278.468 129.681,-265.094 149.954,-254.261"/>
<polygon fill="black" stroke="black" points="151.726,-257.283 158.896,-249.483 148.427,-251.109 151.726,-257.283"/>
<g id="a_edge3&#45;headlabel"><a xlink:href="dir_000089_000077.html" target="_top" xlink:title="4">
<text text-anchor="middle" x="149.894" y="-258.981" font-family="Helvetica,sans-Serif" font-size="10.00">4</text>
</a>
</g>
</g>
<!-- dir_40743f2e882add17463d3ecfa83bffd4&#45;&gt;dir_4ab6b4cc6a7edbff49100e9123df213f -->
<g id="edge1" class="edge"><title>dir_40743f2e882add17463d3ecfa83bffd4&#45;&gt;dir_4ab6b4cc6a7edbff49100e9123df213f</title>
<path fill="none" stroke="black" d="M63.4264,-287.995C78.9829,-257.461 114.274,-192.049 154,-144 162.573,-133.631 173.149,-123.385 182.913,-114.705"/>
<polygon fill="black" stroke="black" points="185.257,-117.306 190.516,-108.109 180.669,-112.019 185.257,-117.306"/>
<g id="a_edge1&#45;headlabel"><a xlink:href="dir_000089_000016.html" target="_top" xlink:title="1">
<text text-anchor="middle" x="184.403" y="-119.306" font-family="Helvetica,sans-Serif" font-size="10.00">1</text>
</a>
</g>
</g>
<!-- dir_37c90836491b695b472bf98d1be8336b -->
<g id="node8" class="node"><title>dir_37c90836491b695b472bf98d1be8336b</title>
<g id="a_node8"><a xlink:href="dir_37c90836491b695b472bf98d1be8336b.html" target="_top" xlink:title="Base">
<polygon fill="none" stroke="red" points="299,-36 245,-36 245,-0 299,-0 299,-36"/>
<text text-anchor="middle" x="272" y="-15.5" font-family="Helvetica,sans-Serif" font-size="10.00">Base</text>
</a>
</g>
</g>
<!-- dir_40743f2e882add17463d3ecfa83bffd4&#45;&gt;dir_37c90836491b695b472bf98d1be8336b -->
<g id="edge2" class="edge"><title>dir_40743f2e882add17463d3ecfa83bffd4&#45;&gt;dir_37c90836491b695b472bf98d1be8336b</title>
<path fill="none" stroke="black" d="M56.6868,-287.929C59.2885,-266.548 65.4723,-229.18 79,-200 108.909,-135.485 121.243,-118.551 175,-72 193.077,-56.3462 216.538,-43.3743 235.859,-34.1822"/>
<polygon fill="black" stroke="black" points="237.356,-37.3461 244.969,-29.9781 234.423,-30.9902 237.356,-37.3461"/>
<g id="a_edge2&#45;headlabel"><a xlink:href="dir_000089_000073.html" target="_top" xlink:title="1">
<text text-anchor="middle" x="235.282" y="-38.9302" font-family="Helvetica,sans-Serif" font-size="10.00">1</text>
</a>
</g>
</g>
<!-- dir_40743f2e882add17463d3ecfa83bffd4&#45;&gt;dir_2171f7ec022c5423887b07c69b2f5b48 -->
<g id="edge4" class="edge"><title>dir_40743f2e882add17463d3ecfa83bffd4&#45;&gt;dir_2171f7ec022c5423887b07c69b2f5b48</title>
<path fill="none" stroke="black" d="M85.4979,-291.235C88.352,-290.09 91.2173,-288.993 94,-288 149.661,-268.147 175.553,-288.538 222,-252 242.257,-236.064 255.635,-209.512 263.412,-189.548"/>
<polygon fill="black" stroke="black" points="266.728,-190.671 266.88,-180.077 260.155,-188.264 266.728,-190.671"/>
<g id="a_edge4&#45;headlabel"><a xlink:href="dir_000089_000043.html" target="_top" xlink:title="1">
<text text-anchor="middle" x="268.158" y="-192.522" font-family="Helvetica,sans-Serif" font-size="10.00">1</text>
</a>
</g>
</g>
<!-- dir_369d121286168272c3728271f6937381 -->
<g id="node4" class="node"><title>dir_369d121286168272c3728271f6937381</title>
<g id="a_node4"><a xlink:href="dir_369d121286168272c3728271f6937381.html" target="_top" xlink:title="testsimulation">
<polygon fill="white" stroke="black" points="180.25,-324 103.75,-324 103.75,-288 180.25,-288 180.25,-324"/>
<text text-anchor="middle" x="142" y="-303.5" font-family="Helvetica,sans-Serif" font-size="10.00">testsimulation</text>
</a>
</g>
</g>
<!-- dir_0b342c6c6b7d2278121a0bb9c4985063 -->
<g id="node5" class="node"><title>dir_0b342c6c6b7d2278121a0bb9c4985063</title>
<g id="a_node5"><a xlink:href="dir_0b342c6c6b7d2278121a0bb9c4985063.html" target="_top" xlink:title="Generators">
<polygon fill="none" stroke="red" points="524.25,-252 459.75,-252 459.75,-216 524.25,-216 524.25,-252"/>
<text text-anchor="middle" x="492" y="-231.5" font-family="Helvetica,sans-Serif" font-size="10.00">Generators</text>
</a>
</g>
</g>
<!-- dir_369d121286168272c3728271f6937381&#45;&gt;dir_0b342c6c6b7d2278121a0bb9c4985063 -->
<g id="edge6" class="edge"><title>dir_369d121286168272c3728271f6937381&#45;&gt;dir_0b342c6c6b7d2278121a0bb9c4985063</title>
<path fill="none" stroke="black" d="M180.307,-290.672C183.562,-289.687 186.823,-288.779 190,-288 301.168,-260.758 333.924,-279.613 445,-252 446.65,-251.59 448.323,-251.143 450.005,-250.667"/>
<polygon fill="black" stroke="black" points="451.134,-253.982 459.654,-247.684 449.066,-247.294 451.134,-253.982"/>
<g id="a_edge6&#45;headlabel"><a xlink:href="dir_000161_000274.html" target="_top" xlink:title="1">
<text text-anchor="middle" x="448.538" y="-255.256" font-family="Helvetica,sans-Serif" font-size="10.00">1</text>
</a>
</g>
</g>
<!-- dir_369d121286168272c3728271f6937381&#45;&gt;dir_4ab6b4cc6a7edbff49100e9123df213f -->
<g id="edge7" class="edge"><title>dir_369d121286168272c3728271f6937381&#45;&gt;dir_4ab6b4cc6a7edbff49100e9123df213f</title>
<path fill="none" stroke="black" d="M141.038,-287.848C140.363,-266.703 140.863,-229.897 150,-200 159.409,-169.212 178.636,-137.623 193.198,-116.432"/>
<polygon fill="black" stroke="black" points="196.224,-118.213 199.111,-108.019 190.497,-114.187 196.224,-118.213"/>
<g id="a_edge7&#45;headlabel"><a xlink:href="dir_000161_000016.html" target="_top" xlink:title="1">
<text text-anchor="middle" x="196.48" y="-120.286" font-family="Helvetica,sans-Serif" font-size="10.00">1</text>
</a>
</g>
</g>
<!-- dir_a597e8e061b11201a1dff411feb10d0b -->
<g id="node7" class="node"><title>dir_a597e8e061b11201a1dff411feb10d0b</title>
<g id="a_node7"><a xlink:href="dir_a597e8e061b11201a1dff411feb10d0b.html" target="_top" xlink:title="TPC">
<polygon fill="none" stroke="red" points="331,-252 277,-252 277,-216 331,-216 331,-252"/>
<text text-anchor="middle" x="304" y="-231.5" font-family="Helvetica,sans-Serif" font-size="10.00">TPC</text>
</a>
</g>
</g>
<!-- dir_369d121286168272c3728271f6937381&#45;&gt;dir_a597e8e061b11201a1dff411feb10d0b -->
<g id="edge8" class="edge"><title>dir_369d121286168272c3728271f6937381&#45;&gt;dir_a597e8e061b11201a1dff411feb10d0b</title>
<path fill="none" stroke="black" d="M180.521,-288.451C204.775,-278.019 236.731,-264.251 265,-252 265.83,-251.64 266.67,-251.276 267.517,-250.908"/>
<polygon fill="black" stroke="black" points="268.955,-254.1 276.731,-246.904 266.165,-247.68 268.955,-254.1"/>
<g id="a_edge8&#45;headlabel"><a xlink:href="dir_000161_000085.html" target="_top" xlink:title="1">
<text text-anchor="middle" x="266.79" y="-255.637" font-family="Helvetica,sans-Serif" font-size="10.00">1</text>
</a>
</g>
</g>
<!-- dir_577c839d346a264df4e9e588ca2a45dd -->
<g id="node9" class="node"><title>dir_577c839d346a264df4e9e588ca2a45dd</title>
<g id="a_node9"><a xlink:href="dir_577c839d346a264df4e9e588ca2a45dd.html" target="_top" xlink:title="TOF">
<polygon fill="none" stroke="red" points="403,-252 349,-252 349,-216 403,-216 403,-252"/>
<text text-anchor="middle" x="376" y="-231.5" font-family="Helvetica,sans-Serif" font-size="10.00">TOF</text>
</a>
</g>
</g>
<!-- dir_369d121286168272c3728271f6937381&#45;&gt;dir_577c839d346a264df4e9e588ca2a45dd -->
<g id="edge9" class="edge"><title>dir_369d121286168272c3728271f6937381&#45;&gt;dir_577c839d346a264df4e9e588ca2a45dd</title>
<path fill="none" stroke="black" d="M180.396,-291.002C183.631,-289.945 186.864,-288.929 190,-288 252.784,-269.404 273.474,-274.25 339.152,-251.925"/>
<polygon fill="black" stroke="black" points="340.435,-255.184 348.727,-248.589 338.132,-248.574 340.435,-255.184"/>
<g id="a_edge9&#45;headlabel"><a xlink:href="dir_000161_000107.html" target="_top" xlink:title="1">
<text text-anchor="middle" x="337.975" y="-256.548" font-family="Helvetica,sans-Serif" font-size="10.00">1</text>
</a>
</g>
</g>
<!-- dir_f01815b857f9009bea48e2cb39492245 -->
<g id="node10" class="node"><title>dir_f01815b857f9009bea48e2cb39492245</title>
<g id="a_node10"><a xlink:href="dir_f01815b857f9009bea48e2cb39492245.html" target="_top" xlink:title="Passive">
<polygon fill="none" stroke="red" points="419,-180 365,-180 365,-144 419,-144 419,-180"/>
<text text-anchor="middle" x="392" y="-159.5" font-family="Helvetica,sans-Serif" font-size="10.00">Passive</text>
</a>
</g>
</g>
<!-- dir_369d121286168272c3728271f6937381&#45;&gt;dir_f01815b857f9009bea48e2cb39492245 -->
<g id="edge10" class="edge"><title>dir_369d121286168272c3728271f6937381&#45;&gt;dir_f01815b857f9009bea48e2cb39492245</title>
<path fill="none" stroke="black" d="M180.325,-290.743C183.576,-289.743 186.831,-288.811 190,-288 238.417,-275.608 379.612,-290.063 412,-252 426.817,-234.587 418.56,-208.507 408.543,-189.075"/>
<polygon fill="black" stroke="black" points="411.493,-187.178 403.577,-180.137 405.374,-190.578 411.493,-187.178"/>
<g id="a_edge10&#45;headlabel"><a xlink:href="dir_000161_000197.html" target="_top" xlink:title="5">
<text text-anchor="middle" x="415.721" y="-186.442" font-family="Helvetica,sans-Serif" font-size="10.00">5</text>
</a>
</g>
</g>
<!-- dir_4ab6b4cc6a7edbff49100e9123df213f&#45;&gt;dir_37c90836491b695b472bf98d1be8336b -->
<g id="edge5" class="edge"><title>dir_4ab6b4cc6a7edbff49100e9123df213f&#45;&gt;dir_37c90836491b695b472bf98d1be8336b</title>
<path fill="none" stroke="black" d="M220.916,-71.6966C227.307,-63.2198 235.997,-52.8636 244.452,-43.5826"/>
<polygon fill="black" stroke="black" points="247.171,-45.7993 251.444,-36.1043 242.058,-41.0187 247.171,-45.7993"/>
<g id="a_edge5&#45;headlabel"><a xlink:href="dir_000016_000073.html" target="_top" xlink:title="1">
<text text-anchor="middle" x="246.79" y="-47.8641" font-family="Helvetica,sans-Serif" font-size="10.00">1</text>
</a>
</g>
</g>
<!-- dir_a597e8e061b11201a1dff411feb10d0b&#45;&gt;dir_4ab6b4cc6a7edbff49100e9123df213f -->
<g id="edge11" class="edge"><title>dir_a597e8e061b11201a1dff411feb10d0b&#45;&gt;dir_4ab6b4cc6a7edbff49100e9123df213f</title>
<path fill="none" stroke="black" d="M285.642,-215.977C279.34,-210.545 272.084,-204.723 265,-200 248.793,-189.194 237.421,-195.78 226,-180 213.138,-162.228 210.167,-137.216 210.11,-118.23"/>
<polygon fill="black" stroke="black" points="213.612,-118.198 210.347,-108.119 206.613,-118.034 213.612,-118.198"/>
<g id="a_edge11&#45;headlabel"><a xlink:href="dir_000085_000016.html" target="_top" xlink:title="6">
<text text-anchor="middle" x="216.366" y="-119.358" font-family="Helvetica,sans-Serif" font-size="10.00">6</text>
</a>
</g>
</g>
<!-- dir_a597e8e061b11201a1dff411feb10d0b&#45;&gt;dir_37c90836491b695b472bf98d1be8336b -->
<g id="edge12" class="edge"><title>dir_a597e8e061b11201a1dff411feb10d0b&#45;&gt;dir_37c90836491b695b472bf98d1be8336b</title>
<path fill="none" stroke="black" d="M310.074,-215.904C315.658,-197.96 322.444,-168.946 318,-144 311.698,-108.628 296.101,-70.1467 284.813,-45.3605"/>
<polygon fill="black" stroke="black" points="287.968,-43.8446 280.578,-36.2531 281.621,-46.7965 287.968,-43.8446"/>
<g id="a_edge12&#45;headlabel"><a xlink:href="dir_000085_000073.html" target="_top" xlink:title="8">
<text text-anchor="middle" x="292.058" y="-43.4067" font-family="Helvetica,sans-Serif" font-size="10.00">8</text>
</a>
</g>
</g>
<!-- dir_a597e8e061b11201a1dff411feb10d0b&#45;&gt;dir_2171f7ec022c5423887b07c69b2f5b48 -->
<g id="edge13" class="edge"><title>dir_a597e8e061b11201a1dff411feb10d0b&#45;&gt;dir_2171f7ec022c5423887b07c69b2f5b48</title>
<path fill="none" stroke="black" d="M290.174,-215.697C285.757,-207.813 281.191,-198.304 277.564,-189.546"/>
<polygon fill="black" stroke="black" points="280.787,-188.176 273.924,-180.104 274.255,-190.694 280.787,-188.176"/>
<g id="a_edge13&#45;headlabel"><a xlink:href="dir_000085_000043.html" target="_top" xlink:title="40">
<text text-anchor="middle" x="284.729" y="-188.009" font-family="Helvetica,sans-Serif" font-size="10.00">40</text>
</a>
</g>
</g>
<!-- dir_37c90836491b695b472bf98d1be8336b&#45;&gt;dir_4ab6b4cc6a7edbff49100e9123df213f -->
<g id="edge14" class="edge"><title>dir_37c90836491b695b472bf98d1be8336b&#45;&gt;dir_4ab6b4cc6a7edbff49100e9123df213f</title>
<path fill="none" stroke="black" d="M263.234,-36.1043C256.879,-44.5515 248.206,-54.9013 239.747,-64.1989"/>
<polygon fill="black" stroke="black" points="237.013,-61.9984 232.747,-71.6966 242.13,-66.7752 237.013,-61.9984"/>
<g id="a_edge14&#45;headlabel"><a xlink:href="dir_000073_000016.html" target="_top" xlink:title="8">
<text text-anchor="middle" x="237.39" y="-54.9333" font-family="Helvetica,sans-Serif" font-size="10.00">8</text>
</a>
</g>
</g>
<!-- dir_577c839d346a264df4e9e588ca2a45dd&#45;&gt;dir_37c90836491b695b472bf98d1be8336b -->
<g id="edge15" class="edge"><title>dir_577c839d346a264df4e9e588ca2a45dd&#45;&gt;dir_37c90836491b695b472bf98d1be8336b</title>
<path fill="none" stroke="black" d="M399.752,-215.91C410.553,-206.651 422.197,-194.2 428,-180 434.052,-165.189 432.923,-159.224 428,-144 415.855,-106.442 405.978,-97.6793 376,-72 356.114,-54.9656 329.808,-41.6249 308.628,-32.5887"/>
<polygon fill="black" stroke="black" points="309.879,-29.3185 299.3,-28.7421 307.21,-35.7899 309.879,-29.3185"/>
<g id="a_edge15&#45;headlabel"><a xlink:href="dir_000107_000073.html" target="_top" xlink:title="3">
<text text-anchor="middle" x="314.284" y="-25.5638" font-family="Helvetica,sans-Serif" font-size="10.00">3</text>
</a>
</g>
</g>
<!-- dir_577c839d346a264df4e9e588ca2a45dd&#45;&gt;dir_f01815b857f9009bea48e2cb39492245 -->
<g id="edge16" class="edge"><title>dir_577c839d346a264df4e9e588ca2a45dd&#45;&gt;dir_f01815b857f9009bea48e2cb39492245</title>
<path fill="none" stroke="black" d="M379.955,-215.697C381.718,-207.983 383.837,-198.712 385.803,-190.112"/>
<polygon fill="black" stroke="black" points="389.274,-190.633 388.09,-180.104 382.45,-189.073 389.274,-190.633"/>
<g id="a_edge16&#45;headlabel"><a xlink:href="dir_000107_000197.html" target="_top" xlink:title="2">
<text text-anchor="middle" x="391.241" y="-192.27" font-family="Helvetica,sans-Serif" font-size="10.00">2</text>
</a>
</g>
</g>
<!-- dir_577c839d346a264df4e9e588ca2a45dd&#45;&gt;dir_2171f7ec022c5423887b07c69b2f5b48 -->
<g id="edge17" class="edge"><title>dir_577c839d346a264df4e9e588ca2a45dd&#45;&gt;dir_2171f7ec022c5423887b07c69b2f5b48</title>
<path fill="none" stroke="black" d="M359.153,-215.985C353.342,-210.553 346.624,-204.73 340,-200 332.53,-194.666 324.206,-189.544 316.015,-184.901"/>
<polygon fill="black" stroke="black" points="317.675,-181.82 307.226,-180.064 314.3,-187.952 317.675,-181.82"/>
<g id="a_edge17&#45;headlabel"><a xlink:href="dir_000107_000043.html" target="_top" xlink:title="5">
<text text-anchor="middle" x="322.193" y="-178.566" font-family="Helvetica,sans-Serif" font-size="10.00">5</text>
</a>
</g>
</g>
<!-- dir_f01815b857f9009bea48e2cb39492245&#45;&gt;dir_4ab6b4cc6a7edbff49100e9123df213f -->
<g id="edge20" class="edge"><title>dir_f01815b857f9009bea48e2cb39492245&#45;&gt;dir_4ab6b4cc6a7edbff49100e9123df213f</title>
<path fill="none" stroke="black" d="M364.662,-150.369C333.87,-138.394 283.65,-118.864 249.277,-105.497"/>
<polygon fill="black" stroke="black" points="250.184,-102.094 239.595,-101.732 247.647,-108.618 250.184,-102.094"/>
<g id="a_edge20&#45;headlabel"><a xlink:href="dir_000197_000016.html" target="_top" xlink:title="1">
<text text-anchor="middle" x="254.563" y="-98.2506" font-family="Helvetica,sans-Serif" font-size="10.00">1</text>
</a>
</g>
</g>
<!-- dir_f01815b857f9009bea48e2cb39492245&#45;&gt;dir_37c90836491b695b472bf98d1be8336b -->
<g id="edge21" class="edge"><title>dir_f01815b857f9009bea48e2cb39492245&#45;&gt;dir_37c90836491b695b472bf98d1be8336b</title>
<path fill="none" stroke="black" d="M387.153,-143.704C381.119,-124.535 369.317,-93.4936 351,-72 339.201,-58.155 322.931,-46.4128 308.222,-37.5267"/>
<polygon fill="black" stroke="black" points="309.727,-34.3534 299.319,-32.3697 306.218,-40.4106 309.727,-34.3534"/>
<g id="a_edge21&#45;headlabel"><a xlink:href="dir_000197_000073.html" target="_top" xlink:title="16">
<text text-anchor="middle" x="314.26" y="-31.1983" font-family="Helvetica,sans-Serif" font-size="10.00">16</text>
</a>
</g>
</g>
<!-- dir_2171f7ec022c5423887b07c69b2f5b48&#45;&gt;dir_4ab6b4cc6a7edbff49100e9123df213f -->
<g id="edge22" class="edge"><title>dir_2171f7ec022c5423887b07c69b2f5b48&#45;&gt;dir_4ab6b4cc6a7edbff49100e9123df213f</title>
<path fill="none" stroke="black" d="M257.169,-143.697C249.975,-135.305 241.203,-125.07 233.31,-115.861"/>
<polygon fill="black" stroke="black" points="235.826,-113.419 226.661,-108.104 230.511,-117.975 235.826,-113.419"/>
<g id="a_edge22&#45;headlabel"><a xlink:href="dir_000043_000016.html" target="_top" xlink:title="4">
<text text-anchor="middle" x="240.321" y="-111.801" font-family="Helvetica,sans-Serif" font-size="10.00">4</text>
</a>
</g>
</g>
<!-- dir_2171f7ec022c5423887b07c69b2f5b48&#45;&gt;dir_a597e8e061b11201a1dff411feb10d0b -->
<g id="edge23" class="edge"><title>dir_2171f7ec022c5423887b07c69b2f5b48&#45;&gt;dir_a597e8e061b11201a1dff411feb10d0b</title>
<path fill="none" stroke="black" d="M285.714,-180.104C290.129,-187.96 294.701,-197.462 298.344,-206.232"/>
<polygon fill="black" stroke="black" points="295.134,-207.633 302.006,-215.697 301.662,-205.107 295.134,-207.633"/>
<g id="a_edge23&#45;headlabel"><a xlink:href="dir_000043_000085.html" target="_top" xlink:title="2">
<text text-anchor="middle" x="291.189" y="-202.805" font-family="Helvetica,sans-Serif" font-size="10.00">2</text>
</a>
</g>
</g>
<!-- dir_2171f7ec022c5423887b07c69b2f5b48&#45;&gt;dir_37c90836491b695b472bf98d1be8336b -->
<g id="edge24" class="edge"><title>dir_2171f7ec022c5423887b07c69b2f5b48&#45;&gt;dir_37c90836491b695b472bf98d1be8336b</title>
<path fill="none" stroke="black" d="M272,-143.871C272,-119.67 272,-75.2108 272,-46.3932"/>
<polygon fill="black" stroke="black" points="275.5,-46.1892 272,-36.1893 268.5,-46.1893 275.5,-46.1892"/>
<g id="a_edge24&#45;headlabel"><a xlink:href="dir_000043_000073.html" target="_top" xlink:title="6">
<text text-anchor="middle" x="278.339" y="-47.2839" font-family="Helvetica,sans-Serif" font-size="10.00">6</text>
</a>
</g>
</g>
</g>
</svg>
        <g id="navigator" transform="translate(0 0)" fill="#404254">
                <rect fill="#f2f5e9" fill-opacity="0.5" stroke="#606060" stroke-width=".5" x="0" y="0" width="60" height="60"/>
                <use id="zoomplus" xlink:href="#zoomPlus" x="17" y="9" onmousedown="handleZoom(evt,'in')"/>
                <use id="zoomminus" xlink:href="#zoomMin" x="42" y="9" onmousedown="handleZoom(evt,'out')"/>
                <use id="reset" xlink:href="#resetDef" x="30" y="36" onmousedown="handleReset()"/>
                <g id="arrowUp" xlink:href="#dirArrow" transform="translate(30 24)" onmousedown="handlePan(0,-1)">
                  <use xlink:href="#rim" fill="#404040">
                        <set attributeName="fill" to="#808080" begin="arrowUp.mouseover" end="arrowUp.mouseout"/>
                  </use>
                  <path fill="none" stroke="white" stroke-width="1.5" d="M0,-3.0v7 M-2.5,-0.5L0,-3.0L2.5,-0.5"/>
                </g>
                <g id="arrowRight" xlink:href="#dirArrow" transform="rotate(90) translate(36 -43)" onmousedown="handlePan(1,0)">
                  <use xlink:href="#rim" fill="#404040">
                        <set attributeName="fill" to="#808080" begin="arrowRight.mouseover" end="arrowRight.mouseout"/>
                  </use>
                  <path fill="none" stroke="white" stroke-width="1.5" d="M0,-3.0v7 M-2.5,-0.5L0,-3.0L2.5,-0.5"/>
                </g>
                <g id="arrowDown" xlink:href="#dirArrow" transform="rotate(180) translate(-30 -48)" onmousedown="handlePan(0,1)">
                  <use xlink:href="#rim" fill="#404040">
                        <set attributeName="fill" to="#808080" begin="arrowDown.mouseover" end="arrowDown.mouseout"/>
                  </use>
                  <path fill="none" stroke="white" stroke-width="1.5" d="M0,-3.0v7 M-2.5,-0.5L0,-3.0L2.5,-0.5"/>
                </g>
                <g id="arrowLeft" xlink:href="#dirArrow" transform="rotate(270) translate(-36 17)" onmousedown="handlePan(-1,0)">
                  <use xlink:href="#rim" fill="#404040">
                        <set attributeName="fill" to="#808080" begin="arrowLeft.mouseover" end="arrowLeft.mouseout"/>
                  </use>
                  <path fill="none" stroke="white" stroke-width="1.5" d="M0,-3.0v7 M-2.5,-0.5L0,-3.0L2.5,-0.5"/>
                </g>
        </g>
        <svg viewBox="0 0 15 15" width="100%" height="30px" preserveAspectRatio="xMaxYMin meet">
         <g id="arrow_out" transform="scale(0.3 0.3)">
          <a xlink:href="dir_088378b58cb1ba39db48039cbd66d10f_dep_org.svg" target="_base">
           <rect id="button" ry="5" rx="5" y="6" x="6" height="38" width="38"
                fill="#f2f5e9" fill-opacity="0.5" stroke="#606060" stroke-width="1.0"/>
           <path id="arrow"
             d="M 11.500037,31.436501 C 11.940474,20.09759 22.043105,11.32322 32.158766,21.979434 L 37.068811,17.246167 C 37.068811,17.246167 37.088388,32 37.088388,32 L 22.160133,31.978069 C 22.160133,31.978069 26.997745,27.140456 26.997745,27.140456 C 18.528582,18.264221 13.291696,25.230495 11.500037,31.436501 z"
             style="fill:#404040;"/>
          </a>
         </g>
        </svg>
</svg>
