<?xml version="1.0" encoding="UTF-8" standalone="no"?>
<!DOCTYPE svg PUBLIC "-//W3C//DTD SVG 1.1//EN"
 "http://www.w3.org/Graphics/SVG/1.1/DTD/svg11.dtd">
<!-- Generated by graphviz version 2.36.0 (20140111.2315)
 -->
<!-- Title: /home/travis/build/AliceO2Group/AliceO2/Framework/TestWorkflows Pages: 1 -->
<svg width="284pt" height="303pt"
 viewBox="0.00 0.00 284.00 303.00" xmlns="http://www.w3.org/2000/svg" xmlns:xlink="http://www.w3.org/1999/xlink">
<g id="graph0" class="graph" transform="scale(1 1) rotate(0) translate(4 299)">
<title>/home/travis/build/AliceO2Group/AliceO2/Framework/TestWorkflows</title>
<g id="clust1" class="cluster"><title>clusterdir_bcbb2cf9a3d3d83e5515c82071a07177</title>
<g id="a_clust1"><a xlink:href="dir_bcbb2cf9a3d3d83e5515c82071a07177.html" target="_top" xlink:title="Framework">
<polygon fill="#ddddee" stroke="black" points="8,-200 8,-287 268,-287 268,-200 8,-200"/>
<text text-anchor="middle" x="138" y="-275" font-family="Helvetica,sans-Serif" font-size="10.00">Framework</text>
</a>
</g>
</g>
<g id="clust2" class="cluster"><title>clusterdir_a8f73827fca2a0188d35dc47dc5b0ea3</title>
<g id="a_clust2"><a xlink:href="dir_a8f73827fca2a0188d35dc47dc5b0ea3.html" target="_top">
<polygon fill="#eeeeff" stroke="black" points="16,-208 16,-260 260,-260 260,-208 16,-208"/>
</a>
</g>
</g>
<!-- dir_a8f73827fca2a0188d35dc47dc5b0ea3 -->
<g id="node1" class="node"><title>dir_a8f73827fca2a0188d35dc47dc5b0ea3</title>
<text text-anchor="middle" x="210" y="-231.5" font-family="Helvetica,sans-Serif" font-size="10.00">TestWorkflows</text>
</g>
<!-- dir_80c3b7d4c168c9aa75dd1ba81b9fa387 -->
<g id="node2" class="node"><title>dir_80c3b7d4c168c9aa75dd1ba81b9fa387</title>
<g id="a_node2"><a xlink:href="dir_80c3b7d4c168c9aa75dd1ba81b9fa387.html" target="_top" xlink:title="src">
<polygon fill="white" stroke="black" points="150,-252 96,-252 96,-216 150,-216 150,-252"/>
<text text-anchor="middle" x="123" y="-231.5" font-family="Helvetica,sans-Serif" font-size="10.00">src</text>
</a>
</g>
</g>
<!-- dir_0b342c6c6b7d2278121a0bb9c4985063 -->
<g id="node4" class="node"><title>dir_0b342c6c6b7d2278121a0bb9c4985063</title>
<g id="a_node4"><a xlink:href="dir_0b342c6c6b7d2278121a0bb9c4985063.html" target="_top" xlink:title="Generators">
<polygon fill="none" stroke="red" points="246.25,-108 181.75,-108 181.75,-72 246.25,-72 246.25,-108"/>
<text text-anchor="middle" x="214" y="-87.5" font-family="Helvetica,sans-Serif" font-size="10.00">Generators</text>
</a>
</g>
</g>
<!-- dir_80c3b7d4c168c9aa75dd1ba81b9fa387&#45;&gt;dir_0b342c6c6b7d2278121a0bb9c4985063 -->
<g id="edge1" class="edge"><title>dir_80c3b7d4c168c9aa75dd1ba81b9fa387&#45;&gt;dir_0b342c6c6b7d2278121a0bb9c4985063</title>
<path fill="none" stroke="black" d="M141.6,-215.779C147.169,-210.67 153.308,-205.082 159,-200 169.105,-190.978 174.35,-191.18 182,-180 194.85,-161.222 203.164,-136.695 208.089,-118.146"/>
<polygon fill="black" stroke="black" points="211.529,-118.816 210.544,-108.267 204.735,-117.127 211.529,-118.816"/>
<g id="a_edge1&#45;headlabel"><a xlink:href="dir_000272_000274.html" target="_top" xlink:title="1">
<text text-anchor="middle" x="213.417" y="-120.489" font-family="Helvetica,sans-Serif" font-size="10.00">1</text>
</a>
</g>
</g>
<!-- dir_4ab6b4cc6a7edbff49100e9123df213f -->
<g id="node5" class="node"><title>dir_4ab6b4cc6a7edbff49100e9123df213f</title>
<g id="a_node5"><a xlink:href="dir_4ab6b4cc6a7edbff49100e9123df213f.html" target="_top" xlink:title="Common">
<polygon fill="none" stroke="red" points="171.5,-36 116.5,-36 116.5,-0 171.5,-0 171.5,-36"/>
<text text-anchor="middle" x="144" y="-15.5" font-family="Helvetica,sans-Serif" font-size="10.00">Common</text>
</a>
</g>
</g>
<!-- dir_80c3b7d4c168c9aa75dd1ba81b9fa387&#45;&gt;dir_4ab6b4cc6a7edbff49100e9123df213f -->
<g id="edge2" class="edge"><title>dir_80c3b7d4c168c9aa75dd1ba81b9fa387&#45;&gt;dir_4ab6b4cc6a7edbff49100e9123df213f</title>
<path fill="none" stroke="black" d="M139.249,-215.978C145.123,-210.423 152.032,-204.526 159,-200 177.696,-187.857 187.763,-194.138 205,-180 235.122,-155.292 243.357,-145.179 255,-108 259.782,-92.7312 263.535,-85.5334 255,-72 238.96,-46.5661 206.983,-33.0768 181.454,-26.0868"/>
<polygon fill="black" stroke="black" points="182.232,-22.6736 171.681,-23.6341 180.528,-29.4631 182.232,-22.6736"/>
<g id="a_edge2&#45;headlabel"><a xlink:href="dir_000272_000016.html" target="_top" xlink:title="2">
<text text-anchor="middle" x="186.41" y="-18.2946" font-family="Helvetica,sans-Serif" font-size="10.00">2</text>
</a>
</g>
</g>
<!-- dir_9f165b2481dacfe69aa54d326bd5cd47 -->
<g id="node6" class="node"><title>dir_9f165b2481dacfe69aa54d326bd5cd47</title>
<g id="a_node6"><a xlink:href="dir_9f165b2481dacfe69aa54d326bd5cd47.html" target="_top" xlink:title="Core">
<polygon fill="none" stroke="red" points="58,-180 4,-180 4,-144 58,-144 58,-180"/>
<text text-anchor="middle" x="31" y="-159.5" font-family="Helvetica,sans-Serif" font-size="10.00">Core</text>
</a>
</g>
</g>
<!-- dir_80c3b7d4c168c9aa75dd1ba81b9fa387&#45;&gt;dir_9f165b2481dacfe69aa54d326bd5cd47 -->
<g id="edge3" class="edge"><title>dir_80c3b7d4c168c9aa75dd1ba81b9fa387&#45;&gt;dir_9f165b2481dacfe69aa54d326bd5cd47</title>
<path fill="none" stroke="black" d="M105.544,-215.973C99.8043,-210.657 93.2819,-204.905 87,-200 80.6066,-195.008 73.5497,-189.995 66.6627,-185.342"/>
<polygon fill="black" stroke="black" points="68.3634,-182.271 58.093,-179.669 64.4994,-188.107 68.3634,-182.271"/>
<g id="a_edge3&#45;headlabel"><a xlink:href="dir_000272_000260.html" target="_top" xlink:title="38">
<text text-anchor="middle" x="72.928" y="-179.387" font-family="Helvetica,sans-Serif" font-size="10.00">38</text>
</a>
</g>
</g>
<!-- dir_051dca18e802f8e9474f2e30d29c04e0 -->
<g id="node7" class="node"><title>dir_051dca18e802f8e9474f2e30d29c04e0</title>
<g id="a_node7"><a xlink:href="dir_051dca18e802f8e9474f2e30d29c04e0.html" target="_top" xlink:title="Detectors">
<polygon fill="none" stroke="red" points="173.25,-180 114.75,-180 114.75,-144 173.25,-144 173.25,-180"/>
<text text-anchor="middle" x="144" y="-159.5" font-family="Helvetica,sans-Serif" font-size="10.00">Detectors</text>
</a>
</g>
</g>
<!-- dir_80c3b7d4c168c9aa75dd1ba81b9fa387&#45;&gt;dir_051dca18e802f8e9474f2e30d29c04e0 -->
<g id="edge4" class="edge"><title>dir_80c3b7d4c168c9aa75dd1ba81b9fa387&#45;&gt;dir_051dca18e802f8e9474f2e30d29c04e0</title>
<path fill="none" stroke="black" d="M128.191,-215.697C130.531,-207.898 133.347,-198.509 135.951,-189.829"/>
<polygon fill="black" stroke="black" points="139.348,-190.688 138.869,-180.104 132.643,-188.677 139.348,-190.688"/>
<g id="a_edge4&#45;headlabel"><a xlink:href="dir_000272_000072.html" target="_top" xlink:title="4">
<text text-anchor="middle" x="141.034" y="-192.447" font-family="Helvetica,sans-Serif" font-size="10.00">4</text>
</a>
</g>
</g>
<!-- dir_2171f7ec022c5423887b07c69b2f5b48 -->
<g id="node8" class="node"><title>dir_2171f7ec022c5423887b07c69b2f5b48</title>
<g id="a_node8"><a xlink:href="dir_2171f7ec022c5423887b07c69b2f5b48.html" target="_top" xlink:title="DataFormats">
<polygon fill="none" stroke="red" points="107,-108 33,-108 33,-72 107,-72 107,-108"/>
<text text-anchor="middle" x="70" y="-87.5" font-family="Helvetica,sans-Serif" font-size="10.00">DataFormats</text>
</a>
</g>
</g>
<!-- dir_80c3b7d4c168c9aa75dd1ba81b9fa387&#45;&gt;dir_2171f7ec022c5423887b07c69b2f5b48 -->
<g id="edge5" class="edge"><title>dir_80c3b7d4c168c9aa75dd1ba81b9fa387&#45;&gt;dir_2171f7ec022c5423887b07c69b2f5b48</title>
<path fill="none" stroke="black" d="M116.607,-215.871C107.495,-191.457 90.6871,-146.426 79.9413,-117.635"/>
<polygon fill="black" stroke="black" points="83.1916,-116.334 76.4157,-108.189 76.6335,-118.782 83.1916,-116.334"/>
<g id="a_edge5&#45;headlabel"><a xlink:href="dir_000272_000043.html" target="_top" xlink:title="2">
<text text-anchor="middle" x="87.1085" y="-116.209" font-family="Helvetica,sans-Serif" font-size="10.00">2</text>
</a>
</g>
</g>
<!-- dir_b6abd220a8a509af9882e60b4042c567 -->
<g id="node3" class="node"><title>dir_b6abd220a8a509af9882e60b4042c567</title>
<g id="a_node3"><a xlink:href="dir_b6abd220a8a509af9882e60b4042c567.html" target="_top" xlink:title="test">
<polygon fill="white" stroke="black" points="78,-252 24,-252 24,-216 78,-216 78,-252"/>
<text text-anchor="middle" x="51" y="-231.5" font-family="Helvetica,sans-Serif" font-size="10.00">test</text>
</a>
</g>
</g>
<!-- dir_b6abd220a8a509af9882e60b4042c567&#45;&gt;dir_9f165b2481dacfe69aa54d326bd5cd47 -->
<g id="edge11" class="edge"><title>dir_b6abd220a8a509af9882e60b4042c567&#45;&gt;dir_9f165b2481dacfe69aa54d326bd5cd47</title>
<path fill="none" stroke="black" d="M46.0562,-215.697C43.828,-207.898 41.1453,-198.509 38.6655,-189.829"/>
<polygon fill="black" stroke="black" points="41.9996,-188.758 35.887,-180.104 35.2689,-190.681 41.9996,-188.758"/>
<g id="a_edge11&#45;headlabel"><a xlink:href="dir_000273_000260.html" target="_top" xlink:title="3">
<text text-anchor="middle" x="45.717" y="-188.934" font-family="Helvetica,sans-Serif" font-size="10.00">3</text>
</a>
</g>
</g>
<!-- dir_4ab6b4cc6a7edbff49100e9123df213f&#45;&gt;dir_051dca18e802f8e9474f2e30d29c04e0 -->
<g id="edge6" class="edge"><title>dir_4ab6b4cc6a7edbff49100e9123df213f&#45;&gt;dir_051dca18e802f8e9474f2e30d29c04e0</title>
<path fill="none" stroke="black" d="M148.591,-36.1893C151.145,-60.4244 151.433,-104.888 149.454,-133.679"/>
<polygon fill="black" stroke="black" points="145.947,-133.61 148.584,-143.871 152.922,-134.205 145.947,-133.61"/>
<g id="a_edge6&#45;headlabel"><a xlink:href="dir_000016_000072.html" target="_top" xlink:title="1">
<text text-anchor="middle" x="143.424" y="-127.287" font-family="Helvetica,sans-Serif" font-size="10.00">1</text>
</a>
</g>
</g>
<!-- dir_9f165b2481dacfe69aa54d326bd5cd47&#45;&gt;dir_2171f7ec022c5423887b07c69b2f5b48 -->
<g id="edge7" class="edge"><title>dir_9f165b2481dacfe69aa54d326bd5cd47&#45;&gt;dir_2171f7ec022c5423887b07c69b2f5b48</title>
<path fill="none" stroke="black" d="M40.6405,-143.697C45.1271,-135.644 50.5588,-125.894 55.5241,-116.982"/>
<polygon fill="black" stroke="black" points="58.6609,-118.544 60.4704,-108.104 52.5459,-115.137 58.6609,-118.544"/>
<g id="a_edge7&#45;headlabel"><a xlink:href="dir_000260_000043.html" target="_top" xlink:title="12">
<text text-anchor="middle" x="59.3917" y="-120.565" font-family="Helvetica,sans-Serif" font-size="10.00">12</text>
</a>
</g>
</g>
<!-- dir_051dca18e802f8e9474f2e30d29c04e0&#45;&gt;dir_0b342c6c6b7d2278121a0bb9c4985063 -->
<g id="edge8" class="edge"><title>dir_051dca18e802f8e9474f2e30d29c04e0&#45;&gt;dir_0b342c6c6b7d2278121a0bb9c4985063</title>
<path fill="none" stroke="black" d="M161.303,-143.697C169.865,-135.135 180.344,-124.656 189.696,-115.304"/>
<polygon fill="black" stroke="black" points="192.299,-117.65 196.896,-108.104 187.35,-112.701 192.299,-117.65"/>
<g id="a_edge8&#45;headlabel"><a xlink:href="dir_000072_000274.html" target="_top" xlink:title="1">
<text text-anchor="middle" x="191.765" y="-119.7" font-family="Helvetica,sans-Serif" font-size="10.00">1</text>
</a>
</g>
</g>
<!-- dir_051dca18e802f8e9474f2e30d29c04e0&#45;&gt;dir_4ab6b4cc6a7edbff49100e9123df213f -->
<g id="edge9" class="edge"><title>dir_051dca18e802f8e9474f2e30d29c04e0&#45;&gt;dir_4ab6b4cc6a7edbff49100e9123df213f</title>
<path fill="none" stroke="black" d="M139.416,-143.871C136.857,-119.67 136.566,-75.2108 138.541,-46.3932"/>
<polygon fill="black" stroke="black" points="142.049,-46.45 139.409,-36.1893 135.074,-45.8566 142.049,-46.45"/>
<g id="a_edge9&#45;headlabel"><a xlink:href="dir_000072_000016.html" target="_top" xlink:title="36">
<text text-anchor="middle" x="144.573" y="-47.7723" font-family="Helvetica,sans-Serif" font-size="10.00">36</text>
</a>
</g>
</g>
<!-- dir_051dca18e802f8e9474f2e30d29c04e0&#45;&gt;dir_2171f7ec022c5423887b07c69b2f5b48 -->
<g id="edge10" class="edge"><title>dir_051dca18e802f8e9474f2e30d29c04e0&#45;&gt;dir_2171f7ec022c5423887b07c69b2f5b48</title>
<path fill="none" stroke="black" d="M119.792,-143.697C109.858,-135.135 98.5986,-124.656 89.2316,-115.304"/>
<polygon fill="black" stroke="black" points="91.682,-112.804 82.1867,-108.104 86.6786,-117.7 91.682,-112.804"/>
<g id="a_edge10&#45;headlabel"><a xlink:href="dir_000072_000043.html" target="_top" xlink:title="83">
<text text-anchor="middle" x="96.2253" y="-110.888" font-family="Helvetica,sans-Serif" font-size="10.00">83</text>
</a>
</g>
</g>
<!-- dir_2171f7ec022c5423887b07c69b2f5b48&#45;&gt;dir_4ab6b4cc6a7edbff49100e9123df213f -->
<g id="edge12" class="edge"><title>dir_2171f7ec022c5423887b07c69b2f5b48&#45;&gt;dir_4ab6b4cc6a7edbff49100e9123df213f</title>
<path fill="none" stroke="black" d="M88.2921,-71.6966C97.4326,-63.0503 108.64,-52.4486 118.6,-43.027"/>
<polygon fill="black" stroke="black" points="121.059,-45.519 125.918,-36.1043 116.248,-40.4337 121.059,-45.519"/>
<g id="a_edge12&#45;headlabel"><a xlink:href="dir_000043_000016.html" target="_top" xlink:title="4">
<text text-anchor="middle" x="120.399" y="-47.5518" font-family="Helvetica,sans-Serif" font-size="10.00">4</text>
</a>
</g>
</g>
<!-- dir_2171f7ec022c5423887b07c69b2f5b48&#45;&gt;dir_051dca18e802f8e9474f2e30d29c04e0 -->
<g id="edge13" class="edge"><title>dir_2171f7ec022c5423887b07c69b2f5b48&#45;&gt;dir_051dca18e802f8e9474f2e30d29c04e0</title>
<path fill="none" stroke="black" d="M93.9768,-108.104C103.89,-116.636 115.154,-127.108 124.55,-136.478"/>
<polygon fill="black" stroke="black" points="122.125,-139.004 131.624,-143.697 127.125,-134.104 122.125,-139.004"/>
<g id="a_edge13&#45;headlabel"><a xlink:href="dir_000043_000072.html" target="_top" xlink:title="8">
<text text-anchor="middle" x="117.581" y="-135.923" font-family="Helvetica,sans-Serif" font-size="10.00">8</text>
</a>
</g>
</g>
</g>
</svg>
