<?xml version="1.0" encoding="UTF-8" standalone="no"?>
<!DOCTYPE svg PUBLIC "-//W3C//DTD SVG 1.1//EN"
 "http://www.w3.org/Graphics/SVG/1.1/DTD/svg11.dtd">
<!-- Generated by graphviz version 2.36.0 (20140111.2315)
 -->
<!-- Title: /home/travis/build/AliceO2Group/AliceO2/Detectors/TPC/simulation Pages: 1 -->
<svg width="476pt" height="447pt"
 viewBox="0.00 0.00 476.20 447.00" xmlns="http://www.w3.org/2000/svg" xmlns:xlink="http://www.w3.org/1999/xlink">
<g id="graph0" class="graph" transform="scale(1 1) rotate(0) translate(4 443)">
<title>/home/travis/build/AliceO2Group/AliceO2/Detectors/TPC/simulation</title>
<g id="clust1" class="cluster"><title>clusterdir_a597e8e061b11201a1dff411feb10d0b</title>
<g id="a_clust1"><a xlink:href="dir_a597e8e061b11201a1dff411feb10d0b.html" target="_top" xlink:title="TPC">
<polygon fill="#ddddee" stroke="black" points="8,-272 8,-431 318,-431 318,-272 8,-272"/>
<text text-anchor="middle" x="163" y="-419" font-family="Helvetica,sans-Serif" font-size="10.00">TPC</text>
</a>
</g>
</g>
<g id="clust2" class="cluster"><title>clusterdir_7f309bec8670bb3fb666e7e061b24659</title>
<g id="a_clust2"><a xlink:href="dir_7f309bec8670bb3fb666e7e061b24659.html" target="_top">
<polygon fill="#eeeeff" stroke="black" points="16,-280 16,-404 310,-404 310,-280 16,-280"/>
</a>
</g>
</g>
<!-- dir_7f309bec8670bb3fb666e7e061b24659 -->
<g id="node1" class="node"><title>dir_7f309bec8670bb3fb666e7e061b24659</title>
<text text-anchor="middle" x="271" y="-375.5" font-family="Helvetica,sans-Serif" font-size="10.00">simulation</text>
</g>
<!-- dir_a3959ed40b1558172144f5e1a56e443f -->
<g id="node2" class="node"><title>dir_a3959ed40b1558172144f5e1a56e443f</title>
<g id="a_node2"><a xlink:href="dir_a3959ed40b1558172144f5e1a56e443f.html" target="_top" xlink:title="include">
<polygon fill="white" stroke="red" points="222,-324 168,-324 168,-288 222,-288 222,-324"/>
<text text-anchor="middle" x="195" y="-303.5" font-family="Helvetica,sans-Serif" font-size="10.00">include</text>
</a>
</g>
</g>
<!-- dir_677b030cc750909e4cd27413873678d8 -->
<g id="node6" class="node"><title>dir_677b030cc750909e4cd27413873678d8</title>
<g id="a_node6"><a xlink:href="dir_677b030cc750909e4cd27413873678d8.html" target="_top" xlink:title="base">
<polygon fill="none" stroke="red" points="325,-180 271,-180 271,-144 325,-144 325,-180"/>
<text text-anchor="middle" x="298" y="-159.5" font-family="Helvetica,sans-Serif" font-size="10.00">base</text>
</a>
</g>
</g>
<!-- dir_a3959ed40b1558172144f5e1a56e443f&#45;&gt;dir_677b030cc750909e4cd27413873678d8 -->
<g id="edge12" class="edge"><title>dir_a3959ed40b1558172144f5e1a56e443f&#45;&gt;dir_677b030cc750909e4cd27413873678d8</title>
<path fill="none" stroke="black" d="M210.994,-287.866C220.159,-277.738 231.659,-264.488 241,-252 256.255,-231.605 271.725,-207.162 282.691,-189.056"/>
<polygon fill="black" stroke="black" points="285.849,-190.597 287.991,-180.221 279.846,-186.996 285.849,-190.597"/>
<g id="a_edge12&#45;headlabel"><a xlink:href="dir_000112_000086.html" target="_top" xlink:title="19">
<text text-anchor="middle" x="286.435" y="-192.64" font-family="Helvetica,sans-Serif" font-size="10.00">19</text>
</a>
</g>
</g>
<!-- dir_37c90836491b695b472bf98d1be8336b -->
<g id="node9" class="node"><title>dir_37c90836491b695b472bf98d1be8336b</title>
<g id="a_node9"><a xlink:href="dir_37c90836491b695b472bf98d1be8336b.html" target="_top" xlink:title="Base">
<polygon fill="none" stroke="red" points="250,-36 196,-36 196,-0 250,-0 250,-36"/>
<text text-anchor="middle" x="223" y="-15.5" font-family="Helvetica,sans-Serif" font-size="10.00">Base</text>
</a>
</g>
</g>
<!-- dir_a3959ed40b1558172144f5e1a56e443f&#45;&gt;dir_37c90836491b695b472bf98d1be8336b -->
<g id="edge13" class="edge"><title>dir_a3959ed40b1558172144f5e1a56e443f&#45;&gt;dir_37c90836491b695b472bf98d1be8336b</title>
<path fill="none" stroke="black" d="M174.177,-287.615C164.542,-278.198 154.115,-265.697 149,-252 143.403,-237.011 146.141,-231.742 149,-216 160.597,-152.149 191.727,-82.062 209.7,-45.1329"/>
<polygon fill="black" stroke="black" points="212.893,-46.5716 214.18,-36.0552 206.616,-43.4736 212.893,-46.5716"/>
<g id="a_edge13&#45;headlabel"><a xlink:href="dir_000112_000073.html" target="_top" xlink:title="1">
<text text-anchor="middle" x="213.849" y="-48.5515" font-family="Helvetica,sans-Serif" font-size="10.00">1</text>
</a>
</g>
</g>
<!-- dir_2171f7ec022c5423887b07c69b2f5b48 -->
<g id="node10" class="node"><title>dir_2171f7ec022c5423887b07c69b2f5b48</title>
<g id="a_node10"><a xlink:href="dir_2171f7ec022c5423887b07c69b2f5b48.html" target="_top" xlink:title="DataFormats">
<polygon fill="none" stroke="red" points="232,-252 158,-252 158,-216 232,-216 232,-252"/>
<text text-anchor="middle" x="195" y="-231.5" font-family="Helvetica,sans-Serif" font-size="10.00">DataFormats</text>
</a>
</g>
</g>
<!-- dir_a3959ed40b1558172144f5e1a56e443f&#45;&gt;dir_2171f7ec022c5423887b07c69b2f5b48 -->
<g id="edge14" class="edge"><title>dir_a3959ed40b1558172144f5e1a56e443f&#45;&gt;dir_2171f7ec022c5423887b07c69b2f5b48</title>
<path fill="none" stroke="black" d="M195,-287.697C195,-279.983 195,-270.712 195,-262.112"/>
<polygon fill="black" stroke="black" points="198.5,-262.104 195,-252.104 191.5,-262.104 198.5,-262.104"/>
<g id="a_edge14&#45;headlabel"><a xlink:href="dir_000112_000043.html" target="_top" xlink:title="4">
<text text-anchor="middle" x="201.339" y="-263.199" font-family="Helvetica,sans-Serif" font-size="10.00">4</text>
</a>
</g>
</g>
<!-- dir_8bfcd60464e4f3a200807f6c373e63aa -->
<g id="node3" class="node"><title>dir_8bfcd60464e4f3a200807f6c373e63aa</title>
<g id="a_node3"><a xlink:href="dir_8bfcd60464e4f3a200807f6c373e63aa.html" target="_top" xlink:title="macro">
<polygon fill="white" stroke="black" points="78,-396 24,-396 24,-360 78,-360 78,-396"/>
<text text-anchor="middle" x="51" y="-375.5" font-family="Helvetica,sans-Serif" font-size="10.00">macro</text>
</a>
</g>
</g>
<!-- dir_8bfcd60464e4f3a200807f6c373e63aa&#45;&gt;dir_a3959ed40b1558172144f5e1a56e443f -->
<g id="edge20" class="edge"><title>dir_8bfcd60464e4f3a200807f6c373e63aa&#45;&gt;dir_a3959ed40b1558172144f5e1a56e443f</title>
<path fill="none" stroke="black" d="M78.0853,-363.834C100.769,-352.807 133.357,-336.966 158.368,-324.807"/>
<polygon fill="black" stroke="black" points="160.083,-327.865 167.547,-320.345 157.023,-321.57 160.083,-327.865"/>
<g id="a_edge20&#45;headlabel"><a xlink:href="dir_000220_000112.html" target="_top" xlink:title="2">
<text text-anchor="middle" x="158.091" y="-329.49" font-family="Helvetica,sans-Serif" font-size="10.00">2</text>
</a>
</g>
</g>
<!-- dir_8bfcd60464e4f3a200807f6c373e63aa&#45;&gt;dir_677b030cc750909e4cd27413873678d8 -->
<g id="edge17" class="edge"><title>dir_8bfcd60464e4f3a200807f6c373e63aa&#45;&gt;dir_677b030cc750909e4cd27413873678d8</title>
<path fill="none" stroke="black" d="M78.2829,-363.439C81.1931,-362.197 84.136,-361.023 87,-360 149.125,-337.809 179.314,-364.994 231,-324 272.991,-290.696 288.946,-226.465 294.794,-190.004"/>
<polygon fill="black" stroke="black" points="298.262,-190.477 296.245,-180.075 291.336,-189.464 298.262,-190.477"/>
<g id="a_edge17&#45;headlabel"><a xlink:href="dir_000220_000086.html" target="_top" xlink:title="2">
<text text-anchor="middle" x="300.551" y="-191.944" font-family="Helvetica,sans-Serif" font-size="10.00">2</text>
</a>
</g>
</g>
<!-- dir_a5de047958dd458e809773c6ffaa8478 -->
<g id="node8" class="node"><title>dir_a5de047958dd458e809773c6ffaa8478</title>
<g id="a_node8"><a xlink:href="dir_a5de047958dd458e809773c6ffaa8478.html" target="_top" xlink:title="reconstruction">
<polygon fill="none" stroke="red" points="404,-324 326,-324 326,-288 404,-288 404,-324"/>
<text text-anchor="middle" x="365" y="-303.5" font-family="Helvetica,sans-Serif" font-size="10.00">reconstruction</text>
</a>
</g>
</g>
<!-- dir_8bfcd60464e4f3a200807f6c373e63aa&#45;&gt;dir_a5de047958dd458e809773c6ffaa8478 -->
<g id="edge18" class="edge"><title>dir_8bfcd60464e4f3a200807f6c373e63aa&#45;&gt;dir_a5de047958dd458e809773c6ffaa8478</title>
<path fill="none" stroke="black" d="M78.1963,-363.178C81.1234,-361.987 84.0939,-360.896 87,-360 184.611,-329.888 214.766,-348.233 314,-324 314.731,-323.821 315.467,-323.637 316.206,-323.448"/>
<polygon fill="black" stroke="black" points="317.233,-326.795 325.93,-320.745 315.358,-320.051 317.233,-326.795"/>
<g id="a_edge18&#45;headlabel"><a xlink:href="dir_000220_000171.html" target="_top" xlink:title="2">
<text text-anchor="middle" x="314.53" y="-327.994" font-family="Helvetica,sans-Serif" font-size="10.00">2</text>
</a>
</g>
</g>
<!-- dir_8bfcd60464e4f3a200807f6c373e63aa&#45;&gt;dir_37c90836491b695b472bf98d1be8336b -->
<g id="edge19" class="edge"><title>dir_8bfcd60464e4f3a200807f6c373e63aa&#45;&gt;dir_37c90836491b695b472bf98d1be8336b</title>
<path fill="none" stroke="black" d="M58.0828,-359.848C68.3099,-333.487 86,-281.211 86,-235 86,-235 86,-235 86,-161 86,-102.719 146.509,-59.1862 187.1,-36.5395"/>
<polygon fill="black" stroke="black" points="188.802,-39.5981 195.933,-31.7623 185.472,-33.4408 188.802,-39.5981"/>
<g id="a_edge19&#45;headlabel"><a xlink:href="dir_000220_000073.html" target="_top" xlink:title="1">
<text text-anchor="middle" x="186.991" y="-41.3054" font-family="Helvetica,sans-Serif" font-size="10.00">1</text>
</a>
</g>
</g>
<!-- dir_72815adbd439f00f784a5a4eca496fde -->
<g id="node4" class="node"><title>dir_72815adbd439f00f784a5a4eca496fde</title>
<g id="a_node4"><a xlink:href="dir_72815adbd439f00f784a5a4eca496fde.html" target="_top" xlink:title="src">
<polygon fill="white" stroke="black" points="150,-396 96,-396 96,-360 150,-360 150,-396"/>
<text text-anchor="middle" x="123" y="-375.5" font-family="Helvetica,sans-Serif" font-size="10.00">src</text>
</a>
</g>
</g>
<!-- dir_72815adbd439f00f784a5a4eca496fde&#45;&gt;dir_a3959ed40b1558172144f5e1a56e443f -->
<g id="edge3" class="edge"><title>dir_72815adbd439f00f784a5a4eca496fde&#45;&gt;dir_a3959ed40b1558172144f5e1a56e443f</title>
<path fill="none" stroke="black" d="M140.798,-359.697C149.604,-351.135 160.382,-340.656 170.001,-331.304"/>
<polygon fill="black" stroke="black" points="172.677,-333.585 177.407,-324.104 167.797,-328.566 172.677,-333.585"/>
<g id="a_edge3&#45;headlabel"><a xlink:href="dir_000132_000112.html" target="_top" xlink:title="32">
<text text-anchor="middle" x="172.079" y="-335.626" font-family="Helvetica,sans-Serif" font-size="10.00">32</text>
</a>
</g>
</g>
<!-- dir_72815adbd439f00f784a5a4eca496fde&#45;&gt;dir_677b030cc750909e4cd27413873678d8 -->
<g id="edge1" class="edge"><title>dir_72815adbd439f00f784a5a4eca496fde&#45;&gt;dir_677b030cc750909e4cd27413873678d8</title>
<path fill="none" stroke="black" d="M150.181,-363.129C153.111,-361.947 156.087,-360.873 159,-360 213.612,-343.644 375.624,-367.047 413,-324 453.387,-277.485 380.752,-217.13 333.627,-185.153"/>
<polygon fill="black" stroke="black" points="335.423,-182.144 325.158,-179.522 331.548,-187.973 335.423,-182.144"/>
<g id="a_edge1&#45;headlabel"><a xlink:href="dir_000132_000086.html" target="_top" xlink:title="16">
<text text-anchor="middle" x="339.989" y="-179.27" font-family="Helvetica,sans-Serif" font-size="10.00">16</text>
</a>
</g>
</g>
<!-- dir_4ab6b4cc6a7edbff49100e9123df213f -->
<g id="node7" class="node"><title>dir_4ab6b4cc6a7edbff49100e9123df213f</title>
<g id="a_node7"><a xlink:href="dir_4ab6b4cc6a7edbff49100e9123df213f.html" target="_top" xlink:title="Common">
<polygon fill="none" stroke="red" points="278.5,-108 223.5,-108 223.5,-72 278.5,-72 278.5,-108"/>
<text text-anchor="middle" x="251" y="-87.5" font-family="Helvetica,sans-Serif" font-size="10.00">Common</text>
</a>
</g>
</g>
<!-- dir_72815adbd439f00f784a5a4eca496fde&#45;&gt;dir_4ab6b4cc6a7edbff49100e9123df213f -->
<g id="edge2" class="edge"><title>dir_72815adbd439f00f784a5a4eca496fde&#45;&gt;dir_4ab6b4cc6a7edbff49100e9123df213f</title>
<path fill="none" stroke="black" d="M150.173,-363.1C153.104,-361.924 156.082,-360.858 159,-360 217.704,-342.728 391.658,-370.011 432,-324 497.929,-248.806 358.027,-152.788 287.897,-111.441"/>
<polygon fill="black" stroke="black" points="289.302,-108.21 278.897,-106.21 285.783,-114.261 289.302,-108.21"/>
<g id="a_edge2&#45;headlabel"><a xlink:href="dir_000132_000016.html" target="_top" xlink:title="1">
<text text-anchor="middle" x="293.836" y="-105.062" font-family="Helvetica,sans-Serif" font-size="10.00">1</text>
</a>
</g>
</g>
<!-- dir_72815adbd439f00f784a5a4eca496fde&#45;&gt;dir_2171f7ec022c5423887b07c69b2f5b48 -->
<g id="edge4" class="edge"><title>dir_72815adbd439f00f784a5a4eca496fde&#45;&gt;dir_2171f7ec022c5423887b07c69b2f5b48</title>
<path fill="none" stroke="black" d="M126.479,-359.626C131.361,-337.931 141.647,-300.24 159,-272 161.619,-267.738 164.807,-263.576 168.192,-259.673"/>
<polygon fill="black" stroke="black" points="171.022,-261.769 175.296,-252.075 165.909,-256.989 171.022,-261.769"/>
<g id="a_edge4&#45;headlabel"><a xlink:href="dir_000132_000043.html" target="_top" xlink:title="1">
<text text-anchor="middle" x="170.641" y="-263.834" font-family="Helvetica,sans-Serif" font-size="10.00">1</text>
</a>
</g>
</g>
<!-- dir_ac3b77a1b17a4594b18b160ef67742fa -->
<g id="node5" class="node"><title>dir_ac3b77a1b17a4594b18b160ef67742fa</title>
<g id="a_node5"><a xlink:href="dir_ac3b77a1b17a4594b18b160ef67742fa.html" target="_top" xlink:title="test">
<polygon fill="white" stroke="black" points="222,-396 168,-396 168,-360 222,-360 222,-396"/>
<text text-anchor="middle" x="195" y="-375.5" font-family="Helvetica,sans-Serif" font-size="10.00">test</text>
</a>
</g>
</g>
<!-- dir_ac3b77a1b17a4594b18b160ef67742fa&#45;&gt;dir_a3959ed40b1558172144f5e1a56e443f -->
<g id="edge16" class="edge"><title>dir_ac3b77a1b17a4594b18b160ef67742fa&#45;&gt;dir_a3959ed40b1558172144f5e1a56e443f</title>
<path fill="none" stroke="black" d="M195,-359.697C195,-351.983 195,-342.712 195,-334.112"/>
<polygon fill="black" stroke="black" points="198.5,-334.104 195,-324.104 191.5,-334.104 198.5,-334.104"/>
<g id="a_edge16&#45;headlabel"><a xlink:href="dir_000221_000112.html" target="_top" xlink:title="9">
<text text-anchor="middle" x="201.339" y="-335.199" font-family="Helvetica,sans-Serif" font-size="10.00">9</text>
</a>
</g>
</g>
<!-- dir_ac3b77a1b17a4594b18b160ef67742fa&#45;&gt;dir_677b030cc750909e4cd27413873678d8 -->
<g id="edge15" class="edge"><title>dir_ac3b77a1b17a4594b18b160ef67742fa&#45;&gt;dir_677b030cc750909e4cd27413873678d8</title>
<path fill="none" stroke="black" d="M222.204,-363.204C225.13,-362.008 228.098,-360.909 231,-360 277.228,-345.52 414.702,-360.975 446,-324 477.012,-287.363 473.634,-255.248 446,-216 421.153,-180.71 370.527,-168.795 335.453,-164.842"/>
<polygon fill="black" stroke="black" points="335.401,-161.322 325.113,-163.854 334.735,-168.29 335.401,-161.322"/>
<g id="a_edge15&#45;headlabel"><a xlink:href="dir_000221_000086.html" target="_top" xlink:title="7">
<text text-anchor="middle" x="339.249" y="-156.337" font-family="Helvetica,sans-Serif" font-size="10.00">7</text>
</a>
</g>
</g>
<!-- dir_677b030cc750909e4cd27413873678d8&#45;&gt;dir_4ab6b4cc6a7edbff49100e9123df213f -->
<g id="edge5" class="edge"><title>dir_677b030cc750909e4cd27413873678d8&#45;&gt;dir_4ab6b4cc6a7edbff49100e9123df213f</title>
<path fill="none" stroke="black" d="M286.382,-143.697C280.861,-135.474 274.153,-125.483 268.068,-116.421"/>
<polygon fill="black" stroke="black" points="270.965,-114.456 262.484,-108.104 265.153,-118.358 270.965,-114.456"/>
<g id="a_edge5&#45;headlabel"><a xlink:href="dir_000086_000016.html" target="_top" xlink:title="2">
<text text-anchor="middle" x="275.325" y="-113.357" font-family="Helvetica,sans-Serif" font-size="10.00">2</text>
</a>
</g>
</g>
<!-- dir_4ab6b4cc6a7edbff49100e9123df213f&#45;&gt;dir_37c90836491b695b472bf98d1be8336b -->
<g id="edge6" class="edge"><title>dir_4ab6b4cc6a7edbff49100e9123df213f&#45;&gt;dir_37c90836491b695b472bf98d1be8336b</title>
<path fill="none" stroke="black" d="M238.163,-71.6966C234.239,-63.8979 230.261,-54.5085 227.148,-45.8292"/>
<polygon fill="black" stroke="black" points="230.398,-44.5086 223.947,-36.1043 223.749,-46.6973 230.398,-44.5086"/>
<g id="a_edge6&#45;headlabel"><a xlink:href="dir_000016_000073.html" target="_top" xlink:title="1">
<text text-anchor="middle" x="234.219" y="-44.5352" font-family="Helvetica,sans-Serif" font-size="10.00">1</text>
</a>
</g>
</g>
<!-- dir_a5de047958dd458e809773c6ffaa8478&#45;&gt;dir_a3959ed40b1558172144f5e1a56e443f -->
<g id="edge9" class="edge"><title>dir_a5de047958dd458e809773c6ffaa8478&#45;&gt;dir_a3959ed40b1558172144f5e1a56e443f</title>
<path fill="none" stroke="black" d="M325.96,-306C294.759,-306 263.558,-306 232.357,-306"/>
<polygon fill="black" stroke="black" points="232.227,-302.5 222.227,-306 232.227,-309.5 232.227,-302.5"/>
<g id="a_edge9&#45;headlabel"><a xlink:href="dir_000171_000112.html" target="_top" xlink:title="1">
<text text-anchor="middle" x="235.821" y="-297.161" font-family="Helvetica,sans-Serif" font-size="10.00">1</text>
</a>
</g>
</g>
<!-- dir_a5de047958dd458e809773c6ffaa8478&#45;&gt;dir_677b030cc750909e4cd27413873678d8 -->
<g id="edge7" class="edge"><title>dir_a5de047958dd458e809773c6ffaa8478&#45;&gt;dir_677b030cc750909e4cd27413873678d8</title>
<path fill="none" stroke="black" d="M356.918,-287.871C345.348,-263.35 323.966,-218.032 310.39,-189.259"/>
<polygon fill="black" stroke="black" points="313.543,-187.74 306.11,-180.189 307.212,-190.727 313.543,-187.74"/>
<g id="a_edge7&#45;headlabel"><a xlink:href="dir_000171_000086.html" target="_top" xlink:title="51">
<text text-anchor="middle" x="317.645" y="-187.279" font-family="Helvetica,sans-Serif" font-size="10.00">51</text>
</a>
</g>
</g>
<!-- dir_a5de047958dd458e809773c6ffaa8478&#45;&gt;dir_37c90836491b695b472bf98d1be8336b -->
<g id="edge8" class="edge"><title>dir_a5de047958dd458e809773c6ffaa8478&#45;&gt;dir_37c90836491b695b472bf98d1be8336b</title>
<path fill="none" stroke="black" d="M363.886,-287.937C361.454,-257.861 354.168,-193.875 334,-144 319.674,-108.572 312.448,-100.509 287,-72 277.507,-61.3654 265.807,-51.0442 255.019,-42.3788"/>
<polygon fill="black" stroke="black" points="257.029,-39.5075 246.998,-36.0974 252.713,-45.0187 257.029,-39.5075"/>
<g id="a_edge8&#45;headlabel"><a xlink:href="dir_000171_000073.html" target="_top" xlink:title="6">
<text text-anchor="middle" x="261.61" y="-36.9884" font-family="Helvetica,sans-Serif" font-size="10.00">6</text>
</a>
</g>
</g>
<!-- dir_a5de047958dd458e809773c6ffaa8478&#45;&gt;dir_2171f7ec022c5423887b07c69b2f5b48 -->
<g id="edge10" class="edge"><title>dir_a5de047958dd458e809773c6ffaa8478&#45;&gt;dir_2171f7ec022c5423887b07c69b2f5b48</title>
<path fill="none" stroke="black" d="M341.651,-287.984C333.225,-282.365 323.456,-276.427 314,-272 291.146,-261.3 264.415,-252.67 242.084,-246.444"/>
<polygon fill="black" stroke="black" points="242.73,-242.993 232.163,-243.754 240.898,-249.749 242.73,-242.993"/>
<g id="a_edge10&#45;headlabel"><a xlink:href="dir_000171_000043.html" target="_top" xlink:title="35">
<text text-anchor="middle" x="246.942" y="-238.693" font-family="Helvetica,sans-Serif" font-size="10.00">35</text>
</a>
</g>
</g>
<!-- dir_37c90836491b695b472bf98d1be8336b&#45;&gt;dir_4ab6b4cc6a7edbff49100e9123df213f -->
<g id="edge11" class="edge"><title>dir_37c90836491b695b472bf98d1be8336b&#45;&gt;dir_4ab6b4cc6a7edbff49100e9123df213f</title>
<path fill="none" stroke="black" d="M235.737,-36.1043C239.66,-43.8757 243.645,-53.2575 246.772,-61.9488"/>
<polygon fill="black" stroke="black" points="243.533,-63.3003 249.994,-71.6966 250.179,-61.1034 243.533,-63.3003"/>
<g id="a_edge11&#45;headlabel"><a xlink:href="dir_000073_000016.html" target="_top" xlink:title="8">
<text text-anchor="middle" x="239.709" y="-58.2784" font-family="Helvetica,sans-Serif" font-size="10.00">8</text>
</a>
</g>
</g>
<!-- dir_2171f7ec022c5423887b07c69b2f5b48&#45;&gt;dir_677b030cc750909e4cd27413873678d8 -->
<g id="edge21" class="edge"><title>dir_2171f7ec022c5423887b07c69b2f5b48&#45;&gt;dir_677b030cc750909e4cd27413873678d8</title>
<path fill="none" stroke="black" d="M220.197,-215.876C233.414,-206.893 249.792,-195.763 264.107,-186.034"/>
<polygon fill="black" stroke="black" points="266.403,-188.705 272.707,-180.19 262.468,-182.916 266.403,-188.705"/>
<g id="a_edge21&#45;headlabel"><a xlink:href="dir_000043_000086.html" target="_top" xlink:title="2">
<text text-anchor="middle" x="265.026" y="-190.574" font-family="Helvetica,sans-Serif" font-size="10.00">2</text>
</a>
</g>
</g>
<!-- dir_2171f7ec022c5423887b07c69b2f5b48&#45;&gt;dir_4ab6b4cc6a7edbff49100e9123df213f -->
<g id="edge22" class="edge"><title>dir_2171f7ec022c5423887b07c69b2f5b48&#45;&gt;dir_4ab6b4cc6a7edbff49100e9123df213f</title>
<path fill="none" stroke="black" d="M201.755,-215.871C211.383,-191.457 229.142,-146.426 240.496,-117.635"/>
<polygon fill="black" stroke="black" points="243.808,-118.776 244.221,-108.189 237.296,-116.208 243.808,-118.776"/>
<g id="a_edge22&#45;headlabel"><a xlink:href="dir_000043_000016.html" target="_top" xlink:title="4">
<text text-anchor="middle" x="245.131" y="-120.662" font-family="Helvetica,sans-Serif" font-size="10.00">4</text>
</a>
</g>
</g>
<!-- dir_2171f7ec022c5423887b07c69b2f5b48&#45;&gt;dir_37c90836491b695b472bf98d1be8336b -->
<g id="edge23" class="edge"><title>dir_2171f7ec022c5423887b07c69b2f5b48&#45;&gt;dir_37c90836491b695b472bf98d1be8336b</title>
<path fill="none" stroke="black" d="M196.764,-215.57C199.823,-185.99 206.508,-124.096 214,-72 215.214,-63.5558 216.709,-54.3848 218.129,-46.0826"/>
<polygon fill="black" stroke="black" points="221.591,-46.6037 219.861,-36.1511 214.695,-45.4012 221.591,-46.6037"/>
<g id="a_edge23&#45;headlabel"><a xlink:href="dir_000043_000073.html" target="_top" xlink:title="6">
<text text-anchor="middle" x="223.77" y="-48.1326" font-family="Helvetica,sans-Serif" font-size="10.00">6</text>
</a>
</g>
</g>
</g>
</svg>
