<?xml version="1.0" encoding="UTF-8" standalone="no"?>
<!DOCTYPE svg PUBLIC "-//W3C//DTD SVG 1.1//EN"
 "http://www.w3.org/Graphics/SVG/1.1/DTD/svg11.dtd">
<!-- Generated by graphviz version 2.36.0 (20140111.2315)
 -->
<!-- Title: /home/travis/build/AliceO2Group/AliceO2/Detectors/PHOS/simulation/include/PHOSSimulation Pages: 1 -->
<svg width="170pt" height="223pt"
 viewBox="0.00 0.00 170.00 223.00" xmlns="http://www.w3.org/2000/svg" xmlns:xlink="http://www.w3.org/1999/xlink">
<g id="graph0" class="graph" transform="scale(1 1) rotate(0) translate(4 219)">
<title>/home/travis/build/AliceO2Group/AliceO2/Detectors/PHOS/simulation/include/PHOSSimulation</title>
<g id="clust1" class="cluster"><title>clusterdir_a3ab2a46c8d9ae8abe901048b5095b9f</title>
<g id="a_clust1"><a xlink:href="dir_a3ab2a46c8d9ae8abe901048b5095b9f.html" target="_top" xlink:title="include">
<polygon fill="#ddddee" stroke="black" points="46,-136 46,-207 154,-207 154,-136 46,-136"/>
<text text-anchor="middle" x="100" y="-195" font-family="Helvetica,sans-Serif" font-size="10.00">include</text>
</a>
</g>
</g>
<!-- dir_2ee63cb02d4d26656f90dc0bda9a1f77 -->
<g id="node1" class="node"><title>dir_2ee63cb02d4d26656f90dc0bda9a1f77</title>
<g id="a_node1"><a xlink:href="dir_2ee63cb02d4d26656f90dc0bda9a1f77.html" target="_top" xlink:title="PHOSSimulation">
<polygon fill="#eeeeff" stroke="black" points="145.25,-180 54.75,-180 54.75,-144 145.25,-144 145.25,-180"/>
<text text-anchor="middle" x="100" y="-159.5" font-family="Helvetica,sans-Serif" font-size="10.00">PHOSSimulation</text>
</a>
</g>
</g>
<!-- dir_fa21b46838f21636bfdcc60e4853f0ed -->
<g id="node2" class="node"><title>dir_fa21b46838f21636bfdcc60e4853f0ed</title>
<g id="a_node2"><a xlink:href="dir_fa21b46838f21636bfdcc60e4853f0ed.html" target="_top" xlink:title="base">
<polygon fill="none" stroke="red" points="54,-108 0,-108 0,-72 54,-72 54,-108"/>
<text text-anchor="middle" x="27" y="-87.5" font-family="Helvetica,sans-Serif" font-size="10.00">base</text>
</a>
</g>
</g>
<!-- dir_2ee63cb02d4d26656f90dc0bda9a1f77&#45;&gt;dir_fa21b46838f21636bfdcc60e4853f0ed -->
<g id="edge2" class="edge"><title>dir_2ee63cb02d4d26656f90dc0bda9a1f77&#45;&gt;dir_fa21b46838f21636bfdcc60e4853f0ed</title>
<path fill="none" stroke="black" d="M81.9551,-143.697C72.9381,-135.05 61.8821,-124.449 52.0568,-115.027"/>
<polygon fill="black" stroke="black" points="54.4777,-112.499 44.8374,-108.104 49.6328,-117.552 54.4777,-112.499"/>
<g id="a_edge2&#45;headlabel"><a xlink:href="dir_000106_000147.html" target="_top" xlink:title="1">
<text text-anchor="middle" x="59.0373" y="-110.438" font-family="Helvetica,sans-Serif" font-size="10.00">1</text>
</a>
</g>
</g>
<!-- dir_4ab6b4cc6a7edbff49100e9123df213f -->
<g id="node3" class="node"><title>dir_4ab6b4cc6a7edbff49100e9123df213f</title>
<g id="a_node3"><a xlink:href="dir_4ab6b4cc6a7edbff49100e9123df213f.html" target="_top" xlink:title="Common">
<polygon fill="none" stroke="red" points="127.5,-108 72.5,-108 72.5,-72 127.5,-72 127.5,-108"/>
<text text-anchor="middle" x="100" y="-87.5" font-family="Helvetica,sans-Serif" font-size="10.00">Common</text>
</a>
</g>
</g>
<!-- dir_2ee63cb02d4d26656f90dc0bda9a1f77&#45;&gt;dir_4ab6b4cc6a7edbff49100e9123df213f -->
<g id="edge3" class="edge"><title>dir_2ee63cb02d4d26656f90dc0bda9a1f77&#45;&gt;dir_4ab6b4cc6a7edbff49100e9123df213f</title>
<path fill="none" stroke="black" d="M100,-143.697C100,-135.983 100,-126.712 100,-118.112"/>
<polygon fill="black" stroke="black" points="103.5,-118.104 100,-108.104 96.5001,-118.104 103.5,-118.104"/>
<g id="a_edge3&#45;headlabel"><a xlink:href="dir_000106_000016.html" target="_top" xlink:title="1">
<text text-anchor="middle" x="106.339" y="-119.199" font-family="Helvetica,sans-Serif" font-size="10.00">1</text>
</a>
</g>
</g>
<!-- dir_37c90836491b695b472bf98d1be8336b -->
<g id="node4" class="node"><title>dir_37c90836491b695b472bf98d1be8336b</title>
<g id="a_node4"><a xlink:href="dir_37c90836491b695b472bf98d1be8336b.html" target="_top" xlink:title="Base">
<polygon fill="none" stroke="red" points="127,-36 73,-36 73,-0 127,-0 127,-36"/>
<text text-anchor="middle" x="100" y="-15.5" font-family="Helvetica,sans-Serif" font-size="10.00">Base</text>
</a>
</g>
</g>
<!-- dir_2ee63cb02d4d26656f90dc0bda9a1f77&#45;&gt;dir_37c90836491b695b472bf98d1be8336b -->
<g id="edge4" class="edge"><title>dir_2ee63cb02d4d26656f90dc0bda9a1f77&#45;&gt;dir_37c90836491b695b472bf98d1be8336b</title>
<path fill="none" stroke="black" d="M115.61,-143.774C123.373,-134.03 131.946,-121.184 136,-108 140.703,-92.7067 140.703,-87.2933 136,-72 132.991,-62.2153 127.493,-52.6161 121.684,-44.3336"/>
<polygon fill="black" stroke="black" points="124.407,-42.1306 115.61,-36.2264 118.805,-46.3279 124.407,-42.1306"/>
<g id="a_edge4&#45;headlabel"><a xlink:href="dir_000106_000073.html" target="_top" xlink:title="1">
<text text-anchor="middle" x="128.835" y="-40.8048" font-family="Helvetica,sans-Serif" font-size="10.00">1</text>
</a>
</g>
</g>
<!-- dir_4ab6b4cc6a7edbff49100e9123df213f&#45;&gt;dir_37c90836491b695b472bf98d1be8336b -->
<g id="edge1" class="edge"><title>dir_4ab6b4cc6a7edbff49100e9123df213f&#45;&gt;dir_37c90836491b695b472bf98d1be8336b</title>
<path fill="none" stroke="black" d="M94.0843,-71.6966C93.2886,-63.9827 93.0621,-54.7125 93.4047,-46.1124"/>
<polygon fill="black" stroke="black" points="96.8984,-46.3243 94.105,-36.1043 89.9154,-45.8356 96.8984,-46.3243"/>
<g id="a_edge1&#45;headlabel"><a xlink:href="dir_000016_000073.html" target="_top" xlink:title="1">
<text text-anchor="middle" x="99.4799" y="-47.6083" font-family="Helvetica,sans-Serif" font-size="10.00">1</text>
</a>
</g>
</g>
<!-- dir_37c90836491b695b472bf98d1be8336b&#45;&gt;dir_4ab6b4cc6a7edbff49100e9123df213f -->
<g id="edge5" class="edge"><title>dir_37c90836491b695b472bf98d1be8336b&#45;&gt;dir_4ab6b4cc6a7edbff49100e9123df213f</title>
<path fill="none" stroke="black" d="M105.895,-36.1043C106.701,-43.7913 106.937,-53.0537 106.604,-61.6651"/>
<polygon fill="black" stroke="black" points="103.109,-61.4805 105.916,-71.6966 110.092,-61.9597 103.109,-61.4805"/>
<g id="a_edge5&#45;headlabel"><a xlink:href="dir_000073_000016.html" target="_top" xlink:title="8">
<text text-anchor="middle" x="100.522" y="-55.2" font-family="Helvetica,sans-Serif" font-size="10.00">8</text>
</a>
</g>
</g>
</g>
</svg>
