<?xml version="1.0" encoding="UTF-8" standalone="no"?>
<!DOCTYPE svg PUBLIC "-//W3C//DTD SVG 1.1//EN"
 "http://www.w3.org/Graphics/SVG/1.1/DTD/svg11.dtd">
<!-- Generated by graphviz version 2.36.0 (20140111.2315)
 -->
<!-- Title: /home/travis/build/AliceO2Group/AliceO2/run Pages: 1 -->
<svg width="124pt" height="260pt"
 viewBox="0.00 0.00 123.55 260.00" xmlns="http://www.w3.org/2000/svg" xmlns:xlink="http://www.w3.org/1999/xlink">
<g id="graph0" class="graph" transform="scale(1 1) rotate(0) translate(4 256)">
<title>/home/travis/build/AliceO2Group/AliceO2/run</title>
<!-- dir_a306b7cc5167c29e131a00bfce4c6187 -->
<g id="node1" class="node"><title>dir_a306b7cc5167c29e131a00bfce4c6187</title>
<g id="a_node1"><a xlink:href="dir_a306b7cc5167c29e131a00bfce4c6187.html" target="_top" xlink:title="run">
<polygon fill="#eeeeff" stroke="black" points="60.5518,-252 6.55184,-252 6.55184,-216 60.5518,-216 60.5518,-252"/>
<text text-anchor="middle" x="33.5518" y="-231.5" font-family="Helvetica,sans-Serif" font-size="10.00">run</text>
</a>
</g>
</g>
<!-- dir_4ab6b4cc6a7edbff49100e9123df213f -->
<g id="node2" class="node"><title>dir_4ab6b4cc6a7edbff49100e9123df213f</title>
<g id="a_node2"><a xlink:href="dir_4ab6b4cc6a7edbff49100e9123df213f.html" target="_top" xlink:title="Common">
<polygon fill="none" stroke="red" points="70.0518,-108 15.0518,-108 15.0518,-72 70.0518,-72 70.0518,-108"/>
<text text-anchor="middle" x="42.5518" y="-87.5" font-family="Helvetica,sans-Serif" font-size="10.00">Common</text>
</a>
</g>
</g>
<!-- dir_a306b7cc5167c29e131a00bfce4c6187&#45;&gt;dir_4ab6b4cc6a7edbff49100e9123df213f -->
<g id="edge1" class="edge"><title>dir_a306b7cc5167c29e131a00bfce4c6187&#45;&gt;dir_4ab6b4cc6a7edbff49100e9123df213f</title>
<path fill="none" stroke="black" d="M34.6374,-215.871C36.1713,-191.67 38.9892,-147.211 40.8156,-118.393"/>
<polygon fill="black" stroke="black" points="44.3227,-118.391 41.4624,-108.189 37.3368,-117.948 44.3227,-118.391"/>
<g id="a_edge1&#45;headlabel"><a xlink:href="dir_000278_000016.html" target="_top" xlink:title="1">
<text text-anchor="middle" x="46.9291" y="-119.658" font-family="Helvetica,sans-Serif" font-size="10.00">1</text>
</a>
</g>
</g>
<!-- dir_051dca18e802f8e9474f2e30d29c04e0 -->
<g id="node3" class="node"><title>dir_051dca18e802f8e9474f2e30d29c04e0</title>
<g id="a_node3"><a xlink:href="dir_051dca18e802f8e9474f2e30d29c04e0.html" target="_top" xlink:title="Detectors">
<polygon fill="none" stroke="red" points="71.8018,-36 13.3018,-36 13.3018,-0 71.8018,-0 71.8018,-36"/>
<text text-anchor="middle" x="42.5518" y="-15.5" font-family="Helvetica,sans-Serif" font-size="10.00">Detectors</text>
</a>
</g>
</g>
<!-- dir_a306b7cc5167c29e131a00bfce4c6187&#45;&gt;dir_051dca18e802f8e9474f2e30d29c04e0 -->
<g id="edge2" class="edge"><title>dir_a306b7cc5167c29e131a00bfce4c6187&#45;&gt;dir_051dca18e802f8e9474f2e30d29c04e0</title>
<path fill="none" stroke="black" d="M25.2872,-215.726C12.1508,-185.858 -10.4512,-122.88 5.55184,-72 8.65046,-62.1483 14.303,-52.5302 20.2728,-44.2511"/>
<polygon fill="black" stroke="black" points="23.1811,-46.2111 26.5149,-36.1544 17.6373,-41.9371 23.1811,-46.2111"/>
<g id="a_edge2&#45;headlabel"><a xlink:href="dir_000278_000072.html" target="_top" xlink:title="1">
<text text-anchor="middle" x="23.235" y="-48.2914" font-family="Helvetica,sans-Serif" font-size="10.00">1</text>
</a>
</g>
</g>
<!-- dir_3b579af105d68949fc87077585f616df -->
<g id="node4" class="node"><title>dir_3b579af105d68949fc87077585f616df</title>
<g id="a_node4"><a xlink:href="dir_3b579af105d68949fc87077585f616df.html" target="_top" xlink:title="macro">
<polygon fill="none" stroke="black" points="115.552,-180 61.5518,-180 61.5518,-144 115.552,-144 115.552,-180"/>
<text text-anchor="middle" x="88.5518" y="-159.5" font-family="Helvetica,sans-Serif" font-size="10.00">macro</text>
</a>
</g>
</g>
<!-- dir_a306b7cc5167c29e131a00bfce4c6187&#45;&gt;dir_3b579af105d68949fc87077585f616df -->
<g id="edge3" class="edge"><title>dir_a306b7cc5167c29e131a00bfce4c6187&#45;&gt;dir_3b579af105d68949fc87077585f616df</title>
<path fill="none" stroke="black" d="M47.1473,-215.697C53.6745,-207.389 61.6199,-197.277 68.7984,-188.141"/>
<polygon fill="black" stroke="black" points="71.6866,-190.13 75.1127,-180.104 66.1823,-185.805 71.6866,-190.13"/>
<g id="a_edge3&#45;headlabel"><a xlink:href="dir_000278_000162.html" target="_top" xlink:title="4">
<text text-anchor="middle" x="71.6984" y="-192.211" font-family="Helvetica,sans-Serif" font-size="10.00">4</text>
</a>
</g>
</g>
<!-- dir_4ab6b4cc6a7edbff49100e9123df213f&#45;&gt;dir_051dca18e802f8e9474f2e30d29c04e0 -->
<g id="edge4" class="edge"><title>dir_4ab6b4cc6a7edbff49100e9123df213f&#45;&gt;dir_051dca18e802f8e9474f2e30d29c04e0</title>
<path fill="none" stroke="black" d="M36.6361,-71.6966C35.8404,-63.9827 35.6139,-54.7125 35.9566,-46.1124"/>
<polygon fill="black" stroke="black" points="39.4502,-46.3243 36.6568,-36.1043 32.4673,-45.8356 39.4502,-46.3243"/>
<g id="a_edge4&#45;headlabel"><a xlink:href="dir_000016_000072.html" target="_top" xlink:title="1">
<text text-anchor="middle" x="42.0317" y="-47.6083" font-family="Helvetica,sans-Serif" font-size="10.00">1</text>
</a>
</g>
</g>
<!-- dir_051dca18e802f8e9474f2e30d29c04e0&#45;&gt;dir_4ab6b4cc6a7edbff49100e9123df213f -->
<g id="edge5" class="edge"><title>dir_051dca18e802f8e9474f2e30d29c04e0&#45;&gt;dir_4ab6b4cc6a7edbff49100e9123df213f</title>
<path fill="none" stroke="black" d="M48.4469,-36.1043C49.2524,-43.7913 49.4887,-53.0537 49.1559,-61.6651"/>
<polygon fill="black" stroke="black" points="45.6604,-61.4805 48.4676,-71.6966 52.644,-61.9597 45.6604,-61.4805"/>
<g id="a_edge5&#45;headlabel"><a xlink:href="dir_000072_000016.html" target="_top" xlink:title="36">
<text text-anchor="middle" x="43.0737" y="-55.2" font-family="Helvetica,sans-Serif" font-size="10.00">36</text>
</a>
</g>
</g>
<!-- dir_3b579af105d68949fc87077585f616df&#45;&gt;dir_4ab6b4cc6a7edbff49100e9123df213f -->
<g id="edge6" class="edge"><title>dir_3b579af105d68949fc87077585f616df&#45;&gt;dir_4ab6b4cc6a7edbff49100e9123df213f</title>
<path fill="none" stroke="black" d="M77.181,-143.697C71.8334,-135.559 65.3475,-125.689 59.4412,-116.701"/>
<polygon fill="black" stroke="black" points="62.2086,-114.539 53.7918,-108.104 56.3587,-118.384 62.2086,-114.539"/>
<g id="a_edge6&#45;headlabel"><a xlink:href="dir_000162_000016.html" target="_top" xlink:title="12">
<text text-anchor="middle" x="66.5555" y="-113.484" font-family="Helvetica,sans-Serif" font-size="10.00">12</text>
</a>
</g>
</g>
<!-- dir_3b579af105d68949fc87077585f616df&#45;&gt;dir_051dca18e802f8e9474f2e30d29c04e0 -->
<g id="edge7" class="edge"><title>dir_3b579af105d68949fc87077585f616df&#45;&gt;dir_051dca18e802f8e9474f2e30d29c04e0</title>
<path fill="none" stroke="black" d="M89.0325,-143.708C88.994,-125.352 87.344,-95.7703 78.5518,-72 75.0005,-62.3988 69.35,-52.8512 63.5686,-44.5595"/>
<polygon fill="black" stroke="black" points="66.3262,-42.4016 57.5788,-36.4237 60.6891,-46.5517 66.3262,-42.4016"/>
<g id="a_edge7&#45;headlabel"><a xlink:href="dir_000162_000072.html" target="_top" xlink:title="38">
<text text-anchor="middle" x="70.7437" y="-41.1129" font-family="Helvetica,sans-Serif" font-size="10.00">38</text>
</a>
</g>
</g>
</g>
</svg>
