<?xml version="1.0" encoding="UTF-8" standalone="no"?>
<!DOCTYPE svg PUBLIC "-//W3C//DTD SVG 1.1//EN"
 "http://www.w3.org/Graphics/SVG/1.1/DTD/svg11.dtd">
<!-- Generated by graphviz version 2.36.0 (20140111.2315)
 -->
<!-- Title: /home/travis/build/AliceO2Group/AliceO2/Detectors/Passive/src Pages: 1 -->
<svg width="174pt" height="223pt"
 viewBox="0.00 0.00 174.00 223.00" xmlns="http://www.w3.org/2000/svg" xmlns:xlink="http://www.w3.org/1999/xlink">
<g id="graph0" class="graph" transform="scale(1 1) rotate(0) translate(4 219)">
<title>/home/travis/build/AliceO2Group/AliceO2/Detectors/Passive/src</title>
<g id="clust1" class="cluster"><title>clusterdir_f01815b857f9009bea48e2cb39492245</title>
<g id="a_clust1"><a xlink:href="dir_f01815b857f9009bea48e2cb39492245.html" target="_top" xlink:title="Passive">
<polygon fill="#ddddee" stroke="black" points="49,-136 49,-207 119,-207 119,-136 49,-136"/>
<text text-anchor="middle" x="84" y="-195" font-family="Helvetica,sans-Serif" font-size="10.00">Passive</text>
</a>
</g>
</g>
<!-- dir_10d76898a04551763acb591e169d8789 -->
<g id="node1" class="node"><title>dir_10d76898a04551763acb591e169d8789</title>
<g id="a_node1"><a xlink:href="dir_10d76898a04551763acb591e169d8789.html" target="_top" xlink:title="src">
<polygon fill="#eeeeff" stroke="black" points="111,-180 57,-180 57,-144 111,-144 111,-180"/>
<text text-anchor="middle" x="84" y="-159.5" font-family="Helvetica,sans-Serif" font-size="10.00">src</text>
</a>
</g>
</g>
<!-- dir_4ab6b4cc6a7edbff49100e9123df213f -->
<g id="node2" class="node"><title>dir_4ab6b4cc6a7edbff49100e9123df213f</title>
<g id="a_node2"><a xlink:href="dir_4ab6b4cc6a7edbff49100e9123df213f.html" target="_top" xlink:title="Common">
<polygon fill="none" stroke="red" points="55.5,-108 0.5,-108 0.5,-72 55.5,-72 55.5,-108"/>
<text text-anchor="middle" x="28" y="-87.5" font-family="Helvetica,sans-Serif" font-size="10.00">Common</text>
</a>
</g>
</g>
<!-- dir_10d76898a04551763acb591e169d8789&#45;&gt;dir_4ab6b4cc6a7edbff49100e9123df213f -->
<g id="edge3" class="edge"><title>dir_10d76898a04551763acb591e169d8789&#45;&gt;dir_4ab6b4cc6a7edbff49100e9123df213f</title>
<path fill="none" stroke="black" d="M70.1573,-143.697C63.5115,-135.389 55.4216,-125.277 48.1126,-116.141"/>
<polygon fill="black" stroke="black" points="50.6635,-113.727 41.6835,-108.104 45.1974,-118.099 50.6635,-113.727"/>
<g id="a_edge3&#45;headlabel"><a xlink:href="dir_000201_000016.html" target="_top" xlink:title="1">
<text text-anchor="middle" x="55.1261" y="-112.26" font-family="Helvetica,sans-Serif" font-size="10.00">1</text>
</a>
</g>
</g>
<!-- dir_37c90836491b695b472bf98d1be8336b -->
<g id="node3" class="node"><title>dir_37c90836491b695b472bf98d1be8336b</title>
<g id="a_node3"><a xlink:href="dir_37c90836491b695b472bf98d1be8336b.html" target="_top" xlink:title="Base">
<polygon fill="none" stroke="red" points="55,-36 1,-36 1,-0 55,-0 55,-36"/>
<text text-anchor="middle" x="28" y="-15.5" font-family="Helvetica,sans-Serif" font-size="10.00">Base</text>
</a>
</g>
</g>
<!-- dir_10d76898a04551763acb591e169d8789&#45;&gt;dir_37c90836491b695b472bf98d1be8336b -->
<g id="edge4" class="edge"><title>dir_10d76898a04551763acb591e169d8789&#45;&gt;dir_37c90836491b695b472bf98d1be8336b</title>
<path fill="none" stroke="black" d="M82.0625,-143.675C79.5646,-125.291 74.2625,-95.6862 64,-72 59.8646,-62.4553 53.9466,-52.8116 48.1002,-44.4147"/>
<polygon fill="black" stroke="black" points="50.8209,-42.2048 42.1113,-36.1721 45.1579,-46.3195 50.8209,-42.2048"/>
<g id="a_edge4&#45;headlabel"><a xlink:href="dir_000201_000073.html" target="_top" xlink:title="16">
<text text-anchor="middle" x="55.2308" y="-40.9439" font-family="Helvetica,sans-Serif" font-size="10.00">16</text>
</a>
</g>
</g>
<!-- dir_d5ecc06a730b889a096d12946000dd48 -->
<g id="node4" class="node"><title>dir_d5ecc06a730b889a096d12946000dd48</title>
<g id="a_node4"><a xlink:href="dir_d5ecc06a730b889a096d12946000dd48.html" target="_top" xlink:title="include">
<polygon fill="none" stroke="red" points="166,-108 112,-108 112,-72 166,-72 166,-108"/>
<text text-anchor="middle" x="139" y="-87.5" font-family="Helvetica,sans-Serif" font-size="10.00">include</text>
</a>
</g>
</g>
<!-- dir_10d76898a04551763acb591e169d8789&#45;&gt;dir_d5ecc06a730b889a096d12946000dd48 -->
<g id="edge5" class="edge"><title>dir_10d76898a04551763acb591e169d8789&#45;&gt;dir_d5ecc06a730b889a096d12946000dd48</title>
<path fill="none" stroke="black" d="M97.5955,-143.697C104.123,-135.389 112.068,-125.277 119.247,-116.141"/>
<polygon fill="black" stroke="black" points="122.135,-118.13 125.561,-108.104 116.631,-113.805 122.135,-118.13"/>
<g id="a_edge5&#45;headlabel"><a xlink:href="dir_000201_000198.html" target="_top" xlink:title="9">
<text text-anchor="middle" x="122.147" y="-120.211" font-family="Helvetica,sans-Serif" font-size="10.00">9</text>
</a>
</g>
</g>
<!-- dir_4ab6b4cc6a7edbff49100e9123df213f&#45;&gt;dir_37c90836491b695b472bf98d1be8336b -->
<g id="edge1" class="edge"><title>dir_4ab6b4cc6a7edbff49100e9123df213f&#45;&gt;dir_37c90836491b695b472bf98d1be8336b</title>
<path fill="none" stroke="black" d="M22.0843,-71.6966C21.2886,-63.9827 21.0621,-54.7125 21.4047,-46.1124"/>
<polygon fill="black" stroke="black" points="24.8984,-46.3243 22.105,-36.1043 17.9154,-45.8356 24.8984,-46.3243"/>
<g id="a_edge1&#45;headlabel"><a xlink:href="dir_000016_000073.html" target="_top" xlink:title="1">
<text text-anchor="middle" x="27.4799" y="-47.6083" font-family="Helvetica,sans-Serif" font-size="10.00">1</text>
</a>
</g>
</g>
<!-- dir_37c90836491b695b472bf98d1be8336b&#45;&gt;dir_4ab6b4cc6a7edbff49100e9123df213f -->
<g id="edge2" class="edge"><title>dir_37c90836491b695b472bf98d1be8336b&#45;&gt;dir_4ab6b4cc6a7edbff49100e9123df213f</title>
<path fill="none" stroke="black" d="M33.895,-36.1043C34.7005,-43.7913 34.9369,-53.0537 34.604,-61.6651"/>
<polygon fill="black" stroke="black" points="31.1085,-61.4805 33.9157,-71.6966 38.0921,-61.9597 31.1085,-61.4805"/>
<g id="a_edge2&#45;headlabel"><a xlink:href="dir_000073_000016.html" target="_top" xlink:title="8">
<text text-anchor="middle" x="28.5219" y="-55.2" font-family="Helvetica,sans-Serif" font-size="10.00">8</text>
</a>
</g>
</g>
</g>
</svg>
