<?xml version="1.0" encoding="UTF-8" standalone="no"?>
<!DOCTYPE svg PUBLIC "-//W3C//DTD SVG 1.1//EN"
 "http://www.w3.org/Graphics/SVG/1.1/DTD/svg11.dtd">
<!-- Generated by graphviz version 2.36.0 (20140111.2315)
 -->
<!-- Title: /home/travis/build/AliceO2Group/AliceO2/Detectors/ITSMFT/ITS/reconstruction/src Pages: 1 -->
<svg width="376pt" height="511pt"
 viewBox="0.00 0.00 376.00 511.00" xmlns="http://www.w3.org/2000/svg" xmlns:xlink="http://www.w3.org/1999/xlink">
<g id="graph0" class="graph" transform="scale(1 1) rotate(0) translate(4 507)">
<title>/home/travis/build/AliceO2Group/AliceO2/Detectors/ITSMFT/ITS/reconstruction/src</title>
<g id="clust1" class="cluster"><title>clusterdir_5125ceb2b58f632ed0a3019fe2d5cbbc</title>
<g id="a_clust1"><a xlink:href="dir_5125ceb2b58f632ed0a3019fe2d5cbbc.html" target="_top" xlink:title="reconstruction">
<polygon fill="#ddddee" stroke="black" points="123,-424 123,-495 201,-495 201,-424 123,-424"/>
<text text-anchor="middle" x="162" y="-483" font-family="Helvetica,sans-Serif" font-size="10.00">reconstruction</text>
</a>
</g>
</g>
<!-- dir_912fdeb75838ec7e9173df897dc72438 -->
<g id="node1" class="node"><title>dir_912fdeb75838ec7e9173df897dc72438</title>
<g id="a_node1"><a xlink:href="dir_912fdeb75838ec7e9173df897dc72438.html" target="_top" xlink:title="src">
<polygon fill="#eeeeff" stroke="black" points="189,-468 135,-468 135,-432 189,-432 189,-468"/>
<text text-anchor="middle" x="162" y="-447.5" font-family="Helvetica,sans-Serif" font-size="10.00">src</text>
</a>
</g>
</g>
<!-- dir_eedff867f3c4e67d20b227cb6e0f96ab -->
<g id="node2" class="node"><title>dir_eedff867f3c4e67d20b227cb6e0f96ab</title>
<g id="a_node2"><a xlink:href="dir_eedff867f3c4e67d20b227cb6e0f96ab.html" target="_top" xlink:title="base">
<polygon fill="none" stroke="red" points="124,-324 70,-324 70,-288 124,-288 124,-324"/>
<text text-anchor="middle" x="97" y="-303.5" font-family="Helvetica,sans-Serif" font-size="10.00">base</text>
</a>
</g>
</g>
<!-- dir_912fdeb75838ec7e9173df897dc72438&#45;&gt;dir_eedff867f3c4e67d20b227cb6e0f96ab -->
<g id="edge6" class="edge"><title>dir_912fdeb75838ec7e9173df897dc72438&#45;&gt;dir_eedff867f3c4e67d20b227cb6e0f96ab</title>
<path fill="none" stroke="black" d="M134.808,-433.785C121.439,-424.708 106.598,-411.854 99,-396 89.7866,-376.776 89.9208,-352.432 92.0044,-334.065"/>
<polygon fill="black" stroke="black" points="95.4897,-334.412 93.4005,-324.025 88.5564,-333.448 95.4897,-334.412"/>
<g id="a_edge6&#45;headlabel"><a xlink:href="dir_000183_000164.html" target="_top" xlink:title="1">
<text text-anchor="middle" x="97.8068" y="-335.863" font-family="Helvetica,sans-Serif" font-size="10.00">1</text>
</a>
</g>
</g>
<!-- dir_4ab6b4cc6a7edbff49100e9123df213f -->
<g id="node3" class="node"><title>dir_4ab6b4cc6a7edbff49100e9123df213f</title>
<g id="a_node3"><a xlink:href="dir_4ab6b4cc6a7edbff49100e9123df213f.html" target="_top" xlink:title="Common">
<polygon fill="none" stroke="red" points="198.5,-108 143.5,-108 143.5,-72 198.5,-72 198.5,-108"/>
<text text-anchor="middle" x="171" y="-87.5" font-family="Helvetica,sans-Serif" font-size="10.00">Common</text>
</a>
</g>
</g>
<!-- dir_912fdeb75838ec7e9173df897dc72438&#45;&gt;dir_4ab6b4cc6a7edbff49100e9123df213f -->
<g id="edge7" class="edge"><title>dir_912fdeb75838ec7e9173df897dc72438&#45;&gt;dir_4ab6b4cc6a7edbff49100e9123df213f</title>
<path fill="none" stroke="black" d="M167.666,-431.728C175.848,-405.21 190,-352.732 190,-307 190,-307 190,-307 190,-233 190,-192.86 182.449,-146.897 176.868,-118.405"/>
<polygon fill="black" stroke="black" points="180.255,-117.498 174.845,-108.388 173.394,-118.883 180.255,-117.498"/>
<g id="a_edge7&#45;headlabel"><a xlink:href="dir_000183_000016.html" target="_top" xlink:title="5">
<text text-anchor="middle" x="183.75" y="-117.959" font-family="Helvetica,sans-Serif" font-size="10.00">5</text>
</a>
</g>
</g>
<!-- dir_37c90836491b695b472bf98d1be8336b -->
<g id="node4" class="node"><title>dir_37c90836491b695b472bf98d1be8336b</title>
<g id="a_node4"><a xlink:href="dir_37c90836491b695b472bf98d1be8336b.html" target="_top" xlink:title="Base">
<polygon fill="none" stroke="red" points="198,-36 144,-36 144,-0 198,-0 198,-36"/>
<text text-anchor="middle" x="171" y="-15.5" font-family="Helvetica,sans-Serif" font-size="10.00">Base</text>
</a>
</g>
</g>
<!-- dir_912fdeb75838ec7e9173df897dc72438&#45;&gt;dir_37c90836491b695b472bf98d1be8336b -->
<g id="edge8" class="edge"><title>dir_912fdeb75838ec7e9173df897dc72438&#45;&gt;dir_37c90836491b695b472bf98d1be8336b</title>
<path fill="none" stroke="black" d="M134.885,-439.58C88.7674,-421.629 0,-377.873 0,-307 0,-307 0,-307 0,-161 0,-114.733 19.381,-102.695 54,-72 77.0239,-51.586 109.22,-37.7805 134.012,-29.3902"/>
<polygon fill="black" stroke="black" points="135.355,-32.6342 143.794,-26.2275 133.202,-25.9737 135.355,-32.6342"/>
<g id="a_edge8&#45;headlabel"><a xlink:href="dir_000183_000073.html" target="_top" xlink:title="9">
<text text-anchor="middle" x="132.809" y="-33.9416" font-family="Helvetica,sans-Serif" font-size="10.00">9</text>
</a>
</g>
</g>
<!-- dir_85bf31a2e8d306e7598ffcb73f8df6bf -->
<g id="node5" class="node"><title>dir_85bf31a2e8d306e7598ffcb73f8df6bf</title>
<g id="a_node5"><a xlink:href="dir_85bf31a2e8d306e7598ffcb73f8df6bf.html" target="_top" xlink:title="common">
<polygon fill="none" stroke="red" points="280,-252 226,-252 226,-216 280,-216 280,-252"/>
<text text-anchor="middle" x="253" y="-231.5" font-family="Helvetica,sans-Serif" font-size="10.00">common</text>
</a>
</g>
</g>
<!-- dir_912fdeb75838ec7e9173df897dc72438&#45;&gt;dir_85bf31a2e8d306e7598ffcb73f8df6bf -->
<g id="edge9" class="edge"><title>dir_912fdeb75838ec7e9173df897dc72438&#45;&gt;dir_85bf31a2e8d306e7598ffcb73f8df6bf</title>
<path fill="none" stroke="black" d="M178.593,-431.543C187.176,-421.732 197.242,-408.894 204,-396 227.132,-351.867 241.19,-295.083 247.998,-262.091"/>
<polygon fill="black" stroke="black" points="251.435,-262.752 249.956,-252.261 244.57,-261.385 251.435,-262.752"/>
<g id="a_edge9&#45;headlabel"><a xlink:href="dir_000183_000137.html" target="_top" xlink:title="9">
<text text-anchor="middle" x="253.517" y="-264.332" font-family="Helvetica,sans-Serif" font-size="10.00">9</text>
</a>
</g>
</g>
<!-- dir_a7418508cffd1c8afbbd736339058404 -->
<g id="node6" class="node"><title>dir_a7418508cffd1c8afbbd736339058404</title>
<g id="a_node6"><a xlink:href="dir_a7418508cffd1c8afbbd736339058404.html" target="_top" xlink:title="include">
<polygon fill="none" stroke="red" points="162,-396 108,-396 108,-360 162,-360 162,-396"/>
<text text-anchor="middle" x="135" y="-375.5" font-family="Helvetica,sans-Serif" font-size="10.00">include</text>
</a>
</g>
</g>
<!-- dir_912fdeb75838ec7e9173df897dc72438&#45;&gt;dir_a7418508cffd1c8afbbd736339058404 -->
<g id="edge10" class="edge"><title>dir_912fdeb75838ec7e9173df897dc72438&#45;&gt;dir_a7418508cffd1c8afbbd736339058404</title>
<path fill="none" stroke="black" d="M155.326,-431.697C152.285,-423.813 148.617,-414.304 145.239,-405.546"/>
<polygon fill="black" stroke="black" points="148.462,-404.175 141.597,-396.104 141.931,-406.694 148.462,-404.175"/>
<g id="a_edge10&#45;headlabel"><a xlink:href="dir_000183_000181.html" target="_top" xlink:title="9">
<text text-anchor="middle" x="152.404" y="-404.007" font-family="Helvetica,sans-Serif" font-size="10.00">9</text>
</a>
</g>
</g>
<!-- dir_2171f7ec022c5423887b07c69b2f5b48 -->
<g id="node7" class="node"><title>dir_2171f7ec022c5423887b07c69b2f5b48</title>
<g id="a_node7"><a xlink:href="dir_2171f7ec022c5423887b07c69b2f5b48.html" target="_top" xlink:title="DataFormats">
<polygon fill="none" stroke="red" points="368,-180 294,-180 294,-144 368,-144 368,-180"/>
<text text-anchor="middle" x="331" y="-159.5" font-family="Helvetica,sans-Serif" font-size="10.00">DataFormats</text>
</a>
</g>
</g>
<!-- dir_912fdeb75838ec7e9173df897dc72438&#45;&gt;dir_2171f7ec022c5423887b07c69b2f5b48 -->
<g id="edge11" class="edge"><title>dir_912fdeb75838ec7e9173df897dc72438&#45;&gt;dir_2171f7ec022c5423887b07c69b2f5b48</title>
<path fill="none" stroke="black" d="M188.551,-431.767C201.434,-422.388 216.38,-409.875 227,-396 277.456,-330.078 309.772,-235.81 323.468,-190.024"/>
<polygon fill="black" stroke="black" points="326.881,-190.824 326.33,-180.243 320.163,-188.858 326.881,-190.824"/>
<g id="a_edge11&#45;headlabel"><a xlink:href="dir_000183_000043.html" target="_top" xlink:title="10">
<text text-anchor="middle" x="328.597" y="-192.571" font-family="Helvetica,sans-Serif" font-size="10.00">10</text>
</a>
</g>
</g>
<!-- dir_eedff867f3c4e67d20b227cb6e0f96ab&#45;&gt;dir_4ab6b4cc6a7edbff49100e9123df213f -->
<g id="edge1" class="edge"><title>dir_eedff867f3c4e67d20b227cb6e0f96ab&#45;&gt;dir_4ab6b4cc6a7edbff49100e9123df213f</title>
<path fill="none" stroke="black" d="M99.5605,-287.993C104.458,-258.002 116.614,-194.144 138,-144 141.935,-134.774 147.336,-125.294 152.63,-116.948"/>
<polygon fill="black" stroke="black" points="155.681,-118.679 158.258,-108.402 149.835,-114.829 155.681,-118.679"/>
<g id="a_edge1&#45;headlabel"><a xlink:href="dir_000164_000016.html" target="_top" xlink:title="1">
<text text-anchor="middle" x="156.075" y="-120.743" font-family="Helvetica,sans-Serif" font-size="10.00">1</text>
</a>
</g>
</g>
<!-- dir_eedff867f3c4e67d20b227cb6e0f96ab&#45;&gt;dir_37c90836491b695b472bf98d1be8336b -->
<g id="edge2" class="edge"><title>dir_eedff867f3c4e67d20b227cb6e0f96ab&#45;&gt;dir_37c90836491b695b472bf98d1be8336b</title>
<path fill="none" stroke="black" d="M96.8377,-287.809C97.0657,-248.07 101.127,-147.478 134,-72 138.19,-62.3788 144.256,-52.7144 150.269,-44.3222"/>
<polygon fill="black" stroke="black" points="153.24,-46.1941 156.434,-36.0923 147.637,-41.9972 153.24,-46.1941"/>
<g id="a_edge2&#45;headlabel"><a xlink:href="dir_000164_000073.html" target="_top" xlink:title="4">
<text text-anchor="middle" x="153.357" y="-48.2733" font-family="Helvetica,sans-Serif" font-size="10.00">4</text>
</a>
</g>
</g>
<!-- dir_eedff867f3c4e67d20b227cb6e0f96ab&#45;&gt;dir_85bf31a2e8d306e7598ffcb73f8df6bf -->
<g id="edge3" class="edge"><title>dir_eedff867f3c4e67d20b227cb6e0f96ab&#45;&gt;dir_85bf31a2e8d306e7598ffcb73f8df6bf</title>
<path fill="none" stroke="black" d="M124.173,-292.807C149.819,-281.299 188.45,-263.965 216.721,-251.279"/>
<polygon fill="black" stroke="black" points="218.186,-254.458 225.877,-247.171 215.321,-248.071 218.186,-254.458"/>
<g id="a_edge3&#45;headlabel"><a xlink:href="dir_000164_000137.html" target="_top" xlink:title="2">
<text text-anchor="middle" x="216.069" y="-256.02" font-family="Helvetica,sans-Serif" font-size="10.00">2</text>
</a>
</g>
</g>
<!-- dir_4ab6b4cc6a7edbff49100e9123df213f&#45;&gt;dir_37c90836491b695b472bf98d1be8336b -->
<g id="edge4" class="edge"><title>dir_4ab6b4cc6a7edbff49100e9123df213f&#45;&gt;dir_37c90836491b695b472bf98d1be8336b</title>
<path fill="none" stroke="black" d="M165.084,-71.6966C164.289,-63.9827 164.062,-54.7125 164.405,-46.1124"/>
<polygon fill="black" stroke="black" points="167.898,-46.3243 165.105,-36.1043 160.915,-45.8356 167.898,-46.3243"/>
<g id="a_edge4&#45;headlabel"><a xlink:href="dir_000016_000073.html" target="_top" xlink:title="1">
<text text-anchor="middle" x="170.48" y="-47.6083" font-family="Helvetica,sans-Serif" font-size="10.00">1</text>
</a>
</g>
</g>
<!-- dir_37c90836491b695b472bf98d1be8336b&#45;&gt;dir_4ab6b4cc6a7edbff49100e9123df213f -->
<g id="edge5" class="edge"><title>dir_37c90836491b695b472bf98d1be8336b&#45;&gt;dir_4ab6b4cc6a7edbff49100e9123df213f</title>
<path fill="none" stroke="black" d="M176.895,-36.1043C177.701,-43.7913 177.937,-53.0537 177.604,-61.6651"/>
<polygon fill="black" stroke="black" points="174.109,-61.4805 176.916,-71.6966 181.092,-61.9597 174.109,-61.4805"/>
<g id="a_edge5&#45;headlabel"><a xlink:href="dir_000073_000016.html" target="_top" xlink:title="8">
<text text-anchor="middle" x="171.522" y="-55.2" font-family="Helvetica,sans-Serif" font-size="10.00">8</text>
</a>
</g>
</g>
<!-- dir_85bf31a2e8d306e7598ffcb73f8df6bf&#45;&gt;dir_4ab6b4cc6a7edbff49100e9123df213f -->
<g id="edge12" class="edge"><title>dir_85bf31a2e8d306e7598ffcb73f8df6bf&#45;&gt;dir_4ab6b4cc6a7edbff49100e9123df213f</title>
<path fill="none" stroke="black" d="M243.876,-215.785C234.232,-197.745 218.447,-168.653 204,-144 198.712,-134.977 192.723,-125.227 187.312,-116.58"/>
<polygon fill="black" stroke="black" points="190.226,-114.64 181.936,-108.044 184.303,-118.371 190.226,-114.64"/>
<g id="a_edge12&#45;headlabel"><a xlink:href="dir_000137_000016.html" target="_top" xlink:title="2">
<text text-anchor="middle" x="194.545" y="-113.669" font-family="Helvetica,sans-Serif" font-size="10.00">2</text>
</a>
</g>
</g>
<!-- dir_85bf31a2e8d306e7598ffcb73f8df6bf&#45;&gt;dir_37c90836491b695b472bf98d1be8336b -->
<g id="edge13" class="edge"><title>dir_85bf31a2e8d306e7598ffcb73f8df6bf&#45;&gt;dir_37c90836491b695b472bf98d1be8336b</title>
<path fill="none" stroke="black" d="M250.008,-215.902C244.328,-185.771 230.413,-121.704 207,-72 202.567,-62.5897 196.569,-52.9822 190.741,-44.5772"/>
<polygon fill="black" stroke="black" points="193.479,-42.3903 184.801,-36.3122 187.795,-46.4754 193.479,-42.3903"/>
<g id="a_edge13&#45;headlabel"><a xlink:href="dir_000137_000073.html" target="_top" xlink:title="2">
<text text-anchor="middle" x="197.883" y="-41.1524" font-family="Helvetica,sans-Serif" font-size="10.00">2</text>
</a>
</g>
</g>
<!-- dir_85bf31a2e8d306e7598ffcb73f8df6bf&#45;&gt;dir_2171f7ec022c5423887b07c69b2f5b48 -->
<g id="edge14" class="edge"><title>dir_85bf31a2e8d306e7598ffcb73f8df6bf&#45;&gt;dir_2171f7ec022c5423887b07c69b2f5b48</title>
<path fill="none" stroke="black" d="M272.281,-215.697C281.915,-207.05 293.729,-196.449 304.227,-187.027"/>
<polygon fill="black" stroke="black" points="306.836,-189.388 311.941,-180.104 302.161,-184.179 306.836,-189.388"/>
<g id="a_edge14&#45;headlabel"><a xlink:href="dir_000137_000043.html" target="_top" xlink:title="8">
<text text-anchor="middle" x="306.057" y="-191.402" font-family="Helvetica,sans-Serif" font-size="10.00">8</text>
</a>
</g>
</g>
<!-- dir_a7418508cffd1c8afbbd736339058404&#45;&gt;dir_eedff867f3c4e67d20b227cb6e0f96ab -->
<g id="edge15" class="edge"><title>dir_a7418508cffd1c8afbbd736339058404&#45;&gt;dir_eedff867f3c4e67d20b227cb6e0f96ab</title>
<path fill="none" stroke="black" d="M125.607,-359.697C121.235,-351.644 115.943,-341.894 111.105,-332.982"/>
<polygon fill="black" stroke="black" points="114.132,-331.223 106.285,-324.104 107.98,-334.563 114.132,-331.223"/>
<g id="a_edge15&#45;headlabel"><a xlink:href="dir_000181_000164.html" target="_top" xlink:title="4">
<text text-anchor="middle" x="118.342" y="-330.528" font-family="Helvetica,sans-Serif" font-size="10.00">4</text>
</a>
</g>
</g>
<!-- dir_a7418508cffd1c8afbbd736339058404&#45;&gt;dir_4ab6b4cc6a7edbff49100e9123df213f -->
<g id="edge16" class="edge"><title>dir_a7418508cffd1c8afbbd736339058404&#45;&gt;dir_4ab6b4cc6a7edbff49100e9123df213f</title>
<path fill="none" stroke="black" d="M137.144,-359.966C143.158,-312.192 160.222,-176.623 167.568,-118.266"/>
<polygon fill="black" stroke="black" points="171.045,-118.665 168.822,-108.306 164.1,-117.791 171.045,-118.665"/>
<g id="a_edge16&#45;headlabel"><a xlink:href="dir_000181_000016.html" target="_top" xlink:title="1">
<text text-anchor="middle" x="173.413" y="-120.086" font-family="Helvetica,sans-Serif" font-size="10.00">1</text>
</a>
</g>
</g>
<!-- dir_a7418508cffd1c8afbbd736339058404&#45;&gt;dir_37c90836491b695b472bf98d1be8336b -->
<g id="edge17" class="edge"><title>dir_a7418508cffd1c8afbbd736339058404&#45;&gt;dir_37c90836491b695b472bf98d1be8336b</title>
<path fill="none" stroke="black" d="M107.674,-363.643C91.8102,-354.551 72.7072,-341.073 61,-324 37.895,-290.306 38,-275.855 38,-235 38,-235 38,-235 38,-161 38,-104.244 95.2983,-60.8175 134.678,-37.6739"/>
<polygon fill="black" stroke="black" points="136.805,-40.4906 143.765,-32.5024 133.342,-34.4069 136.805,-40.4906"/>
<g id="a_edge17&#45;headlabel"><a xlink:href="dir_000181_000073.html" target="_top" xlink:title="4">
<text text-anchor="middle" x="135.085" y="-42.2362" font-family="Helvetica,sans-Serif" font-size="10.00">4</text>
</a>
</g>
</g>
<!-- dir_a7418508cffd1c8afbbd736339058404&#45;&gt;dir_85bf31a2e8d306e7598ffcb73f8df6bf -->
<g id="edge18" class="edge"><title>dir_a7418508cffd1c8afbbd736339058404&#45;&gt;dir_85bf31a2e8d306e7598ffcb73f8df6bf</title>
<path fill="none" stroke="black" d="M149.234,-359.871C169.876,-335.031 208.254,-288.846 232.108,-260.142"/>
<polygon fill="black" stroke="black" points="235.017,-262.117 238.716,-252.189 229.633,-257.643 235.017,-262.117"/>
<g id="a_edge18&#45;headlabel"><a xlink:href="dir_000181_000137.html" target="_top" xlink:title="3">
<text text-anchor="middle" x="234.903" y="-264.197" font-family="Helvetica,sans-Serif" font-size="10.00">3</text>
</a>
</g>
</g>
<!-- dir_2171f7ec022c5423887b07c69b2f5b48&#45;&gt;dir_4ab6b4cc6a7edbff49100e9123df213f -->
<g id="edge19" class="edge"><title>dir_2171f7ec022c5423887b07c69b2f5b48&#45;&gt;dir_4ab6b4cc6a7edbff49100e9123df213f</title>
<path fill="none" stroke="black" d="M293.891,-144.765C268.105,-133.484 233.88,-118.51 208.097,-107.23"/>
<polygon fill="black" stroke="black" points="209.229,-103.905 198.664,-103.103 206.423,-110.318 209.229,-103.905"/>
<g id="a_edge19&#45;headlabel"><a xlink:href="dir_000043_000016.html" target="_top" xlink:title="4">
<text text-anchor="middle" x="213.66" y="-100.244" font-family="Helvetica,sans-Serif" font-size="10.00">4</text>
</a>
</g>
</g>
<!-- dir_2171f7ec022c5423887b07c69b2f5b48&#45;&gt;dir_37c90836491b695b472bf98d1be8336b -->
<g id="edge20" class="edge"><title>dir_2171f7ec022c5423887b07c69b2f5b48&#45;&gt;dir_37c90836491b695b472bf98d1be8336b</title>
<path fill="none" stroke="black" d="M324.813,-143.921C316.993,-124.372 301.86,-92.4264 280,-72 259.509,-52.853 230.811,-39.2773 208.004,-30.6615"/>
<polygon fill="black" stroke="black" points="208.907,-27.2662 198.312,-27.1604 206.528,-33.8498 208.907,-27.2662"/>
<g id="a_edge20&#45;headlabel"><a xlink:href="dir_000043_000073.html" target="_top" xlink:title="6">
<text text-anchor="middle" x="213.252" y="-23.317" font-family="Helvetica,sans-Serif" font-size="10.00">6</text>
</a>
</g>
</g>
</g>
</svg>
