<?xml version="1.0" encoding="UTF-8" standalone="no"?>
<!DOCTYPE svg PUBLIC "-//W3C//DTD SVG 1.1//EN"
 "http://www.w3.org/Graphics/SVG/1.1/DTD/svg11.dtd">
<!-- Generated by graphviz version 2.36.0 (20140111.2315)
 -->
<!-- Title: /home/travis/build/AliceO2Group/AliceO2/Detectors/Base/src Pages: 1 -->
<svg width="106pt" height="223pt"
 viewBox="0.00 0.00 106.00 223.00" xmlns="http://www.w3.org/2000/svg" xmlns:xlink="http://www.w3.org/1999/xlink">
<g id="graph0" class="graph" transform="scale(1 1) rotate(0) translate(4 219)">
<title>/home/travis/build/AliceO2Group/AliceO2/Detectors/Base/src</title>
<g id="clust1" class="cluster"><title>clusterdir_37c90836491b695b472bf98d1be8336b</title>
<g id="a_clust1"><a xlink:href="dir_37c90836491b695b472bf98d1be8336b.html" target="_top" xlink:title="Base">
<polygon fill="#ddddee" stroke="black" points="20,-136 20,-207 90,-207 90,-136 20,-136"/>
<text text-anchor="middle" x="55" y="-195" font-family="Helvetica,sans-Serif" font-size="10.00">Base</text>
</a>
</g>
</g>
<!-- dir_eeeef6c2eb7f500b211a8736eff99ff9 -->
<g id="node1" class="node"><title>dir_eeeef6c2eb7f500b211a8736eff99ff9</title>
<g id="a_node1"><a xlink:href="dir_eeeef6c2eb7f500b211a8736eff99ff9.html" target="_top" xlink:title="src">
<polygon fill="#eeeeff" stroke="black" points="82,-180 28,-180 28,-144 82,-144 82,-180"/>
<text text-anchor="middle" x="55" y="-159.5" font-family="Helvetica,sans-Serif" font-size="10.00">src</text>
</a>
</g>
</g>
<!-- dir_548839eeca1931d32df07653a7903e44 -->
<g id="node2" class="node"><title>dir_548839eeca1931d32df07653a7903e44</title>
<g id="a_node2"><a xlink:href="dir_548839eeca1931d32df07653a7903e44.html" target="_top" xlink:title="include">
<polygon fill="none" stroke="red" points="55,-108 1,-108 1,-72 55,-72 55,-108"/>
<text text-anchor="middle" x="28" y="-87.5" font-family="Helvetica,sans-Serif" font-size="10.00">include</text>
</a>
</g>
</g>
<!-- dir_eeeef6c2eb7f500b211a8736eff99ff9&#45;&gt;dir_548839eeca1931d32df07653a7903e44 -->
<g id="edge3" class="edge"><title>dir_eeeef6c2eb7f500b211a8736eff99ff9&#45;&gt;dir_548839eeca1931d32df07653a7903e44</title>
<path fill="none" stroke="black" d="M48.3258,-143.697C45.2851,-135.813 41.6173,-126.304 38.2393,-117.546"/>
<polygon fill="black" stroke="black" points="41.4617,-116.175 34.5974,-108.104 34.9307,-118.694 41.4617,-116.175"/>
<g id="a_edge3&#45;headlabel"><a xlink:href="dir_000125_000074.html" target="_top" xlink:title="15">
<text text-anchor="middle" x="45.4043" y="-116.007" font-family="Helvetica,sans-Serif" font-size="10.00">15</text>
</a>
</g>
</g>
<!-- dir_4ab6b4cc6a7edbff49100e9123df213f -->
<g id="node3" class="node"><title>dir_4ab6b4cc6a7edbff49100e9123df213f</title>
<g id="a_node3"><a xlink:href="dir_4ab6b4cc6a7edbff49100e9123df213f.html" target="_top" xlink:title="Common">
<polygon fill="none" stroke="red" points="55.5,-36 0.5,-36 0.5,-0 55.5,-0 55.5,-36"/>
<text text-anchor="middle" x="28" y="-15.5" font-family="Helvetica,sans-Serif" font-size="10.00">Common</text>
</a>
</g>
</g>
<!-- dir_eeeef6c2eb7f500b211a8736eff99ff9&#45;&gt;dir_4ab6b4cc6a7edbff49100e9123df213f -->
<g id="edge4" class="edge"><title>dir_eeeef6c2eb7f500b211a8736eff99ff9&#45;&gt;dir_4ab6b4cc6a7edbff49100e9123df213f</title>
<path fill="none" stroke="black" d="M60.6461,-143.877C65.7573,-125.661 71.4405,-96.196 64,-72 60.9911,-62.2153 55.493,-52.6161 49.6843,-44.3336"/>
<polygon fill="black" stroke="black" points="52.4072,-42.1306 43.6099,-36.2264 46.8052,-46.3279 52.4072,-42.1306"/>
<g id="a_edge4&#45;headlabel"><a xlink:href="dir_000125_000016.html" target="_top" xlink:title="3">
<text text-anchor="middle" x="56.8348" y="-40.8048" font-family="Helvetica,sans-Serif" font-size="10.00">3</text>
</a>
</g>
</g>
<!-- dir_548839eeca1931d32df07653a7903e44&#45;&gt;dir_4ab6b4cc6a7edbff49100e9123df213f -->
<g id="edge1" class="edge"><title>dir_548839eeca1931d32df07653a7903e44&#45;&gt;dir_4ab6b4cc6a7edbff49100e9123df213f</title>
<path fill="none" stroke="black" d="M22.0843,-71.6966C21.2886,-63.9827 21.0621,-54.7125 21.4047,-46.1124"/>
<polygon fill="black" stroke="black" points="24.8984,-46.3243 22.105,-36.1043 17.9154,-45.8356 24.8984,-46.3243"/>
<g id="a_edge1&#45;headlabel"><a xlink:href="dir_000074_000016.html" target="_top" xlink:title="5">
<text text-anchor="middle" x="27.4799" y="-47.6083" font-family="Helvetica,sans-Serif" font-size="10.00">5</text>
</a>
</g>
</g>
<!-- dir_4ab6b4cc6a7edbff49100e9123df213f&#45;&gt;dir_548839eeca1931d32df07653a7903e44 -->
<g id="edge2" class="edge"><title>dir_4ab6b4cc6a7edbff49100e9123df213f&#45;&gt;dir_548839eeca1931d32df07653a7903e44</title>
<path fill="none" stroke="black" d="M33.895,-36.1043C34.7005,-43.7913 34.9369,-53.0537 34.604,-61.6651"/>
<polygon fill="black" stroke="black" points="31.1085,-61.4805 33.9157,-71.6966 38.0921,-61.9597 31.1085,-61.4805"/>
<g id="a_edge2&#45;headlabel"><a xlink:href="dir_000016_000074.html" target="_top" xlink:title="1">
<text text-anchor="middle" x="28.5219" y="-55.2" font-family="Helvetica,sans-Serif" font-size="10.00">1</text>
</a>
</g>
</g>
</g>
</svg>
