<?xml version="1.0" encoding="UTF-8" standalone="no"?>
<!DOCTYPE svg PUBLIC "-//W3C//DTD SVG 1.1//EN"
 "http://www.w3.org/Graphics/SVG/1.1/DTD/svg11.dtd">
<!-- Generated by graphviz version 2.36.0 (20140111.2315)
 -->
<!-- Title: /home/travis/build/AliceO2Group/AliceO2/Detectors/EMCAL/simulation/include/EMCALSimulation Pages: 1 -->
<svg width="136pt" height="295pt"
 viewBox="0.00 0.00 136.00 295.00" xmlns="http://www.w3.org/2000/svg" xmlns:xlink="http://www.w3.org/1999/xlink">
<g id="graph0" class="graph" transform="scale(1 1) rotate(0) translate(4 291)">
<title>/home/travis/build/AliceO2Group/AliceO2/Detectors/EMCAL/simulation/include/EMCALSimulation</title>
<g id="clust1" class="cluster"><title>clusterdir_7bf79a161bebea1697ee327feea7a1aa</title>
<g id="a_clust1"><a xlink:href="dir_7bf79a161bebea1697ee327feea7a1aa.html" target="_top" xlink:title="include">
<polygon fill="#ddddee" stroke="black" points="8,-208 8,-279 120,-279 120,-208 8,-208"/>
<text text-anchor="middle" x="64" y="-267" font-family="Helvetica,sans-Serif" font-size="10.00">include</text>
</a>
</g>
</g>
<!-- dir_db4a9ed0cc55fd17c70f7e404d003b3a -->
<g id="node1" class="node"><title>dir_db4a9ed0cc55fd17c70f7e404d003b3a</title>
<g id="a_node1"><a xlink:href="dir_db4a9ed0cc55fd17c70f7e404d003b3a.html" target="_top" xlink:title="EMCALSimulation">
<polygon fill="#eeeeff" stroke="black" points="112.25,-252 15.75,-252 15.75,-216 112.25,-216 112.25,-252"/>
<text text-anchor="middle" x="64" y="-231.5" font-family="Helvetica,sans-Serif" font-size="10.00">EMCALSimulation</text>
</a>
</g>
</g>
<!-- dir_4ab6b4cc6a7edbff49100e9123df213f -->
<g id="node2" class="node"><title>dir_4ab6b4cc6a7edbff49100e9123df213f</title>
<g id="a_node2"><a xlink:href="dir_4ab6b4cc6a7edbff49100e9123df213f.html" target="_top" xlink:title="Common">
<polygon fill="none" stroke="red" points="90.5,-108 35.5,-108 35.5,-72 90.5,-72 90.5,-108"/>
<text text-anchor="middle" x="63" y="-87.5" font-family="Helvetica,sans-Serif" font-size="10.00">Common</text>
</a>
</g>
</g>
<!-- dir_db4a9ed0cc55fd17c70f7e404d003b3a&#45;&gt;dir_4ab6b4cc6a7edbff49100e9123df213f -->
<g id="edge4" class="edge"><title>dir_db4a9ed0cc55fd17c70f7e404d003b3a&#45;&gt;dir_4ab6b4cc6a7edbff49100e9123df213f</title>
<path fill="none" stroke="black" d="M48.3901,-215.774C40.6271,-206.03 32.0541,-193.184 28,-180 23.2972,-164.707 23.3969,-159.324 28,-144 30.9195,-134.281 36.2633,-124.7 41.9109,-116.415"/>
<polygon fill="black" stroke="black" points="44.7639,-118.442 47.8175,-108.297 39.1037,-114.324 44.7639,-118.442"/>
<g id="a_edge4&#45;headlabel"><a xlink:href="dir_000091_000016.html" target="_top" xlink:title="1">
<text text-anchor="middle" x="44.9448" y="-120.519" font-family="Helvetica,sans-Serif" font-size="10.00">1</text>
</a>
</g>
</g>
<!-- dir_37c90836491b695b472bf98d1be8336b -->
<g id="node3" class="node"><title>dir_37c90836491b695b472bf98d1be8336b</title>
<g id="a_node3"><a xlink:href="dir_37c90836491b695b472bf98d1be8336b.html" target="_top" xlink:title="Base">
<polygon fill="none" stroke="red" points="90,-36 36,-36 36,-0 90,-0 90,-36"/>
<text text-anchor="middle" x="63" y="-15.5" font-family="Helvetica,sans-Serif" font-size="10.00">Base</text>
</a>
</g>
</g>
<!-- dir_db4a9ed0cc55fd17c70f7e404d003b3a&#45;&gt;dir_37c90836491b695b472bf98d1be8336b -->
<g id="edge5" class="edge"><title>dir_db4a9ed0cc55fd17c70f7e404d003b3a&#45;&gt;dir_37c90836491b695b472bf98d1be8336b</title>
<path fill="none" stroke="black" d="M79.6099,-215.774C87.3729,-206.03 95.9459,-193.184 100,-180 104.121,-166.599 105.687,-93.2195 99,-72 95.9232,-62.2364 90.4061,-52.6431 84.6008,-44.3596"/>
<polygon fill="black" stroke="black" points="87.3281,-42.1623 78.537,-36.2491 81.7218,-46.3539 87.3281,-42.1623"/>
<g id="a_edge5&#45;headlabel"><a xlink:href="dir_000091_000073.html" target="_top" xlink:title="1">
<text text-anchor="middle" x="91.7545" y="-40.8411" font-family="Helvetica,sans-Serif" font-size="10.00">1</text>
</a>
</g>
</g>
<!-- dir_478733f24fb8878a4cdf7773310adedd -->
<g id="node4" class="node"><title>dir_478733f24fb8878a4cdf7773310adedd</title>
<g id="a_node4"><a xlink:href="dir_478733f24fb8878a4cdf7773310adedd.html" target="_top" xlink:title="base">
<polygon fill="none" stroke="red" points="91,-180 37,-180 37,-144 91,-144 91,-180"/>
<text text-anchor="middle" x="64" y="-159.5" font-family="Helvetica,sans-Serif" font-size="10.00">base</text>
</a>
</g>
</g>
<!-- dir_db4a9ed0cc55fd17c70f7e404d003b3a&#45;&gt;dir_478733f24fb8878a4cdf7773310adedd -->
<g id="edge6" class="edge"><title>dir_db4a9ed0cc55fd17c70f7e404d003b3a&#45;&gt;dir_478733f24fb8878a4cdf7773310adedd</title>
<path fill="none" stroke="black" d="M64,-215.697C64,-207.983 64,-198.712 64,-190.112"/>
<polygon fill="black" stroke="black" points="67.5001,-190.104 64,-180.104 60.5001,-190.104 67.5001,-190.104"/>
<g id="a_edge6&#45;headlabel"><a xlink:href="dir_000091_000077.html" target="_top" xlink:title="1">
<text text-anchor="middle" x="70.3393" y="-191.199" font-family="Helvetica,sans-Serif" font-size="10.00">1</text>
</a>
</g>
</g>
<!-- dir_4ab6b4cc6a7edbff49100e9123df213f&#45;&gt;dir_37c90836491b695b472bf98d1be8336b -->
<g id="edge1" class="edge"><title>dir_4ab6b4cc6a7edbff49100e9123df213f&#45;&gt;dir_37c90836491b695b472bf98d1be8336b</title>
<path fill="none" stroke="black" d="M57.0843,-71.6966C56.2886,-63.9827 56.0621,-54.7125 56.4047,-46.1124"/>
<polygon fill="black" stroke="black" points="59.8984,-46.3243 57.105,-36.1043 52.9154,-45.8356 59.8984,-46.3243"/>
<g id="a_edge1&#45;headlabel"><a xlink:href="dir_000016_000073.html" target="_top" xlink:title="1">
<text text-anchor="middle" x="62.4799" y="-47.6083" font-family="Helvetica,sans-Serif" font-size="10.00">1</text>
</a>
</g>
</g>
<!-- dir_37c90836491b695b472bf98d1be8336b&#45;&gt;dir_4ab6b4cc6a7edbff49100e9123df213f -->
<g id="edge2" class="edge"><title>dir_37c90836491b695b472bf98d1be8336b&#45;&gt;dir_4ab6b4cc6a7edbff49100e9123df213f</title>
<path fill="none" stroke="black" d="M68.895,-36.1043C69.7005,-43.7913 69.9369,-53.0537 69.604,-61.6651"/>
<polygon fill="black" stroke="black" points="66.1085,-61.4805 68.9157,-71.6966 73.0921,-61.9597 66.1085,-61.4805"/>
<g id="a_edge2&#45;headlabel"><a xlink:href="dir_000073_000016.html" target="_top" xlink:title="8">
<text text-anchor="middle" x="63.5219" y="-55.2" font-family="Helvetica,sans-Serif" font-size="10.00">8</text>
</a>
</g>
</g>
<!-- dir_478733f24fb8878a4cdf7773310adedd&#45;&gt;dir_4ab6b4cc6a7edbff49100e9123df213f -->
<g id="edge3" class="edge"><title>dir_478733f24fb8878a4cdf7773310adedd&#45;&gt;dir_4ab6b4cc6a7edbff49100e9123df213f</title>
<path fill="none" stroke="black" d="M63.7528,-143.697C63.6426,-135.983 63.5102,-126.712 63.3873,-118.112"/>
<polygon fill="black" stroke="black" points="66.8869,-118.053 63.2443,-108.104 59.8876,-118.153 66.8869,-118.053"/>
<g id="a_edge3&#45;headlabel"><a xlink:href="dir_000077_000016.html" target="_top" xlink:title="1">
<text text-anchor="middle" x="69.7772" y="-119.107" font-family="Helvetica,sans-Serif" font-size="10.00">1</text>
</a>
</g>
</g>
</g>
</svg>
