<?xml version="1.0" encoding="UTF-8" standalone="no"?>
<!DOCTYPE svg PUBLIC "-//W3C//DTD SVG 1.1//EN"
 "http://www.w3.org/Graphics/SVG/1.1/DTD/svg11.dtd">
<!-- Generated by graphviz version 2.36.0 (20140111.2315)
 -->
<!-- Title: /home/travis/build/AliceO2Group/AliceO2/DataFormats/simulation Pages: 1 -->
<svg width="370pt" height="231pt"
 viewBox="0.00 0.00 370.18 231.00" xmlns="http://www.w3.org/2000/svg" xmlns:xlink="http://www.w3.org/1999/xlink">
<g id="graph0" class="graph" transform="scale(1 1) rotate(0) translate(4 227)">
<title>/home/travis/build/AliceO2Group/AliceO2/DataFormats/simulation</title>
<g id="clust1" class="cluster"><title>clusterdir_2171f7ec022c5423887b07c69b2f5b48</title>
<g id="a_clust1"><a xlink:href="dir_2171f7ec022c5423887b07c69b2f5b48.html" target="_top" xlink:title="DataFormats">
<polygon fill="#ddddee" stroke="black" points="8,-56 8,-215 246,-215 246,-56 8,-56"/>
<text text-anchor="middle" x="127" y="-203" font-family="Helvetica,sans-Serif" font-size="10.00">DataFormats</text>
</a>
</g>
</g>
<g id="clust2" class="cluster"><title>clusterdir_047746f9f311f49446db9474b7431d0d</title>
<g id="a_clust2"><a xlink:href="dir_047746f9f311f49446db9474b7431d0d.html" target="_top">
<polygon fill="#eeeeff" stroke="black" points="16,-64 16,-188 238,-188 238,-64 16,-64"/>
</a>
</g>
</g>
<!-- dir_047746f9f311f49446db9474b7431d0d -->
<g id="node1" class="node"><title>dir_047746f9f311f49446db9474b7431d0d</title>
<text text-anchor="middle" x="199" y="-159.5" font-family="Helvetica,sans-Serif" font-size="10.00">simulation</text>
</g>
<!-- dir_e977c6a9672cee72083a88d55f0ce0c6 -->
<g id="node2" class="node"><title>dir_e977c6a9672cee72083a88d55f0ce0c6</title>
<g id="a_node2"><a xlink:href="dir_e977c6a9672cee72083a88d55f0ce0c6.html" target="_top" xlink:title="include">
<polygon fill="white" stroke="red" points="150,-108 96,-108 96,-72 150,-72 150,-108"/>
<text text-anchor="middle" x="123" y="-87.5" font-family="Helvetica,sans-Serif" font-size="10.00">include</text>
</a>
</g>
</g>
<!-- dir_4ab6b4cc6a7edbff49100e9123df213f -->
<g id="node5" class="node"><title>dir_4ab6b4cc6a7edbff49100e9123df213f</title>
<g id="a_node5"><a xlink:href="dir_4ab6b4cc6a7edbff49100e9123df213f.html" target="_top" xlink:title="Common">
<polygon fill="none" stroke="red" points="309.5,-108 254.5,-108 254.5,-72 309.5,-72 309.5,-108"/>
<text text-anchor="middle" x="282" y="-87.5" font-family="Helvetica,sans-Serif" font-size="10.00">Common</text>
</a>
</g>
</g>
<!-- dir_e977c6a9672cee72083a88d55f0ce0c6&#45;&gt;dir_4ab6b4cc6a7edbff49100e9123df213f -->
<g id="edge6" class="edge"><title>dir_e977c6a9672cee72083a88d55f0ce0c6&#45;&gt;dir_4ab6b4cc6a7edbff49100e9123df213f</title>
<path fill="none" stroke="black" d="M150.018,-90C181.419,-90 212.821,-90 244.222,-90"/>
<polygon fill="black" stroke="black" points="244.418,-93.5001 254.418,-90 244.418,-86.5001 244.418,-93.5001"/>
<g id="a_edge6&#45;headlabel"><a xlink:href="dir_000058_000016.html" target="_top" xlink:title="1">
<text text-anchor="middle" x="240.823" y="-93.8393" font-family="Helvetica,sans-Serif" font-size="10.00">1</text>
</a>
</g>
</g>
<!-- dir_051dca18e802f8e9474f2e30d29c04e0 -->
<g id="node6" class="node"><title>dir_051dca18e802f8e9474f2e30d29c04e0</title>
<g id="a_node6"><a xlink:href="dir_051dca18e802f8e9474f2e30d29c04e0.html" target="_top" xlink:title="Detectors">
<polygon fill="none" stroke="red" points="311.25,-36 252.75,-36 252.75,-0 311.25,-0 311.25,-36"/>
<text text-anchor="middle" x="282" y="-15.5" font-family="Helvetica,sans-Serif" font-size="10.00">Detectors</text>
</a>
</g>
</g>
<!-- dir_e977c6a9672cee72083a88d55f0ce0c6&#45;&gt;dir_051dca18e802f8e9474f2e30d29c04e0 -->
<g id="edge7" class="edge"><title>dir_e977c6a9672cee72083a88d55f0ce0c6&#45;&gt;dir_051dca18e802f8e9474f2e30d29c04e0</title>
<path fill="none" stroke="black" d="M150.352,-74.496C176.026,-62.5151 214.474,-45.5869 243.27,-33.5841"/>
<polygon fill="black" stroke="black" points="244.727,-36.7692 252.634,-29.7166 242.055,-30.2994 244.727,-36.7692"/>
<g id="a_edge7&#45;headlabel"><a xlink:href="dir_000058_000072.html" target="_top" xlink:title="2">
<text text-anchor="middle" x="242.489" y="-38.2656" font-family="Helvetica,sans-Serif" font-size="10.00">2</text>
</a>
</g>
</g>
<!-- dir_38abbb9c71f32f91a25826cfc3ede3a8 -->
<g id="node3" class="node"><title>dir_38abbb9c71f32f91a25826cfc3ede3a8</title>
<g id="a_node3"><a xlink:href="dir_38abbb9c71f32f91a25826cfc3ede3a8.html" target="_top" xlink:title="src">
<polygon fill="white" stroke="black" points="78,-180 24,-180 24,-144 78,-144 78,-180"/>
<text text-anchor="middle" x="51" y="-159.5" font-family="Helvetica,sans-Serif" font-size="10.00">src</text>
</a>
</g>
</g>
<!-- dir_38abbb9c71f32f91a25826cfc3ede3a8&#45;&gt;dir_e977c6a9672cee72083a88d55f0ce0c6 -->
<g id="edge2" class="edge"><title>dir_38abbb9c71f32f91a25826cfc3ede3a8&#45;&gt;dir_e977c6a9672cee72083a88d55f0ce0c6</title>
<path fill="none" stroke="black" d="M68.7978,-143.697C77.604,-135.135 88.3821,-124.656 98.0011,-115.304"/>
<polygon fill="black" stroke="black" points="100.677,-117.585 105.407,-108.104 95.7972,-112.566 100.677,-117.585"/>
<g id="a_edge2&#45;headlabel"><a xlink:href="dir_000060_000058.html" target="_top" xlink:title="5">
<text text-anchor="middle" x="100.079" y="-119.626" font-family="Helvetica,sans-Serif" font-size="10.00">5</text>
</a>
</g>
</g>
<!-- dir_38abbb9c71f32f91a25826cfc3ede3a8&#45;&gt;dir_051dca18e802f8e9474f2e30d29c04e0 -->
<g id="edge1" class="edge"><title>dir_38abbb9c71f32f91a25826cfc3ede3a8&#45;&gt;dir_051dca18e802f8e9474f2e30d29c04e0</title>
<path fill="none" stroke="black" d="M78.1938,-147.17C81.1214,-145.981 84.0927,-144.893 87,-144 136.665,-128.752 284.21,-147.463 318,-108 333.031,-90.4448 326.698,-77.412 318,-56 316.245,-51.6796 313.716,-47.5869 310.801,-43.808"/>
<polygon fill="black" stroke="black" points="313.2,-41.2376 303.951,-36.0695 307.958,-45.8773 313.2,-41.2376"/>
<g id="a_edge1&#45;headlabel"><a xlink:href="dir_000060_000072.html" target="_top" xlink:title="2">
<text text-anchor="middle" x="317.708" y="-39.5473" font-family="Helvetica,sans-Serif" font-size="10.00">2</text>
</a>
</g>
</g>
<!-- dir_c8fa59d38404a336ce27bd8f626335e9 -->
<g id="node4" class="node"><title>dir_c8fa59d38404a336ce27bd8f626335e9</title>
<g id="a_node4"><a xlink:href="dir_c8fa59d38404a336ce27bd8f626335e9.html" target="_top" xlink:title="test">
<polygon fill="white" stroke="black" points="150,-180 96,-180 96,-144 150,-144 150,-180"/>
<text text-anchor="middle" x="123" y="-159.5" font-family="Helvetica,sans-Serif" font-size="10.00">test</text>
</a>
</g>
</g>
<!-- dir_c8fa59d38404a336ce27bd8f626335e9&#45;&gt;dir_e977c6a9672cee72083a88d55f0ce0c6 -->
<g id="edge9" class="edge"><title>dir_c8fa59d38404a336ce27bd8f626335e9&#45;&gt;dir_e977c6a9672cee72083a88d55f0ce0c6</title>
<path fill="none" stroke="black" d="M123,-143.697C123,-135.983 123,-126.712 123,-118.112"/>
<polygon fill="black" stroke="black" points="126.5,-118.104 123,-108.104 119.5,-118.104 126.5,-118.104"/>
<g id="a_edge9&#45;headlabel"><a xlink:href="dir_000061_000058.html" target="_top" xlink:title="4">
<text text-anchor="middle" x="129.339" y="-119.199" font-family="Helvetica,sans-Serif" font-size="10.00">4</text>
</a>
</g>
</g>
<!-- dir_c8fa59d38404a336ce27bd8f626335e9&#45;&gt;dir_051dca18e802f8e9474f2e30d29c04e0 -->
<g id="edge8" class="edge"><title>dir_c8fa59d38404a336ce27bd8f626335e9&#45;&gt;dir_051dca18e802f8e9474f2e30d29c04e0</title>
<path fill="none" stroke="black" d="M150.182,-147.606C153.445,-146.269 156.766,-145.029 160,-144 242.734,-117.678 296.553,-174.809 352,-108 366.76,-90.2158 363.927,-75.7955 352,-56 344.934,-44.272 332.768,-36.069 320.542,-30.4234"/>
<polygon fill="black" stroke="black" points="321.843,-27.1739 311.264,-26.5887 319.169,-33.6431 321.843,-27.1739"/>
<g id="a_edge8&#45;headlabel"><a xlink:href="dir_000061_000072.html" target="_top" xlink:title="1">
<text text-anchor="middle" x="326.249" y="-23.4229" font-family="Helvetica,sans-Serif" font-size="10.00">1</text>
</a>
</g>
</g>
<!-- dir_4ab6b4cc6a7edbff49100e9123df213f&#45;&gt;dir_051dca18e802f8e9474f2e30d29c04e0 -->
<g id="edge3" class="edge"><title>dir_4ab6b4cc6a7edbff49100e9123df213f&#45;&gt;dir_051dca18e802f8e9474f2e30d29c04e0</title>
<path fill="none" stroke="black" d="M276.084,-71.6966C275.289,-63.9827 275.062,-54.7125 275.405,-46.1124"/>
<polygon fill="black" stroke="black" points="278.898,-46.3243 276.105,-36.1043 271.915,-45.8356 278.898,-46.3243"/>
<g id="a_edge3&#45;headlabel"><a xlink:href="dir_000016_000072.html" target="_top" xlink:title="1">
<text text-anchor="middle" x="281.48" y="-47.6083" font-family="Helvetica,sans-Serif" font-size="10.00">1</text>
</a>
</g>
</g>
<!-- dir_051dca18e802f8e9474f2e30d29c04e0&#45;&gt;dir_e977c6a9672cee72083a88d55f0ce0c6 -->
<g id="edge5" class="edge"><title>dir_051dca18e802f8e9474f2e30d29c04e0&#45;&gt;dir_e977c6a9672cee72083a88d55f0ce0c6</title>
<path fill="none" stroke="black" d="M252.512,-34.4986C226.295,-46.6777 188.049,-63.4843 159.84,-75.2024"/>
<polygon fill="black" stroke="black" points="158.233,-72.0785 150.316,-79.1192 160.896,-78.5523 158.233,-72.0785"/>
<g id="a_edge5&#45;headlabel"><a xlink:href="dir_000072_000058.html" target="_top" xlink:title="68">
<text text-anchor="middle" x="160.478" y="-65.5854" font-family="Helvetica,sans-Serif" font-size="10.00">68</text>
</a>
</g>
</g>
<!-- dir_051dca18e802f8e9474f2e30d29c04e0&#45;&gt;dir_4ab6b4cc6a7edbff49100e9123df213f -->
<g id="edge4" class="edge"><title>dir_051dca18e802f8e9474f2e30d29c04e0&#45;&gt;dir_4ab6b4cc6a7edbff49100e9123df213f</title>
<path fill="none" stroke="black" d="M287.895,-36.1043C288.701,-43.7913 288.937,-53.0537 288.604,-61.6651"/>
<polygon fill="black" stroke="black" points="285.109,-61.4805 287.916,-71.6966 292.092,-61.9597 285.109,-61.4805"/>
<g id="a_edge4&#45;headlabel"><a xlink:href="dir_000072_000016.html" target="_top" xlink:title="36">
<text text-anchor="middle" x="282.522" y="-55.2" font-family="Helvetica,sans-Serif" font-size="10.00">36</text>
</a>
</g>
</g>
</g>
</svg>
