<?xml version="1.0" encoding="UTF-8" standalone="no"?>
<!DOCTYPE svg PUBLIC "-//W3C//DTD SVG 1.1//EN"
 "http://www.w3.org/Graphics/SVG/1.1/DTD/svg11.dtd">
<!-- Generated by graphviz version 2.36.0 (20140111.2315)
 -->
<!-- Title: /home/travis/build/AliceO2Group/AliceO2/Detectors/ITSMFT/test/HitAnalysis/src Pages: 1 -->
<svg width="208pt" height="367pt"
 viewBox="0.00 0.00 208.12 367.00" xmlns="http://www.w3.org/2000/svg" xmlns:xlink="http://www.w3.org/1999/xlink">
<g id="graph0" class="graph" transform="scale(1 1) rotate(0) translate(4 363)">
<title>/home/travis/build/AliceO2Group/AliceO2/Detectors/ITSMFT/test/HitAnalysis/src</title>
<g id="clust1" class="cluster"><title>clusterdir_04efe6227c275c48803e66c564837fd2</title>
<g id="a_clust1"><a xlink:href="dir_04efe6227c275c48803e66c564837fd2.html" target="_top" xlink:title="HitAnalysis">
<polygon fill="#ddddee" stroke="black" points="69.1411,-280 69.1411,-351 139.141,-351 139.141,-280 69.1411,-280"/>
<text text-anchor="middle" x="104.141" y="-339" font-family="Helvetica,sans-Serif" font-size="10.00">HitAnalysis</text>
</a>
</g>
</g>
<!-- dir_e93ffad32d055a35a54cbd1488e94878 -->
<g id="node1" class="node"><title>dir_e93ffad32d055a35a54cbd1488e94878</title>
<g id="a_node1"><a xlink:href="dir_e93ffad32d055a35a54cbd1488e94878.html" target="_top" xlink:title="src">
<polygon fill="#eeeeff" stroke="black" points="131.141,-324 77.1411,-324 77.1411,-288 131.141,-288 131.141,-324"/>
<text text-anchor="middle" x="104.141" y="-303.5" font-family="Helvetica,sans-Serif" font-size="10.00">src</text>
</a>
</g>
</g>
<!-- dir_871aad07cbf94d6cd423c3d8d5bdf4e9 -->
<g id="node2" class="node"><title>dir_871aad07cbf94d6cd423c3d8d5bdf4e9</title>
<g id="a_node2"><a xlink:href="dir_871aad07cbf94d6cd423c3d8d5bdf4e9.html" target="_top" xlink:title="ITS">
<polygon fill="none" stroke="red" points="76.1411,-252 22.1411,-252 22.1411,-216 76.1411,-216 76.1411,-252"/>
<text text-anchor="middle" x="49.1411" y="-231.5" font-family="Helvetica,sans-Serif" font-size="10.00">ITS</text>
</a>
</g>
</g>
<!-- dir_e93ffad32d055a35a54cbd1488e94878&#45;&gt;dir_871aad07cbf94d6cd423c3d8d5bdf4e9 -->
<g id="edge9" class="edge"><title>dir_e93ffad32d055a35a54cbd1488e94878&#45;&gt;dir_871aad07cbf94d6cd423c3d8d5bdf4e9</title>
<path fill="none" stroke="black" d="M90.5455,-287.697C84.0184,-279.389 76.073,-269.277 68.8945,-260.141"/>
<polygon fill="black" stroke="black" points="71.5105,-257.805 62.5802,-252.104 66.0063,-262.13 71.5105,-257.805"/>
<g id="a_edge9&#45;headlabel"><a xlink:href="dir_000196_000096.html" target="_top" xlink:title="1">
<text text-anchor="middle" x="75.9639" y="-256.377" font-family="Helvetica,sans-Serif" font-size="10.00">1</text>
</a>
</g>
</g>
<!-- dir_4ab6b4cc6a7edbff49100e9123df213f -->
<g id="node3" class="node"><title>dir_4ab6b4cc6a7edbff49100e9123df213f</title>
<g id="a_node3"><a xlink:href="dir_4ab6b4cc6a7edbff49100e9123df213f.html" target="_top" xlink:title="Common">
<polygon fill="none" stroke="red" points="120.641,-108 65.6411,-108 65.6411,-72 120.641,-72 120.641,-108"/>
<text text-anchor="middle" x="93.1411" y="-87.5" font-family="Helvetica,sans-Serif" font-size="10.00">Common</text>
</a>
</g>
</g>
<!-- dir_e93ffad32d055a35a54cbd1488e94878&#45;&gt;dir_4ab6b4cc6a7edbff49100e9123df213f -->
<g id="edge10" class="edge"><title>dir_e93ffad32d055a35a54cbd1488e94878&#45;&gt;dir_4ab6b4cc6a7edbff49100e9123df213f</title>
<path fill="none" stroke="black" d="M103.259,-287.849C101.357,-250.832 96.8513,-163.181 94.5488,-118.386"/>
<polygon fill="black" stroke="black" points="98.0357,-118.04 94.0268,-108.232 91.0449,-118.399 98.0357,-118.04"/>
<g id="a_edge10&#45;headlabel"><a xlink:href="dir_000196_000016.html" target="_top" xlink:title="1">
<text text-anchor="middle" x="101.056" y="-118.984" font-family="Helvetica,sans-Serif" font-size="10.00">1</text>
</a>
</g>
</g>
<!-- dir_f56d42fd1d5597c5f10899e2242a3670 -->
<g id="node4" class="node"><title>dir_f56d42fd1d5597c5f10899e2242a3670</title>
<g id="a_node4"><a xlink:href="dir_f56d42fd1d5597c5f10899e2242a3670.html" target="_top" xlink:title="include">
<polygon fill="none" stroke="red" points="186.141,-252 132.141,-252 132.141,-216 186.141,-216 186.141,-252"/>
<text text-anchor="middle" x="159.141" y="-231.5" font-family="Helvetica,sans-Serif" font-size="10.00">include</text>
</a>
</g>
</g>
<!-- dir_e93ffad32d055a35a54cbd1488e94878&#45;&gt;dir_f56d42fd1d5597c5f10899e2242a3670 -->
<g id="edge11" class="edge"><title>dir_e93ffad32d055a35a54cbd1488e94878&#45;&gt;dir_f56d42fd1d5597c5f10899e2242a3670</title>
<path fill="none" stroke="black" d="M117.737,-287.697C124.264,-279.389 132.209,-269.277 139.388,-260.141"/>
<polygon fill="black" stroke="black" points="142.276,-262.13 145.702,-252.104 136.772,-257.805 142.276,-262.13"/>
<g id="a_edge11&#45;headlabel"><a xlink:href="dir_000196_000194.html" target="_top" xlink:title="1">
<text text-anchor="middle" x="142.288" y="-264.211" font-family="Helvetica,sans-Serif" font-size="10.00">1</text>
</a>
</g>
</g>
<!-- dir_37c90836491b695b472bf98d1be8336b -->
<g id="node5" class="node"><title>dir_37c90836491b695b472bf98d1be8336b</title>
<g id="a_node5"><a xlink:href="dir_37c90836491b695b472bf98d1be8336b.html" target="_top" xlink:title="Base">
<polygon fill="none" stroke="red" points="120.141,-36 66.1411,-36 66.1411,-0 120.141,-0 120.141,-36"/>
<text text-anchor="middle" x="93.1411" y="-15.5" font-family="Helvetica,sans-Serif" font-size="10.00">Base</text>
</a>
</g>
</g>
<!-- dir_e93ffad32d055a35a54cbd1488e94878&#45;&gt;dir_37c90836491b695b472bf98d1be8336b -->
<g id="edge12" class="edge"><title>dir_e93ffad32d055a35a54cbd1488e94878&#45;&gt;dir_37c90836491b695b472bf98d1be8336b</title>
<path fill="none" stroke="black" d="M76.8529,-297.341C55.3169,-289.697 26.717,-275.618 13.1411,-252 -9.71222,-212.243 -4.66567,-165.95 44.1411,-72 49.5371,-61.613 57.5187,-51.7499 65.4808,-43.4113"/>
<polygon fill="black" stroke="black" points="68.0959,-45.7466 72.7127,-36.2106 63.1568,-40.7861 68.0959,-45.7466"/>
<g id="a_edge12&#45;headlabel"><a xlink:href="dir_000196_000073.html" target="_top" xlink:title="1">
<text text-anchor="middle" x="67.5519" y="-47.7948" font-family="Helvetica,sans-Serif" font-size="10.00">1</text>
</a>
</g>
</g>
<!-- dir_85bf31a2e8d306e7598ffcb73f8df6bf -->
<g id="node6" class="node"><title>dir_85bf31a2e8d306e7598ffcb73f8df6bf</title>
<g id="a_node6"><a xlink:href="dir_85bf31a2e8d306e7598ffcb73f8df6bf.html" target="_top" xlink:title="common">
<polygon fill="none" stroke="red" points="186.141,-180 132.141,-180 132.141,-144 186.141,-144 186.141,-180"/>
<text text-anchor="middle" x="159.141" y="-159.5" font-family="Helvetica,sans-Serif" font-size="10.00">common</text>
</a>
</g>
</g>
<!-- dir_e93ffad32d055a35a54cbd1488e94878&#45;&gt;dir_85bf31a2e8d306e7598ffcb73f8df6bf -->
<g id="edge13" class="edge"><title>dir_e93ffad32d055a35a54cbd1488e94878&#45;&gt;dir_85bf31a2e8d306e7598ffcb73f8df6bf</title>
<path fill="none" stroke="black" d="M131.429,-297.341C152.965,-289.697 181.565,-275.618 195.141,-252 206.848,-231.634 194.753,-206.717 181.516,-188.433"/>
<polygon fill="black" stroke="black" points="183.912,-185.809 175.026,-180.04 178.374,-190.091 183.912,-185.809"/>
<g id="a_edge13&#45;headlabel"><a xlink:href="dir_000196_000137.html" target="_top" xlink:title="3">
<text text-anchor="middle" x="188.356" y="-184.416" font-family="Helvetica,sans-Serif" font-size="10.00">3</text>
</a>
</g>
</g>
<!-- dir_871aad07cbf94d6cd423c3d8d5bdf4e9&#45;&gt;dir_4ab6b4cc6a7edbff49100e9123df213f -->
<g id="edge1" class="edge"><title>dir_871aad07cbf94d6cd423c3d8d5bdf4e9&#45;&gt;dir_4ab6b4cc6a7edbff49100e9123df213f</title>
<path fill="none" stroke="black" d="M54.4485,-215.871C61.9805,-191.564 75.8451,-146.819 84.7708,-118.013"/>
<polygon fill="black" stroke="black" points="88.1982,-118.777 87.8148,-108.189 81.5118,-116.705 88.1982,-118.777"/>
<g id="a_edge1&#45;headlabel"><a xlink:href="dir_000096_000016.html" target="_top" xlink:title="9">
<text text-anchor="middle" x="89.8464" y="-120.551" font-family="Helvetica,sans-Serif" font-size="10.00">9</text>
</a>
</g>
</g>
<!-- dir_871aad07cbf94d6cd423c3d8d5bdf4e9&#45;&gt;dir_37c90836491b695b472bf98d1be8336b -->
<g id="edge2" class="edge"><title>dir_871aad07cbf94d6cd423c3d8d5bdf4e9&#45;&gt;dir_37c90836491b695b472bf98d1be8336b</title>
<path fill="none" stroke="black" d="M46.8439,-215.981C43.4496,-185.971 39.1838,-122.085 56.1411,-72 59.453,-62.2179 65.1654,-52.6195 71.1245,-44.3368"/>
<polygon fill="black" stroke="black" points="74.0321,-46.2966 77.3334,-36.2292 68.4745,-42.0406 74.0321,-46.2966"/>
<g id="a_edge2&#45;headlabel"><a xlink:href="dir_000096_000073.html" target="_top" xlink:title="23">
<text text-anchor="middle" x="74.1007" y="-48.3768" font-family="Helvetica,sans-Serif" font-size="10.00">23</text>
</a>
</g>
</g>
<!-- dir_871aad07cbf94d6cd423c3d8d5bdf4e9&#45;&gt;dir_85bf31a2e8d306e7598ffcb73f8df6bf -->
<g id="edge3" class="edge"><title>dir_871aad07cbf94d6cd423c3d8d5bdf4e9&#45;&gt;dir_85bf31a2e8d306e7598ffcb73f8df6bf</title>
<path fill="none" stroke="black" d="M76.0501,-215.876C90.2994,-206.808 107.987,-195.552 123.377,-185.759"/>
<polygon fill="black" stroke="black" points="125.571,-188.511 132.129,-180.19 121.813,-182.606 125.571,-188.511"/>
<g id="a_edge3&#45;headlabel"><a xlink:href="dir_000096_000137.html" target="_top" xlink:title="34">
<text text-anchor="middle" x="124.063" y="-190.337" font-family="Helvetica,sans-Serif" font-size="10.00">34</text>
</a>
</g>
</g>
<!-- dir_4ab6b4cc6a7edbff49100e9123df213f&#45;&gt;dir_37c90836491b695b472bf98d1be8336b -->
<g id="edge4" class="edge"><title>dir_4ab6b4cc6a7edbff49100e9123df213f&#45;&gt;dir_37c90836491b695b472bf98d1be8336b</title>
<path fill="none" stroke="black" d="M87.2253,-71.6966C86.4296,-63.9827 86.2031,-54.7125 86.5458,-46.1124"/>
<polygon fill="black" stroke="black" points="90.0394,-46.3243 87.246,-36.1043 83.0565,-45.8356 90.0394,-46.3243"/>
<g id="a_edge4&#45;headlabel"><a xlink:href="dir_000016_000073.html" target="_top" xlink:title="1">
<text text-anchor="middle" x="92.621" y="-47.6083" font-family="Helvetica,sans-Serif" font-size="10.00">1</text>
</a>
</g>
</g>
<!-- dir_f56d42fd1d5597c5f10899e2242a3670&#45;&gt;dir_85bf31a2e8d306e7598ffcb73f8df6bf -->
<g id="edge5" class="edge"><title>dir_f56d42fd1d5597c5f10899e2242a3670&#45;&gt;dir_85bf31a2e8d306e7598ffcb73f8df6bf</title>
<path fill="none" stroke="black" d="M159.141,-215.697C159.141,-207.983 159.141,-198.712 159.141,-190.112"/>
<polygon fill="black" stroke="black" points="162.641,-190.104 159.141,-180.104 155.641,-190.104 162.641,-190.104"/>
<g id="a_edge5&#45;headlabel"><a xlink:href="dir_000194_000137.html" target="_top" xlink:title="1">
<text text-anchor="middle" x="165.48" y="-191.199" font-family="Helvetica,sans-Serif" font-size="10.00">1</text>
</a>
</g>
</g>
<!-- dir_37c90836491b695b472bf98d1be8336b&#45;&gt;dir_4ab6b4cc6a7edbff49100e9123df213f -->
<g id="edge6" class="edge"><title>dir_37c90836491b695b472bf98d1be8336b&#45;&gt;dir_4ab6b4cc6a7edbff49100e9123df213f</title>
<path fill="none" stroke="black" d="M99.0361,-36.1043C99.8416,-43.7913 100.078,-53.0537 99.7451,-61.6651"/>
<polygon fill="black" stroke="black" points="96.2496,-61.4805 99.0568,-71.6966 103.233,-61.9597 96.2496,-61.4805"/>
<g id="a_edge6&#45;headlabel"><a xlink:href="dir_000073_000016.html" target="_top" xlink:title="8">
<text text-anchor="middle" x="93.663" y="-55.2" font-family="Helvetica,sans-Serif" font-size="10.00">8</text>
</a>
</g>
</g>
<!-- dir_85bf31a2e8d306e7598ffcb73f8df6bf&#45;&gt;dir_4ab6b4cc6a7edbff49100e9123df213f -->
<g id="edge7" class="edge"><title>dir_85bf31a2e8d306e7598ffcb73f8df6bf&#45;&gt;dir_4ab6b4cc6a7edbff49100e9123df213f</title>
<path fill="none" stroke="black" d="M142.826,-143.697C134.834,-135.22 125.07,-124.864 116.319,-115.583"/>
<polygon fill="black" stroke="black" points="118.675,-112.979 109.268,-108.104 113.582,-117.781 118.675,-112.979"/>
<g id="a_edge7&#45;headlabel"><a xlink:href="dir_000137_000016.html" target="_top" xlink:title="2">
<text text-anchor="middle" x="123.206" y="-111.147" font-family="Helvetica,sans-Serif" font-size="10.00">2</text>
</a>
</g>
</g>
<!-- dir_85bf31a2e8d306e7598ffcb73f8df6bf&#45;&gt;dir_37c90836491b695b472bf98d1be8336b -->
<g id="edge8" class="edge"><title>dir_85bf31a2e8d306e7598ffcb73f8df6bf&#45;&gt;dir_37c90836491b695b472bf98d1be8336b</title>
<path fill="none" stroke="black" d="M154.82,-143.722C149.892,-125.377 140.962,-95.8049 129.141,-72 124.515,-62.6833 118.465,-53.101 112.648,-44.6903"/>
<polygon fill="black" stroke="black" points="115.398,-42.5178 106.741,-36.4098 109.699,-46.5832 115.398,-42.5178"/>
<g id="a_edge8&#45;headlabel"><a xlink:href="dir_000137_000073.html" target="_top" xlink:title="2">
<text text-anchor="middle" x="119.797" y="-41.2952" font-family="Helvetica,sans-Serif" font-size="10.00">2</text>
</a>
</g>
</g>
</g>
</svg>
