<?xml version="1.0" encoding="UTF-8" standalone="no"?>
<!DOCTYPE svg PUBLIC "-//W3C//DTD SVG 1.1//EN"
 "http://www.w3.org/Graphics/SVG/1.1/DTD/svg11.dtd">
<!-- Generated by graphviz version 2.36.0 (20140111.2315)
 -->
<!-- Title: /home/travis/build/AliceO2Group/AliceO2/Detectors/ITSMFT/ITS/reconstruction Pages: 1 -->
<svg width="376pt" height="519pt"
 viewBox="0.00 0.00 376.00 519.00" xmlns="http://www.w3.org/2000/svg" xmlns:xlink="http://www.w3.org/1999/xlink">
<g id="graph0" class="graph" transform="scale(1 1) rotate(0) translate(4 515)">
<title>/home/travis/build/AliceO2Group/AliceO2/Detectors/ITSMFT/ITS/reconstruction</title>
<g id="clust1" class="cluster"><title>clusterdir_871aad07cbf94d6cd423c3d8d5bdf4e9</title>
<g id="a_clust1"><a xlink:href="dir_871aad07cbf94d6cd423c3d8d5bdf4e9.html" target="_top" xlink:title="ITS">
<polygon fill="#ddddee" stroke="black" points="90,-344 90,-503 272,-503 272,-344 90,-344"/>
<text text-anchor="middle" x="181" y="-491" font-family="Helvetica,sans-Serif" font-size="10.00">ITS</text>
</a>
</g>
</g>
<g id="clust2" class="cluster"><title>clusterdir_5125ceb2b58f632ed0a3019fe2d5cbbc</title>
<g id="a_clust2"><a xlink:href="dir_5125ceb2b58f632ed0a3019fe2d5cbbc.html" target="_top">
<polygon fill="#eeeeff" stroke="black" points="98,-352 98,-476 264,-476 264,-352 98,-352"/>
</a>
</g>
</g>
<!-- dir_5125ceb2b58f632ed0a3019fe2d5cbbc -->
<g id="node1" class="node"><title>dir_5125ceb2b58f632ed0a3019fe2d5cbbc</title>
<text text-anchor="middle" x="217" y="-447.5" font-family="Helvetica,sans-Serif" font-size="10.00">reconstruction</text>
</g>
<!-- dir_a7418508cffd1c8afbbd736339058404 -->
<g id="node2" class="node"><title>dir_a7418508cffd1c8afbbd736339058404</title>
<g id="a_node2"><a xlink:href="dir_a7418508cffd1c8afbbd736339058404.html" target="_top" xlink:title="include">
<polygon fill="white" stroke="red" points="160,-396 106,-396 106,-360 160,-360 160,-396"/>
<text text-anchor="middle" x="133" y="-375.5" font-family="Helvetica,sans-Serif" font-size="10.00">include</text>
</a>
</g>
</g>
<!-- dir_eedff867f3c4e67d20b227cb6e0f96ab -->
<g id="node4" class="node"><title>dir_eedff867f3c4e67d20b227cb6e0f96ab</title>
<g id="a_node4"><a xlink:href="dir_eedff867f3c4e67d20b227cb6e0f96ab.html" target="_top" xlink:title="base">
<polygon fill="none" stroke="red" points="160,-324 106,-324 106,-288 160,-288 160,-324"/>
<text text-anchor="middle" x="133" y="-303.5" font-family="Helvetica,sans-Serif" font-size="10.00">base</text>
</a>
</g>
</g>
<!-- dir_a7418508cffd1c8afbbd736339058404&#45;&gt;dir_eedff867f3c4e67d20b227cb6e0f96ab -->
<g id="edge15" class="edge"><title>dir_a7418508cffd1c8afbbd736339058404&#45;&gt;dir_eedff867f3c4e67d20b227cb6e0f96ab</title>
<path fill="none" stroke="black" d="M133,-359.697C133,-351.983 133,-342.712 133,-334.112"/>
<polygon fill="black" stroke="black" points="136.5,-334.104 133,-324.104 129.5,-334.104 136.5,-334.104"/>
<g id="a_edge15&#45;headlabel"><a xlink:href="dir_000181_000164.html" target="_top" xlink:title="4">
<text text-anchor="middle" x="139.339" y="-335.199" font-family="Helvetica,sans-Serif" font-size="10.00">4</text>
</a>
</g>
</g>
<!-- dir_4ab6b4cc6a7edbff49100e9123df213f -->
<g id="node5" class="node"><title>dir_4ab6b4cc6a7edbff49100e9123df213f</title>
<g id="a_node5"><a xlink:href="dir_4ab6b4cc6a7edbff49100e9123df213f.html" target="_top" xlink:title="Common">
<polygon fill="none" stroke="red" points="273.5,-108 218.5,-108 218.5,-72 273.5,-72 273.5,-108"/>
<text text-anchor="middle" x="246" y="-87.5" font-family="Helvetica,sans-Serif" font-size="10.00">Common</text>
</a>
</g>
</g>
<!-- dir_a7418508cffd1c8afbbd736339058404&#45;&gt;dir_4ab6b4cc6a7edbff49100e9123df213f -->
<g id="edge16" class="edge"><title>dir_a7418508cffd1c8afbbd736339058404&#45;&gt;dir_4ab6b4cc6a7edbff49100e9123df213f</title>
<path fill="none" stroke="black" d="M117.39,-359.774C109.627,-350.03 101.054,-337.184 97,-324 92.2972,-308.707 92.4751,-303.347 97,-288 118.455,-215.231 181.417,-148.955 218.27,-114.952"/>
<polygon fill="black" stroke="black" points="220.661,-117.508 225.713,-108.195 215.956,-112.325 220.661,-117.508"/>
<g id="a_edge16&#45;headlabel"><a xlink:href="dir_000181_000016.html" target="_top" xlink:title="1">
<text text-anchor="middle" x="219.908" y="-119.526" font-family="Helvetica,sans-Serif" font-size="10.00">1</text>
</a>
</g>
</g>
<!-- dir_37c90836491b695b472bf98d1be8336b -->
<g id="node6" class="node"><title>dir_37c90836491b695b472bf98d1be8336b</title>
<g id="a_node6"><a xlink:href="dir_37c90836491b695b472bf98d1be8336b.html" target="_top" xlink:title="Base">
<polygon fill="none" stroke="red" points="217,-36 163,-36 163,-0 217,-0 217,-36"/>
<text text-anchor="middle" x="190" y="-15.5" font-family="Helvetica,sans-Serif" font-size="10.00">Base</text>
</a>
</g>
</g>
<!-- dir_a7418508cffd1c8afbbd736339058404&#45;&gt;dir_37c90836491b695b472bf98d1be8336b -->
<g id="edge17" class="edge"><title>dir_a7418508cffd1c8afbbd736339058404&#45;&gt;dir_37c90836491b695b472bf98d1be8336b</title>
<path fill="none" stroke="black" d="M111.443,-359.777C83.414,-335.284 38,-287.5 38,-235 38,-235 38,-235 38,-161 38,-97.9536 108.691,-54.8575 153.656,-33.8221"/>
<polygon fill="black" stroke="black" points="155.16,-36.983 162.825,-29.669 152.272,-30.6065 155.16,-36.983"/>
<g id="a_edge17&#45;headlabel"><a xlink:href="dir_000181_000073.html" target="_top" xlink:title="4">
<text text-anchor="middle" x="153.057" y="-38.5523" font-family="Helvetica,sans-Serif" font-size="10.00">4</text>
</a>
</g>
</g>
<!-- dir_85bf31a2e8d306e7598ffcb73f8df6bf -->
<g id="node7" class="node"><title>dir_85bf31a2e8d306e7598ffcb73f8df6bf</title>
<g id="a_node7"><a xlink:href="dir_85bf31a2e8d306e7598ffcb73f8df6bf.html" target="_top" xlink:title="common">
<polygon fill="none" stroke="red" points="236,-252 182,-252 182,-216 236,-216 236,-252"/>
<text text-anchor="middle" x="209" y="-231.5" font-family="Helvetica,sans-Serif" font-size="10.00">common</text>
</a>
</g>
</g>
<!-- dir_a7418508cffd1c8afbbd736339058404&#45;&gt;dir_85bf31a2e8d306e7598ffcb73f8df6bf -->
<g id="edge18" class="edge"><title>dir_a7418508cffd1c8afbbd736339058404&#45;&gt;dir_85bf31a2e8d306e7598ffcb73f8df6bf</title>
<path fill="none" stroke="black" d="M145.791,-359.822C153.055,-349.679 162.055,-336.429 169,-324 180.364,-303.661 191.062,-279.489 198.531,-261.472"/>
<polygon fill="black" stroke="black" points="201.793,-262.74 202.331,-252.159 195.312,-260.096 201.793,-262.74"/>
<g id="a_edge18&#45;headlabel"><a xlink:href="dir_000181_000137.html" target="_top" xlink:title="3">
<text text-anchor="middle" x="203.064" y="-264.641" font-family="Helvetica,sans-Serif" font-size="10.00">3</text>
</a>
</g>
</g>
<!-- dir_912fdeb75838ec7e9173df897dc72438 -->
<g id="node3" class="node"><title>dir_912fdeb75838ec7e9173df897dc72438</title>
<g id="a_node3"><a xlink:href="dir_912fdeb75838ec7e9173df897dc72438.html" target="_top" xlink:title="src">
<polygon fill="white" stroke="black" points="160,-468 106,-468 106,-432 160,-432 160,-468"/>
<text text-anchor="middle" x="133" y="-447.5" font-family="Helvetica,sans-Serif" font-size="10.00">src</text>
</a>
</g>
</g>
<!-- dir_912fdeb75838ec7e9173df897dc72438&#45;&gt;dir_a7418508cffd1c8afbbd736339058404 -->
<g id="edge10" class="edge"><title>dir_912fdeb75838ec7e9173df897dc72438&#45;&gt;dir_a7418508cffd1c8afbbd736339058404</title>
<path fill="none" stroke="black" d="M133,-431.697C133,-423.983 133,-414.712 133,-406.112"/>
<polygon fill="black" stroke="black" points="136.5,-406.104 133,-396.104 129.5,-406.104 136.5,-406.104"/>
<g id="a_edge10&#45;headlabel"><a xlink:href="dir_000183_000181.html" target="_top" xlink:title="9">
<text text-anchor="middle" x="139.339" y="-407.199" font-family="Helvetica,sans-Serif" font-size="10.00">9</text>
</a>
</g>
</g>
<!-- dir_912fdeb75838ec7e9173df897dc72438&#45;&gt;dir_eedff867f3c4e67d20b227cb6e0f96ab -->
<g id="edge6" class="edge"><title>dir_912fdeb75838ec7e9173df897dc72438&#45;&gt;dir_eedff867f3c4e67d20b227cb6e0f96ab</title>
<path fill="none" stroke="black" d="M148.61,-431.774C156.373,-422.03 164.946,-409.184 169,-396 175.793,-373.91 177.698,-365.412 169,-344 167.245,-339.68 164.716,-335.587 161.801,-331.808"/>
<polygon fill="black" stroke="black" points="164.2,-329.238 154.951,-324.07 158.958,-333.877 164.2,-329.238"/>
<g id="a_edge6&#45;headlabel"><a xlink:href="dir_000183_000164.html" target="_top" xlink:title="1">
<text text-anchor="middle" x="168.708" y="-327.547" font-family="Helvetica,sans-Serif" font-size="10.00">1</text>
</a>
</g>
</g>
<!-- dir_912fdeb75838ec7e9173df897dc72438&#45;&gt;dir_4ab6b4cc6a7edbff49100e9123df213f -->
<g id="edge7" class="edge"><title>dir_912fdeb75838ec7e9173df897dc72438&#45;&gt;dir_4ab6b4cc6a7edbff49100e9123df213f</title>
<path fill="none" stroke="black" d="M160.235,-435.498C199.146,-414.06 266,-368.306 266,-307 266,-307 266,-307 266,-233 266,-192.822 258.052,-146.869 252.177,-118.389"/>
<polygon fill="black" stroke="black" points="255.551,-117.431 250.047,-108.378 248.704,-118.887 255.551,-117.431"/>
<g id="a_edge7&#45;headlabel"><a xlink:href="dir_000183_000016.html" target="_top" xlink:title="5">
<text text-anchor="middle" x="259.076" y="-117.856" font-family="Helvetica,sans-Serif" font-size="10.00">5</text>
</a>
</g>
</g>
<!-- dir_912fdeb75838ec7e9173df897dc72438&#45;&gt;dir_37c90836491b695b472bf98d1be8336b -->
<g id="edge8" class="edge"><title>dir_912fdeb75838ec7e9173df897dc72438&#45;&gt;dir_37c90836491b695b472bf98d1be8336b</title>
<path fill="none" stroke="black" d="M105.765,-435.498C66.8536,-414.06 0,-368.306 0,-307 0,-307 0,-307 0,-161 0,-114.962 17.8299,-101.708 53,-72 81.8425,-47.6368 123.143,-33.7272 152.846,-26.3284"/>
<polygon fill="black" stroke="black" points="153.899,-29.6764 162.83,-23.9765 152.294,-22.8629 153.899,-29.6764"/>
<g id="a_edge8&#45;headlabel"><a xlink:href="dir_000183_000073.html" target="_top" xlink:title="9">
<text text-anchor="middle" x="151.051" y="-30.7642" font-family="Helvetica,sans-Serif" font-size="10.00">9</text>
</a>
</g>
</g>
<!-- dir_912fdeb75838ec7e9173df897dc72438&#45;&gt;dir_85bf31a2e8d306e7598ffcb73f8df6bf -->
<g id="edge9" class="edge"><title>dir_912fdeb75838ec7e9173df897dc72438&#45;&gt;dir_85bf31a2e8d306e7598ffcb73f8df6bf</title>
<path fill="none" stroke="black" d="M156.068,-431.844C166.935,-422.485 179.017,-409.967 186,-396 207.555,-352.89 210.59,-295.686 210.22,-262.352"/>
<polygon fill="black" stroke="black" points="213.712,-261.936 209.986,-252.018 206.714,-262.095 213.712,-261.936"/>
<g id="a_edge9&#45;headlabel"><a xlink:href="dir_000183_000137.html" target="_top" xlink:title="9">
<text text-anchor="middle" x="216.632" y="-262.965" font-family="Helvetica,sans-Serif" font-size="10.00">9</text>
</a>
</g>
</g>
<!-- dir_2171f7ec022c5423887b07c69b2f5b48 -->
<g id="node8" class="node"><title>dir_2171f7ec022c5423887b07c69b2f5b48</title>
<g id="a_node8"><a xlink:href="dir_2171f7ec022c5423887b07c69b2f5b48.html" target="_top" xlink:title="DataFormats">
<polygon fill="none" stroke="red" points="368,-180 294,-180 294,-144 368,-144 368,-180"/>
<text text-anchor="middle" x="331" y="-159.5" font-family="Helvetica,sans-Serif" font-size="10.00">DataFormats</text>
</a>
</g>
</g>
<!-- dir_912fdeb75838ec7e9173df897dc72438&#45;&gt;dir_2171f7ec022c5423887b07c69b2f5b48 -->
<g id="edge11" class="edge"><title>dir_912fdeb75838ec7e9173df897dc72438&#45;&gt;dir_2171f7ec022c5423887b07c69b2f5b48</title>
<path fill="none" stroke="black" d="M160.359,-435.64C163.254,-434.358 166.173,-433.121 169,-432 217.213,-412.888 245.17,-434.427 280,-396 332.631,-337.933 335.317,-238.377 333.14,-190.413"/>
<polygon fill="black" stroke="black" points="336.621,-189.975 332.564,-180.188 329.632,-190.369 336.621,-189.975"/>
<g id="a_edge11&#45;headlabel"><a xlink:href="dir_000183_000043.html" target="_top" xlink:title="10">
<text text-anchor="middle" x="339.658" y="-190.904" font-family="Helvetica,sans-Serif" font-size="10.00">10</text>
</a>
</g>
</g>
<!-- dir_eedff867f3c4e67d20b227cb6e0f96ab&#45;&gt;dir_4ab6b4cc6a7edbff49100e9123df213f -->
<g id="edge1" class="edge"><title>dir_eedff867f3c4e67d20b227cb6e0f96ab&#45;&gt;dir_4ab6b4cc6a7edbff49100e9123df213f</title>
<path fill="none" stroke="black" d="M140.137,-287.682C147.756,-269.558 160.438,-240.399 173,-216 191.135,-180.778 214.616,-141.535 229.983,-116.58"/>
<polygon fill="black" stroke="black" points="232.966,-118.411 235.252,-108.066 227.014,-114.727 232.966,-118.411"/>
<g id="a_edge1&#45;headlabel"><a xlink:href="dir_000164_000016.html" target="_top" xlink:title="1">
<text text-anchor="middle" x="233.488" y="-120.462" font-family="Helvetica,sans-Serif" font-size="10.00">1</text>
</a>
</g>
</g>
<!-- dir_eedff867f3c4e67d20b227cb6e0f96ab&#45;&gt;dir_37c90836491b695b472bf98d1be8336b -->
<g id="edge2" class="edge"><title>dir_eedff867f3c4e67d20b227cb6e0f96ab&#45;&gt;dir_37c90836491b695b472bf98d1be8336b</title>
<path fill="none" stroke="black" d="M136.395,-287.966C145.916,-240.192 172.935,-104.623 184.566,-46.2658"/>
<polygon fill="black" stroke="black" points="188.029,-46.7977 186.551,-36.3065 181.164,-45.4295 188.029,-46.7977"/>
<g id="a_edge2&#45;headlabel"><a xlink:href="dir_000164_000073.html" target="_top" xlink:title="4">
<text text-anchor="middle" x="190.111" y="-48.3779" font-family="Helvetica,sans-Serif" font-size="10.00">4</text>
</a>
</g>
</g>
<!-- dir_eedff867f3c4e67d20b227cb6e0f96ab&#45;&gt;dir_85bf31a2e8d306e7598ffcb73f8df6bf -->
<g id="edge3" class="edge"><title>dir_eedff867f3c4e67d20b227cb6e0f96ab&#45;&gt;dir_85bf31a2e8d306e7598ffcb73f8df6bf</title>
<path fill="none" stroke="black" d="M151.787,-287.697C161.174,-279.05 172.684,-268.449 182.913,-259.027"/>
<polygon fill="black" stroke="black" points="185.445,-261.454 190.43,-252.104 180.703,-256.305 185.445,-261.454"/>
<g id="a_edge3&#45;headlabel"><a xlink:href="dir_000164_000137.html" target="_top" xlink:title="2">
<text text-anchor="middle" x="184.725" y="-263.477" font-family="Helvetica,sans-Serif" font-size="10.00">2</text>
</a>
</g>
</g>
<!-- dir_4ab6b4cc6a7edbff49100e9123df213f&#45;&gt;dir_37c90836491b695b472bf98d1be8336b -->
<g id="edge4" class="edge"><title>dir_4ab6b4cc6a7edbff49100e9123df213f&#45;&gt;dir_37c90836491b695b472bf98d1be8336b</title>
<path fill="none" stroke="black" d="M226.242,-71.6966C218.815,-63.4741 210.621,-53.4832 203.816,-44.4207"/>
<polygon fill="black" stroke="black" points="206.491,-42.147 197.788,-36.1043 200.823,-46.2552 206.491,-42.147"/>
<g id="a_edge4&#45;headlabel"><a xlink:href="dir_000016_000073.html" target="_top" xlink:title="1">
<text text-anchor="middle" x="210.9" y="-40.8911" font-family="Helvetica,sans-Serif" font-size="10.00">1</text>
</a>
</g>
</g>
<!-- dir_37c90836491b695b472bf98d1be8336b&#45;&gt;dir_4ab6b4cc6a7edbff49100e9123df213f -->
<g id="edge5" class="edge"><title>dir_37c90836491b695b472bf98d1be8336b&#45;&gt;dir_4ab6b4cc6a7edbff49100e9123df213f</title>
<path fill="none" stroke="black" d="M209.578,-36.1043C216.992,-44.2981 225.191,-54.282 232.018,-63.3594"/>
<polygon fill="black" stroke="black" points="229.365,-65.6619 238.073,-71.6966 235.029,-61.5486 229.365,-65.6619"/>
<g id="a_edge5&#45;headlabel"><a xlink:href="dir_000073_000016.html" target="_top" xlink:title="8">
<text text-anchor="middle" x="224.955" y="-61.9218" font-family="Helvetica,sans-Serif" font-size="10.00">8</text>
</a>
</g>
</g>
<!-- dir_85bf31a2e8d306e7598ffcb73f8df6bf&#45;&gt;dir_4ab6b4cc6a7edbff49100e9123df213f -->
<g id="edge12" class="edge"><title>dir_85bf31a2e8d306e7598ffcb73f8df6bf&#45;&gt;dir_4ab6b4cc6a7edbff49100e9123df213f</title>
<path fill="none" stroke="black" d="M213.463,-215.871C219.797,-191.564 231.456,-146.819 238.961,-118.013"/>
<polygon fill="black" stroke="black" points="242.387,-118.749 241.521,-108.189 235.613,-116.984 242.387,-118.749"/>
<g id="a_edge12&#45;headlabel"><a xlink:href="dir_000137_000016.html" target="_top" xlink:title="2">
<text text-anchor="middle" x="244.228" y="-120.443" font-family="Helvetica,sans-Serif" font-size="10.00">2</text>
</a>
</g>
</g>
<!-- dir_85bf31a2e8d306e7598ffcb73f8df6bf&#45;&gt;dir_37c90836491b695b472bf98d1be8336b -->
<g id="edge13" class="edge"><title>dir_85bf31a2e8d306e7598ffcb73f8df6bf&#45;&gt;dir_37c90836491b695b472bf98d1be8336b</title>
<path fill="none" stroke="black" d="M207.477,-215.849C204.191,-178.832 196.409,-91.1809 192.431,-46.3863"/>
<polygon fill="black" stroke="black" points="195.901,-45.8837 191.53,-36.2325 188.928,-46.5028 195.901,-45.8837"/>
<g id="a_edge13&#45;headlabel"><a xlink:href="dir_000137_000073.html" target="_top" xlink:title="2">
<text text-anchor="middle" x="199.047" y="-46.7132" font-family="Helvetica,sans-Serif" font-size="10.00">2</text>
</a>
</g>
</g>
<!-- dir_85bf31a2e8d306e7598ffcb73f8df6bf&#45;&gt;dir_2171f7ec022c5423887b07c69b2f5b48 -->
<g id="edge14" class="edge"><title>dir_85bf31a2e8d306e7598ffcb73f8df6bf&#45;&gt;dir_2171f7ec022c5423887b07c69b2f5b48</title>
<path fill="none" stroke="black" d="M236.076,-217.465C252.606,-207.98 274.008,-195.7 292.306,-185.201"/>
<polygon fill="black" stroke="black" points="294.072,-188.223 301.004,-180.211 290.589,-182.152 294.072,-188.223"/>
<g id="a_edge14&#45;headlabel"><a xlink:href="dir_000137_000043.html" target="_top" xlink:title="8">
<text text-anchor="middle" x="292.367" y="-189.975" font-family="Helvetica,sans-Serif" font-size="10.00">8</text>
</a>
</g>
</g>
<!-- dir_2171f7ec022c5423887b07c69b2f5b48&#45;&gt;dir_4ab6b4cc6a7edbff49100e9123df213f -->
<g id="edge19" class="edge"><title>dir_2171f7ec022c5423887b07c69b2f5b48&#45;&gt;dir_4ab6b4cc6a7edbff49100e9123df213f</title>
<path fill="none" stroke="black" d="M309.989,-143.697C299.284,-134.881 286.11,-124.032 274.504,-114.474"/>
<polygon fill="black" stroke="black" points="276.714,-111.76 266.77,-108.104 272.264,-117.163 276.714,-111.76"/>
<g id="a_edge19&#45;headlabel"><a xlink:href="dir_000043_000016.html" target="_top" xlink:title="4">
<text text-anchor="middle" x="281.294" y="-109.353" font-family="Helvetica,sans-Serif" font-size="10.00">4</text>
</a>
</g>
</g>
<!-- dir_2171f7ec022c5423887b07c69b2f5b48&#45;&gt;dir_37c90836491b695b472bf98d1be8336b -->
<g id="edge20" class="edge"><title>dir_2171f7ec022c5423887b07c69b2f5b48&#45;&gt;dir_37c90836491b695b472bf98d1be8336b</title>
<path fill="none" stroke="black" d="M324.83,-143.834C317.193,-124.496 302.626,-93.0295 282,-72 266.282,-55.9749 244.701,-43.2031 226.391,-34.2155"/>
<polygon fill="black" stroke="black" points="227.7,-30.9632 217.162,-29.8634 224.714,-37.2945 227.7,-30.9632"/>
<g id="a_edge20&#45;headlabel"><a xlink:href="dir_000043_000073.html" target="_top" xlink:title="6">
<text text-anchor="middle" x="232.162" y="-27.4284" font-family="Helvetica,sans-Serif" font-size="10.00">6</text>
</a>
</g>
</g>
</g>
</svg>
