<?xml version="1.0" encoding="UTF-8" standalone="no"?>
<!DOCTYPE svg PUBLIC "-//W3C//DTD SVG 1.1//EN"
 "http://www.w3.org/Graphics/SVG/1.1/DTD/svg11.dtd">
<!-- Generated by graphviz version 2.36.0 (20140111.2315)
 -->
<!-- Title: /home/travis/build/AliceO2Group/AliceO2/Detectors/EMCAL/simulation/include Pages: 1 -->
<svg width="225pt" height="303pt"
 viewBox="0.00 0.00 225.00 303.00" xmlns="http://www.w3.org/2000/svg" xmlns:xlink="http://www.w3.org/1999/xlink">
<g id="graph0" class="graph" transform="scale(1 1) rotate(0) translate(4 299)">
<title>/home/travis/build/AliceO2Group/AliceO2/Detectors/EMCAL/simulation/include</title>
<g id="clust1" class="cluster"><title>clusterdir_40743f2e882add17463d3ecfa83bffd4</title>
<g id="a_clust1"><a xlink:href="dir_40743f2e882add17463d3ecfa83bffd4.html" target="_top" xlink:title="simulation">
<polygon fill="#ddddee" stroke="black" points="8,-200 8,-287 209,-287 209,-200 8,-200"/>
<text text-anchor="middle" x="108.5" y="-275" font-family="Helvetica,sans-Serif" font-size="10.00">simulation</text>
</a>
</g>
</g>
<g id="clust2" class="cluster"><title>clusterdir_7bf79a161bebea1697ee327feea7a1aa</title>
<g id="a_clust2"><a xlink:href="dir_7bf79a161bebea1697ee327feea7a1aa.html" target="_top">
<polygon fill="#eeeeff" stroke="black" points="16,-208 16,-260 201,-260 201,-208 16,-208"/>
</a>
</g>
</g>
<!-- dir_7bf79a161bebea1697ee327feea7a1aa -->
<g id="node1" class="node"><title>dir_7bf79a161bebea1697ee327feea7a1aa</title>
<text text-anchor="middle" x="166" y="-231.5" font-family="Helvetica,sans-Serif" font-size="10.00">include</text>
</g>
<!-- dir_db4a9ed0cc55fd17c70f7e404d003b3a -->
<g id="node2" class="node"><title>dir_db4a9ed0cc55fd17c70f7e404d003b3a</title>
<g id="a_node2"><a xlink:href="dir_db4a9ed0cc55fd17c70f7e404d003b3a.html" target="_top" xlink:title="EMCALSimulation">
<polygon fill="white" stroke="black" points="120.25,-252 23.75,-252 23.75,-216 120.25,-216 120.25,-252"/>
<text text-anchor="middle" x="72" y="-231.5" font-family="Helvetica,sans-Serif" font-size="10.00">EMCALSimulation</text>
</a>
</g>
</g>
<!-- dir_4ab6b4cc6a7edbff49100e9123df213f -->
<g id="node3" class="node"><title>dir_4ab6b4cc6a7edbff49100e9123df213f</title>
<g id="a_node3"><a xlink:href="dir_4ab6b4cc6a7edbff49100e9123df213f.html" target="_top" xlink:title="Common">
<polygon fill="none" stroke="red" points="98.5,-108 43.5,-108 43.5,-72 98.5,-72 98.5,-108"/>
<text text-anchor="middle" x="71" y="-87.5" font-family="Helvetica,sans-Serif" font-size="10.00">Common</text>
</a>
</g>
</g>
<!-- dir_db4a9ed0cc55fd17c70f7e404d003b3a&#45;&gt;dir_4ab6b4cc6a7edbff49100e9123df213f -->
<g id="edge4" class="edge"><title>dir_db4a9ed0cc55fd17c70f7e404d003b3a&#45;&gt;dir_4ab6b4cc6a7edbff49100e9123df213f</title>
<path fill="none" stroke="black" d="M56.3901,-215.774C48.6271,-206.03 40.0541,-193.184 36,-180 31.2972,-164.707 31.3969,-159.324 36,-144 38.9195,-134.281 44.2633,-124.7 49.9109,-116.415"/>
<polygon fill="black" stroke="black" points="52.7639,-118.442 55.8175,-108.297 47.1037,-114.324 52.7639,-118.442"/>
<g id="a_edge4&#45;headlabel"><a xlink:href="dir_000091_000016.html" target="_top" xlink:title="1">
<text text-anchor="middle" x="52.9448" y="-120.519" font-family="Helvetica,sans-Serif" font-size="10.00">1</text>
</a>
</g>
</g>
<!-- dir_37c90836491b695b472bf98d1be8336b -->
<g id="node4" class="node"><title>dir_37c90836491b695b472bf98d1be8336b</title>
<g id="a_node4"><a xlink:href="dir_37c90836491b695b472bf98d1be8336b.html" target="_top" xlink:title="Base">
<polygon fill="none" stroke="red" points="98,-36 44,-36 44,-0 98,-0 98,-36"/>
<text text-anchor="middle" x="71" y="-15.5" font-family="Helvetica,sans-Serif" font-size="10.00">Base</text>
</a>
</g>
</g>
<!-- dir_db4a9ed0cc55fd17c70f7e404d003b3a&#45;&gt;dir_37c90836491b695b472bf98d1be8336b -->
<g id="edge5" class="edge"><title>dir_db4a9ed0cc55fd17c70f7e404d003b3a&#45;&gt;dir_37c90836491b695b472bf98d1be8336b</title>
<path fill="none" stroke="black" d="M87.6099,-215.774C95.3729,-206.03 103.946,-193.184 108,-180 112.121,-166.599 113.687,-93.2195 107,-72 103.923,-62.2364 98.4061,-52.6431 92.6008,-44.3596"/>
<polygon fill="black" stroke="black" points="95.3281,-42.1623 86.537,-36.2491 89.7218,-46.3539 95.3281,-42.1623"/>
<g id="a_edge5&#45;headlabel"><a xlink:href="dir_000091_000073.html" target="_top" xlink:title="1">
<text text-anchor="middle" x="99.7545" y="-40.8411" font-family="Helvetica,sans-Serif" font-size="10.00">1</text>
</a>
</g>
</g>
<!-- dir_478733f24fb8878a4cdf7773310adedd -->
<g id="node5" class="node"><title>dir_478733f24fb8878a4cdf7773310adedd</title>
<g id="a_node5"><a xlink:href="dir_478733f24fb8878a4cdf7773310adedd.html" target="_top" xlink:title="base">
<polygon fill="none" stroke="red" points="99,-180 45,-180 45,-144 99,-144 99,-180"/>
<text text-anchor="middle" x="72" y="-159.5" font-family="Helvetica,sans-Serif" font-size="10.00">base</text>
</a>
</g>
</g>
<!-- dir_db4a9ed0cc55fd17c70f7e404d003b3a&#45;&gt;dir_478733f24fb8878a4cdf7773310adedd -->
<g id="edge6" class="edge"><title>dir_db4a9ed0cc55fd17c70f7e404d003b3a&#45;&gt;dir_478733f24fb8878a4cdf7773310adedd</title>
<path fill="none" stroke="black" d="M72,-215.697C72,-207.983 72,-198.712 72,-190.112"/>
<polygon fill="black" stroke="black" points="75.5001,-190.104 72,-180.104 68.5001,-190.104 75.5001,-190.104"/>
<g id="a_edge6&#45;headlabel"><a xlink:href="dir_000091_000077.html" target="_top" xlink:title="1">
<text text-anchor="middle" x="78.3393" y="-191.199" font-family="Helvetica,sans-Serif" font-size="10.00">1</text>
</a>
</g>
</g>
<!-- dir_4ab6b4cc6a7edbff49100e9123df213f&#45;&gt;dir_37c90836491b695b472bf98d1be8336b -->
<g id="edge1" class="edge"><title>dir_4ab6b4cc6a7edbff49100e9123df213f&#45;&gt;dir_37c90836491b695b472bf98d1be8336b</title>
<path fill="none" stroke="black" d="M65.0843,-71.6966C64.2886,-63.9827 64.0621,-54.7125 64.4047,-46.1124"/>
<polygon fill="black" stroke="black" points="67.8984,-46.3243 65.105,-36.1043 60.9154,-45.8356 67.8984,-46.3243"/>
<g id="a_edge1&#45;headlabel"><a xlink:href="dir_000016_000073.html" target="_top" xlink:title="1">
<text text-anchor="middle" x="70.4799" y="-47.6083" font-family="Helvetica,sans-Serif" font-size="10.00">1</text>
</a>
</g>
</g>
<!-- dir_37c90836491b695b472bf98d1be8336b&#45;&gt;dir_4ab6b4cc6a7edbff49100e9123df213f -->
<g id="edge2" class="edge"><title>dir_37c90836491b695b472bf98d1be8336b&#45;&gt;dir_4ab6b4cc6a7edbff49100e9123df213f</title>
<path fill="none" stroke="black" d="M76.895,-36.1043C77.7005,-43.7913 77.9369,-53.0537 77.604,-61.6651"/>
<polygon fill="black" stroke="black" points="74.1085,-61.4805 76.9157,-71.6966 81.0921,-61.9597 74.1085,-61.4805"/>
<g id="a_edge2&#45;headlabel"><a xlink:href="dir_000073_000016.html" target="_top" xlink:title="8">
<text text-anchor="middle" x="71.5219" y="-55.2" font-family="Helvetica,sans-Serif" font-size="10.00">8</text>
</a>
</g>
</g>
<!-- dir_478733f24fb8878a4cdf7773310adedd&#45;&gt;dir_4ab6b4cc6a7edbff49100e9123df213f -->
<g id="edge3" class="edge"><title>dir_478733f24fb8878a4cdf7773310adedd&#45;&gt;dir_4ab6b4cc6a7edbff49100e9123df213f</title>
<path fill="none" stroke="black" d="M71.7528,-143.697C71.6426,-135.983 71.5102,-126.712 71.3873,-118.112"/>
<polygon fill="black" stroke="black" points="74.8869,-118.053 71.2443,-108.104 67.8876,-118.153 74.8869,-118.053"/>
<g id="a_edge3&#45;headlabel"><a xlink:href="dir_000077_000016.html" target="_top" xlink:title="1">
<text text-anchor="middle" x="77.7772" y="-119.107" font-family="Helvetica,sans-Serif" font-size="10.00">1</text>
</a>
</g>
</g>
</g>
</svg>
