<?xml version="1.0" encoding="UTF-8" standalone="no"?>
<!DOCTYPE svg PUBLIC "-//W3C//DTD SVG 1.1//EN"
 "http://www.w3.org/Graphics/SVG/1.1/DTD/svg11.dtd">
<!-- Generated by graphviz version 2.36.0 (20140111.2315)
 -->
<!-- Title: /home/travis/build/AliceO2Group/AliceO2/Common Pages: 1 -->
<svg width="472pt" height="204pt"
 viewBox="0.00 0.00 472.40 204.00" xmlns="http://www.w3.org/2000/svg" xmlns:xlink="http://www.w3.org/1999/xlink">
<g id="graph0" class="graph" transform="scale(1 1) rotate(0) translate(4 200)">
<title>/home/travis/build/AliceO2Group/AliceO2/Common</title>
<g id="clust1" class="cluster"><title>clusterdir_4ab6b4cc6a7edbff49100e9123df213f</title>
<g id="a_clust1"><a xlink:href="dir_4ab6b4cc6a7edbff49100e9123df213f.html" target="_top">
<polygon fill="#eeeeff" stroke="black" points="8,-8 8,-132 456,-132 456,-8 8,-8"/>
</a>
</g>
</g>
<!-- dir_4ab6b4cc6a7edbff49100e9123df213f -->
<g id="node1" class="node"><title>dir_4ab6b4cc6a7edbff49100e9123df213f</title>
<text text-anchor="middle" x="420" y="-103.5" font-family="Helvetica,sans-Serif" font-size="10.00">Common</text>
</g>
<!-- dir_6595de266f53d2529c2724716663252d -->
<g id="node2" class="node"><title>dir_6595de266f53d2529c2724716663252d</title>
<g id="a_node2"><a xlink:href="dir_6595de266f53d2529c2724716663252d.html" target="_top" xlink:title="Constants">
<polygon fill="white" stroke="red" points="373.5,-124 312.5,-124 312.5,-88 373.5,-88 373.5,-124"/>
<text text-anchor="middle" x="343" y="-103.5" font-family="Helvetica,sans-Serif" font-size="10.00">Constants</text>
</a>
</g>
</g>
<!-- dir_91c9f7c5ec503f33747eecaa76c19aa0 -->
<g id="node3" class="node"><title>dir_91c9f7c5ec503f33747eecaa76c19aa0</title>
<g id="a_node3"><a xlink:href="dir_91c9f7c5ec503f33747eecaa76c19aa0.html" target="_top" xlink:title="Field">
<polygon fill="white" stroke="red" points="294,-124 240,-124 240,-88 294,-88 294,-124"/>
<text text-anchor="middle" x="267" y="-103.5" font-family="Helvetica,sans-Serif" font-size="10.00">Field</text>
</a>
</g>
</g>
<!-- dir_1e6fb7e1d286de65f5cad603aaa68769 -->
<g id="node4" class="node"><title>dir_1e6fb7e1d286de65f5cad603aaa68769</title>
<g id="a_node4"><a xlink:href="dir_1e6fb7e1d286de65f5cad603aaa68769.html" target="_top" xlink:title="MathUtils">
<polygon fill="white" stroke="red" points="371.25,-52 312.75,-52 312.75,-16 371.25,-16 371.25,-52"/>
<text text-anchor="middle" x="342" y="-31.5" font-family="Helvetica,sans-Serif" font-size="10.00">MathUtils</text>
</a>
</g>
</g>
<!-- dir_91c9f7c5ec503f33747eecaa76c19aa0&#45;&gt;dir_1e6fb7e1d286de65f5cad603aaa68769 -->
<g id="edge1" class="edge"><title>dir_91c9f7c5ec503f33747eecaa76c19aa0&#45;&gt;dir_1e6fb7e1d286de65f5cad603aaa68769</title>
<path fill="none" stroke="black" d="M285.539,-87.6966C294.803,-79.0503 306.162,-68.4486 316.257,-59.027"/>
<polygon fill="black" stroke="black" points="318.751,-61.4863 323.674,-52.1043 313.975,-56.3688 318.751,-61.4863"/>
<g id="a_edge1&#45;headlabel"><a xlink:href="dir_000020_000025.html" target="_top" xlink:title="3">
<text text-anchor="middle" x="318.061" y="-63.5145" font-family="Helvetica,sans-Serif" font-size="10.00">3</text>
</a>
</g>
</g>
<!-- dir_3a79d3ee4538628fc18e2135ea9cbf22 -->
<g id="node5" class="node"><title>dir_3a79d3ee4538628fc18e2135ea9cbf22</title>
<g id="a_node5"><a xlink:href="dir_3a79d3ee4538628fc18e2135ea9cbf22.html" target="_top" xlink:title="SimConfig">
<polygon fill="white" stroke="red" points="221.5,-124 160.5,-124 160.5,-88 221.5,-88 221.5,-124"/>
<text text-anchor="middle" x="191" y="-103.5" font-family="Helvetica,sans-Serif" font-size="10.00">SimConfig</text>
</a>
</g>
</g>
<!-- dir_a227714f4bf20de28f228c5ebfa34254 -->
<g id="node6" class="node"><title>dir_a227714f4bf20de28f228c5ebfa34254</title>
<g id="a_node6"><a xlink:href="dir_a227714f4bf20de28f228c5ebfa34254.html" target="_top" xlink:title="Types">
<polygon fill="white" stroke="red" points="142,-124 88,-124 88,-88 142,-88 142,-124"/>
<text text-anchor="middle" x="115" y="-103.5" font-family="Helvetica,sans-Serif" font-size="10.00">Types</text>
</a>
</g>
</g>
<!-- dir_dc4810549f8e2e369c60bffc9a91caa2 -->
<g id="node7" class="node"><title>dir_dc4810549f8e2e369c60bffc9a91caa2</title>
<g id="a_node7"><a xlink:href="dir_dc4810549f8e2e369c60bffc9a91caa2.html" target="_top" xlink:title="Utils">
<polygon fill="white" stroke="red" points="70,-124 16,-124 16,-88 70,-88 70,-124"/>
<text text-anchor="middle" x="43" y="-103.5" font-family="Helvetica,sans-Serif" font-size="10.00">Utils</text>
</a>
</g>
</g>
<!-- dir_051dca18e802f8e9474f2e30d29c04e0 -->
<g id="node8" class="node"><title>dir_051dca18e802f8e9474f2e30d29c04e0</title>
<g id="a_node8"><a xlink:href="dir_051dca18e802f8e9474f2e30d29c04e0.html" target="_top" xlink:title="Detectors">
<polygon fill="none" stroke="red" points="334.25,-196 275.75,-196 275.75,-160 334.25,-160 334.25,-196"/>
<text text-anchor="middle" x="305" y="-175.5" font-family="Helvetica,sans-Serif" font-size="10.00">Detectors</text>
</a>
</g>
</g>
<!-- dir_dc4810549f8e2e369c60bffc9a91caa2&#45;&gt;dir_051dca18e802f8e9474f2e30d29c04e0 -->
<g id="edge5" class="edge"><title>dir_dc4810549f8e2e369c60bffc9a91caa2&#45;&gt;dir_051dca18e802f8e9474f2e30d29c04e0</title>
<path fill="none" stroke="black" d="M64.6333,-124.116C69.1847,-127.104 74.0977,-129.917 79,-132 141,-158.342 219.214,-169.5 265.49,-174.052"/>
<polygon fill="black" stroke="black" points="265.419,-177.56 275.7,-174.999 266.066,-170.59 265.419,-177.56"/>
<g id="a_edge5&#45;headlabel"><a xlink:href="dir_000038_000072.html" target="_top" xlink:title="1">
<text text-anchor="middle" x="261.577" y="-177.555" font-family="Helvetica,sans-Serif" font-size="10.00">1</text>
</a>
</g>
</g>
<!-- dir_051dca18e802f8e9474f2e30d29c04e0&#45;&gt;dir_6595de266f53d2529c2724716663252d -->
<g id="edge3" class="edge"><title>dir_051dca18e802f8e9474f2e30d29c04e0&#45;&gt;dir_6595de266f53d2529c2724716663252d</title>
<path fill="none" stroke="black" d="M314.393,-159.697C318.765,-151.644 324.057,-141.894 328.895,-132.982"/>
<polygon fill="black" stroke="black" points="332.02,-134.563 333.715,-124.104 325.868,-131.223 332.02,-134.563"/>
<g id="a_edge3&#45;headlabel"><a xlink:href="dir_000072_000017.html" target="_top" xlink:title="1">
<text text-anchor="middle" x="332.8" y="-136.576" font-family="Helvetica,sans-Serif" font-size="10.00">1</text>
</a>
</g>
</g>
<!-- dir_051dca18e802f8e9474f2e30d29c04e0&#45;&gt;dir_91c9f7c5ec503f33747eecaa76c19aa0 -->
<g id="edge2" class="edge"><title>dir_051dca18e802f8e9474f2e30d29c04e0&#45;&gt;dir_91c9f7c5ec503f33747eecaa76c19aa0</title>
<path fill="none" stroke="black" d="M295.607,-159.697C291.235,-151.644 285.943,-141.894 281.105,-132.982"/>
<polygon fill="black" stroke="black" points="284.132,-131.223 276.285,-124.104 277.98,-134.563 284.132,-131.223"/>
<g id="a_edge2&#45;headlabel"><a xlink:href="dir_000072_000020.html" target="_top" xlink:title="9">
<text text-anchor="middle" x="288.342" y="-130.528" font-family="Helvetica,sans-Serif" font-size="10.00">9</text>
</a>
</g>
</g>
<!-- dir_051dca18e802f8e9474f2e30d29c04e0&#45;&gt;dir_1e6fb7e1d286de65f5cad603aaa68769 -->
<g id="edge4" class="edge"><title>dir_051dca18e802f8e9474f2e30d29c04e0&#45;&gt;dir_1e6fb7e1d286de65f5cad603aaa68769</title>
<path fill="none" stroke="black" d="M334.33,-177.822C369.722,-177.026 427.962,-169.613 456,-132 467.688,-116.321 466.517,-104.487 456,-88 439.68,-62.4145 407.458,-48.987 381.423,-42.0582"/>
<polygon fill="black" stroke="black" points="381.977,-38.5911 371.433,-39.6293 380.323,-45.3929 381.977,-38.5911"/>
<g id="a_edge4&#45;headlabel"><a xlink:href="dir_000072_000025.html" target="_top" xlink:title="26">
<text text-anchor="middle" x="386.141" y="-34.1814" font-family="Helvetica,sans-Serif" font-size="10.00">26</text>
</a>
</g>
</g>
</g>
</svg>
