<?xml version="1.0" encoding="UTF-8" standalone="no"?>
<!DOCTYPE svg PUBLIC "-//W3C//DTD SVG 1.1//EN"
 "http://www.w3.org/Graphics/SVG/1.1/DTD/svg11.dtd">
<!-- Generated by graphviz version 2.36.0 (20140111.2315)
 -->
<!-- Title: /home/travis/build/AliceO2Group/AliceO2/Detectors/ITSMFT/test/HitAnalysis Pages: 1 -->
<svg width="292pt" height="375pt"
 viewBox="0.00 0.00 291.92 375.00" xmlns="http://www.w3.org/2000/svg" xmlns:xlink="http://www.w3.org/1999/xlink">
<g id="graph0" class="graph" transform="scale(1 1) rotate(0) translate(4 371)">
<title>/home/travis/build/AliceO2Group/AliceO2/Detectors/ITSMFT/test/HitAnalysis</title>
<g id="clust1" class="cluster"><title>clusterdir_8a13aabf51651f1b5f53d57129f566b6</title>
<g id="a_clust1"><a xlink:href="dir_8a13aabf51651f1b5f53d57129f566b6.html" target="_top" xlink:title="test">
<polygon fill="#ddddee" stroke="black" points="103.925,-200 103.925,-359 275.925,-359 275.925,-200 103.925,-200"/>
<text text-anchor="middle" x="189.925" y="-347" font-family="Helvetica,sans-Serif" font-size="10.00">test</text>
</a>
</g>
</g>
<g id="clust2" class="cluster"><title>clusterdir_04efe6227c275c48803e66c564837fd2</title>
<g id="a_clust2"><a xlink:href="dir_04efe6227c275c48803e66c564837fd2.html" target="_top">
<polygon fill="#eeeeff" stroke="black" points="111.925,-208 111.925,-332 267.925,-332 267.925,-208 111.925,-208"/>
</a>
</g>
</g>
<!-- dir_04efe6227c275c48803e66c564837fd2 -->
<g id="node1" class="node"><title>dir_04efe6227c275c48803e66c564837fd2</title>
<text text-anchor="middle" x="225.925" y="-303.5" font-family="Helvetica,sans-Serif" font-size="10.00">HitAnalysis</text>
</g>
<!-- dir_f56d42fd1d5597c5f10899e2242a3670 -->
<g id="node2" class="node"><title>dir_f56d42fd1d5597c5f10899e2242a3670</title>
<g id="a_node2"><a xlink:href="dir_f56d42fd1d5597c5f10899e2242a3670.html" target="_top" xlink:title="include">
<polygon fill="white" stroke="red" points="215.925,-252 161.925,-252 161.925,-216 215.925,-216 215.925,-252"/>
<text text-anchor="middle" x="188.925" y="-231.5" font-family="Helvetica,sans-Serif" font-size="10.00">include</text>
</a>
</g>
</g>
<!-- dir_85bf31a2e8d306e7598ffcb73f8df6bf -->
<g id="node7" class="node"><title>dir_85bf31a2e8d306e7598ffcb73f8df6bf</title>
<g id="a_node7"><a xlink:href="dir_85bf31a2e8d306e7598ffcb73f8df6bf.html" target="_top" xlink:title="common">
<polygon fill="none" stroke="red" points="171.925,-180 117.925,-180 117.925,-144 171.925,-144 171.925,-180"/>
<text text-anchor="middle" x="144.925" y="-159.5" font-family="Helvetica,sans-Serif" font-size="10.00">common</text>
</a>
</g>
</g>
<!-- dir_f56d42fd1d5597c5f10899e2242a3670&#45;&gt;dir_85bf31a2e8d306e7598ffcb73f8df6bf -->
<g id="edge5" class="edge"><title>dir_f56d42fd1d5597c5f10899e2242a3670&#45;&gt;dir_85bf31a2e8d306e7598ffcb73f8df6bf</title>
<path fill="none" stroke="black" d="M178.048,-215.697C172.933,-207.559 166.729,-197.689 161.08,-188.701"/>
<polygon fill="black" stroke="black" points="163.961,-186.708 155.676,-180.104 158.034,-190.433 163.961,-186.708"/>
<g id="a_edge5&#45;headlabel"><a xlink:href="dir_000194_000137.html" target="_top" xlink:title="1">
<text text-anchor="middle" x="168.278" y="-185.74" font-family="Helvetica,sans-Serif" font-size="10.00">1</text>
</a>
</g>
</g>
<!-- dir_e93ffad32d055a35a54cbd1488e94878 -->
<g id="node3" class="node"><title>dir_e93ffad32d055a35a54cbd1488e94878</title>
<g id="a_node3"><a xlink:href="dir_e93ffad32d055a35a54cbd1488e94878.html" target="_top" xlink:title="src">
<polygon fill="white" stroke="black" points="173.925,-324 119.925,-324 119.925,-288 173.925,-288 173.925,-324"/>
<text text-anchor="middle" x="146.925" y="-303.5" font-family="Helvetica,sans-Serif" font-size="10.00">src</text>
</a>
</g>
</g>
<!-- dir_e93ffad32d055a35a54cbd1488e94878&#45;&gt;dir_f56d42fd1d5597c5f10899e2242a3670 -->
<g id="edge11" class="edge"><title>dir_e93ffad32d055a35a54cbd1488e94878&#45;&gt;dir_f56d42fd1d5597c5f10899e2242a3670</title>
<path fill="none" stroke="black" d="M157.307,-287.697C162.189,-279.559 168.111,-269.689 173.504,-260.701"/>
<polygon fill="black" stroke="black" points="176.518,-262.48 178.662,-252.104 170.516,-258.879 176.518,-262.48"/>
<g id="a_edge11&#45;headlabel"><a xlink:href="dir_000196_000194.html" target="_top" xlink:title="1">
<text text-anchor="middle" x="177.103" y="-264.523" font-family="Helvetica,sans-Serif" font-size="10.00">1</text>
</a>
</g>
</g>
<!-- dir_871aad07cbf94d6cd423c3d8d5bdf4e9 -->
<g id="node4" class="node"><title>dir_871aad07cbf94d6cd423c3d8d5bdf4e9</title>
<g id="a_node4"><a xlink:href="dir_871aad07cbf94d6cd423c3d8d5bdf4e9.html" target="_top" xlink:title="ITS">
<polygon fill="none" stroke="red" points="95.9245,-252 41.9245,-252 41.9245,-216 95.9245,-216 95.9245,-252"/>
<text text-anchor="middle" x="68.9245" y="-231.5" font-family="Helvetica,sans-Serif" font-size="10.00">ITS</text>
</a>
</g>
</g>
<!-- dir_e93ffad32d055a35a54cbd1488e94878&#45;&gt;dir_871aad07cbf94d6cd423c3d8d5bdf4e9 -->
<g id="edge9" class="edge"><title>dir_e93ffad32d055a35a54cbd1488e94878&#45;&gt;dir_871aad07cbf94d6cd423c3d8d5bdf4e9</title>
<path fill="none" stroke="black" d="M127.644,-287.697C118.009,-279.05 106.196,-268.449 95.6975,-259.027"/>
<polygon fill="black" stroke="black" points="97.7638,-256.179 87.9837,-252.104 93.0884,-261.388 97.7638,-256.179"/>
<g id="a_edge9&#45;headlabel"><a xlink:href="dir_000196_000096.html" target="_top" xlink:title="1">
<text text-anchor="middle" x="102.335" y="-253.966" font-family="Helvetica,sans-Serif" font-size="10.00">1</text>
</a>
</g>
</g>
<!-- dir_4ab6b4cc6a7edbff49100e9123df213f -->
<g id="node5" class="node"><title>dir_4ab6b4cc6a7edbff49100e9123df213f</title>
<g id="a_node5"><a xlink:href="dir_4ab6b4cc6a7edbff49100e9123df213f.html" target="_top" xlink:title="Common">
<polygon fill="none" stroke="red" points="135.425,-108 80.4245,-108 80.4245,-72 135.425,-72 135.425,-108"/>
<text text-anchor="middle" x="107.925" y="-87.5" font-family="Helvetica,sans-Serif" font-size="10.00">Common</text>
</a>
</g>
</g>
<!-- dir_e93ffad32d055a35a54cbd1488e94878&#45;&gt;dir_4ab6b4cc6a7edbff49100e9123df213f -->
<g id="edge10" class="edge"><title>dir_e93ffad32d055a35a54cbd1488e94878&#45;&gt;dir_4ab6b4cc6a7edbff49100e9123df213f</title>
<path fill="none" stroke="black" d="M119.793,-300.868C92.5402,-295.116 51.9396,-281.81 32.9245,-252 3.90924,-206.513 49.5937,-147.993 81.4199,-115.506"/>
<polygon fill="black" stroke="black" points="84.1325,-117.745 88.7615,-108.215 79.1998,-112.778 84.1325,-117.745"/>
<g id="a_edge10&#45;headlabel"><a xlink:href="dir_000196_000016.html" target="_top" xlink:title="1">
<text text-anchor="middle" x="83.5828" y="-119.793" font-family="Helvetica,sans-Serif" font-size="10.00">1</text>
</a>
</g>
</g>
<!-- dir_37c90836491b695b472bf98d1be8336b -->
<g id="node6" class="node"><title>dir_37c90836491b695b472bf98d1be8336b</title>
<g id="a_node6"><a xlink:href="dir_37c90836491b695b472bf98d1be8336b.html" target="_top" xlink:title="Base">
<polygon fill="none" stroke="red" points="134.925,-36 80.9245,-36 80.9245,-0 134.925,-0 134.925,-36"/>
<text text-anchor="middle" x="107.925" y="-15.5" font-family="Helvetica,sans-Serif" font-size="10.00">Base</text>
</a>
</g>
</g>
<!-- dir_e93ffad32d055a35a54cbd1488e94878&#45;&gt;dir_37c90836491b695b472bf98d1be8336b -->
<g id="edge12" class="edge"><title>dir_e93ffad32d055a35a54cbd1488e94878&#45;&gt;dir_37c90836491b695b472bf98d1be8336b</title>
<path fill="none" stroke="black" d="M119.84,-302.318C89.6353,-297.716 42.1134,-285.303 19.9245,-252 -25.5149,-183.8 16.4336,-141.459 59.9245,-72 66.1791,-62.0109 74.396,-52.1417 82.2597,-43.6772"/>
<polygon fill="black" stroke="black" points="84.9098,-45.9707 89.3157,-36.3354 79.8628,-41.1201 84.9098,-45.9707"/>
<g id="a_edge12&#45;headlabel"><a xlink:href="dir_000196_000073.html" target="_top" xlink:title="1">
<text text-anchor="middle" x="84.4661" y="-48.0298" font-family="Helvetica,sans-Serif" font-size="10.00">1</text>
</a>
</g>
</g>
<!-- dir_e93ffad32d055a35a54cbd1488e94878&#45;&gt;dir_85bf31a2e8d306e7598ffcb73f8df6bf -->
<g id="edge13" class="edge"><title>dir_e93ffad32d055a35a54cbd1488e94878&#45;&gt;dir_85bf31a2e8d306e7598ffcb73f8df6bf</title>
<path fill="none" stroke="black" d="M146.683,-287.871C146.342,-263.67 145.716,-219.211 145.31,-190.393"/>
<polygon fill="black" stroke="black" points="148.807,-190.139 145.167,-180.189 141.808,-190.238 148.807,-190.139"/>
<g id="a_edge13&#45;headlabel"><a xlink:href="dir_000196_000137.html" target="_top" xlink:title="3">
<text text-anchor="middle" x="151.697" y="-191.193" font-family="Helvetica,sans-Serif" font-size="10.00">3</text>
</a>
</g>
</g>
<!-- dir_871aad07cbf94d6cd423c3d8d5bdf4e9&#45;&gt;dir_4ab6b4cc6a7edbff49100e9123df213f -->
<g id="edge1" class="edge"><title>dir_871aad07cbf94d6cd423c3d8d5bdf4e9&#45;&gt;dir_4ab6b4cc6a7edbff49100e9123df213f</title>
<path fill="none" stroke="black" d="M73.6289,-215.871C80.305,-191.564 92.5941,-146.819 100.505,-118.013"/>
<polygon fill="black" stroke="black" points="103.93,-118.759 103.204,-108.189 97.18,-116.905 103.93,-118.759"/>
<g id="a_edge1&#45;headlabel"><a xlink:href="dir_000096_000016.html" target="_top" xlink:title="9">
<text text-anchor="middle" x="105.716" y="-120.477" font-family="Helvetica,sans-Serif" font-size="10.00">9</text>
</a>
</g>
</g>
<!-- dir_871aad07cbf94d6cd423c3d8d5bdf4e9&#45;&gt;dir_37c90836491b695b472bf98d1be8336b -->
<g id="edge2" class="edge"><title>dir_871aad07cbf94d6cd423c3d8d5bdf4e9&#45;&gt;dir_37c90836491b695b472bf98d1be8336b</title>
<path fill="none" stroke="black" d="M65.8695,-215.546C61.3041,-185.408 54.8459,-122.033 70.9245,-72 74.0843,-62.1677 79.754,-52.5551 85.7207,-44.275"/>
<polygon fill="black" stroke="black" points="88.6288,-46.235 91.9533,-36.1753 83.0811,-41.9661 88.6288,-46.235"/>
<g id="a_edge2&#45;headlabel"><a xlink:href="dir_000096_000073.html" target="_top" xlink:title="23">
<text text-anchor="middle" x="88.6869" y="-48.3153" font-family="Helvetica,sans-Serif" font-size="10.00">23</text>
</a>
</g>
</g>
<!-- dir_871aad07cbf94d6cd423c3d8d5bdf4e9&#45;&gt;dir_85bf31a2e8d306e7598ffcb73f8df6bf -->
<g id="edge3" class="edge"><title>dir_871aad07cbf94d6cd423c3d8d5bdf4e9&#45;&gt;dir_85bf31a2e8d306e7598ffcb73f8df6bf</title>
<path fill="none" stroke="black" d="M87.7111,-215.697C97.0985,-207.05 108.609,-196.449 118.838,-187.027"/>
<polygon fill="black" stroke="black" points="121.37,-189.454 126.354,-180.104 116.627,-184.305 121.37,-189.454"/>
<g id="a_edge3&#45;headlabel"><a xlink:href="dir_000096_000137.html" target="_top" xlink:title="34">
<text text-anchor="middle" x="120.649" y="-191.477" font-family="Helvetica,sans-Serif" font-size="10.00">34</text>
</a>
</g>
</g>
<!-- dir_4ab6b4cc6a7edbff49100e9123df213f&#45;&gt;dir_37c90836491b695b472bf98d1be8336b -->
<g id="edge4" class="edge"><title>dir_4ab6b4cc6a7edbff49100e9123df213f&#45;&gt;dir_37c90836491b695b472bf98d1be8336b</title>
<path fill="none" stroke="black" d="M102.009,-71.6966C101.213,-63.9827 100.987,-54.7125 101.329,-46.1124"/>
<polygon fill="black" stroke="black" points="104.823,-46.3243 102.03,-36.1043 97.84,-45.8356 104.823,-46.3243"/>
<g id="a_edge4&#45;headlabel"><a xlink:href="dir_000016_000073.html" target="_top" xlink:title="1">
<text text-anchor="middle" x="107.404" y="-47.6083" font-family="Helvetica,sans-Serif" font-size="10.00">1</text>
</a>
</g>
</g>
<!-- dir_37c90836491b695b472bf98d1be8336b&#45;&gt;dir_4ab6b4cc6a7edbff49100e9123df213f -->
<g id="edge6" class="edge"><title>dir_37c90836491b695b472bf98d1be8336b&#45;&gt;dir_4ab6b4cc6a7edbff49100e9123df213f</title>
<path fill="none" stroke="black" d="M113.82,-36.1043C114.625,-43.7913 114.861,-53.0537 114.529,-61.6651"/>
<polygon fill="black" stroke="black" points="111.033,-61.4805 113.84,-71.6966 118.017,-61.9597 111.033,-61.4805"/>
<g id="a_edge6&#45;headlabel"><a xlink:href="dir_000073_000016.html" target="_top" xlink:title="8">
<text text-anchor="middle" x="108.446" y="-55.2" font-family="Helvetica,sans-Serif" font-size="10.00">8</text>
</a>
</g>
</g>
<!-- dir_85bf31a2e8d306e7598ffcb73f8df6bf&#45;&gt;dir_4ab6b4cc6a7edbff49100e9123df213f -->
<g id="edge7" class="edge"><title>dir_85bf31a2e8d306e7598ffcb73f8df6bf&#45;&gt;dir_4ab6b4cc6a7edbff49100e9123df213f</title>
<path fill="none" stroke="black" d="M135.778,-143.697C131.522,-135.644 126.369,-125.894 121.658,-116.982"/>
<polygon fill="black" stroke="black" points="124.733,-115.31 116.965,-108.104 118.544,-118.581 124.733,-115.31"/>
<g id="a_edge7&#45;headlabel"><a xlink:href="dir_000137_000016.html" target="_top" xlink:title="2">
<text text-anchor="middle" x="128.923" y="-114.661" font-family="Helvetica,sans-Serif" font-size="10.00">2</text>
</a>
</g>
</g>
<!-- dir_85bf31a2e8d306e7598ffcb73f8df6bf&#45;&gt;dir_37c90836491b695b472bf98d1be8336b -->
<g id="edge8" class="edge"><title>dir_85bf31a2e8d306e7598ffcb73f8df6bf&#45;&gt;dir_37c90836491b695b472bf98d1be8336b</title>
<path fill="none" stroke="black" d="M147.609,-143.812C149.807,-125.543 151.463,-96.0328 143.925,-72 140.861,-62.2323 135.347,-52.6379 129.541,-44.3546"/>
<polygon fill="black" stroke="black" points="132.268,-42.1562 123.475,-36.2447 126.662,-46.3489 132.268,-42.1562"/>
<g id="a_edge8&#45;headlabel"><a xlink:href="dir_000137_000073.html" target="_top" xlink:title="2">
<text text-anchor="middle" x="136.694" y="-40.8341" font-family="Helvetica,sans-Serif" font-size="10.00">2</text>
</a>
</g>
</g>
</g>
</svg>
