<?xml version="1.0" encoding="UTF-8" standalone="no"?>
<!DOCTYPE svg PUBLIC "-//W3C//DTD SVG 1.1//EN"
 "http://www.w3.org/Graphics/SVG/1.1/DTD/svg11.dtd">
<!-- Generated by graphviz version 2.36.0 (20140111.2315)
 -->
<!-- Title: /home/travis/build/AliceO2Group/AliceO2/Framework Pages: 1 -->
<svg width="394pt" height="420pt"
 viewBox="0.00 0.00 394.00 420.00" xmlns="http://www.w3.org/2000/svg" xmlns:xlink="http://www.w3.org/1999/xlink">
<g id="graph0" class="graph" transform="scale(1 1) rotate(0) translate(4 416)">
<title>/home/travis/build/AliceO2Group/AliceO2/Framework</title>
<g id="clust1" class="cluster"><title>clusterdir_bcbb2cf9a3d3d83e5515c82071a07177</title>
<g id="a_clust1"><a xlink:href="dir_bcbb2cf9a3d3d83e5515c82071a07177.html" target="_top">
<polygon fill="#eeeeff" stroke="black" points="8,-208 8,-404 191,-404 191,-208 8,-208"/>
</a>
</g>
</g>
<!-- dir_bcbb2cf9a3d3d83e5515c82071a07177 -->
<g id="node1" class="node"><title>dir_bcbb2cf9a3d3d83e5515c82071a07177</title>
<text text-anchor="middle" x="150" y="-375.5" font-family="Helvetica,sans-Serif" font-size="10.00">Framework</text>
</g>
<!-- dir_9f165b2481dacfe69aa54d326bd5cd47 -->
<g id="node2" class="node"><title>dir_9f165b2481dacfe69aa54d326bd5cd47</title>
<g id="a_node2"><a xlink:href="dir_9f165b2481dacfe69aa54d326bd5cd47.html" target="_top" xlink:title="Core">
<polygon fill="white" stroke="red" points="116,-324 62,-324 62,-288 116,-288 116,-324"/>
<text text-anchor="middle" x="89" y="-303.5" font-family="Helvetica,sans-Serif" font-size="10.00">Core</text>
</a>
</g>
</g>
<!-- dir_f0af9df59806ed8bcb6931e6b1774828 -->
<g id="node3" class="node"><title>dir_f0af9df59806ed8bcb6931e6b1774828</title>
<g id="a_node3"><a xlink:href="dir_f0af9df59806ed8bcb6931e6b1774828.html" target="_top" xlink:title="DebugGUI">
<polygon fill="white" stroke="red" points="120.25,-252 57.75,-252 57.75,-216 120.25,-216 120.25,-252"/>
<text text-anchor="middle" x="89" y="-231.5" font-family="Helvetica,sans-Serif" font-size="10.00">DebugGUI</text>
</a>
</g>
</g>
<!-- dir_9f165b2481dacfe69aa54d326bd5cd47&#45;&gt;dir_f0af9df59806ed8bcb6931e6b1774828 -->
<g id="edge7" class="edge"><title>dir_9f165b2481dacfe69aa54d326bd5cd47&#45;&gt;dir_f0af9df59806ed8bcb6931e6b1774828</title>
<path fill="none" stroke="black" d="M89,-287.697C89,-279.983 89,-270.712 89,-262.112"/>
<polygon fill="black" stroke="black" points="92.5001,-262.104 89,-252.104 85.5001,-262.104 92.5001,-262.104"/>
<g id="a_edge7&#45;headlabel"><a xlink:href="dir_000260_000265.html" target="_top" xlink:title="3">
<text text-anchor="middle" x="95.3393" y="-263.199" font-family="Helvetica,sans-Serif" font-size="10.00">3</text>
</a>
</g>
</g>
<!-- dir_2171f7ec022c5423887b07c69b2f5b48 -->
<g id="node8" class="node"><title>dir_2171f7ec022c5423887b07c69b2f5b48</title>
<g id="a_node8"><a xlink:href="dir_2171f7ec022c5423887b07c69b2f5b48.html" target="_top" xlink:title="DataFormats">
<polygon fill="none" stroke="red" points="273,-252 199,-252 199,-216 273,-216 273,-252"/>
<text text-anchor="middle" x="236" y="-231.5" font-family="Helvetica,sans-Serif" font-size="10.00">DataFormats</text>
</a>
</g>
</g>
<!-- dir_9f165b2481dacfe69aa54d326bd5cd47&#45;&gt;dir_2171f7ec022c5423887b07c69b2f5b48 -->
<g id="edge8" class="edge"><title>dir_9f165b2481dacfe69aa54d326bd5cd47&#45;&gt;dir_2171f7ec022c5423887b07c69b2f5b48</title>
<path fill="none" stroke="black" d="M116.305,-291.998C137.288,-282.006 166.718,-267.991 191.144,-256.36"/>
<polygon fill="black" stroke="black" points="192.709,-259.491 200.233,-252.032 189.699,-253.171 192.709,-259.491"/>
<g id="a_edge8&#45;headlabel"><a xlink:href="dir_000260_000043.html" target="_top" xlink:title="12">
<text text-anchor="middle" x="190.684" y="-261.1" font-family="Helvetica,sans-Serif" font-size="10.00">12</text>
</a>
</g>
</g>
<!-- dir_a8f73827fca2a0188d35dc47dc5b0ea3 -->
<g id="node4" class="node"><title>dir_a8f73827fca2a0188d35dc47dc5b0ea3</title>
<g id="a_node4"><a xlink:href="dir_a8f73827fca2a0188d35dc47dc5b0ea3.html" target="_top" xlink:title="TestWorkflows">
<polygon fill="white" stroke="red" points="99.25,-396 16.75,-396 16.75,-360 99.25,-360 99.25,-396"/>
<text text-anchor="middle" x="58" y="-375.5" font-family="Helvetica,sans-Serif" font-size="10.00">TestWorkflows</text>
</a>
</g>
</g>
<!-- dir_a8f73827fca2a0188d35dc47dc5b0ea3&#45;&gt;dir_9f165b2481dacfe69aa54d326bd5cd47 -->
<g id="edge3" class="edge"><title>dir_a8f73827fca2a0188d35dc47dc5b0ea3&#45;&gt;dir_9f165b2481dacfe69aa54d326bd5cd47</title>
<path fill="none" stroke="black" d="M65.6629,-359.697C69.1917,-351.728 73.4559,-342.1 77.3687,-333.264"/>
<polygon fill="black" stroke="black" points="80.5761,-334.665 81.4252,-324.104 74.1757,-331.831 80.5761,-334.665"/>
<g id="a_edge3&#45;headlabel"><a xlink:href="dir_000271_000260.html" target="_top" xlink:title="41">
<text text-anchor="middle" x="81.7167" y="-336.602" font-family="Helvetica,sans-Serif" font-size="10.00">41</text>
</a>
</g>
</g>
<!-- dir_0b342c6c6b7d2278121a0bb9c4985063 -->
<g id="node5" class="node"><title>dir_0b342c6c6b7d2278121a0bb9c4985063</title>
<g id="a_node5"><a xlink:href="dir_0b342c6c6b7d2278121a0bb9c4985063.html" target="_top" xlink:title="Generators">
<polygon fill="none" stroke="red" points="371.25,-36 306.75,-36 306.75,-0 371.25,-0 371.25,-36"/>
<text text-anchor="middle" x="339" y="-15.5" font-family="Helvetica,sans-Serif" font-size="10.00">Generators</text>
</a>
</g>
</g>
<!-- dir_a8f73827fca2a0188d35dc47dc5b0ea3&#45;&gt;dir_0b342c6c6b7d2278121a0bb9c4985063 -->
<g id="edge1" class="edge"><title>dir_a8f73827fca2a0188d35dc47dc5b0ea3&#45;&gt;dir_0b342c6c6b7d2278121a0bb9c4985063</title>
<path fill="none" stroke="black" d="M99.37,-362.575C102.28,-361.671 105.178,-360.803 108,-360 238.297,-322.918 386,-370.471 386,-235 386,-235 386,-235 386,-161 386,-118.955 367.2,-73.2927 353.38,-45.4069"/>
<polygon fill="black" stroke="black" points="356.404,-43.6333 348.738,-36.3198 350.17,-46.8174 356.404,-43.6333"/>
<g id="a_edge1&#45;headlabel"><a xlink:href="dir_000271_000274.html" target="_top" xlink:title="1">
<text text-anchor="middle" x="360.568" y="-43.043" font-family="Helvetica,sans-Serif" font-size="10.00">1</text>
</a>
</g>
</g>
<!-- dir_4ab6b4cc6a7edbff49100e9123df213f -->
<g id="node6" class="node"><title>dir_4ab6b4cc6a7edbff49100e9123df213f</title>
<g id="a_node6"><a xlink:href="dir_4ab6b4cc6a7edbff49100e9123df213f.html" target="_top" xlink:title="Common">
<polygon fill="none" stroke="red" points="319.5,-180 264.5,-180 264.5,-144 319.5,-144 319.5,-180"/>
<text text-anchor="middle" x="292" y="-159.5" font-family="Helvetica,sans-Serif" font-size="10.00">Common</text>
</a>
</g>
</g>
<!-- dir_a8f73827fca2a0188d35dc47dc5b0ea3&#45;&gt;dir_4ab6b4cc6a7edbff49100e9123df213f -->
<g id="edge2" class="edge"><title>dir_a8f73827fca2a0188d35dc47dc5b0ea3&#45;&gt;dir_4ab6b4cc6a7edbff49100e9123df213f</title>
<path fill="none" stroke="black" d="M98.7869,-359.82C157.222,-334.331 260.151,-285.867 282,-252 293.752,-233.785 295.669,-209.014 294.979,-190.23"/>
<polygon fill="black" stroke="black" points="298.47,-189.984 294.349,-180.224 291.484,-190.424 298.47,-189.984"/>
<g id="a_edge2&#45;headlabel"><a xlink:href="dir_000271_000016.html" target="_top" xlink:title="2">
<text text-anchor="middle" x="301.53" y="-190.894" font-family="Helvetica,sans-Serif" font-size="10.00">2</text>
</a>
</g>
</g>
<!-- dir_051dca18e802f8e9474f2e30d29c04e0 -->
<g id="node7" class="node"><title>dir_051dca18e802f8e9474f2e30d29c04e0</title>
<g id="a_node7"><a xlink:href="dir_051dca18e802f8e9474f2e30d29c04e0.html" target="_top" xlink:title="Detectors">
<polygon fill="none" stroke="red" points="321.25,-108 262.75,-108 262.75,-72 321.25,-72 321.25,-108"/>
<text text-anchor="middle" x="292" y="-87.5" font-family="Helvetica,sans-Serif" font-size="10.00">Detectors</text>
</a>
</g>
</g>
<!-- dir_a8f73827fca2a0188d35dc47dc5b0ea3&#45;&gt;dir_051dca18e802f8e9474f2e30d29c04e0 -->
<g id="edge4" class="edge"><title>dir_a8f73827fca2a0188d35dc47dc5b0ea3&#45;&gt;dir_051dca18e802f8e9474f2e30d29c04e0</title>
<path fill="none" stroke="black" d="M99.4454,-362.822C102.338,-361.859 105.211,-360.911 108,-360 202.179,-329.253 248.203,-334.537 303,-252 330.251,-210.953 342.481,-191.093 328,-144 324.991,-134.215 319.493,-124.616 313.684,-116.334"/>
<polygon fill="black" stroke="black" points="316.407,-114.131 307.61,-108.226 310.805,-118.328 316.407,-114.131"/>
<g id="a_edge4&#45;headlabel"><a xlink:href="dir_000271_000072.html" target="_top" xlink:title="4">
<text text-anchor="middle" x="320.835" y="-112.805" font-family="Helvetica,sans-Serif" font-size="10.00">4</text>
</a>
</g>
</g>
<!-- dir_a8f73827fca2a0188d35dc47dc5b0ea3&#45;&gt;dir_2171f7ec022c5423887b07c69b2f5b48 -->
<g id="edge5" class="edge"><title>dir_a8f73827fca2a0188d35dc47dc5b0ea3&#45;&gt;dir_2171f7ec022c5423887b07c69b2f5b48</title>
<path fill="none" stroke="black" d="M79.7541,-359.85C92.8761,-349.491 109.918,-336.012 125,-324 152.877,-301.798 184.59,-276.352 206.96,-258.371"/>
<polygon fill="black" stroke="black" points="209.154,-261.097 214.754,-252.104 204.767,-255.642 209.154,-261.097"/>
<g id="a_edge5&#45;headlabel"><a xlink:href="dir_000271_000043.html" target="_top" xlink:title="2">
<text text-anchor="middle" x="208.132" y="-263.063" font-family="Helvetica,sans-Serif" font-size="10.00">2</text>
</a>
</g>
</g>
<!-- dir_4ab6b4cc6a7edbff49100e9123df213f&#45;&gt;dir_051dca18e802f8e9474f2e30d29c04e0 -->
<g id="edge6" class="edge"><title>dir_4ab6b4cc6a7edbff49100e9123df213f&#45;&gt;dir_051dca18e802f8e9474f2e30d29c04e0</title>
<path fill="none" stroke="black" d="M286.084,-143.697C285.289,-135.983 285.062,-126.712 285.405,-118.112"/>
<polygon fill="black" stroke="black" points="288.898,-118.324 286.105,-108.104 281.915,-117.836 288.898,-118.324"/>
<g id="a_edge6&#45;headlabel"><a xlink:href="dir_000016_000072.html" target="_top" xlink:title="1">
<text text-anchor="middle" x="291.48" y="-119.608" font-family="Helvetica,sans-Serif" font-size="10.00">1</text>
</a>
</g>
</g>
<!-- dir_051dca18e802f8e9474f2e30d29c04e0&#45;&gt;dir_0b342c6c6b7d2278121a0bb9c4985063 -->
<g id="edge9" class="edge"><title>dir_051dca18e802f8e9474f2e30d29c04e0&#45;&gt;dir_0b342c6c6b7d2278121a0bb9c4985063</title>
<path fill="none" stroke="black" d="M303.618,-71.6966C309.139,-63.4741 315.847,-53.4832 321.932,-44.4207"/>
<polygon fill="black" stroke="black" points="324.847,-46.3576 327.516,-36.1043 319.035,-42.4555 324.847,-46.3576"/>
<g id="a_edge9&#45;headlabel"><a xlink:href="dir_000072_000274.html" target="_top" xlink:title="1">
<text text-anchor="middle" x="325.201" y="-48.4246" font-family="Helvetica,sans-Serif" font-size="10.00">1</text>
</a>
</g>
</g>
<!-- dir_051dca18e802f8e9474f2e30d29c04e0&#45;&gt;dir_4ab6b4cc6a7edbff49100e9123df213f -->
<g id="edge10" class="edge"><title>dir_051dca18e802f8e9474f2e30d29c04e0&#45;&gt;dir_4ab6b4cc6a7edbff49100e9123df213f</title>
<path fill="none" stroke="black" d="M297.895,-108.104C298.701,-115.791 298.937,-125.054 298.604,-133.665"/>
<polygon fill="black" stroke="black" points="295.109,-133.48 297.916,-143.697 302.092,-133.96 295.109,-133.48"/>
<g id="a_edge10&#45;headlabel"><a xlink:href="dir_000072_000016.html" target="_top" xlink:title="36">
<text text-anchor="middle" x="292.522" y="-127.2" font-family="Helvetica,sans-Serif" font-size="10.00">36</text>
</a>
</g>
</g>
<!-- dir_051dca18e802f8e9474f2e30d29c04e0&#45;&gt;dir_2171f7ec022c5423887b07c69b2f5b48 -->
<g id="edge11" class="edge"><title>dir_051dca18e802f8e9474f2e30d29c04e0&#45;&gt;dir_2171f7ec022c5423887b07c69b2f5b48</title>
<path fill="none" stroke="black" d="M285.352,-108.089C278.686,-117.99 269.635,-131.032 264,-144 255.368,-163.866 250.533,-187.978 246.52,-206.092"/>
<polygon fill="black" stroke="black" points="243.075,-205.455 244.231,-215.986 249.895,-207.033 243.075,-205.455"/>
<g id="a_edge11&#45;headlabel"><a xlink:href="dir_000072_000043.html" target="_top" xlink:title="83">
<text text-anchor="middle" x="241.12" y="-198.812" font-family="Helvetica,sans-Serif" font-size="10.00">83</text>
</a>
</g>
</g>
<!-- dir_2171f7ec022c5423887b07c69b2f5b48&#45;&gt;dir_4ab6b4cc6a7edbff49100e9123df213f -->
<g id="edge12" class="edge"><title>dir_2171f7ec022c5423887b07c69b2f5b48&#45;&gt;dir_4ab6b4cc6a7edbff49100e9123df213f</title>
<path fill="none" stroke="black" d="M249.843,-215.697C256.489,-207.389 264.578,-197.277 271.887,-188.141"/>
<polygon fill="black" stroke="black" points="274.803,-190.099 278.317,-180.104 269.336,-185.727 274.803,-190.099"/>
<g id="a_edge12&#45;headlabel"><a xlink:href="dir_000043_000016.html" target="_top" xlink:title="4">
<text text-anchor="middle" x="274.774" y="-192.18" font-family="Helvetica,sans-Serif" font-size="10.00">4</text>
</a>
</g>
</g>
<!-- dir_2171f7ec022c5423887b07c69b2f5b48&#45;&gt;dir_051dca18e802f8e9474f2e30d29c04e0 -->
<g id="edge13" class="edge"><title>dir_2171f7ec022c5423887b07c69b2f5b48&#45;&gt;dir_051dca18e802f8e9474f2e30d29c04e0</title>
<path fill="none" stroke="black" d="M230.963,-215.986C230.781,-197.607 235.674,-167.765 246,-144 250.27,-134.173 256.502,-124.303 263.106,-115.79"/>
<polygon fill="black" stroke="black" points="265.804,-118.018 269.499,-108.089 260.418,-113.547 265.804,-118.018"/>
<g id="a_edge13&#45;headlabel"><a xlink:href="dir_000043_000072.html" target="_top" xlink:title="8">
<text text-anchor="middle" x="265.693" y="-120.098" font-family="Helvetica,sans-Serif" font-size="10.00">8</text>
</a>
</g>
</g>
</g>
</svg>
