<?xml version="1.0" encoding="UTF-8" standalone="no"?>
<!DOCTYPE svg PUBLIC "-//W3C//DTD SVG 1.1//EN"
 "http://www.w3.org/Graphics/SVG/1.1/DTD/svg11.dtd">
<!-- Generated by graphviz version 2.36.0 (20140111.2315)
 -->
<!-- Title: /home/travis/build/AliceO2Group/AliceO2/Detectors/ITSMFT Pages: 1 -->
<!--zoomable 447 -->
<svg id="main" version="1.1" xmlns="http://www.w3.org/2000/svg" xmlns:xlink="http://www.w3.org/1999/xlink" xml:space="preserve" onload="init(evt)">
<style type="text/css"><![CDATA[
.edge:hover path { stroke: red; }
.edge:hover polygon { stroke: red; fill: red; }
]]></style>
<script type="text/javascript"><![CDATA[
var edges = document.getElementsByTagName('g');
if (edges && edges.length) {
  for (var i=0;i<edges.length;i++) {
    if (edges[i].id.substr(0,4)=='edge') {
      edges[i].setAttribute('class','edge');
    }
  }
}
]]></script>
        <defs>
                <circle id="rim" cx="0" cy="0" r="7"/>
                <circle id="rim2" cx="0" cy="0" r="3.5"/>
                <g id="zoomPlus">
                        <use xlink:href="#rim" fill="#404040">
                                <set attributeName="fill" to="#808080" begin="zoomplus.mouseover" end="zoomplus.mouseout"/>
                        </use>
                        <path d="M-4,0h8M0,-4v8" fill="none" stroke="white" stroke-width="1.5" pointer-events="none"/>
                </g>
                <g id="zoomMin">
                        <use xlink:href="#rim" fill="#404040">
                                <set attributeName="fill" to="#808080" begin="zoomminus.mouseover" end="zoomminus.mouseout"/>
                        </use>
                        <path d="M-4,0h8" fill="none" stroke="white" stroke-width="1.5" pointer-events="none"/>
                </g>
                <g id="dirArrow">
                        <path fill="none" stroke="white" stroke-width="1.5" d="M0,-3.0v7 M-2.5,-0.5L0,-3.0L2.5,-0.5"/>
                </g>
               <g id="resetDef">
                       <use xlink:href="#rim2" fill="#404040">
                               <set attributeName="fill" to="#808080" begin="reset.mouseover" end="reset.mouseout"/>
                       </use>
               </g>
        </defs>

<script type="text/javascript">
var viewWidth = 543;
var viewHeight = 447;
var sectionId = 'dynsection-0';
</script>
<script xlink:href="svgpan.js"/>
<svg id="graph" class="graph">
<g id="viewport">
<title>/home/travis/build/AliceO2Group/AliceO2/Detectors/ITSMFT</title>
<g id="clust1" class="cluster"><title>clusterdir_051dca18e802f8e9474f2e30d29c04e0</title>
<g id="a_clust1"><a xlink:href="dir_051dca18e802f8e9474f2e30d29c04e0.html" target="_top" xlink:title="Detectors">
<polygon fill="#ddddee" stroke="black" points="167,-200 167,-431 345,-431 345,-200 167,-200"/>
<text text-anchor="middle" x="256" y="-419" font-family="Helvetica,sans-Serif" font-size="10.00">Detectors</text>
</a>
</g>
</g>
<g id="clust2" class="cluster"><title>clusterdir_1306292b77b40360479b729ac9ee7efe</title>
<g id="a_clust2"><a xlink:href="dir_1306292b77b40360479b729ac9ee7efe.html" target="_top">
<polygon fill="#eeeeff" stroke="black" points="175,-208 175,-404 337,-404 337,-208 175,-208"/>
</a>
</g>
</g>
<!-- dir_1306292b77b40360479b729ac9ee7efe -->
<g id="node1" class="node"><title>dir_1306292b77b40360479b729ac9ee7efe</title>
<text text-anchor="middle" x="302" y="-375.5" font-family="Helvetica,sans-Serif" font-size="10.00">ITSMFT</text>
</g>
<!-- dir_85bf31a2e8d306e7598ffcb73f8df6bf -->
<g id="node2" class="node"><title>dir_85bf31a2e8d306e7598ffcb73f8df6bf</title>
<g id="a_node2"><a xlink:href="dir_85bf31a2e8d306e7598ffcb73f8df6bf.html" target="_top" xlink:title="common">
<polygon fill="white" stroke="red" points="259,-252 205,-252 205,-216 259,-216 259,-252"/>
<text text-anchor="middle" x="232" y="-231.5" font-family="Helvetica,sans-Serif" font-size="10.00">common</text>
</a>
</g>
</g>
<!-- dir_4ab6b4cc6a7edbff49100e9123df213f -->
<g id="node6" class="node"><title>dir_4ab6b4cc6a7edbff49100e9123df213f</title>
<g id="a_node6"><a xlink:href="dir_4ab6b4cc6a7edbff49100e9123df213f.html" target="_top" xlink:title="Common">
<polygon fill="none" stroke="red" points="224.5,-108 169.5,-108 169.5,-72 224.5,-72 224.5,-108"/>
<text text-anchor="middle" x="197" y="-87.5" font-family="Helvetica,sans-Serif" font-size="10.00">Common</text>
</a>
</g>
</g>
<!-- dir_85bf31a2e8d306e7598ffcb73f8df6bf&#45;&gt;dir_4ab6b4cc6a7edbff49100e9123df213f -->
<g id="edge16" class="edge"><title>dir_85bf31a2e8d306e7598ffcb73f8df6bf&#45;&gt;dir_4ab6b4cc6a7edbff49100e9123df213f</title>
<path fill="none" stroke="black" d="M227.778,-215.871C221.787,-191.564 210.758,-146.819 203.658,-118.013"/>
<polygon fill="black" stroke="black" points="207.028,-117.061 201.237,-108.189 200.232,-118.736 207.028,-117.061"/>
<g id="a_edge16&#45;headlabel"><a xlink:href="dir_000137_000016.html" target="_top" xlink:title="2">
<text text-anchor="middle" x="210.645" y="-117.372" font-family="Helvetica,sans-Serif" font-size="10.00">2</text>
</a>
</g>
</g>
<!-- dir_37c90836491b695b472bf98d1be8336b -->
<g id="node8" class="node"><title>dir_37c90836491b695b472bf98d1be8336b</title>
<g id="a_node8"><a xlink:href="dir_37c90836491b695b472bf98d1be8336b.html" target="_top" xlink:title="Base">
<polygon fill="none" stroke="red" points="345,-36 291,-36 291,-0 345,-0 345,-36"/>
<text text-anchor="middle" x="318" y="-15.5" font-family="Helvetica,sans-Serif" font-size="10.00">Base</text>
</a>
</g>
</g>
<!-- dir_85bf31a2e8d306e7598ffcb73f8df6bf&#45;&gt;dir_37c90836491b695b472bf98d1be8336b -->
<g id="edge17" class="edge"><title>dir_85bf31a2e8d306e7598ffcb73f8df6bf&#45;&gt;dir_37c90836491b695b472bf98d1be8336b</title>
<path fill="none" stroke="black" d="M238.892,-215.849C253.863,-178.597 289.44,-90.067 307.335,-45.5391"/>
<polygon fill="black" stroke="black" points="310.593,-46.8164 311.075,-36.2325 304.098,-44.2061 310.593,-46.8164"/>
<g id="a_edge17&#45;headlabel"><a xlink:href="dir_000137_000073.html" target="_top" xlink:title="2">
<text text-anchor="middle" x="311.888" y="-48.7104" font-family="Helvetica,sans-Serif" font-size="10.00">2</text>
</a>
</g>
</g>
<!-- dir_2171f7ec022c5423887b07c69b2f5b48 -->
<g id="node10" class="node"><title>dir_2171f7ec022c5423887b07c69b2f5b48</title>
<g id="a_node10"><a xlink:href="dir_2171f7ec022c5423887b07c69b2f5b48.html" target="_top" xlink:title="DataFormats">
<polygon fill="none" stroke="red" points="355,-180 281,-180 281,-144 355,-144 355,-180"/>
<text text-anchor="middle" x="318" y="-159.5" font-family="Helvetica,sans-Serif" font-size="10.00">DataFormats</text>
</a>
</g>
</g>
<!-- dir_85bf31a2e8d306e7598ffcb73f8df6bf&#45;&gt;dir_2171f7ec022c5423887b07c69b2f5b48 -->
<g id="edge18" class="edge"><title>dir_85bf31a2e8d306e7598ffcb73f8df6bf&#45;&gt;dir_2171f7ec022c5423887b07c69b2f5b48</title>
<path fill="none" stroke="black" d="M253.258,-215.697C264.089,-206.881 277.418,-196.032 289.16,-186.474"/>
<polygon fill="black" stroke="black" points="291.44,-189.132 296.986,-180.104 287.021,-183.703 291.44,-189.132"/>
<g id="a_edge18&#45;headlabel"><a xlink:href="dir_000137_000043.html" target="_top" xlink:title="8">
<text text-anchor="middle" x="290.444" y="-191.103" font-family="Helvetica,sans-Serif" font-size="10.00">8</text>
</a>
</g>
</g>
<!-- dir_871aad07cbf94d6cd423c3d8d5bdf4e9 -->
<g id="node3" class="node"><title>dir_871aad07cbf94d6cd423c3d8d5bdf4e9</title>
<g id="a_node3"><a xlink:href="dir_871aad07cbf94d6cd423c3d8d5bdf4e9.html" target="_top" xlink:title="ITS">
<polygon fill="white" stroke="red" points="329,-324 275,-324 275,-288 329,-288 329,-324"/>
<text text-anchor="middle" x="302" y="-303.5" font-family="Helvetica,sans-Serif" font-size="10.00">ITS</text>
</a>
</g>
</g>
<!-- dir_871aad07cbf94d6cd423c3d8d5bdf4e9&#45;&gt;dir_85bf31a2e8d306e7598ffcb73f8df6bf -->
<g id="edge4" class="edge"><title>dir_871aad07cbf94d6cd423c3d8d5bdf4e9&#45;&gt;dir_85bf31a2e8d306e7598ffcb73f8df6bf</title>
<path fill="none" stroke="black" d="M284.697,-287.697C276.135,-279.135 265.656,-268.656 256.304,-259.304"/>
<polygon fill="black" stroke="black" points="258.65,-256.701 249.104,-252.104 253.701,-261.65 258.65,-256.701"/>
<g id="a_edge4&#45;headlabel"><a xlink:href="dir_000096_000137.html" target="_top" xlink:title="34">
<text text-anchor="middle" x="263.2" y="-254.735" font-family="Helvetica,sans-Serif" font-size="10.00">34</text>
</a>
</g>
</g>
<!-- dir_871aad07cbf94d6cd423c3d8d5bdf4e9&#45;&gt;dir_4ab6b4cc6a7edbff49100e9123df213f -->
<g id="edge1" class="edge"><title>dir_871aad07cbf94d6cd423c3d8d5bdf4e9&#45;&gt;dir_4ab6b4cc6a7edbff49100e9123df213f</title>
<path fill="none" stroke="black" d="M274.981,-295.242C246.63,-284.391 204.951,-266.483 196,-252 170.564,-210.843 179.982,-151.737 188.75,-117.771"/>
<polygon fill="black" stroke="black" points="192.137,-118.654 191.411,-108.084 185.387,-116.8 192.137,-118.654"/>
<g id="a_edge1&#45;headlabel"><a xlink:href="dir_000096_000016.html" target="_top" xlink:title="9">
<text text-anchor="middle" x="193.923" y="-120.372" font-family="Helvetica,sans-Serif" font-size="10.00">9</text>
</a>
</g>
</g>
<!-- dir_a597e8e061b11201a1dff411feb10d0b -->
<g id="node7" class="node"><title>dir_a597e8e061b11201a1dff411feb10d0b</title>
<g id="a_node7"><a xlink:href="dir_a597e8e061b11201a1dff411feb10d0b.html" target="_top" xlink:title="TPC">
<polygon fill="none" stroke="red" points="407,-252 353,-252 353,-216 407,-216 407,-252"/>
<text text-anchor="middle" x="380" y="-231.5" font-family="Helvetica,sans-Serif" font-size="10.00">TPC</text>
</a>
</g>
</g>
<!-- dir_871aad07cbf94d6cd423c3d8d5bdf4e9&#45;&gt;dir_a597e8e061b11201a1dff411feb10d0b -->
<g id="edge2" class="edge"><title>dir_871aad07cbf94d6cd423c3d8d5bdf4e9&#45;&gt;dir_a597e8e061b11201a1dff411feb10d0b</title>
<path fill="none" stroke="black" d="M321.281,-287.697C330.915,-279.05 342.729,-268.449 353.227,-259.027"/>
<polygon fill="black" stroke="black" points="355.836,-261.388 360.941,-252.104 351.161,-256.179 355.836,-261.388"/>
<g id="a_edge2&#45;headlabel"><a xlink:href="dir_000096_000085.html" target="_top" xlink:title="1">
<text text-anchor="middle" x="355.057" y="-263.402" font-family="Helvetica,sans-Serif" font-size="10.00">1</text>
</a>
</g>
</g>
<!-- dir_871aad07cbf94d6cd423c3d8d5bdf4e9&#45;&gt;dir_37c90836491b695b472bf98d1be8336b -->
<g id="edge3" class="edge"><title>dir_871aad07cbf94d6cd423c3d8d5bdf4e9&#45;&gt;dir_37c90836491b695b472bf98d1be8336b</title>
<path fill="none" stroke="black" d="M329.233,-304.059C363.707,-301.23 421.866,-290.626 449,-252 499.894,-179.549 402.163,-85.6715 349.074,-42.5481"/>
<polygon fill="black" stroke="black" points="350.965,-39.5789 340.966,-36.0739 346.597,-45.0489 350.965,-39.5789"/>
<g id="a_edge3&#45;headlabel"><a xlink:href="dir_000096_000073.html" target="_top" xlink:title="23">
<text text-anchor="middle" x="355.545" y="-37.1032" font-family="Helvetica,sans-Serif" font-size="10.00">23</text>
</a>
</g>
</g>
<!-- dir_871aad07cbf94d6cd423c3d8d5bdf4e9&#45;&gt;dir_2171f7ec022c5423887b07c69b2f5b48 -->
<g id="edge5" class="edge"><title>dir_871aad07cbf94d6cd423c3d8d5bdf4e9&#45;&gt;dir_2171f7ec022c5423887b07c69b2f5b48</title>
<path fill="none" stroke="black" d="M303.93,-287.871C306.657,-263.67 311.666,-219.211 314.913,-190.393"/>
<polygon fill="black" stroke="black" points="318.421,-190.518 316.063,-180.189 311.465,-189.734 318.421,-190.518"/>
<g id="a_edge5&#45;headlabel"><a xlink:href="dir_000096_000043.html" target="_top" xlink:title="18">
<text text-anchor="middle" x="320.84" y="-191.908" font-family="Helvetica,sans-Serif" font-size="10.00">18</text>
</a>
</g>
</g>
<!-- dir_f39d1cd569ca2d16022b762a0e4a53c8 -->
<g id="node4" class="node"><title>dir_f39d1cd569ca2d16022b762a0e4a53c8</title>
<g id="a_node4"><a xlink:href="dir_f39d1cd569ca2d16022b762a0e4a53c8.html" target="_top" xlink:title="MFT">
<polygon fill="white" stroke="red" points="237,-324 183,-324 183,-288 237,-288 237,-324"/>
<text text-anchor="middle" x="210" y="-303.5" font-family="Helvetica,sans-Serif" font-size="10.00">MFT</text>
</a>
</g>
</g>
<!-- dir_f39d1cd569ca2d16022b762a0e4a53c8&#45;&gt;dir_85bf31a2e8d306e7598ffcb73f8df6bf -->
<g id="edge8" class="edge"><title>dir_f39d1cd569ca2d16022b762a0e4a53c8&#45;&gt;dir_85bf31a2e8d306e7598ffcb73f8df6bf</title>
<path fill="none" stroke="black" d="M215.438,-287.697C217.889,-279.898 220.84,-270.509 223.568,-261.829"/>
<polygon fill="black" stroke="black" points="226.965,-262.694 226.624,-252.104 220.287,-260.595 226.965,-262.694"/>
<g id="a_edge8&#45;headlabel"><a xlink:href="dir_000081_000137.html" target="_top" xlink:title="22">
<text text-anchor="middle" x="228.596" y="-264.474" font-family="Helvetica,sans-Serif" font-size="10.00">22</text>
</a>
</g>
</g>
<!-- dir_f39d1cd569ca2d16022b762a0e4a53c8&#45;&gt;dir_4ab6b4cc6a7edbff49100e9123df213f -->
<g id="edge6" class="edge"><title>dir_f39d1cd569ca2d16022b762a0e4a53c8&#45;&gt;dir_4ab6b4cc6a7edbff49100e9123df213f</title>
<path fill="none" stroke="black" d="M188.733,-287.701C178.891,-278.305 168.237,-265.798 163,-252 145.968,-207.123 149.496,-190.061 163,-144 165.801,-134.447 170.911,-124.984 176.333,-116.756"/>
<polygon fill="black" stroke="black" points="179.346,-118.557 182.245,-108.366 173.624,-114.525 179.346,-118.557"/>
<g id="a_edge6&#45;headlabel"><a xlink:href="dir_000081_000016.html" target="_top" xlink:title="4">
<text text-anchor="middle" x="179.597" y="-120.631" font-family="Helvetica,sans-Serif" font-size="10.00">4</text>
</a>
</g>
</g>
<!-- dir_f39d1cd569ca2d16022b762a0e4a53c8&#45;&gt;dir_37c90836491b695b472bf98d1be8336b -->
<g id="edge7" class="edge"><title>dir_f39d1cd569ca2d16022b762a0e4a53c8&#45;&gt;dir_37c90836491b695b472bf98d1be8336b</title>
<path fill="none" stroke="black" d="M237.25,-296.374C246.359,-293.586 256.587,-290.556 266,-288 332.164,-270.034 373.553,-305.84 416,-252 468.009,-186.031 387.442,-88.4401 343.488,-43.4039"/>
<polygon fill="black" stroke="black" points="345.792,-40.757 336.26,-36.1317 340.827,-45.6916 345.792,-40.757"/>
<g id="a_edge7&#45;headlabel"><a xlink:href="dir_000081_000073.html" target="_top" xlink:title="9">
<text text-anchor="middle" x="350.34" y="-38.8049" font-family="Helvetica,sans-Serif" font-size="10.00">9</text>
</a>
</g>
</g>
<!-- dir_f01815b857f9009bea48e2cb39492245 -->
<g id="node9" class="node"><title>dir_f01815b857f9009bea48e2cb39492245</title>
<g id="a_node9"><a xlink:href="dir_f01815b857f9009bea48e2cb39492245.html" target="_top" xlink:title="Passive">
<polygon fill="none" stroke="red" points="54,-180 0,-180 0,-144 54,-144 54,-180"/>
<text text-anchor="middle" x="27" y="-159.5" font-family="Helvetica,sans-Serif" font-size="10.00">Passive</text>
</a>
</g>
</g>
<!-- dir_f39d1cd569ca2d16022b762a0e4a53c8&#45;&gt;dir_f01815b857f9009bea48e2cb39492245 -->
<g id="edge9" class="edge"><title>dir_f39d1cd569ca2d16022b762a0e4a53c8&#45;&gt;dir_f01815b857f9009bea48e2cb39492245</title>
<path fill="none" stroke="black" d="M182.766,-289.713C165.671,-279.711 143.449,-265.95 125,-252 98.2966,-231.808 70.2531,-205.78 51.04,-187.094"/>
<polygon fill="black" stroke="black" points="53.4698,-184.575 43.8794,-180.072 48.5686,-189.573 53.4698,-184.575"/>
<g id="a_edge9&#45;headlabel"><a xlink:href="dir_000081_000197.html" target="_top" xlink:title="1">
<text text-anchor="middle" x="58.0242" y="-182.565" font-family="Helvetica,sans-Serif" font-size="10.00">1</text>
</a>
</g>
</g>
<!-- dir_f39d1cd569ca2d16022b762a0e4a53c8&#45;&gt;dir_2171f7ec022c5423887b07c69b2f5b48 -->
<g id="edge10" class="edge"><title>dir_f39d1cd569ca2d16022b762a0e4a53c8&#45;&gt;dir_2171f7ec022c5423887b07c69b2f5b48</title>
<path fill="none" stroke="black" d="M231.969,-287.823C243.545,-278.094 257.482,-265.246 268,-252 283.486,-232.499 297.035,-207.594 306.108,-189.091"/>
<polygon fill="black" stroke="black" points="309.27,-190.593 310.431,-180.062 302.956,-187.57 309.27,-190.593"/>
<g id="a_edge10&#45;headlabel"><a xlink:href="dir_000081_000043.html" target="_top" xlink:title="5">
<text text-anchor="middle" x="310.278" y="-192.561" font-family="Helvetica,sans-Serif" font-size="10.00">5</text>
</a>
</g>
</g>
<!-- dir_8a13aabf51651f1b5f53d57129f566b6 -->
<g id="node5" class="node"><title>dir_8a13aabf51651f1b5f53d57129f566b6</title>
<g id="a_node5"><a xlink:href="dir_8a13aabf51651f1b5f53d57129f566b6.html" target="_top" xlink:title="test">
<polygon fill="white" stroke="red" points="257,-396 203,-396 203,-360 257,-360 257,-396"/>
<text text-anchor="middle" x="230" y="-375.5" font-family="Helvetica,sans-Serif" font-size="10.00">test</text>
</a>
</g>
</g>
<!-- dir_8a13aabf51651f1b5f53d57129f566b6&#45;&gt;dir_85bf31a2e8d306e7598ffcb73f8df6bf -->
<g id="edge22" class="edge"><title>dir_8a13aabf51651f1b5f53d57129f566b6&#45;&gt;dir_85bf31a2e8d306e7598ffcb73f8df6bf</title>
<path fill="none" stroke="black" d="M236.652,-359.628C240.203,-349.421 244.203,-336.171 246,-324 248.337,-308.172 248.06,-303.867 246,-288 244.897,-279.506 242.839,-270.434 240.634,-262.24"/>
<polygon fill="black" stroke="black" points="243.945,-261.087 237.824,-252.44 237.216,-263.017 243.945,-261.087"/>
<g id="a_edge22&#45;headlabel"><a xlink:href="dir_000192_000137.html" target="_top" xlink:title="4">
<text text-anchor="middle" x="247.665" y="-261.26" font-family="Helvetica,sans-Serif" font-size="10.00">4</text>
</a>
</g>
</g>
<!-- dir_8a13aabf51651f1b5f53d57129f566b6&#45;&gt;dir_871aad07cbf94d6cd423c3d8d5bdf4e9 -->
<g id="edge19" class="edge"><title>dir_8a13aabf51651f1b5f53d57129f566b6&#45;&gt;dir_871aad07cbf94d6cd423c3d8d5bdf4e9</title>
<path fill="none" stroke="black" d="M247.798,-359.697C256.604,-351.135 267.382,-340.656 277.001,-331.304"/>
<polygon fill="black" stroke="black" points="279.677,-333.585 284.407,-324.104 274.797,-328.566 279.677,-333.585"/>
<g id="a_edge19&#45;headlabel"><a xlink:href="dir_000192_000096.html" target="_top" xlink:title="1">
<text text-anchor="middle" x="279.079" y="-335.626" font-family="Helvetica,sans-Serif" font-size="10.00">1</text>
</a>
</g>
</g>
<!-- dir_8a13aabf51651f1b5f53d57129f566b6&#45;&gt;dir_4ab6b4cc6a7edbff49100e9123df213f -->
<g id="edge20" class="edge"><title>dir_8a13aabf51651f1b5f53d57129f566b6&#45;&gt;dir_4ab6b4cc6a7edbff49100e9123df213f</title>
<path fill="none" stroke="black" d="M207.386,-359.868C196.084,-350.34 182.946,-337.663 174,-324 155.363,-295.536 153.866,-285.513 148,-252 139.723,-204.711 132.167,-188.573 150,-144 154.154,-133.617 161.288,-123.922 168.76,-115.738"/>
<polygon fill="black" stroke="black" points="171.461,-117.981 175.941,-108.38 166.452,-113.092 171.461,-117.981"/>
<g id="a_edge20&#45;headlabel"><a xlink:href="dir_000192_000016.html" target="_top" xlink:title="1">
<text text-anchor="middle" x="170.982" y="-120.037" font-family="Helvetica,sans-Serif" font-size="10.00">1</text>
</a>
</g>
</g>
<!-- dir_8a13aabf51651f1b5f53d57129f566b6&#45;&gt;dir_37c90836491b695b472bf98d1be8336b -->
<g id="edge21" class="edge"><title>dir_8a13aabf51651f1b5f53d57129f566b6&#45;&gt;dir_37c90836491b695b472bf98d1be8336b</title>
<path fill="none" stroke="black" d="M257.118,-364.172C260.114,-362.762 263.121,-361.349 266,-360 385.383,-304.075 535,-366.833 535,-235 535,-235 535,-235 535,-161 535,-76.0914 417.235,-39.2207 355.215,-25.6905"/>
<polygon fill="black" stroke="black" points="355.548,-22.1848 345.044,-23.5718 354.12,-29.0377 355.548,-22.1848"/>
<g id="a_edge21&#45;headlabel"><a xlink:href="dir_000192_000073.html" target="_top" xlink:title="1">
<text text-anchor="middle" x="359.646" y="-17.6382" font-family="Helvetica,sans-Serif" font-size="10.00">1</text>
</a>
</g>
</g>
<!-- dir_4ab6b4cc6a7edbff49100e9123df213f&#45;&gt;dir_37c90836491b695b472bf98d1be8336b -->
<g id="edge11" class="edge"><title>dir_4ab6b4cc6a7edbff49100e9123df213f&#45;&gt;dir_37c90836491b695b472bf98d1be8336b</title>
<path fill="none" stroke="black" d="M220.703,-71.8761C238.18,-61.114 262.1,-47.2696 281.912,-36.4468"/>
<polygon fill="black" stroke="black" points="283.835,-39.3857 290.973,-31.5563 280.511,-33.2255 283.835,-39.3857"/>
<g id="a_edge11&#45;headlabel"><a xlink:href="dir_000016_000073.html" target="_top" xlink:title="1">
<text text-anchor="middle" x="282.021" y="-41.0915" font-family="Helvetica,sans-Serif" font-size="10.00">1</text>
</a>
</g>
</g>
<!-- dir_a597e8e061b11201a1dff411feb10d0b&#45;&gt;dir_4ab6b4cc6a7edbff49100e9123df213f -->
<g id="edge12" class="edge"><title>dir_a597e8e061b11201a1dff411feb10d0b&#45;&gt;dir_4ab6b4cc6a7edbff49100e9123df213f</title>
<path fill="none" stroke="black" d="M381.798,-215.705C382.856,-195.953 381.404,-163.817 364,-144 331.524,-107.023 273.396,-95.6156 235.01,-92.2271"/>
<polygon fill="black" stroke="black" points="234.975,-88.7151 224.745,-91.4695 234.46,-95.6961 234.975,-88.7151"/>
<g id="a_edge12&#45;headlabel"><a xlink:href="dir_000085_000016.html" target="_top" xlink:title="6">
<text text-anchor="middle" x="238.769" y="-83.648" font-family="Helvetica,sans-Serif" font-size="10.00">6</text>
</a>
</g>
</g>
<!-- dir_a597e8e061b11201a1dff411feb10d0b&#45;&gt;dir_37c90836491b695b472bf98d1be8336b -->
<g id="edge13" class="edge"><title>dir_a597e8e061b11201a1dff411feb10d0b&#45;&gt;dir_37c90836491b695b472bf98d1be8336b</title>
<path fill="none" stroke="black" d="M384.264,-215.983C388.089,-197.856 392.223,-168.464 386,-144 376.507,-106.684 353.368,-68.4723 336.717,-44.2874"/>
<polygon fill="black" stroke="black" points="339.531,-42.2037 330.914,-36.0395 333.806,-46.2319 339.531,-42.2037"/>
<g id="a_edge13&#45;headlabel"><a xlink:href="dir_000085_000073.html" target="_top" xlink:title="8">
<text text-anchor="middle" x="343.921" y="-41.0097" font-family="Helvetica,sans-Serif" font-size="10.00">8</text>
</a>
</g>
</g>
<!-- dir_a597e8e061b11201a1dff411feb10d0b&#45;&gt;dir_2171f7ec022c5423887b07c69b2f5b48 -->
<g id="edge14" class="edge"><title>dir_a597e8e061b11201a1dff411feb10d0b&#45;&gt;dir_2171f7ec022c5423887b07c69b2f5b48</title>
<path fill="none" stroke="black" d="M358.758,-215.697C350.544,-207.389 341.39,-197.277 333.761,-188.141"/>
<polygon fill="black" stroke="black" points="336.267,-185.674 327.255,-180.104 330.827,-190.079 336.267,-185.674"/>
<g id="a_edge14&#45;headlabel"><a xlink:href="dir_000085_000043.html" target="_top" xlink:title="40">
<text text-anchor="middle" x="340.736" y="-184.181" font-family="Helvetica,sans-Serif" font-size="10.00">40</text>
</a>
</g>
</g>
<!-- dir_37c90836491b695b472bf98d1be8336b&#45;&gt;dir_4ab6b4cc6a7edbff49100e9123df213f -->
<g id="edge15" class="edge"><title>dir_37c90836491b695b472bf98d1be8336b&#45;&gt;dir_4ab6b4cc6a7edbff49100e9123df213f</title>
<path fill="none" stroke="black" d="M294.106,-36.2416C276.784,-46.9021 253.203,-60.5528 233.556,-71.2979"/>
<polygon fill="black" stroke="black" points="231.691,-68.3273 224.557,-76.1609 235.019,-74.4855 231.691,-68.3273"/>
<g id="a_edge15&#45;headlabel"><a xlink:href="dir_000073_000016.html" target="_top" xlink:title="8">
<text text-anchor="middle" x="233.503" y="-61.6204" font-family="Helvetica,sans-Serif" font-size="10.00">8</text>
</a>
</g>
</g>
<!-- dir_f01815b857f9009bea48e2cb39492245&#45;&gt;dir_4ab6b4cc6a7edbff49100e9123df213f -->
<g id="edge23" class="edge"><title>dir_f01815b857f9009bea48e2cb39492245&#45;&gt;dir_4ab6b4cc6a7edbff49100e9123df213f</title>
<path fill="none" stroke="black" d="M54.342,-149.649C58.9019,-147.76 63.5839,-145.823 68,-144 98.9591,-131.222 134.125,-116.778 159.913,-106.2"/>
<polygon fill="black" stroke="black" points="161.385,-109.38 169.309,-102.347 158.729,-102.903 161.385,-109.38"/>
<g id="a_edge23&#45;headlabel"><a xlink:href="dir_000197_000016.html" target="_top" xlink:title="1">
<text text-anchor="middle" x="159.136" y="-110.87" font-family="Helvetica,sans-Serif" font-size="10.00">1</text>
</a>
</g>
</g>
<!-- dir_f01815b857f9009bea48e2cb39492245&#45;&gt;dir_37c90836491b695b472bf98d1be8336b -->
<g id="edge24" class="edge"><title>dir_f01815b857f9009bea48e2cb39492245&#45;&gt;dir_37c90836491b695b472bf98d1be8336b</title>
<path fill="none" stroke="black" d="M48.4924,-143.977C73.9207,-124.48 118.108,-92.5832 160,-72 199.6,-52.5434 248.086,-37.4602 280.821,-28.4441"/>
<polygon fill="black" stroke="black" points="282.123,-31.718 290.864,-25.7321 280.298,-24.9601 282.123,-31.718"/>
<g id="a_edge24&#45;headlabel"><a xlink:href="dir_000197_000073.html" target="_top" xlink:title="16">
<text text-anchor="middle" x="279.392" y="-32.8961" font-family="Helvetica,sans-Serif" font-size="10.00">16</text>
</a>
</g>
</g>
<!-- dir_2171f7ec022c5423887b07c69b2f5b48&#45;&gt;dir_4ab6b4cc6a7edbff49100e9123df213f -->
<g id="edge25" class="edge"><title>dir_2171f7ec022c5423887b07c69b2f5b48&#45;&gt;dir_4ab6b4cc6a7edbff49100e9123df213f</title>
<path fill="none" stroke="black" d="M288.4,-143.876C271.837,-134.294 251.05,-122.269 233.487,-112.108"/>
<polygon fill="black" stroke="black" points="235.044,-108.965 224.635,-106.987 231.539,-115.025 235.044,-108.965"/>
<g id="a_edge25&#45;headlabel"><a xlink:href="dir_000043_000016.html" target="_top" xlink:title="4">
<text text-anchor="middle" x="239.577" y="-105.808" font-family="Helvetica,sans-Serif" font-size="10.00">4</text>
</a>
</g>
</g>
<!-- dir_2171f7ec022c5423887b07c69b2f5b48&#45;&gt;dir_a597e8e061b11201a1dff411feb10d0b -->
<g id="edge26" class="edge"><title>dir_2171f7ec022c5423887b07c69b2f5b48&#45;&gt;dir_a597e8e061b11201a1dff411feb10d0b</title>
<path fill="none" stroke="black" d="M339.045,-180.104C347.328,-188.467 356.589,-198.694 364.289,-207.92"/>
<polygon fill="black" stroke="black" points="361.575,-210.13 370.59,-215.697 367.014,-205.723 361.575,-210.13"/>
<g id="a_edge26&#45;headlabel"><a xlink:href="dir_000043_000085.html" target="_top" xlink:title="2">
<text text-anchor="middle" x="357.106" y="-206.624" font-family="Helvetica,sans-Serif" font-size="10.00">2</text>
</a>
</g>
</g>
<!-- dir_2171f7ec022c5423887b07c69b2f5b48&#45;&gt;dir_37c90836491b695b472bf98d1be8336b -->
<g id="edge27" class="edge"><title>dir_2171f7ec022c5423887b07c69b2f5b48&#45;&gt;dir_37c90836491b695b472bf98d1be8336b</title>
<path fill="none" stroke="black" d="M318,-143.871C318,-119.67 318,-75.2108 318,-46.3932"/>
<polygon fill="black" stroke="black" points="321.5,-46.1892 318,-36.1893 314.5,-46.1893 321.5,-46.1892"/>
<g id="a_edge27&#45;headlabel"><a xlink:href="dir_000043_000073.html" target="_top" xlink:title="6">
<text text-anchor="middle" x="324.339" y="-47.2839" font-family="Helvetica,sans-Serif" font-size="10.00">6</text>
</a>
</g>
</g>
</g>
</svg>
        <g id="navigator" transform="translate(0 0)" fill="#404254">
                <rect fill="#f2f5e9" fill-opacity="0.5" stroke="#606060" stroke-width=".5" x="0" y="0" width="60" height="60"/>
                <use id="zoomplus" xlink:href="#zoomPlus" x="17" y="9" onmousedown="handleZoom(evt,'in')"/>
                <use id="zoomminus" xlink:href="#zoomMin" x="42" y="9" onmousedown="handleZoom(evt,'out')"/>
                <use id="reset" xlink:href="#resetDef" x="30" y="36" onmousedown="handleReset()"/>
                <g id="arrowUp" xlink:href="#dirArrow" transform="translate(30 24)" onmousedown="handlePan(0,-1)">
                  <use xlink:href="#rim" fill="#404040">
                        <set attributeName="fill" to="#808080" begin="arrowUp.mouseover" end="arrowUp.mouseout"/>
                  </use>
                  <path fill="none" stroke="white" stroke-width="1.5" d="M0,-3.0v7 M-2.5,-0.5L0,-3.0L2.5,-0.5"/>
                </g>
                <g id="arrowRight" xlink:href="#dirArrow" transform="rotate(90) translate(36 -43)" onmousedown="handlePan(1,0)">
                  <use xlink:href="#rim" fill="#404040">
                        <set attributeName="fill" to="#808080" begin="arrowRight.mouseover" end="arrowRight.mouseout"/>
                  </use>
                  <path fill="none" stroke="white" stroke-width="1.5" d="M0,-3.0v7 M-2.5,-0.5L0,-3.0L2.5,-0.5"/>
                </g>
                <g id="arrowDown" xlink:href="#dirArrow" transform="rotate(180) translate(-30 -48)" onmousedown="handlePan(0,1)">
                  <use xlink:href="#rim" fill="#404040">
                        <set attributeName="fill" to="#808080" begin="arrowDown.mouseover" end="arrowDown.mouseout"/>
                  </use>
                  <path fill="none" stroke="white" stroke-width="1.5" d="M0,-3.0v7 M-2.5,-0.5L0,-3.0L2.5,-0.5"/>
                </g>
                <g id="arrowLeft" xlink:href="#dirArrow" transform="rotate(270) translate(-36 17)" onmousedown="handlePan(-1,0)">
                  <use xlink:href="#rim" fill="#404040">
                        <set attributeName="fill" to="#808080" begin="arrowLeft.mouseover" end="arrowLeft.mouseout"/>
                  </use>
                  <path fill="none" stroke="white" stroke-width="1.5" d="M0,-3.0v7 M-2.5,-0.5L0,-3.0L2.5,-0.5"/>
                </g>
        </g>
        <svg viewBox="0 0 15 15" width="100%" height="30px" preserveAspectRatio="xMaxYMin meet">
         <g id="arrow_out" transform="scale(0.3 0.3)">
          <a xlink:href="dir_1306292b77b40360479b729ac9ee7efe_dep_org.svg" target="_base">
           <rect id="button" ry="5" rx="5" y="6" x="6" height="38" width="38"
                fill="#f2f5e9" fill-opacity="0.5" stroke="#606060" stroke-width="1.0"/>
           <path id="arrow"
             d="M 11.500037,31.436501 C 11.940474,20.09759 22.043105,11.32322 32.158766,21.979434 L 37.068811,17.246167 C 37.068811,17.246167 37.088388,32 37.088388,32 L 22.160133,31.978069 C 22.160133,31.978069 26.997745,27.140456 26.997745,27.140456 C 18.528582,18.264221 13.291696,25.230495 11.500037,31.436501 z"
             style="fill:#404040;"/>
          </a>
         </g>
        </svg>
</svg>
