<?xml version="1.0" encoding="UTF-8" standalone="no"?>
<!DOCTYPE svg PUBLIC "-//W3C//DTD SVG 1.1//EN"
 "http://www.w3.org/Graphics/SVG/1.1/DTD/svg11.dtd">
<!-- Generated by graphviz version 2.36.0 (20140111.2315)
 -->
<!-- Title: /home/travis/build/AliceO2Group/AliceO2/Detectors/ITSMFT/test Pages: 1 -->
<svg width="205pt" height="375pt"
 viewBox="0.00 0.00 204.54 375.00" xmlns="http://www.w3.org/2000/svg" xmlns:xlink="http://www.w3.org/1999/xlink">
<g id="graph0" class="graph" transform="scale(1 1) rotate(0) translate(4 371)">
<title>/home/travis/build/AliceO2Group/AliceO2/Detectors/ITSMFT/test</title>
<g id="clust1" class="cluster"><title>clusterdir_1306292b77b40360479b729ac9ee7efe</title>
<g id="a_clust1"><a xlink:href="dir_1306292b77b40360479b729ac9ee7efe.html" target="_top" xlink:title="ITSMFT">
<polygon fill="#ddddee" stroke="black" points="16.5357,-272 16.5357,-359 188.536,-359 188.536,-272 16.5357,-272"/>
<text text-anchor="middle" x="102.536" y="-347" font-family="Helvetica,sans-Serif" font-size="10.00">ITSMFT</text>
</a>
</g>
</g>
<g id="clust2" class="cluster"><title>clusterdir_8a13aabf51651f1b5f53d57129f566b6</title>
<g id="a_clust2"><a xlink:href="dir_8a13aabf51651f1b5f53d57129f566b6.html" target="_top">
<polygon fill="#eeeeff" stroke="black" points="24.5357,-280 24.5357,-332 180.536,-332 180.536,-280 24.5357,-280"/>
</a>
</g>
</g>
<!-- dir_8a13aabf51651f1b5f53d57129f566b6 -->
<g id="node1" class="node"><title>dir_8a13aabf51651f1b5f53d57129f566b6</title>
<text text-anchor="middle" x="145.536" y="-303.5" font-family="Helvetica,sans-Serif" font-size="10.00">test</text>
</g>
<!-- dir_04efe6227c275c48803e66c564837fd2 -->
<g id="node2" class="node"><title>dir_04efe6227c275c48803e66c564837fd2</title>
<g id="a_node2"><a xlink:href="dir_04efe6227c275c48803e66c564837fd2.html" target="_top" xlink:title="HitAnalysis">
<polygon fill="white" stroke="red" points="99.7857,-324 33.2857,-324 33.2857,-288 99.7857,-288 99.7857,-324"/>
<text text-anchor="middle" x="66.5357" y="-303.5" font-family="Helvetica,sans-Serif" font-size="10.00">HitAnalysis</text>
</a>
</g>
</g>
<!-- dir_871aad07cbf94d6cd423c3d8d5bdf4e9 -->
<g id="node3" class="node"><title>dir_871aad07cbf94d6cd423c3d8d5bdf4e9</title>
<g id="a_node3"><a xlink:href="dir_871aad07cbf94d6cd423c3d8d5bdf4e9.html" target="_top" xlink:title="ITS">
<polygon fill="none" stroke="red" points="66.5357,-252 12.5357,-252 12.5357,-216 66.5357,-216 66.5357,-252"/>
<text text-anchor="middle" x="39.5357" y="-231.5" font-family="Helvetica,sans-Serif" font-size="10.00">ITS</text>
</a>
</g>
</g>
<!-- dir_04efe6227c275c48803e66c564837fd2&#45;&gt;dir_871aad07cbf94d6cd423c3d8d5bdf4e9 -->
<g id="edge8" class="edge"><title>dir_04efe6227c275c48803e66c564837fd2&#45;&gt;dir_871aad07cbf94d6cd423c3d8d5bdf4e9</title>
<path fill="none" stroke="black" d="M59.8615,-287.697C56.8208,-279.813 53.153,-270.304 49.775,-261.546"/>
<polygon fill="black" stroke="black" points="52.9974,-260.175 46.1331,-252.104 46.4664,-262.694 52.9974,-260.175"/>
<g id="a_edge8&#45;headlabel"><a xlink:href="dir_000193_000096.html" target="_top" xlink:title="1">
<text text-anchor="middle" x="56.94" y="-260.007" font-family="Helvetica,sans-Serif" font-size="10.00">1</text>
</a>
</g>
</g>
<!-- dir_4ab6b4cc6a7edbff49100e9123df213f -->
<g id="node4" class="node"><title>dir_4ab6b4cc6a7edbff49100e9123df213f</title>
<g id="a_node4"><a xlink:href="dir_4ab6b4cc6a7edbff49100e9123df213f.html" target="_top" xlink:title="Common">
<polygon fill="none" stroke="red" points="111.036,-108 56.0357,-108 56.0357,-72 111.036,-72 111.036,-108"/>
<text text-anchor="middle" x="83.5357" y="-87.5" font-family="Helvetica,sans-Serif" font-size="10.00">Common</text>
</a>
</g>
</g>
<!-- dir_04efe6227c275c48803e66c564837fd2&#45;&gt;dir_4ab6b4cc6a7edbff49100e9123df213f -->
<g id="edge9" class="edge"><title>dir_04efe6227c275c48803e66c564837fd2&#45;&gt;dir_4ab6b4cc6a7edbff49100e9123df213f</title>
<path fill="none" stroke="black" d="M69.9716,-287.886C71.9164,-277.54 74.2167,-264.061 75.5357,-252 80.625,-205.463 82.479,-151.002 83.1529,-118.841"/>
<polygon fill="black" stroke="black" points="86.6596,-118.509 83.3454,-108.446 79.6608,-118.379 86.6596,-118.509"/>
<g id="a_edge9&#45;headlabel"><a xlink:href="dir_000193_000016.html" target="_top" xlink:title="1">
<text text-anchor="middle" x="89.4319" y="-119.655" font-family="Helvetica,sans-Serif" font-size="10.00">1</text>
</a>
</g>
</g>
<!-- dir_37c90836491b695b472bf98d1be8336b -->
<g id="node5" class="node"><title>dir_37c90836491b695b472bf98d1be8336b</title>
<g id="a_node5"><a xlink:href="dir_37c90836491b695b472bf98d1be8336b.html" target="_top" xlink:title="Base">
<polygon fill="none" stroke="red" points="110.536,-36 56.5357,-36 56.5357,-0 110.536,-0 110.536,-36"/>
<text text-anchor="middle" x="83.5357" y="-15.5" font-family="Helvetica,sans-Serif" font-size="10.00">Base</text>
</a>
</g>
</g>
<!-- dir_04efe6227c275c48803e66c564837fd2&#45;&gt;dir_37c90836491b695b472bf98d1be8336b -->
<g id="edge10" class="edge"><title>dir_04efe6227c275c48803e66c564837fd2&#45;&gt;dir_37c90836491b695b472bf98d1be8336b</title>
<path fill="none" stroke="black" d="M36.2359,-287.805C23.6578,-278.898 10.4125,-266.772 3.53569,-252 -3.21698,-237.495 1.84253,-231.91 3.53569,-216 10.4635,-150.901 4.35574,-130.095 34.5357,-72 39.9317,-61.613 47.9134,-51.7499 55.8755,-43.4113"/>
<polygon fill="black" stroke="black" points="58.4905,-45.7466 63.1074,-36.2106 53.5515,-40.7861 58.4905,-45.7466"/>
<g id="a_edge10&#45;headlabel"><a xlink:href="dir_000193_000073.html" target="_top" xlink:title="1">
<text text-anchor="middle" x="57.9466" y="-47.7948" font-family="Helvetica,sans-Serif" font-size="10.00">1</text>
</a>
</g>
</g>
<!-- dir_85bf31a2e8d306e7598ffcb73f8df6bf -->
<g id="node6" class="node"><title>dir_85bf31a2e8d306e7598ffcb73f8df6bf</title>
<g id="a_node6"><a xlink:href="dir_85bf31a2e8d306e7598ffcb73f8df6bf.html" target="_top" xlink:title="common">
<polygon fill="none" stroke="red" points="176.536,-180 122.536,-180 122.536,-144 176.536,-144 176.536,-180"/>
<text text-anchor="middle" x="149.536" y="-159.5" font-family="Helvetica,sans-Serif" font-size="10.00">common</text>
</a>
</g>
</g>
<!-- dir_04efe6227c275c48803e66c564837fd2&#45;&gt;dir_85bf31a2e8d306e7598ffcb73f8df6bf -->
<g id="edge11" class="edge"><title>dir_04efe6227c275c48803e66c564837fd2&#45;&gt;dir_85bf31a2e8d306e7598ffcb73f8df6bf</title>
<path fill="none" stroke="black" d="M82.0374,-287.63C90.4968,-277.64 100.792,-264.604 108.536,-252 120.858,-231.942 131.838,-207.565 139.327,-189.398"/>
<polygon fill="black" stroke="black" points="142.619,-190.594 143.115,-180.011 136.127,-187.975 142.619,-190.594"/>
<g id="a_edge11&#45;headlabel"><a xlink:href="dir_000193_000137.html" target="_top" xlink:title="4">
<text text-anchor="middle" x="143.907" y="-192.49" font-family="Helvetica,sans-Serif" font-size="10.00">4</text>
</a>
</g>
</g>
<!-- dir_871aad07cbf94d6cd423c3d8d5bdf4e9&#45;&gt;dir_4ab6b4cc6a7edbff49100e9123df213f -->
<g id="edge1" class="edge"><title>dir_871aad07cbf94d6cd423c3d8d5bdf4e9&#45;&gt;dir_4ab6b4cc6a7edbff49100e9123df213f</title>
<path fill="none" stroke="black" d="M44.8431,-215.871C52.3751,-191.564 66.2398,-146.819 75.1654,-118.013"/>
<polygon fill="black" stroke="black" points="78.5928,-118.777 78.2094,-108.189 71.9064,-116.705 78.5928,-118.777"/>
<g id="a_edge1&#45;headlabel"><a xlink:href="dir_000096_000016.html" target="_top" xlink:title="9">
<text text-anchor="middle" x="80.241" y="-120.551" font-family="Helvetica,sans-Serif" font-size="10.00">9</text>
</a>
</g>
</g>
<!-- dir_871aad07cbf94d6cd423c3d8d5bdf4e9&#45;&gt;dir_37c90836491b695b472bf98d1be8336b -->
<g id="edge2" class="edge"><title>dir_871aad07cbf94d6cd423c3d8d5bdf4e9&#45;&gt;dir_37c90836491b695b472bf98d1be8336b</title>
<path fill="none" stroke="black" d="M37.2386,-215.981C33.8442,-185.971 29.5784,-122.085 46.5357,-72 49.8476,-62.2179 55.5601,-52.6195 61.5191,-44.3368"/>
<polygon fill="black" stroke="black" points="64.4267,-46.2966 67.728,-36.2292 58.8691,-42.0406 64.4267,-46.2966"/>
<g id="a_edge2&#45;headlabel"><a xlink:href="dir_000096_000073.html" target="_top" xlink:title="23">
<text text-anchor="middle" x="64.4954" y="-48.3768" font-family="Helvetica,sans-Serif" font-size="10.00">23</text>
</a>
</g>
</g>
<!-- dir_871aad07cbf94d6cd423c3d8d5bdf4e9&#45;&gt;dir_85bf31a2e8d306e7598ffcb73f8df6bf -->
<g id="edge3" class="edge"><title>dir_871aad07cbf94d6cd423c3d8d5bdf4e9&#45;&gt;dir_85bf31a2e8d306e7598ffcb73f8df6bf</title>
<path fill="none" stroke="black" d="M66.4447,-215.876C80.694,-206.808 98.382,-195.552 113.771,-185.759"/>
<polygon fill="black" stroke="black" points="115.966,-188.511 122.523,-180.19 112.208,-182.606 115.966,-188.511"/>
<g id="a_edge3&#45;headlabel"><a xlink:href="dir_000096_000137.html" target="_top" xlink:title="34">
<text text-anchor="middle" x="114.457" y="-190.337" font-family="Helvetica,sans-Serif" font-size="10.00">34</text>
</a>
</g>
</g>
<!-- dir_4ab6b4cc6a7edbff49100e9123df213f&#45;&gt;dir_37c90836491b695b472bf98d1be8336b -->
<g id="edge4" class="edge"><title>dir_4ab6b4cc6a7edbff49100e9123df213f&#45;&gt;dir_37c90836491b695b472bf98d1be8336b</title>
<path fill="none" stroke="black" d="M77.62,-71.6966C76.8243,-63.9827 76.5977,-54.7125 76.9404,-46.1124"/>
<polygon fill="black" stroke="black" points="80.4341,-46.3243 77.6407,-36.1043 73.4511,-45.8356 80.4341,-46.3243"/>
<g id="a_edge4&#45;headlabel"><a xlink:href="dir_000016_000073.html" target="_top" xlink:title="1">
<text text-anchor="middle" x="83.0156" y="-47.6083" font-family="Helvetica,sans-Serif" font-size="10.00">1</text>
</a>
</g>
</g>
<!-- dir_37c90836491b695b472bf98d1be8336b&#45;&gt;dir_4ab6b4cc6a7edbff49100e9123df213f -->
<g id="edge5" class="edge"><title>dir_37c90836491b695b472bf98d1be8336b&#45;&gt;dir_4ab6b4cc6a7edbff49100e9123df213f</title>
<path fill="none" stroke="black" d="M89.4307,-36.1043C90.2362,-43.7913 90.4726,-53.0537 90.1397,-61.6651"/>
<polygon fill="black" stroke="black" points="86.6442,-61.4805 89.4514,-71.6966 93.6278,-61.9597 86.6442,-61.4805"/>
<g id="a_edge5&#45;headlabel"><a xlink:href="dir_000073_000016.html" target="_top" xlink:title="8">
<text text-anchor="middle" x="84.0576" y="-55.2" font-family="Helvetica,sans-Serif" font-size="10.00">8</text>
</a>
</g>
</g>
<!-- dir_85bf31a2e8d306e7598ffcb73f8df6bf&#45;&gt;dir_4ab6b4cc6a7edbff49100e9123df213f -->
<g id="edge6" class="edge"><title>dir_85bf31a2e8d306e7598ffcb73f8df6bf&#45;&gt;dir_4ab6b4cc6a7edbff49100e9123df213f</title>
<path fill="none" stroke="black" d="M133.221,-143.697C125.229,-135.22 115.464,-124.864 106.714,-115.583"/>
<polygon fill="black" stroke="black" points="109.069,-112.979 99.6626,-108.104 103.976,-117.781 109.069,-112.979"/>
<g id="a_edge6&#45;headlabel"><a xlink:href="dir_000137_000016.html" target="_top" xlink:title="2">
<text text-anchor="middle" x="113.601" y="-111.147" font-family="Helvetica,sans-Serif" font-size="10.00">2</text>
</a>
</g>
</g>
<!-- dir_85bf31a2e8d306e7598ffcb73f8df6bf&#45;&gt;dir_37c90836491b695b472bf98d1be8336b -->
<g id="edge7" class="edge"><title>dir_85bf31a2e8d306e7598ffcb73f8df6bf&#45;&gt;dir_37c90836491b695b472bf98d1be8336b</title>
<path fill="none" stroke="black" d="M145.215,-143.722C140.286,-125.377 131.356,-95.8049 119.536,-72 114.909,-62.6833 108.859,-53.101 103.043,-44.6903"/>
<polygon fill="black" stroke="black" points="105.792,-42.5178 97.1354,-36.4098 100.094,-46.5832 105.792,-42.5178"/>
<g id="a_edge7&#45;headlabel"><a xlink:href="dir_000137_000073.html" target="_top" xlink:title="2">
<text text-anchor="middle" x="110.191" y="-41.2952" font-family="Helvetica,sans-Serif" font-size="10.00">2</text>
</a>
</g>
</g>
</g>
</svg>
