<?xml version="1.0" encoding="UTF-8" standalone="no"?>
<!DOCTYPE svg PUBLIC "-//W3C//DTD SVG 1.1//EN"
 "http://www.w3.org/Graphics/SVG/1.1/DTD/svg11.dtd">
<!-- Generated by graphviz version 2.36.0 (20140111.2315)
 -->
<!-- Title: /home/travis/build/AliceO2Group/AliceO2/Detectors/ITSMFT/MFT Pages: 1 -->
<!--zoomable 519 -->
<svg id="main" version="1.1" xmlns="http://www.w3.org/2000/svg" xmlns:xlink="http://www.w3.org/1999/xlink" xml:space="preserve" onload="init(evt)">
<style type="text/css"><![CDATA[
.edge:hover path { stroke: red; }
.edge:hover polygon { stroke: red; fill: red; }
]]></style>
<script type="text/javascript"><![CDATA[
var edges = document.getElementsByTagName('g');
if (edges && edges.length) {
  for (var i=0;i<edges.length;i++) {
    if (edges[i].id.substr(0,4)=='edge') {
      edges[i].setAttribute('class','edge');
    }
  }
}
]]></script>
        <defs>
                <circle id="rim" cx="0" cy="0" r="7"/>
                <circle id="rim2" cx="0" cy="0" r="3.5"/>
                <g id="zoomPlus">
                        <use xlink:href="#rim" fill="#404040">
                                <set attributeName="fill" to="#808080" begin="zoomplus.mouseover" end="zoomplus.mouseout"/>
                        </use>
                        <path d="M-4,0h8M0,-4v8" fill="none" stroke="white" stroke-width="1.5" pointer-events="none"/>
                </g>
                <g id="zoomMin">
                        <use xlink:href="#rim" fill="#404040">
                                <set attributeName="fill" to="#808080" begin="zoomminus.mouseover" end="zoomminus.mouseout"/>
                        </use>
                        <path d="M-4,0h8" fill="none" stroke="white" stroke-width="1.5" pointer-events="none"/>
                </g>
                <g id="dirArrow">
                        <path fill="none" stroke="white" stroke-width="1.5" d="M0,-3.0v7 M-2.5,-0.5L0,-3.0L2.5,-0.5"/>
                </g>
               <g id="resetDef">
                       <use xlink:href="#rim2" fill="#404040">
                               <set attributeName="fill" to="#808080" begin="reset.mouseover" end="reset.mouseout"/>
                       </use>
               </g>
        </defs>

<script type="text/javascript">
var viewWidth = 448;
var viewHeight = 519;
var sectionId = 'dynsection-0';
</script>
<script xlink:href="svgpan.js"/>
<svg id="graph" class="graph">
<g id="viewport">
<title>/home/travis/build/AliceO2Group/AliceO2/Detectors/ITSMFT/MFT</title>
<g id="clust1" class="cluster"><title>clusterdir_1306292b77b40360479b729ac9ee7efe</title>
<g id="a_clust1"><a xlink:href="dir_1306292b77b40360479b729ac9ee7efe.html" target="_top" xlink:title="ITSMFT">
<polygon fill="#ddddee" stroke="black" points="140,-200 140,-503 298,-503 298,-200 140,-200"/>
<text text-anchor="middle" x="219" y="-491" font-family="Helvetica,sans-Serif" font-size="10.00">ITSMFT</text>
</a>
</g>
</g>
<g id="clust2" class="cluster"><title>clusterdir_f39d1cd569ca2d16022b762a0e4a53c8</title>
<g id="a_clust2"><a xlink:href="dir_f39d1cd569ca2d16022b762a0e4a53c8.html" target="_top">
<polygon fill="#eeeeff" stroke="black" points="148,-208 148,-476 290,-476 290,-208 148,-208"/>
</a>
</g>
</g>
<!-- dir_f39d1cd569ca2d16022b762a0e4a53c8 -->
<g id="node1" class="node"><title>dir_f39d1cd569ca2d16022b762a0e4a53c8</title>
<text text-anchor="middle" x="255" y="-447.5" font-family="Helvetica,sans-Serif" font-size="10.00">MFT</text>
</g>
<!-- dir_7e732ae97f4f941436b6909b27d4da36 -->
<g id="node2" class="node"><title>dir_7e732ae97f4f941436b6909b27d4da36</title>
<g id="a_node2"><a xlink:href="dir_7e732ae97f4f941436b6909b27d4da36.html" target="_top" xlink:title="base">
<polygon fill="white" stroke="red" points="279,-252 225,-252 225,-216 279,-216 279,-252"/>
<text text-anchor="middle" x="252" y="-231.5" font-family="Helvetica,sans-Serif" font-size="10.00">base</text>
</a>
</g>
</g>
<!-- dir_4ab6b4cc6a7edbff49100e9123df213f -->
<g id="node6" class="node"><title>dir_4ab6b4cc6a7edbff49100e9123df213f</title>
<g id="a_node6"><a xlink:href="dir_4ab6b4cc6a7edbff49100e9123df213f.html" target="_top" xlink:title="Common">
<polygon fill="none" stroke="red" points="262.5,-108 207.5,-108 207.5,-72 262.5,-72 262.5,-108"/>
<text text-anchor="middle" x="235" y="-87.5" font-family="Helvetica,sans-Serif" font-size="10.00">Common</text>
</a>
</g>
</g>
<!-- dir_7e732ae97f4f941436b6909b27d4da36&#45;&gt;dir_4ab6b4cc6a7edbff49100e9123df213f -->
<g id="edge15" class="edge"><title>dir_7e732ae97f4f941436b6909b27d4da36&#45;&gt;dir_4ab6b4cc6a7edbff49100e9123df213f</title>
<path fill="none" stroke="black" d="M249.949,-215.871C247.052,-191.67 241.729,-147.211 238.279,-118.393"/>
<polygon fill="black" stroke="black" points="241.722,-117.702 237.058,-108.189 234.771,-118.534 241.722,-117.702"/>
<g id="a_edge15&#45;headlabel"><a xlink:href="dir_000082_000016.html" target="_top" xlink:title="1">
<text text-anchor="middle" x="244.968" y="-118.434" font-family="Helvetica,sans-Serif" font-size="10.00">1</text>
</a>
</g>
</g>
<!-- dir_37c90836491b695b472bf98d1be8336b -->
<g id="node7" class="node"><title>dir_37c90836491b695b472bf98d1be8336b</title>
<g id="a_node7"><a xlink:href="dir_37c90836491b695b472bf98d1be8336b.html" target="_top" xlink:title="Base">
<polygon fill="none" stroke="red" points="262,-36 208,-36 208,-0 262,-0 262,-36"/>
<text text-anchor="middle" x="235" y="-15.5" font-family="Helvetica,sans-Serif" font-size="10.00">Base</text>
</a>
</g>
</g>
<!-- dir_7e732ae97f4f941436b6909b27d4da36&#45;&gt;dir_37c90836491b695b472bf98d1be8336b -->
<g id="edge16" class="edge"><title>dir_7e732ae97f4f941436b6909b27d4da36&#45;&gt;dir_37c90836491b695b472bf98d1be8336b</title>
<path fill="none" stroke="black" d="M258.602,-215.661C269.015,-185.697 286.553,-122.576 271,-72 267.991,-62.2153 262.493,-52.6161 256.684,-44.3336"/>
<polygon fill="black" stroke="black" points="259.407,-42.1306 250.61,-36.2264 253.805,-46.3279 259.407,-42.1306"/>
<g id="a_edge16&#45;headlabel"><a xlink:href="dir_000082_000073.html" target="_top" xlink:title="4">
<text text-anchor="middle" x="263.835" y="-40.8048" font-family="Helvetica,sans-Serif" font-size="10.00">4</text>
</a>
</g>
</g>
<!-- dir_85bf31a2e8d306e7598ffcb73f8df6bf -->
<g id="node8" class="node"><title>dir_85bf31a2e8d306e7598ffcb73f8df6bf</title>
<g id="a_node8"><a xlink:href="dir_85bf31a2e8d306e7598ffcb73f8df6bf.html" target="_top" xlink:title="common">
<polygon fill="none" stroke="red" points="131,-252 77,-252 77,-216 131,-216 131,-252"/>
<text text-anchor="middle" x="104" y="-231.5" font-family="Helvetica,sans-Serif" font-size="10.00">common</text>
</a>
</g>
</g>
<!-- dir_7e732ae97f4f941436b6909b27d4da36&#45;&gt;dir_85bf31a2e8d306e7598ffcb73f8df6bf -->
<g id="edge17" class="edge"><title>dir_7e732ae97f4f941436b6909b27d4da36&#45;&gt;dir_85bf31a2e8d306e7598ffcb73f8df6bf</title>
<path fill="none" stroke="black" d="M224.625,-234C196.881,-234 169.137,-234 141.393,-234"/>
<polygon fill="black" stroke="black" points="141.172,-230.5 131.172,-234 141.172,-237.5 141.172,-230.5"/>
<g id="a_edge17&#45;headlabel"><a xlink:href="dir_000082_000137.html" target="_top" xlink:title="7">
<text text-anchor="middle" x="144.766" y="-225.161" font-family="Helvetica,sans-Serif" font-size="10.00">7</text>
</a>
</g>
</g>
<!-- dir_5b6015b386f827cc0d1582f414a67114 -->
<g id="node3" class="node"><title>dir_5b6015b386f827cc0d1582f414a67114</title>
<g id="a_node3"><a xlink:href="dir_5b6015b386f827cc0d1582f414a67114.html" target="_top" xlink:title="macros">
<polygon fill="white" stroke="black" points="210,-468 156,-468 156,-432 210,-432 210,-468"/>
<text text-anchor="middle" x="183" y="-447.5" font-family="Helvetica,sans-Serif" font-size="10.00">macros</text>
</a>
</g>
</g>
<!-- dir_3d8e691f27a9a1a3f5b37028248bc44b -->
<g id="node4" class="node"><title>dir_3d8e691f27a9a1a3f5b37028248bc44b</title>
<g id="a_node4"><a xlink:href="dir_3d8e691f27a9a1a3f5b37028248bc44b.html" target="_top" xlink:title="reconstruction">
<polygon fill="white" stroke="red" points="234,-396 156,-396 156,-360 234,-360 234,-396"/>
<text text-anchor="middle" x="195" y="-375.5" font-family="Helvetica,sans-Serif" font-size="10.00">reconstruction</text>
</a>
</g>
</g>
<!-- dir_5b6015b386f827cc0d1582f414a67114&#45;&gt;dir_3d8e691f27a9a1a3f5b37028248bc44b -->
<g id="edge20" class="edge"><title>dir_5b6015b386f827cc0d1582f414a67114&#45;&gt;dir_3d8e691f27a9a1a3f5b37028248bc44b</title>
<path fill="none" stroke="black" d="M185.966,-431.697C187.289,-423.983 188.878,-414.712 190.352,-406.112"/>
<polygon fill="black" stroke="black" points="193.828,-406.552 192.068,-396.104 186.928,-405.369 193.828,-406.552"/>
<g id="a_edge20&#45;headlabel"><a xlink:href="dir_000179_000122.html" target="_top" xlink:title="1">
<text text-anchor="middle" x="196.019" y="-408.075" font-family="Helvetica,sans-Serif" font-size="10.00">1</text>
</a>
</g>
</g>
<!-- dir_a336bf94aab96007822cb34c9e2cb8a5 -->
<g id="node5" class="node"><title>dir_a336bf94aab96007822cb34c9e2cb8a5</title>
<g id="a_node5"><a xlink:href="dir_a336bf94aab96007822cb34c9e2cb8a5.html" target="_top" xlink:title="simulation">
<polygon fill="white" stroke="red" points="227.25,-324 166.75,-324 166.75,-288 227.25,-288 227.25,-324"/>
<text text-anchor="middle" x="197" y="-303.5" font-family="Helvetica,sans-Serif" font-size="10.00">simulation</text>
</a>
</g>
</g>
<!-- dir_5b6015b386f827cc0d1582f414a67114&#45;&gt;dir_a336bf94aab96007822cb34c9e2cb8a5 -->
<g id="edge22" class="edge"><title>dir_5b6015b386f827cc0d1582f414a67114&#45;&gt;dir_a336bf94aab96007822cb34c9e2cb8a5</title>
<path fill="none" stroke="black" d="M210.004,-432.892C222.532,-423.8 236.144,-411.204 243,-396 249.577,-381.414 248.597,-374.989 243,-360 239.124,-349.621 232.197,-339.927 224.876,-331.743"/>
<polygon fill="black" stroke="black" points="227.269,-329.182 217.823,-324.385 222.216,-334.026 227.269,-329.182"/>
<g id="a_edge22&#45;headlabel"><a xlink:href="dir_000179_000100.html" target="_top" xlink:title="2">
<text text-anchor="middle" x="231.806" y="-327.312" font-family="Helvetica,sans-Serif" font-size="10.00">2</text>
</a>
</g>
</g>
<!-- dir_5b6015b386f827cc0d1582f414a67114&#45;&gt;dir_4ab6b4cc6a7edbff49100e9123df213f -->
<g id="edge21" class="edge"><title>dir_5b6015b386f827cc0d1582f414a67114&#45;&gt;dir_4ab6b4cc6a7edbff49100e9123df213f</title>
<path fill="none" stroke="black" d="M210.139,-433.862C224.292,-424.652 240.745,-411.649 251,-396 287.219,-340.732 279.712,-317.557 288,-252 290.899,-229.071 293.185,-222.522 288,-200 281.05,-169.813 264.567,-138.299 251.813,-116.967"/>
<polygon fill="black" stroke="black" points="254.65,-114.898 246.439,-108.203 248.682,-118.557 254.65,-114.898"/>
<g id="a_edge21&#45;headlabel"><a xlink:href="dir_000179_000016.html" target="_top" xlink:title="2">
<text text-anchor="middle" x="258.949" y="-113.978" font-family="Helvetica,sans-Serif" font-size="10.00">2</text>
</a>
</g>
</g>
<!-- dir_5b6015b386f827cc0d1582f414a67114&#45;&gt;dir_37c90836491b695b472bf98d1be8336b -->
<g id="edge23" class="edge"><title>dir_5b6015b386f827cc0d1582f414a67114&#45;&gt;dir_37c90836491b695b472bf98d1be8336b</title>
<path fill="none" stroke="black" d="M210.312,-435.519C213.217,-434.261 216.15,-433.062 219,-432 324.743,-392.6 440,-419.845 440,-307 440,-307 440,-307 440,-161 440,-80.3362 331.417,-41.8708 272.301,-26.9065"/>
<polygon fill="black" stroke="black" points="272.766,-23.4177 262.222,-24.4611 271.115,-30.2203 272.766,-23.4177"/>
<g id="a_edge23&#45;headlabel"><a xlink:href="dir_000179_000073.html" target="_top" xlink:title="2">
<text text-anchor="middle" x="276.928" y="-19.0059" font-family="Helvetica,sans-Serif" font-size="10.00">2</text>
</a>
</g>
</g>
<!-- dir_5b6015b386f827cc0d1582f414a67114&#45;&gt;dir_85bf31a2e8d306e7598ffcb73f8df6bf -->
<g id="edge24" class="edge"><title>dir_5b6015b386f827cc0d1582f414a67114&#45;&gt;dir_85bf31a2e8d306e7598ffcb73f8df6bf</title>
<path fill="none" stroke="black" d="M169.087,-431.74C161.64,-421.785 152.828,-408.746 147,-396 126.573,-351.322 114.326,-295.079 108.394,-262.27"/>
<polygon fill="black" stroke="black" points="111.786,-261.344 106.622,-252.093 104.89,-262.545 111.786,-261.344"/>
<g id="a_edge24&#45;headlabel"><a xlink:href="dir_000179_000137.html" target="_top" xlink:title="5">
<text text-anchor="middle" x="115.2" y="-261.898" font-family="Helvetica,sans-Serif" font-size="10.00">5</text>
</a>
</g>
</g>
<!-- dir_f01815b857f9009bea48e2cb39492245 -->
<g id="node9" class="node"><title>dir_f01815b857f9009bea48e2cb39492245</title>
<g id="a_node9"><a xlink:href="dir_f01815b857f9009bea48e2cb39492245.html" target="_top" xlink:title="Passive">
<polygon fill="none" stroke="red" points="412,-180 358,-180 358,-144 412,-144 412,-180"/>
<text text-anchor="middle" x="385" y="-159.5" font-family="Helvetica,sans-Serif" font-size="10.00">Passive</text>
</a>
</g>
</g>
<!-- dir_5b6015b386f827cc0d1582f414a67114&#45;&gt;dir_f01815b857f9009bea48e2cb39492245 -->
<g id="edge25" class="edge"><title>dir_5b6015b386f827cc0d1582f414a67114&#45;&gt;dir_f01815b857f9009bea48e2cb39492245</title>
<path fill="none" stroke="black" d="M210.389,-435.714C213.278,-434.418 216.187,-433.157 219,-432 263.46,-413.712 288.238,-431.182 321,-396 375.105,-337.897 384.191,-238.358 385.251,-190.406"/>
<polygon fill="black" stroke="black" points="388.753,-190.223 385.37,-180.183 381.753,-190.141 388.753,-190.223"/>
<g id="a_edge25&#45;headlabel"><a xlink:href="dir_000179_000197.html" target="_top" xlink:title="1">
<text text-anchor="middle" x="391.55" y="-191.351" font-family="Helvetica,sans-Serif" font-size="10.00">1</text>
</a>
</g>
</g>
<!-- dir_2171f7ec022c5423887b07c69b2f5b48 -->
<g id="node10" class="node"><title>dir_2171f7ec022c5423887b07c69b2f5b48</title>
<g id="a_node10"><a xlink:href="dir_2171f7ec022c5423887b07c69b2f5b48.html" target="_top" xlink:title="DataFormats">
<polygon fill="none" stroke="red" points="74,-180 0,-180 0,-144 74,-144 74,-180"/>
<text text-anchor="middle" x="37" y="-159.5" font-family="Helvetica,sans-Serif" font-size="10.00">DataFormats</text>
</a>
</g>
</g>
<!-- dir_5b6015b386f827cc0d1582f414a67114&#45;&gt;dir_2171f7ec022c5423887b07c69b2f5b48 -->
<g id="edge26" class="edge"><title>dir_5b6015b386f827cc0d1582f414a67114&#45;&gt;dir_2171f7ec022c5423887b07c69b2f5b48</title>
<path fill="none" stroke="black" d="M160.03,-431.849C121.308,-401.07 45.4464,-332.14 27,-252 21.8159,-229.478 23.9586,-222.91 27,-200 27.4378,-196.702 28.0861,-193.281 28.8459,-189.91"/>
<polygon fill="black" stroke="black" points="32.2613,-190.682 31.3611,-180.125 25.4817,-188.939 32.2613,-190.682"/>
<g id="a_edge26&#45;headlabel"><a xlink:href="dir_000179_000043.html" target="_top" xlink:title="2">
<text text-anchor="middle" x="34.1164" y="-192.37" font-family="Helvetica,sans-Serif" font-size="10.00">2</text>
</a>
</g>
</g>
<!-- dir_3d8e691f27a9a1a3f5b37028248bc44b&#45;&gt;dir_7e732ae97f4f941436b6909b27d4da36 -->
<g id="edge3" class="edge"><title>dir_3d8e691f27a9a1a3f5b37028248bc44b&#45;&gt;dir_7e732ae97f4f941436b6909b27d4da36</title>
<path fill="none" stroke="black" d="M211.789,-359.773C220.34,-350.029 230.142,-337.182 236,-324 244.699,-304.424 248.67,-280.431 250.482,-262.291"/>
<polygon fill="black" stroke="black" points="253.988,-262.363 251.337,-252.106 247.013,-261.778 253.988,-262.363"/>
<g id="a_edge3&#45;headlabel"><a xlink:href="dir_000122_000082.html" target="_top" xlink:title="4">
<text text-anchor="middle" x="256.517" y="-263.683" font-family="Helvetica,sans-Serif" font-size="10.00">4</text>
</a>
</g>
</g>
<!-- dir_3d8e691f27a9a1a3f5b37028248bc44b&#45;&gt;dir_a336bf94aab96007822cb34c9e2cb8a5 -->
<g id="edge1" class="edge"><title>dir_3d8e691f27a9a1a3f5b37028248bc44b&#45;&gt;dir_a336bf94aab96007822cb34c9e2cb8a5</title>
<path fill="none" stroke="black" d="M195.494,-359.697C195.715,-351.983 195.98,-342.712 196.225,-334.112"/>
<polygon fill="black" stroke="black" points="199.724,-334.2 196.511,-324.104 192.727,-334 199.724,-334.2"/>
<g id="a_edge1&#45;headlabel"><a xlink:href="dir_000122_000100.html" target="_top" xlink:title="7">
<text text-anchor="middle" x="202.46" y="-335.374" font-family="Helvetica,sans-Serif" font-size="10.00">7</text>
</a>
</g>
</g>
<!-- dir_3d8e691f27a9a1a3f5b37028248bc44b&#45;&gt;dir_85bf31a2e8d306e7598ffcb73f8df6bf -->
<g id="edge2" class="edge"><title>dir_3d8e691f27a9a1a3f5b37028248bc44b&#45;&gt;dir_85bf31a2e8d306e7598ffcb73f8df6bf</title>
<path fill="none" stroke="black" d="M181.953,-359.594C174.437,-349.376 164.937,-336.126 157,-324 143.413,-303.242 129.079,-279.012 118.748,-261.079"/>
<polygon fill="black" stroke="black" points="121.743,-259.265 113.736,-252.327 115.669,-262.744 121.743,-259.265"/>
<g id="a_edge2&#45;headlabel"><a xlink:href="dir_000122_000137.html" target="_top" xlink:title="5">
<text text-anchor="middle" x="125.993" y="-258.474" font-family="Helvetica,sans-Serif" font-size="10.00">5</text>
</a>
</g>
</g>
<!-- dir_3d8e691f27a9a1a3f5b37028248bc44b&#45;&gt;dir_2171f7ec022c5423887b07c69b2f5b48 -->
<g id="edge4" class="edge"><title>dir_3d8e691f27a9a1a3f5b37028248bc44b&#45;&gt;dir_2171f7ec022c5423887b07c69b2f5b48</title>
<path fill="none" stroke="black" d="M158.806,-359.943C121.142,-339.977 64.2105,-303.029 39,-252 29.5577,-232.888 29.7096,-208.534 31.8583,-190.136"/>
<polygon fill="black" stroke="black" points="35.346,-190.47 33.2967,-180.076 28.4164,-189.48 35.346,-190.47"/>
<g id="a_edge4&#45;headlabel"><a xlink:href="dir_000122_000043.html" target="_top" xlink:title="2">
<text text-anchor="middle" x="37.6479" y="-191.931" font-family="Helvetica,sans-Serif" font-size="10.00">2</text>
</a>
</g>
</g>
<!-- dir_a336bf94aab96007822cb34c9e2cb8a5&#45;&gt;dir_7e732ae97f4f941436b6909b27d4da36 -->
<g id="edge9" class="edge"><title>dir_a336bf94aab96007822cb34c9e2cb8a5&#45;&gt;dir_7e732ae97f4f941436b6909b27d4da36</title>
<path fill="none" stroke="black" d="M210.596,-287.697C217.123,-279.389 225.068,-269.277 232.247,-260.141"/>
<polygon fill="black" stroke="black" points="235.135,-262.13 238.561,-252.104 229.631,-257.805 235.135,-262.13"/>
<g id="a_edge9&#45;headlabel"><a xlink:href="dir_000100_000082.html" target="_top" xlink:title="1">
<text text-anchor="middle" x="235.147" y="-264.211" font-family="Helvetica,sans-Serif" font-size="10.00">1</text>
</a>
</g>
</g>
<!-- dir_a336bf94aab96007822cb34c9e2cb8a5&#45;&gt;dir_4ab6b4cc6a7edbff49100e9123df213f -->
<g id="edge6" class="edge"><title>dir_a336bf94aab96007822cb34c9e2cb8a5&#45;&gt;dir_4ab6b4cc6a7edbff49100e9123df213f</title>
<path fill="none" stroke="black" d="M200.045,-287.849C206.633,-250.753 222.249,-162.81 230.187,-118.103"/>
<polygon fill="black" stroke="black" points="233.638,-118.69 231.94,-108.232 226.746,-117.466 233.638,-118.69"/>
<g id="a_edge6&#45;headlabel"><a xlink:href="dir_000100_000016.html" target="_top" xlink:title="1">
<text text-anchor="middle" x="235.805" y="-120.226" font-family="Helvetica,sans-Serif" font-size="10.00">1</text>
</a>
</g>
</g>
<!-- dir_a336bf94aab96007822cb34c9e2cb8a5&#45;&gt;dir_37c90836491b695b472bf98d1be8336b -->
<g id="edge7" class="edge"><title>dir_a336bf94aab96007822cb34c9e2cb8a5&#45;&gt;dir_37c90836491b695b472bf98d1be8336b</title>
<path fill="none" stroke="black" d="M193.666,-287.797C186.763,-248.448 173.499,-149.317 198,-72 201.12,-62.1549 206.778,-52.5388 212.747,-44.2593"/>
<polygon fill="black" stroke="black" points="215.655,-46.2193 218.986,-36.1616 210.11,-41.9471 215.655,-46.2193"/>
<g id="a_edge7&#45;headlabel"><a xlink:href="dir_000100_000073.html" target="_top" xlink:title="3">
<text text-anchor="middle" x="215.711" y="-48.2996" font-family="Helvetica,sans-Serif" font-size="10.00">3</text>
</a>
</g>
</g>
<!-- dir_a336bf94aab96007822cb34c9e2cb8a5&#45;&gt;dir_85bf31a2e8d306e7598ffcb73f8df6bf -->
<g id="edge8" class="edge"><title>dir_a336bf94aab96007822cb34c9e2cb8a5&#45;&gt;dir_85bf31a2e8d306e7598ffcb73f8df6bf</title>
<path fill="none" stroke="black" d="M174.011,-287.697C162.186,-278.796 147.608,-267.823 134.821,-258.199"/>
<polygon fill="black" stroke="black" points="136.819,-255.322 126.724,-252.104 132.609,-260.915 136.819,-255.322"/>
<g id="a_edge8&#45;headlabel"><a xlink:href="dir_000100_000137.html" target="_top" xlink:title="5">
<text text-anchor="middle" x="141.398" y="-252.715" font-family="Helvetica,sans-Serif" font-size="10.00">5</text>
</a>
</g>
</g>
<!-- dir_a336bf94aab96007822cb34c9e2cb8a5&#45;&gt;dir_2171f7ec022c5423887b07c69b2f5b48 -->
<g id="edge10" class="edge"><title>dir_a336bf94aab96007822cb34c9e2cb8a5&#45;&gt;dir_2171f7ec022c5423887b07c69b2f5b48</title>
<path fill="none" stroke="black" d="M166.599,-299.919C137.548,-293.544 94.3848,-279.868 68,-252 52.0543,-235.158 44.2628,-209.68 40.4842,-190.294"/>
<polygon fill="black" stroke="black" points="43.9018,-189.514 38.7715,-180.244 37.0012,-190.69 43.9018,-189.514"/>
<g id="a_edge10&#45;headlabel"><a xlink:href="dir_000100_000043.html" target="_top" xlink:title="1">
<text text-anchor="middle" x="47.3045" y="-190.08" font-family="Helvetica,sans-Serif" font-size="10.00">1</text>
</a>
</g>
</g>
<!-- dir_4ab6b4cc6a7edbff49100e9123df213f&#45;&gt;dir_37c90836491b695b472bf98d1be8336b -->
<g id="edge5" class="edge"><title>dir_4ab6b4cc6a7edbff49100e9123df213f&#45;&gt;dir_37c90836491b695b472bf98d1be8336b</title>
<path fill="none" stroke="black" d="M229.084,-71.6966C228.289,-63.9827 228.062,-54.7125 228.405,-46.1124"/>
<polygon fill="black" stroke="black" points="231.898,-46.3243 229.105,-36.1043 224.915,-45.8356 231.898,-46.3243"/>
<g id="a_edge5&#45;headlabel"><a xlink:href="dir_000016_000073.html" target="_top" xlink:title="1">
<text text-anchor="middle" x="234.48" y="-47.6083" font-family="Helvetica,sans-Serif" font-size="10.00">1</text>
</a>
</g>
</g>
<!-- dir_37c90836491b695b472bf98d1be8336b&#45;&gt;dir_4ab6b4cc6a7edbff49100e9123df213f -->
<g id="edge11" class="edge"><title>dir_37c90836491b695b472bf98d1be8336b&#45;&gt;dir_4ab6b4cc6a7edbff49100e9123df213f</title>
<path fill="none" stroke="black" d="M240.895,-36.1043C241.701,-43.7913 241.937,-53.0537 241.604,-61.6651"/>
<polygon fill="black" stroke="black" points="238.109,-61.4805 240.916,-71.6966 245.092,-61.9597 238.109,-61.4805"/>
<g id="a_edge11&#45;headlabel"><a xlink:href="dir_000073_000016.html" target="_top" xlink:title="8">
<text text-anchor="middle" x="235.522" y="-55.2" font-family="Helvetica,sans-Serif" font-size="10.00">8</text>
</a>
</g>
</g>
<!-- dir_85bf31a2e8d306e7598ffcb73f8df6bf&#45;&gt;dir_4ab6b4cc6a7edbff49100e9123df213f -->
<g id="edge12" class="edge"><title>dir_85bf31a2e8d306e7598ffcb73f8df6bf&#45;&gt;dir_4ab6b4cc6a7edbff49100e9123df213f</title>
<path fill="none" stroke="black" d="M119.802,-215.871C142.817,-190.924 185.691,-144.45 212.146,-115.773"/>
<polygon fill="black" stroke="black" points="214.934,-117.913 219.142,-108.189 209.789,-113.166 214.934,-117.913"/>
<g id="a_edge12&#45;headlabel"><a xlink:href="dir_000137_000016.html" target="_top" xlink:title="2">
<text text-anchor="middle" x="214.584" y="-119.98" font-family="Helvetica,sans-Serif" font-size="10.00">2</text>
</a>
</g>
</g>
<!-- dir_85bf31a2e8d306e7598ffcb73f8df6bf&#45;&gt;dir_37c90836491b695b472bf98d1be8336b -->
<g id="edge13" class="edge"><title>dir_85bf31a2e8d306e7598ffcb73f8df6bf&#45;&gt;dir_37c90836491b695b472bf98d1be8336b</title>
<path fill="none" stroke="black" d="M101.449,-215.821C97.7168,-184.136 94.3024,-115.748 126,-72 143.144,-48.3377 173.762,-34.7512 198.192,-27.2721"/>
<polygon fill="black" stroke="black" points="199.222,-30.6178 207.885,-24.5181 197.309,-23.8843 199.222,-30.6178"/>
<g id="a_edge13&#45;headlabel"><a xlink:href="dir_000137_000073.html" target="_top" xlink:title="2">
<text text-anchor="middle" x="196.54" y="-31.8313" font-family="Helvetica,sans-Serif" font-size="10.00">2</text>
</a>
</g>
</g>
<!-- dir_85bf31a2e8d306e7598ffcb73f8df6bf&#45;&gt;dir_2171f7ec022c5423887b07c69b2f5b48 -->
<g id="edge14" class="edge"><title>dir_85bf31a2e8d306e7598ffcb73f8df6bf&#45;&gt;dir_2171f7ec022c5423887b07c69b2f5b48</title>
<path fill="none" stroke="black" d="M87.4382,-215.697C79.3247,-207.22 69.4123,-196.864 60.529,-187.583"/>
<polygon fill="black" stroke="black" points="62.8144,-184.908 53.3713,-180.104 57.7574,-189.749 62.8144,-184.908"/>
<g id="a_edge14&#45;headlabel"><a xlink:href="dir_000137_000043.html" target="_top" xlink:title="8">
<text text-anchor="middle" x="67.351" y="-183.042" font-family="Helvetica,sans-Serif" font-size="10.00">8</text>
</a>
</g>
</g>
<!-- dir_f01815b857f9009bea48e2cb39492245&#45;&gt;dir_4ab6b4cc6a7edbff49100e9123df213f -->
<g id="edge18" class="edge"><title>dir_f01815b857f9009bea48e2cb39492245&#45;&gt;dir_4ab6b4cc6a7edbff49100e9123df213f</title>
<path fill="none" stroke="black" d="M357.836,-148.324C333.85,-137.13 298.661,-120.708 272.087,-108.307"/>
<polygon fill="black" stroke="black" points="273.265,-104.995 262.723,-103.938 270.305,-111.338 273.265,-104.995"/>
<g id="a_edge18&#45;headlabel"><a xlink:href="dir_000197_000016.html" target="_top" xlink:title="1">
<text text-anchor="middle" x="277.723" y="-101.442" font-family="Helvetica,sans-Serif" font-size="10.00">1</text>
</a>
</g>
</g>
<!-- dir_f01815b857f9009bea48e2cb39492245&#45;&gt;dir_37c90836491b695b472bf98d1be8336b -->
<g id="edge19" class="edge"><title>dir_f01815b857f9009bea48e2cb39492245&#45;&gt;dir_37c90836491b695b472bf98d1be8336b</title>
<path fill="none" stroke="black" d="M380.885,-143.919C375.405,-124.367 363.997,-92.4193 344,-72 324.161,-51.7423 295.007,-38.1263 271.842,-29.7727"/>
<polygon fill="black" stroke="black" points="272.919,-26.4422 262.325,-26.5107 270.65,-33.064 272.919,-26.4422"/>
<g id="a_edge19&#45;headlabel"><a xlink:href="dir_000197_000073.html" target="_top" xlink:title="16">
<text text-anchor="middle" x="277.24" y="-22.4217" font-family="Helvetica,sans-Serif" font-size="10.00">16</text>
</a>
</g>
</g>
<!-- dir_2171f7ec022c5423887b07c69b2f5b48&#45;&gt;dir_4ab6b4cc6a7edbff49100e9123df213f -->
<g id="edge27" class="edge"><title>dir_2171f7ec022c5423887b07c69b2f5b48&#45;&gt;dir_4ab6b4cc6a7edbff49100e9123df213f</title>
<path fill="none" stroke="black" d="M74.2423,-147.834C109.671,-135.308 162.67,-116.571 198.014,-104.076"/>
<polygon fill="black" stroke="black" points="199.224,-107.361 207.485,-100.727 196.89,-100.761 199.224,-107.361"/>
<g id="a_edge27&#45;headlabel"><a xlink:href="dir_000043_000016.html" target="_top" xlink:title="4">
<text text-anchor="middle" x="196.781" y="-108.736" font-family="Helvetica,sans-Serif" font-size="10.00">4</text>
</a>
</g>
</g>
<!-- dir_2171f7ec022c5423887b07c69b2f5b48&#45;&gt;dir_37c90836491b695b472bf98d1be8336b -->
<g id="edge28" class="edge"><title>dir_2171f7ec022c5423887b07c69b2f5b48&#45;&gt;dir_37c90836491b695b472bf98d1be8336b</title>
<path fill="none" stroke="black" d="M42.6796,-143.853C50.105,-123.937 64.947,-91.348 88,-72 119.689,-45.4041 165.786,-31.6872 197.882,-24.9429"/>
<polygon fill="black" stroke="black" points="198.641,-28.3607 207.775,-22.9908 197.286,-21.4931 198.641,-28.3607"/>
<g id="a_edge28&#45;headlabel"><a xlink:href="dir_000043_000073.html" target="_top" xlink:title="6">
<text text-anchor="middle" x="195.664" y="-29.3421" font-family="Helvetica,sans-Serif" font-size="10.00">6</text>
</a>
</g>
</g>
</g>
</svg>
        <g id="navigator" transform="translate(0 0)" fill="#404254">
                <rect fill="#f2f5e9" fill-opacity="0.5" stroke="#606060" stroke-width=".5" x="0" y="0" width="60" height="60"/>
                <use id="zoomplus" xlink:href="#zoomPlus" x="17" y="9" onmousedown="handleZoom(evt,'in')"/>
                <use id="zoomminus" xlink:href="#zoomMin" x="42" y="9" onmousedown="handleZoom(evt,'out')"/>
                <use id="reset" xlink:href="#resetDef" x="30" y="36" onmousedown="handleReset()"/>
                <g id="arrowUp" xlink:href="#dirArrow" transform="translate(30 24)" onmousedown="handlePan(0,-1)">
                  <use xlink:href="#rim" fill="#404040">
                        <set attributeName="fill" to="#808080" begin="arrowUp.mouseover" end="arrowUp.mouseout"/>
                  </use>
                  <path fill="none" stroke="white" stroke-width="1.5" d="M0,-3.0v7 M-2.5,-0.5L0,-3.0L2.5,-0.5"/>
                </g>
                <g id="arrowRight" xlink:href="#dirArrow" transform="rotate(90) translate(36 -43)" onmousedown="handlePan(1,0)">
                  <use xlink:href="#rim" fill="#404040">
                        <set attributeName="fill" to="#808080" begin="arrowRight.mouseover" end="arrowRight.mouseout"/>
                  </use>
                  <path fill="none" stroke="white" stroke-width="1.5" d="M0,-3.0v7 M-2.5,-0.5L0,-3.0L2.5,-0.5"/>
                </g>
                <g id="arrowDown" xlink:href="#dirArrow" transform="rotate(180) translate(-30 -48)" onmousedown="handlePan(0,1)">
                  <use xlink:href="#rim" fill="#404040">
                        <set attributeName="fill" to="#808080" begin="arrowDown.mouseover" end="arrowDown.mouseout"/>
                  </use>
                  <path fill="none" stroke="white" stroke-width="1.5" d="M0,-3.0v7 M-2.5,-0.5L0,-3.0L2.5,-0.5"/>
                </g>
                <g id="arrowLeft" xlink:href="#dirArrow" transform="rotate(270) translate(-36 17)" onmousedown="handlePan(-1,0)">
                  <use xlink:href="#rim" fill="#404040">
                        <set attributeName="fill" to="#808080" begin="arrowLeft.mouseover" end="arrowLeft.mouseout"/>
                  </use>
                  <path fill="none" stroke="white" stroke-width="1.5" d="M0,-3.0v7 M-2.5,-0.5L0,-3.0L2.5,-0.5"/>
                </g>
        </g>
        <svg viewBox="0 0 15 15" width="100%" height="30px" preserveAspectRatio="xMaxYMin meet">
         <g id="arrow_out" transform="scale(0.3 0.3)">
          <a xlink:href="dir_f39d1cd569ca2d16022b762a0e4a53c8_dep_org.svg" target="_base">
           <rect id="button" ry="5" rx="5" y="6" x="6" height="38" width="38"
                fill="#f2f5e9" fill-opacity="0.5" stroke="#606060" stroke-width="1.0"/>
           <path id="arrow"
             d="M 11.500037,31.436501 C 11.940474,20.09759 22.043105,11.32322 32.158766,21.979434 L 37.068811,17.246167 C 37.068811,17.246167 37.088388,32 37.088388,32 L 22.160133,31.978069 C 22.160133,31.978069 26.997745,27.140456 26.997745,27.140456 C 18.528582,18.264221 13.291696,25.230495 11.500037,31.436501 z"
             style="fill:#404040;"/>
          </a>
         </g>
        </svg>
</svg>
