<?xml version="1.0" encoding="UTF-8" standalone="no"?>
<!DOCTYPE svg PUBLIC "-//W3C//DTD SVG 1.1//EN"
 "http://www.w3.org/Graphics/SVG/1.1/DTD/svg11.dtd">
<!-- Generated by graphviz version 2.36.0 (20140111.2315)
 -->
<!-- Title: /home/travis/build/AliceO2Group/AliceO2/Detectors/PHOS/simulation Pages: 1 -->
<svg width="190pt" height="447pt"
 viewBox="0.00 0.00 190.00 447.00" xmlns="http://www.w3.org/2000/svg" xmlns:xlink="http://www.w3.org/1999/xlink">
<g id="graph0" class="graph" transform="scale(1 1) rotate(0) translate(4 443)">
<title>/home/travis/build/AliceO2Group/AliceO2/Detectors/PHOS/simulation</title>
<g id="clust1" class="cluster"><title>clusterdir_cd3c152a7db0580c86a4c50ad0325149</title>
<g id="a_clust1"><a xlink:href="dir_cd3c152a7db0580c86a4c50ad0325149.html" target="_top" xlink:title="PHOS">
<polygon fill="#ddddee" stroke="black" points="8,-272 8,-431 174,-431 174,-272 8,-272"/>
<text text-anchor="middle" x="91" y="-419" font-family="Helvetica,sans-Serif" font-size="10.00">PHOS</text>
</a>
</g>
</g>
<g id="clust2" class="cluster"><title>clusterdir_3af9af54da49e799fe4b1df79119dad7</title>
<g id="a_clust2"><a xlink:href="dir_3af9af54da49e799fe4b1df79119dad7.html" target="_top">
<polygon fill="#eeeeff" stroke="black" points="16,-280 16,-404 166,-404 166,-280 16,-280"/>
</a>
</g>
</g>
<!-- dir_3af9af54da49e799fe4b1df79119dad7 -->
<g id="node1" class="node"><title>dir_3af9af54da49e799fe4b1df79119dad7</title>
<text text-anchor="middle" x="127" y="-375.5" font-family="Helvetica,sans-Serif" font-size="10.00">simulation</text>
</g>
<!-- dir_a3ab2a46c8d9ae8abe901048b5095b9f -->
<g id="node2" class="node"><title>dir_a3ab2a46c8d9ae8abe901048b5095b9f</title>
<g id="a_node2"><a xlink:href="dir_a3ab2a46c8d9ae8abe901048b5095b9f.html" target="_top" xlink:title="include">
<polygon fill="white" stroke="red" points="133,-324 79,-324 79,-288 133,-288 133,-324"/>
<text text-anchor="middle" x="106" y="-303.5" font-family="Helvetica,sans-Serif" font-size="10.00">include</text>
</a>
</g>
</g>
<!-- dir_fa21b46838f21636bfdcc60e4853f0ed -->
<g id="node4" class="node"><title>dir_fa21b46838f21636bfdcc60e4853f0ed</title>
<g id="a_node4"><a xlink:href="dir_fa21b46838f21636bfdcc60e4853f0ed.html" target="_top" xlink:title="base">
<polygon fill="none" stroke="red" points="78,-252 24,-252 24,-216 78,-216 78,-252"/>
<text text-anchor="middle" x="51" y="-231.5" font-family="Helvetica,sans-Serif" font-size="10.00">base</text>
</a>
</g>
</g>
<!-- dir_a3ab2a46c8d9ae8abe901048b5095b9f&#45;&gt;dir_fa21b46838f21636bfdcc60e4853f0ed -->
<g id="edge1" class="edge"><title>dir_a3ab2a46c8d9ae8abe901048b5095b9f&#45;&gt;dir_fa21b46838f21636bfdcc60e4853f0ed</title>
<path fill="none" stroke="black" d="M92.4045,-287.697C85.8773,-279.389 77.932,-269.277 70.7534,-260.141"/>
<polygon fill="black" stroke="black" points="73.3695,-257.805 64.4391,-252.104 67.8653,-262.13 73.3695,-257.805"/>
<g id="a_edge1&#45;headlabel"><a xlink:href="dir_000105_000147.html" target="_top" xlink:title="1">
<text text-anchor="middle" x="77.8229" y="-256.377" font-family="Helvetica,sans-Serif" font-size="10.00">1</text>
</a>
</g>
</g>
<!-- dir_4ab6b4cc6a7edbff49100e9123df213f -->
<g id="node5" class="node"><title>dir_4ab6b4cc6a7edbff49100e9123df213f</title>
<g id="a_node5"><a xlink:href="dir_4ab6b4cc6a7edbff49100e9123df213f.html" target="_top" xlink:title="Common">
<polygon fill="none" stroke="red" points="119.5,-108 64.5,-108 64.5,-72 119.5,-72 119.5,-108"/>
<text text-anchor="middle" x="92" y="-87.5" font-family="Helvetica,sans-Serif" font-size="10.00">Common</text>
</a>
</g>
</g>
<!-- dir_a3ab2a46c8d9ae8abe901048b5095b9f&#45;&gt;dir_4ab6b4cc6a7edbff49100e9123df213f -->
<g id="edge2" class="edge"><title>dir_a3ab2a46c8d9ae8abe901048b5095b9f&#45;&gt;dir_4ab6b4cc6a7edbff49100e9123df213f</title>
<path fill="none" stroke="black" d="M104.878,-287.849C102.456,-250.832 96.7221,-163.181 93.7916,-118.386"/>
<polygon fill="black" stroke="black" points="97.2728,-117.983 93.1274,-108.232 90.2877,-118.44 97.2728,-117.983"/>
<g id="a_edge2&#45;headlabel"><a xlink:href="dir_000105_000016.html" target="_top" xlink:title="1">
<text text-anchor="middle" x="100.341" y="-118.884" font-family="Helvetica,sans-Serif" font-size="10.00">1</text>
</a>
</g>
</g>
<!-- dir_37c90836491b695b472bf98d1be8336b -->
<g id="node6" class="node"><title>dir_37c90836491b695b472bf98d1be8336b</title>
<g id="a_node6"><a xlink:href="dir_37c90836491b695b472bf98d1be8336b.html" target="_top" xlink:title="Base">
<polygon fill="none" stroke="red" points="119,-36 65,-36 65,-0 119,-0 119,-36"/>
<text text-anchor="middle" x="92" y="-15.5" font-family="Helvetica,sans-Serif" font-size="10.00">Base</text>
</a>
</g>
</g>
<!-- dir_a3ab2a46c8d9ae8abe901048b5095b9f&#45;&gt;dir_37c90836491b695b472bf98d1be8336b -->
<g id="edge3" class="edge"><title>dir_a3ab2a46c8d9ae8abe901048b5095b9f&#45;&gt;dir_37c90836491b695b472bf98d1be8336b</title>
<path fill="none" stroke="black" d="M112.03,-287.874C124.887,-248.687 151.945,-149.867 128,-72 124.991,-62.2153 119.493,-52.6161 113.684,-44.3336"/>
<polygon fill="black" stroke="black" points="116.407,-42.1306 107.61,-36.2264 110.805,-46.3279 116.407,-42.1306"/>
<g id="a_edge3&#45;headlabel"><a xlink:href="dir_000105_000073.html" target="_top" xlink:title="1">
<text text-anchor="middle" x="120.835" y="-40.8048" font-family="Helvetica,sans-Serif" font-size="10.00">1</text>
</a>
</g>
</g>
<!-- dir_03284ba3c3f059587cc689a1c2ebdcfe -->
<g id="node3" class="node"><title>dir_03284ba3c3f059587cc689a1c2ebdcfe</title>
<g id="a_node3"><a xlink:href="dir_03284ba3c3f059587cc689a1c2ebdcfe.html" target="_top" xlink:title="src">
<polygon fill="white" stroke="black" points="78,-396 24,-396 24,-360 78,-360 78,-396"/>
<text text-anchor="middle" x="51" y="-375.5" font-family="Helvetica,sans-Serif" font-size="10.00">src</text>
</a>
</g>
</g>
<!-- dir_03284ba3c3f059587cc689a1c2ebdcfe&#45;&gt;dir_a3ab2a46c8d9ae8abe901048b5095b9f -->
<g id="edge7" class="edge"><title>dir_03284ba3c3f059587cc689a1c2ebdcfe&#45;&gt;dir_a3ab2a46c8d9ae8abe901048b5095b9f</title>
<path fill="none" stroke="black" d="M64.5955,-359.697C71.1227,-351.389 79.068,-341.277 86.2466,-332.141"/>
<polygon fill="black" stroke="black" points="89.1347,-334.13 92.5609,-324.104 83.6305,-329.805 89.1347,-334.13"/>
<g id="a_edge7&#45;headlabel"><a xlink:href="dir_000130_000105.html" target="_top" xlink:title="3">
<text text-anchor="middle" x="89.1465" y="-336.211" font-family="Helvetica,sans-Serif" font-size="10.00">3</text>
</a>
</g>
</g>
<!-- dir_03284ba3c3f059587cc689a1c2ebdcfe&#45;&gt;dir_fa21b46838f21636bfdcc60e4853f0ed -->
<g id="edge8" class="edge"><title>dir_03284ba3c3f059587cc689a1c2ebdcfe&#45;&gt;dir_fa21b46838f21636bfdcc60e4853f0ed</title>
<path fill="none" stroke="black" d="M51,-359.871C51,-335.67 51,-291.211 51,-262.393"/>
<polygon fill="black" stroke="black" points="54.5001,-262.189 51,-252.189 47.5001,-262.189 54.5001,-262.189"/>
<g id="a_edge8&#45;headlabel"><a xlink:href="dir_000130_000147.html" target="_top" xlink:title="2">
<text text-anchor="middle" x="57.3393" y="-263.284" font-family="Helvetica,sans-Serif" font-size="10.00">2</text>
</a>
</g>
</g>
<!-- dir_2171f7ec022c5423887b07c69b2f5b48 -->
<g id="node7" class="node"><title>dir_2171f7ec022c5423887b07c69b2f5b48</title>
<g id="a_node7"><a xlink:href="dir_2171f7ec022c5423887b07c69b2f5b48.html" target="_top" xlink:title="DataFormats">
<polygon fill="none" stroke="red" points="75,-180 1,-180 1,-144 75,-144 75,-180"/>
<text text-anchor="middle" x="38" y="-159.5" font-family="Helvetica,sans-Serif" font-size="10.00">DataFormats</text>
</a>
</g>
</g>
<!-- dir_03284ba3c3f059587cc689a1c2ebdcfe&#45;&gt;dir_2171f7ec022c5423887b07c69b2f5b48 -->
<g id="edge9" class="edge"><title>dir_03284ba3c3f059587cc689a1c2ebdcfe&#45;&gt;dir_2171f7ec022c5423887b07c69b2f5b48</title>
<path fill="none" stroke="black" d="M42.1909,-359.646C28.3396,-330.176 4.11173,-268.441 15,-216 16.876,-206.965 20.3741,-197.579 24.0861,-189.261"/>
<polygon fill="black" stroke="black" points="27.322,-190.606 28.4575,-180.072 21.0009,-187.598 27.322,-190.606"/>
<g id="a_edge9&#45;headlabel"><a xlink:href="dir_000130_000043.html" target="_top" xlink:title="1">
<text text-anchor="middle" x="28.3417" y="-192.571" font-family="Helvetica,sans-Serif" font-size="10.00">1</text>
</a>
</g>
</g>
<!-- dir_fa21b46838f21636bfdcc60e4853f0ed&#45;&gt;dir_2171f7ec022c5423887b07c69b2f5b48 -->
<g id="edge4" class="edge"><title>dir_fa21b46838f21636bfdcc60e4853f0ed&#45;&gt;dir_2171f7ec022c5423887b07c69b2f5b48</title>
<path fill="none" stroke="black" d="M47.7865,-215.697C46.3539,-207.983 44.6323,-198.712 43.0352,-190.112"/>
<polygon fill="black" stroke="black" points="46.4437,-189.297 41.1765,-180.104 39.5614,-190.575 46.4437,-189.297"/>
<g id="a_edge4&#45;headlabel"><a xlink:href="dir_000147_000043.html" target="_top" xlink:title="1">
<text text-anchor="middle" x="49.8915" y="-189.813" font-family="Helvetica,sans-Serif" font-size="10.00">1</text>
</a>
</g>
</g>
<!-- dir_4ab6b4cc6a7edbff49100e9123df213f&#45;&gt;dir_37c90836491b695b472bf98d1be8336b -->
<g id="edge5" class="edge"><title>dir_4ab6b4cc6a7edbff49100e9123df213f&#45;&gt;dir_37c90836491b695b472bf98d1be8336b</title>
<path fill="none" stroke="black" d="M86.0843,-71.6966C85.2886,-63.9827 85.0621,-54.7125 85.4047,-46.1124"/>
<polygon fill="black" stroke="black" points="88.8984,-46.3243 86.105,-36.1043 81.9154,-45.8356 88.8984,-46.3243"/>
<g id="a_edge5&#45;headlabel"><a xlink:href="dir_000016_000073.html" target="_top" xlink:title="1">
<text text-anchor="middle" x="91.4799" y="-47.6083" font-family="Helvetica,sans-Serif" font-size="10.00">1</text>
</a>
</g>
</g>
<!-- dir_37c90836491b695b472bf98d1be8336b&#45;&gt;dir_4ab6b4cc6a7edbff49100e9123df213f -->
<g id="edge6" class="edge"><title>dir_37c90836491b695b472bf98d1be8336b&#45;&gt;dir_4ab6b4cc6a7edbff49100e9123df213f</title>
<path fill="none" stroke="black" d="M97.895,-36.1043C98.7005,-43.7913 98.9369,-53.0537 98.604,-61.6651"/>
<polygon fill="black" stroke="black" points="95.1085,-61.4805 97.9157,-71.6966 102.092,-61.9597 95.1085,-61.4805"/>
<g id="a_edge6&#45;headlabel"><a xlink:href="dir_000073_000016.html" target="_top" xlink:title="8">
<text text-anchor="middle" x="92.5219" y="-55.2" font-family="Helvetica,sans-Serif" font-size="10.00">8</text>
</a>
</g>
</g>
<!-- dir_2171f7ec022c5423887b07c69b2f5b48&#45;&gt;dir_4ab6b4cc6a7edbff49100e9123df213f -->
<g id="edge10" class="edge"><title>dir_2171f7ec022c5423887b07c69b2f5b48&#45;&gt;dir_4ab6b4cc6a7edbff49100e9123df213f</title>
<path fill="none" stroke="black" d="M51.3483,-143.697C57.7568,-135.389 65.5577,-125.277 72.6057,-116.141"/>
<polygon fill="black" stroke="black" points="75.4684,-118.16 78.8052,-108.104 69.9259,-113.884 75.4684,-118.16"/>
<g id="a_edge10&#45;headlabel"><a xlink:href="dir_000043_000016.html" target="_top" xlink:title="4">
<text text-anchor="middle" x="75.5209" y="-120.24" font-family="Helvetica,sans-Serif" font-size="10.00">4</text>
</a>
</g>
</g>
<!-- dir_2171f7ec022c5423887b07c69b2f5b48&#45;&gt;dir_37c90836491b695b472bf98d1be8336b -->
<g id="edge11" class="edge"><title>dir_2171f7ec022c5423887b07c69b2f5b48&#45;&gt;dir_37c90836491b695b472bf98d1be8336b</title>
<path fill="none" stroke="black" d="M39.1244,-143.989C40.8178,-125.611 44.9751,-95.771 55,-72 59.0779,-62.3306 65.1138,-52.6532 71.1331,-44.264"/>
<polygon fill="black" stroke="black" points="74.1032,-46.1378 77.317,-36.0421 68.5089,-41.9301 74.1032,-46.1378"/>
<g id="a_edge11&#45;headlabel"><a xlink:href="dir_000043_000073.html" target="_top" xlink:title="6">
<text text-anchor="middle" x="74.2116" y="-48.2172" font-family="Helvetica,sans-Serif" font-size="10.00">6</text>
</a>
</g>
</g>
</g>
</svg>
