<?xml version="1.0" encoding="UTF-8" standalone="no"?>
<!DOCTYPE svg PUBLIC "-//W3C//DTD SVG 1.1//EN"
 "http://www.w3.org/Graphics/SVG/1.1/DTD/svg11.dtd">
<!-- Generated by graphviz version 2.36.0 (20140111.2315)
 -->
<!-- Title: /home/travis/build/AliceO2Group/AliceO2/Detectors/ITSMFT/MFT/base/src Pages: 1 -->
<svg width="157pt" height="367pt"
 viewBox="0.00 0.00 157.19 367.00" xmlns="http://www.w3.org/2000/svg" xmlns:xlink="http://www.w3.org/1999/xlink">
<g id="graph0" class="graph" transform="scale(1 1) rotate(0) translate(4 363)">
<title>/home/travis/build/AliceO2Group/AliceO2/Detectors/ITSMFT/MFT/base/src</title>
<g id="clust1" class="cluster"><title>clusterdir_7e732ae97f4f941436b6909b27d4da36</title>
<g id="a_clust1"><a xlink:href="dir_7e732ae97f4f941436b6909b27d4da36.html" target="_top" xlink:title="base">
<polygon fill="#ddddee" stroke="black" points="13.1853,-280 13.1853,-351 83.1853,-351 83.1853,-280 13.1853,-280"/>
<text text-anchor="middle" x="48.1853" y="-339" font-family="Helvetica,sans-Serif" font-size="10.00">base</text>
</a>
</g>
</g>
<!-- dir_a39be7dbb5064f10e7f9feb561d713d1 -->
<g id="node1" class="node"><title>dir_a39be7dbb5064f10e7f9feb561d713d1</title>
<g id="a_node1"><a xlink:href="dir_a39be7dbb5064f10e7f9feb561d713d1.html" target="_top" xlink:title="src">
<polygon fill="#eeeeff" stroke="black" points="75.1853,-324 21.1853,-324 21.1853,-288 75.1853,-288 75.1853,-324"/>
<text text-anchor="middle" x="48.1853" y="-303.5" font-family="Helvetica,sans-Serif" font-size="10.00">src</text>
</a>
</g>
</g>
<!-- dir_4ab6b4cc6a7edbff49100e9123df213f -->
<g id="node2" class="node"><title>dir_4ab6b4cc6a7edbff49100e9123df213f</title>
<g id="a_node2"><a xlink:href="dir_4ab6b4cc6a7edbff49100e9123df213f.html" target="_top" xlink:title="Common">
<polygon fill="none" stroke="red" points="72.6853,-108 17.6853,-108 17.6853,-72 72.6853,-72 72.6853,-108"/>
<text text-anchor="middle" x="45.1853" y="-87.5" font-family="Helvetica,sans-Serif" font-size="10.00">Common</text>
</a>
</g>
</g>
<!-- dir_a39be7dbb5064f10e7f9feb561d713d1&#45;&gt;dir_4ab6b4cc6a7edbff49100e9123df213f -->
<g id="edge3" class="edge"><title>dir_a39be7dbb5064f10e7f9feb561d713d1&#45;&gt;dir_4ab6b4cc6a7edbff49100e9123df213f</title>
<path fill="none" stroke="black" d="M47.9448,-287.849C47.4259,-250.832 46.1971,-163.181 45.5692,-118.386"/>
<polygon fill="black" stroke="black" points="49.0668,-118.182 45.4268,-108.232 42.0675,-118.281 49.0668,-118.182"/>
<g id="a_edge3&#45;headlabel"><a xlink:href="dir_000158_000016.html" target="_top" xlink:title="1">
<text text-anchor="middle" x="51.9561" y="-119.237" font-family="Helvetica,sans-Serif" font-size="10.00">1</text>
</a>
</g>
</g>
<!-- dir_37c90836491b695b472bf98d1be8336b -->
<g id="node3" class="node"><title>dir_37c90836491b695b472bf98d1be8336b</title>
<g id="a_node3"><a xlink:href="dir_37c90836491b695b472bf98d1be8336b.html" target="_top" xlink:title="Base">
<polygon fill="none" stroke="red" points="72.1853,-36 18.1853,-36 18.1853,-0 72.1853,-0 72.1853,-36"/>
<text text-anchor="middle" x="45.1853" y="-15.5" font-family="Helvetica,sans-Serif" font-size="10.00">Base</text>
</a>
</g>
</g>
<!-- dir_a39be7dbb5064f10e7f9feb561d713d1&#45;&gt;dir_37c90836491b695b472bf98d1be8336b -->
<g id="edge4" class="edge"><title>dir_a39be7dbb5064f10e7f9feb561d713d1&#45;&gt;dir_37c90836491b695b472bf98d1be8336b</title>
<path fill="none" stroke="black" d="M39.8789,-287.963C22.016,-248.961 -16.5051,-150.5 8.18526,-72 11.2839,-62.1483 16.9364,-52.5302 22.9062,-44.2511"/>
<polygon fill="black" stroke="black" points="25.8145,-46.2111 29.1484,-36.1544 20.2708,-41.9371 25.8145,-46.2111"/>
<g id="a_edge4&#45;headlabel"><a xlink:href="dir_000158_000073.html" target="_top" xlink:title="1">
<text text-anchor="middle" x="25.8684" y="-48.2914" font-family="Helvetica,sans-Serif" font-size="10.00">1</text>
</a>
</g>
</g>
<!-- dir_85bf31a2e8d306e7598ffcb73f8df6bf -->
<g id="node4" class="node"><title>dir_85bf31a2e8d306e7598ffcb73f8df6bf</title>
<g id="a_node4"><a xlink:href="dir_85bf31a2e8d306e7598ffcb73f8df6bf.html" target="_top" xlink:title="common">
<polygon fill="none" stroke="red" points="111.185,-180 57.1853,-180 57.1853,-144 111.185,-144 111.185,-180"/>
<text text-anchor="middle" x="84.1853" y="-159.5" font-family="Helvetica,sans-Serif" font-size="10.00">common</text>
</a>
</g>
</g>
<!-- dir_a39be7dbb5064f10e7f9feb561d713d1&#45;&gt;dir_85bf31a2e8d306e7598ffcb73f8df6bf -->
<g id="edge5" class="edge"><title>dir_a39be7dbb5064f10e7f9feb561d713d1&#45;&gt;dir_85bf31a2e8d306e7598ffcb73f8df6bf</title>
<path fill="none" stroke="black" d="M52.5277,-287.871C58.6903,-263.564 70.034,-218.819 77.3368,-190.013"/>
<polygon fill="black" stroke="black" points="80.7626,-190.743 79.8274,-180.189 73.9772,-189.022 80.7626,-190.743"/>
<g id="a_edge5&#45;headlabel"><a xlink:href="dir_000158_000137.html" target="_top" xlink:title="6">
<text text-anchor="middle" x="82.6315" y="-192.425" font-family="Helvetica,sans-Serif" font-size="10.00">6</text>
</a>
</g>
</g>
<!-- dir_f22caf943fb99f64e502dc27cedd1b22 -->
<g id="node5" class="node"><title>dir_f22caf943fb99f64e502dc27cedd1b22</title>
<g id="a_node5"><a xlink:href="dir_f22caf943fb99f64e502dc27cedd1b22.html" target="_top" xlink:title="include">
<polygon fill="none" stroke="red" points="149.185,-252 95.1853,-252 95.1853,-216 149.185,-216 149.185,-252"/>
<text text-anchor="middle" x="122.185" y="-231.5" font-family="Helvetica,sans-Serif" font-size="10.00">include</text>
</a>
</g>
</g>
<!-- dir_a39be7dbb5064f10e7f9feb561d713d1&#45;&gt;dir_f22caf943fb99f64e502dc27cedd1b22 -->
<g id="edge6" class="edge"><title>dir_a39be7dbb5064f10e7f9feb561d713d1&#45;&gt;dir_f22caf943fb99f64e502dc27cedd1b22</title>
<path fill="none" stroke="black" d="M66.4774,-287.697C75.6178,-279.05 86.8254,-268.449 96.7852,-259.027"/>
<polygon fill="black" stroke="black" points="99.244,-261.519 104.104,-252.104 94.4336,-256.434 99.244,-261.519"/>
<g id="a_edge6&#45;headlabel"><a xlink:href="dir_000158_000083.html" target="_top" xlink:title="64">
<text text-anchor="middle" x="98.5838" y="-263.552" font-family="Helvetica,sans-Serif" font-size="10.00">64</text>
</a>
</g>
</g>
<!-- dir_4ab6b4cc6a7edbff49100e9123df213f&#45;&gt;dir_37c90836491b695b472bf98d1be8336b -->
<g id="edge1" class="edge"><title>dir_4ab6b4cc6a7edbff49100e9123df213f&#45;&gt;dir_37c90836491b695b472bf98d1be8336b</title>
<path fill="none" stroke="black" d="M39.2695,-71.6966C38.4738,-63.9827 38.2473,-54.7125 38.59,-46.1124"/>
<polygon fill="black" stroke="black" points="42.0836,-46.3243 39.2902,-36.1043 35.1007,-45.8356 42.0836,-46.3243"/>
<g id="a_edge1&#45;headlabel"><a xlink:href="dir_000016_000073.html" target="_top" xlink:title="1">
<text text-anchor="middle" x="44.6652" y="-47.6083" font-family="Helvetica,sans-Serif" font-size="10.00">1</text>
</a>
</g>
</g>
<!-- dir_37c90836491b695b472bf98d1be8336b&#45;&gt;dir_4ab6b4cc6a7edbff49100e9123df213f -->
<g id="edge2" class="edge"><title>dir_37c90836491b695b472bf98d1be8336b&#45;&gt;dir_4ab6b4cc6a7edbff49100e9123df213f</title>
<path fill="none" stroke="black" d="M51.0803,-36.1043C51.8858,-43.7913 52.1221,-53.0537 51.7893,-61.6651"/>
<polygon fill="black" stroke="black" points="48.2938,-61.4805 51.101,-71.6966 55.2774,-61.9597 48.2938,-61.4805"/>
<g id="a_edge2&#45;headlabel"><a xlink:href="dir_000073_000016.html" target="_top" xlink:title="8">
<text text-anchor="middle" x="45.7072" y="-55.2" font-family="Helvetica,sans-Serif" font-size="10.00">8</text>
</a>
</g>
</g>
<!-- dir_85bf31a2e8d306e7598ffcb73f8df6bf&#45;&gt;dir_4ab6b4cc6a7edbff49100e9123df213f -->
<g id="edge7" class="edge"><title>dir_85bf31a2e8d306e7598ffcb73f8df6bf&#45;&gt;dir_4ab6b4cc6a7edbff49100e9123df213f</title>
<path fill="none" stroke="black" d="M74.5448,-143.697C70.0581,-135.644 64.6265,-125.894 59.6612,-116.982"/>
<polygon fill="black" stroke="black" points="62.6394,-115.137 54.7148,-108.104 56.5244,-118.544 62.6394,-115.137"/>
<g id="a_edge7&#45;headlabel"><a xlink:href="dir_000137_000016.html" target="_top" xlink:title="2">
<text text-anchor="middle" x="66.8691" y="-114.395" font-family="Helvetica,sans-Serif" font-size="10.00">2</text>
</a>
</g>
</g>
<!-- dir_85bf31a2e8d306e7598ffcb73f8df6bf&#45;&gt;dir_37c90836491b695b472bf98d1be8336b -->
<g id="edge8" class="edge"><title>dir_85bf31a2e8d306e7598ffcb73f8df6bf&#45;&gt;dir_37c90836491b695b472bf98d1be8336b</title>
<path fill="none" stroke="black" d="M86.378,-143.783C88.0772,-125.489 88.9969,-95.9587 81.1853,-72 78.012,-62.2673 72.4677,-52.6828 66.6672,-44.3977"/>
<polygon fill="black" stroke="black" points="69.4009,-42.2086 60.6185,-36.2824 63.7884,-46.3919 69.4009,-42.2086"/>
<g id="a_edge8&#45;headlabel"><a xlink:href="dir_000137_000073.html" target="_top" xlink:title="2">
<text text-anchor="middle" x="73.8255" y="-40.8939" font-family="Helvetica,sans-Serif" font-size="10.00">2</text>
</a>
</g>
</g>
<!-- dir_f22caf943fb99f64e502dc27cedd1b22&#45;&gt;dir_37c90836491b695b472bf98d1be8336b -->
<g id="edge9" class="edge"><title>dir_f22caf943fb99f64e502dc27cedd1b22&#45;&gt;dir_37c90836491b695b472bf98d1be8336b</title>
<path fill="none" stroke="black" d="M123.88,-215.593C126.059,-184.422 126.733,-118.033 99.1853,-72 92.8203,-61.364 83.811,-51.3681 74.9716,-42.9854"/>
<polygon fill="black" stroke="black" points="77.0809,-40.1739 67.318,-36.0586 72.3837,-45.3639 77.0809,-40.1739"/>
<g id="a_edge9&#45;headlabel"><a xlink:href="dir_000083_000073.html" target="_top" xlink:title="3">
<text text-anchor="middle" x="81.6513" y="-37.9808" font-family="Helvetica,sans-Serif" font-size="10.00">3</text>
</a>
</g>
</g>
<!-- dir_f22caf943fb99f64e502dc27cedd1b22&#45;&gt;dir_85bf31a2e8d306e7598ffcb73f8df6bf -->
<g id="edge10" class="edge"><title>dir_f22caf943fb99f64e502dc27cedd1b22&#45;&gt;dir_85bf31a2e8d306e7598ffcb73f8df6bf</title>
<path fill="none" stroke="black" d="M112.792,-215.697C108.42,-207.644 103.128,-197.894 98.29,-188.982"/>
<polygon fill="black" stroke="black" points="101.317,-187.223 93.4705,-180.104 95.1655,-190.563 101.317,-187.223"/>
<g id="a_edge10&#45;headlabel"><a xlink:href="dir_000083_000137.html" target="_top" xlink:title="1">
<text text-anchor="middle" x="105.528" y="-186.528" font-family="Helvetica,sans-Serif" font-size="10.00">1</text>
</a>
</g>
</g>
</g>
</svg>
