<?xml version="1.0" encoding="UTF-8" standalone="no"?>
<!DOCTYPE svg PUBLIC "-//W3C//DTD SVG 1.1//EN"
 "http://www.w3.org/Graphics/SVG/1.1/DTD/svg11.dtd">
<!-- Generated by graphviz version 2.36.0 (20140111.2315)
 -->
<!-- Title: Graphical Class Hierarchy Pages: 1 -->
<svg width="224pt" height="104pt"
 viewBox="0.00 0.00 224.00 104.00" xmlns="http://www.w3.org/2000/svg" xmlns:xlink="http://www.w3.org/1999/xlink">
<g id="graph0" class="graph" transform="scale(1 1) rotate(0) translate(4 100)">
<title>Graphical Class Hierarchy</title>
<!-- Node1 -->
<g id="node1" class="node"><title>Node1</title>
<g id="a_node1"><a xlink:href="d6/d15/classFairTimeStamp.html" target="_top" xlink:title="FairTimeStamp">
<polygon fill="none" stroke="black" points="0.5,-38.5 0.5,-57.5 83.5,-57.5 83.5,-38.5 0.5,-38.5"/>
<text text-anchor="middle" x="42" y="-45.5" font-family="Helvetica,sans-Serif" font-size="10.00">FairTimeStamp</text>
</a>
</g>
</g>
<!-- Node2 -->
<g id="node2" class="node"><title>Node2</title>
<g id="a_node2"><a xlink:href="d5/d5a/classo2_1_1EMCAL_1_1Digit.html" target="_top" xlink:title="EMCAL digit implementation. ">
<polygon fill="none" stroke="black" points="121,-76.5 121,-95.5 215,-95.5 215,-76.5 121,-76.5"/>
<text text-anchor="middle" x="168" y="-83.5" font-family="Helvetica,sans-Serif" font-size="10.00">o2::EMCAL::Digit</text>
</a>
</g>
</g>
<!-- Node1&#45;&gt;Node2 -->
<g id="edge1" class="edge"><title>Node1&#45;&gt;Node2</title>
<path fill="none" stroke="midnightblue" d="M83.9047,-60.5353C100.773,-65.7048 120.008,-71.5991 135.72,-76.4141"/>
<polygon fill="midnightblue" stroke="midnightblue" points="84.8771,-57.1727 74.2904,-57.589 82.826,-63.8655 84.8771,-57.1727"/>
</g>
<!-- Node3 -->
<g id="node3" class="node"><title>Node3</title>
<g id="a_node3"><a xlink:href="d0/dd8/classo2_1_1ITSMFT_1_1Digit.html" target="_top" xlink:title="Digit class for the ITS. ">
<polygon fill="none" stroke="black" points="120.5,-38.5 120.5,-57.5 215.5,-57.5 215.5,-38.5 120.5,-38.5"/>
<text text-anchor="middle" x="168" y="-45.5" font-family="Helvetica,sans-Serif" font-size="10.00">o2::ITSMFT::Digit</text>
</a>
</g>
</g>
<!-- Node1&#45;&gt;Node3 -->
<g id="edge2" class="edge"><title>Node1&#45;&gt;Node3</title>
<path fill="none" stroke="midnightblue" d="M93.7271,-48C102.512,-48 111.609,-48 120.281,-48"/>
<polygon fill="midnightblue" stroke="midnightblue" points="93.6023,-44.5001 83.6022,-48 93.6022,-51.5001 93.6023,-44.5001"/>
</g>
<!-- Node4 -->
<g id="node4" class="node"><title>Node4</title>
<g id="a_node4"><a xlink:href="d8/db4/classo2_1_1tof_1_1Digit.html" target="_top" xlink:title="TOF digit implementation. ">
<polygon fill="none" stroke="black" points="132.5,-0.5 132.5,-19.5 203.5,-19.5 203.5,-0.5 132.5,-0.5"/>
<text text-anchor="middle" x="168" y="-7.5" font-family="Helvetica,sans-Serif" font-size="10.00">o2::tof::Digit</text>
</a>
</g>
</g>
<!-- Node1&#45;&gt;Node4 -->
<g id="edge3" class="edge"><title>Node1&#45;&gt;Node4</title>
<path fill="none" stroke="midnightblue" d="M83.9047,-35.4647C100.773,-30.2952 120.008,-24.4009 135.72,-19.5859"/>
<polygon fill="midnightblue" stroke="midnightblue" points="82.826,-32.1345 74.2904,-38.411 84.8771,-38.8273 82.826,-32.1345"/>
</g>
</g>
</svg>
