<?xml version="1.0" encoding="UTF-8" standalone="no"?>
<!DOCTYPE svg PUBLIC "-//W3C//DTD SVG 1.1//EN"
 "http://www.w3.org/Graphics/SVG/1.1/DTD/svg11.dtd">
<!-- Generated by graphviz version 2.36.0 (20140111.2315)
 -->
<!-- Title: /home/travis/build/AliceO2Group/AliceO2/Detectors/PHOS/testsimulation/run_sim_phos.C Pages: 1 -->
<!--zoomable 366 -->
<svg id="main" version="1.1" xmlns="http://www.w3.org/2000/svg" xmlns:xlink="http://www.w3.org/1999/xlink" xml:space="preserve" onload="init(evt)">
<style type="text/css"><![CDATA[
.edge:hover path { stroke: red; }
.edge:hover polygon { stroke: red; fill: red; }
]]></style>
<script type="text/javascript"><![CDATA[
var edges = document.getElementsByTagName('g');
if (edges && edges.length) {
  for (var i=0;i<edges.length;i++) {
    if (edges[i].id.substr(0,4)=='edge') {
      edges[i].setAttribute('class','edge');
    }
  }
}
]]></script>
        <defs>
                <circle id="rim" cx="0" cy="0" r="7"/>
                <circle id="rim2" cx="0" cy="0" r="3.5"/>
                <g id="zoomPlus">
                        <use xlink:href="#rim" fill="#404040">
                                <set attributeName="fill" to="#808080" begin="zoomplus.mouseover" end="zoomplus.mouseout"/>
                        </use>
                        <path d="M-4,0h8M0,-4v8" fill="none" stroke="white" stroke-width="1.5" pointer-events="none"/>
                </g>
                <g id="zoomMin">
                        <use xlink:href="#rim" fill="#404040">
                                <set attributeName="fill" to="#808080" begin="zoomminus.mouseover" end="zoomminus.mouseout"/>
                        </use>
                        <path d="M-4,0h8" fill="none" stroke="white" stroke-width="1.5" pointer-events="none"/>
                </g>
                <g id="dirArrow">
                        <path fill="none" stroke="white" stroke-width="1.5" d="M0,-3.0v7 M-2.5,-0.5L0,-3.0L2.5,-0.5"/>
                </g>
               <g id="resetDef">
                       <use xlink:href="#rim2" fill="#404040">
                               <set attributeName="fill" to="#808080" begin="reset.mouseover" end="reset.mouseout"/>
                       </use>
               </g>
        </defs>

<script type="text/javascript">
var viewWidth = 2469;
var viewHeight = 366;
var sectionId = 'dynsection-0';
</script>
<script xlink:href="../../svgpan.js"/>
<svg id="graph" class="graph">
<g id="viewport">
<title>/home/travis/build/AliceO2Group/AliceO2/Detectors/PHOS/testsimulation/run_sim_phos.C</title>
<!-- Node1 -->
<g id="node1" class="node"><title>Node1</title>
<polygon fill="#bfbfbf" stroke="black" points="1584,-305 1584,-357 1742,-357 1742,-305 1584,-305"/>
<text text-anchor="start" x="1592" y="-345" font-family="Helvetica,sans-Serif" font-size="10.00">/home/travis/build</text>
<text text-anchor="start" x="1592" y="-334" font-family="Helvetica,sans-Serif" font-size="10.00">/AliceO2Group/AliceO2</text>
<text text-anchor="start" x="1592" y="-323" font-family="Helvetica,sans-Serif" font-size="10.00">/Detectors/PHOS/testsimulation</text>
<text text-anchor="middle" x="1663" y="-312" font-family="Helvetica,sans-Serif" font-size="10.00">/run_sim_phos.C</text>
</g>
<!-- Node2 -->
<g id="node2" class="node"><title>Node2</title>
<polygon fill="none" stroke="#bfbfbf" points="336,-74.5 336,-93.5 390,-93.5 390,-74.5 336,-74.5"/>
<text text-anchor="middle" x="363" y="-81.5" font-family="Helvetica,sans-Serif" font-size="10.00">iostream</text>
</g>
<!-- Node1&#45;&gt;Node2 -->
<g id="edge1" class="edge"><title>Node1&#45;&gt;Node2</title>
<path fill="none" stroke="midnightblue" d="M1583.65,-320.224C1495.74,-309.054 1349.88,-289.518 1225,-268 855.813,-204.385 757.146,-209.894 399,-100 396.419,-99.208 393.768,-98.2988 391.133,-97.3282"/>
<polygon fill="midnightblue" stroke="midnightblue" points="392.39,-94.0616 381.803,-93.643 389.818,-100.572 392.39,-94.0616"/>
</g>
<!-- Node3 -->
<g id="node3" class="node"><title>Node3</title>
<polygon fill="none" stroke="#bfbfbf" points="1405,-6.5 1405,-25.5 1461,-25.5 1461,-6.5 1405,-6.5"/>
<text text-anchor="middle" x="1433" y="-13.5" font-family="Helvetica,sans-Serif" font-size="10.00">Rtypes.h</text>
</g>
<!-- Node1&#45;&gt;Node3 -->
<g id="edge2" class="edge"><title>Node1&#45;&gt;Node3</title>
<path fill="none" stroke="midnightblue" d="M1583.86,-326.964C1288.85,-315.132 270,-269.459 270,-203 270,-203 270,-203 270,-145 270,-107.032 275.326,-88.9362 307,-68 353.313,-37.3877 1202.53,-20.9693 1394.6,-17.6382"/>
<polygon fill="midnightblue" stroke="midnightblue" points="1394.85,-21.1347 1404.78,-17.4633 1394.73,-14.1357 1394.85,-21.1347"/>
</g>
<!-- Node4 -->
<g id="node4" class="node"><title>Node4</title>
<polygon fill="none" stroke="#bfbfbf" points="1213.5,-192.5 1213.5,-211.5 1278.5,-211.5 1278.5,-192.5 1213.5,-192.5"/>
<text text-anchor="middle" x="1246" y="-199.5" font-family="Helvetica,sans-Serif" font-size="10.00">TSystem.h</text>
</g>
<!-- Node1&#45;&gt;Node4 -->
<g id="edge3" class="edge"><title>Node1&#45;&gt;Node4</title>
<path fill="none" stroke="midnightblue" d="M1583.85,-324.549C1488.29,-316.679 1334.48,-299.499 1287,-268 1270.2,-256.853 1258.95,-236.215 1252.55,-221.176"/>
<polygon fill="midnightblue" stroke="midnightblue" points="1255.79,-219.874 1248.88,-211.845 1249.28,-222.432 1255.79,-219.874"/>
</g>
<!-- Node5 -->
<g id="node5" class="node"><title>Node5</title>
<polygon fill="none" stroke="#bfbfbf" points="1209.5,-136.5 1209.5,-155.5 1262.5,-155.5 1262.5,-136.5 1209.5,-136.5"/>
<text text-anchor="middle" x="1236" y="-143.5" font-family="Helvetica,sans-Serif" font-size="10.00">TMath.h</text>
</g>
<!-- Node1&#45;&gt;Node5 -->
<g id="edge4" class="edge"><title>Node1&#45;&gt;Node5</title>
<path fill="none" stroke="midnightblue" d="M1583.89,-323.44C1483.82,-314.167 1317.92,-295.265 1263,-268 1230.91,-252.066 1219,-244.983 1205,-212 1197.87,-195.196 1208.96,-176.415 1219.8,-163.379"/>
<polygon fill="midnightblue" stroke="midnightblue" points="1222.61,-165.493 1226.7,-155.721 1217.41,-160.809 1222.61,-165.493"/>
</g>
<!-- Node6 -->
<g id="node6" class="node"><title>Node6</title>
<polygon fill="none" stroke="#bfbfbf" points="1960,-74.5 1960,-93.5 2016,-93.5 2016,-74.5 1960,-74.5"/>
<text text-anchor="middle" x="1988" y="-81.5" font-family="Helvetica,sans-Serif" font-size="10.00">TString.h</text>
</g>
<!-- Node1&#45;&gt;Node6 -->
<g id="edge5" class="edge"><title>Node1&#45;&gt;Node6</title>
<path fill="none" stroke="midnightblue" d="M1742.23,-329.607C1930.31,-327.85 2391.48,-318.394 2438,-268 2561.67,-134.042 2155.61,-95.83 2026.27,-87.1828"/>
<polygon fill="midnightblue" stroke="midnightblue" points="2026.24,-83.6737 2016.03,-86.5221 2025.79,-90.6591 2026.24,-83.6737"/>
</g>
<!-- Node7 -->
<g id="node7" class="node"><title>Node7</title>
<polygon fill="none" stroke="#bfbfbf" points="1424.5,-248.5 1424.5,-267.5 1501.5,-267.5 1501.5,-248.5 1424.5,-248.5"/>
<text text-anchor="middle" x="1463" y="-255.5" font-family="Helvetica,sans-Serif" font-size="10.00">TStopwatch.h</text>
</g>
<!-- Node1&#45;&gt;Node7 -->
<g id="edge6" class="edge"><title>Node1&#45;&gt;Node7</title>
<path fill="none" stroke="midnightblue" d="M1592.49,-304.968C1559.98,-293.427 1522.9,-280.265 1496.78,-270.991"/>
<polygon fill="midnightblue" stroke="midnightblue" points="1497.93,-267.686 1487.33,-267.639 1495.59,-274.283 1497.93,-267.686"/>
</g>
<!-- Node8 -->
<g id="node8" class="node"><title>Node8</title>
<polygon fill="none" stroke="#bfbfbf" points="1520,-248.5 1520,-267.5 1606,-267.5 1606,-248.5 1520,-248.5"/>
<text text-anchor="middle" x="1563" y="-255.5" font-family="Helvetica,sans-Serif" font-size="10.00">TGeoManager.h</text>
</g>
<!-- Node1&#45;&gt;Node8 -->
<g id="edge7" class="edge"><title>Node1&#45;&gt;Node8</title>
<path fill="none" stroke="midnightblue" d="M1627.74,-304.968C1613.08,-294.559 1596.57,-282.831 1583.88,-273.827"/>
<polygon fill="midnightblue" stroke="midnightblue" points="1585.59,-270.745 1575.41,-267.81 1581.54,-276.453 1585.59,-270.745"/>
</g>
<!-- Node9 -->
<g id="node9" class="node"><title>Node9</title>
<polygon fill="none" stroke="#bfbfbf" points="1624.5,-248.5 1624.5,-267.5 1701.5,-267.5 1701.5,-248.5 1624.5,-248.5"/>
<text text-anchor="middle" x="1663" y="-255.5" font-family="Helvetica,sans-Serif" font-size="10.00">FairRunSim.h</text>
</g>
<!-- Node1&#45;&gt;Node9 -->
<g id="edge8" class="edge"><title>Node1&#45;&gt;Node9</title>
<path fill="none" stroke="midnightblue" d="M1663,-304.768C1663,-295.89 1663,-286.074 1663,-277.816"/>
<polygon fill="midnightblue" stroke="midnightblue" points="1666.5,-277.757 1663,-267.757 1659.5,-277.757 1666.5,-277.757"/>
</g>
<!-- Node10 -->
<g id="node10" class="node"><title>Node10</title>
<polygon fill="none" stroke="#bfbfbf" points="1719.5,-248.5 1719.5,-267.5 1810.5,-267.5 1810.5,-248.5 1719.5,-248.5"/>
<text text-anchor="middle" x="1765" y="-255.5" font-family="Helvetica,sans-Serif" font-size="10.00">FairRuntimeDb.h</text>
</g>
<!-- Node1&#45;&gt;Node10 -->
<g id="edge9" class="edge"><title>Node1&#45;&gt;Node10</title>
<path fill="none" stroke="midnightblue" d="M1698.96,-304.968C1714.06,-294.458 1731.09,-282.603 1744.07,-273.565"/>
<polygon fill="midnightblue" stroke="midnightblue" points="1746.14,-276.395 1752.34,-267.81 1742.14,-270.65 1746.14,-276.395"/>
</g>
<!-- Node11 -->
<g id="node11" class="node"><title>Node11</title>
<polygon fill="none" stroke="#bfbfbf" points="1829,-248.5 1829,-267.5 1947,-267.5 1947,-248.5 1829,-248.5"/>
<text text-anchor="middle" x="1888" y="-255.5" font-family="Helvetica,sans-Serif" font-size="10.00">FairPrimaryGenerator.h</text>
</g>
<!-- Node1&#45;&gt;Node11 -->
<g id="edge10" class="edge"><title>Node1&#45;&gt;Node11</title>
<path fill="none" stroke="midnightblue" d="M1742.01,-305.068C1779.05,-293.38 1821.42,-280.011 1850.94,-270.696"/>
<polygon fill="midnightblue" stroke="midnightblue" points="1852.33,-273.927 1860.81,-267.58 1850.22,-267.251 1852.33,-273.927"/>
</g>
<!-- Node12 -->
<g id="node12" class="node"><title>Node12</title>
<polygon fill="none" stroke="#bfbfbf" points="1965.5,-248.5 1965.5,-267.5 2066.5,-267.5 2066.5,-248.5 1965.5,-248.5"/>
<text text-anchor="middle" x="2016" y="-255.5" font-family="Helvetica,sans-Serif" font-size="10.00">FairBoxGenerator.h</text>
</g>
<!-- Node1&#45;&gt;Node12 -->
<g id="edge11" class="edge"><title>Node1&#45;&gt;Node12</title>
<path fill="none" stroke="midnightblue" d="M1742.22,-314.066C1809.72,-300.49 1904.82,-281.361 1963.33,-269.593"/>
<polygon fill="midnightblue" stroke="midnightblue" points="1964.35,-272.959 1973.46,-267.555 1962.97,-266.096 1964.35,-272.959"/>
</g>
<!-- Node13 -->
<g id="node13" class="node"><title>Node13</title>
<polygon fill="none" stroke="#bfbfbf" points="2084.5,-248.5 2084.5,-267.5 2185.5,-267.5 2185.5,-248.5 2084.5,-248.5"/>
<text text-anchor="middle" x="2135" y="-255.5" font-family="Helvetica,sans-Serif" font-size="10.00">FairParRootFileIo.h</text>
</g>
<!-- Node1&#45;&gt;Node13 -->
<g id="edge12" class="edge"><title>Node1&#45;&gt;Node13</title>
<path fill="none" stroke="midnightblue" d="M1742,-318.116C1835.69,-304.024 1989.79,-280.844 2074.51,-268.1"/>
<polygon fill="midnightblue" stroke="midnightblue" points="2075.12,-271.547 2084.49,-266.599 2074.08,-264.625 2075.12,-271.547"/>
</g>
<!-- Node14 -->
<g id="node14" class="node"><title>Node14</title>
<polygon fill="none" stroke="#bfbfbf" points="2204,-248.5 2204,-267.5 2296,-267.5 2296,-248.5 2204,-248.5"/>
<text text-anchor="middle" x="2250" y="-255.5" font-family="Helvetica,sans-Serif" font-size="10.00">FairSystemInfo.h</text>
</g>
<!-- Node1&#45;&gt;Node14 -->
<g id="edge13" class="edge"><title>Node1&#45;&gt;Node14</title>
<path fill="none" stroke="midnightblue" d="M1742.3,-321.819C1844.18,-311.067 2026.73,-290.986 2193.91,-267.954"/>
<polygon fill="midnightblue" stroke="midnightblue" points="2194.45,-271.412 2203.88,-266.574 2193.49,-264.478 2194.45,-271.412"/>
</g>
<!-- Node15 -->
<g id="node15" class="node"><title>Node15</title>
<polygon fill="none" stroke="#bfbfbf" points="2314,-248.5 2314,-267.5 2430,-267.5 2430,-248.5 2314,-248.5"/>
<text text-anchor="middle" x="2372" y="-255.5" font-family="Helvetica,sans-Serif" font-size="10.00">TGeoGlobalMagField.h</text>
</g>
<!-- Node1&#45;&gt;Node15 -->
<g id="edge14" class="edge"><title>Node1&#45;&gt;Node15</title>
<path fill="none" stroke="midnightblue" d="M1742.17,-323.31C1861.51,-313.013 2094.87,-292.055 2303.67,-268.116"/>
<polygon fill="midnightblue" stroke="midnightblue" points="2304.38,-271.558 2313.91,-266.938 2303.58,-264.604 2304.38,-271.558"/>
</g>
<!-- Node16 -->
<g id="node16" class="node"><title>Node16</title>
<g id="a_node16"><a xlink:href="../../db/d4b/MagneticField_8h.html" target="_top" xlink:title="Definition of the MagF class. ">
<polygon fill="none" stroke="black" points="1296,-248.5 1296,-267.5 1406,-267.5 1406,-248.5 1296,-248.5"/>
<text text-anchor="middle" x="1351" y="-255.5" font-family="Helvetica,sans-Serif" font-size="10.00">Field/MagneticField.h</text>
</a>
</g>
</g>
<!-- Node1&#45;&gt;Node16 -->
<g id="edge15" class="edge"><title>Node1&#45;&gt;Node16</title>
<path fill="none" stroke="midnightblue" d="M1583.87,-311.992C1525.38,-298.683 1447.68,-281.001 1398.49,-269.808"/>
<polygon fill="midnightblue" stroke="midnightblue" points="1398.97,-266.328 1388.45,-267.522 1397.42,-273.153 1398.97,-266.328"/>
</g>
<!-- Node16&#45;&gt;Node3 -->
<g id="edge52" class="edge"><title>Node16&#45;&gt;Node3</title>
<path fill="none" stroke="midnightblue" d="M1370.76,-248.474C1385.33,-241.072 1404.25,-228.876 1414,-212 1447.01,-154.859 1440.9,-72.3352 1436,-35.7162"/>
<polygon fill="midnightblue" stroke="midnightblue" points="1439.42,-34.9158 1434.51,-25.5303 1432.5,-35.9327 1439.42,-34.9158"/>
</g>
<!-- Node16&#45;&gt;Node4 -->
<g id="edge51" class="edge"><title>Node16&#45;&gt;Node4</title>
<path fill="none" stroke="midnightblue" d="M1334.13,-248.324C1317.29,-239.664 1291.19,-226.242 1271.76,-216.249"/>
<polygon fill="midnightblue" stroke="midnightblue" points="1273.32,-213.116 1262.83,-211.655 1270.12,-219.341 1273.32,-213.116"/>
</g>
<!-- Node17 -->
<g id="node17" class="node"><title>Node17</title>
<polygon fill="none" stroke="#bfbfbf" points="1461,-192.5 1461,-211.5 1523,-211.5 1523,-192.5 1461,-192.5"/>
<text text-anchor="middle" x="1492" y="-199.5" font-family="Helvetica,sans-Serif" font-size="10.00">FairField.h</text>
</g>
<!-- Node16&#45;&gt;Node17 -->
<g id="edge16" class="edge"><title>Node16&#45;&gt;Node17</title>
<path fill="none" stroke="midnightblue" d="M1373.34,-248.444C1396.75,-239.478 1433.74,-225.314 1460.19,-215.183"/>
<polygon fill="midnightblue" stroke="midnightblue" points="1461.68,-218.361 1469.76,-211.516 1459.17,-211.824 1461.68,-218.361"/>
</g>
<!-- Node18 -->
<g id="node18" class="node"><title>Node18</title>
<g id="a_node18"><a xlink:href="../../d3/d91/MagFieldParam_8h.html" target="_top" xlink:title="Definition of the MagFieldParam: container for ALICE mag. field parameters. ">
<polygon fill="none" stroke="black" points="1781.5,-192.5 1781.5,-211.5 1898.5,-211.5 1898.5,-192.5 1781.5,-192.5"/>
<text text-anchor="middle" x="1840" y="-199.5" font-family="Helvetica,sans-Serif" font-size="10.00">Field/MagFieldParam.h</text>
</a>
</g>
</g>
<!-- Node16&#45;&gt;Node18 -->
<g id="edge17" class="edge"><title>Node16&#45;&gt;Node18</title>
<path fill="none" stroke="midnightblue" d="M1406.3,-249.221C1409.58,-248.797 1412.83,-248.387 1416,-248 1541.02,-232.714 1687.16,-217.868 1771.12,-209.63"/>
<polygon fill="midnightblue" stroke="midnightblue" points="1771.68,-213.092 1781.29,-208.634 1771,-206.125 1771.68,-213.092"/>
</g>
<!-- Node20 -->
<g id="node20" class="node"><title>Node20</title>
<g id="a_node20"><a xlink:href="../../dd/dfb/MagneticWrapperChebyshev_8h.html" target="_top" xlink:title="Field/MagneticWrapperChebyshev.h">
<polygon fill="none" stroke="black" points="1541.5,-192.5 1541.5,-211.5 1716.5,-211.5 1716.5,-192.5 1541.5,-192.5"/>
<text text-anchor="middle" x="1629" y="-199.5" font-family="Helvetica,sans-Serif" font-size="10.00">Field/MagneticWrapperChebyshev.h</text>
</a>
</g>
</g>
<!-- Node16&#45;&gt;Node20 -->
<g id="edge20" class="edge"><title>Node16&#45;&gt;Node20</title>
<path fill="none" stroke="midnightblue" d="M1395.05,-248.444C1443.85,-238.964 1522.56,-223.675 1575.03,-213.483"/>
<polygon fill="midnightblue" stroke="midnightblue" points="1576.01,-216.859 1585.16,-211.516 1574.67,-209.988 1576.01,-216.859"/>
</g>
<!-- Node21 -->
<g id="node21" class="node"><title>Node21</title>
<polygon fill="none" stroke="#bfbfbf" points="1787,-6.5 1787,-25.5 1849,-25.5 1849,-6.5 1787,-6.5"/>
<text text-anchor="middle" x="1818" y="-13.5" font-family="Helvetica,sans-Serif" font-size="10.00">TNamed.h</text>
</g>
<!-- Node16&#45;&gt;Node21 -->
<g id="edge53" class="edge"><title>Node16&#45;&gt;Node21</title>
<path fill="none" stroke="midnightblue" d="M1406.29,-249.063C1409.57,-248.679 1412.83,-248.321 1416,-248 1478.25,-241.705 1926.62,-247.714 1978,-212 2033.17,-173.652 2065.41,-120.909 2024,-68 2003.95,-42.3778 1913.51,-27.8348 1859.36,-21.2793"/>
<polygon fill="midnightblue" stroke="midnightblue" points="1859.7,-17.7963 1849.36,-20.1105 1858.89,-24.7489 1859.7,-17.7963"/>
</g>
<!-- Node26 -->
<g id="node26" class="node"><title>Node26</title>
<g id="a_node26"><a xlink:href="../../da/df4/MagFieldFast_8h.html" target="_top" xlink:title="Definition of the fast magnetic field parametrization MagFieldFast. ">
<polygon fill="none" stroke="black" points="1297,-192.5 1297,-211.5 1405,-211.5 1405,-192.5 1297,-192.5"/>
<text text-anchor="middle" x="1351" y="-199.5" font-family="Helvetica,sans-Serif" font-size="10.00">Field/MagFieldFast.h</text>
</a>
</g>
</g>
<!-- Node16&#45;&gt;Node26 -->
<g id="edge36" class="edge"><title>Node16&#45;&gt;Node26</title>
<path fill="none" stroke="midnightblue" d="M1351,-248.083C1351,-241.006 1351,-230.861 1351,-221.986"/>
<polygon fill="midnightblue" stroke="midnightblue" points="1354.5,-221.751 1351,-211.751 1347.5,-221.751 1354.5,-221.751"/>
</g>
<!-- Node38 -->
<g id="node38" class="node"><title>Node38</title>
<polygon fill="none" stroke="#bfbfbf" points="1917,-192.5 1917,-211.5 1969,-211.5 1969,-192.5 1917,-192.5"/>
<text text-anchor="middle" x="1943" y="-199.5" font-family="Helvetica,sans-Serif" font-size="10.00">memory</text>
</g>
<!-- Node16&#45;&gt;Node38 -->
<g id="edge54" class="edge"><title>Node16&#45;&gt;Node38</title>
<path fill="none" stroke="midnightblue" d="M1406.29,-249.098C1409.57,-248.705 1412.83,-248.336 1416,-248 1630.3,-225.331 1689.18,-246.016 1906.62,-211.733"/>
<polygon fill="midnightblue" stroke="midnightblue" points="1907.44,-215.147 1916.76,-210.113 1906.33,-208.235 1907.44,-215.147"/>
</g>
<!-- Node18&#45;&gt;Node6 -->
<g id="edge19" class="edge"><title>Node18&#45;&gt;Node6</title>
<path fill="none" stroke="midnightblue" d="M1887.8,-192.467C1925.58,-184.649 1973.92,-171.889 1986,-156 1997.17,-141.307 1995.96,-119.525 1993.03,-103.966"/>
<polygon fill="midnightblue" stroke="midnightblue" points="1996.38,-102.9 1990.75,-93.9269 1989.55,-104.454 1996.38,-102.9"/>
</g>
<!-- Node19 -->
<g id="node19" class="node"><title>Node19</title>
<polygon fill="none" stroke="#bfbfbf" points="1872.5,-136.5 1872.5,-155.5 1977.5,-155.5 1977.5,-136.5 1872.5,-136.5"/>
<text text-anchor="middle" x="1925" y="-143.5" font-family="Helvetica,sans-Serif" font-size="10.00">FairParGenericSet.h</text>
</g>
<!-- Node18&#45;&gt;Node19 -->
<g id="edge18" class="edge"><title>Node18&#45;&gt;Node19</title>
<path fill="none" stroke="midnightblue" d="M1853.66,-192.324C1866.92,-183.9 1887.27,-170.971 1902.85,-161.074"/>
<polygon fill="midnightblue" stroke="midnightblue" points="1904.81,-163.971 1911.38,-155.655 1901.06,-158.063 1904.81,-163.971"/>
</g>
<!-- Node20&#45;&gt;Node3 -->
<g id="edge35" class="edge"><title>Node20&#45;&gt;Node3</title>
<path fill="none" stroke="midnightblue" d="M1612.74,-192.468C1584.29,-176.96 1524.74,-141.856 1485,-100 1466.12,-80.1145 1450.39,-52.3496 1441.34,-34.5211"/>
<polygon fill="midnightblue" stroke="midnightblue" points="1444.47,-32.9538 1436.91,-25.5292 1438.19,-36.0466 1444.47,-32.9538"/>
</g>
<!-- Node20&#45;&gt;Node5 -->
<g id="edge21" class="edge"><title>Node20&#45;&gt;Node5</title>
<path fill="none" stroke="midnightblue" d="M1566.73,-192.444C1483.93,-181.067 1340.24,-161.323 1272.86,-152.065"/>
<polygon fill="midnightblue" stroke="midnightblue" points="1273.11,-148.566 1262.73,-150.672 1272.16,-155.501 1273.11,-148.566"/>
</g>
<!-- Node20&#45;&gt;Node21 -->
<g id="edge22" class="edge"><title>Node20&#45;&gt;Node21</title>
<path fill="none" stroke="midnightblue" d="M1700.96,-192.44C1735.13,-186.061 1775.51,-175.021 1808,-156 1837.57,-138.688 1848.32,-131.837 1861,-100 1866.26,-86.7867 1865.88,-81.3588 1861,-68 1856.03,-54.4023 1845.66,-41.9242 1836.35,-32.7144"/>
<polygon fill="midnightblue" stroke="midnightblue" points="1838.63,-30.0482 1828.92,-25.7939 1833.86,-35.1707 1838.63,-30.0482"/>
</g>
<!-- Node22 -->
<g id="node22" class="node"><title>Node22</title>
<polygon fill="none" stroke="#bfbfbf" points="1783.5,-74.5 1783.5,-93.5 1852.5,-93.5 1852.5,-74.5 1783.5,-74.5"/>
<text text-anchor="middle" x="1818" y="-81.5" font-family="Helvetica,sans-Serif" font-size="10.00">TObjArray.h</text>
</g>
<!-- Node20&#45;&gt;Node22 -->
<g id="edge23" class="edge"><title>Node20&#45;&gt;Node22</title>
<path fill="none" stroke="midnightblue" d="M1708.37,-192.43C1735.85,-186.07 1765.2,-175.052 1787,-156 1802.47,-142.479 1810.51,-119.816 1814.49,-103.734"/>
<polygon fill="midnightblue" stroke="midnightblue" points="1817.93,-104.359 1816.63,-93.8449 1811.09,-102.877 1817.93,-104.359"/>
</g>
<!-- Node23 -->
<g id="node23" class="node"><title>Node23</title>
<g id="a_node23"><a xlink:href="../../d8/d64/Chebyshev3D_8h.html" target="_top" xlink:title="MathUtils/Chebyshev3D.h">
<polygon fill="none" stroke="black" points="1646,-136.5 1646,-155.5 1778,-155.5 1778,-136.5 1646,-136.5"/>
<text text-anchor="middle" x="1712" y="-143.5" font-family="Helvetica,sans-Serif" font-size="10.00">MathUtils/Chebyshev3D.h</text>
</a>
</g>
</g>
<!-- Node20&#45;&gt;Node23 -->
<g id="edge24" class="edge"><title>Node20&#45;&gt;Node23</title>
<path fill="none" stroke="midnightblue" d="M1642.34,-192.324C1655.16,-183.979 1674.78,-171.212 1689.94,-161.352"/>
<polygon fill="midnightblue" stroke="midnightblue" points="1692.22,-164.042 1698.7,-155.655 1688.41,-158.174 1692.22,-164.042"/>
</g>
<!-- Node25 -->
<g id="node25" class="node"><title>Node25</title>
<g id="a_node25"><a xlink:href="../../d4/d08/Chebyshev3DCalc_8h.html" target="_top" xlink:title="MathUtils/Chebyshev3DCalc.h">
<polygon fill="none" stroke="black" points="1537,-74.5 1537,-93.5 1689,-93.5 1689,-74.5 1537,-74.5"/>
<text text-anchor="middle" x="1613" y="-81.5" font-family="Helvetica,sans-Serif" font-size="10.00">MathUtils/Chebyshev3DCalc.h</text>
</a>
</g>
</g>
<!-- Node20&#45;&gt;Node25 -->
<g id="edge34" class="edge"><title>Node20&#45;&gt;Node25</title>
<path fill="none" stroke="midnightblue" d="M1627.8,-192.281C1625.21,-173.547 1619.08,-129.098 1615.58,-103.682"/>
<polygon fill="midnightblue" stroke="midnightblue" points="1619.01,-102.933 1614.17,-93.5048 1612.07,-103.889 1619.01,-102.933"/>
</g>
<!-- Node23&#45;&gt;Node3 -->
<g id="edge32" class="edge"><title>Node23&#45;&gt;Node3</title>
<path fill="none" stroke="midnightblue" d="M1645.86,-136.669C1609.56,-130.207 1564.63,-119.021 1528,-100 1510.69,-91.0105 1471.47,-54.3473 1449.22,-32.8733"/>
<polygon fill="midnightblue" stroke="midnightblue" points="1451.47,-30.1824 1441.86,-25.7285 1446.6,-35.2051 1451.47,-30.1824"/>
</g>
<!-- Node23&#45;&gt;Node6 -->
<g id="edge33" class="edge"><title>Node23&#45;&gt;Node6</title>
<path fill="none" stroke="midnightblue" d="M1751.25,-136.467C1804.13,-124.972 1897.63,-104.645 1949.91,-93.2804"/>
<polygon fill="midnightblue" stroke="midnightblue" points="1950.76,-96.6767 1959.79,-91.1322 1949.28,-89.8365 1950.76,-96.6767"/>
</g>
<!-- Node23&#45;&gt;Node21 -->
<g id="edge25" class="edge"><title>Node23&#45;&gt;Node21</title>
<path fill="none" stroke="midnightblue" d="M1718.95,-136.42C1730.52,-122.163 1754.47,-92.7137 1775,-68 1784.61,-56.4238 1795.55,-43.4601 1803.98,-33.4998"/>
<polygon fill="midnightblue" stroke="midnightblue" points="1806.86,-35.5206 1810.66,-25.6302 1801.52,-30.9929 1806.86,-35.5206"/>
</g>
<!-- Node23&#45;&gt;Node22 -->
<g id="edge26" class="edge"><title>Node23&#45;&gt;Node22</title>
<path fill="none" stroke="midnightblue" d="M1727.19,-136.403C1744.66,-126.512 1773.58,-110.144 1794.08,-98.5378"/>
<polygon fill="midnightblue" stroke="midnightblue" points="1795.86,-101.553 1802.84,-93.5806 1792.41,-95.4607 1795.86,-101.553"/>
</g>
<!-- Node24 -->
<g id="node24" class="node"><title>Node24</title>
<polygon fill="none" stroke="#bfbfbf" points="1643.5,-6.5 1643.5,-25.5 1686.5,-25.5 1686.5,-6.5 1643.5,-6.5"/>
<text text-anchor="middle" x="1665" y="-13.5" font-family="Helvetica,sans-Serif" font-size="10.00">cstdio</text>
</g>
<!-- Node23&#45;&gt;Node24 -->
<g id="edge27" class="edge"><title>Node23&#45;&gt;Node24</title>
<path fill="none" stroke="midnightblue" d="M1711.52,-136.147C1710.48,-121.498 1707.31,-91.4967 1698,-68 1693.17,-55.814 1685.26,-43.4401 1678.39,-33.9327"/>
<polygon fill="midnightblue" stroke="midnightblue" points="1681.07,-31.6762 1672.26,-25.7955 1675.48,-35.8885 1681.07,-31.6762"/>
</g>
<!-- Node23&#45;&gt;Node25 -->
<g id="edge28" class="edge"><title>Node23&#45;&gt;Node25</title>
<path fill="none" stroke="midnightblue" d="M1697.82,-136.403C1681.64,-126.601 1654.97,-110.439 1635.86,-98.8526"/>
<polygon fill="midnightblue" stroke="midnightblue" points="1637.52,-95.7705 1627.16,-93.5806 1633.9,-101.757 1637.52,-95.7705"/>
</g>
<!-- Node25&#45;&gt;Node3 -->
<g id="edge31" class="edge"><title>Node25&#45;&gt;Node3</title>
<path fill="none" stroke="midnightblue" d="M1589.47,-74.3717C1557.85,-62.7779 1501.5,-42.1162 1465.75,-29.0087"/>
<polygon fill="midnightblue" stroke="midnightblue" points="1466.85,-25.6824 1456.25,-25.5259 1464.44,-32.2546 1466.85,-25.6824"/>
</g>
<!-- Node25&#45;&gt;Node21 -->
<g id="edge29" class="edge"><title>Node25&#45;&gt;Node21</title>
<path fill="none" stroke="midnightblue" d="M1639.8,-74.3717C1676.2,-62.654 1741.36,-41.6737 1782,-28.5912"/>
<polygon fill="midnightblue" stroke="midnightblue" points="1783.07,-31.9221 1791.52,-25.5259 1780.93,-25.259 1783.07,-31.9221"/>
</g>
<!-- Node25&#45;&gt;Node24 -->
<g id="edge30" class="edge"><title>Node25&#45;&gt;Node24</title>
<path fill="none" stroke="midnightblue" d="M1619.8,-74.3717C1627.85,-64.1512 1641.46,-46.884 1651.64,-33.9571"/>
<polygon fill="midnightblue" stroke="midnightblue" points="1654.59,-35.8621 1658.03,-25.8411 1649.1,-31.53 1654.59,-35.8621"/>
</g>
<!-- Node26&#45;&gt;Node3 -->
<g id="edge37" class="edge"><title>Node26&#45;&gt;Node3</title>
<path fill="none" stroke="midnightblue" d="M1296.91,-193.126C1293.56,-192.721 1290.24,-192.342 1287,-192 1073.08,-169.421 178.442,-223.566 327,-68 364.641,-28.5832 1203.94,-18.9773 1394.68,-17.3002"/>
<polygon fill="midnightblue" stroke="midnightblue" points="1394.82,-20.7992 1404.79,-17.2134 1394.76,-13.7994 1394.82,-20.7992"/>
</g>
<!-- Node27 -->
<g id="node27" class="node"><title>Node27</title>
<polygon fill="none" stroke="#bfbfbf" points="1330.5,-136.5 1330.5,-155.5 1371.5,-155.5 1371.5,-136.5 1330.5,-136.5"/>
<text text-anchor="middle" x="1351" y="-143.5" font-family="Helvetica,sans-Serif" font-size="10.00">string</text>
</g>
<!-- Node26&#45;&gt;Node27 -->
<g id="edge38" class="edge"><title>Node26&#45;&gt;Node27</title>
<path fill="none" stroke="midnightblue" d="M1351,-192.083C1351,-185.006 1351,-174.861 1351,-165.986"/>
<polygon fill="midnightblue" stroke="midnightblue" points="1354.5,-165.751 1351,-155.751 1347.5,-165.751 1354.5,-165.751"/>
</g>
<!-- Node28 -->
<g id="node28" class="node"><title>Node28</title>
<g id="a_node28"><a xlink:href="../../dd/d76/Cartesian3D_8h.html" target="_top" xlink:title="MathUtils/Cartesian3D.h">
<polygon fill="none" stroke="black" points="787.5,-136.5 787.5,-155.5 912.5,-155.5 912.5,-136.5 787.5,-136.5"/>
<text text-anchor="middle" x="850" y="-143.5" font-family="Helvetica,sans-Serif" font-size="10.00">MathUtils/Cartesian3D.h</text>
</a>
</g>
</g>
<!-- Node26&#45;&gt;Node28 -->
<g id="edge39" class="edge"><title>Node26&#45;&gt;Node28</title>
<path fill="none" stroke="midnightblue" d="M1296.9,-193.248C1293.55,-192.813 1290.23,-192.393 1287,-192 1159.01,-176.416 1009.49,-161.79 922.689,-153.653"/>
<polygon fill="midnightblue" stroke="midnightblue" points="922.961,-150.164 912.679,-152.718 922.31,-157.133 922.961,-150.164"/>
</g>
<!-- Node28&#45;&gt;Node2 -->
<g id="edge50" class="edge"><title>Node28&#45;&gt;Node2</title>
<path fill="none" stroke="midnightblue" d="M787.361,-144.547C699.335,-142.61 534.618,-134.213 399,-100 396.011,-99.2459 392.946,-98.2855 389.927,-97.2162"/>
<polygon fill="midnightblue" stroke="midnightblue" points="391.177,-93.9466 380.589,-93.5477 388.617,-100.462 391.177,-93.9466"/>
</g>
<!-- Node28&#45;&gt;Node3 -->
<g id="edge43" class="edge"><title>Node28&#45;&gt;Node3</title>
<path fill="none" stroke="midnightblue" d="M912.728,-142.632C1043.58,-137.262 1336.79,-122.825 1376,-100 1401.1,-85.3889 1417.63,-54.7843 1426.14,-35.0994"/>
<polygon fill="midnightblue" stroke="midnightblue" points="1429.44,-36.2824 1429.95,-25.7002 1422.95,-33.6496 1429.44,-36.2824"/>
</g>
<!-- Node29 -->
<g id="node29" class="node"><title>Node29</title>
<polygon fill="none" stroke="#bfbfbf" points="865.5,-74.5 865.5,-93.5 1014.5,-93.5 1014.5,-74.5 865.5,-74.5"/>
<text text-anchor="middle" x="940" y="-81.5" font-family="Helvetica,sans-Serif" font-size="10.00">Math/GenVector/Rotation3D.h</text>
</g>
<!-- Node28&#45;&gt;Node29 -->
<g id="edge40" class="edge"><title>Node28&#45;&gt;Node29</title>
<path fill="none" stroke="midnightblue" d="M862.895,-136.403C877.464,-126.691 901.402,-110.732 918.745,-99.1697"/>
<polygon fill="midnightblue" stroke="midnightblue" points="920.75,-102.04 927.129,-93.5806 916.867,-96.2155 920.75,-102.04"/>
</g>
<!-- Node30 -->
<g id="node30" class="node"><title>Node30</title>
<polygon fill="none" stroke="#bfbfbf" points="1033,-74.5 1033,-93.5 1189,-93.5 1189,-74.5 1033,-74.5"/>
<text text-anchor="middle" x="1111" y="-81.5" font-family="Helvetica,sans-Serif" font-size="10.00">Math/GenVector/Transform3D.h</text>
</g>
<!-- Node28&#45;&gt;Node30 -->
<g id="edge41" class="edge"><title>Node28&#45;&gt;Node30</title>
<path fill="none" stroke="midnightblue" d="M887.118,-136.467C933.596,-125.783 1013.26,-107.469 1063.96,-95.8129"/>
<polygon fill="midnightblue" stroke="midnightblue" points="1065.05,-99.1549 1074.01,-93.5034 1063.48,-92.3328 1065.05,-99.1549"/>
</g>
<!-- Node31 -->
<g id="node31" class="node"><title>Node31</title>
<polygon fill="none" stroke="#bfbfbf" points="1207,-74.5 1207,-93.5 1367,-93.5 1367,-74.5 1207,-74.5"/>
<text text-anchor="middle" x="1287" y="-81.5" font-family="Helvetica,sans-Serif" font-size="10.00">Math/GenVector/Translation3D.h</text>
</g>
<!-- Node28&#45;&gt;Node31 -->
<g id="edge42" class="edge"><title>Node28&#45;&gt;Node31</title>
<path fill="none" stroke="midnightblue" d="M912.651,-137.633C982.4,-129.26 1098.43,-114.823 1198,-100 1207.88,-98.5291 1218.36,-96.8606 1228.53,-95.1841"/>
<polygon fill="midnightblue" stroke="midnightblue" points="1229.27,-98.6091 1238.55,-93.512 1228.11,-91.7045 1229.27,-98.6091"/>
</g>
<!-- Node32 -->
<g id="node32" class="node"><title>Node32</title>
<polygon fill="none" stroke="#bfbfbf" points="408,-74.5 408,-93.5 484,-93.5 484,-74.5 408,-74.5"/>
<text text-anchor="middle" x="446" y="-81.5" font-family="Helvetica,sans-Serif" font-size="10.00">TGeoMatrix.h</text>
</g>
<!-- Node28&#45;&gt;Node32 -->
<g id="edge44" class="edge"><title>Node28&#45;&gt;Node32</title>
<path fill="none" stroke="midnightblue" d="M787.495,-140.615C715.756,-134.779 594.874,-122.477 493,-100 488.766,-99.0657 484.368,-97.9144 480.037,-96.6684"/>
<polygon fill="midnightblue" stroke="midnightblue" points="480.748,-93.2258 470.162,-93.6467 478.7,-99.9195 480.748,-93.2258"/>
</g>
<!-- Node33 -->
<g id="node33" class="node"><title>Node33</title>
<polygon fill="none" stroke="#bfbfbf" points="502.5,-69 502.5,-99 653.5,-99 653.5,-69 502.5,-69"/>
<text text-anchor="start" x="510.5" y="-87" font-family="Helvetica,sans-Serif" font-size="10.00">Math/GenVector/Displacement</text>
<text text-anchor="middle" x="578" y="-76" font-family="Helvetica,sans-Serif" font-size="10.00">Vector3D.h</text>
</g>
<!-- Node28&#45;&gt;Node33 -->
<g id="edge45" class="edge"><title>Node28&#45;&gt;Node33</title>
<path fill="none" stroke="midnightblue" d="M811.318,-136.467C769.93,-127.337 703.29,-112.638 651.806,-101.281"/>
<polygon fill="midnightblue" stroke="midnightblue" points="652.242,-97.7929 641.723,-99.0565 650.734,-104.629 652.242,-97.7929"/>
</g>
<!-- Node34 -->
<g id="node34" class="node"><title>Node34</title>
<polygon fill="none" stroke="#bfbfbf" points="672,-74.5 672,-93.5 848,-93.5 848,-74.5 672,-74.5"/>
<text text-anchor="middle" x="760" y="-81.5" font-family="Helvetica,sans-Serif" font-size="10.00">Math/GenVector/PositionVector3D.h</text>
</g>
<!-- Node28&#45;&gt;Node34 -->
<g id="edge46" class="edge"><title>Node28&#45;&gt;Node34</title>
<path fill="none" stroke="midnightblue" d="M837.105,-136.403C822.536,-126.691 798.598,-110.732 781.255,-99.1697"/>
<polygon fill="midnightblue" stroke="midnightblue" points="783.133,-96.2155 772.871,-93.5806 779.25,-102.04 783.133,-96.2155"/>
</g>
<!-- Node35 -->
<g id="node35" class="node"><title>Node35</title>
<g id="a_node35"><a xlink:href="../../d2/dd0/Cartesian2D_8h.html" target="_top" xlink:title="MathUtils/Cartesian2D.h">
<polygon fill="none" stroke="black" points="116.5,-74.5 116.5,-93.5 241.5,-93.5 241.5,-74.5 116.5,-74.5"/>
<text text-anchor="middle" x="179" y="-81.5" font-family="Helvetica,sans-Serif" font-size="10.00">MathUtils/Cartesian2D.h</text>
</a>
</g>
</g>
<!-- Node28&#45;&gt;Node35 -->
<g id="edge47" class="edge"><title>Node28&#45;&gt;Node35</title>
<path fill="none" stroke="midnightblue" d="M787.178,-139.905C688.953,-131.868 493.048,-115.557 327,-100 302.476,-97.7023 275.683,-95.0347 251.715,-92.5916"/>
<polygon fill="midnightblue" stroke="midnightblue" points="251.935,-89.096 241.631,-91.5601 251.223,-96.0597 251.935,-89.096"/>
</g>
<!-- Node36 -->
<g id="node36" class="node"><title>Node36</title>
<polygon fill="none" stroke="#bfbfbf" points="194.5,-1 194.5,-31 345.5,-31 345.5,-1 194.5,-1"/>
<text text-anchor="start" x="202.5" y="-19" font-family="Helvetica,sans-Serif" font-size="10.00">Math/GenVector/Displacement</text>
<text text-anchor="middle" x="270" y="-8" font-family="Helvetica,sans-Serif" font-size="10.00">Vector2D.h</text>
</g>
<!-- Node35&#45;&gt;Node36 -->
<g id="edge48" class="edge"><title>Node35&#45;&gt;Node36</title>
<path fill="none" stroke="midnightblue" d="M190.897,-74.3717C203.779,-65.0286 224.78,-49.7966 241.907,-37.375"/>
<polygon fill="midnightblue" stroke="midnightblue" points="244.407,-39.8859 250.447,-31.1815 240.297,-34.2194 244.407,-39.8859"/>
</g>
<!-- Node37 -->
<g id="node37" class="node"><title>Node37</title>
<polygon fill="none" stroke="#bfbfbf" points="0,-6.5 0,-25.5 176,-25.5 176,-6.5 0,-6.5"/>
<text text-anchor="middle" x="88" y="-13.5" font-family="Helvetica,sans-Serif" font-size="10.00">Math/GenVector/PositionVector2D.h</text>
</g>
<!-- Node35&#45;&gt;Node37 -->
<g id="edge49" class="edge"><title>Node35&#45;&gt;Node37</title>
<path fill="none" stroke="midnightblue" d="M167.103,-74.3717C152.116,-63.5015 126.138,-44.6602 108.058,-31.5474"/>
<polygon fill="midnightblue" stroke="midnightblue" points="110.05,-28.6684 99.8996,-25.6305 105.94,-34.3349 110.05,-28.6684"/>
</g>
</g>
</svg>
        <g id="navigator" transform="translate(0 0)" fill="#404254">
                <rect fill="#f2f5e9" fill-opacity="0.5" stroke="#606060" stroke-width=".5" x="0" y="0" width="60" height="60"/>
                <use id="zoomplus" xlink:href="#zoomPlus" x="17" y="9" onmousedown="handleZoom(evt,'in')"/>
                <use id="zoomminus" xlink:href="#zoomMin" x="42" y="9" onmousedown="handleZoom(evt,'out')"/>
                <use id="reset" xlink:href="#resetDef" x="30" y="36" onmousedown="handleReset()"/>
                <g id="arrowUp" xlink:href="#dirArrow" transform="translate(30 24)" onmousedown="handlePan(0,-1)">
                  <use xlink:href="#rim" fill="#404040">
                        <set attributeName="fill" to="#808080" begin="arrowUp.mouseover" end="arrowUp.mouseout"/>
                  </use>
                  <path fill="none" stroke="white" stroke-width="1.5" d="M0,-3.0v7 M-2.5,-0.5L0,-3.0L2.5,-0.5"/>
                </g>
                <g id="arrowRight" xlink:href="#dirArrow" transform="rotate(90) translate(36 -43)" onmousedown="handlePan(1,0)">
                  <use xlink:href="#rim" fill="#404040">
                        <set attributeName="fill" to="#808080" begin="arrowRight.mouseover" end="arrowRight.mouseout"/>
                  </use>
                  <path fill="none" stroke="white" stroke-width="1.5" d="M0,-3.0v7 M-2.5,-0.5L0,-3.0L2.5,-0.5"/>
                </g>
                <g id="arrowDown" xlink:href="#dirArrow" transform="rotate(180) translate(-30 -48)" onmousedown="handlePan(0,1)">
                  <use xlink:href="#rim" fill="#404040">
                        <set attributeName="fill" to="#808080" begin="arrowDown.mouseover" end="arrowDown.mouseout"/>
                  </use>
                  <path fill="none" stroke="white" stroke-width="1.5" d="M0,-3.0v7 M-2.5,-0.5L0,-3.0L2.5,-0.5"/>
                </g>
                <g id="arrowLeft" xlink:href="#dirArrow" transform="rotate(270) translate(-36 17)" onmousedown="handlePan(-1,0)">
                  <use xlink:href="#rim" fill="#404040">
                        <set attributeName="fill" to="#808080" begin="arrowLeft.mouseover" end="arrowLeft.mouseout"/>
                  </use>
                  <path fill="none" stroke="white" stroke-width="1.5" d="M0,-3.0v7 M-2.5,-0.5L0,-3.0L2.5,-0.5"/>
                </g>
        </g>
        <svg viewBox="0 0 15 15" width="100%" height="30px" preserveAspectRatio="xMaxYMin meet">
         <g id="arrow_out" transform="scale(0.3 0.3)">
          <a xlink:href="run__sim__phos_8C__incl_org.svg" target="_base">
           <rect id="button" ry="5" rx="5" y="6" x="6" height="38" width="38"
                fill="#f2f5e9" fill-opacity="0.5" stroke="#606060" stroke-width="1.0"/>
           <path id="arrow"
             d="M 11.500037,31.436501 C 11.940474,20.09759 22.043105,11.32322 32.158766,21.979434 L 37.068811,17.246167 C 37.068811,17.246167 37.088388,32 37.088388,32 L 22.160133,31.978069 C 22.160133,31.978069 26.997745,27.140456 26.997745,27.140456 C 18.528582,18.264221 13.291696,25.230495 11.500037,31.436501 z"
             style="fill:#404040;"/>
          </a>
         </g>
        </svg>
</svg>
