<?xml version="1.0" encoding="UTF-8" standalone="no"?>
<!DOCTYPE svg PUBLIC "-//W3C//DTD SVG 1.1//EN"
 "http://www.w3.org/Graphics/SVG/1.1/DTD/svg11.dtd">
<!-- Generated by graphviz version 2.36.0 (20140111.2315)
 -->
<!-- Title: /home/travis/build/AliceO2Group/AliceO2/Detectors/FIT/simulation/src/Detector.cxx Pages: 1 -->
<!--zoomable 378 -->
<svg id="main" version="1.1" xmlns="http://www.w3.org/2000/svg" xmlns:xlink="http://www.w3.org/1999/xlink" xml:space="preserve" onload="init(evt)">
<style type="text/css"><![CDATA[
.edge:hover path { stroke: red; }
.edge:hover polygon { stroke: red; fill: red; }
]]></style>
<script type="text/javascript"><![CDATA[
var edges = document.getElementsByTagName('g');
if (edges && edges.length) {
  for (var i=0;i<edges.length;i++) {
    if (edges[i].id.substr(0,4)=='edge') {
      edges[i].setAttribute('class','edge');
    }
  }
}
]]></script>
        <defs>
                <circle id="rim" cx="0" cy="0" r="7"/>
                <circle id="rim2" cx="0" cy="0" r="3.5"/>
                <g id="zoomPlus">
                        <use xlink:href="#rim" fill="#404040">
                                <set attributeName="fill" to="#808080" begin="zoomplus.mouseover" end="zoomplus.mouseout"/>
                        </use>
                        <path d="M-4,0h8M0,-4v8" fill="none" stroke="white" stroke-width="1.5" pointer-events="none"/>
                </g>
                <g id="zoomMin">
                        <use xlink:href="#rim" fill="#404040">
                                <set attributeName="fill" to="#808080" begin="zoomminus.mouseover" end="zoomminus.mouseout"/>
                        </use>
                        <path d="M-4,0h8" fill="none" stroke="white" stroke-width="1.5" pointer-events="none"/>
                </g>
                <g id="dirArrow">
                        <path fill="none" stroke="white" stroke-width="1.5" d="M0,-3.0v7 M-2.5,-0.5L0,-3.0L2.5,-0.5"/>
                </g>
               <g id="resetDef">
                       <use xlink:href="#rim2" fill="#404040">
                               <set attributeName="fill" to="#808080" begin="reset.mouseover" end="reset.mouseout"/>
                       </use>
               </g>
        </defs>

<script type="text/javascript">
var viewWidth = 1734;
var viewHeight = 378;
var sectionId = 'dynsection-0';
</script>
<script xlink:href="../../svgpan.js"/>
<svg id="graph" class="graph">
<g id="viewport">
<title>/home/travis/build/AliceO2Group/AliceO2/Detectors/FIT/simulation/src/Detector.cxx</title>
<!-- Node1 -->
<g id="node1" class="node"><title>Node1</title>
<polygon fill="#bfbfbf" stroke="black" points="551,-317 551,-369 679,-369 679,-317 551,-317"/>
<text text-anchor="start" x="559" y="-357" font-family="Helvetica,sans-Serif" font-size="10.00">/home/travis/build</text>
<text text-anchor="start" x="559" y="-346" font-family="Helvetica,sans-Serif" font-size="10.00">/AliceO2Group/AliceO2</text>
<text text-anchor="start" x="559" y="-335" font-family="Helvetica,sans-Serif" font-size="10.00">/Detectors/FIT/simulation</text>
<text text-anchor="middle" x="615" y="-324" font-family="Helvetica,sans-Serif" font-size="10.00">/src/Detector.cxx</text>
</g>
<!-- Node2 -->
<g id="node2" class="node"><title>Node2</title>
<polygon fill="none" stroke="#bfbfbf" points="-0.5,-260.5 -0.5,-279.5 84.5,-279.5 84.5,-260.5 -0.5,-260.5"/>
<text text-anchor="middle" x="42" y="-267.5" font-family="Helvetica,sans-Serif" font-size="10.00">TClonesArray.h</text>
</g>
<!-- Node1&#45;&gt;Node2 -->
<g id="edge1" class="edge"><title>Node1&#45;&gt;Node2</title>
<path fill="none" stroke="midnightblue" d="M550.689,-335.454C454.045,-325.373 265.404,-304.745 94.4718,-279.997"/>
<polygon fill="midnightblue" stroke="midnightblue" points="94.9377,-276.528 84.5378,-278.551 93.9294,-283.455 94.9377,-276.528"/>
</g>
<!-- Node3 -->
<g id="node3" class="node"><title>Node3</title>
<polygon fill="none" stroke="#bfbfbf" points="103,-260.5 103,-279.5 189,-279.5 189,-260.5 103,-260.5"/>
<text text-anchor="middle" x="146" y="-267.5" font-family="Helvetica,sans-Serif" font-size="10.00">TGeoManager.h</text>
</g>
<!-- Node1&#45;&gt;Node3 -->
<g id="edge2" class="edge"><title>Node1&#45;&gt;Node3</title>
<path fill="none" stroke="midnightblue" d="M550.99,-332.965C471.156,-321.589 330.219,-301.151 199.325,-280.184"/>
<polygon fill="midnightblue" stroke="midnightblue" points="199.546,-276.674 189.117,-278.544 198.435,-283.585 199.546,-276.674"/>
</g>
<!-- Node4 -->
<g id="node4" class="node"><title>Node4</title>
<polygon fill="none" stroke="#bfbfbf" points="207,-260.5 207,-279.5 299,-279.5 299,-260.5 207,-260.5"/>
<text text-anchor="middle" x="253" y="-267.5" font-family="Helvetica,sans-Serif" font-size="10.00">TLorentzVector.h</text>
</g>
<!-- Node1&#45;&gt;Node4 -->
<g id="edge3" class="edge"><title>Node1&#45;&gt;Node4</title>
<path fill="none" stroke="midnightblue" d="M550.699,-329.388C481.174,-315.752 371.605,-294.262 306.573,-281.508"/>
<polygon fill="midnightblue" stroke="midnightblue" points="307.018,-278.028 296.532,-279.538 305.671,-284.897 307.018,-278.028"/>
</g>
<!-- Node5 -->
<g id="node5" class="node"><title>Node5</title>
<polygon fill="none" stroke="#bfbfbf" points="317.5,-260.5 317.5,-279.5 370.5,-279.5 370.5,-260.5 317.5,-260.5"/>
<text text-anchor="middle" x="344" y="-267.5" font-family="Helvetica,sans-Serif" font-size="10.00">TMath.h</text>
</g>
<!-- Node1&#45;&gt;Node5 -->
<g id="edge4" class="edge"><title>Node1&#45;&gt;Node5</title>
<path fill="none" stroke="midnightblue" d="M550.777,-325.174C497.597,-311.241 423.941,-291.944 380.403,-280.537"/>
<polygon fill="midnightblue" stroke="midnightblue" points="381.099,-277.102 370.538,-277.953 379.325,-283.873 381.099,-277.102"/>
</g>
<!-- Node6 -->
<g id="node6" class="node"><title>Node6</title>
<polygon fill="none" stroke="#bfbfbf" points="388.5,-260.5 388.5,-279.5 445.5,-279.5 445.5,-260.5 388.5,-260.5"/>
<text text-anchor="middle" x="417" y="-267.5" font-family="Helvetica,sans-Serif" font-size="10.00">TGraph.h</text>
</g>
<!-- Node1&#45;&gt;Node6 -->
<g id="edge5" class="edge"><title>Node1&#45;&gt;Node6</title>
<path fill="none" stroke="midnightblue" d="M550.989,-319.046C517.58,-307.067 478.071,-292.899 450.65,-283.067"/>
<polygon fill="midnightblue" stroke="midnightblue" points="451.723,-279.733 441.129,-279.652 449.36,-286.322 451.723,-279.733"/>
</g>
<!-- Node7 -->
<g id="node7" class="node"><title>Node7</title>
<polygon fill="none" stroke="#bfbfbf" points="464,-260.5 464,-279.5 520,-279.5 520,-260.5 464,-260.5"/>
<text text-anchor="middle" x="492" y="-267.5" font-family="Helvetica,sans-Serif" font-size="10.00">TString.h</text>
</g>
<!-- Node1&#45;&gt;Node7 -->
<g id="edge6" class="edge"><title>Node1&#45;&gt;Node7</title>
<path fill="none" stroke="midnightblue" d="M571.635,-316.968C552.962,-306.19 531.841,-293.997 516.044,-284.879"/>
<polygon fill="midnightblue" stroke="midnightblue" points="517.376,-281.607 506.966,-279.639 513.877,-287.669 517.376,-281.607"/>
</g>
<!-- Node8 -->
<g id="node8" class="node"><title>Node8</title>
<polygon fill="none" stroke="#bfbfbf" points="538.5,-260.5 538.5,-279.5 603.5,-279.5 603.5,-260.5 538.5,-260.5"/>
<text text-anchor="middle" x="571" y="-267.5" font-family="Helvetica,sans-Serif" font-size="10.00">TSystem.h</text>
</g>
<!-- Node1&#45;&gt;Node8 -->
<g id="edge7" class="edge"><title>Node1&#45;&gt;Node8</title>
<path fill="none" stroke="midnightblue" d="M599.363,-316.768C593.549,-307.385 587.085,-296.955 581.798,-288.425"/>
<polygon fill="midnightblue" stroke="midnightblue" points="584.67,-286.414 576.427,-279.757 578.72,-290.101 584.67,-286.414"/>
</g>
<!-- Node9 -->
<g id="node9" class="node"><title>Node9</title>
<polygon fill="none" stroke="#bfbfbf" points="622,-260.5 622,-279.5 696,-279.5 696,-260.5 622,-260.5"/>
<text text-anchor="middle" x="659" y="-267.5" font-family="Helvetica,sans-Serif" font-size="10.00">TVirtualMC.h</text>
</g>
<!-- Node1&#45;&gt;Node9 -->
<g id="edge8" class="edge"><title>Node1&#45;&gt;Node9</title>
<path fill="none" stroke="midnightblue" d="M630.637,-316.768C636.451,-307.385 642.915,-296.955 648.202,-288.425"/>
<polygon fill="midnightblue" stroke="midnightblue" points="651.28,-290.101 653.573,-279.757 645.33,-286.414 651.28,-290.101"/>
</g>
<!-- Node10 -->
<g id="node10" class="node"><title>Node10</title>
<polygon fill="none" stroke="#bfbfbf" points="856,-136.5 856,-155.5 956,-155.5 956,-136.5 856,-136.5"/>
<text text-anchor="middle" x="906" y="-143.5" font-family="Helvetica,sans-Serif" font-size="10.00">FairRootManager.h</text>
</g>
<!-- Node1&#45;&gt;Node10 -->
<g id="edge9" class="edge"><title>Node1&#45;&gt;Node10</title>
<path fill="none" stroke="midnightblue" d="M679.226,-333.358C744.118,-323.384 838.478,-305.078 865,-280 897.096,-249.651 904.26,-194.823 905.733,-165.954"/>
<polygon fill="midnightblue" stroke="midnightblue" points="909.241,-165.74 906.068,-155.632 902.245,-165.513 909.241,-165.74"/>
</g>
<!-- Node11 -->
<g id="node11" class="node"><title>Node11</title>
<polygon fill="none" stroke="#bfbfbf" points="934.5,-260.5 934.5,-279.5 1005.5,-279.5 1005.5,-260.5 934.5,-260.5"/>
<text text-anchor="middle" x="970" y="-267.5" font-family="Helvetica,sans-Serif" font-size="10.00">FairLogger.h</text>
</g>
<!-- Node1&#45;&gt;Node11 -->
<g id="edge10" class="edge"><title>Node1&#45;&gt;Node11</title>
<path fill="none" stroke="midnightblue" d="M679.288,-329.142C750.075,-314.985 862.091,-292.582 924.387,-280.123"/>
<polygon fill="midnightblue" stroke="midnightblue" points="925.193,-283.531 934.313,-278.137 923.821,-276.667 925.193,-283.531"/>
</g>
<!-- Node12 -->
<g id="node12" class="node"><title>Node12</title>
<polygon fill="none" stroke="#bfbfbf" points="1024,-260.5 1024,-279.5 1098,-279.5 1098,-260.5 1024,-260.5"/>
<text text-anchor="middle" x="1061" y="-267.5" font-family="Helvetica,sans-Serif" font-size="10.00">FairVolume.h</text>
</g>
<!-- Node1&#45;&gt;Node12 -->
<g id="edge11" class="edge"><title>Node1&#45;&gt;Node12</title>
<path fill="none" stroke="midnightblue" d="M679.035,-332.756C755.863,-321.506 888.818,-301.537 1013.7,-279.997"/>
<polygon fill="midnightblue" stroke="midnightblue" points="1014.57,-283.399 1023.82,-278.244 1013.37,-276.501 1014.57,-283.399"/>
</g>
<!-- Node13 -->
<g id="node13" class="node"><title>Node13</title>
<polygon fill="none" stroke="#bfbfbf" points="1116,-260.5 1116,-279.5 1168,-279.5 1168,-260.5 1116,-260.5"/>
<text text-anchor="middle" x="1142" y="-267.5" font-family="Helvetica,sans-Serif" font-size="10.00">sstream</text>
</g>
<!-- Node1&#45;&gt;Node13 -->
<g id="edge12" class="edge"><title>Node1&#45;&gt;Node13</title>
<path fill="none" stroke="midnightblue" d="M679.093,-336.53C771.448,-328.073 947.376,-309.811 1105.78,-280.027"/>
<polygon fill="midnightblue" stroke="midnightblue" points="1106.54,-283.446 1115.71,-278.141 1105.23,-276.569 1106.54,-283.446"/>
</g>
<!-- Node14 -->
<g id="node14" class="node"><title>Node14</title>
<g id="a_node14"><a xlink:href="../../d1/db1/FIT_2base_2include_2FITBase_2Geometry_8h.html" target="_top" xlink:title="FITBase/Geometry.h">
<polygon fill="none" stroke="black" points="759,-198.5 759,-217.5 867,-217.5 867,-198.5 759,-198.5"/>
<text text-anchor="middle" x="813" y="-205.5" font-family="Helvetica,sans-Serif" font-size="10.00">FITBase/Geometry.h</text>
</a>
</g>
</g>
<!-- Node1&#45;&gt;Node14 -->
<g id="edge13" class="edge"><title>Node1&#45;&gt;Node14</title>
<path fill="none" stroke="midnightblue" d="M679.232,-333.799C741.134,-324.422 828.367,-306.812 849,-280 862.207,-262.839 845.76,-240.087 831.013,-225.017"/>
<polygon fill="midnightblue" stroke="midnightblue" points="833.255,-222.317 823.621,-217.907 828.402,-227.362 833.255,-222.317"/>
</g>
<!-- Node17 -->
<g id="node17" class="node"><title>Node17</title>
<g id="a_node17"><a xlink:href="../../de/d6b/FIT_2simulation_2include_2FITSimulation_2Detector_8h.html" target="_top" xlink:title="FITSimulation/Detector.h">
<polygon fill="none" stroke="black" points="714,-260.5 714,-279.5 840,-279.5 840,-260.5 714,-260.5"/>
<text text-anchor="middle" x="777" y="-267.5" font-family="Helvetica,sans-Serif" font-size="10.00">FITSimulation/Detector.h</text>
</a>
</g>
</g>
<!-- Node1&#45;&gt;Node17 -->
<g id="edge16" class="edge"><title>Node1&#45;&gt;Node17</title>
<path fill="none" stroke="midnightblue" d="M672.115,-316.968C697.752,-305.732 726.895,-292.96 747.943,-283.735"/>
<polygon fill="midnightblue" stroke="midnightblue" points="749.535,-286.859 757.289,-279.639 746.725,-280.447 749.535,-286.859"/>
</g>
<!-- Node15 -->
<g id="node15" class="node"><title>Node15</title>
<polygon fill="none" stroke="#bfbfbf" points="1318,-74.5 1318,-93.5 1374,-93.5 1374,-74.5 1318,-74.5"/>
<text text-anchor="middle" x="1346" y="-81.5" font-family="Helvetica,sans-Serif" font-size="10.00">Rtypes.h</text>
</g>
<!-- Node14&#45;&gt;Node15 -->
<g id="edge14" class="edge"><title>Node14&#45;&gt;Node15</title>
<path fill="none" stroke="midnightblue" d="M814.37,-198.241C817.296,-182.778 825.714,-150.872 847,-136 915.808,-87.927 1139.56,-109.081 1223,-100 1251.32,-96.9183 1283.25,-93.0118 1307.47,-89.958"/>
<polygon fill="midnightblue" stroke="midnightblue" points="1308.21,-93.3932 1317.69,-88.6638 1307.33,-86.4487 1308.21,-93.3932"/>
</g>
<!-- Node16 -->
<g id="node16" class="node"><title>Node16</title>
<polygon fill="none" stroke="#bfbfbf" points="734.5,-136.5 734.5,-155.5 799.5,-155.5 799.5,-136.5 734.5,-136.5"/>
<text text-anchor="middle" x="767" y="-143.5" font-family="Helvetica,sans-Serif" font-size="10.00">TVector3.h</text>
</g>
<!-- Node14&#45;&gt;Node16 -->
<g id="edge15" class="edge"><title>Node14&#45;&gt;Node16</title>
<path fill="none" stroke="midnightblue" d="M806.409,-198.403C799.509,-189.403 788.498,-175.041 779.866,-163.782"/>
<polygon fill="midnightblue" stroke="midnightblue" points="782.44,-161.387 773.578,-155.581 776.885,-165.646 782.44,-161.387"/>
</g>
<!-- Node17&#45;&gt;Node14 -->
<g id="edge44" class="edge"><title>Node17&#45;&gt;Node14</title>
<path fill="none" stroke="midnightblue" d="M782.158,-260.403C787.451,-251.582 795.835,-237.608 802.527,-226.455"/>
<polygon fill="midnightblue" stroke="midnightblue" points="805.708,-227.956 807.852,-217.581 799.705,-224.355 805.708,-227.956"/>
</g>
<!-- Node18 -->
<g id="node18" class="node"><title>Node18</title>
<g id="a_node18"><a xlink:href="../../d4/d25/BaseHits_8h.html" target="_top" xlink:title="SimulationDataFormat\l/BaseHits.h">
<polygon fill="none" stroke="black" points="607,-193 607,-223 721,-223 721,-193 607,-193"/>
<text text-anchor="start" x="615" y="-211" font-family="Helvetica,sans-Serif" font-size="10.00">SimulationDataFormat</text>
<text text-anchor="middle" x="664" y="-200" font-family="Helvetica,sans-Serif" font-size="10.00">/BaseHits.h</text>
</a>
</g>
</g>
<!-- Node17&#45;&gt;Node18 -->
<g id="edge17" class="edge"><title>Node17&#45;&gt;Node18</title>
<path fill="none" stroke="midnightblue" d="M760.81,-260.403C744.933,-251.974 720.197,-238.839 699.702,-227.957"/>
<polygon fill="midnightblue" stroke="midnightblue" points="701.105,-224.739 690.632,-223.141 697.823,-230.922 701.105,-224.739"/>
</g>
<!-- Node30 -->
<g id="node30" class="node"><title>Node30</title>
<g id="a_node30"><a xlink:href="../../d1/d3a/Base_2include_2DetectorsBase_2Detector_8h.html" target="_top" xlink:title="DetectorsBase/Detector.h">
<polygon fill="none" stroke="black" points="1209.5,-198.5 1209.5,-217.5 1340.5,-217.5 1340.5,-198.5 1209.5,-198.5"/>
<text text-anchor="middle" x="1275" y="-205.5" font-family="Helvetica,sans-Serif" font-size="10.00">DetectorsBase/Detector.h</text>
</a>
</g>
</g>
<!-- Node17&#45;&gt;Node30 -->
<g id="edge30" class="edge"><title>Node17&#45;&gt;Node30</title>
<path fill="none" stroke="midnightblue" d="M840.072,-261.401C931.579,-250.376 1100.92,-229.973 1199.13,-218.141"/>
<polygon fill="midnightblue" stroke="midnightblue" points="1199.77,-221.589 1209.28,-216.918 1198.93,-214.64 1199.77,-221.589"/>
</g>
<!-- Node19 -->
<g id="node19" class="node"><title>Node19</title>
<g id="a_node19"><a xlink:href="../../dd/d76/Cartesian3D_8h.html" target="_top" xlink:title="MathUtils/Cartesian3D.h">
<polygon fill="none" stroke="black" points="591.5,-136.5 591.5,-155.5 716.5,-155.5 716.5,-136.5 591.5,-136.5"/>
<text text-anchor="middle" x="654" y="-143.5" font-family="Helvetica,sans-Serif" font-size="10.00">MathUtils/Cartesian3D.h</text>
</a>
</g>
</g>
<!-- Node18&#45;&gt;Node19 -->
<g id="edge18" class="edge"><title>Node18&#45;&gt;Node19</title>
<path fill="none" stroke="midnightblue" d="M661.63,-192.781C660.282,-184.691 658.577,-174.462 657.121,-165.725"/>
<polygon fill="midnightblue" stroke="midnightblue" points="660.552,-165.019 655.455,-155.731 653.647,-166.17 660.552,-165.019"/>
</g>
<!-- Node19&#45;&gt;Node15 -->
<g id="edge22" class="edge"><title>Node19&#45;&gt;Node15</title>
<path fill="none" stroke="midnightblue" d="M716.807,-136.954C719.914,-136.617 722.991,-136.297 726,-136 946.398,-114.258 1002.57,-121.411 1223,-100 1251.35,-97.2462 1283.28,-93.3284 1307.5,-90.1873"/>
<polygon fill="midnightblue" stroke="midnightblue" points="1308.25,-93.6192 1317.71,-88.8501 1307.34,-86.6785 1308.25,-93.6192"/>
</g>
<!-- Node20 -->
<g id="node20" class="node"><title>Node20</title>
<polygon fill="none" stroke="#bfbfbf" points="1065.5,-74.5 1065.5,-93.5 1214.5,-93.5 1214.5,-74.5 1065.5,-74.5"/>
<text text-anchor="middle" x="1140" y="-81.5" font-family="Helvetica,sans-Serif" font-size="10.00">Math/GenVector/Rotation3D.h</text>
</g>
<!-- Node19&#45;&gt;Node20 -->
<g id="edge19" class="edge"><title>Node19&#45;&gt;Node20</title>
<path fill="none" stroke="midnightblue" d="M716.821,-137.087C719.924,-136.715 722.997,-136.351 726,-136 872.978,-118.822 910.544,-121.172 1057,-100 1066.47,-98.6317 1076.5,-96.9852 1086.21,-95.2916"/>
<polygon fill="midnightblue" stroke="midnightblue" points="1086.93,-98.7185 1096.16,-93.5192 1085.7,-91.8269 1086.93,-98.7185"/>
</g>
<!-- Node21 -->
<g id="node21" class="node"><title>Node21</title>
<polygon fill="none" stroke="#bfbfbf" points="41,-74.5 41,-93.5 197,-93.5 197,-74.5 41,-74.5"/>
<text text-anchor="middle" x="119" y="-81.5" font-family="Helvetica,sans-Serif" font-size="10.00">Math/GenVector/Transform3D.h</text>
</g>
<!-- Node19&#45;&gt;Node21 -->
<g id="edge20" class="edge"><title>Node19&#45;&gt;Node21</title>
<path fill="none" stroke="midnightblue" d="M591.14,-140.095C504.318,-133 342.899,-118.653 206,-100 195.977,-98.6343 185.339,-96.9757 175.07,-95.2661"/>
<polygon fill="midnightblue" stroke="midnightblue" points="175.405,-91.773 164.96,-93.5485 174.233,-98.6741 175.405,-91.773"/>
</g>
<!-- Node22 -->
<g id="node22" class="node"><title>Node22</title>
<polygon fill="none" stroke="#bfbfbf" points="215,-74.5 215,-93.5 375,-93.5 375,-74.5 215,-74.5"/>
<text text-anchor="middle" x="295" y="-81.5" font-family="Helvetica,sans-Serif" font-size="10.00">Math/GenVector/Translation3D.h</text>
</g>
<!-- Node19&#45;&gt;Node22 -->
<g id="edge21" class="edge"><title>Node19&#45;&gt;Node22</title>
<path fill="none" stroke="midnightblue" d="M602.737,-136.485C548.423,-127.456 460.16,-112.765 384,-100 374.71,-98.4429 364.875,-96.7899 355.263,-95.172"/>
<polygon fill="midnightblue" stroke="midnightblue" points="355.802,-91.7136 345.36,-93.5041 354.64,-98.6164 355.802,-91.7136"/>
</g>
<!-- Node23 -->
<g id="node23" class="node"><title>Node23</title>
<polygon fill="none" stroke="#bfbfbf" points="393,-74.5 393,-93.5 469,-93.5 469,-74.5 393,-74.5"/>
<text text-anchor="middle" x="431" y="-81.5" font-family="Helvetica,sans-Serif" font-size="10.00">TGeoMatrix.h</text>
</g>
<!-- Node19&#45;&gt;Node23 -->
<g id="edge23" class="edge"><title>Node19&#45;&gt;Node23</title>
<path fill="none" stroke="midnightblue" d="M618.662,-136.477C583.214,-127.795 527.124,-113.697 479,-100 475.188,-98.9152 471.219,-97.7434 467.269,-96.5498"/>
<polygon fill="midnightblue" stroke="midnightblue" points="468.173,-93.1662 457.586,-93.5744 466.117,-99.8574 468.173,-93.1662"/>
</g>
<!-- Node24 -->
<g id="node24" class="node"><title>Node24</title>
<polygon fill="none" stroke="#bfbfbf" points="487.5,-69 487.5,-99 638.5,-99 638.5,-69 487.5,-69"/>
<text text-anchor="start" x="495.5" y="-87" font-family="Helvetica,sans-Serif" font-size="10.00">Math/GenVector/Displacement</text>
<text text-anchor="middle" x="563" y="-76" font-family="Helvetica,sans-Serif" font-size="10.00">Vector3D.h</text>
</g>
<!-- Node19&#45;&gt;Node24 -->
<g id="edge24" class="edge"><title>Node19&#45;&gt;Node24</title>
<path fill="none" stroke="midnightblue" d="M640.962,-136.403C628.522,-128.201 609.327,-115.545 593.097,-104.844"/>
<polygon fill="midnightblue" stroke="midnightblue" points="594.722,-101.723 584.447,-99.1408 590.869,-107.567 594.722,-101.723"/>
</g>
<!-- Node25 -->
<g id="node25" class="node"><title>Node25</title>
<polygon fill="none" stroke="#bfbfbf" points="657,-74.5 657,-93.5 833,-93.5 833,-74.5 657,-74.5"/>
<text text-anchor="middle" x="745" y="-81.5" font-family="Helvetica,sans-Serif" font-size="10.00">Math/GenVector/PositionVector3D.h</text>
</g>
<!-- Node19&#45;&gt;Node25 -->
<g id="edge25" class="edge"><title>Node19&#45;&gt;Node25</title>
<path fill="none" stroke="midnightblue" d="M667.038,-136.403C681.769,-126.691 705.973,-110.732 723.509,-99.1697"/>
<polygon fill="midnightblue" stroke="midnightblue" points="725.564,-102.007 731.986,-93.5806 721.711,-96.1632 725.564,-102.007"/>
</g>
<!-- Node26 -->
<g id="node26" class="node"><title>Node26</title>
<g id="a_node26"><a xlink:href="../../d2/dd0/Cartesian2D_8h.html" target="_top" xlink:title="MathUtils/Cartesian2D.h">
<polygon fill="none" stroke="black" points="850.5,-74.5 850.5,-93.5 975.5,-93.5 975.5,-74.5 850.5,-74.5"/>
<text text-anchor="middle" x="913" y="-81.5" font-family="Helvetica,sans-Serif" font-size="10.00">MathUtils/Cartesian2D.h</text>
</a>
</g>
</g>
<!-- Node19&#45;&gt;Node26 -->
<g id="edge26" class="edge"><title>Node19&#45;&gt;Node26</title>
<path fill="none" stroke="midnightblue" d="M690.833,-136.467C736.955,-125.783 816.01,-107.469 866.324,-95.8129"/>
<polygon fill="midnightblue" stroke="midnightblue" points="867.342,-99.17 876.294,-93.5034 865.762,-92.3506 867.342,-99.17"/>
</g>
<!-- Node29 -->
<g id="node29" class="node"><title>Node29</title>
<polygon fill="none" stroke="#bfbfbf" points="994,-74.5 994,-93.5 1048,-93.5 1048,-74.5 994,-74.5"/>
<text text-anchor="middle" x="1021" y="-81.5" font-family="Helvetica,sans-Serif" font-size="10.00">iostream</text>
</g>
<!-- Node19&#45;&gt;Node29 -->
<g id="edge29" class="edge"><title>Node19&#45;&gt;Node29</title>
<path fill="none" stroke="midnightblue" d="M716.835,-136.841C808.971,-124.819 971.254,-103.395 984,-100 986.985,-99.2049 990.051,-98.2321 993.081,-97.1675"/>
<polygon fill="midnightblue" stroke="midnightblue" points="994.404,-100.409 1002.49,-93.5596 991.898,-93.873 994.404,-100.409"/>
</g>
<!-- Node27 -->
<g id="node27" class="node"><title>Node27</title>
<polygon fill="none" stroke="#bfbfbf" points="746.5,-1 746.5,-31 897.5,-31 897.5,-1 746.5,-1"/>
<text text-anchor="start" x="754.5" y="-19" font-family="Helvetica,sans-Serif" font-size="10.00">Math/GenVector/Displacement</text>
<text text-anchor="middle" x="822" y="-8" font-family="Helvetica,sans-Serif" font-size="10.00">Vector2D.h</text>
</g>
<!-- Node26&#45;&gt;Node27 -->
<g id="edge27" class="edge"><title>Node26&#45;&gt;Node27</title>
<path fill="none" stroke="midnightblue" d="M901.103,-74.3717C888.221,-65.0286 867.22,-49.7966 850.093,-37.375"/>
<polygon fill="midnightblue" stroke="midnightblue" points="851.703,-34.2194 841.553,-31.1815 847.593,-39.8859 851.703,-34.2194"/>
</g>
<!-- Node28 -->
<g id="node28" class="node"><title>Node28</title>
<polygon fill="none" stroke="#bfbfbf" points="916,-6.5 916,-25.5 1092,-25.5 1092,-6.5 916,-6.5"/>
<text text-anchor="middle" x="1004" y="-13.5" font-family="Helvetica,sans-Serif" font-size="10.00">Math/GenVector/PositionVector2D.h</text>
</g>
<!-- Node26&#45;&gt;Node28 -->
<g id="edge28" class="edge"><title>Node26&#45;&gt;Node28</title>
<path fill="none" stroke="midnightblue" d="M924.897,-74.3717C939.884,-63.5015 965.862,-44.6602 983.942,-31.5474"/>
<polygon fill="midnightblue" stroke="midnightblue" points="986.06,-34.3349 992.1,-25.6305 981.95,-28.6684 986.06,-34.3349"/>
</g>
<!-- Node30&#45;&gt;Node10 -->
<g id="edge35" class="edge"><title>Node30&#45;&gt;Node10</title>
<path fill="none" stroke="midnightblue" d="M1222.52,-198.467C1154.91,-187.474 1037.64,-168.404 966.391,-156.82"/>
<polygon fill="midnightblue" stroke="midnightblue" points="966.657,-153.317 956.225,-155.167 965.534,-160.226 966.657,-153.317"/>
</g>
<!-- Node30&#45;&gt;Node15 -->
<g id="edge39" class="edge"><title>Node30&#45;&gt;Node15</title>
<path fill="none" stroke="midnightblue" d="M1340.52,-198.994C1367.28,-192.136 1395.71,-179.448 1412,-156 1427.24,-134.063 1398.21,-112.035 1373.95,-98.4616"/>
<polygon fill="midnightblue" stroke="midnightblue" points="1375.46,-95.2999 1364.99,-93.6914 1372.17,-101.479 1375.46,-95.2999"/>
</g>
<!-- Node31 -->
<g id="node31" class="node"><title>Node31</title>
<polygon fill="none" stroke="#bfbfbf" points="1580.5,-74.5 1580.5,-93.5 1615.5,-93.5 1615.5,-74.5 1580.5,-74.5"/>
<text text-anchor="middle" x="1598" y="-81.5" font-family="Helvetica,sans-Serif" font-size="10.00">map</text>
</g>
<!-- Node30&#45;&gt;Node31 -->
<g id="edge31" class="edge"><title>Node30&#45;&gt;Node31</title>
<path fill="none" stroke="midnightblue" d="M1340.54,-207.505C1433.56,-206.662 1596.76,-198.906 1634,-156 1648.35,-139.469 1631.16,-116.214 1615.97,-100.885"/>
<polygon fill="midnightblue" stroke="midnightblue" points="1618.04,-98.025 1608.38,-93.6681 1613.22,-103.097 1618.04,-98.025"/>
</g>
<!-- Node32 -->
<g id="node32" class="node"><title>Node32</title>
<polygon fill="none" stroke="#bfbfbf" points="1682,-136.5 1682,-155.5 1726,-155.5 1726,-136.5 1682,-136.5"/>
<text text-anchor="middle" x="1704" y="-143.5" font-family="Helvetica,sans-Serif" font-size="10.00">vector</text>
</g>
<!-- Node30&#45;&gt;Node32 -->
<g id="edge32" class="edge"><title>Node30&#45;&gt;Node32</title>
<path fill="none" stroke="midnightblue" d="M1340.73,-200.823C1419.08,-192.92 1553.75,-177.618 1668,-156 1669.25,-155.764 1670.51,-155.511 1671.79,-155.246"/>
<polygon fill="midnightblue" stroke="midnightblue" points="1672.64,-158.642 1681.62,-153.021 1671.09,-151.815 1672.64,-158.642"/>
</g>
<!-- Node33 -->
<g id="node33" class="node"><title>Node33</title>
<polygon fill="none" stroke="#bfbfbf" points="974,-136.5 974,-155.5 1026,-155.5 1026,-136.5 974,-136.5"/>
<text text-anchor="middle" x="1000" y="-143.5" font-family="Helvetica,sans-Serif" font-size="10.00">memory</text>
</g>
<!-- Node30&#45;&gt;Node33 -->
<g id="edge33" class="edge"><title>Node30&#45;&gt;Node33</title>
<path fill="none" stroke="midnightblue" d="M1232.59,-198.414C1186.79,-189.039 1111.44,-173.317 1036.42,-156.03"/>
<polygon fill="midnightblue" stroke="midnightblue" points="1036.85,-152.537 1026.32,-153.692 1035.27,-159.357 1036.85,-152.537"/>
</g>
<!-- Node34 -->
<g id="node34" class="node"><title>Node34</title>
<polygon fill="none" stroke="#bfbfbf" points="1044.5,-136.5 1044.5,-155.5 1123.5,-155.5 1123.5,-136.5 1044.5,-136.5"/>
<text text-anchor="middle" x="1084" y="-143.5" font-family="Helvetica,sans-Serif" font-size="10.00">FairDetector.h</text>
</g>
<!-- Node30&#45;&gt;Node34 -->
<g id="edge34" class="edge"><title>Node30&#45;&gt;Node34</title>
<path fill="none" stroke="midnightblue" d="M1247.63,-198.403C1214.45,-187.978 1158.35,-170.356 1121.24,-158.699"/>
<polygon fill="midnightblue" stroke="midnightblue" points="1121.9,-155.239 1111.31,-155.581 1119.81,-161.917 1121.9,-155.239"/>
</g>
<!-- Node35 -->
<g id="node35" class="node"><title>Node35</title>
<g id="a_node35"><a xlink:href="../../d0/d9a/MaterialManager_8h.html" target="_top" xlink:title="DetectorsBase/MaterialManager.h">
<polygon fill="none" stroke="black" points="1460.5,-136.5 1460.5,-155.5 1625.5,-155.5 1625.5,-136.5 1460.5,-136.5"/>
<text text-anchor="middle" x="1543" y="-143.5" font-family="Helvetica,sans-Serif" font-size="10.00">DetectorsBase/MaterialManager.h</text>
</a>
</g>
</g>
<!-- Node30&#45;&gt;Node35 -->
<g id="edge36" class="edge"><title>Node30&#45;&gt;Node35</title>
<path fill="none" stroke="midnightblue" d="M1313.11,-198.467C1360.94,-187.76 1442.98,-169.392 1495.03,-157.74"/>
<polygon fill="midnightblue" stroke="midnightblue" points="1496.02,-161.104 1505.02,-155.503 1494.5,-154.273 1496.02,-161.104"/>
</g>
<!-- Node36 -->
<g id="node36" class="node"><title>Node36</title>
<polygon fill="none" stroke="#bfbfbf" points="1141.5,-136.5 1141.5,-155.5 1194.5,-155.5 1194.5,-136.5 1141.5,-136.5"/>
<text text-anchor="middle" x="1168" y="-143.5" font-family="Helvetica,sans-Serif" font-size="10.00">cxxabi.h</text>
</g>
<!-- Node30&#45;&gt;Node36 -->
<g id="edge40" class="edge"><title>Node30&#45;&gt;Node36</title>
<path fill="none" stroke="midnightblue" d="M1259.67,-198.403C1242.03,-188.512 1212.84,-172.144 1192.14,-160.538"/>
<polygon fill="midnightblue" stroke="midnightblue" points="1193.74,-157.419 1183.3,-155.581 1190.31,-163.524 1193.74,-157.419"/>
</g>
<!-- Node37 -->
<g id="node37" class="node"><title>Node37</title>
<polygon fill="none" stroke="#bfbfbf" points="1212.5,-136.5 1212.5,-155.5 1263.5,-155.5 1263.5,-136.5 1212.5,-136.5"/>
<text text-anchor="middle" x="1238" y="-143.5" font-family="Helvetica,sans-Serif" font-size="10.00">typeinfo</text>
</g>
<!-- Node30&#45;&gt;Node37 -->
<g id="edge41" class="edge"><title>Node30&#45;&gt;Node37</title>
<path fill="none" stroke="midnightblue" d="M1269.7,-198.403C1264.2,-189.493 1255.47,-175.325 1248.56,-164.118"/>
<polygon fill="midnightblue" stroke="midnightblue" points="1251.52,-162.255 1243.29,-155.581 1245.56,-165.929 1251.52,-162.255"/>
</g>
<!-- Node38 -->
<g id="node38" class="node"><title>Node38</title>
<polygon fill="none" stroke="#bfbfbf" points="1282,-136.5 1282,-155.5 1344,-155.5 1344,-136.5 1282,-136.5"/>
<text text-anchor="middle" x="1313" y="-143.5" font-family="Helvetica,sans-Serif" font-size="10.00">type_traits</text>
</g>
<!-- Node30&#45;&gt;Node38 -->
<g id="edge42" class="edge"><title>Node30&#45;&gt;Node38</title>
<path fill="none" stroke="midnightblue" d="M1280.44,-198.403C1286.09,-189.493 1295.06,-175.325 1302.16,-164.118"/>
<polygon fill="midnightblue" stroke="midnightblue" points="1305.17,-165.901 1307.57,-155.581 1299.26,-162.156 1305.17,-165.901"/>
</g>
<!-- Node39 -->
<g id="node39" class="node"><title>Node39</title>
<polygon fill="none" stroke="#bfbfbf" points="1362.5,-136.5 1362.5,-155.5 1403.5,-155.5 1403.5,-136.5 1362.5,-136.5"/>
<text text-anchor="middle" x="1383" y="-143.5" font-family="Helvetica,sans-Serif" font-size="10.00">string</text>
</g>
<!-- Node30&#45;&gt;Node39 -->
<g id="edge43" class="edge"><title>Node30&#45;&gt;Node39</title>
<path fill="none" stroke="midnightblue" d="M1290.47,-198.403C1308.28,-188.512 1337.74,-172.144 1358.63,-160.538"/>
<polygon fill="midnightblue" stroke="midnightblue" points="1360.51,-163.497 1367.55,-155.581 1357.11,-157.378 1360.51,-163.497"/>
</g>
<!-- Node35&#45;&gt;Node15 -->
<g id="edge37" class="edge"><title>Node35&#45;&gt;Node15</title>
<path fill="none" stroke="midnightblue" d="M1514.77,-136.403C1480.4,-125.933 1422.19,-108.205 1383.92,-96.5501"/>
<polygon fill="midnightblue" stroke="midnightblue" points="1384.76,-93.1461 1374.17,-93.5806 1382.72,-99.8424 1384.76,-93.1461"/>
</g>
<!-- Node35&#45;&gt;Node31 -->
<g id="edge38" class="edge"><title>Node35&#45;&gt;Node31</title>
<path fill="none" stroke="midnightblue" d="M1550.88,-136.403C1559.29,-127.225 1572.82,-112.47 1583.23,-101.117"/>
<polygon fill="midnightblue" stroke="midnightblue" points="1585.96,-103.317 1590.13,-93.5806 1580.8,-98.5871 1585.96,-103.317"/>
</g>
</g>
</svg>
        <g id="navigator" transform="translate(0 0)" fill="#404254">
                <rect fill="#f2f5e9" fill-opacity="0.5" stroke="#606060" stroke-width=".5" x="0" y="0" width="60" height="60"/>
                <use id="zoomplus" xlink:href="#zoomPlus" x="17" y="9" onmousedown="handleZoom(evt,'in')"/>
                <use id="zoomminus" xlink:href="#zoomMin" x="42" y="9" onmousedown="handleZoom(evt,'out')"/>
                <use id="reset" xlink:href="#resetDef" x="30" y="36" onmousedown="handleReset()"/>
                <g id="arrowUp" xlink:href="#dirArrow" transform="translate(30 24)" onmousedown="handlePan(0,-1)">
                  <use xlink:href="#rim" fill="#404040">
                        <set attributeName="fill" to="#808080" begin="arrowUp.mouseover" end="arrowUp.mouseout"/>
                  </use>
                  <path fill="none" stroke="white" stroke-width="1.5" d="M0,-3.0v7 M-2.5,-0.5L0,-3.0L2.5,-0.5"/>
                </g>
                <g id="arrowRight" xlink:href="#dirArrow" transform="rotate(90) translate(36 -43)" onmousedown="handlePan(1,0)">
                  <use xlink:href="#rim" fill="#404040">
                        <set attributeName="fill" to="#808080" begin="arrowRight.mouseover" end="arrowRight.mouseout"/>
                  </use>
                  <path fill="none" stroke="white" stroke-width="1.5" d="M0,-3.0v7 M-2.5,-0.5L0,-3.0L2.5,-0.5"/>
                </g>
                <g id="arrowDown" xlink:href="#dirArrow" transform="rotate(180) translate(-30 -48)" onmousedown="handlePan(0,1)">
                  <use xlink:href="#rim" fill="#404040">
                        <set attributeName="fill" to="#808080" begin="arrowDown.mouseover" end="arrowDown.mouseout"/>
                  </use>
                  <path fill="none" stroke="white" stroke-width="1.5" d="M0,-3.0v7 M-2.5,-0.5L0,-3.0L2.5,-0.5"/>
                </g>
                <g id="arrowLeft" xlink:href="#dirArrow" transform="rotate(270) translate(-36 17)" onmousedown="handlePan(-1,0)">
                  <use xlink:href="#rim" fill="#404040">
                        <set attributeName="fill" to="#808080" begin="arrowLeft.mouseover" end="arrowLeft.mouseout"/>
                  </use>
                  <path fill="none" stroke="white" stroke-width="1.5" d="M0,-3.0v7 M-2.5,-0.5L0,-3.0L2.5,-0.5"/>
                </g>
        </g>
        <svg viewBox="0 0 15 15" width="100%" height="30px" preserveAspectRatio="xMaxYMin meet">
         <g id="arrow_out" transform="scale(0.3 0.3)">
          <a xlink:href="FIT_2simulation_2src_2Detector_8cxx__incl_org.svg" target="_base">
           <rect id="button" ry="5" rx="5" y="6" x="6" height="38" width="38"
                fill="#f2f5e9" fill-opacity="0.5" stroke="#606060" stroke-width="1.0"/>
           <path id="arrow"
             d="M 11.500037,31.436501 C 11.940474,20.09759 22.043105,11.32322 32.158766,21.979434 L 37.068811,17.246167 C 37.068811,17.246167 37.088388,32 37.088388,32 L 22.160133,31.978069 C 22.160133,31.978069 26.997745,27.140456 26.997745,27.140456 C 18.528582,18.264221 13.291696,25.230495 11.500037,31.436501 z"
             style="fill:#404040;"/>
          </a>
         </g>
        </svg>
</svg>
