<?xml version="1.0" encoding="UTF-8" standalone="no"?>
<!DOCTYPE svg PUBLIC "-//W3C//DTD SVG 1.1//EN"
 "http://www.w3.org/Graphics/SVG/1.1/DTD/svg11.dtd">
<!-- Generated by graphviz version 2.36.0 (20140111.2315)
 -->
<!-- Title: /home/travis/build/AliceO2Group/AliceO2/Detectors/TPC/simulation/include/TPCSimulation/Detector.h Pages: 1 -->
<!--zoomable 378 -->
<svg id="main" version="1.1" xmlns="http://www.w3.org/2000/svg" xmlns:xlink="http://www.w3.org/1999/xlink" xml:space="preserve" onload="init(evt)">
<style type="text/css"><![CDATA[
.edge:hover path { stroke: red; }
.edge:hover polygon { stroke: red; fill: red; }
]]></style>
<script type="text/javascript"><![CDATA[
var edges = document.getElementsByTagName('g');
if (edges && edges.length) {
  for (var i=0;i<edges.length;i++) {
    if (edges[i].id.substr(0,4)=='edge') {
      edges[i].setAttribute('class','edge');
    }
  }
}
]]></script>
        <defs>
                <circle id="rim" cx="0" cy="0" r="7"/>
                <circle id="rim2" cx="0" cy="0" r="3.5"/>
                <g id="zoomPlus">
                        <use xlink:href="#rim" fill="#404040">
                                <set attributeName="fill" to="#808080" begin="zoomplus.mouseover" end="zoomplus.mouseout"/>
                        </use>
                        <path d="M-4,0h8M0,-4v8" fill="none" stroke="white" stroke-width="1.5" pointer-events="none"/>
                </g>
                <g id="zoomMin">
                        <use xlink:href="#rim" fill="#404040">
                                <set attributeName="fill" to="#808080" begin="zoomminus.mouseover" end="zoomminus.mouseout"/>
                        </use>
                        <path d="M-4,0h8" fill="none" stroke="white" stroke-width="1.5" pointer-events="none"/>
                </g>
                <g id="dirArrow">
                        <path fill="none" stroke="white" stroke-width="1.5" d="M0,-3.0v7 M-2.5,-0.5L0,-3.0L2.5,-0.5"/>
                </g>
               <g id="resetDef">
                       <use xlink:href="#rim2" fill="#404040">
                               <set attributeName="fill" to="#808080" begin="reset.mouseover" end="reset.mouseout"/>
                       </use>
               </g>
        </defs>

<script type="text/javascript">
var viewWidth = 1792;
var viewHeight = 378;
var sectionId = 'dynsection-0';
</script>
<script xlink:href="../../svgpan.js"/>
<svg id="graph" class="graph">
<g id="viewport">
<title>/home/travis/build/AliceO2Group/AliceO2/Detectors/TPC/simulation/include/TPCSimulation/Detector.h</title>
<!-- Node1 -->
<g id="node1" class="node"><title>Node1</title>
<polygon fill="#bfbfbf" stroke="black" points="1342,-317 1342,-369 1510,-369 1510,-317 1342,-317"/>
<text text-anchor="start" x="1350" y="-357" font-family="Helvetica,sans-Serif" font-size="10.00">/home/travis/build</text>
<text text-anchor="start" x="1350" y="-346" font-family="Helvetica,sans-Serif" font-size="10.00">/AliceO2Group/AliceO2</text>
<text text-anchor="start" x="1350" y="-335" font-family="Helvetica,sans-Serif" font-size="10.00">/Detectors/TPC/simulation</text>
<text text-anchor="middle" x="1426" y="-324" font-family="Helvetica,sans-Serif" font-size="10.00">/include/TPCSimulation/Detector.h</text>
</g>
<!-- Node2 -->
<g id="node2" class="node"><title>Node2</title>
<g id="a_node2"><a xlink:href="../../d1/d3a/Base_2include_2DetectorsBase_2Detector_8h.html" target="_top" xlink:title="DetectorsBase/Detector.h">
<polygon fill="none" stroke="black" points="1196.5,-260.5 1196.5,-279.5 1327.5,-279.5 1327.5,-260.5 1196.5,-260.5"/>
<text text-anchor="middle" x="1262" y="-267.5" font-family="Helvetica,sans-Serif" font-size="10.00">DetectorsBase/Detector.h</text>
</a>
</g>
</g>
<!-- Node1&#45;&gt;Node2 -->
<g id="edge1" class="edge"><title>Node1&#45;&gt;Node2</title>
<path fill="none" stroke="midnightblue" d="M1368.18,-316.968C1342.23,-305.732 1312.72,-292.96 1291.42,-283.735"/>
<polygon fill="midnightblue" stroke="midnightblue" points="1292.52,-280.4 1281.95,-279.639 1289.74,-286.824 1292.52,-280.4"/>
</g>
<!-- Node9 -->
<g id="node9" class="node"><title>Node9</title>
<polygon fill="none" stroke="#bfbfbf" points="1315,-74.5 1315,-93.5 1371,-93.5 1371,-74.5 1315,-74.5"/>
<text text-anchor="middle" x="1343" y="-81.5" font-family="Helvetica,sans-Serif" font-size="10.00">Rtypes.h</text>
</g>
<!-- Node1&#45;&gt;Node9 -->
<g id="edge15" class="edge"><title>Node1&#45;&gt;Node9</title>
<path fill="none" stroke="midnightblue" d="M1481.2,-316.924C1534.1,-289.206 1601.61,-241.845 1570,-192 1528.33,-126.289 1434.32,-100.186 1381.28,-90.4087"/>
<polygon fill="midnightblue" stroke="midnightblue" points="1381.7,-86.9289 1371.25,-88.664 1380.5,-93.8255 1381.7,-86.9289"/>
</g>
<!-- Node14 -->
<g id="node14" class="node"><title>Node14</title>
<polygon fill="none" stroke="#bfbfbf" points="1618,-260.5 1618,-279.5 1710,-279.5 1710,-260.5 1618,-260.5"/>
<text text-anchor="middle" x="1664" y="-267.5" font-family="Helvetica,sans-Serif" font-size="10.00">TLorentzVector.h</text>
</g>
<!-- Node1&#45;&gt;Node14 -->
<g id="edge16" class="edge"><title>Node1&#45;&gt;Node14</title>
<path fill="none" stroke="midnightblue" d="M1509.91,-316.968C1549.4,-305.188 1594.55,-291.718 1625.72,-282.419"/>
<polygon fill="midnightblue" stroke="midnightblue" points="1626.74,-285.767 1635.33,-279.554 1624.74,-279.059 1626.74,-285.767"/>
</g>
<!-- Node15 -->
<g id="node15" class="node"><title>Node15</title>
<polygon fill="none" stroke="#bfbfbf" points="1728,-260.5 1728,-279.5 1784,-279.5 1784,-260.5 1728,-260.5"/>
<text text-anchor="middle" x="1756" y="-267.5" font-family="Helvetica,sans-Serif" font-size="10.00">TString.h</text>
</g>
<!-- Node1&#45;&gt;Node15 -->
<g id="edge17" class="edge"><title>Node1&#45;&gt;Node15</title>
<path fill="none" stroke="midnightblue" d="M1510.13,-324.896C1566.26,-313.323 1641.94,-297.404 1717.56,-280.28"/>
<polygon fill="midnightblue" stroke="midnightblue" points="1718.76,-283.596 1727.74,-277.967 1717.21,-276.77 1718.76,-283.596"/>
</g>
<!-- Node16 -->
<g id="node16" class="node"><title>Node16</title>
<g id="a_node16"><a xlink:href="../../d4/de5/Point_8h.html" target="_top" xlink:title="Class for TPC Point. ">
<polygon fill="none" stroke="black" points="655,-260.5 655,-279.5 771,-279.5 771,-260.5 655,-260.5"/>
<text text-anchor="middle" x="713" y="-267.5" font-family="Helvetica,sans-Serif" font-size="10.00">TPCSimulation/Point.h</text>
</a>
</g>
</g>
<!-- Node1&#45;&gt;Node16 -->
<g id="edge18" class="edge"><title>Node1&#45;&gt;Node16</title>
<path fill="none" stroke="midnightblue" d="M1341.76,-333.612C1199.15,-319.41 912.874,-290.903 781.612,-277.832"/>
<polygon fill="midnightblue" stroke="midnightblue" points="781.593,-274.313 771.295,-276.805 780.899,-281.279 781.593,-274.313"/>
</g>
<!-- Node29 -->
<g id="node29" class="node"><title>Node29</title>
<g id="a_node29"><a xlink:href="../../d3/dd6/Sector_8h.html" target="_top" xlink:title="TPCBase/Sector.h">
<polygon fill="none" stroke="black" points="433.5,-260.5 433.5,-279.5 532.5,-279.5 532.5,-260.5 433.5,-260.5"/>
<text text-anchor="middle" x="483" y="-267.5" font-family="Helvetica,sans-Serif" font-size="10.00">TPCBase/Sector.h</text>
</a>
</g>
</g>
<!-- Node1&#45;&gt;Node29 -->
<g id="edge33" class="edge"><title>Node1&#45;&gt;Node29</title>
<path fill="none" stroke="midnightblue" d="M1341.9,-335.668C1154.28,-321.542 705.283,-287.736 542.897,-275.51"/>
<polygon fill="midnightblue" stroke="midnightblue" points="542.856,-271.997 532.622,-274.736 542.331,-278.977 542.856,-271.997"/>
</g>
<!-- Node3 -->
<g id="node3" class="node"><title>Node3</title>
<polygon fill="none" stroke="#bfbfbf" points="1206.5,-136.5 1206.5,-155.5 1241.5,-155.5 1241.5,-136.5 1206.5,-136.5"/>
<text text-anchor="middle" x="1224" y="-143.5" font-family="Helvetica,sans-Serif" font-size="10.00">map</text>
</g>
<!-- Node2&#45;&gt;Node3 -->
<g id="edge2" class="edge"><title>Node2&#45;&gt;Node3</title>
<path fill="none" stroke="midnightblue" d="M1283.48,-260.36C1298.39,-253.09 1317.11,-241.117 1326,-224 1332.55,-211.378 1333.77,-203.915 1326,-192 1309.7,-167 1276.04,-155.79 1251.84,-150.829"/>
<polygon fill="midnightblue" stroke="midnightblue" points="1252.26,-147.349 1241.8,-149.012 1251.02,-154.237 1252.26,-147.349"/>
</g>
<!-- Node4 -->
<g id="node4" class="node"><title>Node4</title>
<polygon fill="none" stroke="#bfbfbf" points="691,-198.5 691,-217.5 735,-217.5 735,-198.5 691,-198.5"/>
<text text-anchor="middle" x="713" y="-205.5" font-family="Helvetica,sans-Serif" font-size="10.00">vector</text>
</g>
<!-- Node2&#45;&gt;Node4 -->
<g id="edge3" class="edge"><title>Node2&#45;&gt;Node4</title>
<path fill="none" stroke="midnightblue" d="M1196.26,-266.26C1076.5,-260.778 827.441,-246.973 744,-224 741.799,-223.394 739.564,-222.635 737.356,-221.782"/>
<polygon fill="midnightblue" stroke="midnightblue" points="738.58,-218.496 728.021,-217.626 735.733,-224.891 738.58,-218.496"/>
</g>
<!-- Node5 -->
<g id="node5" class="node"><title>Node5</title>
<polygon fill="none" stroke="#bfbfbf" points="1412,-198.5 1412,-217.5 1464,-217.5 1464,-198.5 1412,-198.5"/>
<text text-anchor="middle" x="1438" y="-205.5" font-family="Helvetica,sans-Serif" font-size="10.00">memory</text>
</g>
<!-- Node2&#45;&gt;Node5 -->
<g id="edge4" class="edge"><title>Node2&#45;&gt;Node5</title>
<path fill="none" stroke="midnightblue" d="M1288.94,-260.429C1316.46,-251.596 1360.36,-237.28 1398,-224 1400.6,-223.083 1403.29,-222.117 1405.98,-221.134"/>
<polygon fill="midnightblue" stroke="midnightblue" points="1407.47,-224.316 1415.63,-217.565 1405.04,-217.751 1407.47,-224.316"/>
</g>
<!-- Node6 -->
<g id="node6" class="node"><title>Node6</title>
<polygon fill="none" stroke="#bfbfbf" points="1482.5,-198.5 1482.5,-217.5 1561.5,-217.5 1561.5,-198.5 1482.5,-198.5"/>
<text text-anchor="middle" x="1522" y="-205.5" font-family="Helvetica,sans-Serif" font-size="10.00">FairDetector.h</text>
</g>
<!-- Node2&#45;&gt;Node6 -->
<g id="edge5" class="edge"><title>Node2&#45;&gt;Node6</title>
<path fill="none" stroke="midnightblue" d="M1307.54,-260.476C1350.46,-252.163 1416.44,-238.659 1473,-224 1477.17,-222.92 1481.51,-221.713 1485.81,-220.465"/>
<polygon fill="midnightblue" stroke="midnightblue" points="1487.09,-223.735 1495.67,-217.52 1485.09,-217.027 1487.09,-223.735"/>
</g>
<!-- Node7 -->
<g id="node7" class="node"><title>Node7</title>
<polygon fill="none" stroke="#bfbfbf" points="937,-198.5 937,-217.5 1037,-217.5 1037,-198.5 937,-198.5"/>
<text text-anchor="middle" x="987" y="-205.5" font-family="Helvetica,sans-Serif" font-size="10.00">FairRootManager.h</text>
</g>
<!-- Node2&#45;&gt;Node7 -->
<g id="edge6" class="edge"><title>Node2&#45;&gt;Node7</title>
<path fill="none" stroke="midnightblue" d="M1218.65,-260.439C1175.15,-251.728 1106.28,-237.609 1047,-224 1041.57,-222.754 1035.88,-221.397 1030.25,-220.025"/>
<polygon fill="midnightblue" stroke="midnightblue" points="1030.82,-216.559 1020.27,-217.56 1029.14,-223.355 1030.82,-216.559"/>
</g>
<!-- Node8 -->
<g id="node8" class="node"><title>Node8</title>
<g id="a_node8"><a xlink:href="../../d0/d9a/MaterialManager_8h.html" target="_top" xlink:title="DetectorsBase/MaterialManager.h">
<polygon fill="none" stroke="black" points="753.5,-198.5 753.5,-217.5 918.5,-217.5 918.5,-198.5 753.5,-198.5"/>
<text text-anchor="middle" x="836" y="-205.5" font-family="Helvetica,sans-Serif" font-size="10.00">DetectorsBase/MaterialManager.h</text>
</a>
</g>
</g>
<!-- Node2&#45;&gt;Node8 -->
<g id="edge7" class="edge"><title>Node2&#45;&gt;Node8</title>
<path fill="none" stroke="midnightblue" d="M1196.33,-260.698C1128.92,-252.048 1021.03,-237.848 928,-224 917.811,-222.483 907,-220.793 896.508,-219.11"/>
<polygon fill="midnightblue" stroke="midnightblue" points="897.006,-215.645 886.576,-217.504 895.889,-222.556 897.006,-215.645"/>
</g>
<!-- Node2&#45;&gt;Node9 -->
<g id="edge10" class="edge"><title>Node2&#45;&gt;Node9</title>
<path fill="none" stroke="midnightblue" d="M1292.2,-260.461C1310.06,-253.689 1331.23,-242.256 1342,-224 1364.4,-186.012 1355.33,-131.429 1348.3,-103.301"/>
<polygon fill="midnightblue" stroke="midnightblue" points="1351.67,-102.345 1345.69,-93.5985 1344.91,-104.165 1351.67,-102.345"/>
</g>
<!-- Node10 -->
<g id="node10" class="node"><title>Node10</title>
<polygon fill="none" stroke="#bfbfbf" points="1055.5,-198.5 1055.5,-217.5 1108.5,-217.5 1108.5,-198.5 1055.5,-198.5"/>
<text text-anchor="middle" x="1082" y="-205.5" font-family="Helvetica,sans-Serif" font-size="10.00">cxxabi.h</text>
</g>
<!-- Node2&#45;&gt;Node10 -->
<g id="edge11" class="edge"><title>Node2&#45;&gt;Node10</title>
<path fill="none" stroke="midnightblue" d="M1231.95,-260.484C1202.63,-251.971 1156.89,-238.145 1118,-224 1115.75,-223.18 1113.42,-222.299 1111.1,-221.391"/>
<polygon fill="midnightblue" stroke="midnightblue" points="1112.26,-218.085 1101.68,-217.582 1109.64,-224.575 1112.26,-218.085"/>
</g>
<!-- Node11 -->
<g id="node11" class="node"><title>Node11</title>
<polygon fill="none" stroke="#bfbfbf" points="1126.5,-198.5 1126.5,-217.5 1177.5,-217.5 1177.5,-198.5 1126.5,-198.5"/>
<text text-anchor="middle" x="1152" y="-205.5" font-family="Helvetica,sans-Serif" font-size="10.00">typeinfo</text>
</g>
<!-- Node2&#45;&gt;Node11 -->
<g id="edge12" class="edge"><title>Node2&#45;&gt;Node11</title>
<path fill="none" stroke="midnightblue" d="M1246.24,-260.403C1228.02,-250.468 1197.83,-233.997 1176.53,-222.381"/>
<polygon fill="midnightblue" stroke="midnightblue" points="1178.19,-219.297 1167.73,-217.581 1174.83,-225.442 1178.19,-219.297"/>
</g>
<!-- Node12 -->
<g id="node12" class="node"><title>Node12</title>
<polygon fill="none" stroke="#bfbfbf" points="1196,-198.5 1196,-217.5 1258,-217.5 1258,-198.5 1196,-198.5"/>
<text text-anchor="middle" x="1227" y="-205.5" font-family="Helvetica,sans-Serif" font-size="10.00">type_traits</text>
</g>
<!-- Node2&#45;&gt;Node12 -->
<g id="edge13" class="edge"><title>Node2&#45;&gt;Node12</title>
<path fill="none" stroke="midnightblue" d="M1256.99,-260.403C1251.84,-251.582 1243.69,-237.608 1237.18,-226.455"/>
<polygon fill="midnightblue" stroke="midnightblue" points="1240.07,-224.455 1232.01,-217.581 1234.02,-227.982 1240.07,-224.455"/>
</g>
<!-- Node13 -->
<g id="node13" class="node"><title>Node13</title>
<polygon fill="none" stroke="#bfbfbf" points="1276.5,-198.5 1276.5,-217.5 1317.5,-217.5 1317.5,-198.5 1276.5,-198.5"/>
<text text-anchor="middle" x="1297" y="-205.5" font-family="Helvetica,sans-Serif" font-size="10.00">string</text>
</g>
<!-- Node2&#45;&gt;Node13 -->
<g id="edge14" class="edge"><title>Node2&#45;&gt;Node13</title>
<path fill="none" stroke="midnightblue" d="M1267.01,-260.403C1272.16,-251.582 1280.31,-237.608 1286.82,-226.455"/>
<polygon fill="midnightblue" stroke="midnightblue" points="1289.98,-227.982 1291.99,-217.581 1283.93,-224.455 1289.98,-227.982"/>
</g>
<!-- Node8&#45;&gt;Node3 -->
<g id="edge9" class="edge"><title>Node8&#45;&gt;Node3</title>
<path fill="none" stroke="midnightblue" d="M887.562,-198.493C900.741,-196.346 914.891,-194.065 928,-192 1026.51,-176.482 1143.61,-158.949 1196.11,-151.137"/>
<polygon fill="midnightblue" stroke="midnightblue" points="1196.93,-154.554 1206.31,-149.622 1195.9,-147.631 1196.93,-154.554"/>
</g>
<!-- Node8&#45;&gt;Node9 -->
<g id="edge8" class="edge"><title>Node8&#45;&gt;Node9</title>
<path fill="none" stroke="midnightblue" d="M873.115,-198.491C950.184,-180.753 1133.13,-138.284 1286,-100 1292.19,-98.4502 1298.74,-96.7657 1305.12,-95.104"/>
<polygon fill="midnightblue" stroke="midnightblue" points="1306.13,-98.4577 1314.91,-92.534 1304.35,-91.687 1306.13,-98.4577"/>
</g>
<!-- Node16&#45;&gt;Node4 -->
<g id="edge32" class="edge"><title>Node16&#45;&gt;Node4</title>
<path fill="none" stroke="midnightblue" d="M713,-260.403C713,-251.938 713,-238.728 713,-227.82"/>
<polygon fill="midnightblue" stroke="midnightblue" points="716.5,-227.581 713,-217.581 709.5,-227.581 716.5,-227.581"/>
</g>
<!-- Node17 -->
<g id="node17" class="node"><title>Node17</title>
<g id="a_node17"><a xlink:href="../../d4/d25/BaseHits_8h.html" target="_top" xlink:title="SimulationDataFormat\l/BaseHits.h">
<polygon fill="none" stroke="black" points="559,-193 559,-223 673,-223 673,-193 559,-193"/>
<text text-anchor="start" x="567" y="-211" font-family="Helvetica,sans-Serif" font-size="10.00">SimulationDataFormat</text>
<text text-anchor="middle" x="616" y="-200" font-family="Helvetica,sans-Serif" font-size="10.00">/BaseHits.h</text>
</a>
</g>
</g>
<!-- Node16&#45;&gt;Node17 -->
<g id="edge19" class="edge"><title>Node16&#45;&gt;Node17</title>
<path fill="none" stroke="midnightblue" d="M699.102,-260.403C685.719,-252.125 665.002,-239.311 647.602,-228.547"/>
<polygon fill="midnightblue" stroke="midnightblue" points="649.207,-225.425 638.861,-223.141 645.524,-231.378 649.207,-225.425"/>
</g>
<!-- Node18 -->
<g id="node18" class="node"><title>Node18</title>
<g id="a_node18"><a xlink:href="../../dd/d76/Cartesian3D_8h.html" target="_top" xlink:title="MathUtils/Cartesian3D.h">
<polygon fill="none" stroke="black" points="574.5,-136.5 574.5,-155.5 699.5,-155.5 699.5,-136.5 574.5,-136.5"/>
<text text-anchor="middle" x="637" y="-143.5" font-family="Helvetica,sans-Serif" font-size="10.00">MathUtils/Cartesian3D.h</text>
</a>
</g>
</g>
<!-- Node17&#45;&gt;Node18 -->
<g id="edge20" class="edge"><title>Node17&#45;&gt;Node18</title>
<path fill="none" stroke="midnightblue" d="M620.977,-192.781C623.84,-184.601 627.468,-174.234 630.548,-165.434"/>
<polygon fill="midnightblue" stroke="midnightblue" points="633.944,-166.325 633.944,-155.731 627.337,-164.013 633.944,-166.325"/>
</g>
<!-- Node18&#45;&gt;Node9 -->
<g id="edge24" class="edge"><title>Node18&#45;&gt;Node9</title>
<path fill="none" stroke="midnightblue" d="M699.532,-142.167C839.457,-135.584 1174.28,-118.405 1286,-100 1292.23,-98.9739 1298.76,-97.5714 1305.1,-96.0334"/>
<polygon fill="midnightblue" stroke="midnightblue" points="1306,-99.4162 1314.81,-93.5396 1304.26,-92.6361 1306,-99.4162"/>
</g>
<!-- Node19 -->
<g id="node19" class="node"><title>Node19</title>
<polygon fill="none" stroke="#bfbfbf" points="1128.5,-74.5 1128.5,-93.5 1277.5,-93.5 1277.5,-74.5 1128.5,-74.5"/>
<text text-anchor="middle" x="1203" y="-81.5" font-family="Helvetica,sans-Serif" font-size="10.00">Math/GenVector/Rotation3D.h</text>
</g>
<!-- Node18&#45;&gt;Node19 -->
<g id="edge21" class="edge"><title>Node18&#45;&gt;Node19</title>
<path fill="none" stroke="midnightblue" d="M699.72,-140.885C792.034,-134.437 969.805,-120.53 1120,-100 1129.58,-98.6901 1139.75,-97.0575 1149.55,-95.3559"/>
<polygon fill="midnightblue" stroke="midnightblue" points="1150.37,-98.7654 1159.6,-93.5684 1149.15,-91.8735 1150.37,-98.7654"/>
</g>
<!-- Node20 -->
<g id="node20" class="node"><title>Node20</title>
<polygon fill="none" stroke="#bfbfbf" points="247,-74.5 247,-93.5 403,-93.5 403,-74.5 247,-74.5"/>
<text text-anchor="middle" x="325" y="-81.5" font-family="Helvetica,sans-Serif" font-size="10.00">Math/GenVector/Transform3D.h</text>
</g>
<!-- Node18&#45;&gt;Node20 -->
<g id="edge22" class="edge"><title>Node18&#45;&gt;Node20</title>
<path fill="none" stroke="midnightblue" d="M592.629,-136.467C536.489,-125.671 439.845,-107.086 379.341,-95.4501"/>
<polygon fill="midnightblue" stroke="midnightblue" points="379.699,-91.9549 369.218,-93.5034 378.377,-98.829 379.699,-91.9549"/>
</g>
<!-- Node21 -->
<g id="node21" class="node"><title>Node21</title>
<polygon fill="none" stroke="#bfbfbf" points="421,-74.5 421,-93.5 581,-93.5 581,-74.5 421,-74.5"/>
<text text-anchor="middle" x="501" y="-81.5" font-family="Helvetica,sans-Serif" font-size="10.00">Math/GenVector/Translation3D.h</text>
</g>
<!-- Node18&#45;&gt;Node21 -->
<g id="edge23" class="edge"><title>Node18&#45;&gt;Node21</title>
<path fill="none" stroke="midnightblue" d="M617.515,-136.403C594.59,-126.29 556.315,-109.404 529.925,-97.761"/>
<polygon fill="midnightblue" stroke="midnightblue" points="531.011,-94.4148 520.449,-93.5806 528.186,-100.819 531.011,-94.4148"/>
</g>
<!-- Node22 -->
<g id="node22" class="node"><title>Node22</title>
<polygon fill="none" stroke="#bfbfbf" points="599,-74.5 599,-93.5 675,-93.5 675,-74.5 599,-74.5"/>
<text text-anchor="middle" x="637" y="-81.5" font-family="Helvetica,sans-Serif" font-size="10.00">TGeoMatrix.h</text>
</g>
<!-- Node18&#45;&gt;Node22 -->
<g id="edge25" class="edge"><title>Node18&#45;&gt;Node22</title>
<path fill="none" stroke="midnightblue" d="M637,-136.403C637,-127.938 637,-114.728 637,-103.82"/>
<polygon fill="midnightblue" stroke="midnightblue" points="640.5,-103.581 637,-93.5806 633.5,-103.581 640.5,-103.581"/>
</g>
<!-- Node23 -->
<g id="node23" class="node"><title>Node23</title>
<polygon fill="none" stroke="#bfbfbf" points="693.5,-69 693.5,-99 844.5,-99 844.5,-69 693.5,-69"/>
<text text-anchor="start" x="701.5" y="-87" font-family="Helvetica,sans-Serif" font-size="10.00">Math/GenVector/Displacement</text>
<text text-anchor="middle" x="769" y="-76" font-family="Helvetica,sans-Serif" font-size="10.00">Vector3D.h</text>
</g>
<!-- Node18&#45;&gt;Node23 -->
<g id="edge26" class="edge"><title>Node18&#45;&gt;Node23</title>
<path fill="none" stroke="midnightblue" d="M655.912,-136.403C674.855,-127.793 704.597,-114.274 728.825,-103.261"/>
<polygon fill="midnightblue" stroke="midnightblue" points="730.489,-106.35 738.144,-99.0253 727.592,-99.9771 730.489,-106.35"/>
</g>
<!-- Node24 -->
<g id="node24" class="node"><title>Node24</title>
<polygon fill="none" stroke="#bfbfbf" points="863,-74.5 863,-93.5 1039,-93.5 1039,-74.5 863,-74.5"/>
<text text-anchor="middle" x="951" y="-81.5" font-family="Helvetica,sans-Serif" font-size="10.00">Math/GenVector/PositionVector3D.h</text>
</g>
<!-- Node18&#45;&gt;Node24 -->
<g id="edge27" class="edge"><title>Node18&#45;&gt;Node24</title>
<path fill="none" stroke="midnightblue" d="M681.655,-136.467C738.155,-125.671 835.419,-107.086 896.311,-95.4501"/>
<polygon fill="midnightblue" stroke="midnightblue" points="897.334,-98.8181 906.499,-93.5034 896.02,-91.9425 897.334,-98.8181"/>
</g>
<!-- Node25 -->
<g id="node25" class="node"><title>Node25</title>
<g id="a_node25"><a xlink:href="../../d2/dd0/Cartesian2D_8h.html" target="_top" xlink:title="MathUtils/Cartesian2D.h">
<polygon fill="none" stroke="black" points="103.5,-74.5 103.5,-93.5 228.5,-93.5 228.5,-74.5 103.5,-74.5"/>
<text text-anchor="middle" x="166" y="-81.5" font-family="Helvetica,sans-Serif" font-size="10.00">MathUtils/Cartesian2D.h</text>
</a>
</g>
</g>
<!-- Node18&#45;&gt;Node25 -->
<g id="edge28" class="edge"><title>Node18&#45;&gt;Node25</title>
<path fill="none" stroke="midnightblue" d="M574.212,-139.74C495.404,-132.72 356.22,-118.939 238,-100 230.11,-98.7361 221.776,-97.1938 213.685,-95.5847"/>
<polygon fill="midnightblue" stroke="midnightblue" points="214.117,-92.1008 203.619,-93.5268 212.715,-98.9589 214.117,-92.1008"/>
</g>
<!-- Node28 -->
<g id="node28" class="node"><title>Node28</title>
<polygon fill="none" stroke="#bfbfbf" points="1057,-74.5 1057,-93.5 1111,-93.5 1111,-74.5 1057,-74.5"/>
<text text-anchor="middle" x="1084" y="-81.5" font-family="Helvetica,sans-Serif" font-size="10.00">iostream</text>
</g>
<!-- Node18&#45;&gt;Node28 -->
<g id="edge31" class="edge"><title>Node18&#45;&gt;Node28</title>
<path fill="none" stroke="midnightblue" d="M699.765,-143.465C781.036,-140.266 926.538,-130.405 1047,-100 1050.06,-99.2277 1053.2,-98.2555 1056.3,-97.1792"/>
<polygon fill="midnightblue" stroke="midnightblue" points="1057.81,-100.35 1065.89,-93.5024 1055.3,-93.8136 1057.81,-100.35"/>
</g>
<!-- Node26 -->
<g id="node26" class="node"><title>Node26</title>
<polygon fill="none" stroke="#bfbfbf" points="-0.5,-1 -0.5,-31 150.5,-31 150.5,-1 -0.5,-1"/>
<text text-anchor="start" x="7.5" y="-19" font-family="Helvetica,sans-Serif" font-size="10.00">Math/GenVector/Displacement</text>
<text text-anchor="middle" x="75" y="-8" font-family="Helvetica,sans-Serif" font-size="10.00">Vector2D.h</text>
</g>
<!-- Node25&#45;&gt;Node26 -->
<g id="edge29" class="edge"><title>Node25&#45;&gt;Node26</title>
<path fill="none" stroke="midnightblue" d="M154.103,-74.3717C141.221,-65.0286 120.22,-49.7966 103.093,-37.375"/>
<polygon fill="midnightblue" stroke="midnightblue" points="104.703,-34.2194 94.5532,-31.1815 100.593,-39.8859 104.703,-34.2194"/>
</g>
<!-- Node27 -->
<g id="node27" class="node"><title>Node27</title>
<polygon fill="none" stroke="#bfbfbf" points="169,-6.5 169,-25.5 345,-25.5 345,-6.5 169,-6.5"/>
<text text-anchor="middle" x="257" y="-13.5" font-family="Helvetica,sans-Serif" font-size="10.00">Math/GenVector/PositionVector2D.h</text>
</g>
<!-- Node25&#45;&gt;Node27 -->
<g id="edge30" class="edge"><title>Node25&#45;&gt;Node27</title>
<path fill="none" stroke="midnightblue" d="M177.897,-74.3717C192.884,-63.5015 218.862,-44.6602 236.942,-31.5474"/>
<polygon fill="midnightblue" stroke="midnightblue" points="239.06,-34.3349 245.1,-25.6305 234.95,-28.6684 239.06,-34.3349"/>
</g>
<!-- Node30 -->
<g id="node30" class="node"><title>Node30</title>
<g id="a_node30"><a xlink:href="../../d6/d51/TPC_2base_2include_2TPCBase_2Constants_8h.html" target="_top" xlink:title="TPCBase/Constants.h">
<polygon fill="none" stroke="black" points="425,-198.5 425,-217.5 541,-217.5 541,-198.5 425,-198.5"/>
<text text-anchor="middle" x="483" y="-205.5" font-family="Helvetica,sans-Serif" font-size="10.00">TPCBase/Constants.h</text>
</a>
</g>
</g>
<!-- Node29&#45;&gt;Node30 -->
<g id="edge34" class="edge"><title>Node29&#45;&gt;Node30</title>
<path fill="none" stroke="midnightblue" d="M483,-260.403C483,-251.938 483,-238.728 483,-227.82"/>
<polygon fill="midnightblue" stroke="midnightblue" points="486.5,-227.581 483,-217.581 479.5,-227.581 486.5,-227.581"/>
</g>
<!-- Node31 -->
<g id="node31" class="node"><title>Node31</title>
<g id="a_node31"><a xlink:href="../../d1/d73/Defs_8h.html" target="_top" xlink:title="Common definitions for 2D coordinates. ">
<polygon fill="none" stroke="black" points="315,-198.5 315,-217.5 407,-217.5 407,-198.5 315,-198.5"/>
<text text-anchor="middle" x="361" y="-205.5" font-family="Helvetica,sans-Serif" font-size="10.00">TPCBase/Defs.h</text>
</a>
</g>
</g>
<!-- Node29&#45;&gt;Node31 -->
<g id="edge35" class="edge"><title>Node29&#45;&gt;Node31</title>
<path fill="none" stroke="midnightblue" d="M465.52,-260.403C445.137,-250.379 411.225,-233.701 387.575,-222.07"/>
<polygon fill="midnightblue" stroke="midnightblue" points="388.965,-218.853 378.447,-217.581 385.876,-225.135 388.965,-218.853"/>
</g>
<!-- Node31&#45;&gt;Node18 -->
<g id="edge38" class="edge"><title>Node31&#45;&gt;Node18</title>
<path fill="none" stroke="midnightblue" d="M390.881,-198.469C399.003,-196.255 407.816,-193.947 416,-192 471.66,-178.758 535.779,-165.972 580.568,-157.436"/>
<polygon fill="midnightblue" stroke="midnightblue" points="581.497,-160.822 590.67,-155.52 580.193,-153.945 581.497,-160.822"/>
</g>
<!-- Node31&#45;&gt;Node25 -->
<g id="edge37" class="edge"><title>Node31&#45;&gt;Node25</title>
<path fill="none" stroke="midnightblue" d="M347.288,-198.421C314.072,-177.64 229.044,-124.443 188.353,-98.9851"/>
<polygon fill="midnightblue" stroke="midnightblue" points="190.031,-95.9061 179.697,-93.5693 186.318,-101.84 190.031,-95.9061"/>
</g>
<!-- Node32 -->
<g id="node32" class="node"><title>Node32</title>
<polygon fill="none" stroke="#bfbfbf" points="339,-136.5 339,-155.5 383,-155.5 383,-136.5 339,-136.5"/>
<text text-anchor="middle" x="361" y="-143.5" font-family="Helvetica,sans-Serif" font-size="10.00">cmath</text>
</g>
<!-- Node31&#45;&gt;Node32 -->
<g id="edge36" class="edge"><title>Node31&#45;&gt;Node32</title>
<path fill="none" stroke="midnightblue" d="M361,-198.403C361,-189.938 361,-176.728 361,-165.82"/>
<polygon fill="midnightblue" stroke="midnightblue" points="364.5,-165.581 361,-155.581 357.5,-165.581 364.5,-165.581"/>
</g>
</g>
</svg>
        <g id="navigator" transform="translate(0 0)" fill="#404254">
                <rect fill="#f2f5e9" fill-opacity="0.5" stroke="#606060" stroke-width=".5" x="0" y="0" width="60" height="60"/>
                <use id="zoomplus" xlink:href="#zoomPlus" x="17" y="9" onmousedown="handleZoom(evt,'in')"/>
                <use id="zoomminus" xlink:href="#zoomMin" x="42" y="9" onmousedown="handleZoom(evt,'out')"/>
                <use id="reset" xlink:href="#resetDef" x="30" y="36" onmousedown="handleReset()"/>
                <g id="arrowUp" xlink:href="#dirArrow" transform="translate(30 24)" onmousedown="handlePan(0,-1)">
                  <use xlink:href="#rim" fill="#404040">
                        <set attributeName="fill" to="#808080" begin="arrowUp.mouseover" end="arrowUp.mouseout"/>
                  </use>
                  <path fill="none" stroke="white" stroke-width="1.5" d="M0,-3.0v7 M-2.5,-0.5L0,-3.0L2.5,-0.5"/>
                </g>
                <g id="arrowRight" xlink:href="#dirArrow" transform="rotate(90) translate(36 -43)" onmousedown="handlePan(1,0)">
                  <use xlink:href="#rim" fill="#404040">
                        <set attributeName="fill" to="#808080" begin="arrowRight.mouseover" end="arrowRight.mouseout"/>
                  </use>
                  <path fill="none" stroke="white" stroke-width="1.5" d="M0,-3.0v7 M-2.5,-0.5L0,-3.0L2.5,-0.5"/>
                </g>
                <g id="arrowDown" xlink:href="#dirArrow" transform="rotate(180) translate(-30 -48)" onmousedown="handlePan(0,1)">
                  <use xlink:href="#rim" fill="#404040">
                        <set attributeName="fill" to="#808080" begin="arrowDown.mouseover" end="arrowDown.mouseout"/>
                  </use>
                  <path fill="none" stroke="white" stroke-width="1.5" d="M0,-3.0v7 M-2.5,-0.5L0,-3.0L2.5,-0.5"/>
                </g>
                <g id="arrowLeft" xlink:href="#dirArrow" transform="rotate(270) translate(-36 17)" onmousedown="handlePan(-1,0)">
                  <use xlink:href="#rim" fill="#404040">
                        <set attributeName="fill" to="#808080" begin="arrowLeft.mouseover" end="arrowLeft.mouseout"/>
                  </use>
                  <path fill="none" stroke="white" stroke-width="1.5" d="M0,-3.0v7 M-2.5,-0.5L0,-3.0L2.5,-0.5"/>
                </g>
        </g>
        <svg viewBox="0 0 15 15" width="100%" height="30px" preserveAspectRatio="xMaxYMin meet">
         <g id="arrow_out" transform="scale(0.3 0.3)">
          <a xlink:href="TPC_2simulation_2include_2TPCSimulation_2Detector_8h__incl_org.svg" target="_base">
           <rect id="button" ry="5" rx="5" y="6" x="6" height="38" width="38"
                fill="#f2f5e9" fill-opacity="0.5" stroke="#606060" stroke-width="1.0"/>
           <path id="arrow"
             d="M 11.500037,31.436501 C 11.940474,20.09759 22.043105,11.32322 32.158766,21.979434 L 37.068811,17.246167 C 37.068811,17.246167 37.088388,32 37.088388,32 L 22.160133,31.978069 C 22.160133,31.978069 26.997745,27.140456 26.997745,27.140456 C 18.528582,18.264221 13.291696,25.230495 11.500037,31.436501 z"
             style="fill:#404040;"/>
          </a>
         </g>
        </svg>
</svg>
