<?xml version="1.0" encoding="UTF-8" standalone="no"?>
<!DOCTYPE svg PUBLIC "-//W3C//DTD SVG 1.1//EN"
 "http://www.w3.org/Graphics/SVG/1.1/DTD/svg11.dtd">
<!-- Generated by graphviz version 2.36.0 (20140111.2315)
 -->
<!-- Title: o2::DataFormat::TPC::ClusterNative Pages: 1 -->
<svg width="437pt" height="358pt"
 viewBox="0.00 0.00 437.00 358.00" xmlns="http://www.w3.org/2000/svg" xmlns:xlink="http://www.w3.org/1999/xlink">
<g id="graph0" class="graph" transform="scale(1 1) rotate(0) translate(4 354)">
<title>o2::DataFormat::TPC::ClusterNative</title>
<!-- Node1 -->
<g id="node1" class="node"><title>Node1</title>
<polygon fill="#bfbfbf" stroke="black" points="110,-0.5 110,-211.5 234,-211.5 234,-0.5 110,-0.5"/>
<text text-anchor="start" x="118" y="-199.5" font-family="Helvetica,sans-Serif" font-size="10.00">o2::DataFormat::TPC</text>
<text text-anchor="middle" x="172" y="-188.5" font-family="Helvetica,sans-Serif" font-size="10.00">::ClusterNative</text>
<polyline fill="none" stroke="black" points="110,-181.5 234,-181.5 "/>
<text text-anchor="middle" x="172" y="-169.5" font-family="Helvetica,sans-Serif" font-size="10.00"> </text>
<polyline fill="none" stroke="black" points="110,-162.5 234,-162.5 "/>
<text text-anchor="start" x="118" y="-150.5" font-family="Helvetica,sans-Serif" font-size="10.00">+ getFlags()</text>
<text text-anchor="start" x="118" y="-139.5" font-family="Helvetica,sans-Serif" font-size="10.00">+ getTimePacked()</text>
<text text-anchor="start" x="118" y="-128.5" font-family="Helvetica,sans-Serif" font-size="10.00">+ setTimePackedFlags()</text>
<text text-anchor="start" x="118" y="-117.5" font-family="Helvetica,sans-Serif" font-size="10.00">+ setTimePacked()</text>
<text text-anchor="start" x="118" y="-106.5" font-family="Helvetica,sans-Serif" font-size="10.00">+ setFlags()</text>
<text text-anchor="start" x="118" y="-95.5" font-family="Helvetica,sans-Serif" font-size="10.00">+ getTime()</text>
<text text-anchor="start" x="118" y="-84.5" font-family="Helvetica,sans-Serif" font-size="10.00">+ setTime()</text>
<text text-anchor="start" x="118" y="-73.5" font-family="Helvetica,sans-Serif" font-size="10.00">+ setTimeFlags()</text>
<text text-anchor="start" x="118" y="-62.5" font-family="Helvetica,sans-Serif" font-size="10.00">+ getPad()</text>
<text text-anchor="start" x="118" y="-51.5" font-family="Helvetica,sans-Serif" font-size="10.00">+ setPad()</text>
<text text-anchor="start" x="118" y="-40.5" font-family="Helvetica,sans-Serif" font-size="10.00">+ getSigmaTime()</text>
<text text-anchor="start" x="118" y="-29.5" font-family="Helvetica,sans-Serif" font-size="10.00">+ setSigmaTime()</text>
<text text-anchor="start" x="118" y="-18.5" font-family="Helvetica,sans-Serif" font-size="10.00">+ getSigmaPad()</text>
<text text-anchor="start" x="118" y="-7.5" font-family="Helvetica,sans-Serif" font-size="10.00">+ setSigmaPad()</text>
</g>
<!-- Node2 -->
<g id="node2" class="node"><title>Node2</title>
<polygon fill="none" stroke="#bfbfbf" points="-0.5,-292.5 -0.5,-349.5 50.5,-349.5 50.5,-292.5 -0.5,-292.5"/>
<text text-anchor="middle" x="25" y="-337.5" font-family="Helvetica,sans-Serif" font-size="10.00">uint32_t</text>
<polyline fill="none" stroke="#bfbfbf" points="-0.5,-330.5 50.5,-330.5 "/>
<text text-anchor="middle" x="25" y="-318.5" font-family="Helvetica,sans-Serif" font-size="10.00"> </text>
<polyline fill="none" stroke="#bfbfbf" points="-0.5,-311.5 50.5,-311.5 "/>
<text text-anchor="middle" x="25" y="-299.5" font-family="Helvetica,sans-Serif" font-size="10.00"> </text>
</g>
<!-- Node2&#45;&gt;Node1 -->
<g id="edge1" class="edge"><title>Node2&#45;&gt;Node1</title>
<path fill="none" stroke="#404040" d="M25.8362,-292.132C27.4237,-273.55 31.5582,-249.119 42,-230 56.4636,-203.517 78.663,-179.425 100.647,-159.722"/>
<polygon fill="none" stroke="#404040" points="100.653,-159.716 102.549,-152.759 109.701,-151.833 107.805,-158.79 100.653,-159.716"/>
<text text-anchor="middle" x="84.5" y="-249.5" font-family="Helvetica,sans-Serif" font-size="10.00"> +timeFlagsPacked</text>
</g>
<!-- Node3 -->
<g id="node3" class="node"><title>Node3</title>
<polygon fill="none" stroke="#bfbfbf" points="107.5,-292.5 107.5,-349.5 158.5,-349.5 158.5,-292.5 107.5,-292.5"/>
<text text-anchor="middle" x="133" y="-337.5" font-family="Helvetica,sans-Serif" font-size="10.00">uint16_t</text>
<polyline fill="none" stroke="#bfbfbf" points="107.5,-330.5 158.5,-330.5 "/>
<text text-anchor="middle" x="133" y="-318.5" font-family="Helvetica,sans-Serif" font-size="10.00"> </text>
<polyline fill="none" stroke="#bfbfbf" points="107.5,-311.5 158.5,-311.5 "/>
<text text-anchor="middle" x="133" y="-299.5" font-family="Helvetica,sans-Serif" font-size="10.00"> </text>
</g>
<!-- Node3&#45;&gt;Node1 -->
<g id="edge2" class="edge"><title>Node3&#45;&gt;Node1</title>
<path fill="none" stroke="#404040" d="M131.257,-292.256C130.638,-274.376 130.76,-250.687 134,-230 134.342,-227.818 134.714,-225.621 135.113,-223.413"/>
<polygon fill="none" stroke="#404040" points="135.136,-223.3 132.393,-216.631 137.495,-211.534 140.237,-218.203 135.136,-223.3"/>
<text text-anchor="middle" x="161.5" y="-260.5" font-family="Helvetica,sans-Serif" font-size="10.00"> +qTot</text>
<text text-anchor="middle" x="161.5" y="-249.5" font-family="Helvetica,sans-Serif" font-size="10.00">+padPacked</text>
<text text-anchor="middle" x="161.5" y="-238.5" font-family="Helvetica,sans-Serif" font-size="10.00">+qMax</text>
</g>
<!-- Node4 -->
<g id="node4" class="node"><title>Node4</title>
<polygon fill="none" stroke="#bfbfbf" points="196.5,-292.5 196.5,-349.5 225.5,-349.5 225.5,-292.5 196.5,-292.5"/>
<text text-anchor="middle" x="211" y="-337.5" font-family="Helvetica,sans-Serif" font-size="10.00">int</text>
<polyline fill="none" stroke="#bfbfbf" points="196.5,-330.5 225.5,-330.5 "/>
<text text-anchor="middle" x="211" y="-318.5" font-family="Helvetica,sans-Serif" font-size="10.00"> </text>
<polyline fill="none" stroke="#bfbfbf" points="196.5,-311.5 225.5,-311.5 "/>
<text text-anchor="middle" x="211" y="-299.5" font-family="Helvetica,sans-Serif" font-size="10.00"> </text>
</g>
<!-- Node4&#45;&gt;Node1 -->
<g id="edge3" class="edge"><title>Node4&#45;&gt;Node1</title>
<path fill="none" stroke="#404040" d="M205.901,-292.154C202.589,-274.063 198.024,-249.131 193.316,-223.42"/>
<polygon fill="none" stroke="#404040" points="193.309,-223.378 188.294,-218.197 191.147,-211.574 196.163,-216.756 193.309,-223.378"/>
<text text-anchor="middle" x="259" y="-266" font-family="Helvetica,sans-Serif" font-size="10.00"> +scaleTimePacked</text>
<text text-anchor="middle" x="259" y="-255" font-family="Helvetica,sans-Serif" font-size="10.00">+scaleSigmaPadPacked</text>
<text text-anchor="middle" x="259" y="-244" font-family="Helvetica,sans-Serif" font-size="10.00">+scaleSigmaTimePacked</text>
<text text-anchor="middle" x="259" y="-233" font-family="Helvetica,sans-Serif" font-size="10.00">+scalePadPacked</text>
</g>
<!-- Node5 -->
<g id="node5" class="node"><title>Node5</title>
<polygon fill="none" stroke="#bfbfbf" points="323,-292.5 323,-349.5 369,-349.5 369,-292.5 323,-292.5"/>
<text text-anchor="middle" x="346" y="-337.5" font-family="Helvetica,sans-Serif" font-size="10.00">uint8_t</text>
<polyline fill="none" stroke="#bfbfbf" points="323,-330.5 369,-330.5 "/>
<text text-anchor="middle" x="346" y="-318.5" font-family="Helvetica,sans-Serif" font-size="10.00"> </text>
<polyline fill="none" stroke="#bfbfbf" points="323,-311.5 369,-311.5 "/>
<text text-anchor="middle" x="346" y="-299.5" font-family="Helvetica,sans-Serif" font-size="10.00"> </text>
</g>
<!-- Node5&#45;&gt;Node1 -->
<g id="edge4" class="edge"><title>Node5&#45;&gt;Node1</title>
<path fill="none" stroke="#404040" d="M341.975,-292.243C338.267,-273.481 331.389,-248.796 319,-230 299.51,-200.43 270.818,-174.187 243.944,-153.616"/>
<polygon fill="none" stroke="#404040" points="243.76,-153.479 236.559,-153.094 234.145,-146.298 241.346,-146.684 243.76,-153.479"/>
<text text-anchor="middle" x="383.5" y="-255" font-family="Helvetica,sans-Serif" font-size="10.00"> +sigmaTimePacked</text>
<text text-anchor="middle" x="383.5" y="-244" font-family="Helvetica,sans-Serif" font-size="10.00">+sigmaPadPacked</text>
</g>
</g>
</svg>
