<?xml version="1.0" encoding="UTF-8" standalone="no"?>
<!DOCTYPE svg PUBLIC "-//W3C//DTD SVG 1.1//EN"
 "http://www.w3.org/Graphics/SVG/1.1/DTD/svg11.dtd">
<!-- Generated by graphviz version 2.36.0 (20140111.2315)
 -->
<!-- Title: /home/travis/build/AliceO2Group/AliceO2/Detectors/ITSMFT/MFT/simulation/include/MFTSimulation/Detector.h Pages: 1 -->
<svg width="2095pt" height="400pt"
 viewBox="0.00 0.00 2095.00 400.00" xmlns="http://www.w3.org/2000/svg" xmlns:xlink="http://www.w3.org/1999/xlink">
<g id="graph0" class="graph" transform="scale(1 1) rotate(0) translate(4 396)">
<title>/home/travis/build/AliceO2Group/AliceO2/Detectors/ITSMFT/MFT/simulation/include/MFTSimulation/Detector.h</title>
<!-- Node1 -->
<g id="node1" class="node"><title>Node1</title>
<polygon fill="#bfbfbf" stroke="black" points="915.5,-328.5 915.5,-391.5 1082.5,-391.5 1082.5,-328.5 915.5,-328.5"/>
<text text-anchor="start" x="923.5" y="-379.5" font-family="Helvetica,sans-Serif" font-size="10.00">/home/travis/build</text>
<text text-anchor="start" x="923.5" y="-368.5" font-family="Helvetica,sans-Serif" font-size="10.00">/AliceO2Group/AliceO2</text>
<text text-anchor="start" x="923.5" y="-357.5" font-family="Helvetica,sans-Serif" font-size="10.00">/Detectors/ITSMFT/MFT</text>
<text text-anchor="start" x="923.5" y="-346.5" font-family="Helvetica,sans-Serif" font-size="10.00">/simulation/include/MFTSimulation</text>
<text text-anchor="middle" x="999" y="-335.5" font-family="Helvetica,sans-Serif" font-size="10.00">/Detector.h</text>
</g>
<!-- Node2 -->
<g id="node2" class="node"><title>Node2</title>
<polygon fill="none" stroke="#bfbfbf" points="512,-272.5 512,-291.5 604,-291.5 604,-272.5 512,-272.5"/>
<text text-anchor="middle" x="558" y="-279.5" font-family="Helvetica,sans-Serif" font-size="10.00">TLorentzVector.h</text>
</g>
<!-- Node1&#45;&gt;Node2 -->
<g id="edge1" class="edge"><title>Node1&#45;&gt;Node2</title>
<path fill="none" stroke="midnightblue" d="M915.273,-344.571C826.935,-329.347 690.194,-305.782 614.05,-292.659"/>
<polygon fill="midnightblue" stroke="midnightblue" points="614.619,-289.206 604.17,-290.957 613.43,-296.104 614.619,-289.206"/>
</g>
<!-- Node3 -->
<g id="node3" class="node"><title>Node3</title>
<g id="a_node3"><a xlink:href="../../d1/d3a/Base_2include_2DetectorsBase_2Detector_8h.html" target="_top" xlink:title="DetectorsBase/Detector.h">
<polygon fill="none" stroke="black" points="1483.5,-272.5 1483.5,-291.5 1614.5,-291.5 1614.5,-272.5 1483.5,-272.5"/>
<text text-anchor="middle" x="1549" y="-279.5" font-family="Helvetica,sans-Serif" font-size="10.00">DetectorsBase/Detector.h</text>
</a>
</g>
</g>
<!-- Node1&#45;&gt;Node3 -->
<g id="edge2" class="edge"><title>Node1&#45;&gt;Node3</title>
<path fill="none" stroke="midnightblue" d="M1082.53,-347.457C1190.18,-332.583 1375.51,-306.973 1477.15,-292.928"/>
<polygon fill="midnightblue" stroke="midnightblue" points="1477.89,-296.359 1487.32,-291.523 1476.94,-289.425 1477.89,-296.359"/>
</g>
<!-- Node5 -->
<g id="node5" class="node"><title>Node5</title>
<polygon fill="none" stroke="#bfbfbf" points="1298,-210.5 1298,-229.5 1342,-229.5 1342,-210.5 1298,-210.5"/>
<text text-anchor="middle" x="1320" y="-217.5" font-family="Helvetica,sans-Serif" font-size="10.00">vector</text>
</g>
<!-- Node1&#45;&gt;Node5 -->
<g id="edge46" class="edge"><title>Node1&#45;&gt;Node5</title>
<path fill="none" stroke="midnightblue" d="M1072.96,-328.383C1131.54,-303.927 1215.32,-268.489 1288,-236 1289.58,-235.294 1291.2,-234.562 1292.83,-233.818"/>
<polygon fill="midnightblue" stroke="midnightblue" points="1294.51,-236.899 1302.11,-229.523 1291.57,-230.546 1294.51,-236.899"/>
</g>
<!-- Node15 -->
<g id="node15" class="node"><title>Node15</title>
<g id="a_node15"><a xlink:href="../../d6/d31/DetID_8h.html" target="_top" xlink:title="DetectorsBase/DetID.h">
<polygon fill="none" stroke="black" points="939.5,-272.5 939.5,-291.5 1058.5,-291.5 1058.5,-272.5 939.5,-272.5"/>
<text text-anchor="middle" x="999" y="-279.5" font-family="Helvetica,sans-Serif" font-size="10.00">DetectorsBase/DetID.h</text>
</a>
</g>
</g>
<!-- Node1&#45;&gt;Node15 -->
<g id="edge16" class="edge"><title>Node1&#45;&gt;Node15</title>
<path fill="none" stroke="midnightblue" d="M999,-328.088C999,-319.15 999,-309.669 999,-301.719"/>
<polygon fill="midnightblue" stroke="midnightblue" points="1002.5,-301.718 999,-291.718 995.5,-301.718 1002.5,-301.718"/>
</g>
<!-- Node23 -->
<g id="node23" class="node"><title>Node23</title>
<g id="a_node23"><a xlink:href="../../d0/dae/ITSMFT_2common_2simulation_2include_2ITSMFTSimulation_2Hit_8h.html" target="_top" xlink:title="ITSMFTSimulation/Hit.h">
<polygon fill="none" stroke="black" points="622,-272.5 622,-291.5 744,-291.5 744,-272.5 622,-272.5"/>
<text text-anchor="middle" x="683" y="-279.5" font-family="Helvetica,sans-Serif" font-size="10.00">ITSMFTSimulation/Hit.h</text>
</a>
</g>
</g>
<!-- Node1&#45;&gt;Node23 -->
<g id="edge27" class="edge"><title>Node1&#45;&gt;Node23</title>
<path fill="none" stroke="midnightblue" d="M915.147,-338.833C855.231,-324.423 776.916,-305.587 728.297,-293.894"/>
<polygon fill="midnightblue" stroke="midnightblue" points="728.931,-290.447 718.39,-291.512 727.294,-297.253 728.931,-290.447"/>
</g>
<!-- Node4 -->
<g id="node4" class="node"><title>Node4</title>
<polygon fill="none" stroke="#bfbfbf" points="1646.5,-142.5 1646.5,-161.5 1681.5,-161.5 1681.5,-142.5 1646.5,-142.5"/>
<text text-anchor="middle" x="1664" y="-149.5" font-family="Helvetica,sans-Serif" font-size="10.00">map</text>
</g>
<!-- Node3&#45;&gt;Node4 -->
<g id="edge3" class="edge"><title>Node3&#45;&gt;Node4</title>
<path fill="none" stroke="midnightblue" d="M1614.57,-278.736C1645.69,-273.946 1680.3,-262.427 1700,-236 1715.41,-215.33 1696.26,-187.044 1680.53,-169.407"/>
<polygon fill="midnightblue" stroke="midnightblue" points="1682.66,-166.56 1673.25,-161.684 1677.56,-171.361 1682.66,-166.56"/>
</g>
<!-- Node3&#45;&gt;Node5 -->
<g id="edge4" class="edge"><title>Node3&#45;&gt;Node5</title>
<path fill="none" stroke="midnightblue" d="M1502.79,-272.468C1463.32,-264.651 1405.28,-251.891 1356,-236 1353.43,-235.171 1350.79,-234.237 1348.16,-233.25"/>
<polygon fill="midnightblue" stroke="midnightblue" points="1349.42,-229.986 1338.84,-229.539 1346.83,-236.49 1349.42,-229.986"/>
</g>
<!-- Node6 -->
<g id="node6" class="node"><title>Node6</title>
<polygon fill="none" stroke="#bfbfbf" points="1748,-210.5 1748,-229.5 1800,-229.5 1800,-210.5 1748,-210.5"/>
<text text-anchor="middle" x="1774" y="-217.5" font-family="Helvetica,sans-Serif" font-size="10.00">memory</text>
</g>
<!-- Node3&#45;&gt;Node6 -->
<g id="edge5" class="edge"><title>Node3&#45;&gt;Node6</title>
<path fill="none" stroke="midnightblue" d="M1590.17,-272.475C1627.91,-264.307 1685.19,-251.028 1734,-236 1736.95,-235.091 1740,-234.08 1743.04,-233.026"/>
<polygon fill="midnightblue" stroke="midnightblue" points="1744.36,-236.27 1752.57,-229.576 1741.98,-229.688 1744.36,-236.27"/>
</g>
<!-- Node7 -->
<g id="node7" class="node"><title>Node7</title>
<polygon fill="none" stroke="#bfbfbf" points="1818.5,-210.5 1818.5,-229.5 1897.5,-229.5 1897.5,-210.5 1818.5,-210.5"/>
<text text-anchor="middle" x="1858" y="-217.5" font-family="Helvetica,sans-Serif" font-size="10.00">FairDetector.h</text>
</g>
<!-- Node3&#45;&gt;Node7 -->
<g id="edge6" class="edge"><title>Node3&#45;&gt;Node7</title>
<path fill="none" stroke="midnightblue" d="M1611.17,-272.485C1664.13,-264.699 1742.05,-251.974 1809,-236 1813.4,-234.95 1817.99,-233.724 1822.52,-232.435"/>
<polygon fill="midnightblue" stroke="midnightblue" points="1823.64,-235.753 1832.23,-229.554 1821.65,-229.042 1823.64,-235.753"/>
</g>
<!-- Node8 -->
<g id="node8" class="node"><title>Node8</title>
<polygon fill="none" stroke="#bfbfbf" points="1916,-210.5 1916,-229.5 2016,-229.5 2016,-210.5 1916,-210.5"/>
<text text-anchor="middle" x="1966" y="-217.5" font-family="Helvetica,sans-Serif" font-size="10.00">FairRootManager.h</text>
</g>
<!-- Node3&#45;&gt;Node8 -->
<g id="edge7" class="edge"><title>Node3&#45;&gt;Node8</title>
<path fill="none" stroke="midnightblue" d="M1614.51,-275.115C1686.39,-268.107 1804.99,-254.921 1906,-236 1912.16,-234.845 1918.64,-233.437 1924.96,-231.95"/>
<polygon fill="midnightblue" stroke="midnightblue" points="1925.82,-235.344 1934.7,-229.575 1924.16,-228.543 1925.82,-235.344"/>
</g>
<!-- Node9 -->
<g id="node9" class="node"><title>Node9</title>
<g id="a_node9"><a xlink:href="../../d0/d9a/MaterialManager_8h.html" target="_top" xlink:title="DetectorsBase/MaterialManager.h">
<polygon fill="none" stroke="black" points="1526.5,-210.5 1526.5,-229.5 1691.5,-229.5 1691.5,-210.5 1526.5,-210.5"/>
<text text-anchor="middle" x="1609" y="-217.5" font-family="Helvetica,sans-Serif" font-size="10.00">DetectorsBase/MaterialManager.h</text>
</a>
</g>
</g>
<!-- Node3&#45;&gt;Node9 -->
<g id="edge8" class="edge"><title>Node3&#45;&gt;Node9</title>
<path fill="none" stroke="midnightblue" d="M1557.6,-272.403C1566.86,-263.136 1581.82,-248.183 1593.21,-236.788"/>
<polygon fill="midnightblue" stroke="midnightblue" points="1595.82,-239.127 1600.42,-229.581 1590.87,-234.177 1595.82,-239.127"/>
</g>
<!-- Node10 -->
<g id="node10" class="node"><title>Node10</title>
<polygon fill="none" stroke="#bfbfbf" points="1192,-74.5 1192,-93.5 1248,-93.5 1248,-74.5 1192,-74.5"/>
<text text-anchor="middle" x="1220" y="-81.5" font-family="Helvetica,sans-Serif" font-size="10.00">Rtypes.h</text>
</g>
<!-- Node3&#45;&gt;Node10 -->
<g id="edge11" class="edge"><title>Node3&#45;&gt;Node10</title>
<path fill="none" stroke="midnightblue" d="M1496.25,-272.447C1463.89,-265.709 1422.4,-254.317 1389,-236 1380.21,-231.176 1278.16,-138.2 1237.03,-100.59"/>
<polygon fill="midnightblue" stroke="midnightblue" points="1239.18,-97.8203 1229.44,-93.6527 1234.46,-102.985 1239.18,-97.8203"/>
</g>
<!-- Node11 -->
<g id="node11" class="node"><title>Node11</title>
<polygon fill="none" stroke="#bfbfbf" points="2034.5,-210.5 2034.5,-229.5 2087.5,-229.5 2087.5,-210.5 2034.5,-210.5"/>
<text text-anchor="middle" x="2061" y="-217.5" font-family="Helvetica,sans-Serif" font-size="10.00">cxxabi.h</text>
</g>
<!-- Node3&#45;&gt;Node11 -->
<g id="edge12" class="edge"><title>Node3&#45;&gt;Node11</title>
<path fill="none" stroke="midnightblue" d="M1614.71,-280.975C1707.51,-279.553 1881.64,-271.77 2025,-236 2027.99,-235.254 2031.06,-234.298 2034.08,-233.232"/>
<polygon fill="midnightblue" stroke="midnightblue" points="2035.39,-236.478 2043.42,-229.567 2032.83,-229.962 2035.39,-236.478"/>
</g>
<!-- Node12 -->
<g id="node12" class="node"><title>Node12</title>
<polygon fill="none" stroke="#bfbfbf" points="1398.5,-210.5 1398.5,-229.5 1449.5,-229.5 1449.5,-210.5 1398.5,-210.5"/>
<text text-anchor="middle" x="1424" y="-217.5" font-family="Helvetica,sans-Serif" font-size="10.00">typeinfo</text>
</g>
<!-- Node3&#45;&gt;Node12 -->
<g id="edge13" class="edge"><title>Node3&#45;&gt;Node12</title>
<path fill="none" stroke="midnightblue" d="M1531.09,-272.403C1510.11,-262.334 1475.15,-245.552 1450.91,-233.915"/>
<polygon fill="midnightblue" stroke="midnightblue" points="1452.41,-230.753 1441.88,-229.581 1449.38,-237.063 1452.41,-230.753"/>
</g>
<!-- Node13 -->
<g id="node13" class="node"><title>Node13</title>
<polygon fill="none" stroke="#bfbfbf" points="1218,-210.5 1218,-229.5 1280,-229.5 1280,-210.5 1218,-210.5"/>
<text text-anchor="middle" x="1249" y="-217.5" font-family="Helvetica,sans-Serif" font-size="10.00">type_traits</text>
</g>
<!-- Node3&#45;&gt;Node13 -->
<g id="edge14" class="edge"><title>Node3&#45;&gt;Node13</title>
<path fill="none" stroke="midnightblue" d="M1483.35,-273.105C1430.33,-265.903 1354.1,-253.672 1289,-236 1285.78,-235.126 1282.45,-234.095 1279.16,-232.991"/>
<polygon fill="midnightblue" stroke="midnightblue" points="1280.11,-229.613 1269.52,-229.536 1277.75,-236.203 1280.11,-229.613"/>
</g>
<!-- Node14 -->
<g id="node14" class="node"><title>Node14</title>
<polygon fill="none" stroke="#bfbfbf" points="1467.5,-210.5 1467.5,-229.5 1508.5,-229.5 1508.5,-210.5 1467.5,-210.5"/>
<text text-anchor="middle" x="1488" y="-217.5" font-family="Helvetica,sans-Serif" font-size="10.00">string</text>
</g>
<!-- Node3&#45;&gt;Node14 -->
<g id="edge15" class="edge"><title>Node3&#45;&gt;Node14</title>
<path fill="none" stroke="midnightblue" d="M1540.26,-272.403C1530.84,-263.136 1515.64,-248.183 1504.05,-236.788"/>
<polygon fill="midnightblue" stroke="midnightblue" points="1506.31,-234.098 1496.72,-229.581 1501.4,-239.088 1506.31,-234.098"/>
</g>
<!-- Node9&#45;&gt;Node4 -->
<g id="edge10" class="edge"><title>Node9&#45;&gt;Node4</title>
<path fill="none" stroke="midnightblue" d="M1616.19,-210.372C1624.79,-200.053 1639.37,-182.551 1650.18,-169.585"/>
<polygon fill="midnightblue" stroke="midnightblue" points="1652.92,-171.764 1656.63,-161.841 1647.54,-167.283 1652.92,-171.764"/>
</g>
<!-- Node9&#45;&gt;Node10 -->
<g id="edge9" class="edge"><title>Node9&#45;&gt;Node10</title>
<path fill="none" stroke="midnightblue" d="M1587.1,-210.49C1547.02,-195.015 1459.1,-161.51 1384,-136 1341.14,-121.443 1291.45,-106.218 1258.09,-96.235"/>
<polygon fill="midnightblue" stroke="midnightblue" points="1258.88,-92.8159 1248.29,-93.3118 1256.88,-99.5239 1258.88,-92.8159"/>
</g>
<!-- Node15&#45;&gt;Node10 -->
<g id="edge17" class="edge"><title>Node15&#45;&gt;Node10</title>
<path fill="none" stroke="midnightblue" d="M939.195,-279.554C906.676,-275.322 868.926,-264.072 848,-236 839.5,-224.597 841.025,-216.394 848,-204 924.456,-68.1364 1032.86,-141.974 1183,-100 1185.82,-99.2127 1188.71,-98.2775 1191.58,-97.2646"/>
<polygon fill="midnightblue" stroke="midnightblue" points="1193,-100.469 1201.08,-93.623 1190.49,-93.9322 1193,-100.469"/>
</g>
<!-- Node15&#45;&gt;Node13 -->
<g id="edge22" class="edge"><title>Node15&#45;&gt;Node13</title>
<path fill="none" stroke="midnightblue" d="M1048.04,-272.433C1090.7,-264.509 1153.98,-251.615 1208,-236 1211.2,-235.074 1214.52,-234.023 1217.81,-232.918"/>
<polygon fill="midnightblue" stroke="midnightblue" points="1219.21,-236.133 1227.48,-229.508 1216.89,-229.531 1219.21,-236.133"/>
</g>
<!-- Node16 -->
<g id="node16" class="node"><title>Node16</title>
<polygon fill="none" stroke="#bfbfbf" points="969,-142.5 969,-161.5 1007,-161.5 1007,-142.5 969,-142.5"/>
<text text-anchor="middle" x="988" y="-149.5" font-family="Helvetica,sans-Serif" font-size="10.00">array</text>
</g>
<!-- Node15&#45;&gt;Node16 -->
<g id="edge18" class="edge"><title>Node15&#45;&gt;Node16</title>
<path fill="none" stroke="midnightblue" d="M998.244,-272.202C996.469,-251.551 992.005,-199.606 989.598,-171.594"/>
<polygon fill="midnightblue" stroke="midnightblue" points="993.076,-171.186 988.732,-161.522 986.102,-171.785 993.076,-171.186"/>
</g>
<!-- Node17 -->
<g id="node17" class="node"><title>Node17</title>
<polygon fill="none" stroke="#bfbfbf" points="1158.5,-210.5 1158.5,-229.5 1199.5,-229.5 1199.5,-210.5 1158.5,-210.5"/>
<text text-anchor="middle" x="1179" y="-217.5" font-family="Helvetica,sans-Serif" font-size="10.00">bitset</text>
</g>
<!-- Node15&#45;&gt;Node17 -->
<g id="edge19" class="edge"><title>Node15&#45;&gt;Node17</title>
<path fill="none" stroke="midnightblue" d="M1033.53,-272.455C1064.31,-264.414 1110.33,-251.335 1149,-236 1150.6,-235.365 1152.23,-234.677 1153.86,-233.957"/>
<polygon fill="midnightblue" stroke="midnightblue" points="1155.5,-237.056 1163.04,-229.617 1152.5,-230.728 1155.5,-237.056"/>
</g>
<!-- Node18 -->
<g id="node18" class="node"><title>Node18</title>
<polygon fill="none" stroke="#bfbfbf" points="857.5,-210.5 857.5,-229.5 906.5,-229.5 906.5,-210.5 857.5,-210.5"/>
<text text-anchor="middle" x="882" y="-217.5" font-family="Helvetica,sans-Serif" font-size="10.00">cassert</text>
</g>
<!-- Node15&#45;&gt;Node18 -->
<g id="edge20" class="edge"><title>Node15&#45;&gt;Node18</title>
<path fill="none" stroke="midnightblue" d="M982.237,-272.403C962.775,-262.423 930.455,-245.849 907.789,-234.225"/>
<polygon fill="midnightblue" stroke="midnightblue" points="909.227,-231.029 898.732,-229.581 906.033,-237.258 909.227,-231.029"/>
</g>
<!-- Node19 -->
<g id="node19" class="node"><title>Node19</title>
<polygon fill="none" stroke="#bfbfbf" points="925,-210.5 925,-229.5 971,-229.5 971,-210.5 925,-210.5"/>
<text text-anchor="middle" x="948" y="-217.5" font-family="Helvetica,sans-Serif" font-size="10.00">cstdint</text>
</g>
<!-- Node15&#45;&gt;Node19 -->
<g id="edge21" class="edge"><title>Node15&#45;&gt;Node19</title>
<path fill="none" stroke="midnightblue" d="M991.693,-272.403C983.967,-263.314 971.592,-248.756 961.982,-237.449"/>
<polygon fill="midnightblue" stroke="midnightblue" points="964.437,-234.933 955.294,-229.581 959.103,-239.467 964.437,-234.933"/>
</g>
<!-- Node20 -->
<g id="node20" class="node"><title>Node20</title>
<g id="a_node20"><a xlink:href="../../d9/ded/Utils_8h.html" target="_top" xlink:title="DetectorsBase/Utils.h">
<polygon fill="none" stroke="black" points="1027.5,-210.5 1027.5,-229.5 1140.5,-229.5 1140.5,-210.5 1027.5,-210.5"/>
<text text-anchor="middle" x="1084" y="-217.5" font-family="Helvetica,sans-Serif" font-size="10.00">DetectorsBase/Utils.h</text>
</a>
</g>
</g>
<!-- Node15&#45;&gt;Node20 -->
<g id="edge23" class="edge"><title>Node15&#45;&gt;Node20</title>
<path fill="none" stroke="midnightblue" d="M1011.18,-272.403C1024.81,-262.78 1047.13,-247.024 1063.47,-235.489"/>
<polygon fill="midnightblue" stroke="midnightblue" points="1065.69,-238.207 1071.84,-229.581 1061.66,-232.488 1065.69,-238.207"/>
</g>
<!-- Node20&#45;&gt;Node16 -->
<g id="edge26" class="edge"><title>Node20&#45;&gt;Node16</title>
<path fill="none" stroke="midnightblue" d="M1071.45,-210.372C1055.57,-199.452 1027.98,-180.489 1008.9,-167.369"/>
<polygon fill="midnightblue" stroke="midnightblue" points="1010.78,-164.412 1000.55,-161.63 1006.81,-170.18 1010.78,-164.412"/>
</g>
<!-- Node21 -->
<g id="node21" class="node"><title>Node21</title>
<g id="a_node21"><a xlink:href="../../d1/daa/Base_2include_2DetectorsBase_2Constants_8h.html" target="_top" xlink:title="DetectorsBase/Constants.h">
<polygon fill="none" stroke="black" points="1025,-142.5 1025,-161.5 1163,-161.5 1163,-142.5 1025,-142.5"/>
<text text-anchor="middle" x="1094" y="-149.5" font-family="Helvetica,sans-Serif" font-size="10.00">DetectorsBase/Constants.h</text>
</a>
</g>
</g>
<!-- Node20&#45;&gt;Node21 -->
<g id="edge24" class="edge"><title>Node20&#45;&gt;Node21</title>
<path fill="none" stroke="midnightblue" d="M1085.31,-210.372C1086.78,-200.643 1089.22,-184.528 1091.14,-171.85"/>
<polygon fill="midnightblue" stroke="midnightblue" points="1094.62,-172.253 1092.66,-161.841 1087.7,-171.204 1094.62,-172.253"/>
</g>
<!-- Node22 -->
<g id="node22" class="node"><title>Node22</title>
<polygon fill="none" stroke="#bfbfbf" points="1181,-142.5 1181,-161.5 1225,-161.5 1225,-142.5 1181,-142.5"/>
<text text-anchor="middle" x="1203" y="-149.5" font-family="Helvetica,sans-Serif" font-size="10.00">cmath</text>
</g>
<!-- Node20&#45;&gt;Node22 -->
<g id="edge25" class="edge"><title>Node20&#45;&gt;Node22</title>
<path fill="none" stroke="midnightblue" d="M1099.56,-210.372C1119.69,-199.205 1154.99,-179.627 1178.68,-166.488"/>
<polygon fill="midnightblue" stroke="midnightblue" points="1180.39,-169.541 1187.44,-161.63 1177,-163.42 1180.39,-169.541"/>
</g>
<!-- Node23&#45;&gt;Node10 -->
<g id="edge43" class="edge"><title>Node23&#45;&gt;Node10</title>
<path fill="none" stroke="midnightblue" d="M680.868,-272.186C675.295,-246.739 663.266,-172.638 702,-136 740.935,-99.1712 1130.82,-112.215 1183,-100 1186.07,-99.2807 1189.22,-98.3428 1192.33,-97.2868"/>
<polygon fill="midnightblue" stroke="midnightblue" points="1193.82,-100.462 1201.92,-93.634 1191.33,-93.92 1193.82,-100.462"/>
</g>
<!-- Node24 -->
<g id="node24" class="node"><title>Node24</title>
<g id="a_node24"><a xlink:href="../../d4/d25/BaseHits_8h.html" target="_top" xlink:title="SimulationDataFormat\l/BaseHits.h">
<polygon fill="none" stroke="black" points="541,-205 541,-235 655,-235 655,-205 541,-205"/>
<text text-anchor="start" x="549" y="-223" font-family="Helvetica,sans-Serif" font-size="10.00">SimulationDataFormat</text>
<text text-anchor="middle" x="598" y="-212" font-family="Helvetica,sans-Serif" font-size="10.00">/BaseHits.h</text>
</a>
</g>
</g>
<!-- Node23&#45;&gt;Node24 -->
<g id="edge28" class="edge"><title>Node23&#45;&gt;Node24</title>
<path fill="none" stroke="midnightblue" d="M670.822,-272.403C659.31,-264.277 641.604,-251.779 626.534,-241.142"/>
<polygon fill="midnightblue" stroke="midnightblue" points="628.221,-238.048 618.033,-235.141 624.184,-243.767 628.221,-238.048"/>
</g>
<!-- Node35 -->
<g id="node35" class="node"><title>Node35</title>
<polygon fill="none" stroke="#bfbfbf" points="0,-74.5 0,-93.5 54,-93.5 54,-74.5 0,-74.5"/>
<text text-anchor="middle" x="27" y="-81.5" font-family="Helvetica,sans-Serif" font-size="10.00">iostream</text>
</g>
<!-- Node23&#45;&gt;Node35 -->
<g id="edge45" class="edge"><title>Node23&#45;&gt;Node35</title>
<path fill="none" stroke="midnightblue" d="M625.468,-272.464C577.551,-264.764 507.744,-252.174 448,-236 297.623,-195.29 124.367,-125.643 56.4579,-97.4216"/>
<polygon fill="midnightblue" stroke="midnightblue" points="57.7949,-94.1871 47.2182,-93.5667 55.0995,-100.647 57.7949,-94.1871"/>
</g>
<!-- Node36 -->
<g id="node36" class="node"><title>Node36</title>
<g id="a_node36"><a xlink:href="../../d7/dcd/MCCompLabel_8h.html" target="_top" xlink:title="SimulationDataFormat\l/MCCompLabel.h">
<polygon fill="none" stroke="black" points="711,-137 711,-167 825,-167 825,-137 711,-137"/>
<text text-anchor="start" x="719" y="-155" font-family="Helvetica,sans-Serif" font-size="10.00">SimulationDataFormat</text>
<text text-anchor="middle" x="768" y="-144" font-family="Helvetica,sans-Serif" font-size="10.00">/MCCompLabel.h</text>
</a>
</g>
</g>
<!-- Node23&#45;&gt;Node36 -->
<g id="edge41" class="edge"><title>Node23&#45;&gt;Node36</title>
<path fill="none" stroke="midnightblue" d="M688.842,-272.202C701.906,-252.529 733.829,-204.458 752.906,-175.73"/>
<polygon fill="midnightblue" stroke="midnightblue" points="755.992,-177.41 758.608,-167.143 750.16,-173.537 755.992,-177.41"/>
</g>
<!-- Node37 -->
<g id="node37" class="node"><title>Node37</title>
<polygon fill="none" stroke="#bfbfbf" points="457.5,-210.5 457.5,-229.5 522.5,-229.5 522.5,-210.5 457.5,-210.5"/>
<text text-anchor="middle" x="490" y="-217.5" font-family="Helvetica,sans-Serif" font-size="10.00">TVector3.h</text>
</g>
<!-- Node23&#45;&gt;Node37 -->
<g id="edge44" class="edge"><title>Node23&#45;&gt;Node37</title>
<path fill="none" stroke="midnightblue" d="M652.484,-272.424C621.878,-263.701 573.466,-249.573 532,-236 529.077,-235.043 526.05,-234.022 523.022,-232.98"/>
<polygon fill="midnightblue" stroke="midnightblue" points="524.065,-229.637 513.47,-229.632 521.749,-236.243 524.065,-229.637"/>
</g>
<!-- Node25 -->
<g id="node25" class="node"><title>Node25</title>
<g id="a_node25"><a xlink:href="../../dd/d76/Cartesian3D_8h.html" target="_top" xlink:title="MathUtils/Cartesian3D.h">
<polygon fill="none" stroke="black" points="529.5,-142.5 529.5,-161.5 654.5,-161.5 654.5,-142.5 529.5,-142.5"/>
<text text-anchor="middle" x="592" y="-149.5" font-family="Helvetica,sans-Serif" font-size="10.00">MathUtils/Cartesian3D.h</text>
</a>
</g>
</g>
<!-- Node24&#45;&gt;Node25 -->
<g id="edge29" class="edge"><title>Node24&#45;&gt;Node25</title>
<path fill="none" stroke="midnightblue" d="M596.698,-204.679C595.827,-195.101 594.672,-182.394 593.725,-171.977"/>
<polygon fill="midnightblue" stroke="midnightblue" points="597.194,-171.47 592.803,-161.828 590.222,-172.104 597.194,-171.47"/>
</g>
<!-- Node25&#45;&gt;Node10 -->
<g id="edge33" class="edge"><title>Node25&#45;&gt;Node10</title>
<path fill="none" stroke="midnightblue" d="M631.02,-142.437C643.14,-140.037 656.578,-137.639 669,-136 896.037,-106.05 959.899,-151.659 1183,-100 1186.07,-99.2881 1189.23,-98.3549 1192.33,-97.3017"/>
<polygon fill="midnightblue" stroke="midnightblue" points="1193.82,-100.478 1201.93,-93.6523 1191.34,-93.9347 1193.82,-100.478"/>
</g>
<!-- Node26 -->
<g id="node26" class="node"><title>Node26</title>
<polygon fill="none" stroke="#bfbfbf" points="672.5,-74.5 672.5,-93.5 821.5,-93.5 821.5,-74.5 672.5,-74.5"/>
<text text-anchor="middle" x="747" y="-81.5" font-family="Helvetica,sans-Serif" font-size="10.00">Math/GenVector/Rotation3D.h</text>
</g>
<!-- Node25&#45;&gt;Node26 -->
<g id="edge30" class="edge"><title>Node25&#45;&gt;Node26</title>
<path fill="none" stroke="midnightblue" d="M612.264,-142.372C639.068,-130.958 686.512,-110.756 717.35,-97.6252"/>
<polygon fill="midnightblue" stroke="midnightblue" points="718.902,-100.768 726.731,-93.6305 716.16,-94.328 718.902,-100.768"/>
</g>
<!-- Node27 -->
<g id="node27" class="node"><title>Node27</title>
<polygon fill="none" stroke="#bfbfbf" points="840,-74.5 840,-93.5 996,-93.5 996,-74.5 840,-74.5"/>
<text text-anchor="middle" x="918" y="-81.5" font-family="Helvetica,sans-Serif" font-size="10.00">Math/GenVector/Transform3D.h</text>
</g>
<!-- Node25&#45;&gt;Node27 -->
<g id="edge31" class="edge"><title>Node25&#45;&gt;Node27</title>
<path fill="none" stroke="midnightblue" d="M634.285,-142.439C693.647,-130.421 801.605,-108.565 865.866,-95.5547"/>
<polygon fill="midnightblue" stroke="midnightblue" points="866.684,-98.9603 875.79,-93.5455 865.295,-92.0995 866.684,-98.9603"/>
</g>
<!-- Node28 -->
<g id="node28" class="node"><title>Node28</title>
<polygon fill="none" stroke="#bfbfbf" points="1014,-74.5 1014,-93.5 1174,-93.5 1174,-74.5 1014,-74.5"/>
<text text-anchor="middle" x="1094" y="-81.5" font-family="Helvetica,sans-Serif" font-size="10.00">Math/GenVector/Translation3D.h</text>
</g>
<!-- Node25&#45;&gt;Node28 -->
<g id="edge32" class="edge"><title>Node25&#45;&gt;Node28</title>
<path fill="none" stroke="midnightblue" d="M632.249,-142.484C644.056,-140.169 657.014,-137.806 669,-136 817.511,-113.621 856.216,-120.49 1005,-100 1015.23,-98.5906 1026.1,-96.9123 1036.59,-95.197"/>
<polygon fill="midnightblue" stroke="midnightblue" points="1037.22,-98.6415 1046.51,-93.5487 1036.07,-91.7363 1037.22,-98.6415"/>
</g>
<!-- Node29 -->
<g id="node29" class="node"><title>Node29</title>
<polygon fill="none" stroke="#bfbfbf" points="72,-74.5 72,-93.5 148,-93.5 148,-74.5 72,-74.5"/>
<text text-anchor="middle" x="110" y="-81.5" font-family="Helvetica,sans-Serif" font-size="10.00">TGeoMatrix.h</text>
</g>
<!-- Node25&#45;&gt;Node29 -->
<g id="edge34" class="edge"><title>Node25&#45;&gt;Node29</title>
<path fill="none" stroke="midnightblue" d="M529.431,-147.453C444.36,-141.772 287.808,-128.267 157,-100 152.547,-99.0378 147.916,-97.8279 143.372,-96.5148"/>
<polygon fill="midnightblue" stroke="midnightblue" points="144.257,-93.1251 133.67,-93.5314 142.199,-99.8159 144.257,-93.1251"/>
</g>
<!-- Node30 -->
<g id="node30" class="node"><title>Node30</title>
<polygon fill="none" stroke="#bfbfbf" points="166.5,-69 166.5,-99 317.5,-99 317.5,-69 166.5,-69"/>
<text text-anchor="start" x="174.5" y="-87" font-family="Helvetica,sans-Serif" font-size="10.00">Math/GenVector/Displacement</text>
<text text-anchor="middle" x="242" y="-76" font-family="Helvetica,sans-Serif" font-size="10.00">Vector3D.h</text>
</g>
<!-- Node25&#45;&gt;Node30 -->
<g id="edge35" class="edge"><title>Node25&#45;&gt;Node30</title>
<path fill="none" stroke="midnightblue" d="M546.602,-142.439C490.982,-131.951 395.623,-113.969 326.391,-100.914"/>
<polygon fill="midnightblue" stroke="midnightblue" points="326.849,-97.4385 316.374,-99.0247 325.552,-104.317 326.849,-97.4385"/>
</g>
<!-- Node31 -->
<g id="node31" class="node"><title>Node31</title>
<polygon fill="none" stroke="#bfbfbf" points="336,-74.5 336,-93.5 512,-93.5 512,-74.5 336,-74.5"/>
<text text-anchor="middle" x="424" y="-81.5" font-family="Helvetica,sans-Serif" font-size="10.00">Math/GenVector/PositionVector3D.h</text>
</g>
<!-- Node25&#45;&gt;Node31 -->
<g id="edge36" class="edge"><title>Node25&#45;&gt;Node31</title>
<path fill="none" stroke="midnightblue" d="M570.037,-142.372C540.778,-130.877 488.829,-110.469 455.427,-97.3465"/>
<polygon fill="midnightblue" stroke="midnightblue" points="456.29,-93.9248 445.702,-93.5259 453.73,-100.44 456.29,-93.9248"/>
</g>
<!-- Node32 -->
<g id="node32" class="node"><title>Node32</title>
<g id="a_node32"><a xlink:href="../../d2/dd0/Cartesian2D_8h.html" target="_top" xlink:title="MathUtils/Cartesian2D.h">
<polygon fill="none" stroke="black" points="529.5,-74.5 529.5,-93.5 654.5,-93.5 654.5,-74.5 529.5,-74.5"/>
<text text-anchor="middle" x="592" y="-81.5" font-family="Helvetica,sans-Serif" font-size="10.00">MathUtils/Cartesian2D.h</text>
</a>
</g>
</g>
<!-- Node25&#45;&gt;Node32 -->
<g id="edge37" class="edge"><title>Node25&#45;&gt;Node32</title>
<path fill="none" stroke="midnightblue" d="M592,-142.372C592,-132.643 592,-116.528 592,-103.85"/>
<polygon fill="midnightblue" stroke="midnightblue" points="595.5,-103.841 592,-93.8411 588.5,-103.841 595.5,-103.841"/>
</g>
<!-- Node25&#45;&gt;Node35 -->
<g id="edge40" class="edge"><title>Node25&#45;&gt;Node35</title>
<path fill="none" stroke="midnightblue" d="M529.491,-150.962C429.462,-149.574 227.905,-141.309 63,-100 60.0096,-99.2509 56.9441,-98.2937 53.9248,-97.2263"/>
<polygon fill="midnightblue" stroke="midnightblue" points="55.1737,-93.9566 44.5862,-93.56 52.6156,-100.472 55.1737,-93.9566"/>
</g>
<!-- Node33 -->
<g id="node33" class="node"><title>Node33</title>
<polygon fill="none" stroke="#bfbfbf" points="425.5,-1 425.5,-31 576.5,-31 576.5,-1 425.5,-1"/>
<text text-anchor="start" x="433.5" y="-19" font-family="Helvetica,sans-Serif" font-size="10.00">Math/GenVector/Displacement</text>
<text text-anchor="middle" x="501" y="-8" font-family="Helvetica,sans-Serif" font-size="10.00">Vector2D.h</text>
</g>
<!-- Node32&#45;&gt;Node33 -->
<g id="edge38" class="edge"><title>Node32&#45;&gt;Node33</title>
<path fill="none" stroke="midnightblue" d="M580.103,-74.3717C567.221,-65.0286 546.22,-49.7966 529.093,-37.375"/>
<polygon fill="midnightblue" stroke="midnightblue" points="530.703,-34.2194 520.553,-31.1815 526.593,-39.8859 530.703,-34.2194"/>
</g>
<!-- Node34 -->
<g id="node34" class="node"><title>Node34</title>
<polygon fill="none" stroke="#bfbfbf" points="595,-6.5 595,-25.5 771,-25.5 771,-6.5 595,-6.5"/>
<text text-anchor="middle" x="683" y="-13.5" font-family="Helvetica,sans-Serif" font-size="10.00">Math/GenVector/PositionVector2D.h</text>
</g>
<!-- Node32&#45;&gt;Node34 -->
<g id="edge39" class="edge"><title>Node32&#45;&gt;Node34</title>
<path fill="none" stroke="midnightblue" d="M603.897,-74.3717C618.884,-63.5015 644.862,-44.6602 662.942,-31.5474"/>
<polygon fill="midnightblue" stroke="midnightblue" points="665.06,-34.3349 671.1,-25.6305 660.95,-28.6684 665.06,-34.3349"/>
</g>
<!-- Node36&#45;&gt;Node10 -->
<g id="edge42" class="edge"><title>Node36&#45;&gt;Node10</title>
<path fill="none" stroke="midnightblue" d="M825.256,-138.37C829.896,-137.51 834.52,-136.706 839,-136 990.851,-112.08 1033.86,-137.244 1183,-100 1186.06,-99.2354 1189.21,-98.2682 1192.3,-97.1948"/>
<polygon fill="midnightblue" stroke="midnightblue" points="1193.81,-100.366 1201.9,-93.5216 1191.31,-93.8291 1193.81,-100.366"/>
</g>
</g>
</svg>
