<?xml version="1.0" encoding="UTF-8" standalone="no"?>
<!DOCTYPE svg PUBLIC "-//W3C//DTD SVG 1.1//EN"
 "http://www.w3.org/Graphics/SVG/1.1/DTD/svg11.dtd">
<!-- Generated by graphviz version 2.36.0 (20140111.2315)
 -->
<!-- Title: /home/travis/build/AliceO2Group/AliceO2/Common/Field/test/testMagneticField.cxx Pages: 1 -->
<svg width="1993pt" height="366pt"
 viewBox="0.00 0.00 1993.00 366.00" xmlns="http://www.w3.org/2000/svg" xmlns:xlink="http://www.w3.org/1999/xlink">
<g id="graph0" class="graph" transform="scale(1 1) rotate(0) translate(4 362)">
<title>/home/travis/build/AliceO2Group/AliceO2/Common/Field/test/testMagneticField.cxx</title>
<!-- Node1 -->
<g id="node1" class="node"><title>Node1</title>
<polygon fill="#bfbfbf" stroke="black" points="1397,-305 1397,-357 1559,-357 1559,-305 1397,-305"/>
<text text-anchor="start" x="1405" y="-345" font-family="Helvetica,sans-Serif" font-size="10.00">/home/travis/build</text>
<text text-anchor="start" x="1405" y="-334" font-family="Helvetica,sans-Serif" font-size="10.00">/AliceO2Group/AliceO2</text>
<text text-anchor="start" x="1405" y="-323" font-family="Helvetica,sans-Serif" font-size="10.00">/Common/Field/test/testMagnetic</text>
<text text-anchor="middle" x="1478" y="-312" font-family="Helvetica,sans-Serif" font-size="10.00">Field.cxx</text>
</g>
<!-- Node2 -->
<g id="node2" class="node"><title>Node2</title>
<polygon fill="none" stroke="#bfbfbf" points="528.5,-248.5 528.5,-267.5 647.5,-267.5 647.5,-248.5 528.5,-248.5"/>
<text text-anchor="middle" x="588" y="-255.5" font-family="Helvetica,sans-Serif" font-size="10.00">boost/test/unit_test.hpp</text>
</g>
<!-- Node1&#45;&gt;Node2 -->
<g id="edge1" class="edge"><title>Node1&#45;&gt;Node2</title>
<path fill="none" stroke="midnightblue" d="M1396.82,-325.052C1250,-315.831 930.636,-294.528 662,-268 660.696,-267.871 659.379,-267.739 658.053,-267.603"/>
<polygon fill="midnightblue" stroke="midnightblue" points="658.064,-264.084 647.749,-266.502 657.32,-271.044 658.064,-264.084"/>
</g>
<!-- Node3 -->
<g id="node3" class="node"><title>Node3</title>
<polygon fill="none" stroke="#bfbfbf" points="0,-74.5 0,-93.5 54,-93.5 54,-74.5 0,-74.5"/>
<text text-anchor="middle" x="27" y="-81.5" font-family="Helvetica,sans-Serif" font-size="10.00">iostream</text>
</g>
<!-- Node1&#45;&gt;Node3 -->
<g id="edge2" class="edge"><title>Node1&#45;&gt;Node3</title>
<path fill="none" stroke="midnightblue" d="M1396.64,-323.767C1177.32,-305.481 557.043,-243.938 62,-100 59.5005,-99.2732 56.9418,-98.4152 54.4014,-97.4834"/>
<polygon fill="midnightblue" stroke="midnightblue" points="55.4411,-94.1292 44.8573,-93.6463 52.8299,-100.624 55.4411,-94.1292"/>
</g>
<!-- Node4 -->
<g id="node4" class="node"><title>Node4</title>
<g id="a_node4"><a xlink:href="../../db/d4b/MagneticField_8h.html" target="_top" xlink:title="Definition of the MagF class. ">
<polygon fill="none" stroke="black" points="1382,-248.5 1382,-267.5 1492,-267.5 1492,-248.5 1382,-248.5"/>
<text text-anchor="middle" x="1437" y="-255.5" font-family="Helvetica,sans-Serif" font-size="10.00">Field/MagneticField.h</text>
</a>
</g>
</g>
<!-- Node1&#45;&gt;Node4 -->
<g id="edge3" class="edge"><title>Node1&#45;&gt;Node4</title>
<path fill="none" stroke="midnightblue" d="M1463.43,-304.768C1458.01,-295.385 1451.99,-284.955 1447.06,-276.425"/>
<polygon fill="midnightblue" stroke="midnightblue" points="1450.09,-274.667 1442.06,-267.757 1444.03,-278.167 1450.09,-274.667"/>
</g>
<!-- Node17 -->
<g id="node17" class="node"><title>Node17</title>
<g id="a_node17"><a xlink:href="../../da/df4/MagFieldFast_8h.html" target="_top" xlink:title="Definition of the fast magnetic field parametrization MagFieldFast. ">
<polygon fill="none" stroke="black" points="1142,-192.5 1142,-211.5 1250,-211.5 1250,-192.5 1142,-192.5"/>
<text text-anchor="middle" x="1196" y="-199.5" font-family="Helvetica,sans-Serif" font-size="10.00">Field/MagFieldFast.h</text>
</a>
</g>
</g>
<!-- Node1&#45;&gt;Node17 -->
<g id="edge43" class="edge"><title>Node1&#45;&gt;Node17</title>
<path fill="none" stroke="midnightblue" d="M1422.29,-304.909C1362.77,-278.105 1270.78,-236.676 1224.56,-215.862"/>
<polygon fill="midnightblue" stroke="midnightblue" points="1225.71,-212.543 1215.16,-211.628 1222.84,-218.926 1225.71,-212.543"/>
</g>
<!-- Node30 -->
<g id="node30" class="node"><title>Node30</title>
<polygon fill="none" stroke="#bfbfbf" points="1933,-192.5 1933,-211.5 1985,-211.5 1985,-192.5 1933,-192.5"/>
<text text-anchor="middle" x="1959" y="-199.5" font-family="Helvetica,sans-Serif" font-size="10.00">memory</text>
</g>
<!-- Node1&#45;&gt;Node30 -->
<g id="edge44" class="edge"><title>Node1&#45;&gt;Node30</title>
<path fill="none" stroke="midnightblue" d="M1489.9,-304.619C1500.28,-285.575 1517.24,-260.688 1540,-248 1612.12,-207.798 1823.59,-225.111 1922.67,-211.603"/>
<polygon fill="midnightblue" stroke="midnightblue" points="1923.4,-215.032 1932.75,-210.05 1922.33,-208.113 1923.4,-215.032"/>
</g>
<!-- Node31 -->
<g id="node31" class="node"><title>Node31</title>
<polygon fill="none" stroke="#bfbfbf" points="1548.5,-248.5 1548.5,-267.5 1619.5,-267.5 1619.5,-248.5 1548.5,-248.5"/>
<text text-anchor="middle" x="1584" y="-255.5" font-family="Helvetica,sans-Serif" font-size="10.00">FairLogger.h</text>
</g>
<!-- Node1&#45;&gt;Node31 -->
<g id="edge45" class="edge"><title>Node1&#45;&gt;Node31</title>
<path fill="none" stroke="midnightblue" d="M1515.37,-304.968C1531.16,-294.393 1548.98,-282.457 1562.5,-273.398"/>
<polygon fill="midnightblue" stroke="midnightblue" points="1564.74,-276.112 1571.1,-267.639 1560.85,-270.296 1564.74,-276.112"/>
</g>
<!-- Node32 -->
<g id="node32" class="node"><title>Node32</title>
<polygon fill="none" stroke="#bfbfbf" points="1637.5,-248.5 1637.5,-267.5 1714.5,-267.5 1714.5,-248.5 1637.5,-248.5"/>
<text text-anchor="middle" x="1676" y="-255.5" font-family="Helvetica,sans-Serif" font-size="10.00">TStopwatch.h</text>
</g>
<!-- Node1&#45;&gt;Node32 -->
<g id="edge46" class="edge"><title>Node1&#45;&gt;Node32</title>
<path fill="none" stroke="midnightblue" d="M1547.81,-304.968C1579.85,-293.478 1616.37,-280.381 1642.22,-271.114"/>
<polygon fill="midnightblue" stroke="midnightblue" points="1643.68,-274.309 1651.91,-267.639 1641.31,-267.72 1643.68,-274.309"/>
</g>
<!-- Node33 -->
<g id="node33" class="node"><title>Node33</title>
<polygon fill="none" stroke="#bfbfbf" points="1733,-248.5 1733,-267.5 1801,-267.5 1801,-248.5 1733,-248.5"/>
<text text-anchor="middle" x="1767" y="-255.5" font-family="Helvetica,sans-Serif" font-size="10.00">TRandom.h</text>
</g>
<!-- Node1&#45;&gt;Node33 -->
<g id="edge47" class="edge"><title>Node1&#45;&gt;Node33</title>
<path fill="none" stroke="midnightblue" d="M1559.27,-310.034C1612.29,-297.009 1679.44,-280.51 1722.81,-269.856"/>
<polygon fill="midnightblue" stroke="midnightblue" points="1723.88,-273.196 1732.76,-267.412 1722.21,-266.399 1723.88,-273.196"/>
</g>
<!-- Node5 -->
<g id="node5" class="node"><title>Node5</title>
<polygon fill="none" stroke="#bfbfbf" points="1853,-192.5 1853,-211.5 1915,-211.5 1915,-192.5 1853,-192.5"/>
<text text-anchor="middle" x="1884" y="-199.5" font-family="Helvetica,sans-Serif" font-size="10.00">FairField.h</text>
</g>
<!-- Node4&#45;&gt;Node5 -->
<g id="edge4" class="edge"><title>Node4&#45;&gt;Node5</title>
<path fill="none" stroke="midnightblue" d="M1492.35,-249.672C1496.96,-249.094 1501.56,-248.529 1506,-248 1653.81,-230.372 1691.87,-234.62 1839,-212 1840.1,-211.831 1841.22,-211.653 1842.34,-211.468"/>
<polygon fill="midnightblue" stroke="midnightblue" points="1843.36,-214.843 1852.59,-209.655 1842.14,-207.95 1843.36,-214.843"/>
</g>
<!-- Node6 -->
<g id="node6" class="node"><title>Node6</title>
<g id="a_node6"><a xlink:href="../../d3/d91/MagFieldParam_8h.html" target="_top" xlink:title="Definition of the MagFieldParam: container for ALICE mag. field parameters. ">
<polygon fill="none" stroke="black" points="1322.5,-192.5 1322.5,-211.5 1439.5,-211.5 1439.5,-192.5 1322.5,-192.5"/>
<text text-anchor="middle" x="1381" y="-199.5" font-family="Helvetica,sans-Serif" font-size="10.00">Field/MagFieldParam.h</text>
</a>
</g>
</g>
<!-- Node4&#45;&gt;Node6 -->
<g id="edge5" class="edge"><title>Node4&#45;&gt;Node6</title>
<path fill="none" stroke="midnightblue" d="M1428,-248.324C1419.81,-240.42 1407.49,-228.548 1397.53,-218.938"/>
<polygon fill="midnightblue" stroke="midnightblue" points="1399.79,-216.256 1390.16,-211.834 1394.93,-221.295 1399.79,-216.256"/>
</g>
<!-- Node9 -->
<g id="node9" class="node"><title>Node9</title>
<g id="a_node9"><a xlink:href="../../dd/dfb/MagneticWrapperChebyshev_8h.html" target="_top" xlink:title="Field/MagneticWrapperChebyshev.h">
<polygon fill="none" stroke="black" points="1595.5,-192.5 1595.5,-211.5 1770.5,-211.5 1770.5,-192.5 1595.5,-192.5"/>
<text text-anchor="middle" x="1683" y="-199.5" font-family="Helvetica,sans-Serif" font-size="10.00">Field/MagneticWrapperChebyshev.h</text>
</a>
</g>
</g>
<!-- Node4&#45;&gt;Node9 -->
<g id="edge8" class="edge"><title>Node4&#45;&gt;Node9</title>
<path fill="none" stroke="midnightblue" d="M1475.98,-248.444C1518.89,-239.023 1587.95,-223.866 1634.37,-213.675"/>
<polygon fill="midnightblue" stroke="midnightblue" points="1635.19,-217.079 1644.2,-211.516 1633.69,-210.242 1635.19,-217.079"/>
</g>
<!-- Node11 -->
<g id="node11" class="node"><title>Node11</title>
<polygon fill="none" stroke="#bfbfbf" points="1720,-6.5 1720,-25.5 1782,-25.5 1782,-6.5 1720,-6.5"/>
<text text-anchor="middle" x="1751" y="-13.5" font-family="Helvetica,sans-Serif" font-size="10.00">TNamed.h</text>
</g>
<!-- Node4&#45;&gt;Node11 -->
<g id="edge41" class="edge"><title>Node4&#45;&gt;Node11</title>
<path fill="none" stroke="midnightblue" d="M1492.18,-250.131C1588.25,-238.121 1776.32,-214.351 1779,-212 1828.15,-168.896 1835.94,-127.565 1809,-68 1802,-52.5149 1787.71,-39.8615 1775.07,-31.0318"/>
<polygon fill="midnightblue" stroke="midnightblue" points="1776.97,-28.095 1766.69,-25.542 1773.14,-33.9501 1776.97,-28.095"/>
</g>
<!-- Node16 -->
<g id="node16" class="node"><title>Node16</title>
<polygon fill="none" stroke="#bfbfbf" points="1276,-6.5 1276,-25.5 1332,-25.5 1332,-6.5 1276,-6.5"/>
<text text-anchor="middle" x="1304" y="-13.5" font-family="Helvetica,sans-Serif" font-size="10.00">Rtypes.h</text>
</g>
<!-- Node4&#45;&gt;Node16 -->
<g id="edge40" class="edge"><title>Node4&#45;&gt;Node16</title>
<path fill="none" stroke="midnightblue" d="M1381.88,-250.616C1357.08,-244.743 1329.86,-233.499 1314,-212 1274.79,-158.851 1289.47,-73.6456 1298.73,-35.969"/>
<polygon fill="midnightblue" stroke="midnightblue" points="1302.22,-36.4501 1301.36,-25.8902 1295.44,-34.6814 1302.22,-36.4501"/>
</g>
<!-- Node4&#45;&gt;Node17 -->
<g id="edge24" class="edge"><title>Node4&#45;&gt;Node17</title>
<path fill="none" stroke="midnightblue" d="M1398.81,-248.444C1356.86,-239.043 1289.41,-223.929 1243.93,-213.739"/>
<polygon fill="midnightblue" stroke="midnightblue" points="1244.53,-210.288 1234.01,-211.516 1243,-217.118 1244.53,-210.288"/>
</g>
<!-- Node29 -->
<g id="node29" class="node"><title>Node29</title>
<polygon fill="none" stroke="#bfbfbf" points="1457.5,-192.5 1457.5,-211.5 1522.5,-211.5 1522.5,-192.5 1457.5,-192.5"/>
<text text-anchor="middle" x="1490" y="-199.5" font-family="Helvetica,sans-Serif" font-size="10.00">TSystem.h</text>
</g>
<!-- Node4&#45;&gt;Node29 -->
<g id="edge39" class="edge"><title>Node4&#45;&gt;Node29</title>
<path fill="none" stroke="midnightblue" d="M1445.75,-248.083C1453.47,-240.22 1464.9,-228.569 1474.22,-219.081"/>
<polygon fill="midnightblue" stroke="midnightblue" points="1476.9,-221.34 1481.41,-211.751 1471.91,-216.436 1476.9,-221.34"/>
</g>
<!-- Node4&#45;&gt;Node30 -->
<g id="edge42" class="edge"><title>Node4&#45;&gt;Node30</title>
<path fill="none" stroke="midnightblue" d="M1492.34,-249.567C1496.96,-249.012 1501.56,-248.481 1506,-248 1687.69,-228.317 1737.77,-242.15 1922.7,-211.748"/>
<polygon fill="midnightblue" stroke="midnightblue" points="1923.47,-215.168 1932.76,-210.073 1922.32,-208.263 1923.47,-215.168"/>
</g>
<!-- Node7 -->
<g id="node7" class="node"><title>Node7</title>
<polygon fill="none" stroke="#bfbfbf" points="1344.5,-136.5 1344.5,-155.5 1449.5,-155.5 1449.5,-136.5 1344.5,-136.5"/>
<text text-anchor="middle" x="1397" y="-143.5" font-family="Helvetica,sans-Serif" font-size="10.00">FairParGenericSet.h</text>
</g>
<!-- Node6&#45;&gt;Node7 -->
<g id="edge6" class="edge"><title>Node6&#45;&gt;Node7</title>
<path fill="none" stroke="midnightblue" d="M1383.64,-192.083C1385.79,-184.849 1388.88,-174.409 1391.55,-165.397"/>
<polygon fill="midnightblue" stroke="midnightblue" points="1394.92,-166.333 1394.41,-155.751 1388.21,-164.345 1394.92,-166.333"/>
</g>
<!-- Node8 -->
<g id="node8" class="node"><title>Node8</title>
<polygon fill="none" stroke="#bfbfbf" points="1358,-74.5 1358,-93.5 1414,-93.5 1414,-74.5 1358,-74.5"/>
<text text-anchor="middle" x="1386" y="-81.5" font-family="Helvetica,sans-Serif" font-size="10.00">TString.h</text>
</g>
<!-- Node6&#45;&gt;Node8 -->
<g id="edge7" class="edge"><title>Node6&#45;&gt;Node8</title>
<path fill="none" stroke="midnightblue" d="M1367.89,-192.476C1351.56,-180.7 1326.87,-158.363 1336,-136 1341.9,-121.547 1354.09,-108.974 1364.96,-99.9285"/>
<polygon fill="midnightblue" stroke="midnightblue" points="1367.17,-102.645 1372.88,-93.7257 1362.85,-97.1331 1367.17,-102.645"/>
</g>
<!-- Node10 -->
<g id="node10" class="node"><title>Node10</title>
<polygon fill="none" stroke="#bfbfbf" points="1656.5,-136.5 1656.5,-155.5 1709.5,-155.5 1709.5,-136.5 1656.5,-136.5"/>
<text text-anchor="middle" x="1683" y="-143.5" font-family="Helvetica,sans-Serif" font-size="10.00">TMath.h</text>
</g>
<!-- Node9&#45;&gt;Node10 -->
<g id="edge9" class="edge"><title>Node9&#45;&gt;Node10</title>
<path fill="none" stroke="midnightblue" d="M1683,-192.083C1683,-185.006 1683,-174.861 1683,-165.986"/>
<polygon fill="midnightblue" stroke="midnightblue" points="1686.5,-165.751 1683,-155.751 1679.5,-165.751 1686.5,-165.751"/>
</g>
<!-- Node9&#45;&gt;Node11 -->
<g id="edge10" class="edge"><title>Node9&#45;&gt;Node11</title>
<path fill="none" stroke="midnightblue" d="M1708.84,-192.408C1727.31,-185.162 1751.68,-173.198 1768,-156 1786.89,-136.097 1788.08,-126.795 1794,-100 1797.07,-86.1123 1798.88,-81.3588 1794,-68 1789.03,-54.4023 1778.66,-41.9242 1769.35,-32.7144"/>
<polygon fill="midnightblue" stroke="midnightblue" points="1771.63,-30.0482 1761.92,-25.7939 1766.86,-35.1707 1771.63,-30.0482"/>
</g>
<!-- Node12 -->
<g id="node12" class="node"><title>Node12</title>
<polygon fill="none" stroke="#bfbfbf" points="1716.5,-74.5 1716.5,-93.5 1785.5,-93.5 1785.5,-74.5 1716.5,-74.5"/>
<text text-anchor="middle" x="1751" y="-81.5" font-family="Helvetica,sans-Serif" font-size="10.00">TObjArray.h</text>
</g>
<!-- Node9&#45;&gt;Node12 -->
<g id="edge11" class="edge"><title>Node9&#45;&gt;Node12</title>
<path fill="none" stroke="midnightblue" d="M1706.79,-192.499C1722.72,-185.413 1742.46,-173.605 1752,-156 1760.7,-139.934 1758.99,-118.671 1756.01,-103.615"/>
<polygon fill="midnightblue" stroke="midnightblue" points="1759.33,-102.434 1753.63,-93.5002 1752.51,-104.036 1759.33,-102.434"/>
</g>
<!-- Node13 -->
<g id="node13" class="node"><title>Node13</title>
<g id="a_node13"><a xlink:href="../../d8/d64/Chebyshev3D_8h.html" target="_top" xlink:title="MathUtils/Chebyshev3D.h">
<polygon fill="none" stroke="black" points="1506,-136.5 1506,-155.5 1638,-155.5 1638,-136.5 1506,-136.5"/>
<text text-anchor="middle" x="1572" y="-143.5" font-family="Helvetica,sans-Serif" font-size="10.00">MathUtils/Chebyshev3D.h</text>
</a>
</g>
</g>
<!-- Node9&#45;&gt;Node13 -->
<g id="edge12" class="edge"><title>Node9&#45;&gt;Node13</title>
<path fill="none" stroke="midnightblue" d="M1665.17,-192.324C1647.28,-183.625 1619.52,-170.12 1598.95,-160.113"/>
<polygon fill="midnightblue" stroke="midnightblue" points="1600.31,-156.882 1589.79,-155.655 1597.25,-163.177 1600.31,-156.882"/>
</g>
<!-- Node15 -->
<g id="node15" class="node"><title>Node15</title>
<g id="a_node15"><a xlink:href="../../d4/d08/Chebyshev3DCalc_8h.html" target="_top" xlink:title="MathUtils/Chebyshev3DCalc.h">
<polygon fill="none" stroke="black" points="1508,-74.5 1508,-93.5 1660,-93.5 1660,-74.5 1508,-74.5"/>
<text text-anchor="middle" x="1584" y="-81.5" font-family="Helvetica,sans-Serif" font-size="10.00">MathUtils/Chebyshev3DCalc.h</text>
</a>
</g>
</g>
<!-- Node9&#45;&gt;Node15 -->
<g id="edge22" class="edge"><title>Node9&#45;&gt;Node15</title>
<path fill="none" stroke="midnightblue" d="M1693.88,-192.237C1708.47,-179.413 1731.09,-154.994 1718,-136 1704.22,-116.006 1681.48,-103.844 1658.61,-96.4486"/>
<polygon fill="midnightblue" stroke="midnightblue" points="1659.41,-93.0353 1648.83,-93.5621 1657.43,-99.7492 1659.41,-93.0353"/>
</g>
<!-- Node9&#45;&gt;Node16 -->
<g id="edge23" class="edge"><title>Node9&#45;&gt;Node16</title>
<path fill="none" stroke="midnightblue" d="M1634.28,-192.493C1596.2,-185.066 1542.32,-172.83 1497,-156 1478.74,-149.218 1475.97,-143.522 1458,-136 1410.94,-116.301 1388.14,-132.73 1349,-100 1328.61,-82.9468 1315.99,-54.1914 1309.49,-35.4036"/>
<polygon fill="midnightblue" stroke="midnightblue" points="1312.74,-34.103 1306.35,-25.6572 1306.08,-36.2487 1312.74,-34.103"/>
</g>
<!-- Node13&#45;&gt;Node8 -->
<g id="edge21" class="edge"><title>Node13&#45;&gt;Node8</title>
<path fill="none" stroke="midnightblue" d="M1543.48,-136.455C1514.35,-127.642 1467.87,-113.342 1428,-100 1425.08,-99.024 1422.06,-97.9898 1419.04,-96.9389"/>
<polygon fill="midnightblue" stroke="midnightblue" points="1420.08,-93.5971 1409.49,-93.5763 1417.76,-100.2 1420.08,-93.5971"/>
</g>
<!-- Node13&#45;&gt;Node11 -->
<g id="edge13" class="edge"><title>Node13&#45;&gt;Node11</title>
<path fill="none" stroke="midnightblue" d="M1596.4,-136.483C1616.83,-128.715 1646.22,-116.019 1669,-100 1696.34,-80.7736 1722.5,-51.8514 1737.65,-33.7188"/>
<polygon fill="midnightblue" stroke="midnightblue" points="1740.52,-35.7281 1744.15,-25.7739 1735.11,-31.2929 1740.52,-35.7281"/>
</g>
<!-- Node13&#45;&gt;Node12 -->
<g id="edge14" class="edge"><title>Node13&#45;&gt;Node12</title>
<path fill="none" stroke="midnightblue" d="M1597.65,-136.403C1628.62,-126.022 1680.87,-108.506 1715.65,-96.849"/>
<polygon fill="midnightblue" stroke="midnightblue" points="1717.03,-100.077 1725.4,-93.5806 1714.81,-93.4403 1717.03,-100.077"/>
</g>
<!-- Node14 -->
<g id="node14" class="node"><title>Node14</title>
<polygon fill="none" stroke="#bfbfbf" points="1510.5,-6.5 1510.5,-25.5 1553.5,-25.5 1553.5,-6.5 1510.5,-6.5"/>
<text text-anchor="middle" x="1532" y="-13.5" font-family="Helvetica,sans-Serif" font-size="10.00">cstdio</text>
</g>
<!-- Node13&#45;&gt;Node14 -->
<g id="edge15" class="edge"><title>Node13&#45;&gt;Node14</title>
<path fill="none" stroke="midnightblue" d="M1545.79,-136.414C1529.15,-129.445 1508.94,-117.809 1499,-100 1486.77,-78.0932 1503.18,-50.7232 1516.91,-33.5464"/>
<polygon fill="midnightblue" stroke="midnightblue" points="1519.88,-35.463 1523.69,-25.5761 1514.54,-30.9305 1519.88,-35.463"/>
</g>
<!-- Node13&#45;&gt;Node15 -->
<g id="edge16" class="edge"><title>Node13&#45;&gt;Node15</title>
<path fill="none" stroke="midnightblue" d="M1573.72,-136.403C1575.43,-127.849 1578.11,-114.45 1580.3,-103.476"/>
<polygon fill="midnightblue" stroke="midnightblue" points="1583.75,-104.073 1582.28,-93.5806 1576.89,-102.7 1583.75,-104.073"/>
</g>
<!-- Node13&#45;&gt;Node16 -->
<g id="edge20" class="edge"><title>Node13&#45;&gt;Node16</title>
<path fill="none" stroke="midnightblue" d="M1555.97,-136.327C1528.72,-121.684 1471.5,-91.3705 1422,-68 1392.56,-54.0984 1358.35,-39.4772 1334.37,-29.472"/>
<polygon fill="midnightblue" stroke="midnightblue" points="1335.65,-26.2171 1325.08,-25.6134 1332.97,-32.6816 1335.65,-26.2171"/>
</g>
<!-- Node15&#45;&gt;Node11 -->
<g id="edge17" class="edge"><title>Node15&#45;&gt;Node11</title>
<path fill="none" stroke="midnightblue" d="M1605.83,-74.3717C1634.92,-62.877 1686.56,-42.4687 1719.76,-29.3465"/>
<polygon fill="midnightblue" stroke="midnightblue" points="1721.41,-32.4564 1729.43,-25.5259 1718.84,-25.9464 1721.41,-32.4564"/>
</g>
<!-- Node15&#45;&gt;Node14 -->
<g id="edge18" class="edge"><title>Node15&#45;&gt;Node14</title>
<path fill="none" stroke="midnightblue" d="M1577.2,-74.3717C1569.15,-64.1512 1555.54,-46.884 1545.36,-33.9571"/>
<polygon fill="midnightblue" stroke="midnightblue" points="1547.9,-31.53 1538.97,-25.8411 1542.41,-35.8621 1547.9,-31.53"/>
</g>
<!-- Node15&#45;&gt;Node16 -->
<g id="edge19" class="edge"><title>Node15&#45;&gt;Node16</title>
<path fill="none" stroke="midnightblue" d="M1547.68,-74.4393C1494.58,-61.9223 1396.2,-38.7328 1342.1,-25.9815"/>
<polygon fill="midnightblue" stroke="midnightblue" points="1342.76,-22.5394 1332.22,-23.6517 1341.15,-29.3527 1342.76,-22.5394"/>
</g>
<!-- Node17&#45;&gt;Node16 -->
<g id="edge25" class="edge"><title>Node17&#45;&gt;Node16</title>
<path fill="none" stroke="midnightblue" d="M1199.75,-192.284C1209.24,-170.564 1235.5,-112.572 1264,-68 1271.78,-55.828 1281.82,-43.0372 1289.89,-33.3099"/>
<polygon fill="midnightblue" stroke="midnightblue" points="1292.59,-35.5389 1296.38,-25.6428 1287.25,-31.0192 1292.59,-35.5389"/>
</g>
<!-- Node18 -->
<g id="node18" class="node"><title>Node18</title>
<polygon fill="none" stroke="#bfbfbf" points="704.5,-136.5 704.5,-155.5 745.5,-155.5 745.5,-136.5 704.5,-136.5"/>
<text text-anchor="middle" x="725" y="-143.5" font-family="Helvetica,sans-Serif" font-size="10.00">string</text>
</g>
<!-- Node17&#45;&gt;Node18 -->
<g id="edge26" class="edge"><title>Node17&#45;&gt;Node18</title>
<path fill="none" stroke="midnightblue" d="M1141.88,-198.785C1060.1,-194.715 900.139,-183.931 755.474,-155.692"/>
<polygon fill="midnightblue" stroke="midnightblue" points="756.017,-152.232 745.527,-153.718 754.654,-159.098 756.017,-152.232"/>
</g>
<!-- Node19 -->
<g id="node19" class="node"><title>Node19</title>
<g id="a_node19"><a xlink:href="../../dd/d76/Cartesian3D_8h.html" target="_top" xlink:title="MathUtils/Cartesian3D.h">
<polygon fill="none" stroke="black" points="763.5,-136.5 763.5,-155.5 888.5,-155.5 888.5,-136.5 763.5,-136.5"/>
<text text-anchor="middle" x="826" y="-143.5" font-family="Helvetica,sans-Serif" font-size="10.00">MathUtils/Cartesian3D.h</text>
</a>
</g>
</g>
<!-- Node17&#45;&gt;Node19 -->
<g id="edge27" class="edge"><title>Node17&#45;&gt;Node19</title>
<path fill="none" stroke="midnightblue" d="M1141.8,-193.09C1076.28,-183.527 965.928,-167.422 894.551,-157.005"/>
<polygon fill="midnightblue" stroke="midnightblue" points="894.714,-153.491 884.313,-155.511 893.703,-160.418 894.714,-153.491"/>
</g>
<!-- Node19&#45;&gt;Node3 -->
<g id="edge38" class="edge"><title>Node19&#45;&gt;Node3</title>
<path fill="none" stroke="midnightblue" d="M763.2,-136.878C760.091,-136.562 757.012,-136.266 754,-136 447.225,-108.883 361.971,-169.741 62,-100 59.1024,-99.3263 56.142,-98.426 53.2304,-97.3995"/>
<polygon fill="midnightblue" stroke="midnightblue" points="54.2659,-94.0439 43.6817,-93.5697 51.6601,-100.541 54.2659,-94.0439"/>
</g>
<!-- Node19&#45;&gt;Node16 -->
<g id="edge31" class="edge"><title>Node19&#45;&gt;Node16</title>
<path fill="none" stroke="midnightblue" d="M888.812,-140.837C976.338,-134.395 1130.09,-120.568 1182,-100 1204.48,-91.0924 1206.1,-81.7317 1226,-68 1244.59,-55.1733 1266.1,-41.1699 1281.82,-31.0874"/>
<polygon fill="midnightblue" stroke="midnightblue" points="1283.8,-33.9773 1290.34,-25.6427 1280.03,-28.0792 1283.8,-33.9773"/>
</g>
<!-- Node20 -->
<g id="node20" class="node"><title>Node20</title>
<polygon fill="none" stroke="#bfbfbf" points="71.5,-74.5 71.5,-93.5 220.5,-93.5 220.5,-74.5 71.5,-74.5"/>
<text text-anchor="middle" x="146" y="-81.5" font-family="Helvetica,sans-Serif" font-size="10.00">Math/GenVector/Rotation3D.h</text>
</g>
<!-- Node19&#45;&gt;Node20 -->
<g id="edge28" class="edge"><title>Node19&#45;&gt;Node20</title>
<path fill="none" stroke="midnightblue" d="M763.194,-136.94C760.087,-136.607 757.009,-136.291 754,-136 521.648,-113.514 461.684,-128.56 230,-100 219.855,-98.7494 209.077,-97.0833 198.743,-95.3165"/>
<polygon fill="midnightblue" stroke="midnightblue" points="199.054,-91.8173 188.598,-93.5277 197.838,-98.711 199.054,-91.8173"/>
</g>
<!-- Node21 -->
<g id="node21" class="node"><title>Node21</title>
<polygon fill="none" stroke="#bfbfbf" points="239,-74.5 239,-93.5 395,-93.5 395,-74.5 239,-74.5"/>
<text text-anchor="middle" x="317" y="-81.5" font-family="Helvetica,sans-Serif" font-size="10.00">Math/GenVector/Transform3D.h</text>
</g>
<!-- Node19&#45;&gt;Node21 -->
<g id="edge29" class="edge"><title>Node19&#45;&gt;Node21</title>
<path fill="none" stroke="midnightblue" d="M763.181,-137.066C760.077,-136.699 757.004,-136.342 754,-136 598.629,-118.301 558.919,-121.297 404,-100 393.978,-98.6223 383.342,-96.958 373.073,-95.2464"/>
<polygon fill="midnightblue" stroke="midnightblue" points="373.408,-91.7533 362.963,-93.5279 372.235,-98.6543 373.408,-91.7533"/>
</g>
<!-- Node22 -->
<g id="node22" class="node"><title>Node22</title>
<polygon fill="none" stroke="#bfbfbf" points="413,-74.5 413,-93.5 573,-93.5 573,-74.5 413,-74.5"/>
<text text-anchor="middle" x="493" y="-81.5" font-family="Helvetica,sans-Serif" font-size="10.00">Math/GenVector/Translation3D.h</text>
</g>
<!-- Node19&#45;&gt;Node22 -->
<g id="edge30" class="edge"><title>Node19&#45;&gt;Node22</title>
<path fill="none" stroke="midnightblue" d="M778.643,-136.467C718.477,-125.626 614.722,-106.932 550.2,-95.3062"/>
<polygon fill="midnightblue" stroke="midnightblue" points="550.656,-91.8322 540.194,-93.5034 549.415,-98.7212 550.656,-91.8322"/>
</g>
<!-- Node23 -->
<g id="node23" class="node"><title>Node23</title>
<polygon fill="none" stroke="#bfbfbf" points="591,-74.5 591,-93.5 667,-93.5 667,-74.5 591,-74.5"/>
<text text-anchor="middle" x="629" y="-81.5" font-family="Helvetica,sans-Serif" font-size="10.00">TGeoMatrix.h</text>
</g>
<!-- Node19&#45;&gt;Node23 -->
<g id="edge32" class="edge"><title>Node19&#45;&gt;Node23</title>
<path fill="none" stroke="midnightblue" d="M797.411,-136.454C767.397,-127.462 718.845,-112.857 677,-100 673.409,-98.8966 669.669,-97.7403 665.931,-96.5801"/>
<polygon fill="midnightblue" stroke="midnightblue" points="666.736,-93.1651 656.148,-93.5334 664.655,-99.8485 666.736,-93.1651"/>
</g>
<!-- Node24 -->
<g id="node24" class="node"><title>Node24</title>
<polygon fill="none" stroke="#bfbfbf" points="828.5,-69 828.5,-99 979.5,-99 979.5,-69 828.5,-69"/>
<text text-anchor="start" x="836.5" y="-87" font-family="Helvetica,sans-Serif" font-size="10.00">Math/GenVector/Displacement</text>
<text text-anchor="middle" x="904" y="-76" font-family="Helvetica,sans-Serif" font-size="10.00">Vector3D.h</text>
</g>
<!-- Node19&#45;&gt;Node24 -->
<g id="edge33" class="edge"><title>Node19&#45;&gt;Node24</title>
<path fill="none" stroke="midnightblue" d="M837.175,-136.403C847.641,-128.353 863.684,-116.013 877.427,-105.441"/>
<polygon fill="midnightblue" stroke="midnightblue" points="879.825,-108.012 885.617,-99.1408 875.557,-102.464 879.825,-108.012"/>
</g>
<!-- Node25 -->
<g id="node25" class="node"><title>Node25</title>
<polygon fill="none" stroke="#bfbfbf" points="998,-74.5 998,-93.5 1174,-93.5 1174,-74.5 998,-74.5"/>
<text text-anchor="middle" x="1086" y="-81.5" font-family="Helvetica,sans-Serif" font-size="10.00">Math/GenVector/PositionVector3D.h</text>
</g>
<!-- Node19&#45;&gt;Node25 -->
<g id="edge34" class="edge"><title>Node19&#45;&gt;Node25</title>
<path fill="none" stroke="midnightblue" d="M862.976,-136.467C909.276,-125.783 988.635,-107.469 1039.14,-95.8129"/>
<polygon fill="midnightblue" stroke="midnightblue" points="1040.2,-99.1624 1049.15,-93.5034 1038.62,-92.3417 1040.2,-99.1624"/>
</g>
<!-- Node26 -->
<g id="node26" class="node"><title>Node26</title>
<g id="a_node26"><a xlink:href="../../d2/dd0/Cartesian2D_8h.html" target="_top" xlink:title="MathUtils/Cartesian2D.h">
<polygon fill="none" stroke="black" points="685.5,-74.5 685.5,-93.5 810.5,-93.5 810.5,-74.5 685.5,-74.5"/>
<text text-anchor="middle" x="748" y="-81.5" font-family="Helvetica,sans-Serif" font-size="10.00">MathUtils/Cartesian2D.h</text>
</a>
</g>
</g>
<!-- Node19&#45;&gt;Node26 -->
<g id="edge35" class="edge"><title>Node19&#45;&gt;Node26</title>
<path fill="none" stroke="midnightblue" d="M814.825,-136.403C802.429,-126.869 782.21,-111.315 767.254,-99.8106"/>
<polygon fill="midnightblue" stroke="midnightblue" points="769.215,-96.9035 759.155,-93.5806 764.947,-102.452 769.215,-96.9035"/>
</g>
<!-- Node27 -->
<g id="node27" class="node"><title>Node27</title>
<polygon fill="none" stroke="#bfbfbf" points="581.5,-1 581.5,-31 732.5,-31 732.5,-1 581.5,-1"/>
<text text-anchor="start" x="589.5" y="-19" font-family="Helvetica,sans-Serif" font-size="10.00">Math/GenVector/Displacement</text>
<text text-anchor="middle" x="657" y="-8" font-family="Helvetica,sans-Serif" font-size="10.00">Vector2D.h</text>
</g>
<!-- Node26&#45;&gt;Node27 -->
<g id="edge36" class="edge"><title>Node26&#45;&gt;Node27</title>
<path fill="none" stroke="midnightblue" d="M736.103,-74.3717C723.221,-65.0286 702.22,-49.7966 685.093,-37.375"/>
<polygon fill="midnightblue" stroke="midnightblue" points="686.703,-34.2194 676.553,-31.1815 682.593,-39.8859 686.703,-34.2194"/>
</g>
<!-- Node28 -->
<g id="node28" class="node"><title>Node28</title>
<polygon fill="none" stroke="#bfbfbf" points="751,-6.5 751,-25.5 927,-25.5 927,-6.5 751,-6.5"/>
<text text-anchor="middle" x="839" y="-13.5" font-family="Helvetica,sans-Serif" font-size="10.00">Math/GenVector/PositionVector2D.h</text>
</g>
<!-- Node26&#45;&gt;Node28 -->
<g id="edge37" class="edge"><title>Node26&#45;&gt;Node28</title>
<path fill="none" stroke="midnightblue" d="M759.897,-74.3717C774.884,-63.5015 800.862,-44.6602 818.942,-31.5474"/>
<polygon fill="midnightblue" stroke="midnightblue" points="821.06,-34.3349 827.1,-25.6305 816.95,-28.6684 821.06,-34.3349"/>
</g>
</g>
</svg>
