<?xml version="1.0" encoding="UTF-8" standalone="no"?>
<!DOCTYPE svg PUBLIC "-//W3C//DTD SVG 1.1//EN"
 "http://www.w3.org/Graphics/SVG/1.1/DTD/svg11.dtd">
<!-- Generated by graphviz version 2.36.0 (20140111.2315)
 -->
<!-- Title: o2::DataFlow::StreamingState Pages: 1 -->
<!--zoomable 1188 -->
<svg id="main" version="1.1" xmlns="http://www.w3.org/2000/svg" xmlns:xlink="http://www.w3.org/1999/xlink" xml:space="preserve" onload="init(evt)">
<style type="text/css"><![CDATA[
.edge:hover path { stroke: red; }
.edge:hover polygon { stroke: red; fill: red; }
]]></style>
<script type="text/javascript"><![CDATA[
var edges = document.getElementsByTagName('g');
if (edges && edges.length) {
  for (var i=0;i<edges.length;i++) {
    if (edges[i].id.substr(0,4)=='edge') {
      edges[i].setAttribute('class','edge');
    }
  }
}
]]></script>
        <defs>
                <circle id="rim" cx="0" cy="0" r="7"/>
                <circle id="rim2" cx="0" cy="0" r="3.5"/>
                <g id="zoomPlus">
                        <use xlink:href="#rim" fill="#404040">
                                <set attributeName="fill" to="#808080" begin="zoomplus.mouseover" end="zoomplus.mouseout"/>
                        </use>
                        <path d="M-4,0h8M0,-4v8" fill="none" stroke="white" stroke-width="1.5" pointer-events="none"/>
                </g>
                <g id="zoomMin">
                        <use xlink:href="#rim" fill="#404040">
                                <set attributeName="fill" to="#808080" begin="zoomminus.mouseover" end="zoomminus.mouseout"/>
                        </use>
                        <path d="M-4,0h8" fill="none" stroke="white" stroke-width="1.5" pointer-events="none"/>
                </g>
                <g id="dirArrow">
                        <path fill="none" stroke="white" stroke-width="1.5" d="M0,-3.0v7 M-2.5,-0.5L0,-3.0L2.5,-0.5"/>
                </g>
               <g id="resetDef">
                       <use xlink:href="#rim2" fill="#404040">
                               <set attributeName="fill" to="#808080" begin="reset.mouseover" end="reset.mouseout"/>
                       </use>
               </g>
        </defs>

<script type="text/javascript">
var viewWidth = 1383;
var viewHeight = 1188;
var sectionId = 'dynsection-0';
</script>
<script xlink:href="../../svgpan.js"/>
<svg id="graph" class="graph">
<g id="viewport">
<title>o2::DataFlow::StreamingState</title>
<!-- Node1 -->
<g id="node1" class="node"><title>Node1</title>
<polygon fill="#bfbfbf" stroke="black" points="681.073,-0.5 681.073,-57.5 830.073,-57.5 830.073,-0.5 681.073,-0.5"/>
<text text-anchor="middle" x="755.573" y="-45.5" font-family="Helvetica,sans-Serif" font-size="10.00">o2::DataFlow::StreamingState</text>
<polyline fill="none" stroke="black" points="681.073,-38.5 830.073,-38.5 "/>
<text text-anchor="middle" x="755.573" y="-26.5" font-family="Helvetica,sans-Serif" font-size="10.00"> </text>
<polyline fill="none" stroke="black" points="681.073,-19.5 830.073,-19.5 "/>
<text text-anchor="start" x="689.073" y="-7.5" font-family="Helvetica,sans-Serif" font-size="10.00">+ StreamingState()</text>
</g>
<!-- Node2 -->
<g id="node2" class="node"><title>Node2</title>
<polygon fill="none" stroke="#bfbfbf" points="589.073,-182.5 589.073,-239.5 662.073,-239.5 662.073,-182.5 589.073,-182.5"/>
<text text-anchor="middle" x="625.573" y="-227.5" font-family="Helvetica,sans-Serif" font-size="10.00">ParsingState</text>
<polyline fill="none" stroke="#bfbfbf" points="589.073,-220.5 662.073,-220.5 "/>
<text text-anchor="middle" x="625.573" y="-208.5" font-family="Helvetica,sans-Serif" font-size="10.00"> </text>
<polyline fill="none" stroke="#bfbfbf" points="589.073,-201.5 662.073,-201.5 "/>
<text text-anchor="middle" x="625.573" y="-189.5" font-family="Helvetica,sans-Serif" font-size="10.00"> </text>
</g>
<!-- Node2&#45;&gt;Node1 -->
<g id="edge1" class="edge"><title>Node2&#45;&gt;Node1</title>
<path fill="none" stroke="#404040" d="M625.147,-182.303C626.117,-152.852 631.901,-106.411 656.573,-76 660.752,-70.8488 665.639,-66.2462 670.962,-62.1387"/>
<polygon fill="none" stroke="#404040" points="671.067,-62.0663 673.745,-55.371 680.956,-55.268 678.278,-61.9633 671.067,-62.0663"/>
<text text-anchor="middle" x="672.073" y="-84.5" font-family="Helvetica,sans-Serif" font-size="10.00"> +state</text>
</g>
<!-- Node3 -->
<g id="node3" class="node"><title>Node3</title>
<polygon fill="none" stroke="#bfbfbf" points="680.073,-182.5 680.073,-239.5 715.073,-239.5 715.073,-182.5 680.073,-182.5"/>
<text text-anchor="middle" x="697.573" y="-227.5" font-family="Helvetica,sans-Serif" font-size="10.00">bool</text>
<polyline fill="none" stroke="#bfbfbf" points="680.073,-220.5 715.073,-220.5 "/>
<text text-anchor="middle" x="697.573" y="-208.5" font-family="Helvetica,sans-Serif" font-size="10.00"> </text>
<polyline fill="none" stroke="#bfbfbf" points="680.073,-201.5 715.073,-201.5 "/>
<text text-anchor="middle" x="697.573" y="-189.5" font-family="Helvetica,sans-Serif" font-size="10.00"> </text>
</g>
<!-- Node3&#45;&gt;Node1 -->
<g id="edge2" class="edge"><title>Node3&#45;&gt;Node1</title>
<path fill="none" stroke="#404040" d="M691.158,-182.272C686.095,-154.036 682.293,-109.733 698.573,-76 700.127,-72.779 702.028,-69.7105 704.181,-66.7999"/>
<polygon fill="none" stroke="#404040" points="704.412,-66.5368 705.365,-59.389 712.33,-57.5201 711.376,-64.6679 704.412,-66.5368"/>
<text text-anchor="middle" x="745.573" y="-90" font-family="Helvetica,sans-Serif" font-size="10.00"> +hasDataHeader</text>
<text text-anchor="middle" x="745.573" y="-79" font-family="Helvetica,sans-Serif" font-size="10.00">+hasConcreteHeader</text>
</g>
<!-- Node4 -->
<g id="node4" class="node"><title>Node4</title>
<polygon fill="none" stroke="#bfbfbf" points="794.073,-182.5 794.073,-239.5 835.073,-239.5 835.073,-182.5 794.073,-182.5"/>
<text text-anchor="middle" x="814.573" y="-227.5" font-family="Helvetica,sans-Serif" font-size="10.00">void *</text>
<polyline fill="none" stroke="#bfbfbf" points="794.073,-220.5 835.073,-220.5 "/>
<text text-anchor="middle" x="814.573" y="-208.5" font-family="Helvetica,sans-Serif" font-size="10.00"> </text>
<polyline fill="none" stroke="#bfbfbf" points="794.073,-201.5 835.073,-201.5 "/>
<text text-anchor="middle" x="814.573" y="-189.5" font-family="Helvetica,sans-Serif" font-size="10.00"> </text>
</g>
<!-- Node4&#45;&gt;Node1 -->
<g id="edge3" class="edge"><title>Node4&#45;&gt;Node1</title>
<path fill="none" stroke="#404040" d="M814.115,-182.393C812.733,-154.448 808.004,-110.549 792.573,-76 791.329,-73.216 789.875,-70.4578 788.276,-67.7571"/>
<polygon fill="none" stroke="#404040" points="788.211,-67.6598 781.548,-64.903 781.53,-57.6919 788.193,-60.4487 788.211,-67.6598"/>
<text text-anchor="middle" x="834.073" y="-90" font-family="Helvetica,sans-Serif" font-size="10.00"> +headerBuffer</text>
<text text-anchor="middle" x="834.073" y="-79" font-family="Helvetica,sans-Serif" font-size="10.00">+payloadBuffer</text>
</g>
<!-- Node5 -->
<g id="node5" class="node"><title>Node5</title>
<g id="a_node5"><a xlink:href="../../db/d87/structo2_1_1header_1_1DataHeader.html" target="_top" xlink:title="the main header struct ">
<polygon fill="none" stroke="black" points="853.073,-116.5 853.073,-305.5 974.073,-305.5 974.073,-116.5 853.073,-116.5"/>
<text text-anchor="middle" x="913.573" y="-293.5" font-family="Helvetica,sans-Serif" font-size="10.00">o2::header::DataHeader</text>
<polyline fill="none" stroke="black" points="853.073,-286.5 974.073,-286.5 "/>
<text text-anchor="middle" x="913.573" y="-274.5" font-family="Helvetica,sans-Serif" font-size="10.00"> </text>
<polyline fill="none" stroke="black" points="853.073,-267.5 974.073,-267.5 "/>
<text text-anchor="start" x="861.073" y="-255.5" font-family="Helvetica,sans-Serif" font-size="10.00">+ DataHeader()</text>
<text text-anchor="start" x="861.073" y="-244.5" font-family="Helvetica,sans-Serif" font-size="10.00">+ DataHeader()</text>
<text text-anchor="start" x="861.073" y="-233.5" font-family="Helvetica,sans-Serif" font-size="10.00">+ DataHeader()</text>
<text text-anchor="start" x="861.073" y="-222.5" font-family="Helvetica,sans-Serif" font-size="10.00">+ operator=()</text>
<text text-anchor="start" x="861.073" y="-211.5" font-family="Helvetica,sans-Serif" font-size="10.00">+ operator=()</text>
<text text-anchor="start" x="861.073" y="-200.5" font-family="Helvetica,sans-Serif" font-size="10.00">+ operator=()</text>
<text text-anchor="start" x="861.073" y="-189.5" font-family="Helvetica,sans-Serif" font-size="10.00">+ operator=()</text>
<text text-anchor="start" x="861.073" y="-178.5" font-family="Helvetica,sans-Serif" font-size="10.00">+ operator==()</text>
<text text-anchor="start" x="861.073" y="-167.5" font-family="Helvetica,sans-Serif" font-size="10.00">+ operator==()</text>
<text text-anchor="start" x="861.073" y="-156.5" font-family="Helvetica,sans-Serif" font-size="10.00">+ operator==()</text>
<text text-anchor="start" x="861.073" y="-145.5" font-family="Helvetica,sans-Serif" font-size="10.00">+ operator==()</text>
<text text-anchor="start" x="861.073" y="-134.5" font-family="Helvetica,sans-Serif" font-size="10.00">+ print()</text>
<text text-anchor="start" x="861.073" y="-123.5" font-family="Helvetica,sans-Serif" font-size="10.00">+ Get()</text>
</a>
</g>
</g>
<!-- Node5&#45;&gt;Node1 -->
<g id="edge4" class="edge"><title>Node5&#45;&gt;Node1</title>
<path fill="none" stroke="#404040" d="M896.054,-116.23C890.126,-101.524 882.191,-87.4326 871.573,-76 863.082,-66.8577 852.54,-59.5007 841.3,-53.5885"/>
<polygon fill="none" stroke="#404040" points="841.178,-53.5305 834.04,-54.5494 830.353,-48.3516 837.492,-47.3327 841.178,-53.5305"/>
<text text-anchor="middle" x="897.573" y="-84.5" font-family="Helvetica,sans-Serif" font-size="10.00"> +dh</text>
</g>
<!-- Node6 -->
<g id="node6" class="node"><title>Node6</title>
<g id="a_node6"><a xlink:href="../../d8/dbd/structo2_1_1header_1_1BaseHeader.html" target="_top" xlink:title="the base header struct Every header type must begin (i.e. derive) with this. Don&#39;t use this struct di...">
<polygon fill="none" stroke="black" points="680.573,-364.5 680.573,-487.5 802.573,-487.5 802.573,-364.5 680.573,-364.5"/>
<text text-anchor="middle" x="741.573" y="-475.5" font-family="Helvetica,sans-Serif" font-size="10.00">o2::header::BaseHeader</text>
<polyline fill="none" stroke="black" points="680.573,-468.5 802.573,-468.5 "/>
<text text-anchor="middle" x="741.573" y="-456.5" font-family="Helvetica,sans-Serif" font-size="10.00"> </text>
<polyline fill="none" stroke="black" points="680.573,-449.5 802.573,-449.5 "/>
<text text-anchor="start" x="688.573" y="-437.5" font-family="Helvetica,sans-Serif" font-size="10.00">+ BaseHeader()</text>
<text text-anchor="start" x="688.573" y="-426.5" font-family="Helvetica,sans-Serif" font-size="10.00">+ BaseHeader()</text>
<text text-anchor="start" x="688.573" y="-415.5" font-family="Helvetica,sans-Serif" font-size="10.00">+ BaseHeader()</text>
<text text-anchor="start" x="688.573" y="-404.5" font-family="Helvetica,sans-Serif" font-size="10.00">+ size()</text>
<text text-anchor="start" x="688.573" y="-393.5" font-family="Helvetica,sans-Serif" font-size="10.00">+ data()</text>
<text text-anchor="start" x="688.573" y="-382.5" font-family="Helvetica,sans-Serif" font-size="10.00">+ next()</text>
<text text-anchor="start" x="688.573" y="-371.5" font-family="Helvetica,sans-Serif" font-size="10.00">+ get()</text>
</a>
</g>
</g>
<!-- Node6&#45;&gt;Node5 -->
<g id="edge5" class="edge"><title>Node6&#45;&gt;Node5</title>
<path fill="none" stroke="midnightblue" d="M801.837,-356.312C815.76,-340 830.359,-322.53 843.573,-306 846.622,-302.186 849.715,-298.26 852.816,-294.278"/>
<polygon fill="none" stroke="midnightblue" points="798.912,-354.346 795.065,-364.218 804.228,-358.9 798.912,-354.346"/>
</g>
<!-- Node7 -->
<g id="node7" class="node"><title>Node7</title>
<g id="a_node7"><a xlink:href="../../d9/db3/structo2_1_1header_1_1Descriptor.html" target="_top" xlink:title="{o2::header::Descriptor\l\&lt; gSizeHeaderDescriptionString \&gt;\n||+ Descriptor()\l+ Descriptor()\l+ Descriptor()\l+ Descriptor()\l+ operator=()\l+ operator ItgType()\l+ runtimeInit()\l+ operator==()\l+ operator==()\l+ operator!=()\l+ operator!=()\l+ print()\l}">
<polygon fill="none" stroke="black" points="395.573,-612.5 395.573,-801.5 561.573,-801.5 561.573,-612.5 395.573,-612.5"/>
<text text-anchor="start" x="403.573" y="-789.5" font-family="Helvetica,sans-Serif" font-size="10.00">o2::header::Descriptor</text>
<text text-anchor="middle" x="478.573" y="-778.5" font-family="Helvetica,sans-Serif" font-size="10.00">&lt; gSizeHeaderDescriptionString &gt;</text>
<polyline fill="none" stroke="black" points="395.573,-771.5 561.573,-771.5 "/>
<text text-anchor="middle" x="478.573" y="-759.5" font-family="Helvetica,sans-Serif" font-size="10.00"> </text>
<polyline fill="none" stroke="black" points="395.573,-752.5 561.573,-752.5 "/>
<text text-anchor="start" x="403.573" y="-740.5" font-family="Helvetica,sans-Serif" font-size="10.00">+ Descriptor()</text>
<text text-anchor="start" x="403.573" y="-729.5" font-family="Helvetica,sans-Serif" font-size="10.00">+ Descriptor()</text>
<text text-anchor="start" x="403.573" y="-718.5" font-family="Helvetica,sans-Serif" font-size="10.00">+ Descriptor()</text>
<text text-anchor="start" x="403.573" y="-707.5" font-family="Helvetica,sans-Serif" font-size="10.00">+ Descriptor()</text>
<text text-anchor="start" x="403.573" y="-696.5" font-family="Helvetica,sans-Serif" font-size="10.00">+ operator=()</text>
<text text-anchor="start" x="403.573" y="-685.5" font-family="Helvetica,sans-Serif" font-size="10.00">+ operator ItgType()</text>
<text text-anchor="start" x="403.573" y="-674.5" font-family="Helvetica,sans-Serif" font-size="10.00">+ runtimeInit()</text>
<text text-anchor="start" x="403.573" y="-663.5" font-family="Helvetica,sans-Serif" font-size="10.00">+ operator==()</text>
<text text-anchor="start" x="403.573" y="-652.5" font-family="Helvetica,sans-Serif" font-size="10.00">+ operator==()</text>
<text text-anchor="start" x="403.573" y="-641.5" font-family="Helvetica,sans-Serif" font-size="10.00">+ operator!=()</text>
<text text-anchor="start" x="403.573" y="-630.5" font-family="Helvetica,sans-Serif" font-size="10.00">+ operator!=()</text>
<text text-anchor="start" x="403.573" y="-619.5" font-family="Helvetica,sans-Serif" font-size="10.00">+ print()</text>
</a>
</g>
</g>
<!-- Node7&#45;&gt;Node6 -->
<g id="edge6" class="edge"><title>Node7&#45;&gt;Node6</title>
<path fill="none" stroke="#404040" d="M482.326,-612.407C488.216,-575.467 500.76,-535.012 526.573,-506 562.683,-465.414 621.477,-445.648 668.463,-436.039"/>
<polygon fill="none" stroke="#404040" points="668.655,-436.002 673.799,-430.948 680.442,-433.753 675.298,-438.807 668.655,-436.002"/>
<text text-anchor="middle" x="555.073" y="-547.5" font-family="Helvetica,sans-Serif" font-size="10.00"> +description</text>
</g>
<!-- Node8 -->
<g id="node8" class="node"><title>Node8</title>
<polygon fill="none" stroke="#bfbfbf" points="135.573,-1121.5 135.573,-1178.5 173.573,-1178.5 173.573,-1121.5 135.573,-1121.5"/>
<text text-anchor="middle" x="154.573" y="-1166.5" font-family="Helvetica,sans-Serif" font-size="10.00">Type</text>
<polyline fill="none" stroke="#bfbfbf" points="135.573,-1159.5 173.573,-1159.5 "/>
<text text-anchor="middle" x="154.573" y="-1147.5" font-family="Helvetica,sans-Serif" font-size="10.00"> </text>
<polyline fill="none" stroke="#bfbfbf" points="135.573,-1140.5 173.573,-1140.5 "/>
<text text-anchor="middle" x="154.573" y="-1128.5" font-family="Helvetica,sans-Serif" font-size="10.00"> </text>
</g>
<!-- Node8&#45;&gt;Node7 -->
<g id="edge7" class="edge"><title>Node8&#45;&gt;Node7</title>
<path fill="none" stroke="#404040" d="M150.67,-1121.13C144.464,-1067.67 136.865,-948.2 177.573,-860 216.392,-775.892 293.487,-838.681 384.246,-802.229"/>
<polygon fill="none" stroke="#404040" points="384.417,-802.153 388.272,-796.06 395.38,-797.275 391.524,-803.369 384.417,-802.153"/>
<text text-anchor="middle" x="187.573" y="-952.5" font-family="Helvetica,sans-Serif" font-size="10.00"> +itg</text>
</g>
<!-- Node12 -->
<g id="node12" class="node"><title>Node12</title>
<g id="a_node12"><a xlink:href="../../d9/db3/structo2_1_1header_1_1Descriptor.html" target="_top" xlink:title="{o2::header::Descriptor\l\&lt; N, PrinterPolicy \&gt;\n||+ Descriptor()\l+ Descriptor()\l+ Descriptor()\l+ operator=()\l+ operator ItgType()\l+ Descriptor()\l+ runtimeInit()\l+ operator==()\l+ operator!=()\l+ operator==()\l+ operator!=()\l+ print()\l}">
<polygon fill="none" stroke="black" points="280.073,-860.5 280.073,-1049.5 393.073,-1049.5 393.073,-860.5 280.073,-860.5"/>
<text text-anchor="start" x="288.073" y="-1037.5" font-family="Helvetica,sans-Serif" font-size="10.00">o2::header::Descriptor</text>
<text text-anchor="middle" x="336.573" y="-1026.5" font-family="Helvetica,sans-Serif" font-size="10.00">&lt; N, PrinterPolicy &gt;</text>
<polyline fill="none" stroke="black" points="280.073,-1019.5 393.073,-1019.5 "/>
<text text-anchor="middle" x="336.573" y="-1007.5" font-family="Helvetica,sans-Serif" font-size="10.00"> </text>
<polyline fill="none" stroke="black" points="280.073,-1000.5 393.073,-1000.5 "/>
<text text-anchor="start" x="288.073" y="-988.5" font-family="Helvetica,sans-Serif" font-size="10.00">+ Descriptor()</text>
<text text-anchor="start" x="288.073" y="-977.5" font-family="Helvetica,sans-Serif" font-size="10.00">+ Descriptor()</text>
<text text-anchor="start" x="288.073" y="-966.5" font-family="Helvetica,sans-Serif" font-size="10.00">+ Descriptor()</text>
<text text-anchor="start" x="288.073" y="-955.5" font-family="Helvetica,sans-Serif" font-size="10.00">+ operator=()</text>
<text text-anchor="start" x="288.073" y="-944.5" font-family="Helvetica,sans-Serif" font-size="10.00">+ operator ItgType()</text>
<text text-anchor="start" x="288.073" y="-933.5" font-family="Helvetica,sans-Serif" font-size="10.00">+ Descriptor()</text>
<text text-anchor="start" x="288.073" y="-922.5" font-family="Helvetica,sans-Serif" font-size="10.00">+ runtimeInit()</text>
<text text-anchor="start" x="288.073" y="-911.5" font-family="Helvetica,sans-Serif" font-size="10.00">+ operator==()</text>
<text text-anchor="start" x="288.073" y="-900.5" font-family="Helvetica,sans-Serif" font-size="10.00">+ operator!=()</text>
<text text-anchor="start" x="288.073" y="-889.5" font-family="Helvetica,sans-Serif" font-size="10.00">+ operator==()</text>
<text text-anchor="start" x="288.073" y="-878.5" font-family="Helvetica,sans-Serif" font-size="10.00">+ operator!=()</text>
<text text-anchor="start" x="288.073" y="-867.5" font-family="Helvetica,sans-Serif" font-size="10.00">+ print()</text>
</a>
</g>
</g>
<!-- Node8&#45;&gt;Node12 -->
<g id="edge12" class="edge"><title>Node8&#45;&gt;Node12</title>
<path fill="none" stroke="#404040" d="M173.832,-1131.48C178.024,-1127.69 182.441,-1123.7 186.573,-1120 221.509,-1088.69 233.723,-1084.44 265.573,-1050 267.775,-1047.62 269.977,-1045.17 272.17,-1042.68"/>
<polygon fill="none" stroke="#404040" points="272.255,-1042.58 273.117,-1035.42 280.057,-1033.46 279.195,-1040.62 272.255,-1042.58"/>
<text text-anchor="middle" x="257.573" y="-1082.5" font-family="Helvetica,sans-Serif" font-size="10.00"> +itg</text>
</g>
<!-- Node14 -->
<g id="node14" class="node"><title>Node14</title>
<g id="a_node14"><a xlink:href="../../d9/db3/structo2_1_1header_1_1Descriptor.html" target="_top" xlink:title="{o2::header::Descriptor\l\&lt; gSizeSerializationMethodString \&gt;\n||+ Descriptor()\l+ Descriptor()\l+ Descriptor()\l+ Descriptor()\l+ operator=()\l+ operator ItgType()\l+ runtimeInit()\l+ operator==()\l+ operator==()\l+ operator!=()\l+ operator!=()\l+ print()\l}">
<polygon fill="none" stroke="black" points="207.573,-612.5 207.573,-801.5 377.573,-801.5 377.573,-612.5 207.573,-612.5"/>
<text text-anchor="start" x="215.573" y="-789.5" font-family="Helvetica,sans-Serif" font-size="10.00">o2::header::Descriptor</text>
<text text-anchor="middle" x="292.573" y="-778.5" font-family="Helvetica,sans-Serif" font-size="10.00">&lt; gSizeSerializationMethodString &gt;</text>
<polyline fill="none" stroke="black" points="207.573,-771.5 377.573,-771.5 "/>
<text text-anchor="middle" x="292.573" y="-759.5" font-family="Helvetica,sans-Serif" font-size="10.00"> </text>
<polyline fill="none" stroke="black" points="207.573,-752.5 377.573,-752.5 "/>
<text text-anchor="start" x="215.573" y="-740.5" font-family="Helvetica,sans-Serif" font-size="10.00">+ Descriptor()</text>
<text text-anchor="start" x="215.573" y="-729.5" font-family="Helvetica,sans-Serif" font-size="10.00">+ Descriptor()</text>
<text text-anchor="start" x="215.573" y="-718.5" font-family="Helvetica,sans-Serif" font-size="10.00">+ Descriptor()</text>
<text text-anchor="start" x="215.573" y="-707.5" font-family="Helvetica,sans-Serif" font-size="10.00">+ Descriptor()</text>
<text text-anchor="start" x="215.573" y="-696.5" font-family="Helvetica,sans-Serif" font-size="10.00">+ operator=()</text>
<text text-anchor="start" x="215.573" y="-685.5" font-family="Helvetica,sans-Serif" font-size="10.00">+ operator ItgType()</text>
<text text-anchor="start" x="215.573" y="-674.5" font-family="Helvetica,sans-Serif" font-size="10.00">+ runtimeInit()</text>
<text text-anchor="start" x="215.573" y="-663.5" font-family="Helvetica,sans-Serif" font-size="10.00">+ operator==()</text>
<text text-anchor="start" x="215.573" y="-652.5" font-family="Helvetica,sans-Serif" font-size="10.00">+ operator==()</text>
<text text-anchor="start" x="215.573" y="-641.5" font-family="Helvetica,sans-Serif" font-size="10.00">+ operator!=()</text>
<text text-anchor="start" x="215.573" y="-630.5" font-family="Helvetica,sans-Serif" font-size="10.00">+ operator!=()</text>
<text text-anchor="start" x="215.573" y="-619.5" font-family="Helvetica,sans-Serif" font-size="10.00">+ print()</text>
</a>
</g>
</g>
<!-- Node8&#45;&gt;Node14 -->
<g id="edge21" class="edge"><title>Node8&#45;&gt;Node14</title>
<path fill="none" stroke="#404040" d="M135.414,-1140.92C105.836,-1127.24 50.2112,-1096.39 28.5729,-1050 -7.12361,-973.471 -11.5557,-934.3 28.5729,-860 62.8085,-796.611 135.36,-757.644 195.756,-735.057"/>
<polygon fill="none" stroke="#404040" points="195.985,-734.975 200.266,-729.172 207.269,-730.892 202.988,-736.695 195.985,-734.975"/>
<text text-anchor="middle" x="38.5729" y="-952.5" font-family="Helvetica,sans-Serif" font-size="10.00"> +itg</text>
</g>
<!-- Node9 -->
<g id="node9" class="node"><title>Node9</title>
<polygon fill="none" stroke="#bfbfbf" points="457.073,-1121.5 457.073,-1178.5 492.073,-1178.5 492.073,-1121.5 457.073,-1121.5"/>
<text text-anchor="middle" x="474.573" y="-1166.5" font-family="Helvetica,sans-Serif" font-size="10.00">char</text>
<polyline fill="none" stroke="#bfbfbf" points="457.073,-1159.5 492.073,-1159.5 "/>
<text text-anchor="middle" x="474.573" y="-1147.5" font-family="Helvetica,sans-Serif" font-size="10.00"> </text>
<polyline fill="none" stroke="#bfbfbf" points="457.073,-1140.5 492.073,-1140.5 "/>
<text text-anchor="middle" x="474.573" y="-1128.5" font-family="Helvetica,sans-Serif" font-size="10.00"> </text>
</g>
<!-- Node9&#45;&gt;Node6 -->
<g id="edge19" class="edge"><title>Node9&#45;&gt;Node6</title>
<path fill="none" stroke="#404040" d="M492.107,-1136.88C529.844,-1110.79 615.459,-1051.51 616.573,-1050 680.41,-963.653 634.597,-911.64 690.573,-820 696.47,-810.345 703.789,-812.252 708.573,-802 732.773,-750.137 739.306,-593.724 741.019,-500.086"/>
<polygon fill="none" stroke="#404040" points="741.022,-499.867 737.123,-493.801 741.222,-487.868 745.121,-493.934 741.022,-499.867"/>
<text text-anchor="middle" x="721.073" y="-828.5" font-family="Helvetica,sans-Serif" font-size="10.00"> +magicString</text>
</g>
<!-- Node9&#45;&gt;Node7 -->
<g id="edge8" class="edge"><title>Node9&#45;&gt;Node7</title>
<path fill="none" stroke="#404040" d="M480.797,-1121.47C497.288,-1047.74 540.392,-849.357 533.573,-820 533.04,-817.705 532.453,-815.403 531.817,-813.099"/>
<polygon fill="none" stroke="#404040" points="531.801,-813.046 526.21,-808.493 528.263,-801.58 533.854,-806.134 531.801,-813.046"/>
<text text-anchor="middle" x="543.073" y="-952.5" font-family="Helvetica,sans-Serif" font-size="10.00"> +str</text>
</g>
<!-- Node9&#45;&gt;Node12 -->
<g id="edge13" class="edge"><title>Node9&#45;&gt;Node12</title>
<path fill="none" stroke="#404040" d="M457.007,-1142.66C439.085,-1135.37 411.561,-1121.81 394.573,-1102 384.174,-1089.87 375.497,-1075.65 368.299,-1060.93"/>
<polygon fill="none" stroke="#404040" points="368.101,-1060.5 361.957,-1056.73 363.079,-1049.61 369.223,-1053.38 368.101,-1060.5"/>
<text text-anchor="middle" x="405.073" y="-1082.5" font-family="Helvetica,sans-Serif" font-size="10.00"> +str</text>
</g>
<!-- Node9&#45;&gt;Node14 -->
<g id="edge22" class="edge"><title>Node9&#45;&gt;Node14</title>
<path fill="none" stroke="#404040" d="M471.071,-1121.15C463.665,-1068.23 443.532,-950.35 401.573,-860 394,-843.692 384.603,-827.328 374.526,-811.695"/>
<polygon fill="none" stroke="#404040" points="374.43,-811.549 367.786,-808.746 367.818,-801.535 374.462,-804.338 374.43,-811.549"/>
<text text-anchor="middle" x="470.073" y="-952.5" font-family="Helvetica,sans-Serif" font-size="10.00"> +str</text>
</g>
<!-- Node10 -->
<g id="node10" class="node"><title>Node10</title>
<polygon fill="none" stroke="#bfbfbf" points="196.073,-1121.5 196.073,-1178.5 225.073,-1178.5 225.073,-1121.5 196.073,-1121.5"/>
<text text-anchor="middle" x="210.573" y="-1166.5" font-family="Helvetica,sans-Serif" font-size="10.00">int</text>
<polyline fill="none" stroke="#bfbfbf" points="196.073,-1159.5 225.073,-1159.5 "/>
<text text-anchor="middle" x="210.573" y="-1147.5" font-family="Helvetica,sans-Serif" font-size="10.00"> </text>
<polyline fill="none" stroke="#bfbfbf" points="196.073,-1140.5 225.073,-1140.5 "/>
<text text-anchor="middle" x="210.573" y="-1128.5" font-family="Helvetica,sans-Serif" font-size="10.00"> </text>
</g>
<!-- Node10&#45;&gt;Node7 -->
<g id="edge9" class="edge"><title>Node10&#45;&gt;Node7</title>
<path fill="none" stroke="#404040" d="M207.8,-1121.42C201.221,-1048.92 188.536,-856.091 235.573,-820 286.262,-781.108 321.865,-826.333 384.252,-802.149"/>
<polygon fill="none" stroke="#404040" points="384.386,-802.09 388.25,-796.001 395.356,-797.226 391.492,-803.314 384.386,-802.09"/>
<text text-anchor="middle" x="238.073" y="-963.5" font-family="Helvetica,sans-Serif" font-size="10.00"> +arraySize</text>
<text text-anchor="middle" x="238.073" y="-952.5" font-family="Helvetica,sans-Serif" font-size="10.00">+size</text>
<text text-anchor="middle" x="238.073" y="-941.5" font-family="Helvetica,sans-Serif" font-size="10.00">+bitcount</text>
</g>
<!-- Node10&#45;&gt;Node12 -->
<g id="edge14" class="edge"><title>Node10&#45;&gt;Node12</title>
<path fill="none" stroke="#404040" d="M225.215,-1143.04C241.591,-1135.68 267.872,-1121.68 283.573,-1102 293.357,-1089.74 301.431,-1075.51 308.067,-1060.84"/>
<polygon fill="none" stroke="#404040" points="308.167,-1060.61 306.836,-1053.52 312.866,-1049.57 314.197,-1056.65 308.167,-1060.61"/>
<text text-anchor="middle" x="330.073" y="-1093.5" font-family="Helvetica,sans-Serif" font-size="10.00"> +arraySize</text>
<text text-anchor="middle" x="330.073" y="-1082.5" font-family="Helvetica,sans-Serif" font-size="10.00">+size</text>
<text text-anchor="middle" x="330.073" y="-1071.5" font-family="Helvetica,sans-Serif" font-size="10.00">+bitcount</text>
</g>
<!-- Node10&#45;&gt;Node14 -->
<g id="edge23" class="edge"><title>Node10&#45;&gt;Node14</title>
<path fill="none" stroke="#404040" d="M195.996,-1132.78C191.823,-1128.45 187.159,-1123.9 182.573,-1120 140.959,-1084.63 106.908,-1098.38 81.5729,-1050 42.4009,-975.191 43.0838,-935.163 81.5729,-860 106.001,-812.296 153.146,-776.149 196.686,-751.099"/>
<polygon fill="none" stroke="#404040" points="196.893,-750.983 200.179,-744.564 207.368,-745.128 204.082,-751.547 196.893,-750.983"/>
<text text-anchor="middle" x="107.073" y="-963.5" font-family="Helvetica,sans-Serif" font-size="10.00"> +arraySize</text>
<text text-anchor="middle" x="107.073" y="-952.5" font-family="Helvetica,sans-Serif" font-size="10.00">+size</text>
<text text-anchor="middle" x="107.073" y="-941.5" font-family="Helvetica,sans-Serif" font-size="10.00">+bitcount</text>
</g>
<!-- Node11 -->
<g id="node11" class="node"><title>Node11</title>
<polygon fill="none" stroke="#bfbfbf" points="692.073,-1121 692.073,-1179 721.073,-1179 721.073,-1121 692.073,-1121"/>
<polyline fill="none" stroke="#bfbfbf" points="692.073,-1159 721.073,-1159 "/>
<text text-anchor="middle" x="706.573" y="-1147" font-family="Helvetica,sans-Serif" font-size="10.00"> </text>
<polyline fill="none" stroke="#bfbfbf" points="692.073,-1140 721.073,-1140 "/>
<text text-anchor="middle" x="706.573" y="-1128" font-family="Helvetica,sans-Serif" font-size="10.00"> </text>
</g>
<!-- Node11&#45;&gt;Node6 -->
<g id="edge16" class="edge"><title>Node11&#45;&gt;Node6</title>
<path fill="none" stroke="#404040" d="M721.097,-1121.31C730.342,-1101.94 741.345,-1075.14 745.573,-1050 763.008,-946.332 751.66,-640.905 745.187,-499.884"/>
<polygon fill="none" stroke="#404040" points="745.172,-499.562 740.898,-493.754 744.615,-487.575 748.889,-493.382 745.172,-499.562"/>
<text text-anchor="middle" x="768.073" y="-828.5" font-family="Helvetica,sans-Serif" font-size="10.00"> +@5</text>
</g>
<!-- Node11&#45;&gt;Node6 -->
<g id="edge18" class="edge"><title>Node11&#45;&gt;Node6</title>
<path fill="none" stroke="#404040" d="M721.22,-1136.84C730.874,-1128.08 743.074,-1115.48 750.573,-1102 762.209,-1081.09 760.302,-1073.55 764.573,-1050 807.723,-812.1 800.221,-744.673 761.573,-506 761.223,-503.842 760.843,-501.656 760.437,-499.455"/>
<polygon fill="none" stroke="#404040" points="760.417,-499.354 755.312,-494.261 758.05,-487.59 763.155,-492.683 760.417,-499.354"/>
<text text-anchor="middle" x="806.073" y="-828.5" font-family="Helvetica,sans-Serif" font-size="10.00"> +@7</text>
</g>
<!-- Node11&#45;&gt;Node7 -->
<g id="edge10" class="edge"><title>Node11&#45;&gt;Node7</title>
<path fill="none" stroke="#404040" d="M709.728,-1120.75C717.055,-1049.27 731.761,-863.76 692.573,-820 657.474,-780.807 622.688,-825.412 575.573,-802 574.392,-801.413 573.215,-800.806 572.045,-800.181"/>
<polygon fill="none" stroke="#404040" points="572.013,-800.163 564.814,-800.576 561.664,-794.089 568.863,-793.676 572.013,-800.163"/>
<text text-anchor="middle" x="732.073" y="-952.5" font-family="Helvetica,sans-Serif" font-size="10.00"> +@3</text>
</g>
<!-- Node11&#45;&gt;Node12 -->
<g id="edge15" class="edge"><title>Node11&#45;&gt;Node12</title>
<path fill="none" stroke="#404040" d="M691.788,-1147.26C645.69,-1141.22 502.02,-1117.69 407.573,-1050 405.859,-1048.77 404.167,-1047.49 402.5,-1046.16"/>
<polygon fill="none" stroke="#404040" points="402.265,-1045.96 395.113,-1045.03 393.216,-1038.07 400.368,-1039 402.265,-1045.96"/>
<text text-anchor="middle" x="519.073" y="-1082.5" font-family="Helvetica,sans-Serif" font-size="10.00"> +@3</text>
</g>
<!-- Node11&#45;&gt;Node14 -->
<g id="edge24" class="edge"><title>Node11&#45;&gt;Node14</title>
<path fill="none" stroke="#404040" d="M695.808,-1120.83C667.477,-1048.23 589.273,-857.759 534.573,-820 483.13,-784.489 450.052,-825.778 388.983,-802.197"/>
<polygon fill="none" stroke="#404040" points="388.653,-802.052 381.55,-803.296 377.67,-797.217 384.773,-795.974 388.653,-802.052"/>
<text text-anchor="middle" x="679.073" y="-952.5" font-family="Helvetica,sans-Serif" font-size="10.00"> +@3</text>
</g>
<!-- Node12&#45;&gt;Node5 -->
<g id="edge32" class="edge"><title>Node12&#45;&gt;Node5</title>
<path fill="none" stroke="#404040" d="M279.965,-872.072C275.956,-867.82 271.816,-863.759 267.573,-860 255.359,-849.179 248.38,-852.112 235.573,-842 216.566,-826.993 207.403,-824.55 198.573,-802 150.587,-679.457 150.839,-625.219 206.573,-506 244.908,-424 271.372,-404 352.573,-364 463.762,-309.227 505.425,-338.066 628.573,-324 673.045,-318.92 785.343,-327.932 841.726,-305.369"/>
<polygon fill="none" stroke="#404040" points="842.032,-305.223 845.727,-299.03 852.864,-300.059 849.169,-306.252 842.032,-305.223"/>
<text text-anchor="middle" x="255.073" y="-553" font-family="Helvetica,sans-Serif" font-size="10.00"> +sHeaderType</text>
<text text-anchor="middle" x="255.073" y="-542" font-family="Helvetica,sans-Serif" font-size="10.00">+sSerializationMethod</text>
</g>
<!-- Node12&#45;&gt;Node6 -->
<g id="edge26" class="edge"><title>Node12&#45;&gt;Node6</title>
<path fill="none" stroke="#404040" d="M393.217,-862.95C394.64,-861.919 396.092,-860.934 397.573,-860 449.51,-827.228 480.223,-870.593 534.573,-842 555.74,-830.864 559.684,-823.295 570.573,-802 609.903,-725.084 576.937,-691.141 611.573,-612 629.407,-571.25 656.923,-530.329 682.057,-497.371"/>
<polygon fill="none" stroke="#404040" points="682.077,-497.345 682.583,-490.152 689.418,-487.852 688.912,-495.046 682.077,-497.345"/>
<text text-anchor="middle" x="660.073" y="-710" font-family="Helvetica,sans-Serif" font-size="10.00"> +sHeaderType</text>
<text text-anchor="middle" x="660.073" y="-699" font-family="Helvetica,sans-Serif" font-size="10.00">+sSerializationMethod</text>
</g>
<!-- Node12&#45;&gt;Node7 -->
<g id="edge11" class="edge"><title>Node12&#45;&gt;Node7</title>
<path fill="none" stroke="orange" d="M395.88,-851.256C405.334,-834.879 415.072,-818.009 424.399,-801.851"/>
<polygon fill="orange" stroke="orange" points="392.63,-849.886 390.662,-860.296 398.693,-853.385 392.63,-849.886"/>
<text text-anchor="start" x="412.573" y="-834" font-family="Helvetica,sans-Serif" font-size="10.00"> &lt; gSizeHeaderDescription</text>
<text text-anchor="middle" x="471.573" y="-823" font-family="Helvetica,sans-Serif" font-size="10.00">String &gt;</text>
</g>
<!-- Node12&#45;&gt;Node14 -->
<g id="edge25" class="edge"><title>Node12&#45;&gt;Node14</title>
<path fill="none" stroke="orange" d="M273.141,-868.313C270.63,-865.471 268.103,-862.691 265.573,-860 257.153,-851.044 249.71,-853.168 244.573,-842 238.687,-829.203 237.802,-815.462 239.983,-801.831"/>
<polygon fill="orange" stroke="orange" points="270.56,-870.679 279.742,-875.964 275.859,-866.106 270.56,-870.679"/>
<text text-anchor="start" x="244.573" y="-834" font-family="Helvetica,sans-Serif" font-size="10.00"> &lt; gSizeSerializationMethod</text>
<text text-anchor="middle" x="306.073" y="-823" font-family="Helvetica,sans-Serif" font-size="10.00">String &gt;</text>
</g>
<!-- Node13 -->
<g id="node13" class="node"><title>Node13</title>
<polygon fill="none" stroke="#bfbfbf" points="858.073,-678.5 858.073,-735.5 909.073,-735.5 909.073,-678.5 858.073,-678.5"/>
<text text-anchor="middle" x="883.573" y="-723.5" font-family="Helvetica,sans-Serif" font-size="10.00">uint32_t</text>
<polyline fill="none" stroke="#bfbfbf" points="858.073,-716.5 909.073,-716.5 "/>
<text text-anchor="middle" x="883.573" y="-704.5" font-family="Helvetica,sans-Serif" font-size="10.00"> </text>
<polyline fill="none" stroke="#bfbfbf" points="858.073,-697.5 909.073,-697.5 "/>
<text text-anchor="middle" x="883.573" y="-685.5" font-family="Helvetica,sans-Serif" font-size="10.00"> </text>
</g>
<!-- Node13&#45;&gt;Node5 -->
<g id="edge27" class="edge"><title>Node13&#45;&gt;Node5</title>
<path fill="none" stroke="#404040" d="M888.329,-678.478C892.039,-655.864 896.981,-622.954 899.573,-594 907.912,-500.826 911.312,-394.443 912.684,-317.646"/>
<polygon fill="none" stroke="#404040" points="912.685,-317.58 908.787,-311.513 912.888,-305.582 916.786,-311.648 912.685,-317.58"/>
<text text-anchor="middle" x="936.073" y="-429" font-family="Helvetica,sans-Serif" font-size="10.00"> +reserved</text>
<text text-anchor="middle" x="936.073" y="-418" font-family="Helvetica,sans-Serif" font-size="10.00">+sVersion</text>
</g>
<!-- Node13&#45;&gt;Node6 -->
<g id="edge17" class="edge"><title>Node13&#45;&gt;Node6</title>
<path fill="none" stroke="#404040" d="M864.829,-678.049C850.743,-656.005 831.84,-624.067 819.573,-594 804.301,-556.571 813.495,-542.713 796.573,-506 795.436,-503.534 794.222,-501.062 792.945,-498.596"/>
<polygon fill="none" stroke="#404040" points="792.806,-498.346 786.399,-495.038 786.988,-487.851 793.395,-491.159 792.806,-498.346"/>
<text text-anchor="middle" x="859.573" y="-586" font-family="Helvetica,sans-Serif" font-size="10.00"> +headerVersion</text>
<text text-anchor="middle" x="859.573" y="-575" font-family="Helvetica,sans-Serif" font-size="10.00">+headerSize</text>
<text text-anchor="middle" x="859.573" y="-564" font-family="Helvetica,sans-Serif" font-size="10.00">+sMagicString</text>
<text text-anchor="middle" x="859.573" y="-553" font-family="Helvetica,sans-Serif" font-size="10.00">+flagsNextHeader</text>
<text text-anchor="middle" x="859.573" y="-542" font-family="Helvetica,sans-Serif" font-size="10.00">+magicStringInt</text>
<text text-anchor="middle" x="859.573" y="-531" font-family="Helvetica,sans-Serif" font-size="10.00">+flagsUnused</text>
<text text-anchor="middle" x="859.573" y="-520" font-family="Helvetica,sans-Serif" font-size="10.00">+flags</text>
<text text-anchor="middle" x="859.573" y="-509" font-family="Helvetica,sans-Serif" font-size="10.00">+sVersion</text>
</g>
<!-- Node14&#45;&gt;Node5 -->
<g id="edge31" class="edge"><title>Node14&#45;&gt;Node5</title>
<path fill="none" stroke="#404040" d="M301.967,-612.488C308.985,-576.816 321.227,-537.255 342.573,-506 404.054,-415.976 442.329,-406.842 542.573,-364 602.153,-338.537 768.516,-341.804 842.043,-305.53"/>
<polygon fill="none" stroke="#404040" points="842.133,-305.48 845.417,-299.06 852.606,-299.622 849.322,-306.042 842.133,-305.48"/>
<text text-anchor="middle" x="607.073" y="-423.5" font-family="Helvetica,sans-Serif" font-size="10.00"> +payloadSerializationMethod</text>
</g>
<!-- Node14&#45;&gt;Node6 -->
<g id="edge20" class="edge"><title>Node14&#45;&gt;Node6</title>
<path fill="none" stroke="#404040" d="M334.115,-612.365C355.444,-574.168 384.954,-532.776 422.573,-506 495.692,-453.955 599.399,-436.042 668.495,-429.965"/>
<polygon fill="none" stroke="#404040" points="668.591,-429.958 674.25,-425.489 680.552,-428.994 674.893,-433.463 668.591,-429.958"/>
<text text-anchor="middle" x="453.073" y="-547.5" font-family="Helvetica,sans-Serif" font-size="10.00"> +serialization</text>
</g>
<!-- Node15 -->
<g id="node15" class="node"><title>Node15</title>
<polygon fill="none" stroke="#bfbfbf" points="979.073,-397.5 979.073,-454.5 1030.07,-454.5 1030.07,-397.5 979.073,-397.5"/>
<text text-anchor="middle" x="1004.57" y="-442.5" font-family="Helvetica,sans-Serif" font-size="10.00">uint64_t</text>
<polyline fill="none" stroke="#bfbfbf" points="979.073,-435.5 1030.07,-435.5 "/>
<text text-anchor="middle" x="1004.57" y="-423.5" font-family="Helvetica,sans-Serif" font-size="10.00"> </text>
<polyline fill="none" stroke="#bfbfbf" points="979.073,-416.5 1030.07,-416.5 "/>
<text text-anchor="middle" x="1004.57" y="-404.5" font-family="Helvetica,sans-Serif" font-size="10.00"> </text>
</g>
<!-- Node15&#45;&gt;Node5 -->
<g id="edge28" class="edge"><title>Node15&#45;&gt;Node5</title>
<path fill="none" stroke="#404040" d="M992.676,-397.154C983.791,-376.356 971.042,-346.515 958.366,-316.846"/>
<polygon fill="none" stroke="#404040" points="958.235,-316.537 952.199,-312.591 953.52,-305.502 959.556,-309.448 958.235,-316.537"/>
<text text-anchor="middle" x="1010.07" y="-338" font-family="Helvetica,sans-Serif" font-size="10.00"> +payloadSize</text>
<text text-anchor="middle" x="1010.07" y="-327" font-family="Helvetica,sans-Serif" font-size="10.00">+subSpecification</text>
</g>
<!-- Node16 -->
<g id="node16" class="node"><title>Node16</title>
<polygon fill="none" stroke="#bfbfbf" points="1048.57,-392 1048.57,-460 1190.57,-460 1190.57,-392 1048.57,-392"/>
<text text-anchor="start" x="1056.57" y="-448" font-family="Helvetica,sans-Serif" font-size="10.00">Descriptor&lt; gSizeDataOrigin</text>
<text text-anchor="middle" x="1119.57" y="-437" font-family="Helvetica,sans-Serif" font-size="10.00">String, printDataOrigin &gt;</text>
<polyline fill="none" stroke="#bfbfbf" points="1048.57,-430 1190.57,-430 "/>
<text text-anchor="middle" x="1119.57" y="-418" font-family="Helvetica,sans-Serif" font-size="10.00"> </text>
<polyline fill="none" stroke="#bfbfbf" points="1048.57,-411 1190.57,-411 "/>
<text text-anchor="middle" x="1119.57" y="-399" font-family="Helvetica,sans-Serif" font-size="10.00"> </text>
</g>
<!-- Node16&#45;&gt;Node5 -->
<g id="edge29" class="edge"><title>Node16&#45;&gt;Node5</title>
<path fill="none" stroke="#404040" d="M1101.48,-391.739C1089.39,-371.077 1072.3,-344.621 1053.57,-324 1032.97,-301.32 1007.51,-279.522 983.979,-261.281"/>
<polygon fill="none" stroke="#404040" points="983.917,-261.234 976.721,-260.772 974.379,-253.951 981.576,-254.413 983.917,-261.234"/>
<text text-anchor="middle" x="1097.57" y="-332.5" font-family="Helvetica,sans-Serif" font-size="10.00"> +dataOrigin</text>
</g>
<!-- Node17 -->
<g id="node17" class="node"><title>Node17</title>
<polygon fill="none" stroke="#bfbfbf" points="1208.57,-392 1208.57,-460 1374.57,-460 1374.57,-392 1208.57,-392"/>
<text text-anchor="start" x="1216.57" y="-448" font-family="Helvetica,sans-Serif" font-size="10.00">Descriptor&lt; gSizeDataDescription</text>
<text text-anchor="middle" x="1291.57" y="-437" font-family="Helvetica,sans-Serif" font-size="10.00">String, printDataDescription &gt;</text>
<polyline fill="none" stroke="#bfbfbf" points="1208.57,-430 1374.57,-430 "/>
<text text-anchor="middle" x="1291.57" y="-418" font-family="Helvetica,sans-Serif" font-size="10.00"> </text>
<polyline fill="none" stroke="#bfbfbf" points="1208.57,-411 1374.57,-411 "/>
<text text-anchor="middle" x="1291.57" y="-399" font-family="Helvetica,sans-Serif" font-size="10.00"> </text>
</g>
<!-- Node17&#45;&gt;Node5 -->
<g id="edge30" class="edge"><title>Node17&#45;&gt;Node5</title>
<path fill="none" stroke="#404040" d="M1242.82,-391.727C1228.97,-382.538 1213.79,-372.704 1199.57,-364 1128.5,-320.495 1043.87,-276.421 985.196,-247.016"/>
<polygon fill="none" stroke="#404040" points="984.921,-246.879 977.766,-247.777 974.186,-241.518 981.341,-240.62 984.921,-246.879"/>
<text text-anchor="middle" x="1208.57" y="-332.5" font-family="Helvetica,sans-Serif" font-size="10.00"> +dataDescription</text>
</g>
</g>
</svg>
        <g id="navigator" transform="translate(0 0)" fill="#404254">
                <rect fill="#f2f5e9" fill-opacity="0.5" stroke="#606060" stroke-width=".5" x="0" y="0" width="60" height="60"/>
                <use id="zoomplus" xlink:href="#zoomPlus" x="17" y="9" onmousedown="handleZoom(evt,'in')"/>
                <use id="zoomminus" xlink:href="#zoomMin" x="42" y="9" onmousedown="handleZoom(evt,'out')"/>
                <use id="reset" xlink:href="#resetDef" x="30" y="36" onmousedown="handleReset()"/>
                <g id="arrowUp" xlink:href="#dirArrow" transform="translate(30 24)" onmousedown="handlePan(0,-1)">
                  <use xlink:href="#rim" fill="#404040">
                        <set attributeName="fill" to="#808080" begin="arrowUp.mouseover" end="arrowUp.mouseout"/>
                  </use>
                  <path fill="none" stroke="white" stroke-width="1.5" d="M0,-3.0v7 M-2.5,-0.5L0,-3.0L2.5,-0.5"/>
                </g>
                <g id="arrowRight" xlink:href="#dirArrow" transform="rotate(90) translate(36 -43)" onmousedown="handlePan(1,0)">
                  <use xlink:href="#rim" fill="#404040">
                        <set attributeName="fill" to="#808080" begin="arrowRight.mouseover" end="arrowRight.mouseout"/>
                  </use>
                  <path fill="none" stroke="white" stroke-width="1.5" d="M0,-3.0v7 M-2.5,-0.5L0,-3.0L2.5,-0.5"/>
                </g>
                <g id="arrowDown" xlink:href="#dirArrow" transform="rotate(180) translate(-30 -48)" onmousedown="handlePan(0,1)">
                  <use xlink:href="#rim" fill="#404040">
                        <set attributeName="fill" to="#808080" begin="arrowDown.mouseover" end="arrowDown.mouseout"/>
                  </use>
                  <path fill="none" stroke="white" stroke-width="1.5" d="M0,-3.0v7 M-2.5,-0.5L0,-3.0L2.5,-0.5"/>
                </g>
                <g id="arrowLeft" xlink:href="#dirArrow" transform="rotate(270) translate(-36 17)" onmousedown="handlePan(-1,0)">
                  <use xlink:href="#rim" fill="#404040">
                        <set attributeName="fill" to="#808080" begin="arrowLeft.mouseover" end="arrowLeft.mouseout"/>
                  </use>
                  <path fill="none" stroke="white" stroke-width="1.5" d="M0,-3.0v7 M-2.5,-0.5L0,-3.0L2.5,-0.5"/>
                </g>
        </g>
        <svg viewBox="0 0 15 15" width="100%" height="30px" preserveAspectRatio="xMaxYMin meet">
         <g id="arrow_out" transform="scale(0.3 0.3)">
          <a xlink:href="structo2_1_1DataFlow_1_1StreamingState__coll__graph_org.svg" target="_base">
           <rect id="button" ry="5" rx="5" y="6" x="6" height="38" width="38"
                fill="#f2f5e9" fill-opacity="0.5" stroke="#606060" stroke-width="1.0"/>
           <path id="arrow"
             d="M 11.500037,31.436501 C 11.940474,20.09759 22.043105,11.32322 32.158766,21.979434 L 37.068811,17.246167 C 37.068811,17.246167 37.088388,32 37.088388,32 L 22.160133,31.978069 C 22.160133,31.978069 26.997745,27.140456 26.997745,27.140456 C 18.528582,18.264221 13.291696,25.230495 11.500037,31.436501 z"
             style="fill:#404040;"/>
          </a>
         </g>
        </svg>
</svg>
