<?xml version="1.0" encoding="UTF-8" standalone="no"?>
<!DOCTYPE svg PUBLIC "-//W3C//DTD SVG 1.1//EN"
 "http://www.w3.org/Graphics/SVG/1.1/DTD/svg11.dtd">
<!-- Generated by graphviz version 2.36.0 (20140111.2315)
 -->
<!-- Title: /home/travis/build/AliceO2Group/AliceO2/Detectors/ITSMFT/ITS/simulation/include/ITSSimulation/V3Layer.h Pages: 1 -->
<svg width="2561pt" height="456pt"
 viewBox="0.00 0.00 2561.00 456.00" xmlns="http://www.w3.org/2000/svg" xmlns:xlink="http://www.w3.org/1999/xlink">
<g id="graph0" class="graph" transform="scale(1 1) rotate(0) translate(4 452)">
<title>/home/travis/build/AliceO2Group/AliceO2/Detectors/ITSMFT/ITS/simulation/include/ITSSimulation/V3Layer.h</title>
<!-- Node1 -->
<g id="node1" class="node"><title>Node1</title>
<polygon fill="#bfbfbf" stroke="black" points="888,-384.5 888,-447.5 1050,-447.5 1050,-384.5 888,-384.5"/>
<text text-anchor="start" x="896" y="-435.5" font-family="Helvetica,sans-Serif" font-size="10.00">/home/travis/build</text>
<text text-anchor="start" x="896" y="-424.5" font-family="Helvetica,sans-Serif" font-size="10.00">/AliceO2Group/AliceO2</text>
<text text-anchor="start" x="896" y="-413.5" font-family="Helvetica,sans-Serif" font-size="10.00">/Detectors/ITSMFT/ITS</text>
<text text-anchor="start" x="896" y="-402.5" font-family="Helvetica,sans-Serif" font-size="10.00">/simulation/include/ITSSimulation</text>
<text text-anchor="middle" x="969" y="-391.5" font-family="Helvetica,sans-Serif" font-size="10.00">/V3Layer.h</text>
</g>
<!-- Node2 -->
<g id="node2" class="node"><title>Node2</title>
<polygon fill="none" stroke="#bfbfbf" points="970,-272.5 970,-291.5 1056,-291.5 1056,-272.5 970,-272.5"/>
<text text-anchor="middle" x="1013" y="-279.5" font-family="Helvetica,sans-Serif" font-size="10.00">TGeoManager.h</text>
</g>
<!-- Node1&#45;&gt;Node2 -->
<g id="edge1" class="edge"><title>Node1&#45;&gt;Node2</title>
<path fill="none" stroke="midnightblue" d="M979.205,-384.385C987.805,-358.584 999.82,-322.541 1006.97,-301.104"/>
<polygon fill="midnightblue" stroke="midnightblue" points="1010.29,-302.204 1010.13,-291.61 1003.65,-299.99 1010.29,-302.204"/>
</g>
<!-- Node3 -->
<g id="node3" class="node"><title>Node3</title>
<polygon fill="none" stroke="#bfbfbf" points="1192,-74.5 1192,-93.5 1248,-93.5 1248,-74.5 1192,-74.5"/>
<text text-anchor="middle" x="1220" y="-81.5" font-family="Helvetica,sans-Serif" font-size="10.00">Rtypes.h</text>
</g>
<!-- Node1&#45;&gt;Node3 -->
<g id="edge2" class="edge"><title>Node1&#45;&gt;Node3</title>
<path fill="none" stroke="midnightblue" d="M959.1,-384.423C951.394,-357.899 942,-318.321 942,-283 942,-283 942,-283 942,-219 942,-99.5428 1069.2,-136.311 1183,-100 1185.63,-99.1599 1188.34,-98.2175 1191.04,-97.2252"/>
<polygon fill="midnightblue" stroke="midnightblue" points="1192.56,-100.389 1200.62,-93.5057 1190.03,-93.8644 1192.56,-100.389"/>
</g>
<!-- Node4 -->
<g id="node4" class="node"><title>Node4</title>
<g id="a_node4"><a xlink:href="../../d1/d2f/V11Geometry_8h.html" target="_top" xlink:title="Definition of the V11Geometry class. ">
<polygon fill="none" stroke="black" points="765.5,-328.5 765.5,-347.5 914.5,-347.5 914.5,-328.5 765.5,-328.5"/>
<text text-anchor="middle" x="840" y="-335.5" font-family="Helvetica,sans-Serif" font-size="10.00">ITSSimulation/V11Geometry.h</text>
</a>
</g>
</g>
<!-- Node1&#45;&gt;Node4 -->
<g id="edge3" class="edge"><title>Node1&#45;&gt;Node4</title>
<path fill="none" stroke="midnightblue" d="M916.903,-384.307C898.432,-373.425 878.552,-361.713 863.632,-352.923"/>
<polygon fill="midnightblue" stroke="midnightblue" points="865.001,-349.667 854.609,-347.607 861.448,-355.698 865.001,-349.667"/>
</g>
<!-- Node7 -->
<g id="node7" class="node"><title>Node7</title>
<g id="a_node7"><a xlink:href="../../d6/d8d/ITSMFT_2ITS_2simulation_2include_2ITSSimulation_2Detector_8h.html" target="_top" xlink:title="ITSSimulation/Detector.h">
<polygon fill="none" stroke="black" points="1304.5,-328.5 1304.5,-347.5 1431.5,-347.5 1431.5,-328.5 1304.5,-328.5"/>
<text text-anchor="middle" x="1368" y="-335.5" font-family="Helvetica,sans-Serif" font-size="10.00">ITSSimulation/Detector.h</text>
</a>
</g>
</g>
<!-- Node1&#45;&gt;Node7 -->
<g id="edge7" class="edge"><title>Node1&#45;&gt;Node7</title>
<path fill="none" stroke="midnightblue" d="M1050.22,-399.529C1128.57,-384.605 1245.01,-362.427 1313.04,-349.469"/>
<polygon fill="midnightblue" stroke="midnightblue" points="1313.95,-352.858 1323.12,-347.548 1312.64,-345.981 1313.95,-352.858"/>
</g>
<!-- Node4&#45;&gt;Node3 -->
<g id="edge6" class="edge"><title>Node4&#45;&gt;Node3</title>
<path fill="none" stroke="midnightblue" d="M849.605,-328.211C858.376,-319.711 871.138,-306.081 879,-292 914.428,-228.547 872.574,-183.003 928,-136 971.647,-98.9859 1127.73,-114.862 1183,-100 1185.98,-99.1979 1189.05,-98.2205 1192.08,-97.1531"/>
<polygon fill="midnightblue" stroke="midnightblue" points="1193.4,-100.394 1201.48,-93.5417 1190.89,-93.8589 1193.4,-100.394"/>
</g>
<!-- Node5 -->
<g id="node5" class="node"><title>Node5</title>
<polygon fill="none" stroke="#bfbfbf" points="817.5,-272.5 817.5,-291.5 870.5,-291.5 870.5,-272.5 817.5,-272.5"/>
<text text-anchor="middle" x="844" y="-279.5" font-family="Helvetica,sans-Serif" font-size="10.00">TMath.h</text>
</g>
<!-- Node4&#45;&gt;Node5 -->
<g id="edge4" class="edge"><title>Node4&#45;&gt;Node5</title>
<path fill="none" stroke="midnightblue" d="M840.661,-328.083C841.185,-321.006 841.936,-310.861 842.594,-301.986"/>
<polygon fill="midnightblue" stroke="midnightblue" points="846.103,-301.982 843.352,-291.751 839.123,-301.465 846.103,-301.982"/>
</g>
<!-- Node6 -->
<g id="node6" class="node"><title>Node6</title>
<polygon fill="none" stroke="#bfbfbf" points="740.5,-272.5 740.5,-291.5 799.5,-291.5 799.5,-272.5 740.5,-272.5"/>
<text text-anchor="middle" x="770" y="-279.5" font-family="Helvetica,sans-Serif" font-size="10.00">TObject.h</text>
</g>
<!-- Node4&#45;&gt;Node6 -->
<g id="edge5" class="edge"><title>Node4&#45;&gt;Node6</title>
<path fill="none" stroke="midnightblue" d="M828.753,-328.324C818.203,-320.185 802.199,-307.839 789.558,-298.087"/>
<polygon fill="midnightblue" stroke="midnightblue" points="791.507,-295.171 781.451,-291.834 787.231,-300.713 791.507,-295.171"/>
</g>
<!-- Node7&#45;&gt;Node2 -->
<g id="edge54" class="edge"><title>Node7&#45;&gt;Node2</title>
<path fill="none" stroke="midnightblue" d="M1307.57,-328.46C1248.58,-320.024 1156,-306.526 1066.2,-292.163"/>
<polygon fill="midnightblue" stroke="midnightblue" points="1066.55,-288.673 1056.12,-290.544 1065.44,-295.585 1066.55,-288.673"/>
</g>
<!-- Node7&#45;&gt;Node3 -->
<g id="edge52" class="edge"><title>Node7&#45;&gt;Node3</title>
<path fill="none" stroke="midnightblue" d="M1361.42,-328.338C1348.53,-311.183 1319.33,-271.469 1298,-236 1269.97,-189.383 1241.86,-131.597 1228.32,-102.905"/>
<polygon fill="midnightblue" stroke="midnightblue" points="1231.43,-101.296 1224.02,-93.7257 1225.09,-104.266 1231.43,-101.296"/>
</g>
<!-- Node8 -->
<g id="node8" class="node"><title>Node8</title>
<g id="a_node8"><a xlink:href="../../d1/d3a/Base_2include_2DetectorsBase_2Detector_8h.html" target="_top" xlink:title="DetectorsBase/Detector.h">
<polygon fill="none" stroke="black" points="2001.5,-272.5 2001.5,-291.5 2132.5,-291.5 2132.5,-272.5 2001.5,-272.5"/>
<text text-anchor="middle" x="2067" y="-279.5" font-family="Helvetica,sans-Serif" font-size="10.00">DetectorsBase/Detector.h</text>
</a>
</g>
</g>
<!-- Node7&#45;&gt;Node8 -->
<g id="edge8" class="edge"><title>Node7&#45;&gt;Node8</title>
<path fill="none" stroke="midnightblue" d="M1431.57,-332.089C1560.61,-322.12 1852.71,-299.554 1991.3,-288.848"/>
<polygon fill="midnightblue" stroke="midnightblue" points="1991.71,-292.327 2001.41,-288.067 1991.17,-285.347 1991.71,-292.327"/>
</g>
<!-- Node10 -->
<g id="node10" class="node"><title>Node10</title>
<polygon fill="none" stroke="#bfbfbf" points="2509,-210.5 2509,-229.5 2553,-229.5 2553,-210.5 2509,-210.5"/>
<text text-anchor="middle" x="2531" y="-217.5" font-family="Helvetica,sans-Serif" font-size="10.00">vector</text>
</g>
<!-- Node7&#45;&gt;Node10 -->
<g id="edge57" class="edge"><title>Node7&#45;&gt;Node10</title>
<path fill="none" stroke="midnightblue" d="M1431.55,-335.387C1563.88,-331.57 1878.52,-320.103 2141,-292 2301.13,-274.856 2344.99,-283.092 2499,-236 2501.28,-235.304 2503.6,-234.474 2505.9,-233.567"/>
<polygon fill="midnightblue" stroke="midnightblue" points="2507.32,-236.767 2515.07,-229.548 2504.51,-230.355 2507.32,-236.767"/>
</g>
<!-- Node19 -->
<g id="node19" class="node"><title>Node19</title>
<g id="a_node19"><a xlink:href="../../d6/d31/DetID_8h.html" target="_top" xlink:title="DetectorsBase/DetID.h">
<polygon fill="none" stroke="black" points="1368.5,-272.5 1368.5,-291.5 1487.5,-291.5 1487.5,-272.5 1368.5,-272.5"/>
<text text-anchor="middle" x="1428" y="-279.5" font-family="Helvetica,sans-Serif" font-size="10.00">DetectorsBase/DetID.h</text>
</a>
</g>
</g>
<!-- Node7&#45;&gt;Node19 -->
<g id="edge22" class="edge"><title>Node7&#45;&gt;Node19</title>
<path fill="none" stroke="midnightblue" d="M1377.64,-328.324C1386.51,-320.341 1399.87,-308.313 1410.61,-298.653"/>
<polygon fill="midnightblue" stroke="midnightblue" points="1413.09,-301.125 1418.18,-291.834 1408.41,-295.922 1413.09,-301.125"/>
</g>
<!-- Node27 -->
<g id="node27" class="node"><title>Node27</title>
<g id="a_node27"><a xlink:href="../../d0/dae/ITSMFT_2common_2simulation_2include_2ITSMFTSimulation_2Hit_8h.html" target="_top" xlink:title="ITSMFTSimulation/Hit.h">
<polygon fill="none" stroke="black" points="1074,-272.5 1074,-291.5 1196,-291.5 1196,-272.5 1074,-272.5"/>
<text text-anchor="middle" x="1135" y="-279.5" font-family="Helvetica,sans-Serif" font-size="10.00">ITSMFTSimulation/Hit.h</text>
</a>
</g>
</g>
<!-- Node7&#45;&gt;Node27 -->
<g id="edge33" class="edge"><title>Node7&#45;&gt;Node27</title>
<path fill="none" stroke="midnightblue" d="M1331.08,-328.444C1290.6,-319.063 1225.58,-303.993 1181.62,-293.804"/>
<polygon fill="midnightblue" stroke="midnightblue" points="1182.28,-290.365 1171.75,-291.516 1180.7,-297.184 1182.28,-290.365"/>
</g>
<!-- Node41 -->
<g id="node41" class="node"><title>Node41</title>
<polygon fill="none" stroke="#bfbfbf" points="1163.5,-210.5 1163.5,-229.5 1228.5,-229.5 1228.5,-210.5 1163.5,-210.5"/>
<text text-anchor="middle" x="1196" y="-217.5" font-family="Helvetica,sans-Serif" font-size="10.00">TVector3.h</text>
</g>
<!-- Node7&#45;&gt;Node41 -->
<g id="edge56" class="edge"><title>Node7&#45;&gt;Node41</title>
<path fill="none" stroke="midnightblue" d="M1328.68,-328.43C1303.76,-321.584 1271.85,-310.08 1248,-292 1229.04,-277.629 1213.91,-254.478 1204.96,-238.541"/>
<polygon fill="midnightblue" stroke="midnightblue" points="1208.03,-236.848 1200.21,-229.694 1201.86,-240.16 1208.03,-236.848"/>
</g>
<!-- Node42 -->
<g id="node42" class="node"><title>Node42</title>
<polygon fill="none" stroke="#bfbfbf" points="1506,-272.5 1506,-291.5 1568,-291.5 1568,-272.5 1506,-272.5"/>
<text text-anchor="middle" x="1537" y="-279.5" font-family="Helvetica,sans-Serif" font-size="10.00">TArrayD.h</text>
</g>
<!-- Node7&#45;&gt;Node42 -->
<g id="edge53" class="edge"><title>Node7&#45;&gt;Node42</title>
<path fill="none" stroke="midnightblue" d="M1394.78,-328.444C1423.33,-319.32 1468.73,-304.813 1500.54,-294.651"/>
<polygon fill="midnightblue" stroke="midnightblue" points="1501.89,-297.894 1510.35,-291.516 1499.76,-291.226 1501.89,-297.894"/>
</g>
<!-- Node43 -->
<g id="node43" class="node"><title>Node43</title>
<polygon fill="none" stroke="#bfbfbf" points="1586,-272.5 1586,-291.5 1678,-291.5 1678,-272.5 1586,-272.5"/>
<text text-anchor="middle" x="1632" y="-279.5" font-family="Helvetica,sans-Serif" font-size="10.00">TLorentzVector.h</text>
</g>
<!-- Node7&#45;&gt;Node43 -->
<g id="edge55" class="edge"><title>Node7&#45;&gt;Node43</title>
<path fill="none" stroke="midnightblue" d="M1409.83,-328.444C1456.08,-318.984 1530.61,-303.738 1580.44,-293.547"/>
<polygon fill="midnightblue" stroke="midnightblue" points="1581.27,-296.949 1590.36,-291.516 1579.87,-290.091 1581.27,-296.949"/>
</g>
<!-- Node8&#45;&gt;Node3 -->
<g id="edge17" class="edge"><title>Node8&#45;&gt;Node3</title>
<path fill="none" stroke="midnightblue" d="M2001.46,-279.787C1943.94,-276.547 1859.22,-266.397 1792,-236 1771.57,-226.762 1772.17,-215.636 1753,-204 1687.3,-164.114 1668.08,-156.488 1594,-136 1474.39,-102.92 1327.09,-90.8733 1258.51,-86.8434"/>
<polygon fill="midnightblue" stroke="midnightblue" points="1258.38,-83.3305 1248.2,-86.2635 1257.99,-90.3194 1258.38,-83.3305"/>
</g>
<!-- Node9 -->
<g id="node9" class="node"><title>Node9</title>
<polygon fill="none" stroke="#bfbfbf" points="2295.5,-142.5 2295.5,-161.5 2330.5,-161.5 2330.5,-142.5 2295.5,-142.5"/>
<text text-anchor="middle" x="2313" y="-149.5" font-family="Helvetica,sans-Serif" font-size="10.00">map</text>
</g>
<!-- Node8&#45;&gt;Node9 -->
<g id="edge9" class="edge"><title>Node8&#45;&gt;Node9</title>
<path fill="none" stroke="midnightblue" d="M2132.75,-273.538C2185.84,-266.331 2255.19,-253.869 2277,-236 2296.81,-219.775 2305.99,-190.56 2310.04,-171.477"/>
<polygon fill="midnightblue" stroke="midnightblue" points="2313.49,-172.057 2311.88,-161.586 2306.61,-170.778 2313.49,-172.057"/>
</g>
<!-- Node8&#45;&gt;Node10 -->
<g id="edge10" class="edge"><title>Node8&#45;&gt;Node10</title>
<path fill="none" stroke="midnightblue" d="M2132.66,-280.92C2218.44,-279.295 2372.58,-271.131 2499,-236 2501.34,-235.349 2503.73,-234.539 2506.09,-233.636"/>
<polygon fill="midnightblue" stroke="midnightblue" points="2507.68,-236.762 2515.45,-229.563 2504.88,-230.343 2507.68,-236.762"/>
</g>
<!-- Node11 -->
<g id="node11" class="node"><title>Node11</title>
<polygon fill="none" stroke="#bfbfbf" points="1801,-210.5 1801,-229.5 1853,-229.5 1853,-210.5 1801,-210.5"/>
<text text-anchor="middle" x="1827" y="-217.5" font-family="Helvetica,sans-Serif" font-size="10.00">memory</text>
</g>
<!-- Node8&#45;&gt;Node11 -->
<g id="edge11" class="edge"><title>Node8&#45;&gt;Node11</title>
<path fill="none" stroke="midnightblue" d="M2016.46,-272.441C1974.78,-264.766 1914.36,-252.222 1863,-236 1860.43,-235.187 1857.78,-234.263 1855.15,-233.283"/>
<polygon fill="midnightblue" stroke="midnightblue" points="1856.41,-230.018 1845.82,-229.583 1853.83,-236.524 1856.41,-230.018"/>
</g>
<!-- Node12 -->
<g id="node12" class="node"><title>Node12</title>
<polygon fill="none" stroke="#bfbfbf" points="1871.5,-210.5 1871.5,-229.5 1950.5,-229.5 1950.5,-210.5 1871.5,-210.5"/>
<text text-anchor="middle" x="1911" y="-217.5" font-family="Helvetica,sans-Serif" font-size="10.00">FairDetector.h</text>
</g>
<!-- Node8&#45;&gt;Node12 -->
<g id="edge12" class="edge"><title>Node8&#45;&gt;Node12</title>
<path fill="none" stroke="midnightblue" d="M2044.65,-272.403C2018.01,-262.156 1973.29,-244.956 1942.99,-233.302"/>
<polygon fill="midnightblue" stroke="midnightblue" points="1943.9,-229.904 1933.31,-229.581 1941.39,-236.437 1943.9,-229.904"/>
</g>
<!-- Node13 -->
<g id="node13" class="node"><title>Node13</title>
<polygon fill="none" stroke="#bfbfbf" points="1969,-210.5 1969,-229.5 2069,-229.5 2069,-210.5 1969,-210.5"/>
<text text-anchor="middle" x="2019" y="-217.5" font-family="Helvetica,sans-Serif" font-size="10.00">FairRootManager.h</text>
</g>
<!-- Node8&#45;&gt;Node13 -->
<g id="edge13" class="edge"><title>Node8&#45;&gt;Node13</title>
<path fill="none" stroke="midnightblue" d="M2060.12,-272.403C2052.85,-263.314 2041.2,-248.756 2032.16,-237.449"/>
<polygon fill="midnightblue" stroke="midnightblue" points="2034.84,-235.203 2025.86,-229.581 2029.38,-239.576 2034.84,-235.203"/>
</g>
<!-- Node14 -->
<g id="node14" class="node"><title>Node14</title>
<g id="a_node14"><a xlink:href="../../d0/d9a/MaterialManager_8h.html" target="_top" xlink:title="DetectorsBase/MaterialManager.h">
<polygon fill="none" stroke="black" points="2325.5,-210.5 2325.5,-229.5 2490.5,-229.5 2490.5,-210.5 2325.5,-210.5"/>
<text text-anchor="middle" x="2408" y="-217.5" font-family="Helvetica,sans-Serif" font-size="10.00">DetectorsBase/MaterialManager.h</text>
</a>
</g>
</g>
<!-- Node8&#45;&gt;Node14 -->
<g id="edge14" class="edge"><title>Node8&#45;&gt;Node14</title>
<path fill="none" stroke="midnightblue" d="M2115.49,-272.467C2177.11,-261.626 2283.35,-242.932 2349.43,-231.306"/>
<polygon fill="midnightblue" stroke="midnightblue" points="2350.43,-234.683 2359.67,-229.503 2349.22,-227.789 2350.43,-234.683"/>
</g>
<!-- Node15 -->
<g id="node15" class="node"><title>Node15</title>
<polygon fill="none" stroke="#bfbfbf" points="2087.5,-210.5 2087.5,-229.5 2140.5,-229.5 2140.5,-210.5 2087.5,-210.5"/>
<text text-anchor="middle" x="2114" y="-217.5" font-family="Helvetica,sans-Serif" font-size="10.00">cxxabi.h</text>
</g>
<!-- Node8&#45;&gt;Node15 -->
<g id="edge18" class="edge"><title>Node8&#45;&gt;Node15</title>
<path fill="none" stroke="midnightblue" d="M2073.73,-272.403C2080.78,-263.403 2092.03,-249.041 2100.85,-237.782"/>
<polygon fill="midnightblue" stroke="midnightblue" points="2103.87,-239.611 2107.28,-229.581 2098.36,-235.295 2103.87,-239.611"/>
</g>
<!-- Node16 -->
<g id="node16" class="node"><title>Node16</title>
<polygon fill="none" stroke="#bfbfbf" points="2158.5,-210.5 2158.5,-229.5 2209.5,-229.5 2209.5,-210.5 2158.5,-210.5"/>
<text text-anchor="middle" x="2184" y="-217.5" font-family="Helvetica,sans-Serif" font-size="10.00">typeinfo</text>
</g>
<!-- Node8&#45;&gt;Node16 -->
<g id="edge19" class="edge"><title>Node8&#45;&gt;Node16</title>
<path fill="none" stroke="midnightblue" d="M2083.76,-272.403C2103.22,-262.423 2135.55,-245.849 2158.21,-234.225"/>
<polygon fill="midnightblue" stroke="midnightblue" points="2159.97,-237.258 2167.27,-229.581 2156.77,-231.029 2159.97,-237.258"/>
</g>
<!-- Node17 -->
<g id="node17" class="node"><title>Node17</title>
<polygon fill="none" stroke="#bfbfbf" points="1683,-210.5 1683,-229.5 1745,-229.5 1745,-210.5 1683,-210.5"/>
<text text-anchor="middle" x="1714" y="-217.5" font-family="Helvetica,sans-Serif" font-size="10.00">type_traits</text>
</g>
<!-- Node8&#45;&gt;Node17 -->
<g id="edge20" class="edge"><title>Node8&#45;&gt;Node17</title>
<path fill="none" stroke="midnightblue" d="M2001.47,-274.82C1938.68,-268.103 1841.54,-255.624 1759,-236 1755.06,-235.062 1750.97,-233.931 1746.93,-232.715"/>
<polygon fill="midnightblue" stroke="midnightblue" points="1747.72,-229.293 1737.13,-229.579 1745.59,-235.96 1747.72,-229.293"/>
</g>
<!-- Node18 -->
<g id="node18" class="node"><title>Node18</title>
<polygon fill="none" stroke="#bfbfbf" points="2227.5,-210.5 2227.5,-229.5 2268.5,-229.5 2268.5,-210.5 2227.5,-210.5"/>
<text text-anchor="middle" x="2248" y="-217.5" font-family="Helvetica,sans-Serif" font-size="10.00">string</text>
</g>
<!-- Node8&#45;&gt;Node18 -->
<g id="edge21" class="edge"><title>Node8&#45;&gt;Node18</title>
<path fill="none" stroke="midnightblue" d="M2101.76,-272.484C2132.75,-264.46 2179.08,-251.393 2218,-236 2219.6,-235.367 2221.23,-234.68 2222.87,-233.96"/>
<polygon fill="midnightblue" stroke="midnightblue" points="2224.5,-237.06 2232.04,-229.622 2221.51,-230.731 2224.5,-237.06"/>
</g>
<!-- Node14&#45;&gt;Node3 -->
<g id="edge15" class="edge"><title>Node14&#45;&gt;Node3</title>
<path fill="none" stroke="midnightblue" d="M2403.96,-210.425C2395.1,-192.726 2372.06,-152.435 2339,-136 2240.56,-87.0591 1443.06,-84.7856 1258.17,-84.9219"/>
<polygon fill="midnightblue" stroke="midnightblue" points="1258.11,-81.4218 1248.11,-84.9322 1258.11,-88.4218 1258.11,-81.4218"/>
</g>
<!-- Node14&#45;&gt;Node9 -->
<g id="edge16" class="edge"><title>Node14&#45;&gt;Node9</title>
<path fill="none" stroke="midnightblue" d="M2395.58,-210.372C2379.86,-199.452 2352.57,-180.489 2333.68,-167.369"/>
<polygon fill="midnightblue" stroke="midnightblue" points="2335.63,-164.462 2325.42,-161.63 2331.64,-170.21 2335.63,-164.462"/>
</g>
<!-- Node19&#45;&gt;Node3 -->
<g id="edge23" class="edge"><title>Node19&#45;&gt;Node3</title>
<path fill="none" stroke="midnightblue" d="M1484.53,-272.48C1542.79,-263.127 1626.43,-247.861 1636,-236 1644.93,-224.931 1642.23,-216.783 1636,-204 1614.49,-159.888 1594.04,-155.5 1549,-136 1450.47,-93.3399 1321.71,-85.7369 1258.47,-84.7764"/>
<polygon fill="midnightblue" stroke="midnightblue" points="1258.2,-81.2736 1248.17,-84.671 1258.13,-88.2733 1258.2,-81.2736"/>
</g>
<!-- Node19&#45;&gt;Node17 -->
<g id="edge28" class="edge"><title>Node19&#45;&gt;Node17</title>
<path fill="none" stroke="midnightblue" d="M1485.95,-272.469C1535.07,-264.693 1607.19,-251.992 1669,-236 1672.84,-235.007 1676.82,-233.858 1680.76,-232.645"/>
<polygon fill="midnightblue" stroke="midnightblue" points="1681.91,-235.952 1690.36,-229.556 1679.77,-229.288 1681.91,-235.952"/>
</g>
<!-- Node20 -->
<g id="node20" class="node"><title>Node20</title>
<polygon fill="none" stroke="#bfbfbf" points="1285,-142.5 1285,-161.5 1323,-161.5 1323,-142.5 1285,-142.5"/>
<text text-anchor="middle" x="1304" y="-149.5" font-family="Helvetica,sans-Serif" font-size="10.00">array</text>
</g>
<!-- Node19&#45;&gt;Node20 -->
<g id="edge24" class="edge"><title>Node19&#45;&gt;Node20</title>
<path fill="none" stroke="midnightblue" d="M1375.07,-272.464C1352.84,-266.129 1328.76,-255.117 1314,-236 1299.9,-217.732 1299.46,-190.138 1301.15,-171.85"/>
<polygon fill="midnightblue" stroke="midnightblue" points="1304.63,-172.183 1302.37,-161.833 1297.68,-171.334 1304.63,-172.183"/>
</g>
<!-- Node21 -->
<g id="node21" class="node"><title>Node21</title>
<polygon fill="none" stroke="#bfbfbf" points="1454.5,-210.5 1454.5,-229.5 1495.5,-229.5 1495.5,-210.5 1454.5,-210.5"/>
<text text-anchor="middle" x="1475" y="-217.5" font-family="Helvetica,sans-Serif" font-size="10.00">bitset</text>
</g>
<!-- Node19&#45;&gt;Node21 -->
<g id="edge25" class="edge"><title>Node19&#45;&gt;Node21</title>
<path fill="none" stroke="midnightblue" d="M1434.73,-272.403C1441.78,-263.403 1453.03,-249.041 1461.85,-237.782"/>
<polygon fill="midnightblue" stroke="midnightblue" points="1464.87,-239.611 1468.28,-229.581 1459.36,-235.295 1464.87,-239.611"/>
</g>
<!-- Node22 -->
<g id="node22" class="node"><title>Node22</title>
<polygon fill="none" stroke="#bfbfbf" points="1513.5,-210.5 1513.5,-229.5 1562.5,-229.5 1562.5,-210.5 1513.5,-210.5"/>
<text text-anchor="middle" x="1538" y="-217.5" font-family="Helvetica,sans-Serif" font-size="10.00">cassert</text>
</g>
<!-- Node19&#45;&gt;Node22 -->
<g id="edge26" class="edge"><title>Node19&#45;&gt;Node22</title>
<path fill="none" stroke="midnightblue" d="M1443.76,-272.403C1461.98,-262.468 1492.17,-245.997 1513.47,-234.381"/>
<polygon fill="midnightblue" stroke="midnightblue" points="1515.17,-237.442 1522.27,-229.581 1511.81,-231.297 1515.17,-237.442"/>
</g>
<!-- Node23 -->
<g id="node23" class="node"><title>Node23</title>
<polygon fill="none" stroke="#bfbfbf" points="1581,-210.5 1581,-229.5 1627,-229.5 1627,-210.5 1581,-210.5"/>
<text text-anchor="middle" x="1604" y="-217.5" font-family="Helvetica,sans-Serif" font-size="10.00">cstdint</text>
</g>
<!-- Node19&#45;&gt;Node23 -->
<g id="edge27" class="edge"><title>Node19&#45;&gt;Node23</title>
<path fill="none" stroke="midnightblue" d="M1458.78,-272.493C1487.99,-264.142 1532.96,-250.568 1571,-236 1572.85,-235.291 1574.75,-234.529 1576.65,-233.739"/>
<polygon fill="midnightblue" stroke="midnightblue" points="1578.25,-236.86 1586.01,-229.654 1575.45,-230.444 1578.25,-236.86"/>
</g>
<!-- Node24 -->
<g id="node24" class="node"><title>Node24</title>
<g id="a_node24"><a xlink:href="../../d9/ded/Utils_8h.html" target="_top" xlink:title="DetectorsBase/Utils.h">
<polygon fill="none" stroke="black" points="1323.5,-210.5 1323.5,-229.5 1436.5,-229.5 1436.5,-210.5 1323.5,-210.5"/>
<text text-anchor="middle" x="1380" y="-217.5" font-family="Helvetica,sans-Serif" font-size="10.00">DetectorsBase/Utils.h</text>
</a>
</g>
</g>
<!-- Node19&#45;&gt;Node24 -->
<g id="edge29" class="edge"><title>Node19&#45;&gt;Node24</title>
<path fill="none" stroke="midnightblue" d="M1421.12,-272.403C1413.85,-263.314 1402.2,-248.756 1393.16,-237.449"/>
<polygon fill="midnightblue" stroke="midnightblue" points="1395.84,-235.203 1386.86,-229.581 1390.38,-239.576 1395.84,-235.203"/>
</g>
<!-- Node24&#45;&gt;Node20 -->
<g id="edge32" class="edge"><title>Node24&#45;&gt;Node20</title>
<path fill="none" stroke="midnightblue" d="M1370.06,-210.372C1357.84,-199.758 1336.87,-181.545 1321.83,-168.485"/>
<polygon fill="midnightblue" stroke="midnightblue" points="1324.03,-165.755 1314.18,-161.841 1319.44,-171.041 1324.03,-165.755"/>
</g>
<!-- Node25 -->
<g id="node25" class="node"><title>Node25</title>
<g id="a_node25"><a xlink:href="../../d1/daa/Base_2include_2DetectorsBase_2Constants_8h.html" target="_top" xlink:title="DetectorsBase/Constants.h">
<polygon fill="none" stroke="black" points="1341,-142.5 1341,-161.5 1479,-161.5 1479,-142.5 1341,-142.5"/>
<text text-anchor="middle" x="1410" y="-149.5" font-family="Helvetica,sans-Serif" font-size="10.00">DetectorsBase/Constants.h</text>
</a>
</g>
</g>
<!-- Node24&#45;&gt;Node25 -->
<g id="edge30" class="edge"><title>Node24&#45;&gt;Node25</title>
<path fill="none" stroke="midnightblue" d="M1383.92,-210.372C1388.43,-200.446 1395.97,-183.874 1401.78,-171.086"/>
<polygon fill="midnightblue" stroke="midnightblue" points="1405.03,-172.393 1405.98,-161.841 1398.66,-169.496 1405.03,-172.393"/>
</g>
<!-- Node26 -->
<g id="node26" class="node"><title>Node26</title>
<polygon fill="none" stroke="#bfbfbf" points="1497,-142.5 1497,-161.5 1541,-161.5 1541,-142.5 1497,-142.5"/>
<text text-anchor="middle" x="1519" y="-149.5" font-family="Helvetica,sans-Serif" font-size="10.00">cmath</text>
</g>
<!-- Node24&#45;&gt;Node26 -->
<g id="edge31" class="edge"><title>Node24&#45;&gt;Node26</title>
<path fill="none" stroke="midnightblue" d="M1398.37,-210.39C1419.88,-200.293 1456.57,-183.024 1488,-168 1489.35,-167.355 1490.73,-166.694 1492.12,-166.024"/>
<polygon fill="midnightblue" stroke="midnightblue" points="1493.82,-169.091 1501.31,-161.596 1490.78,-162.786 1493.82,-169.091"/>
</g>
<!-- Node27&#45;&gt;Node3 -->
<g id="edge49" class="edge"><title>Node27&#45;&gt;Node3</title>
<path fill="none" stroke="midnightblue" d="M1136.39,-272.224C1138.85,-257.684 1144.64,-227.839 1154,-204 1169.03,-165.71 1194.15,-124.454 1208.68,-101.981"/>
<polygon fill="midnightblue" stroke="midnightblue" points="1211.64,-103.845 1214.2,-93.5631 1205.79,-100.008 1211.64,-103.845"/>
</g>
<!-- Node28 -->
<g id="node28" class="node"><title>Node28</title>
<g id="a_node28"><a xlink:href="../../d4/d25/BaseHits_8h.html" target="_top" xlink:title="SimulationDataFormat\l/BaseHits.h">
<polygon fill="none" stroke="black" points="714,-205 714,-235 828,-235 828,-205 714,-205"/>
<text text-anchor="start" x="722" y="-223" font-family="Helvetica,sans-Serif" font-size="10.00">SimulationDataFormat</text>
<text text-anchor="middle" x="771" y="-212" font-family="Helvetica,sans-Serif" font-size="10.00">/BaseHits.h</text>
</a>
</g>
</g>
<!-- Node27&#45;&gt;Node28 -->
<g id="edge34" class="edge"><title>Node27&#45;&gt;Node28</title>
<path fill="none" stroke="midnightblue" d="M1083.23,-272.467C1018.97,-261.875 909.224,-243.784 838.438,-232.116"/>
<polygon fill="midnightblue" stroke="midnightblue" points="838.723,-228.616 828.287,-230.443 837.584,-235.523 838.723,-228.616"/>
</g>
<!-- Node39 -->
<g id="node39" class="node"><title>Node39</title>
<polygon fill="none" stroke="#bfbfbf" points="1120,-74.5 1120,-93.5 1174,-93.5 1174,-74.5 1120,-74.5"/>
<text text-anchor="middle" x="1147" y="-81.5" font-family="Helvetica,sans-Serif" font-size="10.00">iostream</text>
</g>
<!-- Node27&#45;&gt;Node39 -->
<g id="edge51" class="edge"><title>Node27&#45;&gt;Node39</title>
<path fill="none" stroke="midnightblue" d="M1120.13,-272.361C1083.86,-250.171 996.287,-189.181 1031,-136 1032.28,-134.035 1083.4,-112.026 1117.35,-97.5704"/>
<polygon fill="midnightblue" stroke="midnightblue" points="1119,-100.671 1126.83,-93.5367 1116.26,-94.2293 1119,-100.671"/>
</g>
<!-- Node40 -->
<g id="node40" class="node"><title>Node40</title>
<g id="a_node40"><a xlink:href="../../d7/dcd/MCCompLabel_8h.html" target="_top" xlink:title="SimulationDataFormat\l/MCCompLabel.h">
<polygon fill="none" stroke="black" points="1040,-137 1040,-167 1154,-167 1154,-137 1040,-137"/>
<text text-anchor="start" x="1048" y="-155" font-family="Helvetica,sans-Serif" font-size="10.00">SimulationDataFormat</text>
<text text-anchor="middle" x="1097" y="-144" font-family="Helvetica,sans-Serif" font-size="10.00">/MCCompLabel.h</text>
</a>
</g>
</g>
<!-- Node27&#45;&gt;Node40 -->
<g id="edge47" class="edge"><title>Node27&#45;&gt;Node40</title>
<path fill="none" stroke="midnightblue" d="M1132.26,-272.389C1129.4,-263.343 1124.81,-248.695 1121,-236 1115.06,-216.2 1108.56,-193.665 1103.82,-177.077"/>
<polygon fill="midnightblue" stroke="midnightblue" points="1107.09,-175.784 1100.99,-167.124 1100.36,-177.7 1107.09,-175.784"/>
</g>
<!-- Node27&#45;&gt;Node41 -->
<g id="edge50" class="edge"><title>Node27&#45;&gt;Node41</title>
<path fill="none" stroke="midnightblue" d="M1143.74,-272.403C1153.16,-263.136 1168.36,-248.183 1179.95,-236.788"/>
<polygon fill="midnightblue" stroke="midnightblue" points="1182.6,-239.088 1187.28,-229.581 1177.69,-234.098 1182.6,-239.088"/>
</g>
<!-- Node29 -->
<g id="node29" class="node"><title>Node29</title>
<g id="a_node29"><a xlink:href="../../dd/d76/Cartesian3D_8h.html" target="_top" xlink:title="MathUtils/Cartesian3D.h">
<polygon fill="none" stroke="black" points="656.5,-142.5 656.5,-161.5 781.5,-161.5 781.5,-142.5 656.5,-142.5"/>
<text text-anchor="middle" x="719" y="-149.5" font-family="Helvetica,sans-Serif" font-size="10.00">MathUtils/Cartesian3D.h</text>
</a>
</g>
</g>
<!-- Node28&#45;&gt;Node29 -->
<g id="edge35" class="edge"><title>Node28&#45;&gt;Node29</title>
<path fill="none" stroke="midnightblue" d="M759.717,-204.679C751.609,-194.388 740.654,-180.484 732.149,-169.69"/>
<polygon fill="midnightblue" stroke="midnightblue" points="734.894,-167.517 725.956,-161.828 729.395,-171.849 734.894,-167.517"/>
</g>
<!-- Node29&#45;&gt;Node3 -->
<g id="edge39" class="edge"><title>Node29&#45;&gt;Node3</title>
<path fill="none" stroke="midnightblue" d="M781.669,-145.081C899.346,-133.824 1144.99,-109.597 1183,-100 1186.06,-99.2274 1189.2,-98.2552 1192.3,-97.1787"/>
<polygon fill="midnightblue" stroke="midnightblue" points="1193.81,-100.349 1201.89,-93.5018 1191.3,-93.8131 1193.81,-100.349"/>
</g>
<!-- Node30 -->
<g id="node30" class="node"><title>Node30</title>
<polygon fill="none" stroke="#bfbfbf" points="600.5,-74.5 600.5,-93.5 749.5,-93.5 749.5,-74.5 600.5,-74.5"/>
<text text-anchor="middle" x="675" y="-81.5" font-family="Helvetica,sans-Serif" font-size="10.00">Math/GenVector/Rotation3D.h</text>
</g>
<!-- Node29&#45;&gt;Node30 -->
<g id="edge36" class="edge"><title>Node29&#45;&gt;Node30</title>
<path fill="none" stroke="midnightblue" d="M713.248,-142.372C706.5,-132.25 695.144,-115.215 686.554,-102.331"/>
<polygon fill="midnightblue" stroke="midnightblue" points="689.353,-100.22 680.894,-93.8411 683.529,-104.103 689.353,-100.22"/>
</g>
<!-- Node31 -->
<g id="node31" class="node"><title>Node31</title>
<polygon fill="none" stroke="#bfbfbf" points="768,-74.5 768,-93.5 924,-93.5 924,-74.5 768,-74.5"/>
<text text-anchor="middle" x="846" y="-81.5" font-family="Helvetica,sans-Serif" font-size="10.00">Math/GenVector/Transform3D.h</text>
</g>
<!-- Node29&#45;&gt;Node31 -->
<g id="edge37" class="edge"><title>Node29&#45;&gt;Node31</title>
<path fill="none" stroke="midnightblue" d="M735.603,-142.372C757.185,-131.156 795.098,-111.453 820.381,-98.3136"/>
<polygon fill="midnightblue" stroke="midnightblue" points="822.134,-101.348 829.393,-93.6305 818.906,-95.1362 822.134,-101.348"/>
</g>
<!-- Node32 -->
<g id="node32" class="node"><title>Node32</title>
<polygon fill="none" stroke="#bfbfbf" points="942,-74.5 942,-93.5 1102,-93.5 1102,-74.5 942,-74.5"/>
<text text-anchor="middle" x="1022" y="-81.5" font-family="Helvetica,sans-Serif" font-size="10.00">Math/GenVector/Translation3D.h</text>
</g>
<!-- Node29&#45;&gt;Node32 -->
<g id="edge38" class="edge"><title>Node29&#45;&gt;Node32</title>
<path fill="none" stroke="midnightblue" d="M758.301,-142.439C813.248,-130.471 912.992,-108.744 972.805,-95.7158"/>
<polygon fill="midnightblue" stroke="midnightblue" points="973.742,-99.0937 982.768,-93.5455 972.252,-92.2541 973.742,-99.0937"/>
</g>
<!-- Node33 -->
<g id="node33" class="node"><title>Node33</title>
<polygon fill="none" stroke="#bfbfbf" points="0,-74.5 0,-93.5 76,-93.5 76,-74.5 0,-74.5"/>
<text text-anchor="middle" x="38" y="-81.5" font-family="Helvetica,sans-Serif" font-size="10.00">TGeoMatrix.h</text>
</g>
<!-- Node29&#45;&gt;Node33 -->
<g id="edge40" class="edge"><title>Node29&#45;&gt;Node33</title>
<path fill="none" stroke="midnightblue" d="M656.259,-150.681C541.688,-149.057 291.389,-140.678 85,-100 80.4332,-99.0999 75.6873,-97.906 71.0442,-96.5836"/>
<polygon fill="midnightblue" stroke="midnightblue" points="71.74,-93.1361 61.1532,-93.5476 69.6859,-99.8279 71.74,-93.1361"/>
</g>
<!-- Node34 -->
<g id="node34" class="node"><title>Node34</title>
<polygon fill="none" stroke="#bfbfbf" points="94.5,-69 94.5,-99 245.5,-99 245.5,-69 94.5,-69"/>
<text text-anchor="start" x="102.5" y="-87" font-family="Helvetica,sans-Serif" font-size="10.00">Math/GenVector/Displacement</text>
<text text-anchor="middle" x="170" y="-76" font-family="Helvetica,sans-Serif" font-size="10.00">Vector3D.h</text>
</g>
<!-- Node29&#45;&gt;Node34 -->
<g id="edge41" class="edge"><title>Node29&#45;&gt;Node34</title>
<path fill="none" stroke="midnightblue" d="M656.17,-145.405C568.824,-137.335 405.543,-121.2 255.802,-100.053"/>
<polygon fill="midnightblue" stroke="midnightblue" points="255.896,-96.5311 245.503,-98.5873 254.91,-103.461 255.896,-96.5311"/>
</g>
<!-- Node35 -->
<g id="node35" class="node"><title>Node35</title>
<polygon fill="none" stroke="#bfbfbf" points="264,-74.5 264,-93.5 440,-93.5 440,-74.5 264,-74.5"/>
<text text-anchor="middle" x="352" y="-81.5" font-family="Helvetica,sans-Serif" font-size="10.00">Math/GenVector/PositionVector3D.h</text>
</g>
<!-- Node29&#45;&gt;Node35 -->
<g id="edge42" class="edge"><title>Node29&#45;&gt;Node35</title>
<path fill="none" stroke="midnightblue" d="M671.397,-142.439C604.295,-130.372 482.032,-108.384 409.8,-95.3945"/>
<polygon fill="midnightblue" stroke="midnightblue" points="409.98,-91.8708 399.518,-93.5455 408.741,-98.7603 409.98,-91.8708"/>
</g>
<!-- Node36 -->
<g id="node36" class="node"><title>Node36</title>
<g id="a_node36"><a xlink:href="../../d2/dd0/Cartesian2D_8h.html" target="_top" xlink:title="MathUtils/Cartesian2D.h">
<polygon fill="none" stroke="black" points="457.5,-74.5 457.5,-93.5 582.5,-93.5 582.5,-74.5 457.5,-74.5"/>
<text text-anchor="middle" x="520" y="-81.5" font-family="Helvetica,sans-Serif" font-size="10.00">MathUtils/Cartesian2D.h</text>
</a>
</g>
</g>
<!-- Node29&#45;&gt;Node36 -->
<g id="edge43" class="edge"><title>Node29&#45;&gt;Node36</title>
<path fill="none" stroke="midnightblue" d="M692.984,-142.372C657.728,-130.679 594.662,-109.762 555.2,-96.6743"/>
<polygon fill="midnightblue" stroke="midnightblue" points="556.3,-93.3519 545.707,-93.5259 554.097,-99.996 556.3,-93.3519"/>
</g>
<!-- Node29&#45;&gt;Node39 -->
<g id="edge46" class="edge"><title>Node29&#45;&gt;Node39</title>
<path fill="none" stroke="midnightblue" d="M781.651,-144.893C876.097,-135.34 1050.35,-116.27 1111,-100 1113.82,-99.2435 1116.71,-98.3162 1119.57,-97.2971"/>
<polygon fill="midnightblue" stroke="midnightblue" points="1120.98,-100.503 1129.01,-93.5936 1118.43,-93.9864 1120.98,-100.503"/>
</g>
<!-- Node37 -->
<g id="node37" class="node"><title>Node37</title>
<polygon fill="none" stroke="#bfbfbf" points="353.5,-1 353.5,-31 504.5,-31 504.5,-1 353.5,-1"/>
<text text-anchor="start" x="361.5" y="-19" font-family="Helvetica,sans-Serif" font-size="10.00">Math/GenVector/Displacement</text>
<text text-anchor="middle" x="429" y="-8" font-family="Helvetica,sans-Serif" font-size="10.00">Vector2D.h</text>
</g>
<!-- Node36&#45;&gt;Node37 -->
<g id="edge44" class="edge"><title>Node36&#45;&gt;Node37</title>
<path fill="none" stroke="midnightblue" d="M508.103,-74.3717C495.221,-65.0286 474.22,-49.7966 457.093,-37.375"/>
<polygon fill="midnightblue" stroke="midnightblue" points="458.703,-34.2194 448.553,-31.1815 454.593,-39.8859 458.703,-34.2194"/>
</g>
<!-- Node38 -->
<g id="node38" class="node"><title>Node38</title>
<polygon fill="none" stroke="#bfbfbf" points="523,-6.5 523,-25.5 699,-25.5 699,-6.5 523,-6.5"/>
<text text-anchor="middle" x="611" y="-13.5" font-family="Helvetica,sans-Serif" font-size="10.00">Math/GenVector/PositionVector2D.h</text>
</g>
<!-- Node36&#45;&gt;Node38 -->
<g id="edge45" class="edge"><title>Node36&#45;&gt;Node38</title>
<path fill="none" stroke="midnightblue" d="M531.897,-74.3717C546.884,-63.5015 572.862,-44.6602 590.942,-31.5474"/>
<polygon fill="midnightblue" stroke="midnightblue" points="593.06,-34.3349 599.1,-25.6305 588.95,-28.6684 593.06,-34.3349"/>
</g>
<!-- Node40&#45;&gt;Node3 -->
<g id="edge48" class="edge"><title>Node40&#45;&gt;Node3</title>
<path fill="none" stroke="midnightblue" d="M1123.39,-136.841C1144.57,-125.476 1174.1,-109.628 1194.93,-98.454"/>
<polygon fill="midnightblue" stroke="midnightblue" points="1196.66,-101.494 1203.82,-93.6819 1193.35,-95.326 1196.66,-101.494"/>
</g>
</g>
</svg>
