<?xml version="1.0" encoding="UTF-8" standalone="no"?>
<!DOCTYPE svg PUBLIC "-//W3C//DTD SVG 1.1//EN"
 "http://www.w3.org/Graphics/SVG/1.1/DTD/svg11.dtd">
<!-- Generated by graphviz version 2.36.0 (20140111.2315)
 -->
<!-- Title: /home/travis/build/AliceO2Group/AliceO2/Detectors/Base/src/GeometryManager.cxx Pages: 1 -->
<svg width="1717pt" height="310pt"
 viewBox="0.00 0.00 1717.00 310.00" xmlns="http://www.w3.org/2000/svg" xmlns:xlink="http://www.w3.org/1999/xlink">
<g id="graph0" class="graph" transform="scale(1 1) rotate(0) translate(4 306)">
<title>/home/travis/build/AliceO2Group/AliceO2/Detectors/Base/src/GeometryManager.cxx</title>
<!-- Node1 -->
<g id="node1" class="node"><title>Node1</title>
<polygon fill="#bfbfbf" stroke="black" points="400,-249 400,-301 550,-301 550,-249 400,-249"/>
<text text-anchor="start" x="408" y="-289" font-family="Helvetica,sans-Serif" font-size="10.00">/home/travis/build</text>
<text text-anchor="start" x="408" y="-278" font-family="Helvetica,sans-Serif" font-size="10.00">/AliceO2Group/AliceO2</text>
<text text-anchor="start" x="408" y="-267" font-family="Helvetica,sans-Serif" font-size="10.00">/Detectors/Base/src/Geometry</text>
<text text-anchor="middle" x="475" y="-256" font-family="Helvetica,sans-Serif" font-size="10.00">Manager.cxx</text>
</g>
<!-- Node2 -->
<g id="node2" class="node"><title>Node2</title>
<polygon fill="none" stroke="#bfbfbf" points="27,-192.5 27,-211.5 101,-211.5 101,-192.5 27,-192.5"/>
<text text-anchor="middle" x="64" y="-199.5" font-family="Helvetica,sans-Serif" font-size="10.00">TCollection.h</text>
</g>
<!-- Node1&#45;&gt;Node2 -->
<g id="edge1" class="edge"><title>Node1&#45;&gt;Node2</title>
<path fill="none" stroke="midnightblue" d="M399.756,-261.782C328.125,-250.022 217.034,-231.45 111.052,-212.158"/>
<polygon fill="midnightblue" stroke="midnightblue" points="111.608,-208.702 101.142,-210.349 110.351,-215.588 111.608,-208.702"/>
</g>
<!-- Node3 -->
<g id="node3" class="node"><title>Node3</title>
<polygon fill="none" stroke="#bfbfbf" points="0,-74.5 0,-93.5 76,-93.5 76,-74.5 0,-74.5"/>
<text text-anchor="middle" x="38" y="-81.5" font-family="Helvetica,sans-Serif" font-size="10.00">TGeoMatrix.h</text>
</g>
<!-- Node1&#45;&gt;Node3 -->
<g id="edge2" class="edge"><title>Node1&#45;&gt;Node3</title>
<path fill="none" stroke="midnightblue" d="M444.145,-248.661C422.124,-231.33 391.331,-208.58 362,-192 249.07,-128.165 209.809,-135.369 85,-100 81.2144,-98.9272 77.274,-97.7565 73.3563,-96.5574"/>
<polygon fill="midnightblue" stroke="midnightblue" points="74.3544,-93.2025 63.7655,-93.5583 72.2652,-99.8834 74.3544,-93.2025"/>
</g>
<!-- Node4 -->
<g id="node4" class="node"><title>Node4</title>
<polygon fill="none" stroke="#bfbfbf" points="281,-192.5 281,-211.5 353,-211.5 353,-192.5 281,-192.5"/>
<text text-anchor="middle" x="317" y="-199.5" font-family="Helvetica,sans-Serif" font-size="10.00">TGeoNode.h</text>
</g>
<!-- Node1&#45;&gt;Node4 -->
<g id="edge3" class="edge"><title>Node1&#45;&gt;Node4</title>
<path fill="none" stroke="midnightblue" d="M419.295,-248.968C394.404,-237.783 366.125,-225.075 345.618,-215.86"/>
<polygon fill="midnightblue" stroke="midnightblue" points="346.781,-212.545 336.225,-211.639 343.911,-218.93 346.781,-212.545"/>
</g>
<!-- Node5 -->
<g id="node5" class="node"><title>Node5</title>
<polygon fill="none" stroke="#bfbfbf" points="430,-136.5 430,-155.5 540,-155.5 540,-136.5 430,-136.5"/>
<text text-anchor="middle" x="485" y="-143.5" font-family="Helvetica,sans-Serif" font-size="10.00">TGeoPhysicalNode.h</text>
</g>
<!-- Node1&#45;&gt;Node5 -->
<g id="edge4" class="edge"><title>Node1&#45;&gt;Node5</title>
<path fill="none" stroke="midnightblue" d="M481.007,-248.82C483.385,-237.618 485.828,-224.223 487,-212 487.848,-203.152 487.197,-200.887 487,-192 486.809,-183.391 486.412,-173.863 486.022,-165.799"/>
<polygon fill="midnightblue" stroke="midnightblue" points="489.508,-165.429 485.497,-155.623 482.517,-165.79 489.508,-165.429"/>
</g>
<!-- Node6 -->
<g id="node6" class="node"><title>Node6</title>
<polygon fill="none" stroke="#bfbfbf" points="409.5,-192.5 409.5,-211.5 478.5,-211.5 478.5,-192.5 409.5,-192.5"/>
<text text-anchor="middle" x="444" y="-199.5" font-family="Helvetica,sans-Serif" font-size="10.00">TObjArray.h</text>
</g>
<!-- Node1&#45;&gt;Node6 -->
<g id="edge5" class="edge"><title>Node1&#45;&gt;Node6</title>
<path fill="none" stroke="midnightblue" d="M463.983,-248.768C459.975,-239.587 455.528,-229.403 451.849,-220.978"/>
<polygon fill="midnightblue" stroke="midnightblue" points="455.033,-219.521 447.824,-211.757 448.617,-222.322 455.033,-219.521"/>
</g>
<!-- Node7 -->
<g id="node7" class="node"><title>Node7</title>
<polygon fill="none" stroke="#bfbfbf" points="558.5,-136.5 558.5,-155.5 617.5,-155.5 617.5,-136.5 558.5,-136.5"/>
<text text-anchor="middle" x="588" y="-143.5" font-family="Helvetica,sans-Serif" font-size="10.00">TObject.h</text>
</g>
<!-- Node1&#45;&gt;Node7 -->
<g id="edge6" class="edge"><title>Node1&#45;&gt;Node7</title>
<path fill="none" stroke="midnightblue" d="M497.325,-248.909C519.924,-223.51 554.208,-184.978 573.497,-163.3"/>
<polygon fill="midnightblue" stroke="midnightblue" points="576.291,-165.425 580.323,-155.628 571.061,-160.772 576.291,-165.425"/>
</g>
<!-- Node8 -->
<g id="node8" class="node"><title>Node8</title>
<polygon fill="none" stroke="#bfbfbf" points="1266.5,-74.5 1266.5,-93.5 1315.5,-93.5 1315.5,-74.5 1266.5,-74.5"/>
<text text-anchor="middle" x="1291" y="-81.5" font-family="Helvetica,sans-Serif" font-size="10.00">cassert</text>
</g>
<!-- Node1&#45;&gt;Node8 -->
<g id="edge7" class="edge"><title>Node1&#45;&gt;Node8</title>
<path fill="none" stroke="midnightblue" d="M538.419,-248.915C566.764,-237.672 600.575,-224.219 631,-212 692.423,-187.332 708.686,-183.266 769,-156 787.111,-147.812 789.855,-141.34 809,-136 1000.98,-82.4526 1062.53,-147.885 1256,-100 1258.83,-99.3002 1261.72,-98.3968 1264.57,-97.3809"/>
<polygon fill="midnightblue" stroke="midnightblue" points="1265.96,-100.594 1273.94,-93.6244 1263.35,-94.0967 1265.96,-100.594"/>
</g>
<!-- Node9 -->
<g id="node9" class="node"><title>Node9</title>
<polygon fill="none" stroke="#bfbfbf" points="573.5,-192.5 573.5,-211.5 622.5,-211.5 622.5,-192.5 573.5,-192.5"/>
<text text-anchor="middle" x="598" y="-199.5" font-family="Helvetica,sans-Serif" font-size="10.00">cstddef</text>
</g>
<!-- Node1&#45;&gt;Node9 -->
<g id="edge8" class="edge"><title>Node1&#45;&gt;Node9</title>
<path fill="none" stroke="midnightblue" d="M518.365,-248.968C537.038,-238.19 558.159,-225.997 573.956,-216.879"/>
<polygon fill="midnightblue" stroke="midnightblue" points="576.123,-219.669 583.034,-211.639 572.624,-213.607 576.123,-219.669"/>
</g>
<!-- Node10 -->
<g id="node10" class="node"><title>Node10</title>
<g id="a_node10"><a xlink:href="../../d2/d8f/AlignParam_8h.html" target="_top" xlink:title="Definition of the base alignment parameters class. ">
<polygon fill="none" stroke="black" points="119.5,-192.5 119.5,-211.5 262.5,-211.5 262.5,-192.5 119.5,-192.5"/>
<text text-anchor="middle" x="191" y="-199.5" font-family="Helvetica,sans-Serif" font-size="10.00">DetectorsBase/AlignParam.h</text>
</a>
</g>
</g>
<!-- Node1&#45;&gt;Node10 -->
<g id="edge9" class="edge"><title>Node1&#45;&gt;Node10</title>
<path fill="none" stroke="midnightblue" d="M399.639,-255.16C347.042,-242.011 278.671,-224.918 234.802,-213.951"/>
<polygon fill="midnightblue" stroke="midnightblue" points="235.566,-210.534 225.016,-211.504 233.868,-217.325 235.566,-210.534"/>
</g>
<!-- Node12 -->
<g id="node12" class="node"><title>Node12</title>
<g id="a_node12"><a xlink:href="../../db/dcc/Detectors_2Base_2include_2DetectorsBase_2GeometryManager_8h.html" target="_top" xlink:title="DetectorsBase/GeometryManager.h">
<polygon fill="none" stroke="black" points="840.5,-192.5 840.5,-211.5 1013.5,-211.5 1013.5,-192.5 840.5,-192.5"/>
<text text-anchor="middle" x="927" y="-199.5" font-family="Helvetica,sans-Serif" font-size="10.00">DetectorsBase/GeometryManager.h</text>
</a>
</g>
</g>
<!-- Node1&#45;&gt;Node12 -->
<g id="edge12" class="edge"><title>Node1&#45;&gt;Node12</title>
<path fill="none" stroke="midnightblue" d="M550.146,-262.196C637.501,-248.474 780.196,-226.06 862.653,-213.108"/>
<polygon fill="midnightblue" stroke="midnightblue" points="863.312,-216.547 872.648,-211.538 862.226,-209.632 863.312,-216.547"/>
</g>
<!-- Node10&#45;&gt;Node3 -->
<g id="edge10" class="edge"><title>Node10&#45;&gt;Node3</title>
<path fill="none" stroke="midnightblue" d="M179.5,-192.281C153.455,-172.535 89.7266,-124.218 57.4345,-99.7346"/>
<polygon fill="midnightblue" stroke="midnightblue" points="59.3007,-96.7574 49.2175,-93.5048 55.0716,-102.335 59.3007,-96.7574"/>
</g>
<!-- Node11 -->
<g id="node11" class="node"><title>Node11</title>
<polygon fill="none" stroke="#bfbfbf" points="160,-136.5 160,-155.5 222,-155.5 222,-136.5 160,-136.5"/>
<text text-anchor="middle" x="191" y="-143.5" font-family="Helvetica,sans-Serif" font-size="10.00">TNamed.h</text>
</g>
<!-- Node10&#45;&gt;Node11 -->
<g id="edge11" class="edge"><title>Node10&#45;&gt;Node11</title>
<path fill="none" stroke="midnightblue" d="M191,-192.083C191,-185.006 191,-174.861 191,-165.986"/>
<polygon fill="midnightblue" stroke="midnightblue" points="194.5,-165.751 191,-155.751 187.5,-165.751 194.5,-165.751"/>
</g>
<!-- Node12&#45;&gt;Node5 -->
<g id="edge15" class="edge"><title>Node12&#45;&gt;Node5</title>
<path fill="none" stroke="midnightblue" d="M852.2,-192.491C778.324,-183.991 661.834,-170.333 550.385,-156.027"/>
<polygon fill="midnightblue" stroke="midnightblue" points="550.674,-152.536 540.309,-154.73 549.78,-159.478 550.674,-152.536"/>
</g>
<!-- Node12&#45;&gt;Node7 -->
<g id="edge18" class="edge"><title>Node12&#45;&gt;Node7</title>
<path fill="none" stroke="midnightblue" d="M860.022,-192.474C801.32,-184.655 713.492,-172.119 627.672,-155.999"/>
<polygon fill="midnightblue" stroke="midnightblue" points="628.237,-152.544 617.76,-154.119 626.933,-159.421 628.237,-152.544"/>
</g>
<!-- Node13 -->
<g id="node13" class="node"><title>Node13</title>
<polygon fill="none" stroke="#bfbfbf" points="907,-136.5 907,-155.5 993,-155.5 993,-136.5 907,-136.5"/>
<text text-anchor="middle" x="950" y="-143.5" font-family="Helvetica,sans-Serif" font-size="10.00">TGeoManager.h</text>
</g>
<!-- Node12&#45;&gt;Node13 -->
<g id="edge13" class="edge"><title>Node12&#45;&gt;Node13</title>
<path fill="none" stroke="midnightblue" d="M930.798,-192.083C933.913,-184.77 938.423,-174.181 942.289,-165.103"/>
<polygon fill="midnightblue" stroke="midnightblue" points="945.574,-166.323 946.273,-155.751 939.134,-163.58 945.574,-166.323"/>
</g>
<!-- Node14 -->
<g id="node14" class="node"><title>Node14</title>
<polygon fill="none" stroke="#bfbfbf" points="1011.5,-136.5 1011.5,-155.5 1094.5,-155.5 1094.5,-136.5 1011.5,-136.5"/>
<text text-anchor="middle" x="1053" y="-143.5" font-family="Helvetica,sans-Serif" font-size="10.00">TGeoMaterial.h</text>
</g>
<!-- Node12&#45;&gt;Node14 -->
<g id="edge14" class="edge"><title>Node12&#45;&gt;Node14</title>
<path fill="none" stroke="midnightblue" d="M946.965,-192.444C967.609,-183.596 1000.06,-169.687 1023.63,-159.586"/>
<polygon fill="midnightblue" stroke="midnightblue" points="1025.32,-162.673 1033.13,-155.516 1022.56,-156.239 1025.32,-162.673"/>
</g>
<!-- Node15 -->
<g id="node15" class="node"><title>Node15</title>
<polygon fill="none" stroke="#bfbfbf" points="1112.5,-136.5 1112.5,-155.5 1189.5,-155.5 1189.5,-136.5 1112.5,-136.5"/>
<text text-anchor="middle" x="1151" y="-143.5" font-family="Helvetica,sans-Serif" font-size="10.00">TGeoShape.h</text>
</g>
<!-- Node12&#45;&gt;Node15 -->
<g id="edge16" class="edge"><title>Node12&#45;&gt;Node15</title>
<path fill="none" stroke="midnightblue" d="M962.493,-192.444C1001.32,-183.083 1063.66,-168.056 1105.92,-157.868"/>
<polygon fill="midnightblue" stroke="midnightblue" points="1106.77,-161.263 1115.67,-155.516 1105.13,-154.458 1106.77,-161.263"/>
</g>
<!-- Node16 -->
<g id="node16" class="node"><title>Node16</title>
<polygon fill="none" stroke="#bfbfbf" points="1207.5,-136.5 1207.5,-155.5 1260.5,-155.5 1260.5,-136.5 1207.5,-136.5"/>
<text text-anchor="middle" x="1234" y="-143.5" font-family="Helvetica,sans-Serif" font-size="10.00">TMath.h</text>
</g>
<!-- Node12&#45;&gt;Node16 -->
<g id="edge17" class="edge"><title>Node12&#45;&gt;Node16</title>
<path fill="none" stroke="midnightblue" d="M986.731,-192.493C1039.55,-184.65 1118.9,-172.09 1197.27,-156.007"/>
<polygon fill="midnightblue" stroke="midnightblue" points="1198.24,-159.381 1207.32,-153.924 1196.82,-152.527 1198.24,-159.381"/>
</g>
<!-- Node17 -->
<g id="node17" class="node"><title>Node17</title>
<g id="a_node17"><a xlink:href="../../d6/d31/DetID_8h.html" target="_top" xlink:title="DetectorsBase/DetID.h">
<polygon fill="none" stroke="black" points="1308.5,-136.5 1308.5,-155.5 1427.5,-155.5 1427.5,-136.5 1308.5,-136.5"/>
<text text-anchor="middle" x="1368" y="-143.5" font-family="Helvetica,sans-Serif" font-size="10.00">DetectorsBase/DetID.h</text>
</a>
</g>
</g>
<!-- Node12&#45;&gt;Node17 -->
<g id="edge19" class="edge"><title>Node12&#45;&gt;Node17</title>
<path fill="none" stroke="midnightblue" d="M996.878,-192.444C1079.41,-182.337 1215.88,-165.627 1298.32,-155.532"/>
<polygon fill="midnightblue" stroke="midnightblue" points="1298.85,-158.994 1308.35,-154.304 1298,-152.046 1298.85,-158.994"/>
</g>
<!-- Node26 -->
<g id="node26" class="node"><title>Node26</title>
<polygon fill="none" stroke="#bfbfbf" points="817.5,-136.5 817.5,-155.5 888.5,-155.5 888.5,-136.5 817.5,-136.5"/>
<text text-anchor="middle" x="853" y="-143.5" font-family="Helvetica,sans-Serif" font-size="10.00">FairLogger.h</text>
</g>
<!-- Node12&#45;&gt;Node26 -->
<g id="edge30" class="edge"><title>Node12&#45;&gt;Node26</title>
<path fill="none" stroke="midnightblue" d="M915.111,-192.324C903.85,-184.107 886.713,-171.602 873.291,-161.807"/>
<polygon fill="midnightblue" stroke="midnightblue" points="875.247,-158.901 865.106,-155.834 871.12,-164.556 875.247,-158.901"/>
</g>
<!-- Node27 -->
<g id="node27" class="node"><title>Node27</title>
<g id="a_node27"><a xlink:href="../../dd/d76/Cartesian3D_8h.html" target="_top" xlink:title="MathUtils/Cartesian3D.h">
<polygon fill="none" stroke="black" points="635.5,-136.5 635.5,-155.5 760.5,-155.5 760.5,-136.5 635.5,-136.5"/>
<text text-anchor="middle" x="698" y="-143.5" font-family="Helvetica,sans-Serif" font-size="10.00">MathUtils/Cartesian3D.h</text>
</a>
</g>
</g>
<!-- Node12&#45;&gt;Node27 -->
<g id="edge31" class="edge"><title>Node12&#45;&gt;Node27</title>
<path fill="none" stroke="midnightblue" d="M890.714,-192.444C851.017,-183.083 787.293,-168.056 744.088,-157.868"/>
<polygon fill="midnightblue" stroke="midnightblue" points="744.652,-154.405 734.116,-155.516 743.046,-161.218 744.652,-154.405"/>
</g>
<!-- Node17&#45;&gt;Node8 -->
<g id="edge23" class="edge"><title>Node17&#45;&gt;Node8</title>
<path fill="none" stroke="midnightblue" d="M1356.97,-136.403C1344.73,-126.869 1324.77,-111.315 1310.01,-99.8106"/>
<polygon fill="midnightblue" stroke="midnightblue" points="1312.05,-96.9663 1302.01,-93.5806 1307.75,-102.488 1312.05,-96.9663"/>
</g>
<!-- Node18 -->
<g id="node18" class="node"><title>Node18</title>
<polygon fill="none" stroke="#bfbfbf" points="1192,-74.5 1192,-93.5 1248,-93.5 1248,-74.5 1192,-74.5"/>
<text text-anchor="middle" x="1220" y="-81.5" font-family="Helvetica,sans-Serif" font-size="10.00">Rtypes.h</text>
</g>
<!-- Node17&#45;&gt;Node18 -->
<g id="edge20" class="edge"><title>Node17&#45;&gt;Node18</title>
<path fill="none" stroke="midnightblue" d="M1346.8,-136.403C1321.63,-126.2 1279.46,-109.105 1250.72,-97.4544"/>
<polygon fill="midnightblue" stroke="midnightblue" points="1251.75,-94.0941 1241.17,-93.5806 1249.12,-100.581 1251.75,-94.0941"/>
</g>
<!-- Node19 -->
<g id="node19" class="node"><title>Node19</title>
<polygon fill="none" stroke="#bfbfbf" points="1389,-6.5 1389,-25.5 1427,-25.5 1427,-6.5 1389,-6.5"/>
<text text-anchor="middle" x="1408" y="-13.5" font-family="Helvetica,sans-Serif" font-size="10.00">array</text>
</g>
<!-- Node17&#45;&gt;Node19 -->
<g id="edge21" class="edge"><title>Node17&#45;&gt;Node19</title>
<path fill="none" stroke="midnightblue" d="M1365.32,-136.112C1361.37,-121.411 1355.32,-91.3376 1364,-68 1369.09,-54.2987 1379.7,-41.8182 1389.23,-32.633"/>
<polygon fill="midnightblue" stroke="midnightblue" points="1391.77,-35.0492 1396.83,-25.738 1387.07,-29.8647 1391.77,-35.0492"/>
</g>
<!-- Node20 -->
<g id="node20" class="node"><title>Node20</title>
<polygon fill="none" stroke="#bfbfbf" points="1372.5,-74.5 1372.5,-93.5 1413.5,-93.5 1413.5,-74.5 1372.5,-74.5"/>
<text text-anchor="middle" x="1393" y="-81.5" font-family="Helvetica,sans-Serif" font-size="10.00">bitset</text>
</g>
<!-- Node17&#45;&gt;Node20 -->
<g id="edge22" class="edge"><title>Node17&#45;&gt;Node20</title>
<path fill="none" stroke="midnightblue" d="M1371.58,-136.403C1375.18,-127.76 1380.85,-114.17 1385.44,-103.134"/>
<polygon fill="midnightblue" stroke="midnightblue" points="1388.81,-104.158 1389.42,-93.5806 1382.35,-101.465 1388.81,-104.158"/>
</g>
<!-- Node21 -->
<g id="node21" class="node"><title>Node21</title>
<polygon fill="none" stroke="#bfbfbf" points="1432,-74.5 1432,-93.5 1478,-93.5 1478,-74.5 1432,-74.5"/>
<text text-anchor="middle" x="1455" y="-81.5" font-family="Helvetica,sans-Serif" font-size="10.00">cstdint</text>
</g>
<!-- Node17&#45;&gt;Node21 -->
<g id="edge24" class="edge"><title>Node17&#45;&gt;Node21</title>
<path fill="none" stroke="midnightblue" d="M1380.46,-136.403C1394.42,-126.78 1417.26,-111.024 1433.99,-99.4891"/>
<polygon fill="midnightblue" stroke="midnightblue" points="1436.31,-102.139 1442.56,-93.5806 1432.34,-96.3767 1436.31,-102.139"/>
</g>
<!-- Node22 -->
<g id="node22" class="node"><title>Node22</title>
<polygon fill="none" stroke="#bfbfbf" points="1496,-74.5 1496,-93.5 1558,-93.5 1558,-74.5 1496,-74.5"/>
<text text-anchor="middle" x="1527" y="-81.5" font-family="Helvetica,sans-Serif" font-size="10.00">type_traits</text>
</g>
<!-- Node17&#45;&gt;Node22 -->
<g id="edge25" class="edge"><title>Node17&#45;&gt;Node22</title>
<path fill="none" stroke="midnightblue" d="M1390.78,-136.403C1418.05,-126.111 1463.91,-108.806 1494.8,-97.1504"/>
<polygon fill="midnightblue" stroke="midnightblue" points="1496.14,-100.386 1504.26,-93.5806 1493.67,-93.8366 1496.14,-100.386"/>
</g>
<!-- Node23 -->
<g id="node23" class="node"><title>Node23</title>
<g id="a_node23"><a xlink:href="../../d9/ded/Utils_8h.html" target="_top" xlink:title="DetectorsBase/Utils.h">
<polygon fill="none" stroke="black" points="1576.5,-74.5 1576.5,-93.5 1689.5,-93.5 1689.5,-74.5 1576.5,-74.5"/>
<text text-anchor="middle" x="1633" y="-81.5" font-family="Helvetica,sans-Serif" font-size="10.00">DetectorsBase/Utils.h</text>
</a>
</g>
</g>
<!-- Node17&#45;&gt;Node23 -->
<g id="edge26" class="edge"><title>Node17&#45;&gt;Node23</title>
<path fill="none" stroke="midnightblue" d="M1405.69,-136.467C1452.98,-125.76 1534.1,-107.392 1585.56,-95.74"/>
<polygon fill="midnightblue" stroke="midnightblue" points="1586.46,-99.1253 1595.44,-93.5034 1584.92,-92.2981 1586.46,-99.1253"/>
</g>
<!-- Node23&#45;&gt;Node19 -->
<g id="edge29" class="edge"><title>Node23&#45;&gt;Node19</title>
<path fill="none" stroke="midnightblue" d="M1603.59,-74.3717C1560.34,-61.6856 1480.08,-38.1426 1437.04,-25.5192"/>
<polygon fill="midnightblue" stroke="midnightblue" points="1437.78,-22.0879 1427.2,-22.6316 1435.81,-28.8049 1437.78,-22.0879"/>
</g>
<!-- Node24 -->
<g id="node24" class="node"><title>Node24</title>
<g id="a_node24"><a xlink:href="../../d1/daa/Base_2include_2DetectorsBase_2Constants_8h.html" target="_top" xlink:title="DetectorsBase/Constants.h">
<polygon fill="none" stroke="black" points="1509,-6.5 1509,-25.5 1647,-25.5 1647,-6.5 1509,-6.5"/>
<text text-anchor="middle" x="1578" y="-13.5" font-family="Helvetica,sans-Serif" font-size="10.00">DetectorsBase/Constants.h</text>
</a>
</g>
</g>
<!-- Node23&#45;&gt;Node24 -->
<g id="edge27" class="edge"><title>Node23&#45;&gt;Node24</title>
<path fill="none" stroke="midnightblue" d="M1625.81,-74.3717C1617.21,-64.053 1602.63,-46.5513 1591.82,-33.5854"/>
<polygon fill="midnightblue" stroke="midnightblue" points="1594.46,-31.2827 1585.37,-25.8411 1589.08,-35.764 1594.46,-31.2827"/>
</g>
<!-- Node25 -->
<g id="node25" class="node"><title>Node25</title>
<polygon fill="none" stroke="#bfbfbf" points="1665,-6.5 1665,-25.5 1709,-25.5 1709,-6.5 1665,-6.5"/>
<text text-anchor="middle" x="1687" y="-13.5" font-family="Helvetica,sans-Serif" font-size="10.00">cmath</text>
</g>
<!-- Node23&#45;&gt;Node25 -->
<g id="edge28" class="edge"><title>Node23&#45;&gt;Node25</title>
<path fill="none" stroke="midnightblue" d="M1640.06,-74.3717C1648.5,-64.053 1662.82,-46.5513 1673.43,-33.5854"/>
<polygon fill="midnightblue" stroke="midnightblue" points="1676.14,-35.7971 1679.77,-25.8411 1670.73,-31.3644 1676.14,-35.7971"/>
</g>
<!-- Node27&#45;&gt;Node3 -->
<g id="edge36" class="edge"><title>Node27&#45;&gt;Node3</title>
<path fill="none" stroke="midnightblue" d="M635.195,-136.932C632.088,-136.601 629.01,-136.288 626,-136 386.12,-113.046 321.744,-144.963 85,-100 80.4271,-99.1315 75.6777,-97.9558 71.0328,-96.6424"/>
<polygon fill="midnightblue" stroke="midnightblue" points="71.727,-93.1946 61.1405,-93.6132 69.6774,-99.8879 71.727,-93.1946"/>
</g>
<!-- Node27&#45;&gt;Node18 -->
<g id="edge35" class="edge"><title>Node27&#45;&gt;Node18</title>
<path fill="none" stroke="midnightblue" d="M760.599,-137.533C765.47,-136.998 770.314,-136.481 775,-136 956.088,-117.431 1006.03,-142.666 1183,-100 1186.07,-99.2603 1189.22,-98.3092 1192.32,-97.2454"/>
<polygon fill="midnightblue" stroke="midnightblue" points="1193.82,-100.419 1201.91,-93.5834 1191.32,-93.879 1193.82,-100.419"/>
</g>
<!-- Node28 -->
<g id="node28" class="node"><title>Node28</title>
<polygon fill="none" stroke="#bfbfbf" points="850.5,-74.5 850.5,-93.5 999.5,-93.5 999.5,-74.5 850.5,-74.5"/>
<text text-anchor="middle" x="925" y="-81.5" font-family="Helvetica,sans-Serif" font-size="10.00">Math/GenVector/Rotation3D.h</text>
</g>
<!-- Node27&#45;&gt;Node28 -->
<g id="edge32" class="edge"><title>Node27&#45;&gt;Node28</title>
<path fill="none" stroke="midnightblue" d="M730.524,-136.403C770.558,-125.822 838.638,-107.827 882.702,-96.1802"/>
<polygon fill="midnightblue" stroke="midnightblue" points="883.763,-99.5199 892.537,-93.5806 881.974,-92.7523 883.763,-99.5199"/>
</g>
<!-- Node29 -->
<g id="node29" class="node"><title>Node29</title>
<polygon fill="none" stroke="#bfbfbf" points="1018,-74.5 1018,-93.5 1174,-93.5 1174,-74.5 1018,-74.5"/>
<text text-anchor="middle" x="1096" y="-81.5" font-family="Helvetica,sans-Serif" font-size="10.00">Math/GenVector/Transform3D.h</text>
</g>
<!-- Node27&#45;&gt;Node29 -->
<g id="edge33" class="edge"><title>Node27&#45;&gt;Node29</title>
<path fill="none" stroke="midnightblue" d="M759.826,-136.483C822.444,-127.749 922.05,-113.562 1008,-100 1017.43,-98.512 1027.42,-96.8716 1037.15,-95.2383"/>
<polygon fill="midnightblue" stroke="midnightblue" points="1037.88,-98.6636 1047.16,-93.5454 1036.72,-91.7615 1037.88,-98.6636"/>
</g>
<!-- Node30 -->
<g id="node30" class="node"><title>Node30</title>
<polygon fill="none" stroke="#bfbfbf" points="94,-74.5 94,-93.5 254,-93.5 254,-74.5 94,-74.5"/>
<text text-anchor="middle" x="174" y="-81.5" font-family="Helvetica,sans-Serif" font-size="10.00">Math/GenVector/Translation3D.h</text>
</g>
<!-- Node27&#45;&gt;Node30 -->
<g id="edge34" class="edge"><title>Node27&#45;&gt;Node30</title>
<path fill="none" stroke="midnightblue" d="M635.183,-137.052C632.079,-136.689 629.005,-136.337 626,-136 464.884,-117.944 423.695,-121.485 263,-100 252.643,-98.6152 241.642,-96.9341 231.036,-95.2048"/>
<polygon fill="midnightblue" stroke="midnightblue" points="231.461,-91.7275 221.022,-93.5403 230.313,-98.6327 231.461,-91.7275"/>
</g>
<!-- Node31 -->
<g id="node31" class="node"><title>Node31</title>
<polygon fill="none" stroke="#bfbfbf" points="272.5,-69 272.5,-99 423.5,-99 423.5,-69 272.5,-69"/>
<text text-anchor="start" x="280.5" y="-87" font-family="Helvetica,sans-Serif" font-size="10.00">Math/GenVector/Displacement</text>
<text text-anchor="middle" x="348" y="-76" font-family="Helvetica,sans-Serif" font-size="10.00">Vector3D.h</text>
</g>
<!-- Node27&#45;&gt;Node31 -->
<g id="edge37" class="edge"><title>Node27&#45;&gt;Node31</title>
<path fill="none" stroke="midnightblue" d="M647.181,-136.471C596.012,-127.86 514.517,-114.085 433.879,-100.146"/>
<polygon fill="midnightblue" stroke="midnightblue" points="433.99,-96.6129 423.539,-98.3566 432.796,-103.51 433.99,-96.6129"/>
</g>
<!-- Node32 -->
<g id="node32" class="node"><title>Node32</title>
<polygon fill="none" stroke="#bfbfbf" points="442,-74.5 442,-93.5 618,-93.5 618,-74.5 442,-74.5"/>
<text text-anchor="middle" x="530" y="-81.5" font-family="Helvetica,sans-Serif" font-size="10.00">Math/GenVector/PositionVector3D.h</text>
</g>
<!-- Node27&#45;&gt;Node32 -->
<g id="edge38" class="edge"><title>Node27&#45;&gt;Node32</title>
<path fill="none" stroke="midnightblue" d="M673.93,-136.403C644.987,-126.067 596.238,-108.656 563.598,-96.9994"/>
<polygon fill="midnightblue" stroke="midnightblue" points="564.62,-93.6479 554.026,-93.5806 562.266,-100.24 564.62,-93.6479"/>
</g>
<!-- Node33 -->
<g id="node33" class="node"><title>Node33</title>
<g id="a_node33"><a xlink:href="../../d2/dd0/Cartesian2D_8h.html" target="_top" xlink:title="MathUtils/Cartesian2D.h">
<polygon fill="none" stroke="black" points="635.5,-74.5 635.5,-93.5 760.5,-93.5 760.5,-74.5 635.5,-74.5"/>
<text text-anchor="middle" x="698" y="-81.5" font-family="Helvetica,sans-Serif" font-size="10.00">MathUtils/Cartesian2D.h</text>
</a>
</g>
</g>
<!-- Node27&#45;&gt;Node33 -->
<g id="edge39" class="edge"><title>Node27&#45;&gt;Node33</title>
<path fill="none" stroke="midnightblue" d="M698,-136.403C698,-127.938 698,-114.728 698,-103.82"/>
<polygon fill="midnightblue" stroke="midnightblue" points="701.5,-103.581 698,-93.5806 694.5,-103.581 701.5,-103.581"/>
</g>
<!-- Node36 -->
<g id="node36" class="node"><title>Node36</title>
<polygon fill="none" stroke="#bfbfbf" points="779,-74.5 779,-93.5 833,-93.5 833,-74.5 779,-74.5"/>
<text text-anchor="middle" x="806" y="-81.5" font-family="Helvetica,sans-Serif" font-size="10.00">iostream</text>
</g>
<!-- Node27&#45;&gt;Node36 -->
<g id="edge42" class="edge"><title>Node27&#45;&gt;Node36</title>
<path fill="none" stroke="midnightblue" d="M713.474,-136.403C731.278,-126.512 760.741,-110.144 781.632,-98.5378"/>
<polygon fill="midnightblue" stroke="midnightblue" points="783.513,-101.497 790.555,-93.5806 780.114,-95.3775 783.513,-101.497"/>
</g>
<!-- Node34 -->
<g id="node34" class="node"><title>Node34</title>
<polygon fill="none" stroke="#bfbfbf" points="713.5,-1 713.5,-31 864.5,-31 864.5,-1 713.5,-1"/>
<text text-anchor="start" x="721.5" y="-19" font-family="Helvetica,sans-Serif" font-size="10.00">Math/GenVector/Displacement</text>
<text text-anchor="middle" x="789" y="-8" font-family="Helvetica,sans-Serif" font-size="10.00">Vector2D.h</text>
</g>
<!-- Node33&#45;&gt;Node34 -->
<g id="edge40" class="edge"><title>Node33&#45;&gt;Node34</title>
<path fill="none" stroke="midnightblue" d="M709.897,-74.3717C722.779,-65.0286 743.78,-49.7966 760.907,-37.375"/>
<polygon fill="midnightblue" stroke="midnightblue" points="763.407,-39.8859 769.447,-31.1815 759.297,-34.2194 763.407,-39.8859"/>
</g>
<!-- Node35 -->
<g id="node35" class="node"><title>Node35</title>
<polygon fill="none" stroke="#bfbfbf" points="519,-6.5 519,-25.5 695,-25.5 695,-6.5 519,-6.5"/>
<text text-anchor="middle" x="607" y="-13.5" font-family="Helvetica,sans-Serif" font-size="10.00">Math/GenVector/PositionVector2D.h</text>
</g>
<!-- Node33&#45;&gt;Node35 -->
<g id="edge41" class="edge"><title>Node33&#45;&gt;Node35</title>
<path fill="none" stroke="midnightblue" d="M686.103,-74.3717C671.116,-63.5015 645.138,-44.6602 627.058,-31.5474"/>
<polygon fill="midnightblue" stroke="midnightblue" points="629.05,-28.6684 618.9,-25.6305 624.94,-34.3349 629.05,-28.6684"/>
</g>
</g>
</svg>
