<?xml version="1.0" encoding="UTF-8" standalone="no"?>
<!DOCTYPE svg PUBLIC "-//W3C//DTD SVG 1.1//EN"
 "http://www.w3.org/Graphics/SVG/1.1/DTD/svg11.dtd">
<!-- Generated by graphviz version 2.36.0 (20140111.2315)
 -->
<!-- Title: /home/travis/build/AliceO2Group/AliceO2/Detectors/TPC/reconstruction/src/TrackTPC.cxx Pages: 1 -->
<svg width="2519pt" height="490pt"
 viewBox="0.00 0.00 2519.00 490.00" xmlns="http://www.w3.org/2000/svg" xmlns:xlink="http://www.w3.org/1999/xlink">
<g id="graph0" class="graph" transform="scale(1 1) rotate(0) translate(4 486)">
<title>/home/travis/build/AliceO2Group/AliceO2/Detectors/TPC/reconstruction/src/TrackTPC.cxx</title>
<!-- Node1 -->
<g id="node1" class="node"><title>Node1</title>
<polygon fill="#bfbfbf" stroke="black" points="2167,-429 2167,-481 2317,-481 2317,-429 2167,-429"/>
<text text-anchor="start" x="2175" y="-469" font-family="Helvetica,sans-Serif" font-size="10.00">/home/travis/build</text>
<text text-anchor="start" x="2175" y="-458" font-family="Helvetica,sans-Serif" font-size="10.00">/AliceO2Group/AliceO2</text>
<text text-anchor="start" x="2175" y="-447" font-family="Helvetica,sans-Serif" font-size="10.00">/Detectors/TPC/reconstruction</text>
<text text-anchor="middle" x="2242" y="-436" font-family="Helvetica,sans-Serif" font-size="10.00">/src/TrackTPC.cxx</text>
</g>
<!-- Node2 -->
<g id="node2" class="node"><title>Node2</title>
<g id="a_node2"><a xlink:href="../../d5/dc9/TrackTPC_8h.html" target="_top" xlink:title="TPCReconstruction/TrackTPC.h">
<polygon fill="none" stroke="black" points="1559.5,-372.5 1559.5,-391.5 1718.5,-391.5 1718.5,-372.5 1559.5,-372.5"/>
<text text-anchor="middle" x="1639" y="-379.5" font-family="Helvetica,sans-Serif" font-size="10.00">TPCReconstruction/TrackTPC.h</text>
</a>
</g>
</g>
<!-- Node1&#45;&gt;Node2 -->
<g id="edge1" class="edge"><title>Node1&#45;&gt;Node2</title>
<path fill="none" stroke="midnightblue" d="M2166.85,-445.151C2053.34,-431.787 1838.98,-406.546 1721.36,-392.698"/>
<polygon fill="midnightblue" stroke="midnightblue" points="1721.67,-389.21 1711.33,-391.516 1720.85,-396.162 1721.67,-389.21"/>
</g>
<!-- Node43 -->
<g id="node43" class="node"><title>Node43</title>
<g id="a_node43"><a xlink:href="../../db/dad/ParameterDetector_8h.html" target="_top" xlink:title="Definition of the parameter class for the detector. ">
<polygon fill="none" stroke="black" points="2358.5,-316.5 2358.5,-335.5 2511.5,-335.5 2511.5,-316.5 2358.5,-316.5"/>
<text text-anchor="middle" x="2435" y="-323.5" font-family="Helvetica,sans-Serif" font-size="10.00">TPCBase/ParameterDetector.h</text>
</a>
</g>
</g>
<!-- Node1&#45;&gt;Node43 -->
<g id="edge60" class="edge"><title>Node1&#45;&gt;Node43</title>
<path fill="none" stroke="midnightblue" d="M2317.13,-443.63C2351.86,-435.17 2391.07,-419.823 2417,-392 2428.59,-379.564 2432.82,-360.326 2434.32,-346.003"/>
<polygon fill="midnightblue" stroke="midnightblue" points="2437.83,-346.008 2435.02,-335.792 2430.84,-345.53 2437.83,-346.008"/>
</g>
<!-- Node44 -->
<g id="node44" class="node"><title>Node44</title>
<g id="a_node44"><a xlink:href="../../db/d5b/ParameterGas_8h.html" target="_top" xlink:title="Definition of the parameter class for the detector gas. ">
<polygon fill="none" stroke="black" points="2092,-372.5 2092,-391.5 2226,-391.5 2226,-372.5 2092,-372.5"/>
<text text-anchor="middle" x="2159" y="-379.5" font-family="Helvetica,sans-Serif" font-size="10.00">TPCBase/ParameterGas.h</text>
</a>
</g>
</g>
<!-- Node1&#45;&gt;Node44 -->
<g id="edge62" class="edge"><title>Node1&#45;&gt;Node44</title>
<path fill="none" stroke="midnightblue" d="M2212.5,-428.768C2200.59,-418.578 2187.24,-407.153 2176.85,-398.267"/>
<polygon fill="midnightblue" stroke="midnightblue" points="2179.11,-395.598 2169.24,-391.757 2174.56,-400.917 2179.11,-395.598"/>
</g>
<!-- Node45 -->
<g id="node45" class="node"><title>Node45</title>
<g id="a_node45"><a xlink:href="../../d3/d47/ParameterElectronics_8h.html" target="_top" xlink:title="Definition of the parameter class for the detector electronics. ">
<polygon fill="none" stroke="black" points="2244,-372.5 2244,-391.5 2408,-391.5 2408,-372.5 2244,-372.5"/>
<text text-anchor="middle" x="2326" y="-379.5" font-family="Helvetica,sans-Serif" font-size="10.00">TPCBase/ParameterElectronics.h</text>
</a>
</g>
</g>
<!-- Node1&#45;&gt;Node45 -->
<g id="edge64" class="edge"><title>Node1&#45;&gt;Node45</title>
<path fill="none" stroke="midnightblue" d="M2271.85,-428.768C2283.91,-418.578 2297.42,-407.153 2307.94,-398.267"/>
<polygon fill="midnightblue" stroke="midnightblue" points="2310.26,-400.886 2315.64,-391.757 2305.74,-395.539 2310.26,-400.886"/>
</g>
<!-- Node3 -->
<g id="node3" class="node"><title>Node3</title>
<g id="a_node3"><a xlink:href="../../d7/d65/Detectors_2Base_2include_2DetectorsBase_2Track_8h.html" target="_top" xlink:title="DetectorsBase/Track.h">
<polygon fill="none" stroke="black" points="1580,-316.5 1580,-335.5 1698,-335.5 1698,-316.5 1580,-316.5"/>
<text text-anchor="middle" x="1639" y="-323.5" font-family="Helvetica,sans-Serif" font-size="10.00">DetectorsBase/Track.h</text>
</a>
</g>
</g>
<!-- Node2&#45;&gt;Node3 -->
<g id="edge2" class="edge"><title>Node2&#45;&gt;Node3</title>
<path fill="none" stroke="midnightblue" d="M1639,-372.083C1639,-365.006 1639,-354.861 1639,-345.986"/>
<polygon fill="midnightblue" stroke="midnightblue" points="1642.5,-345.751 1639,-335.751 1635.5,-345.751 1642.5,-345.751"/>
</g>
<!-- Node37 -->
<g id="node37" class="node"><title>Node37</title>
<g id="a_node37"><a xlink:href="../../d1/d73/Defs_8h.html" target="_top" xlink:title="Common definitions for 2D coordinates. ">
<polygon fill="none" stroke="black" points="269,-192.5 269,-211.5 361,-211.5 361,-192.5 269,-192.5"/>
<text text-anchor="middle" x="315" y="-199.5" font-family="Helvetica,sans-Serif" font-size="10.00">TPCBase/Defs.h</text>
</a>
</g>
</g>
<!-- Node2&#45;&gt;Node37 -->
<g id="edge50" class="edge"><title>Node2&#45;&gt;Node37</title>
<path fill="none" stroke="midnightblue" d="M1559.41,-376.123C1391.33,-365.105 988.174,-334.877 654,-280 545.683,-262.212 420.167,-230.834 356.562,-214.155"/>
<polygon fill="midnightblue" stroke="midnightblue" points="357.091,-210.674 346.529,-211.51 355.307,-217.443 357.091,-210.674"/>
</g>
<!-- Node38 -->
<g id="node38" class="node"><title>Node38</title>
<g id="a_node38"><a xlink:href="../../d6/d6f/TPC_2reconstruction_2include_2TPCReconstruction_2Cluster_8h.html" target="_top" xlink:title="TPCReconstruction/Cluster.h">
<polygon fill="none" stroke="black" points="72,-316.5 72,-335.5 218,-335.5 218,-316.5 72,-316.5"/>
<text text-anchor="middle" x="145" y="-323.5" font-family="Helvetica,sans-Serif" font-size="10.00">TPCReconstruction/Cluster.h</text>
</a>
</g>
</g>
<!-- Node2&#45;&gt;Node38 -->
<g id="edge54" class="edge"><title>Node2&#45;&gt;Node38</title>
<path fill="none" stroke="midnightblue" d="M1559.18,-380.434C1344.42,-378.48 736.441,-370.115 232,-336 230.722,-335.914 229.433,-335.823 228.136,-335.729"/>
<polygon fill="midnightblue" stroke="midnightblue" points="228.312,-332.232 218.069,-334.94 227.765,-339.21 228.312,-332.232"/>
</g>
<!-- Node41 -->
<g id="node41" class="node"><title>Node41</title>
<g id="a_node41"><a xlink:href="../../de/dcd/ClusterNative_8h.html" target="_top" xlink:title="Class of a TPC cluster in TPC&#45;native coordinates (row, time) ">
<polygon fill="none" stroke="black" points="1997.5,-316.5 1997.5,-335.5 2162.5,-335.5 2162.5,-316.5 1997.5,-316.5"/>
<text text-anchor="middle" x="2080" y="-323.5" font-family="Helvetica,sans-Serif" font-size="10.00">DataFormatsTPC/ClusterNative.h</text>
</a>
</g>
</g>
<!-- Node2&#45;&gt;Node41 -->
<g id="edge57" class="edge"><title>Node2&#45;&gt;Node41</title>
<path fill="none" stroke="midnightblue" d="M1708.88,-372.444C1788.15,-362.737 1917.17,-346.939 2000.29,-336.76"/>
<polygon fill="midnightblue" stroke="midnightblue" points="2000.95,-340.206 2010.45,-335.516 2000.1,-333.258 2000.95,-340.206"/>
</g>
<!-- Node4 -->
<g id="node4" class="node"><title>Node4</title>
<polygon fill="none" stroke="#bfbfbf" points="1466,-74.5 1466,-93.5 1522,-93.5 1522,-74.5 1466,-74.5"/>
<text text-anchor="middle" x="1494" y="-81.5" font-family="Helvetica,sans-Serif" font-size="10.00">Rtypes.h</text>
</g>
<!-- Node3&#45;&gt;Node4 -->
<g id="edge3" class="edge"><title>Node3&#45;&gt;Node4</title>
<path fill="none" stroke="midnightblue" d="M1626.12,-316.225C1614.7,-307.937 1598.14,-294.623 1587,-280 1542.91,-222.146 1512.25,-140.037 1499.97,-103.625"/>
<polygon fill="midnightblue" stroke="midnightblue" points="1503.21,-102.272 1496.76,-93.869 1496.56,-104.462 1503.21,-102.272"/>
</g>
<!-- Node5 -->
<g id="node5" class="node"><title>Node5</title>
<polygon fill="none" stroke="#bfbfbf" points="1667,-254.5 1667,-273.5 1723,-273.5 1723,-254.5 1667,-254.5"/>
<text text-anchor="middle" x="1695" y="-261.5" font-family="Helvetica,sans-Serif" font-size="10.00">algorithm</text>
</g>
<!-- Node3&#45;&gt;Node5 -->
<g id="edge4" class="edge"><title>Node3&#45;&gt;Node5</title>
<path fill="none" stroke="midnightblue" d="M1647.02,-316.403C1655.59,-307.225 1669.36,-292.47 1679.96,-281.117"/>
<polygon fill="midnightblue" stroke="midnightblue" points="1682.73,-283.279 1686.99,-273.581 1677.61,-278.503 1682.73,-283.279"/>
</g>
<!-- Node6 -->
<g id="node6" class="node"><title>Node6</title>
<polygon fill="none" stroke="#bfbfbf" points="2099,-6.5 2099,-25.5 2137,-25.5 2137,-6.5 2099,-6.5"/>
<text text-anchor="middle" x="2118" y="-13.5" font-family="Helvetica,sans-Serif" font-size="10.00">array</text>
</g>
<!-- Node3&#45;&gt;Node6 -->
<g id="edge5" class="edge"><title>Node3&#45;&gt;Node6</title>
<path fill="none" stroke="midnightblue" d="M1698,-324.407C1798.9,-322.463 1999.58,-314.265 2060,-280 2097.27,-258.866 2118,-245.845 2118,-203 2118,-203 2118,-203 2118,-145 2118,-106.248 2118,-60.8973 2118,-35.9188"/>
<polygon fill="midnightblue" stroke="midnightblue" points="2121.5,-35.6912 2118,-25.6913 2114.5,-35.6913 2121.5,-35.6912"/>
</g>
<!-- Node7 -->
<g id="node7" class="node"><title>Node7</title>
<polygon fill="none" stroke="#bfbfbf" points="1741.5,-254.5 1741.5,-273.5 1782.5,-273.5 1782.5,-254.5 1741.5,-254.5"/>
<text text-anchor="middle" x="1762" y="-261.5" font-family="Helvetica,sans-Serif" font-size="10.00">cfloat</text>
</g>
<!-- Node3&#45;&gt;Node7 -->
<g id="edge6" class="edge"><title>Node3&#45;&gt;Node7</title>
<path fill="none" stroke="midnightblue" d="M1656.62,-316.403C1677.17,-306.379 1711.36,-289.701 1735.21,-278.07"/>
<polygon fill="midnightblue" stroke="midnightblue" points="1736.96,-281.111 1744.41,-273.581 1733.89,-274.819 1736.96,-281.111"/>
</g>
<!-- Node8 -->
<g id="node8" class="node"><title>Node8</title>
<polygon fill="none" stroke="#bfbfbf" points="198,-6.5 198,-25.5 242,-25.5 242,-6.5 198,-6.5"/>
<text text-anchor="middle" x="220" y="-13.5" font-family="Helvetica,sans-Serif" font-size="10.00">cmath</text>
</g>
<!-- Node3&#45;&gt;Node8 -->
<g id="edge7" class="edge"><title>Node3&#45;&gt;Node8</title>
<path fill="none" stroke="midnightblue" d="M1579.86,-324.299C1328.79,-320.776 359.375,-301.434 260,-212 209.265,-166.34 213.006,-75.0673 217.364,-35.7394"/>
<polygon fill="midnightblue" stroke="midnightblue" points="220.851,-36.0627 218.621,-25.7052 213.905,-35.1926 220.851,-36.0627"/>
</g>
<!-- Node9 -->
<g id="node9" class="node"><title>Node9</title>
<polygon fill="none" stroke="#bfbfbf" points="1801,-254.5 1801,-273.5 1847,-273.5 1847,-254.5 1801,-254.5"/>
<text text-anchor="middle" x="1824" y="-261.5" font-family="Helvetica,sans-Serif" font-size="10.00">cstring</text>
</g>
<!-- Node3&#45;&gt;Node9 -->
<g id="edge8" class="edge"><title>Node3&#45;&gt;Node9</title>
<path fill="none" stroke="midnightblue" d="M1672.65,-316.479C1703.74,-308.267 1751.04,-294.917 1791,-280 1792.9,-279.29 1794.85,-278.521 1796.8,-277.719"/>
<polygon fill="midnightblue" stroke="midnightblue" points="1798.6,-280.751 1806.38,-273.555 1795.81,-274.331 1798.6,-280.751"/>
</g>
<!-- Node10 -->
<g id="node10" class="node"><title>Node10</title>
<polygon fill="none" stroke="#bfbfbf" points="417,-74.5 417,-93.5 471,-93.5 471,-74.5 417,-74.5"/>
<text text-anchor="middle" x="444" y="-81.5" font-family="Helvetica,sans-Serif" font-size="10.00">iostream</text>
</g>
<!-- Node3&#45;&gt;Node10 -->
<g id="edge9" class="edge"><title>Node3&#45;&gt;Node10</title>
<path fill="none" stroke="midnightblue" d="M1579.76,-323.474C1482.88,-320.173 1284.83,-310.049 1120,-280 829.311,-227.005 759.105,-197 480,-100 477.594,-99.1637 475.117,-98.2492 472.643,-97.2976"/>
<polygon fill="midnightblue" stroke="midnightblue" points="473.849,-94.0103 463.265,-93.5301 471.239,-100.506 473.849,-94.0103"/>
</g>
<!-- Node11 -->
<g id="node11" class="node"><title>Node11</title>
<polygon fill="none" stroke="#bfbfbf" points="1865.5,-254.5 1865.5,-273.5 1948.5,-273.5 1948.5,-254.5 1865.5,-254.5"/>
<text text-anchor="middle" x="1907" y="-261.5" font-family="Helvetica,sans-Serif" font-size="10.00">Math/SMatrix.h</text>
</g>
<!-- Node3&#45;&gt;Node11 -->
<g id="edge10" class="edge"><title>Node3&#45;&gt;Node11</title>
<path fill="none" stroke="midnightblue" d="M1685.81,-316.436C1729.93,-308.096 1797.78,-294.574 1856,-280 1860.45,-278.886 1865.1,-277.639 1869.69,-276.352"/>
<polygon fill="midnightblue" stroke="midnightblue" points="1870.94,-279.635 1879.59,-273.509 1869.01,-272.908 1870.94,-279.635"/>
</g>
<!-- Node12 -->
<g id="node12" class="node"><title>Node12</title>
<polygon fill="none" stroke="#bfbfbf" points="1966.5,-254.5 1966.5,-273.5 2051.5,-273.5 2051.5,-254.5 1966.5,-254.5"/>
<text text-anchor="middle" x="2009" y="-261.5" font-family="Helvetica,sans-Serif" font-size="10.00">Math/SVector.h</text>
</g>
<!-- Node3&#45;&gt;Node12 -->
<g id="edge11" class="edge"><title>Node3&#45;&gt;Node12</title>
<path fill="none" stroke="midnightblue" d="M1698.04,-319.152C1762.22,-312.215 1867.58,-299.126 1957,-280 1962.04,-278.922 1967.31,-277.618 1972.47,-276.233"/>
<polygon fill="midnightblue" stroke="midnightblue" points="1973.51,-279.578 1982.19,-273.511 1971.62,-272.837 1973.51,-279.578"/>
</g>
<!-- Node13 -->
<g id="node13" class="node"><title>Node13</title>
<g id="a_node13"><a xlink:href="../../d4/de2/BaseCluster_8h.html" target="_top" xlink:title="DetectorsBase/BaseCluster.h">
<polygon fill="none" stroke="black" points="1129.5,-254.5 1129.5,-273.5 1276.5,-273.5 1276.5,-254.5 1129.5,-254.5"/>
<text text-anchor="middle" x="1203" y="-261.5" font-family="Helvetica,sans-Serif" font-size="10.00">DetectorsBase/BaseCluster.h</text>
</a>
</g>
</g>
<!-- Node3&#45;&gt;Node13 -->
<g id="edge12" class="edge"><title>Node3&#45;&gt;Node13</title>
<path fill="none" stroke="midnightblue" d="M1579.79,-318.079C1510.46,-309.805 1392.22,-295.164 1291,-280 1281.23,-278.536 1270.87,-276.871 1260.82,-275.196"/>
<polygon fill="midnightblue" stroke="midnightblue" points="1261.34,-271.735 1250.9,-273.524 1260.18,-278.638 1261.34,-271.735"/>
</g>
<!-- Node18 -->
<g id="node18" class="node"><title>Node18</title>
<g id="a_node18"><a xlink:href="../../dd/d76/Cartesian3D_8h.html" target="_top" xlink:title="MathUtils/Cartesian3D.h">
<polygon fill="none" stroke="black" points="958.5,-136.5 958.5,-155.5 1083.5,-155.5 1083.5,-136.5 958.5,-136.5"/>
<text text-anchor="middle" x="1021" y="-143.5" font-family="Helvetica,sans-Serif" font-size="10.00">MathUtils/Cartesian3D.h</text>
</a>
</g>
</g>
<!-- Node3&#45;&gt;Node18 -->
<g id="edge49" class="edge"><title>Node3&#45;&gt;Node18</title>
<path fill="none" stroke="midnightblue" d="M1615.96,-316.453C1544.96,-290.187 1329.9,-211.263 1258,-192 1201.73,-176.924 1136.63,-164.946 1088.92,-157.149"/>
<polygon fill="midnightblue" stroke="midnightblue" points="1089.44,-153.688 1079.01,-155.55 1088.32,-160.599 1089.44,-153.688"/>
</g>
<!-- Node34 -->
<g id="node34" class="node"><title>Node34</title>
<g id="a_node34"><a xlink:href="../../d9/ded/Utils_8h.html" target="_top" xlink:title="DetectorsBase/Utils.h">
<polygon fill="none" stroke="black" points="1849.5,-74.5 1849.5,-93.5 1962.5,-93.5 1962.5,-74.5 1849.5,-74.5"/>
<text text-anchor="middle" x="1906" y="-81.5" font-family="Helvetica,sans-Serif" font-size="10.00">DetectorsBase/Utils.h</text>
</a>
</g>
</g>
<!-- Node3&#45;&gt;Node34 -->
<g id="edge48" class="edge"><title>Node3&#45;&gt;Node34</title>
<path fill="none" stroke="midnightblue" d="M1633.48,-316.03C1624.82,-300.677 1610.44,-268.989 1625,-248 1691.53,-152.087 1784.43,-234.306 1871,-156 1886.57,-141.918 1896.02,-119.363 1901.11,-103.46"/>
<polygon fill="midnightblue" stroke="midnightblue" points="1904.52,-104.279 1903.96,-93.6986 1897.8,-102.317 1904.52,-104.279"/>
</g>
<!-- Node35 -->
<g id="node35" class="node"><title>Node35</title>
<g id="a_node35"><a xlink:href="../../d1/daa/Base_2include_2DetectorsBase_2Constants_8h.html" target="_top" xlink:title="DetectorsBase/Constants.h">
<polygon fill="none" stroke="black" points="1890,-6.5 1890,-25.5 2028,-25.5 2028,-6.5 1890,-6.5"/>
<text text-anchor="middle" x="1959" y="-13.5" font-family="Helvetica,sans-Serif" font-size="10.00">DetectorsBase/Constants.h</text>
</a>
</g>
</g>
<!-- Node3&#45;&gt;Node35 -->
<g id="edge47" class="edge"><title>Node3&#45;&gt;Node35</title>
<path fill="none" stroke="midnightblue" d="M1638.7,-316.21C1638.65,-300.565 1640.77,-267.684 1658,-248 1667.2,-237.49 1879.71,-162.643 1892,-156 1929.86,-135.532 1951.24,-138.232 1971,-100 1981.57,-79.5423 1974.5,-52.6793 1967.55,-35.1359"/>
<polygon fill="midnightblue" stroke="midnightblue" points="1970.59,-33.3401 1963.4,-25.5576 1964.16,-36.1246 1970.59,-33.3401"/>
</g>
<!-- Node13&#45;&gt;Node10 -->
<g id="edge17" class="edge"><title>Node13&#45;&gt;Node10</title>
<path fill="none" stroke="midnightblue" d="M1171.14,-254.495C1089.96,-232.981 868.524,-175.314 682,-136 592.768,-117.192 567.499,-125.69 480,-100 477.351,-99.2221 474.632,-98.3114 471.933,-97.33"/>
<polygon fill="midnightblue" stroke="midnightblue" points="472.992,-93.9854 462.405,-93.5763 470.426,-100.498 472.992,-93.9854"/>
</g>
<!-- Node14 -->
<g id="node14" class="node"><title>Node14</title>
<polygon fill="none" stroke="#bfbfbf" points="1173.5,-192.5 1173.5,-211.5 1232.5,-211.5 1232.5,-192.5 1173.5,-192.5"/>
<text text-anchor="middle" x="1203" y="-199.5" font-family="Helvetica,sans-Serif" font-size="10.00">TObject.h</text>
</g>
<!-- Node13&#45;&gt;Node14 -->
<g id="edge13" class="edge"><title>Node13&#45;&gt;Node14</title>
<path fill="none" stroke="midnightblue" d="M1203,-254.403C1203,-245.938 1203,-232.728 1203,-221.82"/>
<polygon fill="midnightblue" stroke="midnightblue" points="1206.5,-221.581 1203,-211.581 1199.5,-221.581 1206.5,-221.581"/>
</g>
<!-- Node15 -->
<g id="node15" class="node"><title>Node15</title>
<polygon fill="none" stroke="#bfbfbf" points="1790.5,-74.5 1790.5,-93.5 1831.5,-93.5 1831.5,-74.5 1790.5,-74.5"/>
<text text-anchor="middle" x="1811" y="-81.5" font-family="Helvetica,sans-Serif" font-size="10.00">bitset</text>
</g>
<!-- Node13&#45;&gt;Node15 -->
<g id="edge14" class="edge"><title>Node13&#45;&gt;Node15</title>
<path fill="none" stroke="midnightblue" d="M1276.63,-259.154C1380.05,-251.273 1572,-227.456 1718,-156 1747.48,-141.573 1776.79,-117.077 1794.4,-100.968"/>
<polygon fill="midnightblue" stroke="midnightblue" points="1797.14,-103.198 1802.06,-93.8138 1792.36,-98.0832 1797.14,-103.198"/>
</g>
<!-- Node16 -->
<g id="node16" class="node"><title>Node16</title>
<polygon fill="none" stroke="#bfbfbf" points="1058,-192.5 1058,-211.5 1108,-211.5 1108,-192.5 1058,-192.5"/>
<text text-anchor="middle" x="1083" y="-199.5" font-family="Helvetica,sans-Serif" font-size="10.00">iomanip</text>
</g>
<!-- Node13&#45;&gt;Node16 -->
<g id="edge15" class="edge"><title>Node13&#45;&gt;Node16</title>
<path fill="none" stroke="midnightblue" d="M1185.81,-254.403C1165.76,-244.379 1132.4,-227.701 1109.14,-216.07"/>
<polygon fill="midnightblue" stroke="midnightblue" points="1110.67,-212.922 1100.16,-211.581 1107.54,-219.183 1110.67,-212.922"/>
</g>
<!-- Node17 -->
<g id="node17" class="node"><title>Node17</title>
<polygon fill="none" stroke="#bfbfbf" points="1126.5,-192.5 1126.5,-211.5 1155.5,-211.5 1155.5,-192.5 1126.5,-192.5"/>
<text text-anchor="middle" x="1141" y="-199.5" font-family="Helvetica,sans-Serif" font-size="10.00">ios</text>
</g>
<!-- Node13&#45;&gt;Node17 -->
<g id="edge16" class="edge"><title>Node13&#45;&gt;Node17</title>
<path fill="none" stroke="midnightblue" d="M1194.12,-254.403C1184.54,-245.136 1169.09,-230.183 1157.31,-218.788"/>
<polygon fill="midnightblue" stroke="midnightblue" points="1159.49,-216.02 1149.87,-211.581 1154.62,-221.05 1159.49,-216.02"/>
</g>
<!-- Node13&#45;&gt;Node18 -->
<g id="edge18" class="edge"><title>Node13&#45;&gt;Node18</title>
<path fill="none" stroke="midnightblue" d="M1213.66,-254.496C1229.93,-240.498 1257.44,-212.146 1241,-192 1222.54,-169.384 1150.39,-157.829 1093.69,-152.133"/>
<polygon fill="midnightblue" stroke="midnightblue" points="1093.94,-148.642 1083.65,-151.169 1093.27,-155.609 1093.94,-148.642"/>
</g>
<!-- Node28 -->
<g id="node28" class="node"><title>Node28</title>
<g id="a_node28"><a xlink:href="../../d4/d20/DetMatrixCache_8h.html" target="_top" xlink:title="DetectorsBase/DetMatrixCache.h">
<polygon fill="none" stroke="black" points="1333,-192.5 1333,-211.5 1497,-211.5 1497,-192.5 1333,-192.5"/>
<text text-anchor="middle" x="1415" y="-199.5" font-family="Helvetica,sans-Serif" font-size="10.00">DetectorsBase/DetMatrixCache.h</text>
</a>
</g>
</g>
<!-- Node13&#45;&gt;Node28 -->
<g id="edge30" class="edge"><title>Node13&#45;&gt;Node28</title>
<path fill="none" stroke="midnightblue" d="M1233.37,-254.403C1270.61,-243.866 1333.81,-225.978 1374.98,-214.328"/>
<polygon fill="midnightblue" stroke="midnightblue" points="1376.01,-217.672 1384.68,-211.581 1374.11,-210.936 1376.01,-217.672"/>
</g>
<!-- Node18&#45;&gt;Node4 -->
<g id="edge22" class="edge"><title>Node18&#45;&gt;Node4</title>
<path fill="none" stroke="midnightblue" d="M1083.68,-144.053C1169.25,-141.518 1326.85,-132.402 1457,-100 1460.06,-99.2376 1463.21,-98.2718 1466.3,-97.1993"/>
<polygon fill="midnightblue" stroke="midnightblue" points="1467.81,-100.371 1475.9,-93.527 1465.31,-93.8334 1467.81,-100.371"/>
</g>
<!-- Node18&#45;&gt;Node10 -->
<g id="edge29" class="edge"><title>Node18&#45;&gt;Node10</title>
<path fill="none" stroke="midnightblue" d="M958.225,-142.234C835.76,-136.434 569.168,-121.716 480,-100 477.005,-99.2705 473.936,-98.326 470.915,-97.2661"/>
<polygon fill="midnightblue" stroke="midnightblue" points="472.162,-93.9957 461.574,-93.6087 469.61,-100.514 472.162,-93.9957"/>
</g>
<!-- Node19 -->
<g id="node19" class="node"><title>Node19</title>
<polygon fill="none" stroke="#bfbfbf" points="946.5,-74.5 946.5,-93.5 1095.5,-93.5 1095.5,-74.5 946.5,-74.5"/>
<text text-anchor="middle" x="1021" y="-81.5" font-family="Helvetica,sans-Serif" font-size="10.00">Math/GenVector/Rotation3D.h</text>
</g>
<!-- Node18&#45;&gt;Node19 -->
<g id="edge19" class="edge"><title>Node18&#45;&gt;Node19</title>
<path fill="none" stroke="midnightblue" d="M1021,-136.403C1021,-127.938 1021,-114.728 1021,-103.82"/>
<polygon fill="midnightblue" stroke="midnightblue" points="1024.5,-103.581 1021,-93.5806 1017.5,-103.581 1024.5,-103.581"/>
</g>
<!-- Node20 -->
<g id="node20" class="node"><title>Node20</title>
<polygon fill="none" stroke="#bfbfbf" points="1292,-74.5 1292,-93.5 1448,-93.5 1448,-74.5 1292,-74.5"/>
<text text-anchor="middle" x="1370" y="-81.5" font-family="Helvetica,sans-Serif" font-size="10.00">Math/GenVector/Transform3D.h</text>
</g>
<!-- Node18&#45;&gt;Node20 -->
<g id="edge20" class="edge"><title>Node18&#45;&gt;Node20</title>
<path fill="none" stroke="midnightblue" d="M1070.74,-136.466C1123.44,-127.423 1209.09,-112.719 1283,-100 1291.87,-98.4729 1301.26,-96.8567 1310.45,-95.2727"/>
<polygon fill="midnightblue" stroke="midnightblue" points="1311.05,-98.7202 1320.31,-93.5724 1309.86,-91.822 1311.05,-98.7202"/>
</g>
<!-- Node21 -->
<g id="node21" class="node"><title>Node21</title>
<polygon fill="none" stroke="#bfbfbf" points="1114,-74.5 1114,-93.5 1274,-93.5 1274,-74.5 1114,-74.5"/>
<text text-anchor="middle" x="1194" y="-81.5" font-family="Helvetica,sans-Serif" font-size="10.00">Math/GenVector/Translation3D.h</text>
</g>
<!-- Node18&#45;&gt;Node21 -->
<g id="edge21" class="edge"><title>Node18&#45;&gt;Node21</title>
<path fill="none" stroke="midnightblue" d="M1045.79,-136.403C1075.59,-126.067 1125.79,-108.656 1159.4,-96.9994"/>
<polygon fill="midnightblue" stroke="midnightblue" points="1160.96,-100.164 1169.26,-93.5806 1158.66,-93.5506 1160.96,-100.164"/>
</g>
<!-- Node22 -->
<g id="node22" class="node"><title>Node22</title>
<polygon fill="none" stroke="#bfbfbf" points="489,-74.5 489,-93.5 565,-93.5 565,-74.5 489,-74.5"/>
<text text-anchor="middle" x="527" y="-81.5" font-family="Helvetica,sans-Serif" font-size="10.00">TGeoMatrix.h</text>
</g>
<!-- Node18&#45;&gt;Node22 -->
<g id="edge23" class="edge"><title>Node18&#45;&gt;Node22</title>
<path fill="none" stroke="midnightblue" d="M958.186,-142.803C871.112,-138.826 709.173,-128.053 574,-100 569.539,-99.0743 564.904,-97.8857 560.358,-96.5835"/>
<polygon fill="midnightblue" stroke="midnightblue" points="561.24,-93.1932 550.653,-93.6092 559.189,-99.8859 561.24,-93.1932"/>
</g>
<!-- Node23 -->
<g id="node23" class="node"><title>Node23</title>
<polygon fill="none" stroke="#bfbfbf" points="583.5,-69 583.5,-99 734.5,-99 734.5,-69 583.5,-69"/>
<text text-anchor="start" x="591.5" y="-87" font-family="Helvetica,sans-Serif" font-size="10.00">Math/GenVector/Displacement</text>
<text text-anchor="middle" x="659" y="-76" font-family="Helvetica,sans-Serif" font-size="10.00">Vector3D.h</text>
</g>
<!-- Node18&#45;&gt;Node23 -->
<g id="edge24" class="edge"><title>Node18&#45;&gt;Node23</title>
<path fill="none" stroke="midnightblue" d="M967.085,-136.464C913.364,-127.909 828.247,-114.218 744.477,-100.067"/>
<polygon fill="midnightblue" stroke="midnightblue" points="744.978,-96.6026 734.535,-98.3846 743.81,-103.504 744.978,-96.6026"/>
</g>
<!-- Node24 -->
<g id="node24" class="node"><title>Node24</title>
<polygon fill="none" stroke="#bfbfbf" points="753,-74.5 753,-93.5 929,-93.5 929,-74.5 753,-74.5"/>
<text text-anchor="middle" x="841" y="-81.5" font-family="Helvetica,sans-Serif" font-size="10.00">Math/GenVector/PositionVector3D.h</text>
</g>
<!-- Node18&#45;&gt;Node24 -->
<g id="edge25" class="edge"><title>Node18&#45;&gt;Node24</title>
<path fill="none" stroke="midnightblue" d="M995.21,-136.403C964.067,-126.022 911.519,-108.506 876.547,-96.849"/>
<polygon fill="midnightblue" stroke="midnightblue" points="877.335,-93.4225 866.742,-93.5806 875.122,-100.063 877.335,-93.4225"/>
</g>
<!-- Node25 -->
<g id="node25" class="node"><title>Node25</title>
<g id="a_node25"><a xlink:href="../../d2/dd0/Cartesian2D_8h.html" target="_top" xlink:title="MathUtils/Cartesian2D.h">
<polygon fill="none" stroke="black" points="273.5,-74.5 273.5,-93.5 398.5,-93.5 398.5,-74.5 273.5,-74.5"/>
<text text-anchor="middle" x="336" y="-81.5" font-family="Helvetica,sans-Serif" font-size="10.00">MathUtils/Cartesian2D.h</text>
</a>
</g>
</g>
<!-- Node18&#45;&gt;Node25 -->
<g id="edge26" class="edge"><title>Node18&#45;&gt;Node25</title>
<path fill="none" stroke="midnightblue" d="M958.496,-143.138C847.298,-139.219 607.991,-128.048 408,-100 399.639,-98.8274 390.793,-97.2597 382.271,-95.5794"/>
<polygon fill="midnightblue" stroke="midnightblue" points="382.963,-92.1485 372.464,-93.5719 381.559,-99.0063 382.963,-92.1485"/>
</g>
<!-- Node26 -->
<g id="node26" class="node"><title>Node26</title>
<polygon fill="none" stroke="#bfbfbf" points="260.5,-1 260.5,-31 411.5,-31 411.5,-1 260.5,-1"/>
<text text-anchor="start" x="268.5" y="-19" font-family="Helvetica,sans-Serif" font-size="10.00">Math/GenVector/Displacement</text>
<text text-anchor="middle" x="336" y="-8" font-family="Helvetica,sans-Serif" font-size="10.00">Vector2D.h</text>
</g>
<!-- Node25&#45;&gt;Node26 -->
<g id="edge27" class="edge"><title>Node25&#45;&gt;Node26</title>
<path fill="none" stroke="midnightblue" d="M336,-74.3717C336,-65.9715 336,-52.811 336,-41.2126"/>
<polygon fill="midnightblue" stroke="midnightblue" points="339.5,-41.1814 336,-31.1815 332.5,-41.1815 339.5,-41.1814"/>
</g>
<!-- Node27 -->
<g id="node27" class="node"><title>Node27</title>
<polygon fill="none" stroke="#bfbfbf" points="430,-6.5 430,-25.5 606,-25.5 606,-6.5 430,-6.5"/>
<text text-anchor="middle" x="518" y="-13.5" font-family="Helvetica,sans-Serif" font-size="10.00">Math/GenVector/PositionVector2D.h</text>
</g>
<!-- Node25&#45;&gt;Node27 -->
<g id="edge28" class="edge"><title>Node25&#45;&gt;Node27</title>
<path fill="none" stroke="midnightblue" d="M359.793,-74.3717C391.764,-62.7779 448.74,-42.1162 484.885,-29.0087"/>
<polygon fill="midnightblue" stroke="midnightblue" points="486.282,-32.2254 494.489,-25.5259 483.895,-25.6447 486.282,-32.2254"/>
</g>
<!-- Node28&#45;&gt;Node4 -->
<g id="edge45" class="edge"><title>Node28&#45;&gt;Node4</title>
<path fill="none" stroke="midnightblue" d="M1425.02,-192.46C1434.6,-183.929 1449.02,-170.09 1459,-156 1470.76,-139.393 1480.62,-118.246 1486.85,-103.365"/>
<polygon fill="midnightblue" stroke="midnightblue" points="1490.22,-104.375 1490.72,-93.7921 1483.73,-101.753 1490.22,-104.375"/>
</g>
<!-- Node28&#45;&gt;Node6 -->
<g id="edge32" class="edge"><title>Node28&#45;&gt;Node6</title>
<path fill="none" stroke="midnightblue" d="M1481.72,-192.465C1543.26,-184.267 1637.07,-170.947 1718,-156 1721.54,-155.346 1967.64,-101.288 1971,-100 2018.7,-81.7223 2069.59,-49.8583 2097.21,-31.3811"/>
<polygon fill="midnightblue" stroke="midnightblue" points="2099.33,-34.1723 2105.65,-25.6671 2095.41,-28.3762 2099.33,-34.1723"/>
</g>
<!-- Node28&#45;&gt;Node18 -->
<g id="edge33" class="edge"><title>Node28&#45;&gt;Node18</title>
<path fill="none" stroke="midnightblue" d="M1352.57,-192.444C1282.11,-182.786 1167.65,-167.099 1093.35,-156.916"/>
<polygon fill="midnightblue" stroke="midnightblue" points="1093.52,-153.407 1083.14,-155.516 1092.57,-160.342 1093.52,-153.407"/>
</g>
<!-- Node29 -->
<g id="node29" class="node"><title>Node29</title>
<polygon fill="none" stroke="#bfbfbf" points="1819,-136.5 1819,-155.5 1863,-155.5 1863,-136.5 1819,-136.5"/>
<text text-anchor="middle" x="1841" y="-143.5" font-family="Helvetica,sans-Serif" font-size="10.00">vector</text>
</g>
<!-- Node28&#45;&gt;Node29 -->
<g id="edge31" class="edge"><title>Node28&#45;&gt;Node29</title>
<path fill="none" stroke="midnightblue" d="M1497.25,-194.64C1576.5,-187.776 1699.55,-175.18 1805,-156 1806.25,-155.773 1807.52,-155.528 1808.8,-155.268"/>
<polygon fill="midnightblue" stroke="midnightblue" points="1809.63,-158.668 1818.63,-153.071 1808.11,-151.836 1809.63,-158.668"/>
</g>
<!-- Node30 -->
<g id="node30" class="node"><title>Node30</title>
<g id="a_node30"><a xlink:href="../../d6/d31/DetID_8h.html" target="_top" xlink:title="DetectorsBase/DetID.h">
<polygon fill="none" stroke="black" points="1590.5,-136.5 1590.5,-155.5 1709.5,-155.5 1709.5,-136.5 1590.5,-136.5"/>
<text text-anchor="middle" x="1650" y="-143.5" font-family="Helvetica,sans-Serif" font-size="10.00">DetectorsBase/DetID.h</text>
</a>
</g>
</g>
<!-- Node28&#45;&gt;Node30 -->
<g id="edge34" class="edge"><title>Node28&#45;&gt;Node30</title>
<path fill="none" stroke="midnightblue" d="M1452.24,-192.444C1493.06,-183.063 1558.64,-167.993 1602.98,-157.804"/>
<polygon fill="midnightblue" stroke="midnightblue" points="1603.98,-161.167 1612.94,-155.516 1602.41,-154.345 1603.98,-161.167"/>
</g>
<!-- Node36 -->
<g id="node36" class="node"><title>Node36</title>
<polygon fill="none" stroke="#bfbfbf" points="1379.5,-136.5 1379.5,-155.5 1450.5,-155.5 1450.5,-136.5 1379.5,-136.5"/>
<text text-anchor="middle" x="1415" y="-143.5" font-family="Helvetica,sans-Serif" font-size="10.00">FairLogger.h</text>
</g>
<!-- Node28&#45;&gt;Node36 -->
<g id="edge46" class="edge"><title>Node28&#45;&gt;Node36</title>
<path fill="none" stroke="midnightblue" d="M1415,-192.083C1415,-185.006 1415,-174.861 1415,-165.986"/>
<polygon fill="midnightblue" stroke="midnightblue" points="1418.5,-165.751 1415,-155.751 1411.5,-165.751 1418.5,-165.751"/>
</g>
<!-- Node30&#45;&gt;Node4 -->
<g id="edge35" class="edge"><title>Node30&#45;&gt;Node4</title>
<path fill="none" stroke="midnightblue" d="M1626.68,-136.367C1602.64,-127.425 1564.11,-112.97 1531,-100 1528.9,-99.1784 1526.74,-98.3236 1524.57,-97.4573"/>
<polygon fill="midnightblue" stroke="midnightblue" points="1525.68,-94.1335 1515.1,-93.6532 1523.07,-100.629 1525.68,-94.1335"/>
</g>
<!-- Node30&#45;&gt;Node6 -->
<g id="edge36" class="edge"><title>Node30&#45;&gt;Node6</title>
<path fill="none" stroke="midnightblue" d="M1670.79,-136.402C1689.9,-128.137 1718.72,-114.752 1742,-100 1761.23,-87.8137 1761.1,-77.0227 1782,-68 1887.09,-22.6394 1924.04,-50.4249 2037,-32 2054.2,-29.1942 2073.38,-25.6602 2088.76,-22.7273"/>
<polygon fill="midnightblue" stroke="midnightblue" points="2089.57,-26.136 2098.73,-20.8092 2088.25,-19.2622 2089.57,-26.136"/>
</g>
<!-- Node30&#45;&gt;Node15 -->
<g id="edge37" class="edge"><title>Node30&#45;&gt;Node15</title>
<path fill="none" stroke="midnightblue" d="M1675.27,-136.489C1700.83,-127.761 1741.4,-113.577 1776,-100 1777.89,-99.2574 1779.84,-98.4768 1781.79,-97.678"/>
<polygon fill="midnightblue" stroke="midnightblue" points="1783.59,-100.716 1791.47,-93.6244 1780.89,-94.2596 1783.59,-100.716"/>
</g>
<!-- Node31 -->
<g id="node31" class="node"><title>Node31</title>
<polygon fill="none" stroke="#bfbfbf" points="1684.5,-74.5 1684.5,-93.5 1733.5,-93.5 1733.5,-74.5 1684.5,-74.5"/>
<text text-anchor="middle" x="1709" y="-81.5" font-family="Helvetica,sans-Serif" font-size="10.00">cassert</text>
</g>
<!-- Node30&#45;&gt;Node31 -->
<g id="edge38" class="edge"><title>Node30&#45;&gt;Node31</title>
<path fill="none" stroke="midnightblue" d="M1658.45,-136.403C1667.57,-127.136 1682.27,-112.183 1693.48,-100.788"/>
<polygon fill="midnightblue" stroke="midnightblue" points="1696.05,-103.165 1700.56,-93.5806 1691.06,-98.2569 1696.05,-103.165"/>
</g>
<!-- Node32 -->
<g id="node32" class="node"><title>Node32</title>
<polygon fill="none" stroke="#bfbfbf" points="1540,-74.5 1540,-93.5 1586,-93.5 1586,-74.5 1540,-74.5"/>
<text text-anchor="middle" x="1563" y="-81.5" font-family="Helvetica,sans-Serif" font-size="10.00">cstdint</text>
</g>
<!-- Node30&#45;&gt;Node32 -->
<g id="edge39" class="edge"><title>Node30&#45;&gt;Node32</title>
<path fill="none" stroke="midnightblue" d="M1637.54,-136.403C1623.58,-126.78 1600.74,-111.024 1584.01,-99.4891"/>
<polygon fill="midnightblue" stroke="midnightblue" points="1585.66,-96.3767 1575.44,-93.5806 1581.69,-102.139 1585.66,-96.3767"/>
</g>
<!-- Node33 -->
<g id="node33" class="node"><title>Node33</title>
<polygon fill="none" stroke="#bfbfbf" points="1604,-74.5 1604,-93.5 1666,-93.5 1666,-74.5 1604,-74.5"/>
<text text-anchor="middle" x="1635" y="-81.5" font-family="Helvetica,sans-Serif" font-size="10.00">type_traits</text>
</g>
<!-- Node30&#45;&gt;Node33 -->
<g id="edge40" class="edge"><title>Node30&#45;&gt;Node33</title>
<path fill="none" stroke="midnightblue" d="M1647.85,-136.403C1645.71,-127.849 1642.36,-114.45 1639.62,-103.476"/>
<polygon fill="midnightblue" stroke="midnightblue" points="1642.97,-102.433 1637.15,-93.5806 1636.18,-104.131 1642.97,-102.433"/>
</g>
<!-- Node30&#45;&gt;Node34 -->
<g id="edge41" class="edge"><title>Node30&#45;&gt;Node34</title>
<path fill="none" stroke="midnightblue" d="M1686.41,-136.467C1731.99,-125.783 1810.13,-107.469 1859.86,-95.8129"/>
<polygon fill="midnightblue" stroke="midnightblue" points="1860.78,-99.193 1869.72,-93.5034 1859.18,-92.3777 1860.78,-99.193"/>
</g>
<!-- Node34&#45;&gt;Node6 -->
<g id="edge44" class="edge"><title>Node34&#45;&gt;Node6</title>
<path fill="none" stroke="midnightblue" d="M1933.72,-74.3717C1973.96,-61.8413 2048.24,-38.7187 2089.13,-25.9887"/>
<polygon fill="midnightblue" stroke="midnightblue" points="2090.26,-29.3034 2098.76,-22.989 2088.17,-22.6198 2090.26,-29.3034"/>
</g>
<!-- Node34&#45;&gt;Node8 -->
<g id="edge43" class="edge"><title>Node34&#45;&gt;Node8</title>
<path fill="none" stroke="midnightblue" d="M1874.34,-74.4479C1863.53,-71.8916 1851.31,-69.3992 1840,-68 1664.73,-46.3216 422.679,-73.4047 251,-32 248.508,-31.399 245.981,-30.5786 243.501,-29.629"/>
<polygon fill="midnightblue" stroke="midnightblue" points="244.897,-26.4191 234.34,-25.5186 242.031,-32.8057 244.897,-26.4191"/>
</g>
<!-- Node34&#45;&gt;Node35 -->
<g id="edge42" class="edge"><title>Node34&#45;&gt;Node35</title>
<path fill="none" stroke="midnightblue" d="M1912.93,-74.3717C1921.14,-64.1512 1935,-46.884 1945.38,-33.9571"/>
<polygon fill="midnightblue" stroke="midnightblue" points="1948.37,-35.8298 1951.9,-25.8411 1942.91,-31.4468 1948.37,-35.8298"/>
</g>
<!-- Node37&#45;&gt;Node8 -->
<g id="edge51" class="edge"><title>Node37&#45;&gt;Node8</title>
<path fill="none" stroke="midnightblue" d="M310.418,-192.125C295.652,-163.526 249.12,-73.4003 229.198,-34.8145"/>
<polygon fill="midnightblue" stroke="midnightblue" points="232.234,-33.0655 224.536,-25.7857 226.014,-36.2769 232.234,-33.0655"/>
</g>
<!-- Node37&#45;&gt;Node18 -->
<g id="edge53" class="edge"><title>Node37&#45;&gt;Node18</title>
<path fill="none" stroke="midnightblue" d="M361.05,-197.478C480.87,-188.313 803.1,-163.667 948.301,-152.561"/>
<polygon fill="midnightblue" stroke="midnightblue" points="948.741,-156.037 958.445,-151.785 948.207,-149.058 948.741,-156.037"/>
</g>
<!-- Node37&#45;&gt;Node25 -->
<g id="edge52" class="edge"><title>Node37&#45;&gt;Node25</title>
<path fill="none" stroke="midnightblue" d="M316.578,-192.281C319.97,-173.547 328.017,-129.098 332.618,-103.682"/>
<polygon fill="midnightblue" stroke="midnightblue" points="336.123,-103.968 334.46,-93.5048 329.235,-102.721 336.123,-103.968"/>
</g>
<!-- Node39 -->
<g id="node39" class="node"><title>Node39</title>
<polygon fill="none" stroke="#bfbfbf" points="110.5,-249 110.5,-279 205.5,-279 205.5,-249 110.5,-249"/>
<text text-anchor="start" x="118.5" y="-267" font-family="Helvetica,sans-Serif" font-size="10.00">boost/serialization</text>
<text text-anchor="middle" x="158" y="-256" font-family="Helvetica,sans-Serif" font-size="10.00">/base_object.hpp</text>
</g>
<!-- Node38&#45;&gt;Node39 -->
<g id="edge55" class="edge"><title>Node38&#45;&gt;Node39</title>
<path fill="none" stroke="midnightblue" d="M146.863,-316.403C148.409,-309.265 150.687,-298.752 152.78,-289.09"/>
<polygon fill="midnightblue" stroke="midnightblue" points="156.239,-289.655 154.936,-279.141 149.398,-288.173 156.239,-289.655"/>
</g>
<!-- Node40 -->
<g id="node40" class="node"><title>Node40</title>
<polygon fill="none" stroke="#bfbfbf" points="0,-254.5 0,-273.5 92,-273.5 92,-254.5 0,-254.5"/>
<text text-anchor="middle" x="46" y="-261.5" font-family="Helvetica,sans-Serif" font-size="10.00">FairTimeStamp.h</text>
</g>
<!-- Node38&#45;&gt;Node40 -->
<g id="edge56" class="edge"><title>Node38&#45;&gt;Node40</title>
<path fill="none" stroke="midnightblue" d="M130.816,-316.403C114.642,-306.601 87.9736,-290.439 68.8568,-278.853"/>
<polygon fill="midnightblue" stroke="midnightblue" points="70.524,-275.77 60.158,-273.581 66.8959,-281.757 70.524,-275.77"/>
</g>
<!-- Node41&#45;&gt;Node29 -->
<g id="edge58" class="edge"><title>Node41&#45;&gt;Node29</title>
<path fill="none" stroke="midnightblue" d="M2080.05,-316.299C2079.7,-300.795 2076.83,-268.132 2060,-248 2011.08,-189.497 1920.92,-163.115 1872.96,-152.762"/>
<polygon fill="midnightblue" stroke="midnightblue" points="1873.62,-149.324 1863.12,-150.735 1872.2,-156.18 1873.62,-149.324"/>
</g>
<!-- Node42 -->
<g id="node42" class="node"><title>Node42</title>
<g id="a_node42"><a xlink:href="../../d6/d51/TPC_2base_2include_2TPCBase_2Constants_8h.html" target="_top" xlink:title="TPCBase/Constants.h">
<polygon fill="none" stroke="black" points="2146,-254.5 2146,-273.5 2262,-273.5 2262,-254.5 2146,-254.5"/>
<text text-anchor="middle" x="2204" y="-261.5" font-family="Helvetica,sans-Serif" font-size="10.00">TPCBase/Constants.h</text>
</a>
</g>
</g>
<!-- Node41&#45;&gt;Node42 -->
<g id="edge59" class="edge"><title>Node41&#45;&gt;Node42</title>
<path fill="none" stroke="midnightblue" d="M2097.77,-316.403C2118.48,-306.379 2152.95,-289.701 2176.99,-278.07"/>
<polygon fill="midnightblue" stroke="midnightblue" points="2178.79,-281.087 2186.27,-273.581 2175.74,-274.786 2178.79,-281.087"/>
</g>
<!-- Node43&#45;&gt;Node6 -->
<g id="edge61" class="edge"><title>Node43&#45;&gt;Node6</title>
<path fill="none" stroke="midnightblue" d="M2430.83,-316.353C2421.75,-296.702 2401,-246.975 2401,-203 2401,-203 2401,-203 2401,-145 2401,-34.4683 2219.57,-18.8786 2147.24,-17.0549"/>
<polygon fill="midnightblue" stroke="midnightblue" points="2147.07,-13.5513 2137.01,-16.8719 2146.94,-20.5502 2147.07,-13.5513"/>
</g>
<!-- Node44&#45;&gt;Node6 -->
<g id="edge63" class="edge"><title>Node44&#45;&gt;Node6</title>
<path fill="none" stroke="midnightblue" d="M2183.03,-372.398C2220.85,-357.136 2290,-321.503 2290,-265 2290,-265 2290,-265 2290,-145 2290,-74.4561 2195.73,-38.2094 2146.77,-24.1409"/>
<polygon fill="midnightblue" stroke="midnightblue" points="2147.63,-20.7477 2137.06,-21.4711 2145.78,-27.4972 2147.63,-20.7477"/>
</g>
<!-- Node45&#45;&gt;Node6 -->
<g id="edge65" class="edge"><title>Node45&#45;&gt;Node6</title>
<path fill="none" stroke="midnightblue" d="M2326.25,-372.27C2326.79,-352.944 2328,-305.082 2328,-265 2328,-265 2328,-265 2328,-145 2328,-61.1929 2204.55,-30.6526 2146.95,-20.9647"/>
<polygon fill="midnightblue" stroke="midnightblue" points="2147.43,-17.4974 2137.01,-19.3903 2146.34,-24.4112 2147.43,-17.4974"/>
</g>
</g>
</svg>
