<?xml version="1.0" encoding="UTF-8" standalone="no"?>
<!DOCTYPE svg PUBLIC "-//W3C//DTD SVG 1.1//EN"
 "http://www.w3.org/Graphics/SVG/1.1/DTD/svg11.dtd">
<!-- Generated by graphviz version 2.36.0 (20140111.2315)
 -->
<!-- Title: /home/travis/build/AliceO2Group/AliceO2/macro/o2sim.C Pages: 1 -->
<svg width="2021pt" height="286pt"
 viewBox="0.00 0.00 2021.00 286.00" xmlns="http://www.w3.org/2000/svg" xmlns:xlink="http://www.w3.org/1999/xlink">
<g id="graph0" class="graph" transform="scale(1 1) rotate(0) translate(4 282)">
<title>/home/travis/build/AliceO2Group/AliceO2/macro/o2sim.C</title>
<!-- Node1 -->
<g id="node1" class="node"><title>Node1</title>
<polygon fill="#bfbfbf" stroke="black" points="581,-236.5 581,-277.5 699,-277.5 699,-236.5 581,-236.5"/>
<text text-anchor="start" x="589" y="-265.5" font-family="Helvetica,sans-Serif" font-size="10.00">/home/travis/build</text>
<text text-anchor="start" x="589" y="-254.5" font-family="Helvetica,sans-Serif" font-size="10.00">/AliceO2Group/AliceO2</text>
<text text-anchor="middle" x="640" y="-243.5" font-family="Helvetica,sans-Serif" font-size="10.00">/macro/o2sim.C</text>
</g>
<!-- Node2 -->
<g id="node2" class="node"><title>Node2</title>
<polygon fill="none" stroke="#bfbfbf" points="-0.5,-174.5 -0.5,-193.5 92.5,-193.5 92.5,-174.5 -0.5,-174.5"/>
<text text-anchor="middle" x="46" y="-181.5" font-family="Helvetica,sans-Serif" font-size="10.00">build_geometry.C</text>
</g>
<!-- Node1&#45;&gt;Node2 -->
<g id="edge1" class="edge"><title>Node1&#45;&gt;Node2</title>
<path fill="none" stroke="midnightblue" d="M580.927,-253.014C481.267,-247.275 273.7,-232.299 101,-200 95.406,-198.954 89.5502,-197.621 83.8325,-196.183"/>
<polygon fill="midnightblue" stroke="midnightblue" points="84.3387,-192.696 73.7759,-193.52 82.5468,-199.463 84.3387,-192.696"/>
</g>
<!-- Node3 -->
<g id="node3" class="node"><title>Node3</title>
<polygon fill="none" stroke="#bfbfbf" points="110.5,-174.5 110.5,-193.5 211.5,-193.5 211.5,-174.5 110.5,-174.5"/>
<text text-anchor="middle" x="161" y="-181.5" font-family="Helvetica,sans-Serif" font-size="10.00">FairBoxGenerator.h</text>
</g>
<!-- Node1&#45;&gt;Node3 -->
<g id="edge2" class="edge"><title>Node1&#45;&gt;Node3</title>
<path fill="none" stroke="midnightblue" d="M580.682,-250.19C499.191,-241.728 348.228,-224.326 221,-200 214.84,-198.822 208.368,-197.401 202.047,-195.909"/>
<polygon fill="midnightblue" stroke="midnightblue" points="202.849,-192.502 192.304,-193.531 201.188,-199.302 202.849,-192.502"/>
</g>
<!-- Node4 -->
<g id="node4" class="node"><title>Node4</title>
<polygon fill="none" stroke="#bfbfbf" points="230,-174.5 230,-193.5 348,-193.5 348,-174.5 230,-174.5"/>
<text text-anchor="middle" x="289" y="-181.5" font-family="Helvetica,sans-Serif" font-size="10.00">FairPrimaryGenerator.h</text>
</g>
<!-- Node1&#45;&gt;Node4 -->
<g id="edge3" class="edge"><title>Node1&#45;&gt;Node4</title>
<path fill="none" stroke="midnightblue" d="M580.843,-244.683C523.536,-233.627 434.212,-216.153 357,-200 350.481,-198.636 343.618,-197.165 336.862,-195.695"/>
<polygon fill="midnightblue" stroke="midnightblue" points="337.608,-192.275 327.091,-193.556 336.111,-199.113 337.608,-192.275"/>
</g>
<!-- Node5 -->
<g id="node5" class="node"><title>Node5</title>
<polygon fill="none" stroke="#bfbfbf" points="366.5,-174.5 366.5,-193.5 443.5,-193.5 443.5,-174.5 366.5,-174.5"/>
<text text-anchor="middle" x="405" y="-181.5" font-family="Helvetica,sans-Serif" font-size="10.00">TStopwatch.h</text>
</g>
<!-- Node1&#45;&gt;Node5 -->
<g id="edge4" class="edge"><title>Node1&#45;&gt;Node5</title>
<path fill="none" stroke="midnightblue" d="M580.99,-238.525C544.158,-227.568 495.777,-213.088 453,-200 449.407,-198.901 445.666,-197.747 441.928,-196.589"/>
<polygon fill="midnightblue" stroke="midnightblue" points="442.733,-193.174 432.144,-193.545 440.653,-199.858 442.733,-193.174"/>
</g>
<!-- Node6 -->
<g id="node6" class="node"><title>Node6</title>
<polygon fill="none" stroke="#bfbfbf" points="462,-174.5 462,-193.5 514,-193.5 514,-174.5 462,-174.5"/>
<text text-anchor="middle" x="488" y="-181.5" font-family="Helvetica,sans-Serif" font-size="10.00">memory</text>
</g>
<!-- Node1&#45;&gt;Node6 -->
<g id="edge5" class="edge"><title>Node1&#45;&gt;Node6</title>
<path fill="none" stroke="midnightblue" d="M598.063,-236.411C571.767,-224.128 538.611,-208.641 515.597,-197.891"/>
<polygon fill="midnightblue" stroke="midnightblue" points="516.946,-194.658 506.405,-193.597 513.984,-201 516.946,-194.658"/>
</g>
<!-- Node7 -->
<g id="node7" class="node"><title>Node7</title>
<polygon fill="none" stroke="#bfbfbf" points="532.5,-174.5 532.5,-193.5 633.5,-193.5 633.5,-174.5 532.5,-174.5"/>
<text text-anchor="middle" x="583" y="-181.5" font-family="Helvetica,sans-Serif" font-size="10.00">FairParRootFileIo.h</text>
</g>
<!-- Node1&#45;&gt;Node7 -->
<g id="edge6" class="edge"><title>Node1&#45;&gt;Node7</title>
<path fill="none" stroke="midnightblue" d="M624.122,-236.223C615.372,-225.323 604.633,-211.947 596.324,-201.596"/>
<polygon fill="midnightblue" stroke="midnightblue" points="599.002,-199.342 590.013,-193.735 593.544,-203.724 599.002,-199.342"/>
</g>
<!-- Node8 -->
<g id="node8" class="node"><title>Node8</title>
<polygon fill="none" stroke="#bfbfbf" points="652,-174.5 652,-193.5 744,-193.5 744,-174.5 652,-174.5"/>
<text text-anchor="middle" x="698" y="-181.5" font-family="Helvetica,sans-Serif" font-size="10.00">FairSystemInfo.h</text>
</g>
<!-- Node1&#45;&gt;Node8 -->
<g id="edge7" class="edge"><title>Node1&#45;&gt;Node8</title>
<path fill="none" stroke="midnightblue" d="M656.156,-236.223C665.06,-225.323 675.987,-211.947 684.442,-201.596"/>
<polygon fill="midnightblue" stroke="midnightblue" points="687.249,-203.694 690.864,-193.735 681.827,-199.265 687.249,-203.694"/>
</g>
<!-- Node9 -->
<g id="node9" class="node"><title>Node9</title>
<g id="a_node9"><a xlink:href="../../d4/dee/SimConfig_8h.html" target="_top" xlink:title="SimConfig/SimConfig.h">
<polygon fill="none" stroke="black" points="602.5,-112.5 602.5,-131.5 721.5,-131.5 721.5,-112.5 602.5,-112.5"/>
<text text-anchor="middle" x="662" y="-119.5" font-family="Helvetica,sans-Serif" font-size="10.00">SimConfig/SimConfig.h</text>
</a>
</g>
</g>
<!-- Node1&#45;&gt;Node9 -->
<g id="edge8" class="edge"><title>Node1&#45;&gt;Node9</title>
<path fill="none" stroke="midnightblue" d="M699.21,-240.803C719.893,-232.342 740.937,-219.442 753,-200 760.499,-187.915 760.504,-180.082 753,-168 743.283,-152.355 726.338,-141.985 709.684,-135.19"/>
<polygon fill="midnightblue" stroke="midnightblue" points="710.561,-131.782 699.968,-131.589 708.129,-138.346 710.561,-131.782"/>
</g>
<!-- Node11 -->
<g id="node11" class="node"><title>Node11</title>
<g id="a_node11"><a xlink:href="../../de/daf/GeneratorFromFile_8h.html" target="_top" xlink:title="Generators/GeneratorFrom\lFile.h">
<polygon fill="none" stroke="black" points="800.5,-169 800.5,-199 933.5,-199 933.5,-169 800.5,-169"/>
<text text-anchor="start" x="808.5" y="-187" font-family="Helvetica,sans-Serif" font-size="10.00">Generators/GeneratorFrom</text>
<text text-anchor="middle" x="867" y="-176" font-family="Helvetica,sans-Serif" font-size="10.00">File.h</text>
</a>
</g>
</g>
<!-- Node1&#45;&gt;Node11 -->
<g id="edge10" class="edge"><title>Node1&#45;&gt;Node11</title>
<path fill="none" stroke="midnightblue" d="M699.049,-237.531C734.081,-226.574 778.183,-212.78 812.403,-202.077"/>
<polygon fill="midnightblue" stroke="midnightblue" points="813.73,-205.329 822.229,-199.003 811.641,-198.648 813.73,-205.329"/>
</g>
<!-- Node13 -->
<g id="node13" class="node"><title>Node13</title>
<g id="a_node13"><a xlink:href="../../d6/df5/Pythia8Generator_8h.html" target="_top" xlink:title="Generators/Pythia8Generator.h">
<polygon fill="none" stroke="black" points="952,-174.5 952,-193.5 1104,-193.5 1104,-174.5 952,-174.5"/>
<text text-anchor="middle" x="1028" y="-181.5" font-family="Helvetica,sans-Serif" font-size="10.00">Generators/Pythia8Generator.h</text>
</a>
</g>
</g>
<!-- Node1&#45;&gt;Node13 -->
<g id="edge12" class="edge"><title>Node1&#45;&gt;Node13</title>
<path fill="none" stroke="midnightblue" d="M699.351,-245.139C773.355,-231.597 898.94,-208.617 971.56,-195.328"/>
<polygon fill="midnightblue" stroke="midnightblue" points="972.238,-198.762 981.444,-193.519 970.978,-191.876 972.238,-198.762"/>
</g>
<!-- Node19 -->
<g id="node19" class="node"><title>Node19</title>
<polygon fill="none" stroke="#bfbfbf" points="1122,-174.5 1122,-193.5 1196,-193.5 1196,-174.5 1122,-174.5"/>
<text text-anchor="middle" x="1159" y="-181.5" font-family="Helvetica,sans-Serif" font-size="10.00">TVirtualMC.h</text>
</g>
<!-- Node1&#45;&gt;Node19 -->
<g id="edge20" class="edge"><title>Node1&#45;&gt;Node19</title>
<path fill="none" stroke="midnightblue" d="M699.246,-252.749C789.442,-246.957 966.218,-232.289 1113,-200 1117.25,-199.066 1121.65,-197.897 1125.99,-196.625"/>
<polygon fill="midnightblue" stroke="midnightblue" points="1127.35,-199.866 1135.85,-193.536 1125.26,-193.187 1127.35,-199.866"/>
</g>
<!-- Node20 -->
<g id="node20" class="node"><title>Node20</title>
<g id="a_node20"><a xlink:href="../../de/d28/GRPObject_8h.html" target="_top" xlink:title="Header of the General Run Parameters object. ">
<polygon fill="none" stroke="black" points="1617,-169 1617,-199 1741,-199 1741,-169 1617,-169"/>
<text text-anchor="start" x="1625" y="-187" font-family="Helvetica,sans-Serif" font-size="10.00">DataFormatsParameters</text>
<text text-anchor="middle" x="1679" y="-176" font-family="Helvetica,sans-Serif" font-size="10.00">/GRPObject.h</text>
</a>
</g>
</g>
<!-- Node1&#45;&gt;Node20 -->
<g id="edge21" class="edge"><title>Node1&#45;&gt;Node20</title>
<path fill="none" stroke="midnightblue" d="M699.215,-251.954C878.009,-239.736 1412.02,-203.244 1606.85,-189.931"/>
<polygon fill="midnightblue" stroke="midnightblue" points="1607.24,-193.412 1616.97,-189.239 1606.76,-186.429 1607.24,-193.412"/>
</g>
<!-- Node10 -->
<g id="node10" class="node"><title>Node10</title>
<polygon fill="none" stroke="#bfbfbf" points="1358,-56.5 1358,-75.5 1414,-75.5 1414,-56.5 1358,-56.5"/>
<text text-anchor="middle" x="1386" y="-63.5" font-family="Helvetica,sans-Serif" font-size="10.00">Rtypes.h</text>
</g>
<!-- Node9&#45;&gt;Node10 -->
<g id="edge9" class="edge"><title>Node9&#45;&gt;Node10</title>
<path fill="none" stroke="midnightblue" d="M721.813,-112.971C724.918,-112.625 727.995,-112.299 731,-112 964.882,-88.7346 1246.95,-73.753 1347.84,-68.8048"/>
<polygon fill="midnightblue" stroke="midnightblue" points="1348.04,-72.2992 1357.86,-68.3172 1347.7,-65.3075 1348.04,-72.2992"/>
</g>
<!-- Node12 -->
<g id="node12" class="node"><title>Node12</title>
<polygon fill="none" stroke="#bfbfbf" points="740,-112.5 740,-131.5 824,-131.5 824,-112.5 740,-112.5"/>
<text text-anchor="middle" x="782" y="-119.5" font-family="Helvetica,sans-Serif" font-size="10.00">FairGenerator.h</text>
</g>
<!-- Node11&#45;&gt;Node12 -->
<g id="edge11" class="edge"><title>Node11&#45;&gt;Node12</title>
<path fill="none" stroke="midnightblue" d="M846.856,-168.781C833.405,-159.286 815.778,-146.843 802.296,-137.327"/>
<polygon fill="midnightblue" stroke="midnightblue" points="804.309,-134.463 794.121,-131.556 800.272,-140.182 804.309,-134.463"/>
</g>
<!-- Node13&#45;&gt;Node10 -->
<g id="edge16" class="edge"><title>Node13&#45;&gt;Node10</title>
<path fill="none" stroke="midnightblue" d="M1066.3,-174.481C1103.24,-165.722 1160.4,-150.736 1208,-132 1226.13,-124.866 1229.01,-119.468 1247,-112 1280.38,-98.142 1319.67,-85.7687 1347.95,-77.521"/>
<polygon fill="midnightblue" stroke="midnightblue" points="1349.19,-80.8044 1357.83,-74.674 1347.25,-74.0777 1349.19,-80.8044"/>
</g>
<!-- Node13&#45;&gt;Node12 -->
<g id="edge14" class="edge"><title>Node13&#45;&gt;Node12</title>
<path fill="none" stroke="midnightblue" d="M993.015,-174.467C949.3,-163.805 874.435,-145.545 826.633,-133.886"/>
<polygon fill="midnightblue" stroke="midnightblue" points="827.408,-130.473 816.864,-131.503 825.75,-137.273 827.408,-130.473"/>
</g>
<!-- Node14 -->
<g id="node14" class="node"><title>Node14</title>
<polygon fill="none" stroke="#bfbfbf" points="1256.5,-112.5 1256.5,-131.5 1347.5,-131.5 1347.5,-112.5 1256.5,-112.5"/>
<text text-anchor="middle" x="1302" y="-119.5" font-family="Helvetica,sans-Serif" font-size="10.00">Pythia8/Basics.h</text>
</g>
<!-- Node13&#45;&gt;Node14 -->
<g id="edge13" class="edge"><title>Node13&#45;&gt;Node14</title>
<path fill="none" stroke="midnightblue" d="M1066.97,-174.467C1115.96,-163.738 1200.09,-145.316 1253.29,-133.667"/>
<polygon fill="midnightblue" stroke="midnightblue" points="1254.15,-137.062 1263.17,-131.503 1252.65,-130.224 1254.15,-137.062"/>
</g>
<!-- Node15 -->
<g id="node15" class="node"><title>Node15</title>
<polygon fill="none" stroke="#bfbfbf" points="841.5,-112.5 841.5,-131.5 930.5,-131.5 930.5,-112.5 841.5,-112.5"/>
<text text-anchor="middle" x="886" y="-119.5" font-family="Helvetica,sans-Serif" font-size="10.00">Pythia8/Pythia.h</text>
</g>
<!-- Node13&#45;&gt;Node15 -->
<g id="edge15" class="edge"><title>Node13&#45;&gt;Node15</title>
<path fill="none" stroke="midnightblue" d="M1007.65,-174.403C983.613,-164.245 943.403,-147.255 915.837,-135.607"/>
<polygon fill="midnightblue" stroke="midnightblue" points="916.881,-132.249 906.307,-131.581 914.157,-138.697 916.881,-132.249"/>
</g>
<!-- Node16 -->
<g id="node16" class="node"><title>Node16</title>
<polygon fill="none" stroke="#bfbfbf" points="949,-112.5 949,-131.5 1017,-131.5 1017,-112.5 949,-112.5"/>
<text text-anchor="middle" x="983" y="-119.5" font-family="Helvetica,sans-Serif" font-size="10.00">TRandom.h</text>
</g>
<!-- Node13&#45;&gt;Node16 -->
<g id="edge17" class="edge"><title>Node13&#45;&gt;Node16</title>
<path fill="none" stroke="midnightblue" d="M1021.55,-174.403C1014.8,-165.403 1004.03,-151.041 995.587,-139.782"/>
<polygon fill="midnightblue" stroke="midnightblue" points="998.235,-137.481 989.435,-131.581 992.635,-141.681 998.235,-137.481"/>
</g>
<!-- Node17 -->
<g id="node17" class="node"><title>Node17</title>
<polygon fill="none" stroke="#bfbfbf" points="1035.5,-112.5 1035.5,-131.5 1108.5,-131.5 1108.5,-112.5 1035.5,-112.5"/>
<text text-anchor="middle" x="1072" y="-119.5" font-family="Helvetica,sans-Serif" font-size="10.00">TRandom1.h</text>
</g>
<!-- Node13&#45;&gt;Node17 -->
<g id="edge18" class="edge"><title>Node13&#45;&gt;Node17</title>
<path fill="none" stroke="midnightblue" d="M1034.3,-174.403C1040.9,-165.403 1051.44,-151.041 1059.69,-139.782"/>
<polygon fill="midnightblue" stroke="midnightblue" points="1062.62,-141.714 1065.71,-131.581 1056.97,-137.575 1062.62,-141.714"/>
</g>
<!-- Node18 -->
<g id="node18" class="node"><title>Node18</title>
<polygon fill="none" stroke="#bfbfbf" points="1126.5,-112.5 1126.5,-131.5 1199.5,-131.5 1199.5,-112.5 1126.5,-112.5"/>
<text text-anchor="middle" x="1163" y="-119.5" font-family="Helvetica,sans-Serif" font-size="10.00">TRandom3.h</text>
</g>
<!-- Node13&#45;&gt;Node18 -->
<g id="edge19" class="edge"><title>Node13&#45;&gt;Node18</title>
<path fill="none" stroke="midnightblue" d="M1047.34,-174.403C1070.1,-164.29 1108.09,-147.404 1134.29,-135.761"/>
<polygon fill="midnightblue" stroke="midnightblue" points="1135.98,-138.84 1143.69,-131.581 1133.13,-132.444 1135.98,-138.84"/>
</g>
<!-- Node20&#45;&gt;Node10 -->
<g id="edge22" class="edge"><title>Node20&#45;&gt;Node10</title>
<path fill="none" stroke="midnightblue" d="M1708.63,-168.906C1734.38,-154.804 1764.96,-132.342 1747,-112 1725.86,-88.0597 1512.74,-73.8572 1424.23,-68.9506"/>
<polygon fill="midnightblue" stroke="midnightblue" points="1424.25,-65.4466 1414.07,-68.3983 1423.87,-72.4362 1424.25,-65.4466"/>
</g>
<!-- Node21 -->
<g id="node21" class="node"><title>Node21</title>
<polygon fill="none" stroke="#bfbfbf" points="1967,-56.5 1967,-75.5 2013,-75.5 2013,-56.5 1967,-56.5"/>
<text text-anchor="middle" x="1990" y="-63.5" font-family="Helvetica,sans-Serif" font-size="10.00">cstdint</text>
</g>
<!-- Node20&#45;&gt;Node21 -->
<g id="edge23" class="edge"><title>Node20&#45;&gt;Node21</title>
<path fill="none" stroke="midnightblue" d="M1741.09,-179.408C1792.18,-174.301 1865.17,-161.936 1922,-132 1944.47,-120.165 1964.73,-98.7284 1977.17,-83.7194"/>
<polygon fill="midnightblue" stroke="midnightblue" points="1980.04,-85.7403 1983.56,-75.7463 1974.57,-81.3655 1980.04,-85.7403"/>
</g>
<!-- Node22 -->
<g id="node22" class="node"><title>Node22</title>
<polygon fill="none" stroke="#bfbfbf" points="1365.5,-112.5 1365.5,-131.5 1406.5,-131.5 1406.5,-112.5 1365.5,-112.5"/>
<text text-anchor="middle" x="1386" y="-119.5" font-family="Helvetica,sans-Serif" font-size="10.00">ctime</text>
</g>
<!-- Node20&#45;&gt;Node22 -->
<g id="edge24" class="edge"><title>Node20&#45;&gt;Node22</title>
<path fill="none" stroke="midnightblue" d="M1616.97,-173.003C1565.51,-164.259 1490.28,-150.437 1416.45,-132.162"/>
<polygon fill="midnightblue" stroke="midnightblue" points="1417.07,-128.708 1406.52,-129.673 1415.37,-135.498 1417.07,-128.708"/>
</g>
<!-- Node23 -->
<g id="node23" class="node"><title>Node23</title>
<g id="a_node23"><a xlink:href="../../d4/dc6/LHCConstants_8h.html" target="_top" xlink:title="Header to collect LHC related constants. ">
<polygon fill="none" stroke="black" points="1424,-112.5 1424,-131.5 1602,-131.5 1602,-112.5 1424,-112.5"/>
<text text-anchor="middle" x="1513" y="-119.5" font-family="Helvetica,sans-Serif" font-size="10.00">CommonConstants/LHCConstants.h</text>
</a>
</g>
</g>
<!-- Node20&#45;&gt;Node23 -->
<g id="edge25" class="edge"><title>Node20&#45;&gt;Node23</title>
<path fill="none" stroke="midnightblue" d="M1640.08,-168.933C1611.57,-158.629 1573.3,-144.794 1546.22,-135.008"/>
<polygon fill="midnightblue" stroke="midnightblue" points="1547.39,-131.708 1536.79,-131.6 1545.01,-138.291 1547.39,-131.708"/>
</g>
<!-- Node24 -->
<g id="node24" class="node"><title>Node24</title>
<g id="a_node24"><a xlink:href="../../da/d58/Units_8h.html" target="_top" xlink:title="Header to collect definitions for different units. ">
<polygon fill="none" stroke="black" points="1620,-112.5 1620,-131.5 1738,-131.5 1738,-112.5 1620,-112.5"/>
<text text-anchor="middle" x="1679" y="-119.5" font-family="Helvetica,sans-Serif" font-size="10.00">CommonTypes/Units.h</text>
</a>
</g>
</g>
<!-- Node20&#45;&gt;Node24 -->
<g id="edge26" class="edge"><title>Node20&#45;&gt;Node24</title>
<path fill="none" stroke="midnightblue" d="M1679,-168.781C1679,-160.781 1679,-150.689 1679,-142.017"/>
<polygon fill="midnightblue" stroke="midnightblue" points="1682.5,-141.73 1679,-131.731 1675.5,-141.731 1682.5,-141.73"/>
</g>
<!-- Node25 -->
<g id="node25" class="node"><title>Node25</title>
<g id="a_node25"><a xlink:href="../../d6/d31/DetID_8h.html" target="_top" xlink:title="DetectorsBase/DetID.h">
<polygon fill="none" stroke="black" points="1794.5,-112.5 1794.5,-131.5 1913.5,-131.5 1913.5,-112.5 1794.5,-112.5"/>
<text text-anchor="middle" x="1854" y="-119.5" font-family="Helvetica,sans-Serif" font-size="10.00">DetectorsBase/DetID.h</text>
</a>
</g>
</g>
<!-- Node20&#45;&gt;Node25 -->
<g id="edge27" class="edge"><title>Node20&#45;&gt;Node25</title>
<path fill="none" stroke="midnightblue" d="M1720.03,-168.933C1750.3,-158.553 1791.03,-144.589 1819.61,-134.792"/>
<polygon fill="midnightblue" stroke="midnightblue" points="1820.85,-138.067 1829.17,-131.513 1818.58,-131.445 1820.85,-138.067"/>
</g>
<!-- Node25&#45;&gt;Node10 -->
<g id="edge28" class="edge"><title>Node25&#45;&gt;Node10</title>
<path fill="none" stroke="midnightblue" d="M1794.23,-113.693C1789.42,-113.116 1784.63,-112.546 1780,-112 1649.6,-96.6243 1494.83,-79.1837 1424.37,-71.2877"/>
<polygon fill="midnightblue" stroke="midnightblue" points="1424.52,-67.7835 1414.2,-70.1487 1423.74,-74.74 1424.52,-67.7835"/>
</g>
<!-- Node25&#45;&gt;Node21 -->
<g id="edge32" class="edge"><title>Node25&#45;&gt;Node21</title>
<path fill="none" stroke="midnightblue" d="M1875.55,-112.444C1898.03,-103.517 1933.49,-89.4387 1958.98,-79.3168"/>
<polygon fill="midnightblue" stroke="midnightblue" points="1960.55,-82.4598 1968.55,-75.5164 1957.97,-75.9539 1960.55,-82.4598"/>
</g>
<!-- Node26 -->
<g id="node26" class="node"><title>Node26</title>
<polygon fill="none" stroke="#bfbfbf" points="1913,-0.5 1913,-19.5 1951,-19.5 1951,-0.5 1913,-0.5"/>
<text text-anchor="middle" x="1932" y="-7.5" font-family="Helvetica,sans-Serif" font-size="10.00">array</text>
</g>
<!-- Node25&#45;&gt;Node26 -->
<g id="edge29" class="edge"><title>Node25&#45;&gt;Node26</title>
<path fill="none" stroke="midnightblue" d="M1873.59,-112.491C1888.4,-105.029 1908,-92.7471 1919,-76 1927.99,-62.3247 1931,-43.7885 1931.9,-30.0098"/>
<polygon fill="midnightblue" stroke="midnightblue" points="1935.41,-29.879 1932.25,-19.7659 1928.41,-29.6412 1935.41,-29.879"/>
</g>
<!-- Node27 -->
<g id="node27" class="node"><title>Node27</title>
<polygon fill="none" stroke="#bfbfbf" points="1590.5,-56.5 1590.5,-75.5 1631.5,-75.5 1631.5,-56.5 1590.5,-56.5"/>
<text text-anchor="middle" x="1611" y="-63.5" font-family="Helvetica,sans-Serif" font-size="10.00">bitset</text>
</g>
<!-- Node25&#45;&gt;Node27 -->
<g id="edge30" class="edge"><title>Node25&#45;&gt;Node27</title>
<path fill="none" stroke="midnightblue" d="M1808.04,-112.438C1766.84,-104.506 1704.58,-91.8856 1641.34,-75.9106"/>
<polygon fill="midnightblue" stroke="midnightblue" points="1642.15,-72.5054 1631.59,-73.424 1640.42,-79.288 1642.15,-72.5054"/>
</g>
<!-- Node28 -->
<g id="node28" class="node"><title>Node28</title>
<polygon fill="none" stroke="#bfbfbf" points="1649.5,-56.5 1649.5,-75.5 1698.5,-75.5 1698.5,-56.5 1649.5,-56.5"/>
<text text-anchor="middle" x="1674" y="-63.5" font-family="Helvetica,sans-Serif" font-size="10.00">cassert</text>
</g>
<!-- Node25&#45;&gt;Node28 -->
<g id="edge31" class="edge"><title>Node25&#45;&gt;Node28</title>
<path fill="none" stroke="midnightblue" d="M1825.48,-112.444C1793.77,-102.93 1742.55,-87.5637 1708.58,-77.3728"/>
<polygon fill="midnightblue" stroke="midnightblue" points="1709.21,-73.9096 1698.63,-74.3884 1707.2,-80.6144 1709.21,-73.9096"/>
</g>
<!-- Node29 -->
<g id="node29" class="node"><title>Node29</title>
<polygon fill="none" stroke="#bfbfbf" points="1717,-56.5 1717,-75.5 1779,-75.5 1779,-56.5 1717,-56.5"/>
<text text-anchor="middle" x="1748" y="-63.5" font-family="Helvetica,sans-Serif" font-size="10.00">type_traits</text>
</g>
<!-- Node25&#45;&gt;Node29 -->
<g id="edge33" class="edge"><title>Node25&#45;&gt;Node29</title>
<path fill="none" stroke="midnightblue" d="M1836.97,-112.324C1819.97,-103.664 1793.62,-90.2424 1774.01,-80.249"/>
<polygon fill="midnightblue" stroke="midnightblue" points="1775.49,-77.0752 1764.99,-75.6545 1772.31,-83.3125 1775.49,-77.0752"/>
</g>
<!-- Node30 -->
<g id="node30" class="node"><title>Node30</title>
<g id="a_node30"><a xlink:href="../../d9/ded/Utils_8h.html" target="_top" xlink:title="DetectorsBase/Utils.h">
<polygon fill="none" stroke="black" points="1797.5,-56.5 1797.5,-75.5 1910.5,-75.5 1910.5,-56.5 1797.5,-56.5"/>
<text text-anchor="middle" x="1854" y="-63.5" font-family="Helvetica,sans-Serif" font-size="10.00">DetectorsBase/Utils.h</text>
</a>
</g>
</g>
<!-- Node25&#45;&gt;Node30 -->
<g id="edge34" class="edge"><title>Node25&#45;&gt;Node30</title>
<path fill="none" stroke="midnightblue" d="M1854,-112.083C1854,-105.006 1854,-94.8611 1854,-85.9865"/>
<polygon fill="midnightblue" stroke="midnightblue" points="1857.5,-85.751 1854,-75.7511 1850.5,-85.7511 1857.5,-85.751"/>
</g>
<!-- Node30&#45;&gt;Node26 -->
<g id="edge37" class="edge"><title>Node30&#45;&gt;Node26</title>
<path fill="none" stroke="midnightblue" d="M1866.53,-56.324C1878.59,-47.979 1897.03,-35.2122 1911.27,-25.3524"/>
<polygon fill="midnightblue" stroke="midnightblue" points="1913.27,-28.2243 1919.5,-19.6545 1909.28,-22.469 1913.27,-28.2243"/>
</g>
<!-- Node31 -->
<g id="node31" class="node"><title>Node31</title>
<g id="a_node31"><a xlink:href="../../d1/daa/Base_2include_2DetectorsBase_2Constants_8h.html" target="_top" xlink:title="DetectorsBase/Constants.h">
<polygon fill="none" stroke="black" points="1689,-0.5 1689,-19.5 1827,-19.5 1827,-0.5 1689,-0.5"/>
<text text-anchor="middle" x="1758" y="-7.5" font-family="Helvetica,sans-Serif" font-size="10.00">DetectorsBase/Constants.h</text>
</a>
</g>
</g>
<!-- Node30&#45;&gt;Node31 -->
<g id="edge35" class="edge"><title>Node30&#45;&gt;Node31</title>
<path fill="none" stroke="midnightblue" d="M1838.58,-56.324C1823.46,-47.8215 1800.18,-34.7288 1782.53,-24.7975"/>
<polygon fill="midnightblue" stroke="midnightblue" points="1783.82,-21.5066 1773.39,-19.6545 1780.39,-27.6077 1783.82,-21.5066"/>
</g>
<!-- Node32 -->
<g id="node32" class="node"><title>Node32</title>
<polygon fill="none" stroke="#bfbfbf" points="1845,-0.5 1845,-19.5 1889,-19.5 1889,-0.5 1845,-0.5"/>
<text text-anchor="middle" x="1867" y="-7.5" font-family="Helvetica,sans-Serif" font-size="10.00">cmath</text>
</g>
<!-- Node30&#45;&gt;Node32 -->
<g id="edge36" class="edge"><title>Node30&#45;&gt;Node32</title>
<path fill="none" stroke="midnightblue" d="M1856.15,-56.083C1857.87,-48.9272 1860.35,-38.6353 1862.5,-29.6911"/>
<polygon fill="midnightblue" stroke="midnightblue" points="1865.96,-30.2925 1864.89,-19.7511 1859.15,-28.6541 1865.96,-30.2925"/>
</g>
</g>
</svg>
