<?xml version="1.0" encoding="UTF-8" standalone="no"?>
<!DOCTYPE svg PUBLIC "-//W3C//DTD SVG 1.1//EN"
 "http://www.w3.org/Graphics/SVG/1.1/DTD/svg11.dtd">
<!-- Generated by graphviz version 2.36.0 (20140111.2315)
 -->
<!-- Title: /home/travis/build/AliceO2Group/AliceO2/Detectors/Base/include/DetectorsBase/Track.h Pages: 1 -->
<!--zoomable 474 -->
<svg id="main" version="1.1" xmlns="http://www.w3.org/2000/svg" xmlns:xlink="http://www.w3.org/1999/xlink" xml:space="preserve" onload="init(evt)">
<style type="text/css"><![CDATA[
.edge:hover path { stroke: red; }
.edge:hover polygon { stroke: red; fill: red; }
]]></style>
<script type="text/javascript"><![CDATA[
var edges = document.getElementsByTagName('g');
if (edges && edges.length) {
  for (var i=0;i<edges.length;i++) {
    if (edges[i].id.substr(0,4)=='edge') {
      edges[i].setAttribute('class','edge');
    }
  }
}
]]></script>
        <defs>
                <circle id="rim" cx="0" cy="0" r="7"/>
                <circle id="rim2" cx="0" cy="0" r="3.5"/>
                <g id="zoomPlus">
                        <use xlink:href="#rim" fill="#404040">
                                <set attributeName="fill" to="#808080" begin="zoomplus.mouseover" end="zoomplus.mouseout"/>
                        </use>
                        <path d="M-4,0h8M0,-4v8" fill="none" stroke="white" stroke-width="1.5" pointer-events="none"/>
                </g>
                <g id="zoomMin">
                        <use xlink:href="#rim" fill="#404040">
                                <set attributeName="fill" to="#808080" begin="zoomminus.mouseover" end="zoomminus.mouseout"/>
                        </use>
                        <path d="M-4,0h8" fill="none" stroke="white" stroke-width="1.5" pointer-events="none"/>
                </g>
                <g id="dirArrow">
                        <path fill="none" stroke="white" stroke-width="1.5" d="M0,-3.0v7 M-2.5,-0.5L0,-3.0L2.5,-0.5"/>
                </g>
               <g id="resetDef">
                       <use xlink:href="#rim2" fill="#404040">
                               <set attributeName="fill" to="#808080" begin="reset.mouseover" end="reset.mouseout"/>
                       </use>
               </g>
        </defs>

<script type="text/javascript">
var viewWidth = 3162;
var viewHeight = 474;
var sectionId = 'dynsection-1';
</script>
<script xlink:href="../../svgpan.js"/>
<svg id="graph" class="graph">
<g id="viewport">
<title>/home/travis/build/AliceO2Group/AliceO2/Detectors/Base/include/DetectorsBase/Track.h</title>
<!-- Node1 -->
<g id="node1" class="node"><title>Node1</title>
<polygon fill="#bfbfbf" stroke="black" points="1391,-413 1391,-465 1513,-465 1513,-413 1391,-413"/>
<text text-anchor="start" x="1399" y="-453" font-family="Helvetica,sans-Serif" font-size="10.00">/home/travis/build</text>
<text text-anchor="start" x="1399" y="-442" font-family="Helvetica,sans-Serif" font-size="10.00">/AliceO2Group/AliceO2</text>
<text text-anchor="start" x="1399" y="-431" font-family="Helvetica,sans-Serif" font-size="10.00">/Detectors/Base/include</text>
<text text-anchor="middle" x="1452" y="-420" font-family="Helvetica,sans-Serif" font-size="10.00">/DetectorsBase/Track.h</text>
</g>
<!-- Node2 -->
<g id="node2" class="node"><title>Node2</title>
<g id="a_node2"><a xlink:href="../../dd/d75/testTreeStream_8cxx.html" target="_top" xlink:title="/home/travis/build\l/AliceO2Group/AliceO2\l/Common/Utils/test/testTreeStream.cxx">
<polygon fill="none" stroke="black" points="-0.5,-323.5 -0.5,-364.5 190.5,-364.5 190.5,-323.5 -0.5,-323.5"/>
<text text-anchor="start" x="7.5" y="-352.5" font-family="Helvetica,sans-Serif" font-size="10.00">/home/travis/build</text>
<text text-anchor="start" x="7.5" y="-341.5" font-family="Helvetica,sans-Serif" font-size="10.00">/AliceO2Group/AliceO2</text>
<text text-anchor="middle" x="95" y="-330.5" font-family="Helvetica,sans-Serif" font-size="10.00">/Common/Utils/test/testTreeStream.cxx</text>
</a>
</g>
</g>
<!-- Node1&#45;&gt;Node2 -->
<g id="edge1" class="edge"><title>Node1&#45;&gt;Node2</title>
<path fill="none" stroke="midnightblue" d="M1380.71,-436.722C1150.53,-432.243 428.795,-415.343 199,-376 183.401,-373.329 166.841,-369.074 151.631,-364.561"/>
<polygon fill="midnightblue" stroke="midnightblue" points="1380.9,-440.226 1390.97,-436.92 1381.04,-433.228 1380.9,-440.226"/>
</g>
<!-- Node3 -->
<g id="node3" class="node"><title>Node3</title>
<g id="a_node3"><a xlink:href="../../d2/df9/Propagator_8h.html" target="_top" xlink:title="/home/travis/build\l/AliceO2Group/AliceO2\l/Detectors/Base/include\l/DetectorsBase/Propagator.h">
<polygon fill="none" stroke="black" points="208.5,-318 208.5,-370 351.5,-370 351.5,-318 208.5,-318"/>
<text text-anchor="start" x="216.5" y="-358" font-family="Helvetica,sans-Serif" font-size="10.00">/home/travis/build</text>
<text text-anchor="start" x="216.5" y="-347" font-family="Helvetica,sans-Serif" font-size="10.00">/AliceO2Group/AliceO2</text>
<text text-anchor="start" x="216.5" y="-336" font-family="Helvetica,sans-Serif" font-size="10.00">/Detectors/Base/include</text>
<text text-anchor="middle" x="280" y="-325" font-family="Helvetica,sans-Serif" font-size="10.00">/DetectorsBase/Propagator.h</text>
</a>
</g>
</g>
<!-- Node1&#45;&gt;Node3 -->
<g id="edge2" class="edge"><title>Node1&#45;&gt;Node3</title>
<path fill="none" stroke="midnightblue" d="M1380.6,-436.852C1170.31,-433.012 555.74,-418.376 360,-376 353.012,-374.487 345.832,-372.452 338.778,-370.143"/>
<polygon fill="midnightblue" stroke="midnightblue" points="1380.84,-440.357 1390.91,-437.038 1380.97,-433.358 1380.84,-440.357"/>
</g>
<!-- Node5 -->
<g id="node5" class="node"><title>Node5</title>
<g id="a_node5"><a xlink:href="../../da/d26/Detectors_2Base_2src_2Track_8cxx.html" target="_top" xlink:title="/home/travis/build\l/AliceO2Group/AliceO2\l/Detectors/Base/src/Track.cxx">
<polygon fill="none" stroke="black" points="369.5,-323.5 369.5,-364.5 520.5,-364.5 520.5,-323.5 369.5,-323.5"/>
<text text-anchor="start" x="377.5" y="-352.5" font-family="Helvetica,sans-Serif" font-size="10.00">/home/travis/build</text>
<text text-anchor="start" x="377.5" y="-341.5" font-family="Helvetica,sans-Serif" font-size="10.00">/AliceO2Group/AliceO2</text>
<text text-anchor="middle" x="445" y="-330.5" font-family="Helvetica,sans-Serif" font-size="10.00">/Detectors/Base/src/Track.cxx</text>
</a>
</g>
</g>
<!-- Node1&#45;&gt;Node5 -->
<g id="edge4" class="edge"><title>Node1&#45;&gt;Node5</title>
<path fill="none" stroke="midnightblue" d="M1380.77,-435.616C1194.56,-428.994 696.553,-408.683 535,-376 521.556,-373.28 507.369,-369.065 494.334,-364.611"/>
<polygon fill="midnightblue" stroke="midnightblue" points="1380.88,-439.121 1390.99,-435.976 1381.12,-432.126 1380.88,-439.121"/>
</g>
<!-- Node6 -->
<g id="node6" class="node"><title>Node6</title>
<g id="a_node6"><a xlink:href="../../d1/db5/CAaux_8h.html" target="_top" xlink:title="/home/travis/build\l/AliceO2Group/AliceO2\l/Detectors/ITSMFT/ITS\l/reconstruction/include\l/ITSReconstruction/CAaux.h">
<polygon fill="none" stroke="black" points="627.5,-312.5 627.5,-375.5 770.5,-375.5 770.5,-312.5 627.5,-312.5"/>
<text text-anchor="start" x="635.5" y="-363.5" font-family="Helvetica,sans-Serif" font-size="10.00">/home/travis/build</text>
<text text-anchor="start" x="635.5" y="-352.5" font-family="Helvetica,sans-Serif" font-size="10.00">/AliceO2Group/AliceO2</text>
<text text-anchor="start" x="635.5" y="-341.5" font-family="Helvetica,sans-Serif" font-size="10.00">/Detectors/ITSMFT/ITS</text>
<text text-anchor="start" x="635.5" y="-330.5" font-family="Helvetica,sans-Serif" font-size="10.00">/reconstruction/include</text>
<text text-anchor="middle" x="699" y="-319.5" font-family="Helvetica,sans-Serif" font-size="10.00">/ITSReconstruction/CAaux.h</text>
</a>
</g>
</g>
<!-- Node1&#45;&gt;Node6 -->
<g id="edge5" class="edge"><title>Node1&#45;&gt;Node6</title>
<path fill="none" stroke="midnightblue" d="M1380.74,-432.526C1269.29,-423.517 1047.1,-403.758 860,-376 830.576,-371.635 798.347,-365.668 770.505,-360.134"/>
<polygon fill="midnightblue" stroke="midnightblue" points="1380.6,-436.026 1390.85,-433.338 1381.16,-429.049 1380.6,-436.026"/>
</g>
<!-- Node7 -->
<g id="node7" class="node"><title>Node7</title>
<g id="a_node7"><a xlink:href="../../d0/d37/CATracker_8h.html" target="_top" xlink:title="/home/travis/build\l/AliceO2Group/AliceO2\l/Detectors/ITSMFT/ITS\l/reconstruction/include\l/ITSReconstruction/CATracker.h">
<polygon fill="none" stroke="black" points="516,-106.5 516,-169.5 676,-169.5 676,-106.5 516,-106.5"/>
<text text-anchor="start" x="524" y="-157.5" font-family="Helvetica,sans-Serif" font-size="10.00">/home/travis/build</text>
<text text-anchor="start" x="524" y="-146.5" font-family="Helvetica,sans-Serif" font-size="10.00">/AliceO2Group/AliceO2</text>
<text text-anchor="start" x="524" y="-135.5" font-family="Helvetica,sans-Serif" font-size="10.00">/Detectors/ITSMFT/ITS</text>
<text text-anchor="start" x="524" y="-124.5" font-family="Helvetica,sans-Serif" font-size="10.00">/reconstruction/include</text>
<text text-anchor="middle" x="596" y="-113.5" font-family="Helvetica,sans-Serif" font-size="10.00">/ITSReconstruction/CATracker.h</text>
</a>
</g>
</g>
<!-- Node1&#45;&gt;Node7 -->
<g id="edge12" class="edge"><title>Node1&#45;&gt;Node7</title>
<path fill="none" stroke="midnightblue" d="M1380.76,-437.638C1205.48,-435.962 757.385,-426.693 618,-376 572.213,-359.348 571.755,-335.361 529,-312 490.832,-291.145 462.452,-311.97 438,-276 422.009,-252.476 422.675,-235.963 438,-212 455.501,-184.635 486.165,-167.38 515.851,-156.569"/>
<polygon fill="midnightblue" stroke="midnightblue" points="1380.88,-441.139 1390.91,-437.729 1380.94,-434.139 1380.88,-441.139"/>
</g>
<!-- Node8 -->
<g id="node8" class="node"><title>Node8</title>
<g id="a_node8"><a xlink:href="../../df/de8/CATracker_8cxx.html" target="_top" xlink:title="/home/travis/build\l/AliceO2Group/AliceO2\l/Detectors/ITSMFT/ITS\l/reconstruction/src/CATracker.cxx">
<polygon fill="none" stroke="black" points="720.5,-6 720.5,-58 887.5,-58 887.5,-6 720.5,-6"/>
<text text-anchor="start" x="728.5" y="-46" font-family="Helvetica,sans-Serif" font-size="10.00">/home/travis/build</text>
<text text-anchor="start" x="728.5" y="-35" font-family="Helvetica,sans-Serif" font-size="10.00">/AliceO2Group/AliceO2</text>
<text text-anchor="start" x="728.5" y="-24" font-family="Helvetica,sans-Serif" font-size="10.00">/Detectors/ITSMFT/ITS</text>
<text text-anchor="middle" x="804" y="-13" font-family="Helvetica,sans-Serif" font-size="10.00">/reconstruction/src/CATracker.cxx</text>
</a>
</g>
</g>
<!-- Node1&#45;&gt;Node8 -->
<g id="edge22" class="edge"><title>Node1&#45;&gt;Node8</title>
<path fill="none" stroke="midnightblue" d="M1380.66,-426.602C1245.53,-403.576 959.755,-347.558 893,-276 838.412,-217.484 888.479,-172.685 855,-100 848.028,-84.8635 837.152,-69.9216 827.232,-58.0026"/>
<polygon fill="midnightblue" stroke="midnightblue" points="1380.47,-430.118 1390.91,-428.334 1381.63,-423.216 1380.47,-430.118"/>
</g>
<!-- Node12 -->
<g id="node12" class="node"><title>Node12</title>
<g id="a_node12"><a xlink:href="../../d8/ddd/CookedTrack_8h.html" target="_top" xlink:title="Definition of the ITS cooked track. ">
<polygon fill="none" stroke="black" points="1264.5,-312.5 1264.5,-375.5 1435.5,-375.5 1435.5,-312.5 1264.5,-312.5"/>
<text text-anchor="start" x="1272.5" y="-363.5" font-family="Helvetica,sans-Serif" font-size="10.00">/home/travis/build</text>
<text text-anchor="start" x="1272.5" y="-352.5" font-family="Helvetica,sans-Serif" font-size="10.00">/AliceO2Group/AliceO2</text>
<text text-anchor="start" x="1272.5" y="-341.5" font-family="Helvetica,sans-Serif" font-size="10.00">/Detectors/ITSMFT/ITS</text>
<text text-anchor="start" x="1272.5" y="-330.5" font-family="Helvetica,sans-Serif" font-size="10.00">/reconstruction/include</text>
<text text-anchor="middle" x="1350" y="-319.5" font-family="Helvetica,sans-Serif" font-size="10.00">/ITSReconstruction/CookedTrack.h</text>
</a>
</g>
</g>
<!-- Node1&#45;&gt;Node12 -->
<g id="edge13" class="edge"><title>Node1&#45;&gt;Node12</title>
<path fill="none" stroke="midnightblue" d="M1416.82,-405.929C1406.13,-396.18 1394.41,-385.493 1383.81,-375.828"/>
<polygon fill="midnightblue" stroke="midnightblue" points="1414.65,-408.682 1424.4,-412.833 1419.37,-403.509 1414.65,-408.682"/>
</g>
<!-- Node21 -->
<g id="node21" class="node"><title>Node21</title>
<g id="a_node21"><a xlink:href="../../d5/dc9/TrackTPC_8h.html" target="_top" xlink:title="/home/travis/build\l/AliceO2Group/AliceO2\l/Detectors/TPC/reconstruction\l/include/TPCReconstruction\l/TrackTPC.h">
<polygon fill="none" stroke="black" points="2207,-312.5 2207,-375.5 2357,-375.5 2357,-312.5 2207,-312.5"/>
<text text-anchor="start" x="2215" y="-363.5" font-family="Helvetica,sans-Serif" font-size="10.00">/home/travis/build</text>
<text text-anchor="start" x="2215" y="-352.5" font-family="Helvetica,sans-Serif" font-size="10.00">/AliceO2Group/AliceO2</text>
<text text-anchor="start" x="2215" y="-341.5" font-family="Helvetica,sans-Serif" font-size="10.00">/Detectors/TPC/reconstruction</text>
<text text-anchor="start" x="2215" y="-330.5" font-family="Helvetica,sans-Serif" font-size="10.00">/include/TPCReconstruction</text>
<text text-anchor="middle" x="2282" y="-319.5" font-family="Helvetica,sans-Serif" font-size="10.00">/TrackTPC.h</text>
</a>
</g>
</g>
<!-- Node1&#45;&gt;Node21 -->
<g id="edge23" class="edge"><title>Node1&#45;&gt;Node21</title>
<path fill="none" stroke="midnightblue" d="M1523.42,-429.998C1679.08,-412.556 2047.7,-371.253 2206.77,-353.429"/>
<polygon fill="midnightblue" stroke="midnightblue" points="1522.58,-426.57 1513.03,-431.161 1523.36,-433.526 1522.58,-426.57"/>
</g>
<!-- Node22 -->
<g id="node22" class="node"><title>Node22</title>
<g id="a_node22"><a xlink:href="../../d9/d90/convertTracks_8C.html" target="_top" xlink:title="/home/travis/build\l/AliceO2Group/AliceO2\l/Detectors/TPC/reconstruction\l/macro/convertTracks.C">
<polygon fill="none" stroke="black" points="1619,-218 1619,-270 1769,-270 1769,-218 1619,-218"/>
<text text-anchor="start" x="1627" y="-258" font-family="Helvetica,sans-Serif" font-size="10.00">/home/travis/build</text>
<text text-anchor="start" x="1627" y="-247" font-family="Helvetica,sans-Serif" font-size="10.00">/AliceO2Group/AliceO2</text>
<text text-anchor="start" x="1627" y="-236" font-family="Helvetica,sans-Serif" font-size="10.00">/Detectors/TPC/reconstruction</text>
<text text-anchor="middle" x="1694" y="-225" font-family="Helvetica,sans-Serif" font-size="10.00">/macro/convertTracks.C</text>
</a>
</g>
</g>
<!-- Node1&#45;&gt;Node22 -->
<g id="edge35" class="edge"><title>Node1&#45;&gt;Node22</title>
<path fill="none" stroke="midnightblue" d="M1491.59,-406.427C1539.3,-368.377 1618.51,-305.206 1662.35,-270.238"/>
<polygon fill="midnightblue" stroke="midnightblue" points="1489.27,-403.797 1483.64,-412.769 1493.64,-409.27 1489.27,-403.797"/>
</g>
<!-- Node26 -->
<g id="node26" class="node"><title>Node26</title>
<g id="a_node26"><a xlink:href="../../d1/d27/runCATracking_8C.html" target="_top" xlink:title="/home/travis/build\l/AliceO2Group/AliceO2\l/Detectors/TPC/reconstruction\l/macro/runCATracking.C">
<polygon fill="none" stroke="black" points="1787,-218 1787,-270 1937,-270 1937,-218 1787,-218"/>
<text text-anchor="start" x="1795" y="-258" font-family="Helvetica,sans-Serif" font-size="10.00">/home/travis/build</text>
<text text-anchor="start" x="1795" y="-247" font-family="Helvetica,sans-Serif" font-size="10.00">/AliceO2Group/AliceO2</text>
<text text-anchor="start" x="1795" y="-236" font-family="Helvetica,sans-Serif" font-size="10.00">/Detectors/TPC/reconstruction</text>
<text text-anchor="middle" x="1862" y="-225" font-family="Helvetica,sans-Serif" font-size="10.00">/macro/runCATracking.C</text>
</a>
</g>
</g>
<!-- Node1&#45;&gt;Node26 -->
<g id="edge36" class="edge"><title>Node1&#45;&gt;Node26</title>
<path fill="none" stroke="midnightblue" d="M1514.54,-408.646C1536.5,-398.331 1561.35,-386.657 1584,-376 1662.33,-339.148 1753.04,-296.388 1808.97,-270.011"/>
<polygon fill="midnightblue" stroke="midnightblue" points="1512.88,-405.558 1505.31,-412.977 1515.85,-411.894 1512.88,-405.558"/>
</g>
<!-- Node28 -->
<g id="node28" class="node"><title>Node28</title>
<g id="a_node28"><a xlink:href="../../d1/df0/runCATrackingClusterNative_8C.html" target="_top" xlink:title="/home/travis/build\l/AliceO2Group/AliceO2\l/Detectors/TPC/reconstruction\l/macro/runCATrackingClusterNative.C">
<polygon fill="none" stroke="black" points="2458.5,-218 2458.5,-270 2643.5,-270 2643.5,-218 2458.5,-218"/>
<text text-anchor="start" x="2466.5" y="-258" font-family="Helvetica,sans-Serif" font-size="10.00">/home/travis/build</text>
<text text-anchor="start" x="2466.5" y="-247" font-family="Helvetica,sans-Serif" font-size="10.00">/AliceO2Group/AliceO2</text>
<text text-anchor="start" x="2466.5" y="-236" font-family="Helvetica,sans-Serif" font-size="10.00">/Detectors/TPC/reconstruction</text>
<text text-anchor="middle" x="2551" y="-225" font-family="Helvetica,sans-Serif" font-size="10.00">/macro/runCATrackingClusterNative.C</text>
</a>
</g>
</g>
<!-- Node1&#45;&gt;Node28 -->
<g id="edge37" class="edge"><title>Node1&#45;&gt;Node28</title>
<path fill="none" stroke="midnightblue" d="M1523.27,-438.092C1710.1,-437.553 2210.23,-430.87 2365,-376 2429.4,-353.168 2491.7,-301.369 2525.33,-270.182"/>
<polygon fill="midnightblue" stroke="midnightblue" points="1523.01,-434.593 1513.02,-438.116 1523.03,-441.592 1523.01,-434.593"/>
</g>
<!-- Node29 -->
<g id="node29" class="node"><title>Node29</title>
<g id="a_node29"><a xlink:href="../../db/d60/testTracks_8C.html" target="_top" xlink:title="/home/travis/build\l/AliceO2Group/AliceO2\l/Detectors/TPC/reconstruction\l/macro/testTracks.C">
<polygon fill="none" stroke="black" points="2661,-218 2661,-270 2811,-270 2811,-218 2661,-218"/>
<text text-anchor="start" x="2669" y="-258" font-family="Helvetica,sans-Serif" font-size="10.00">/home/travis/build</text>
<text text-anchor="start" x="2669" y="-247" font-family="Helvetica,sans-Serif" font-size="10.00">/AliceO2Group/AliceO2</text>
<text text-anchor="start" x="2669" y="-236" font-family="Helvetica,sans-Serif" font-size="10.00">/Detectors/TPC/reconstruction</text>
<text text-anchor="middle" x="2736" y="-225" font-family="Helvetica,sans-Serif" font-size="10.00">/macro/testTracks.C</text>
</a>
</g>
</g>
<!-- Node1&#45;&gt;Node29 -->
<g id="edge38" class="edge"><title>Node1&#45;&gt;Node29</title>
<path fill="none" stroke="midnightblue" d="M1523.48,-436.649C1718.97,-432.452 2259.35,-417.342 2432,-376 2528.69,-352.848 2633.53,-301.162 2691.35,-270.081"/>
<polygon fill="midnightblue" stroke="midnightblue" points="1523.25,-433.154 1513.32,-436.864 1523.4,-440.152 1523.25,-433.154"/>
</g>
<!-- Node30 -->
<g id="node30" class="node"><title>Node30</title>
<g id="a_node30"><a xlink:href="../../d8/ded/TPCCATracking_8cxx.html" target="_top" xlink:title="/home/travis/build\l/AliceO2Group/AliceO2\l/Detectors/TPC/reconstruction\l/src/TPCCATracking.cxx">
<polygon fill="none" stroke="black" points="2829,-218 2829,-270 2979,-270 2979,-218 2829,-218"/>
<text text-anchor="start" x="2837" y="-258" font-family="Helvetica,sans-Serif" font-size="10.00">/home/travis/build</text>
<text text-anchor="start" x="2837" y="-247" font-family="Helvetica,sans-Serif" font-size="10.00">/AliceO2Group/AliceO2</text>
<text text-anchor="start" x="2837" y="-236" font-family="Helvetica,sans-Serif" font-size="10.00">/Detectors/TPC/reconstruction</text>
<text text-anchor="middle" x="2904" y="-225" font-family="Helvetica,sans-Serif" font-size="10.00">/src/TPCCATracking.cxx</text>
</a>
</g>
</g>
<!-- Node1&#45;&gt;Node30 -->
<g id="edge39" class="edge"><title>Node1&#45;&gt;Node30</title>
<path fill="none" stroke="midnightblue" d="M1523.5,-436.454C1731.94,-431.541 2336.38,-414.299 2530,-376 2646.76,-352.904 2776.51,-301.199 2848.37,-270.099"/>
<polygon fill="midnightblue" stroke="midnightblue" points="1523.21,-432.96 1513.29,-436.692 1523.37,-439.958 1523.21,-432.96"/>
</g>
<!-- Node32 -->
<g id="node32" class="node"><title>Node32</title>
<g id="a_node32"><a xlink:href="../../d9/d59/testHitsDigitsClusters_8C.html" target="_top" xlink:title="/home/travis/build\l/AliceO2Group/AliceO2\l/Detectors/TPC/simulation\l/macro/testHitsDigitsClusters.C">
<polygon fill="none" stroke="black" points="2997.5,-218 2997.5,-270 3154.5,-270 3154.5,-218 2997.5,-218"/>
<text text-anchor="start" x="3005.5" y="-258" font-family="Helvetica,sans-Serif" font-size="10.00">/home/travis/build</text>
<text text-anchor="start" x="3005.5" y="-247" font-family="Helvetica,sans-Serif" font-size="10.00">/AliceO2Group/AliceO2</text>
<text text-anchor="start" x="3005.5" y="-236" font-family="Helvetica,sans-Serif" font-size="10.00">/Detectors/TPC/simulation</text>
<text text-anchor="middle" x="3076" y="-225" font-family="Helvetica,sans-Serif" font-size="10.00">/macro/testHitsDigitsClusters.C</text>
</a>
</g>
</g>
<!-- Node1&#45;&gt;Node32 -->
<g id="edge40" class="edge"><title>Node1&#45;&gt;Node32</title>
<path fill="none" stroke="midnightblue" d="M1523.38,-436.488C1746.5,-431.417 2428.91,-413.2 2647,-376 2780,-353.315 2929.46,-301.336 3012.19,-270.103"/>
<polygon fill="midnightblue" stroke="midnightblue" points="1523.02,-432.995 1513.1,-436.72 1523.18,-439.993 1523.02,-432.995"/>
</g>
<!-- Node4 -->
<g id="node4" class="node"><title>Node4</title>
<g id="a_node4"><a xlink:href="../../d8/dee/Propagator_8cxx.html" target="_top" xlink:title="/home/travis/build\l/AliceO2Group/AliceO2\l/Detectors/Base/src/Propagator.cxx">
<polygon fill="none" stroke="black" points="193.5,-223.5 193.5,-264.5 366.5,-264.5 366.5,-223.5 193.5,-223.5"/>
<text text-anchor="start" x="201.5" y="-252.5" font-family="Helvetica,sans-Serif" font-size="10.00">/home/travis/build</text>
<text text-anchor="start" x="201.5" y="-241.5" font-family="Helvetica,sans-Serif" font-size="10.00">/AliceO2Group/AliceO2</text>
<text text-anchor="middle" x="280" y="-230.5" font-family="Helvetica,sans-Serif" font-size="10.00">/Detectors/Base/src/Propagator.cxx</text>
</a>
</g>
</g>
<!-- Node3&#45;&gt;Node4 -->
<g id="edge3" class="edge"><title>Node3&#45;&gt;Node4</title>
<path fill="none" stroke="midnightblue" d="M280,-307.593C280,-293.099 280,-276.881 280,-264.585"/>
<polygon fill="midnightblue" stroke="midnightblue" points="276.5,-307.763 280,-317.763 283.5,-307.763 276.5,-307.763"/>
</g>
<!-- Node6&#45;&gt;Node7 -->
<g id="edge6" class="edge"><title>Node6&#45;&gt;Node7</title>
<path fill="none" stroke="midnightblue" d="M662.269,-304.845C654.866,-295.857 647.638,-285.975 642,-276 622.68,-241.817 609.79,-198.228 602.689,-169.508"/>
<polygon fill="midnightblue" stroke="midnightblue" points="659.635,-307.15 668.784,-312.493 664.964,-302.611 659.635,-307.15"/>
</g>
<!-- Node9 -->
<g id="node9" class="node"><title>Node9</title>
<g id="a_node9"><a xlink:href="../../d5/df0/CATrackingStation_8h.html" target="_top" xlink:title="/home/travis/build\l/AliceO2Group/AliceO2\l/Detectors/ITSMFT/ITS\l/reconstruction/include\l/ITSReconstruction/CATrackingStation.h">
<polygon fill="none" stroke="black" points="651.5,-212.5 651.5,-275.5 846.5,-275.5 846.5,-212.5 651.5,-212.5"/>
<text text-anchor="start" x="659.5" y="-263.5" font-family="Helvetica,sans-Serif" font-size="10.00">/home/travis/build</text>
<text text-anchor="start" x="659.5" y="-252.5" font-family="Helvetica,sans-Serif" font-size="10.00">/AliceO2Group/AliceO2</text>
<text text-anchor="start" x="659.5" y="-241.5" font-family="Helvetica,sans-Serif" font-size="10.00">/Detectors/ITSMFT/ITS</text>
<text text-anchor="start" x="659.5" y="-230.5" font-family="Helvetica,sans-Serif" font-size="10.00">/reconstruction/include</text>
<text text-anchor="middle" x="749" y="-219.5" font-family="Helvetica,sans-Serif" font-size="10.00">/ITSReconstruction/CATrackingStation.h</text>
</a>
</g>
</g>
<!-- Node6&#45;&gt;Node9 -->
<g id="edge8" class="edge"><title>Node6&#45;&gt;Node9</title>
<path fill="none" stroke="midnightblue" d="M719.279,-303.252C723.979,-294.042 728.909,-284.379 733.373,-275.63"/>
<polygon fill="midnightblue" stroke="midnightblue" points="716.11,-301.763 714.683,-312.261 722.346,-304.944 716.11,-301.763"/>
</g>
<!-- Node11 -->
<g id="node11" class="node"><title>Node11</title>
<g id="a_node11"><a xlink:href="../../db/d2e/CAaux_8cxx.html" target="_top" xlink:title="/home/travis/build\l/AliceO2Group/AliceO2\l/Detectors/ITSMFT/ITS\l/reconstruction/src/CAaux.cxx">
<polygon fill="none" stroke="black" points="447.5,-218 447.5,-270 596.5,-270 596.5,-218 447.5,-218"/>
<text text-anchor="start" x="455.5" y="-258" font-family="Helvetica,sans-Serif" font-size="10.00">/home/travis/build</text>
<text text-anchor="start" x="455.5" y="-247" font-family="Helvetica,sans-Serif" font-size="10.00">/AliceO2Group/AliceO2</text>
<text text-anchor="start" x="455.5" y="-236" font-family="Helvetica,sans-Serif" font-size="10.00">/Detectors/ITSMFT/ITS</text>
<text text-anchor="middle" x="522" y="-225" font-family="Helvetica,sans-Serif" font-size="10.00">/reconstruction/src/CAaux.cxx</text>
</a>
</g>
</g>
<!-- Node6&#45;&gt;Node11 -->
<g id="edge11" class="edge"><title>Node6&#45;&gt;Node11</title>
<path fill="none" stroke="midnightblue" d="M634.708,-307.404C612.344,-295.021 587.745,-281.401 567.25,-270.054"/>
<polygon fill="midnightblue" stroke="midnightblue" points="633.038,-310.479 643.482,-312.261 636.429,-304.355 633.038,-310.479"/>
</g>
<!-- Node7&#45;&gt;Node8 -->
<g id="edge7" class="edge"><title>Node7&#45;&gt;Node8</title>
<path fill="none" stroke="midnightblue" d="M666.189,-101.906C694.945,-87.5276 727.571,-71.2147 753.857,-58.0717"/>
<polygon fill="midnightblue" stroke="midnightblue" points="664.38,-98.8966 657.001,-106.499 667.511,-105.158 664.38,-98.8966"/>
</g>
<!-- Node9&#45;&gt;Node7 -->
<g id="edge9" class="edge"><title>Node9&#45;&gt;Node7</title>
<path fill="none" stroke="midnightblue" d="M695.372,-206.547C677.62,-194.48 658.058,-181.183 641.019,-169.601"/>
<polygon fill="midnightblue" stroke="midnightblue" points="693.685,-209.632 703.922,-212.359 697.62,-203.843 693.685,-209.632"/>
</g>
<!-- Node10 -->
<g id="node10" class="node"><title>Node10</title>
<g id="a_node10"><a xlink:href="../../d0/d81/CATrackingStation_8cxx.html" target="_top" xlink:title="/home/travis/build\l/AliceO2Group/AliceO2\l/Detectors/ITSMFT/ITS\l/reconstruction/src/CATracking\lStation.cxx">
<polygon fill="none" stroke="black" points="694,-106.5 694,-169.5 846,-169.5 846,-106.5 694,-106.5"/>
<text text-anchor="start" x="702" y="-157.5" font-family="Helvetica,sans-Serif" font-size="10.00">/home/travis/build</text>
<text text-anchor="start" x="702" y="-146.5" font-family="Helvetica,sans-Serif" font-size="10.00">/AliceO2Group/AliceO2</text>
<text text-anchor="start" x="702" y="-135.5" font-family="Helvetica,sans-Serif" font-size="10.00">/Detectors/ITSMFT/ITS</text>
<text text-anchor="start" x="702" y="-124.5" font-family="Helvetica,sans-Serif" font-size="10.00">/reconstruction/src/CATracking</text>
<text text-anchor="middle" x="770" y="-113.5" font-family="Helvetica,sans-Serif" font-size="10.00">Station.cxx</text>
</a>
</g>
</g>
<!-- Node9&#45;&gt;Node10 -->
<g id="edge10" class="edge"><title>Node9&#45;&gt;Node10</title>
<path fill="none" stroke="midnightblue" d="M757.225,-202.268C759.408,-191.458 761.728,-179.964 763.785,-169.781"/>
<polygon fill="midnightblue" stroke="midnightblue" points="753.736,-201.864 755.187,-212.359 760.597,-203.25 753.736,-201.864"/>
</g>
<!-- Node13 -->
<g id="node13" class="node"><title>Node13</title>
<g id="a_node13"><a xlink:href="../../dc/df8/CheckTracks_8C.html" target="_top" xlink:title="Simple macro to check ITSU tracks. ">
<polygon fill="none" stroke="black" points="1457.5,-218 1457.5,-270 1600.5,-270 1600.5,-218 1457.5,-218"/>
<text text-anchor="start" x="1465.5" y="-258" font-family="Helvetica,sans-Serif" font-size="10.00">/home/travis/build</text>
<text text-anchor="start" x="1465.5" y="-247" font-family="Helvetica,sans-Serif" font-size="10.00">/AliceO2Group/AliceO2</text>
<text text-anchor="start" x="1465.5" y="-236" font-family="Helvetica,sans-Serif" font-size="10.00">/Detectors/ITSMFT/ITS</text>
<text text-anchor="middle" x="1529" y="-225" font-family="Helvetica,sans-Serif" font-size="10.00">/macros/test/CheckTracks.C</text>
</a>
</g>
</g>
<!-- Node12&#45;&gt;Node13 -->
<g id="edge14" class="edge"><title>Node12&#45;&gt;Node13</title>
<path fill="none" stroke="midnightblue" d="M1415.02,-307.404C1437.64,-295.021 1462.51,-281.401 1483.24,-270.054"/>
<polygon fill="midnightblue" stroke="midnightblue" points="1413.24,-304.389 1406.15,-312.261 1416.6,-310.529 1413.24,-304.389"/>
</g>
<!-- Node14 -->
<g id="node14" class="node"><title>Node14</title>
<g id="a_node14"><a xlink:href="../../d5/df6/DisplayTrack_8C.html" target="_top" xlink:title="Simple macro to display ITSU tracks. ">
<polygon fill="none" stroke="black" points="902.5,-218 902.5,-270 1045.5,-270 1045.5,-218 902.5,-218"/>
<text text-anchor="start" x="910.5" y="-258" font-family="Helvetica,sans-Serif" font-size="10.00">/home/travis/build</text>
<text text-anchor="start" x="910.5" y="-247" font-family="Helvetica,sans-Serif" font-size="10.00">/AliceO2Group/AliceO2</text>
<text text-anchor="start" x="910.5" y="-236" font-family="Helvetica,sans-Serif" font-size="10.00">/Detectors/ITSMFT/ITS</text>
<text text-anchor="middle" x="974" y="-225" font-family="Helvetica,sans-Serif" font-size="10.00">/macros/test/DisplayTrack.C</text>
</a>
</g>
</g>
<!-- Node12&#45;&gt;Node14 -->
<g id="edge15" class="edge"><title>Node12&#45;&gt;Node14</title>
<path fill="none" stroke="midnightblue" d="M1254.32,-325.065C1195.89,-313.196 1119.98,-296.132 1054,-276 1048.16,-274.218 1042.14,-272.211 1036.14,-270.098"/>
<polygon fill="midnightblue" stroke="midnightblue" points="1253.79,-328.527 1264.28,-327.072 1255.17,-321.665 1253.79,-328.527"/>
</g>
<!-- Node15 -->
<g id="node15" class="node"><title>Node15</title>
<g id="a_node15"><a xlink:href="../../d6/d0c/CookedTracker_8h.html" target="_top" xlink:title="Definition of the &quot;Cooked Matrix&quot; ITS tracker. ">
<polygon fill="none" stroke="black" points="1063.5,-212.5 1063.5,-275.5 1242.5,-275.5 1242.5,-212.5 1063.5,-212.5"/>
<text text-anchor="start" x="1071.5" y="-263.5" font-family="Helvetica,sans-Serif" font-size="10.00">/home/travis/build</text>
<text text-anchor="start" x="1071.5" y="-252.5" font-family="Helvetica,sans-Serif" font-size="10.00">/AliceO2Group/AliceO2</text>
<text text-anchor="start" x="1071.5" y="-241.5" font-family="Helvetica,sans-Serif" font-size="10.00">/Detectors/ITSMFT/ITS</text>
<text text-anchor="start" x="1071.5" y="-230.5" font-family="Helvetica,sans-Serif" font-size="10.00">/reconstruction/include</text>
<text text-anchor="middle" x="1153" y="-219.5" font-family="Helvetica,sans-Serif" font-size="10.00">/ITSReconstruction/CookedTracker.h</text>
</a>
</g>
</g>
<!-- Node12&#45;&gt;Node15 -->
<g id="edge16" class="edge"><title>Node12&#45;&gt;Node15</title>
<path fill="none" stroke="midnightblue" d="M1279.49,-307.923C1258.21,-297.337 1235.03,-285.806 1214.39,-275.541"/>
<polygon fill="midnightblue" stroke="midnightblue" points="1277.97,-311.075 1288.48,-312.395 1281.08,-304.808 1277.97,-311.075"/>
</g>
<!-- Node20 -->
<g id="node20" class="node"><title>Node20</title>
<g id="a_node20"><a xlink:href="../../d1/d6b/CookedTrack_8cxx.html" target="_top" xlink:title="Implementation of the ITS cooked track. ">
<polygon fill="none" stroke="black" points="1261,-218 1261,-270 1439,-270 1439,-218 1261,-218"/>
<text text-anchor="start" x="1269" y="-258" font-family="Helvetica,sans-Serif" font-size="10.00">/home/travis/build</text>
<text text-anchor="start" x="1269" y="-247" font-family="Helvetica,sans-Serif" font-size="10.00">/AliceO2Group/AliceO2</text>
<text text-anchor="start" x="1269" y="-236" font-family="Helvetica,sans-Serif" font-size="10.00">/Detectors/ITSMFT/ITS</text>
<text text-anchor="middle" x="1350" y="-225" font-family="Helvetica,sans-Serif" font-size="10.00">/reconstruction/src/CookedTrack.cxx</text>
</a>
</g>
</g>
<!-- Node12&#45;&gt;Node20 -->
<g id="edge21" class="edge"><title>Node12&#45;&gt;Node20</title>
<path fill="none" stroke="midnightblue" d="M1350,-302.079C1350,-291.21 1350,-279.794 1350,-270.054"/>
<polygon fill="midnightblue" stroke="midnightblue" points="1346.5,-302.261 1350,-312.261 1353.5,-302.261 1346.5,-302.261"/>
</g>
<!-- Node16 -->
<g id="node16" class="node"><title>Node16</title>
<g id="a_node16"><a xlink:href="../../d3/d9f/CookedTrackerTask_8h.html" target="_top" xlink:title="Definition of the ITS &quot;Cooked Matrix&quot; tracker task. ">
<polygon fill="none" stroke="black" points="1108.5,-101 1108.5,-175 1279.5,-175 1279.5,-101 1108.5,-101"/>
<text text-anchor="start" x="1116.5" y="-163" font-family="Helvetica,sans-Serif" font-size="10.00">/home/travis/build</text>
<text text-anchor="start" x="1116.5" y="-152" font-family="Helvetica,sans-Serif" font-size="10.00">/AliceO2Group/AliceO2</text>
<text text-anchor="start" x="1116.5" y="-141" font-family="Helvetica,sans-Serif" font-size="10.00">/Detectors/ITSMFT/ITS</text>
<text text-anchor="start" x="1116.5" y="-130" font-family="Helvetica,sans-Serif" font-size="10.00">/reconstruction/include</text>
<text text-anchor="start" x="1116.5" y="-119" font-family="Helvetica,sans-Serif" font-size="10.00">/ITSReconstruction/CookedTracker</text>
<text text-anchor="middle" x="1194" y="-108" font-family="Helvetica,sans-Serif" font-size="10.00">Task.h</text>
</a>
</g>
</g>
<!-- Node15&#45;&gt;Node16 -->
<g id="edge17" class="edge"><title>Node15&#45;&gt;Node16</title>
<path fill="none" stroke="midnightblue" d="M1168.85,-202.787C1172.42,-193.733 1176.19,-184.175 1179.69,-175.292"/>
<polygon fill="midnightblue" stroke="midnightblue" points="1165.49,-201.772 1165.08,-212.359 1172,-204.34 1165.49,-201.772"/>
</g>
<!-- Node19 -->
<g id="node19" class="node"><title>Node19</title>
<g id="a_node19"><a xlink:href="../../d7/dca/CookedTracker_8cxx.html" target="_top" xlink:title="Implementation of the &quot;Cooked Matrix&quot; ITS tracker. ">
<polygon fill="none" stroke="black" points="904,-112 904,-164 1090,-164 1090,-112 904,-112"/>
<text text-anchor="start" x="912" y="-152" font-family="Helvetica,sans-Serif" font-size="10.00">/home/travis/build</text>
<text text-anchor="start" x="912" y="-141" font-family="Helvetica,sans-Serif" font-size="10.00">/AliceO2Group/AliceO2</text>
<text text-anchor="start" x="912" y="-130" font-family="Helvetica,sans-Serif" font-size="10.00">/Detectors/ITSMFT/ITS</text>
<text text-anchor="middle" x="997" y="-119" font-family="Helvetica,sans-Serif" font-size="10.00">/reconstruction/src/CookedTracker.cxx</text>
</a>
</g>
</g>
<!-- Node15&#45;&gt;Node19 -->
<g id="edge20" class="edge"><title>Node15&#45;&gt;Node19</title>
<path fill="none" stroke="midnightblue" d="M1098.47,-206.644C1077.33,-192.556 1053.67,-176.778 1034.51,-164.006"/>
<polygon fill="midnightblue" stroke="midnightblue" points="1096.78,-209.724 1107.04,-212.359 1100.66,-203.9 1096.78,-209.724"/>
</g>
<!-- Node17 -->
<g id="node17" class="node"><title>Node17</title>
<g id="a_node17"><a xlink:href="../../d5/da2/CookedTrackerTask_8cxx.html" target="_top" xlink:title="Implementation of the ITS &quot;Cooked Matrix&quot; tracker task. ">
<polygon fill="none" stroke="black" points="1180.5,-0.5 1180.5,-63.5 1347.5,-63.5 1347.5,-0.5 1180.5,-0.5"/>
<text text-anchor="start" x="1188.5" y="-51.5" font-family="Helvetica,sans-Serif" font-size="10.00">/home/travis/build</text>
<text text-anchor="start" x="1188.5" y="-40.5" font-family="Helvetica,sans-Serif" font-size="10.00">/AliceO2Group/AliceO2</text>
<text text-anchor="start" x="1188.5" y="-29.5" font-family="Helvetica,sans-Serif" font-size="10.00">/Detectors/ITSMFT/ITS</text>
<text text-anchor="start" x="1188.5" y="-18.5" font-family="Helvetica,sans-Serif" font-size="10.00">/reconstruction/src/CookedTracker</text>
<text text-anchor="middle" x="1264" y="-7.5" font-family="Helvetica,sans-Serif" font-size="10.00">Task.cxx</text>
</a>
</g>
</g>
<!-- Node16&#45;&gt;Node17 -->
<g id="edge18" class="edge"><title>Node16&#45;&gt;Node17</title>
<path fill="none" stroke="midnightblue" d="M1223.92,-92.5425C1230.43,-82.8685 1237.19,-72.8386 1243.25,-63.8307"/>
<polygon fill="midnightblue" stroke="midnightblue" points="1220.97,-90.6675 1218.29,-100.918 1226.77,-94.5762 1220.97,-90.6675"/>
</g>
<!-- Node18 -->
<g id="node18" class="node"><title>Node18</title>
<g id="a_node18"><a xlink:href="../../dd/d4e/run__trac__its_8C.html" target="_top" xlink:title="/home/travis/build\l/AliceO2Group/AliceO2\l/macro/run_trac_its.C">
<polygon fill="none" stroke="black" points="1044,-11.5 1044,-52.5 1162,-52.5 1162,-11.5 1044,-11.5"/>
<text text-anchor="start" x="1052" y="-40.5" font-family="Helvetica,sans-Serif" font-size="10.00">/home/travis/build</text>
<text text-anchor="start" x="1052" y="-29.5" font-family="Helvetica,sans-Serif" font-size="10.00">/AliceO2Group/AliceO2</text>
<text text-anchor="middle" x="1103" y="-18.5" font-family="Helvetica,sans-Serif" font-size="10.00">/macro/run_trac_its.C</text>
</a>
</g>
</g>
<!-- Node16&#45;&gt;Node18 -->
<g id="edge19" class="edge"><title>Node16&#45;&gt;Node18</title>
<path fill="none" stroke="midnightblue" d="M1155.66,-93.188C1143.31,-79.0725 1130.24,-64.1314 1120.21,-52.6667"/>
<polygon fill="midnightblue" stroke="midnightblue" points="1153.21,-95.6967 1162.43,-100.918 1158.48,-91.0872 1153.21,-95.6967"/>
</g>
<!-- Node21&#45;&gt;Node22 -->
<g id="edge24" class="edge"><title>Node21&#45;&gt;Node22</title>
<path fill="none" stroke="midnightblue" d="M2196.58,-337.433C2095.46,-329.52 1922.55,-311.81 1778,-276 1771.21,-274.318 1764.21,-272.269 1757.29,-270.035"/>
<polygon fill="midnightblue" stroke="midnightblue" points="2196.5,-340.937 2206.74,-338.214 2197.04,-333.958 2196.5,-340.937"/>
</g>
<!-- Node23 -->
<g id="node23" class="node"><title>Node23</title>
<g id="a_node23"><a xlink:href="../../d6/dee/dEdxRes_8C.html" target="_top" xlink:title="/home/travis/build\l/AliceO2Group/AliceO2\l/Detectors/TPC/reconstruction\l/macro/dEdxRes.C">
<polygon fill="none" stroke="black" points="1955,-218 1955,-270 2105,-270 2105,-218 1955,-218"/>
<text text-anchor="start" x="1963" y="-258" font-family="Helvetica,sans-Serif" font-size="10.00">/home/travis/build</text>
<text text-anchor="start" x="1963" y="-247" font-family="Helvetica,sans-Serif" font-size="10.00">/AliceO2Group/AliceO2</text>
<text text-anchor="start" x="1963" y="-236" font-family="Helvetica,sans-Serif" font-size="10.00">/Detectors/TPC/reconstruction</text>
<text text-anchor="middle" x="2030" y="-225" font-family="Helvetica,sans-Serif" font-size="10.00">/macro/dEdxRes.C</text>
</a>
</g>
</g>
<!-- Node21&#45;&gt;Node23 -->
<g id="edge25" class="edge"><title>Node21&#45;&gt;Node23</title>
<path fill="none" stroke="midnightblue" d="M2197.4,-310.1C2163.86,-297.058 2125.92,-282.303 2094.65,-270.142"/>
<polygon fill="midnightblue" stroke="midnightblue" points="2196.14,-313.367 2206.73,-313.73 2198.68,-306.843 2196.14,-313.367"/>
</g>
<!-- Node24 -->
<g id="node24" class="node"><title>Node24</title>
<g id="a_node24"><a xlink:href="../../d5/db8/RawClusterFinder_8C.html" target="_top" xlink:title="/home/travis/build\l/AliceO2Group/AliceO2\l/Detectors/TPC/reconstruction\l/macro/RawClusterFinder.C">
<polygon fill="none" stroke="black" points="2123,-218 2123,-270 2273,-270 2273,-218 2123,-218"/>
<text text-anchor="start" x="2131" y="-258" font-family="Helvetica,sans-Serif" font-size="10.00">/home/travis/build</text>
<text text-anchor="start" x="2131" y="-247" font-family="Helvetica,sans-Serif" font-size="10.00">/AliceO2Group/AliceO2</text>
<text text-anchor="start" x="2131" y="-236" font-family="Helvetica,sans-Serif" font-size="10.00">/Detectors/TPC/reconstruction</text>
<text text-anchor="middle" x="2198" y="-225" font-family="Helvetica,sans-Serif" font-size="10.00">/macro/RawClusterFinder.C</text>
</a>
</g>
</g>
<!-- Node21&#45;&gt;Node24 -->
<g id="edge26" class="edge"><title>Node21&#45;&gt;Node24</title>
<path fill="none" stroke="midnightblue" d="M2248.93,-304.423C2239.03,-292.866 2228.43,-280.497 2219.47,-270.054"/>
<polygon fill="midnightblue" stroke="midnightblue" points="2246.49,-306.946 2255.65,-312.261 2251.8,-302.391 2246.49,-306.946"/>
</g>
<!-- Node21&#45;&gt;Node26 -->
<g id="edge28" class="edge"><title>Node21&#45;&gt;Node26</title>
<path fill="none" stroke="midnightblue" d="M2196.92,-329.831C2128.47,-318.329 2030.16,-299.762 1946,-276 1939.72,-274.226 1933.23,-272.2 1926.79,-270.052"/>
<polygon fill="midnightblue" stroke="midnightblue" points="2196.36,-333.285 2206.8,-331.476 2197.51,-326.38 2196.36,-333.285"/>
</g>
<!-- Node21&#45;&gt;Node28 -->
<g id="edge30" class="edge"><title>Node21&#45;&gt;Node28</title>
<path fill="none" stroke="midnightblue" d="M2367.09,-312.002C2404.19,-298.483 2447.13,-282.842 2482.18,-270.073"/>
<polygon fill="midnightblue" stroke="midnightblue" points="2365.49,-308.86 2357.29,-315.571 2367.88,-315.437 2365.49,-308.86"/>
</g>
<!-- Node21&#45;&gt;Node29 -->
<g id="edge31" class="edge"><title>Node21&#45;&gt;Node29</title>
<path fill="none" stroke="midnightblue" d="M2367.22,-331.881C2442.82,-320.999 2555.86,-302.228 2652,-276 2658.45,-274.241 2665.1,-272.198 2671.71,-270.016"/>
<polygon fill="midnightblue" stroke="midnightblue" points="2366.67,-328.423 2357.27,-333.299 2367.66,-335.353 2366.67,-328.423"/>
</g>
<!-- Node21&#45;&gt;Node30 -->
<g id="edge32" class="edge"><title>Node21&#45;&gt;Node30</title>
<path fill="none" stroke="midnightblue" d="M2367.31,-338.308C2474.14,-331.078 2662.18,-313.865 2819,-276 2825.87,-274.341 2832.95,-272.307 2839.96,-270.082"/>
<polygon fill="midnightblue" stroke="midnightblue" points="2366.97,-334.822 2357.23,-338.976 2367.44,-341.807 2366.97,-334.822"/>
</g>
<!-- Node31 -->
<g id="node31" class="node"><title>Node31</title>
<g id="a_node31"><a xlink:href="../../d6/da8/TrackTPC_8cxx.html" target="_top" xlink:title="Implementation of the TPC track. ">
<polygon fill="none" stroke="black" points="2291,-218 2291,-270 2441,-270 2441,-218 2291,-218"/>
<text text-anchor="start" x="2299" y="-258" font-family="Helvetica,sans-Serif" font-size="10.00">/home/travis/build</text>
<text text-anchor="start" x="2299" y="-247" font-family="Helvetica,sans-Serif" font-size="10.00">/AliceO2Group/AliceO2</text>
<text text-anchor="start" x="2299" y="-236" font-family="Helvetica,sans-Serif" font-size="10.00">/Detectors/TPC/reconstruction</text>
<text text-anchor="middle" x="2366" y="-225" font-family="Helvetica,sans-Serif" font-size="10.00">/src/TrackTPC.cxx</text>
</a>
</g>
</g>
<!-- Node21&#45;&gt;Node31 -->
<g id="edge33" class="edge"><title>Node21&#45;&gt;Node31</title>
<path fill="none" stroke="midnightblue" d="M2315.07,-304.423C2324.97,-292.866 2335.57,-280.497 2344.53,-270.054"/>
<polygon fill="midnightblue" stroke="midnightblue" points="2312.2,-302.391 2308.35,-312.261 2317.51,-306.946 2312.2,-302.391"/>
</g>
<!-- Node21&#45;&gt;Node32 -->
<g id="edge34" class="edge"><title>Node21&#45;&gt;Node32</title>
<path fill="none" stroke="midnightblue" d="M2367.17,-341.485C2500.72,-337.642 2766.91,-324.053 2987,-276 2994.35,-274.395 3001.94,-272.365 3009.43,-270.116"/>
<polygon fill="midnightblue" stroke="midnightblue" points="2366.9,-337.991 2357,-341.766 2367.09,-344.988 2366.9,-337.991"/>
</g>
<!-- Node25 -->
<g id="node25" class="node"><title>Node25</title>
<g id="a_node25"><a xlink:href="../../df/da0/runRawClusterFinder_8C.html" target="_top" xlink:title="/home/travis/build\l/AliceO2Group/AliceO2\l/Detectors/TPC/reconstruction\l/macro/runRawClusterFinder.C">
<polygon fill="none" stroke="black" points="2122,-112 2122,-164 2274,-164 2274,-112 2122,-112"/>
<text text-anchor="start" x="2130" y="-152" font-family="Helvetica,sans-Serif" font-size="10.00">/home/travis/build</text>
<text text-anchor="start" x="2130" y="-141" font-family="Helvetica,sans-Serif" font-size="10.00">/AliceO2Group/AliceO2</text>
<text text-anchor="start" x="2130" y="-130" font-family="Helvetica,sans-Serif" font-size="10.00">/Detectors/TPC/reconstruction</text>
<text text-anchor="middle" x="2198" y="-119" font-family="Helvetica,sans-Serif" font-size="10.00">/macro/runRawClusterFinder.C</text>
</a>
</g>
</g>
<!-- Node24&#45;&gt;Node25 -->
<g id="edge27" class="edge"><title>Node24&#45;&gt;Node25</title>
<path fill="none" stroke="midnightblue" d="M2198,-207.42C2198,-193.246 2198,-177.258 2198,-164.304"/>
<polygon fill="midnightblue" stroke="midnightblue" points="2194.5,-207.824 2198,-217.825 2201.5,-207.825 2194.5,-207.824"/>
</g>
<!-- Node27 -->
<g id="node27" class="node"><title>Node27</title>
<g id="a_node27"><a xlink:href="../../d3/d56/runTPC_8cxx.html" target="_top" xlink:title="/home/travis/build\l/AliceO2Group/AliceO2\l/run/runTPC.cxx">
<polygon fill="none" stroke="black" points="1803,-117.5 1803,-158.5 1921,-158.5 1921,-117.5 1803,-117.5"/>
<text text-anchor="start" x="1811" y="-146.5" font-family="Helvetica,sans-Serif" font-size="10.00">/home/travis/build</text>
<text text-anchor="start" x="1811" y="-135.5" font-family="Helvetica,sans-Serif" font-size="10.00">/AliceO2Group/AliceO2</text>
<text text-anchor="middle" x="1862" y="-124.5" font-family="Helvetica,sans-Serif" font-size="10.00">/run/runTPC.cxx</text>
</a>
</g>
</g>
<!-- Node26&#45;&gt;Node27 -->
<g id="edge29" class="edge"><title>Node26&#45;&gt;Node27</title>
<path fill="none" stroke="midnightblue" d="M1862,-207.534C1862,-191.225 1862,-172.495 1862,-158.741"/>
<polygon fill="midnightblue" stroke="midnightblue" points="1858.5,-207.824 1862,-217.825 1865.5,-207.825 1858.5,-207.824"/>
</g>
</g>
</svg>
        <g id="navigator" transform="translate(0 0)" fill="#404254">
                <rect fill="#f2f5e9" fill-opacity="0.5" stroke="#606060" stroke-width=".5" x="0" y="0" width="60" height="60"/>
                <use id="zoomplus" xlink:href="#zoomPlus" x="17" y="9" onmousedown="handleZoom(evt,'in')"/>
                <use id="zoomminus" xlink:href="#zoomMin" x="42" y="9" onmousedown="handleZoom(evt,'out')"/>
                <use id="reset" xlink:href="#resetDef" x="30" y="36" onmousedown="handleReset()"/>
                <g id="arrowUp" xlink:href="#dirArrow" transform="translate(30 24)" onmousedown="handlePan(0,-1)">
                  <use xlink:href="#rim" fill="#404040">
                        <set attributeName="fill" to="#808080" begin="arrowUp.mouseover" end="arrowUp.mouseout"/>
                  </use>
                  <path fill="none" stroke="white" stroke-width="1.5" d="M0,-3.0v7 M-2.5,-0.5L0,-3.0L2.5,-0.5"/>
                </g>
                <g id="arrowRight" xlink:href="#dirArrow" transform="rotate(90) translate(36 -43)" onmousedown="handlePan(1,0)">
                  <use xlink:href="#rim" fill="#404040">
                        <set attributeName="fill" to="#808080" begin="arrowRight.mouseover" end="arrowRight.mouseout"/>
                  </use>
                  <path fill="none" stroke="white" stroke-width="1.5" d="M0,-3.0v7 M-2.5,-0.5L0,-3.0L2.5,-0.5"/>
                </g>
                <g id="arrowDown" xlink:href="#dirArrow" transform="rotate(180) translate(-30 -48)" onmousedown="handlePan(0,1)">
                  <use xlink:href="#rim" fill="#404040">
                        <set attributeName="fill" to="#808080" begin="arrowDown.mouseover" end="arrowDown.mouseout"/>
                  </use>
                  <path fill="none" stroke="white" stroke-width="1.5" d="M0,-3.0v7 M-2.5,-0.5L0,-3.0L2.5,-0.5"/>
                </g>
                <g id="arrowLeft" xlink:href="#dirArrow" transform="rotate(270) translate(-36 17)" onmousedown="handlePan(-1,0)">
                  <use xlink:href="#rim" fill="#404040">
                        <set attributeName="fill" to="#808080" begin="arrowLeft.mouseover" end="arrowLeft.mouseout"/>
                  </use>
                  <path fill="none" stroke="white" stroke-width="1.5" d="M0,-3.0v7 M-2.5,-0.5L0,-3.0L2.5,-0.5"/>
                </g>
        </g>
        <svg viewBox="0 0 15 15" width="100%" height="30px" preserveAspectRatio="xMaxYMin meet">
         <g id="arrow_out" transform="scale(0.3 0.3)">
          <a xlink:href="Detectors_2Base_2include_2DetectorsBase_2Track_8h__dep__incl_org.svg" target="_base">
           <rect id="button" ry="5" rx="5" y="6" x="6" height="38" width="38"
                fill="#f2f5e9" fill-opacity="0.5" stroke="#606060" stroke-width="1.0"/>
           <path id="arrow"
             d="M 11.500037,31.436501 C 11.940474,20.09759 22.043105,11.32322 32.158766,21.979434 L 37.068811,17.246167 C 37.068811,17.246167 37.088388,32 37.088388,32 L 22.160133,31.978069 C 22.160133,31.978069 26.997745,27.140456 26.997745,27.140456 C 18.528582,18.264221 13.291696,25.230495 11.500037,31.436501 z"
             style="fill:#404040;"/>
          </a>
         </g>
        </svg>
</svg>
