<?xml version="1.0" encoding="UTF-8" standalone="no"?>
<!DOCTYPE svg PUBLIC "-//W3C//DTD SVG 1.1//EN"
 "http://www.w3.org/Graphics/SVG/1.1/DTD/svg11.dtd">
<!-- Generated by graphviz version 2.36.0 (20140111.2315)
 -->
<!-- Title: /home/travis/build/AliceO2Group/AliceO2/Detectors/Base/src/Detector.cxx Pages: 1 -->
<!--zoomable 354 -->
<svg id="main" version="1.1" xmlns="http://www.w3.org/2000/svg" xmlns:xlink="http://www.w3.org/1999/xlink" xml:space="preserve" onload="init(evt)">
<style type="text/css"><![CDATA[
.edge:hover path { stroke: red; }
.edge:hover polygon { stroke: red; fill: red; }
]]></style>
<script type="text/javascript"><![CDATA[
var edges = document.getElementsByTagName('g');
if (edges && edges.length) {
  for (var i=0;i<edges.length;i++) {
    if (edges[i].id.substr(0,4)=='edge') {
      edges[i].setAttribute('class','edge');
    }
  }
}
]]></script>
        <defs>
                <circle id="rim" cx="0" cy="0" r="7"/>
                <circle id="rim2" cx="0" cy="0" r="3.5"/>
                <g id="zoomPlus">
                        <use xlink:href="#rim" fill="#404040">
                                <set attributeName="fill" to="#808080" begin="zoomplus.mouseover" end="zoomplus.mouseout"/>
                        </use>
                        <path d="M-4,0h8M0,-4v8" fill="none" stroke="white" stroke-width="1.5" pointer-events="none"/>
                </g>
                <g id="zoomMin">
                        <use xlink:href="#rim" fill="#404040">
                                <set attributeName="fill" to="#808080" begin="zoomminus.mouseover" end="zoomminus.mouseout"/>
                        </use>
                        <path d="M-4,0h8" fill="none" stroke="white" stroke-width="1.5" pointer-events="none"/>
                </g>
                <g id="dirArrow">
                        <path fill="none" stroke="white" stroke-width="1.5" d="M0,-3.0v7 M-2.5,-0.5L0,-3.0L2.5,-0.5"/>
                </g>
               <g id="resetDef">
                       <use xlink:href="#rim2" fill="#404040">
                               <set attributeName="fill" to="#808080" begin="reset.mouseover" end="reset.mouseout"/>
                       </use>
               </g>
        </defs>

<script type="text/javascript">
var viewWidth = 2427;
var viewHeight = 354;
var sectionId = 'dynsection-0';
</script>
<script xlink:href="../../svgpan.js"/>
<svg id="graph" class="graph">
<g id="viewport">
<title>/home/travis/build/AliceO2Group/AliceO2/Detectors/Base/src/Detector.cxx</title>
<!-- Node1 -->
<g id="node1" class="node"><title>Node1</title>
<polygon fill="#bfbfbf" stroke="black" points="1222,-304.5 1222,-345.5 1386,-345.5 1386,-304.5 1222,-304.5"/>
<text text-anchor="start" x="1230" y="-333.5" font-family="Helvetica,sans-Serif" font-size="10.00">/home/travis/build</text>
<text text-anchor="start" x="1230" y="-322.5" font-family="Helvetica,sans-Serif" font-size="10.00">/AliceO2Group/AliceO2</text>
<text text-anchor="middle" x="1304" y="-311.5" font-family="Helvetica,sans-Serif" font-size="10.00">/Detectors/Base/src/Detector.cxx</text>
</g>
<!-- Node2 -->
<g id="node2" class="node"><title>Node2</title>
<g id="a_node2"><a xlink:href="../../d1/d3a/Base_2include_2DetectorsBase_2Detector_8h.html" target="_top" xlink:title="DetectorsBase/Detector.h">
<polygon fill="none" stroke="black" points="476.5,-248.5 476.5,-267.5 607.5,-267.5 607.5,-248.5 476.5,-248.5"/>
<text text-anchor="middle" x="542" y="-255.5" font-family="Helvetica,sans-Serif" font-size="10.00">DetectorsBase/Detector.h</text>
</a>
</g>
</g>
<!-- Node1&#45;&gt;Node2 -->
<g id="edge1" class="edge"><title>Node1&#45;&gt;Node2</title>
<path fill="none" stroke="midnightblue" d="M1221.73,-316.982C1073,-304.295 761.51,-277.725 617.717,-265.459"/>
<polygon fill="midnightblue" stroke="midnightblue" points="617.919,-261.963 607.658,-264.601 617.324,-268.938 617.919,-261.963"/>
</g>
<!-- Node8 -->
<g id="node8" class="node"><title>Node8</title>
<g id="a_node8"><a xlink:href="../../d0/d9a/MaterialManager_8h.html" target="_top" xlink:title="DetectorsBase/MaterialManager.h">
<polygon fill="none" stroke="black" points="-0.5,-192.5 -0.5,-211.5 164.5,-211.5 164.5,-192.5 -0.5,-192.5"/>
<text text-anchor="middle" x="82" y="-199.5" font-family="Helvetica,sans-Serif" font-size="10.00">DetectorsBase/MaterialManager.h</text>
</a>
</g>
</g>
<!-- Node1&#45;&gt;Node8 -->
<g id="edge15" class="edge"><title>Node1&#45;&gt;Node8</title>
<path fill="none" stroke="midnightblue" d="M1221.77,-321.24C1071.48,-315.587 742.541,-300.395 467,-268 347.084,-253.902 207.653,-227.954 133.918,-213.472"/>
<polygon fill="midnightblue" stroke="midnightblue" points="134.447,-210.009 123.959,-211.507 133.092,-216.877 134.447,-210.009"/>
</g>
<!-- Node14 -->
<g id="node14" class="node"><title>Node14</title>
<g id="a_node14"><a xlink:href="../../d6/d31/DetID_8h.html" target="_top" xlink:title="DetectorsBase/DetID.h">
<polygon fill="none" stroke="black" points="941.5,-248.5 941.5,-267.5 1060.5,-267.5 1060.5,-248.5 941.5,-248.5"/>
<text text-anchor="middle" x="1001" y="-255.5" font-family="Helvetica,sans-Serif" font-size="10.00">DetectorsBase/DetID.h</text>
</a>
</g>
</g>
<!-- Node1&#45;&gt;Node14 -->
<g id="edge16" class="edge"><title>Node1&#45;&gt;Node14</title>
<path fill="none" stroke="midnightblue" d="M1221.6,-306.324C1166.91,-294.591 1096.93,-279.578 1050.61,-269.643"/>
<polygon fill="midnightblue" stroke="midnightblue" points="1051.33,-266.217 1040.82,-267.542 1049.86,-273.061 1051.33,-266.217"/>
</g>
<!-- Node22 -->
<g id="node22" class="node"><title>Node22</title>
<g id="a_node22"><a xlink:href="../../db/d4b/MagneticField_8h.html" target="_top" xlink:title="Definition of the MagF class. ">
<polygon fill="none" stroke="black" points="1574,-248.5 1574,-267.5 1684,-267.5 1684,-248.5 1574,-248.5"/>
<text text-anchor="middle" x="1629" y="-255.5" font-family="Helvetica,sans-Serif" font-size="10.00">Field/MagneticField.h</text>
</a>
</g>
</g>
<!-- Node1&#45;&gt;Node22 -->
<g id="edge27" class="edge"><title>Node1&#45;&gt;Node22</title>
<path fill="none" stroke="midnightblue" d="M1386.01,-307.598C1445.77,-295.645 1524.97,-279.806 1576.44,-269.511"/>
<polygon fill="midnightblue" stroke="midnightblue" points="1577.24,-272.922 1586.36,-267.529 1575.86,-266.058 1577.24,-272.922"/>
</g>
<!-- Node26 -->
<g id="node26" class="node"><title>Node26</title>
<polygon fill="none" stroke="#bfbfbf" points="1992,-74.5 1992,-93.5 2048,-93.5 2048,-74.5 1992,-74.5"/>
<text text-anchor="middle" x="2020" y="-81.5" font-family="Helvetica,sans-Serif" font-size="10.00">TString.h</text>
</g>
<!-- Node1&#45;&gt;Node26 -->
<g id="edge68" class="edge"><title>Node1&#45;&gt;Node26</title>
<path fill="none" stroke="midnightblue" d="M1386.14,-318.664C1582.36,-305.083 2065.62,-266.393 2113,-212 2146.67,-173.342 2081.05,-123.141 2043.58,-99.0746"/>
<polygon fill="midnightblue" stroke="midnightblue" points="2045.07,-95.8793 2034.74,-93.5421 2041.36,-101.813 2045.07,-95.8793"/>
</g>
<!-- Node47 -->
<g id="node47" class="node"><title>Node47</title>
<polygon fill="none" stroke="#bfbfbf" points="2161,-248.5 2161,-267.5 2235,-267.5 2235,-248.5 2161,-248.5"/>
<text text-anchor="middle" x="2198" y="-255.5" font-family="Helvetica,sans-Serif" font-size="10.00">TVirtualMC.h</text>
</g>
<!-- Node1&#45;&gt;Node47 -->
<g id="edge67" class="edge"><title>Node1&#45;&gt;Node47</title>
<path fill="none" stroke="midnightblue" d="M1386.25,-321.495C1537.38,-316.236 1869.24,-301.633 2147,-268 2148.26,-267.848 2149.53,-267.686 2150.81,-267.514"/>
<polygon fill="midnightblue" stroke="midnightblue" points="2151.36,-270.971 2160.75,-266.054 2150.34,-264.045 2151.36,-270.971"/>
</g>
<!-- Node3 -->
<g id="node3" class="node"><title>Node3</title>
<polygon fill="none" stroke="#bfbfbf" points="434.5,-136.5 434.5,-155.5 469.5,-155.5 469.5,-136.5 434.5,-136.5"/>
<text text-anchor="middle" x="452" y="-143.5" font-family="Helvetica,sans-Serif" font-size="10.00">map</text>
</g>
<!-- Node2&#45;&gt;Node3 -->
<g id="edge2" class="edge"><title>Node2&#45;&gt;Node3</title>
<path fill="none" stroke="midnightblue" d="M520.707,-248.492C504.812,-241.099 483.724,-228.908 471,-212 460.948,-198.643 456.201,-180.071 453.967,-166.199"/>
<polygon fill="midnightblue" stroke="midnightblue" points="457.383,-165.331 452.62,-155.868 450.442,-166.237 457.383,-165.331"/>
</g>
<!-- Node4 -->
<g id="node4" class="node"><title>Node4</title>
<polygon fill="none" stroke="#bfbfbf" points="480,-192.5 480,-211.5 524,-211.5 524,-192.5 480,-192.5"/>
<text text-anchor="middle" x="502" y="-199.5" font-family="Helvetica,sans-Serif" font-size="10.00">vector</text>
</g>
<!-- Node2&#45;&gt;Node4 -->
<g id="edge3" class="edge"><title>Node2&#45;&gt;Node4</title>
<path fill="none" stroke="midnightblue" d="M535.395,-248.083C529.745,-240.455 521.455,-229.264 514.549,-219.941"/>
<polygon fill="midnightblue" stroke="midnightblue" points="517.247,-217.703 508.482,-211.751 511.622,-221.87 517.247,-217.703"/>
</g>
<!-- Node5 -->
<g id="node5" class="node"><title>Node5</title>
<polygon fill="none" stroke="#bfbfbf" points="1135,-192.5 1135,-211.5 1187,-211.5 1187,-192.5 1135,-192.5"/>
<text text-anchor="middle" x="1161" y="-199.5" font-family="Helvetica,sans-Serif" font-size="10.00">memory</text>
</g>
<!-- Node2&#45;&gt;Node5 -->
<g id="edge4" class="edge"><title>Node2&#45;&gt;Node5</title>
<path fill="none" stroke="midnightblue" d="M607.698,-255.673C714.412,-252.699 932.054,-243.226 1124.71,-211.932"/>
<polygon fill="midnightblue" stroke="midnightblue" points="1125.43,-215.359 1134.73,-210.28 1124.3,-208.452 1125.43,-215.359"/>
</g>
<!-- Node6 -->
<g id="node6" class="node"><title>Node6</title>
<polygon fill="none" stroke="#bfbfbf" points="541.5,-192.5 541.5,-211.5 620.5,-211.5 620.5,-192.5 541.5,-192.5"/>
<text text-anchor="middle" x="581" y="-199.5" font-family="Helvetica,sans-Serif" font-size="10.00">FairDetector.h</text>
</g>
<!-- Node2&#45;&gt;Node6 -->
<g id="edge5" class="edge"><title>Node2&#45;&gt;Node6</title>
<path fill="none" stroke="midnightblue" d="M548.44,-248.083C553.949,-240.455 562.031,-229.264 568.765,-219.941"/>
<polygon fill="midnightblue" stroke="midnightblue" points="571.662,-221.907 574.68,-211.751 565.987,-217.809 571.662,-221.907"/>
</g>
<!-- Node7 -->
<g id="node7" class="node"><title>Node7</title>
<polygon fill="none" stroke="#bfbfbf" points="183,-192.5 183,-211.5 283,-211.5 283,-192.5 183,-192.5"/>
<text text-anchor="middle" x="233" y="-199.5" font-family="Helvetica,sans-Serif" font-size="10.00">FairRootManager.h</text>
</g>
<!-- Node2&#45;&gt;Node7 -->
<g id="edge6" class="edge"><title>Node2&#45;&gt;Node7</title>
<path fill="none" stroke="midnightblue" d="M493.038,-248.444C438.456,-238.905 350.21,-223.483 291.899,-213.293"/>
<polygon fill="midnightblue" stroke="midnightblue" points="292.186,-209.79 281.733,-211.516 290.981,-216.686 292.186,-209.79"/>
</g>
<!-- Node2&#45;&gt;Node8 -->
<g id="edge7" class="edge"><title>Node2&#45;&gt;Node8</title>
<path fill="none" stroke="midnightblue" d="M476.093,-249.263C394.045,-239.631 253.865,-223.175 164.691,-212.707"/>
<polygon fill="midnightblue" stroke="midnightblue" points="164.955,-209.214 154.615,-211.524 164.138,-216.166 164.955,-209.214"/>
</g>
<!-- Node9 -->
<g id="node9" class="node"><title>Node9</title>
<polygon fill="none" stroke="#bfbfbf" points="1784,-6.5 1784,-25.5 1840,-25.5 1840,-6.5 1784,-6.5"/>
<text text-anchor="middle" x="1812" y="-13.5" font-family="Helvetica,sans-Serif" font-size="10.00">Rtypes.h</text>
</g>
<!-- Node2&#45;&gt;Node9 -->
<g id="edge10" class="edge"><title>Node2&#45;&gt;Node9</title>
<path fill="none" stroke="midnightblue" d="M570.005,-248.409C588.908,-241.335 613.199,-229.579 629,-212 674.904,-160.929 629.214,-108.042 685,-68 730.165,-35.5813 1581.97,-20.5472 1773.84,-17.5643"/>
<polygon fill="midnightblue" stroke="midnightblue" points="1774.05,-21.0614 1784,-17.408 1773.95,-14.0622 1774.05,-21.0614"/>
</g>
<!-- Node10 -->
<g id="node10" class="node"><title>Node10</title>
<polygon fill="none" stroke="#bfbfbf" points="301.5,-192.5 301.5,-211.5 354.5,-211.5 354.5,-192.5 301.5,-192.5"/>
<text text-anchor="middle" x="328" y="-199.5" font-family="Helvetica,sans-Serif" font-size="10.00">cxxabi.h</text>
</g>
<!-- Node2&#45;&gt;Node10 -->
<g id="edge11" class="edge"><title>Node2&#45;&gt;Node10</title>
<path fill="none" stroke="midnightblue" d="M507.671,-248.428C473.668,-239.925 419.844,-226.431 364.694,-212.422"/>
<polygon fill="midnightblue" stroke="midnightblue" points="365.303,-208.966 354.749,-209.894 363.579,-215.75 365.303,-208.966"/>
</g>
<!-- Node11 -->
<g id="node11" class="node"><title>Node11</title>
<polygon fill="none" stroke="#bfbfbf" points="372.5,-192.5 372.5,-211.5 423.5,-211.5 423.5,-192.5 372.5,-192.5"/>
<text text-anchor="middle" x="398" y="-199.5" font-family="Helvetica,sans-Serif" font-size="10.00">typeinfo</text>
</g>
<!-- Node2&#45;&gt;Node11 -->
<g id="edge12" class="edge"><title>Node2&#45;&gt;Node11</title>
<path fill="none" stroke="midnightblue" d="M519.183,-248.444C495.168,-239.438 457.171,-225.189 430.131,-215.049"/>
<polygon fill="midnightblue" stroke="midnightblue" points="431.303,-211.751 420.71,-211.516 428.845,-218.305 431.303,-211.751"/>
</g>
<!-- Node12 -->
<g id="node12" class="node"><title>Node12</title>
<polygon fill="none" stroke="#bfbfbf" points="677,-192.5 677,-211.5 739,-211.5 739,-192.5 677,-192.5"/>
<text text-anchor="middle" x="708" y="-199.5" font-family="Helvetica,sans-Serif" font-size="10.00">type_traits</text>
</g>
<!-- Node2&#45;&gt;Node12 -->
<g id="edge13" class="edge"><title>Node2&#45;&gt;Node12</title>
<path fill="none" stroke="midnightblue" d="M568.303,-248.444C596.351,-239.32 640.944,-224.813 672.184,-214.651"/>
<polygon fill="midnightblue" stroke="midnightblue" points="673.393,-217.938 681.82,-211.516 671.228,-211.282 673.393,-217.938"/>
</g>
<!-- Node13 -->
<g id="node13" class="node"><title>Node13</title>
<polygon fill="none" stroke="#bfbfbf" points="1071.5,-136.5 1071.5,-155.5 1112.5,-155.5 1112.5,-136.5 1071.5,-136.5"/>
<text text-anchor="middle" x="1092" y="-143.5" font-family="Helvetica,sans-Serif" font-size="10.00">string</text>
</g>
<!-- Node2&#45;&gt;Node13 -->
<g id="edge14" class="edge"><title>Node2&#45;&gt;Node13</title>
<path fill="none" stroke="midnightblue" d="M607.529,-253.829C683.036,-249.1 810.411,-237.805 917,-212 970.613,-199.02 1030.29,-174.569 1064.27,-159.636"/>
<polygon fill="midnightblue" stroke="midnightblue" points="1065.83,-162.771 1073.55,-155.513 1062.99,-156.374 1065.83,-162.771"/>
</g>
<!-- Node8&#45;&gt;Node3 -->
<g id="edge9" class="edge"><title>Node8&#45;&gt;Node3</title>
<path fill="none" stroke="midnightblue" d="M155.231,-192.484C239.008,-182.523 370.935,-166.113 420,-156 421.448,-155.701 422.927,-155.373 424.417,-155.022"/>
<polygon fill="midnightblue" stroke="midnightblue" points="425.366,-158.392 434.17,-152.497 423.612,-151.615 425.366,-158.392"/>
</g>
<!-- Node8&#45;&gt;Node9 -->
<g id="edge8" class="edge"><title>Node8&#45;&gt;Node9</title>
<path fill="none" stroke="midnightblue" d="M109.258,-192.457C189.084,-167.871 429.655,-96.8671 635,-68 862.638,-35.9989 1597.97,-20.8751 1773.92,-17.6626"/>
<polygon fill="midnightblue" stroke="midnightblue" points="1774.06,-21.1607 1783.99,-17.4806 1773.93,-14.1619 1774.06,-21.1607"/>
</g>
<!-- Node14&#45;&gt;Node9 -->
<g id="edge17" class="edge"><title>Node14&#45;&gt;Node9</title>
<path fill="none" stroke="midnightblue" d="M941.142,-252.029C896.632,-246.57 835.327,-235.254 786,-212 719.777,-180.78 655.437,-120.949 706,-68 743.641,-28.5832 1582.94,-18.9773 1773.68,-17.3002"/>
<polygon fill="midnightblue" stroke="midnightblue" points="1773.82,-20.7992 1783.79,-17.2134 1773.76,-13.7994 1773.82,-20.7992"/>
</g>
<!-- Node14&#45;&gt;Node12 -->
<g id="edge22" class="edge"><title>Node14&#45;&gt;Node12</title>
<path fill="none" stroke="midnightblue" d="M952.481,-248.461C902.452,-239.594 822.204,-225.198 753,-212 751.904,-211.791 750.794,-211.578 749.674,-211.362"/>
<polygon fill="midnightblue" stroke="midnightblue" points="749.943,-207.849 739.457,-209.366 748.601,-214.719 749.943,-207.849"/>
</g>
<!-- Node15 -->
<g id="node15" class="node"><title>Node15</title>
<polygon fill="none" stroke="#bfbfbf" points="948,-136.5 948,-155.5 986,-155.5 986,-136.5 948,-136.5"/>
<text text-anchor="middle" x="967" y="-143.5" font-family="Helvetica,sans-Serif" font-size="10.00">array</text>
</g>
<!-- Node14&#45;&gt;Node15 -->
<g id="edge18" class="edge"><title>Node14&#45;&gt;Node15</title>
<path fill="none" stroke="midnightblue" d="M998.332,-248.368C992.82,-230.537 980.073,-189.295 972.648,-165.272"/>
<polygon fill="midnightblue" stroke="midnightblue" points="975.953,-164.112 969.656,-155.591 969.265,-166.179 975.953,-164.112"/>
</g>
<!-- Node16 -->
<g id="node16" class="node"><title>Node16</title>
<polygon fill="none" stroke="#bfbfbf" points="1205.5,-192.5 1205.5,-211.5 1246.5,-211.5 1246.5,-192.5 1205.5,-192.5"/>
<text text-anchor="middle" x="1226" y="-199.5" font-family="Helvetica,sans-Serif" font-size="10.00">bitset</text>
</g>
<!-- Node14&#45;&gt;Node16 -->
<g id="edge19" class="edge"><title>Node14&#45;&gt;Node16</title>
<path fill="none" stroke="midnightblue" d="M1041.52,-248.449C1079.01,-240.361 1136.48,-227.512 1195.52,-211.99"/>
<polygon fill="midnightblue" stroke="midnightblue" points="1196.62,-215.318 1205.39,-209.373 1194.83,-208.552 1196.62,-215.318"/>
</g>
<!-- Node17 -->
<g id="node17" class="node"><title>Node17</title>
<polygon fill="none" stroke="#bfbfbf" points="1003.5,-192.5 1003.5,-211.5 1052.5,-211.5 1052.5,-192.5 1003.5,-192.5"/>
<text text-anchor="middle" x="1028" y="-199.5" font-family="Helvetica,sans-Serif" font-size="10.00">cassert</text>
</g>
<!-- Node14&#45;&gt;Node17 -->
<g id="edge20" class="edge"><title>Node14&#45;&gt;Node17</title>
<path fill="none" stroke="midnightblue" d="M1005.46,-248.083C1009.15,-240.691 1014.52,-229.953 1019.09,-220.811"/>
<polygon fill="midnightblue" stroke="midnightblue" points="1022.28,-222.261 1023.62,-211.751 1016.02,-219.13 1022.28,-222.261"/>
</g>
<!-- Node18 -->
<g id="node18" class="node"><title>Node18</title>
<polygon fill="none" stroke="#bfbfbf" points="1071,-192.5 1071,-211.5 1117,-211.5 1117,-192.5 1071,-192.5"/>
<text text-anchor="middle" x="1094" y="-199.5" font-family="Helvetica,sans-Serif" font-size="10.00">cstdint</text>
</g>
<!-- Node14&#45;&gt;Node18 -->
<g id="edge21" class="edge"><title>Node14&#45;&gt;Node18</title>
<path fill="none" stroke="midnightblue" d="M1015.94,-248.324C1030.59,-239.822 1053.13,-226.729 1070.24,-216.797"/>
<polygon fill="midnightblue" stroke="midnightblue" points="1072.2,-219.703 1079.1,-211.655 1068.69,-213.649 1072.2,-219.703"/>
</g>
<!-- Node19 -->
<g id="node19" class="node"><title>Node19</title>
<g id="a_node19"><a xlink:href="../../d9/ded/Utils_8h.html" target="_top" xlink:title="DetectorsBase/Utils.h">
<polygon fill="none" stroke="black" points="795.5,-192.5 795.5,-211.5 908.5,-211.5 908.5,-192.5 795.5,-192.5"/>
<text text-anchor="middle" x="852" y="-199.5" font-family="Helvetica,sans-Serif" font-size="10.00">DetectorsBase/Utils.h</text>
</a>
</g>
</g>
<!-- Node14&#45;&gt;Node19 -->
<g id="edge23" class="edge"><title>Node14&#45;&gt;Node19</title>
<path fill="none" stroke="midnightblue" d="M977.391,-248.444C952.542,-239.438 913.226,-225.189 885.246,-215.049"/>
<polygon fill="midnightblue" stroke="midnightblue" points="886.093,-211.633 875.499,-211.516 883.708,-218.214 886.093,-211.633"/>
</g>
<!-- Node19&#45;&gt;Node15 -->
<g id="edge26" class="edge"><title>Node19&#45;&gt;Node15</title>
<path fill="none" stroke="midnightblue" d="M870.222,-192.444C888.896,-183.675 918.156,-169.935 939.617,-159.858"/>
<polygon fill="midnightblue" stroke="midnightblue" points="941.299,-162.935 948.863,-155.516 938.324,-156.599 941.299,-162.935"/>
</g>
<!-- Node20 -->
<g id="node20" class="node"><title>Node20</title>
<g id="a_node20"><a xlink:href="../../d1/daa/Base_2include_2DetectorsBase_2Constants_8h.html" target="_top" xlink:title="DetectorsBase/Constants.h">
<polygon fill="none" stroke="black" points="787,-136.5 787,-155.5 925,-155.5 925,-136.5 787,-136.5"/>
<text text-anchor="middle" x="856" y="-143.5" font-family="Helvetica,sans-Serif" font-size="10.00">DetectorsBase/Constants.h</text>
</a>
</g>
</g>
<!-- Node19&#45;&gt;Node20 -->
<g id="edge24" class="edge"><title>Node19&#45;&gt;Node20</title>
<path fill="none" stroke="midnightblue" d="M852.661,-192.083C853.185,-185.006 853.936,-174.861 854.594,-165.986"/>
<polygon fill="midnightblue" stroke="midnightblue" points="858.103,-165.982 855.352,-155.751 851.123,-165.465 858.103,-165.982"/>
</g>
<!-- Node21 -->
<g id="node21" class="node"><title>Node21</title>
<polygon fill="none" stroke="#bfbfbf" points="725,-136.5 725,-155.5 769,-155.5 769,-136.5 725,-136.5"/>
<text text-anchor="middle" x="747" y="-143.5" font-family="Helvetica,sans-Serif" font-size="10.00">cmath</text>
</g>
<!-- Node19&#45;&gt;Node21 -->
<g id="edge25" class="edge"><title>Node19&#45;&gt;Node21</title>
<path fill="none" stroke="midnightblue" d="M835.13,-192.324C818.291,-183.664 792.193,-170.242 772.762,-160.249"/>
<polygon fill="midnightblue" stroke="midnightblue" points="774.322,-157.116 763.828,-155.655 771.12,-163.341 774.322,-157.116"/>
</g>
<!-- Node22&#45;&gt;Node5 -->
<g id="edge66" class="edge"><title>Node22&#45;&gt;Node5</title>
<path fill="none" stroke="midnightblue" d="M1573.95,-253.9C1493.28,-248.781 1338.13,-236.752 1197.39,-212.007"/>
<polygon fill="midnightblue" stroke="midnightblue" points="1197.74,-208.514 1187.28,-210.203 1196.51,-215.406 1197.74,-208.514"/>
</g>
<!-- Node22&#45;&gt;Node9 -->
<g id="edge64" class="edge"><title>Node22&#45;&gt;Node9</title>
<path fill="none" stroke="midnightblue" d="M1629.66,-248.16C1631.05,-234.803 1635.28,-209.21 1648,-192 1674.88,-155.614 1693.69,-158.387 1733,-136 1764.78,-117.901 1786.68,-130.41 1807,-100 1819.75,-80.9159 1818.59,-53.5199 1815.88,-35.4989"/>
<polygon fill="midnightblue" stroke="midnightblue" points="1819.33,-34.8676 1814.11,-25.6478 1812.44,-36.1103 1819.33,-34.8676"/>
</g>
<!-- Node23 -->
<g id="node23" class="node"><title>Node23</title>
<polygon fill="none" stroke="#bfbfbf" points="1657,-192.5 1657,-211.5 1719,-211.5 1719,-192.5 1657,-192.5"/>
<text text-anchor="middle" x="1688" y="-199.5" font-family="Helvetica,sans-Serif" font-size="10.00">FairField.h</text>
</g>
<!-- Node22&#45;&gt;Node23 -->
<g id="edge28" class="edge"><title>Node22&#45;&gt;Node23</title>
<path fill="none" stroke="midnightblue" d="M1638.48,-248.324C1647.2,-240.341 1660.34,-228.313 1670.9,-218.653"/>
<polygon fill="midnightblue" stroke="midnightblue" points="1673.33,-221.167 1678.35,-211.834 1668.61,-216.004 1673.33,-221.167"/>
</g>
<!-- Node24 -->
<g id="node24" class="node"><title>Node24</title>
<g id="a_node24"><a xlink:href="../../d3/d91/MagFieldParam_8h.html" target="_top" xlink:title="Definition of the MagFieldParam: container for ALICE mag. field parameters. ">
<polygon fill="none" stroke="black" points="1775.5,-192.5 1775.5,-211.5 1892.5,-211.5 1892.5,-192.5 1775.5,-192.5"/>
<text text-anchor="middle" x="1834" y="-199.5" font-family="Helvetica,sans-Serif" font-size="10.00">Field/MagFieldParam.h</text>
</a>
</g>
</g>
<!-- Node22&#45;&gt;Node24 -->
<g id="edge29" class="edge"><title>Node22&#45;&gt;Node24</title>
<path fill="none" stroke="midnightblue" d="M1661.48,-248.444C1696.72,-239.162 1753.1,-224.309 1791.76,-214.127"/>
<polygon fill="midnightblue" stroke="midnightblue" points="1792.89,-217.448 1801.67,-211.516 1791.11,-210.679 1792.89,-217.448"/>
</g>
<!-- Node27 -->
<g id="node27" class="node"><title>Node27</title>
<g id="a_node27"><a xlink:href="../../dd/dfb/MagneticWrapperChebyshev_8h.html" target="_top" xlink:title="Field/MagneticWrapperChebyshev.h">
<polygon fill="none" stroke="black" points="1929.5,-192.5 1929.5,-211.5 2104.5,-211.5 2104.5,-192.5 1929.5,-192.5"/>
<text text-anchor="middle" x="2017" y="-199.5" font-family="Helvetica,sans-Serif" font-size="10.00">Field/MagneticWrapperChebyshev.h</text>
</a>
</g>
</g>
<!-- Node22&#45;&gt;Node27 -->
<g id="edge32" class="edge"><title>Node22&#45;&gt;Node27</title>
<path fill="none" stroke="midnightblue" d="M1684.18,-249.32C1752.72,-239.782 1869.8,-223.487 1945.25,-212.986"/>
<polygon fill="midnightblue" stroke="midnightblue" points="1946.19,-216.389 1955.61,-211.544 1945.22,-209.456 1946.19,-216.389"/>
</g>
<!-- Node29 -->
<g id="node29" class="node"><title>Node29</title>
<polygon fill="none" stroke="#bfbfbf" points="2041,-6.5 2041,-25.5 2103,-25.5 2103,-6.5 2041,-6.5"/>
<text text-anchor="middle" x="2072" y="-13.5" font-family="Helvetica,sans-Serif" font-size="10.00">TNamed.h</text>
</g>
<!-- Node22&#45;&gt;Node29 -->
<g id="edge65" class="edge"><title>Node22&#45;&gt;Node29</title>
<path fill="none" stroke="midnightblue" d="M1660.31,-248.457C1681.23,-241.457 1708.24,-229.769 1727,-212 1754.71,-185.748 1738.53,-161.431 1767,-136 1807.89,-99.4709 1960.37,-50.4151 2033.02,-28.4595"/>
<polygon fill="midnightblue" stroke="midnightblue" points="2034.16,-31.7741 2042.73,-25.5454 2032.14,-25.0699 2034.16,-31.7741"/>
</g>
<!-- Node34 -->
<g id="node34" class="node"><title>Node34</title>
<g id="a_node34"><a xlink:href="../../da/df4/MagFieldFast_8h.html" target="_top" xlink:title="Definition of the fast magnetic field parametrization MagFieldFast. ">
<polygon fill="none" stroke="black" points="1348,-192.5 1348,-211.5 1456,-211.5 1456,-192.5 1348,-192.5"/>
<text text-anchor="middle" x="1402" y="-199.5" font-family="Helvetica,sans-Serif" font-size="10.00">Field/MagFieldFast.h</text>
</a>
</g>
</g>
<!-- Node22&#45;&gt;Node34 -->
<g id="edge48" class="edge"><title>Node22&#45;&gt;Node34</title>
<path fill="none" stroke="midnightblue" d="M1593.03,-248.444C1553.68,-239.083 1490.51,-224.056 1447.69,-213.868"/>
<polygon fill="midnightblue" stroke="midnightblue" points="1448.34,-210.426 1437.8,-211.516 1446.72,-217.236 1448.34,-210.426"/>
</g>
<!-- Node46 -->
<g id="node46" class="node"><title>Node46</title>
<polygon fill="none" stroke="#bfbfbf" points="1535.5,-192.5 1535.5,-211.5 1600.5,-211.5 1600.5,-192.5 1535.5,-192.5"/>
<text text-anchor="middle" x="1568" y="-199.5" font-family="Helvetica,sans-Serif" font-size="10.00">TSystem.h</text>
</g>
<!-- Node22&#45;&gt;Node46 -->
<g id="edge63" class="edge"><title>Node22&#45;&gt;Node46</title>
<path fill="none" stroke="midnightblue" d="M1619.2,-248.324C1610.18,-240.341 1596.59,-228.313 1585.68,-218.653"/>
<polygon fill="midnightblue" stroke="midnightblue" points="1587.79,-215.842 1577.98,-211.834 1583.15,-221.083 1587.79,-215.842"/>
</g>
<!-- Node25 -->
<g id="node25" class="node"><title>Node25</title>
<polygon fill="none" stroke="#bfbfbf" points="1775.5,-136.5 1775.5,-155.5 1880.5,-155.5 1880.5,-136.5 1775.5,-136.5"/>
<text text-anchor="middle" x="1828" y="-143.5" font-family="Helvetica,sans-Serif" font-size="10.00">FairParGenericSet.h</text>
</g>
<!-- Node24&#45;&gt;Node25 -->
<g id="edge30" class="edge"><title>Node24&#45;&gt;Node25</title>
<path fill="none" stroke="midnightblue" d="M1833.01,-192.083C1832.21,-184.927 1831.07,-174.635 1830.08,-165.691"/>
<polygon fill="midnightblue" stroke="midnightblue" points="1833.56,-165.303 1828.97,-155.751 1826.6,-166.076 1833.56,-165.303"/>
</g>
<!-- Node24&#45;&gt;Node26 -->
<g id="edge31" class="edge"><title>Node24&#45;&gt;Node26</title>
<path fill="none" stroke="midnightblue" d="M1847.68,-192.47C1879.52,-172.61 1958.86,-123.131 1997.77,-98.8643"/>
<polygon fill="midnightblue" stroke="midnightblue" points="1999.67,-101.804 2006.3,-93.5423 1995.97,-95.8643 1999.67,-101.804"/>
</g>
<!-- Node27&#45;&gt;Node9 -->
<g id="edge47" class="edge"><title>Node27&#45;&gt;Node9</title>
<path fill="none" stroke="midnightblue" d="M2007.39,-192.372C1975.25,-163.524 1871.21,-70.1415 1829.52,-32.7212"/>
<polygon fill="midnightblue" stroke="midnightblue" points="1831.61,-29.8983 1821.83,-25.8234 1826.93,-35.1077 1831.61,-29.8983"/>
</g>
<!-- Node28 -->
<g id="node28" class="node"><title>Node28</title>
<polygon fill="none" stroke="#bfbfbf" points="2013.5,-136.5 2013.5,-155.5 2066.5,-155.5 2066.5,-136.5 2013.5,-136.5"/>
<text text-anchor="middle" x="2040" y="-143.5" font-family="Helvetica,sans-Serif" font-size="10.00">TMath.h</text>
</g>
<!-- Node27&#45;&gt;Node28 -->
<g id="edge33" class="edge"><title>Node27&#45;&gt;Node28</title>
<path fill="none" stroke="midnightblue" d="M2020.8,-192.083C2023.91,-184.77 2028.42,-174.181 2032.29,-165.103"/>
<polygon fill="midnightblue" stroke="midnightblue" points="2035.57,-166.323 2036.27,-155.751 2029.13,-163.58 2035.57,-166.323"/>
</g>
<!-- Node27&#45;&gt;Node29 -->
<g id="edge34" class="edge"><title>Node27&#45;&gt;Node29</title>
<path fill="none" stroke="midnightblue" d="M2010.57,-192.301C1995.04,-170.129 1958.5,-110.272 1983,-68 1993.65,-49.6306 2013.68,-37.3098 2032.04,-29.3878"/>
<polygon fill="midnightblue" stroke="midnightblue" points="2033.45,-32.5955 2041.44,-25.6373 2030.85,-26.0944 2033.45,-32.5955"/>
</g>
<!-- Node30 -->
<g id="node30" class="node"><title>Node30</title>
<polygon fill="none" stroke="#bfbfbf" points="2350.5,-74.5 2350.5,-93.5 2419.5,-93.5 2419.5,-74.5 2350.5,-74.5"/>
<text text-anchor="middle" x="2385" y="-81.5" font-family="Helvetica,sans-Serif" font-size="10.00">TObjArray.h</text>
</g>
<!-- Node27&#45;&gt;Node30 -->
<g id="edge35" class="edge"><title>Node27&#45;&gt;Node30</title>
<path fill="none" stroke="midnightblue" d="M2104.74,-199.457C2163.01,-195.528 2239.91,-184.635 2302,-156 2329.86,-143.151 2355.66,-118.183 2370.87,-101.547"/>
<polygon fill="midnightblue" stroke="midnightblue" points="2373.8,-103.519 2377.82,-93.7155 2368.56,-98.8746 2373.8,-103.519"/>
</g>
<!-- Node31 -->
<g id="node31" class="node"><title>Node31</title>
<g id="a_node31"><a xlink:href="../../d8/d64/Chebyshev3D_8h.html" target="_top" xlink:title="MathUtils/Chebyshev3D.h">
<polygon fill="none" stroke="black" points="2161,-136.5 2161,-155.5 2293,-155.5 2293,-136.5 2161,-136.5"/>
<text text-anchor="middle" x="2227" y="-143.5" font-family="Helvetica,sans-Serif" font-size="10.00">MathUtils/Chebyshev3D.h</text>
</a>
</g>
</g>
<!-- Node27&#45;&gt;Node31 -->
<g id="edge36" class="edge"><title>Node27&#45;&gt;Node31</title>
<path fill="none" stroke="midnightblue" d="M2050.28,-192.444C2086.45,-183.142 2144.38,-168.246 2183.98,-158.062"/>
<polygon fill="midnightblue" stroke="midnightblue" points="2185.07,-161.397 2193.88,-155.516 2183.32,-154.617 2185.07,-161.397"/>
</g>
<!-- Node33 -->
<g id="node33" class="node"><title>Node33</title>
<g id="a_node33"><a xlink:href="../../d4/d08/Chebyshev3DCalc_8h.html" target="_top" xlink:title="MathUtils/Chebyshev3DCalc.h">
<polygon fill="none" stroke="black" points="2104,-74.5 2104,-93.5 2256,-93.5 2256,-74.5 2104,-74.5"/>
<text text-anchor="middle" x="2180" y="-81.5" font-family="Helvetica,sans-Serif" font-size="10.00">MathUtils/Chebyshev3DCalc.h</text>
</a>
</g>
</g>
<!-- Node27&#45;&gt;Node33 -->
<g id="edge46" class="edge"><title>Node27&#45;&gt;Node33</title>
<path fill="none" stroke="midnightblue" d="M2028.99,-192.47C2056.66,-172.778 2125.25,-123.964 2159.65,-99.484"/>
<polygon fill="midnightblue" stroke="midnightblue" points="2161.88,-102.192 2168,-93.5423 2157.82,-96.4889 2161.88,-102.192"/>
</g>
<!-- Node31&#45;&gt;Node9 -->
<g id="edge44" class="edge"><title>Node31&#45;&gt;Node9</title>
<path fill="none" stroke="midnightblue" d="M2190.8,-136.432C2163.42,-129.073 2125.46,-116.954 2095,-100 2075.41,-89.0967 2076.22,-77.6835 2056,-68 1988.04,-35.4566 1899.65,-23.5893 1850.06,-19.327"/>
<polygon fill="midnightblue" stroke="midnightblue" points="1850.34,-15.838 1840.09,-18.5282 1849.78,-22.8156 1850.34,-15.838"/>
</g>
<!-- Node31&#45;&gt;Node26 -->
<g id="edge45" class="edge"><title>Node31&#45;&gt;Node26</title>
<path fill="none" stroke="midnightblue" d="M2192.65,-136.452C2159.12,-127.915 2106.75,-114.072 2062,-100 2058.9,-99.0246 2055.68,-97.9655 2052.48,-96.8764"/>
<polygon fill="midnightblue" stroke="midnightblue" points="2053.59,-93.5596 2043,-93.573 2051.29,-100.17 2053.59,-93.5596"/>
</g>
<!-- Node31&#45;&gt;Node29 -->
<g id="edge37" class="edge"><title>Node31&#45;&gt;Node29</title>
<path fill="none" stroke="midnightblue" d="M2237.24,-136.288C2253.59,-121.323 2282.1,-90.2048 2265,-68 2246.65,-44.1735 2164.49,-29.2138 2113.46,-22.0489"/>
<polygon fill="midnightblue" stroke="midnightblue" points="2113.77,-18.5588 2103.39,-20.6787 2112.82,-25.4949 2113.77,-18.5588"/>
</g>
<!-- Node31&#45;&gt;Node30 -->
<g id="edge38" class="edge"><title>Node31&#45;&gt;Node30</title>
<path fill="none" stroke="midnightblue" d="M2249.64,-136.403C2276.74,-126.111 2322.31,-108.806 2353,-97.1504"/>
<polygon fill="midnightblue" stroke="midnightblue" points="2354.3,-100.403 2362.4,-93.5806 2351.81,-93.8587 2354.3,-100.403"/>
</g>
<!-- Node32 -->
<g id="node32" class="node"><title>Node32</title>
<polygon fill="none" stroke="#bfbfbf" points="2229.5,-6.5 2229.5,-25.5 2272.5,-25.5 2272.5,-6.5 2229.5,-6.5"/>
<text text-anchor="middle" x="2251" y="-13.5" font-family="Helvetica,sans-Serif" font-size="10.00">cstdio</text>
</g>
<!-- Node31&#45;&gt;Node32 -->
<g id="edge39" class="edge"><title>Node31&#45;&gt;Node32</title>
<path fill="none" stroke="midnightblue" d="M2252.16,-136.378C2268.42,-129.343 2288.29,-117.645 2298,-100 2304.86,-87.539 2303.17,-81.2479 2298,-68 2292.47,-53.8401 2280.96,-41.2427 2270.72,-32.1106"/>
<polygon fill="midnightblue" stroke="midnightblue" points="2272.83,-29.3088 2262.91,-25.5661 2268.33,-34.673 2272.83,-29.3088"/>
</g>
<!-- Node31&#45;&gt;Node33 -->
<g id="edge40" class="edge"><title>Node31&#45;&gt;Node33</title>
<path fill="none" stroke="midnightblue" d="M2220.27,-136.403C2213.22,-127.403 2201.97,-113.041 2193.15,-101.782"/>
<polygon fill="midnightblue" stroke="midnightblue" points="2195.64,-99.2946 2186.72,-93.5806 2190.13,-103.611 2195.64,-99.2946"/>
</g>
<!-- Node33&#45;&gt;Node9 -->
<g id="edge43" class="edge"><title>Node33&#45;&gt;Node9</title>
<path fill="none" stroke="midnightblue" d="M2132.27,-74.4393C2058.43,-61.1962 1917.98,-36.0067 1850.32,-23.872"/>
<polygon fill="midnightblue" stroke="midnightblue" points="1850.56,-20.3607 1840.1,-22.0404 1849.33,-27.2508 1850.56,-20.3607"/>
</g>
<!-- Node33&#45;&gt;Node29 -->
<g id="edge41" class="edge"><title>Node33&#45;&gt;Node29</title>
<path fill="none" stroke="midnightblue" d="M2165.88,-74.3717C2147.85,-63.3533 2116.42,-44.1449 2094.93,-31.0142"/>
<polygon fill="midnightblue" stroke="midnightblue" points="2096.48,-27.8585 2086.12,-25.6305 2092.83,-33.8315 2096.48,-27.8585"/>
</g>
<!-- Node33&#45;&gt;Node32 -->
<g id="edge42" class="edge"><title>Node33&#45;&gt;Node32</title>
<path fill="none" stroke="midnightblue" d="M2189.28,-74.3717C2200.59,-63.8564 2219.93,-45.8819 2233.95,-32.8496"/>
<polygon fill="midnightblue" stroke="midnightblue" points="2236.55,-35.2131 2241.49,-25.8411 2231.78,-30.0861 2236.55,-35.2131"/>
</g>
<!-- Node34&#45;&gt;Node9 -->
<g id="edge49" class="edge"><title>Node34&#45;&gt;Node9</title>
<path fill="none" stroke="midnightblue" d="M1442.79,-192.499C1536.04,-172.746 1758.73,-123.634 1784,-100 1801.93,-83.2325 1808.38,-54.6121 1810.7,-35.752"/>
<polygon fill="midnightblue" stroke="midnightblue" points="1814.19,-35.9884 1811.66,-25.7008 1807.22,-35.3226 1814.19,-35.9884"/>
</g>
<!-- Node34&#45;&gt;Node13 -->
<g id="edge50" class="edge"><title>Node34&#45;&gt;Node13</title>
<path fill="none" stroke="midnightblue" d="M1352.88,-192.444C1288.22,-181.18 1176.46,-161.713 1122.67,-152.343"/>
<polygon fill="midnightblue" stroke="midnightblue" points="1123.17,-148.877 1112.72,-150.609 1121.97,-155.773 1123.17,-148.877"/>
</g>
<!-- Node35 -->
<g id="node35" class="node"><title>Node35</title>
<g id="a_node35"><a xlink:href="../../dd/d76/Cartesian3D_8h.html" target="_top" xlink:title="MathUtils/Cartesian3D.h">
<polygon fill="none" stroke="black" points="1196.5,-136.5 1196.5,-155.5 1321.5,-155.5 1321.5,-136.5 1196.5,-136.5"/>
<text text-anchor="middle" x="1259" y="-143.5" font-family="Helvetica,sans-Serif" font-size="10.00">MathUtils/Cartesian3D.h</text>
</a>
</g>
</g>
<!-- Node34&#45;&gt;Node35 -->
<g id="edge51" class="edge"><title>Node34&#45;&gt;Node35</title>
<path fill="none" stroke="midnightblue" d="M1379.34,-192.444C1355.6,-183.478 1318.09,-169.314 1291.26,-159.183"/>
<polygon fill="midnightblue" stroke="midnightblue" points="1292.14,-155.775 1281.55,-155.516 1289.67,-162.324 1292.14,-155.775"/>
</g>
<!-- Node35&#45;&gt;Node9 -->
<g id="edge55" class="edge"><title>Node35&#45;&gt;Node9</title>
<path fill="none" stroke="midnightblue" d="M1321.7,-145.828C1438.28,-146.318 1683.09,-142.108 1755,-100 1780.06,-85.3245 1796.6,-54.7391 1805.12,-35.0756"/>
<polygon fill="midnightblue" stroke="midnightblue" points="1808.42,-36.2693 1808.95,-25.6877 1801.93,-33.6299 1808.42,-36.2693"/>
</g>
<!-- Node36 -->
<g id="node36" class="node"><title>Node36</title>
<polygon fill="none" stroke="#bfbfbf" points="1244.5,-74.5 1244.5,-93.5 1393.5,-93.5 1393.5,-74.5 1244.5,-74.5"/>
<text text-anchor="middle" x="1319" y="-81.5" font-family="Helvetica,sans-Serif" font-size="10.00">Math/GenVector/Rotation3D.h</text>
</g>
<!-- Node35&#45;&gt;Node36 -->
<g id="edge52" class="edge"><title>Node35&#45;&gt;Node36</title>
<path fill="none" stroke="midnightblue" d="M1267.6,-136.403C1276.86,-127.136 1291.82,-112.183 1303.21,-100.788"/>
<polygon fill="midnightblue" stroke="midnightblue" points="1305.82,-103.127 1310.42,-93.5806 1300.87,-98.1768 1305.82,-103.127"/>
</g>
<!-- Node37 -->
<g id="node37" class="node"><title>Node37</title>
<polygon fill="none" stroke="#bfbfbf" points="1412,-74.5 1412,-93.5 1568,-93.5 1568,-74.5 1412,-74.5"/>
<text text-anchor="middle" x="1490" y="-81.5" font-family="Helvetica,sans-Serif" font-size="10.00">Math/GenVector/Transform3D.h</text>
</g>
<!-- Node35&#45;&gt;Node37 -->
<g id="edge53" class="edge"><title>Node35&#45;&gt;Node37</title>
<path fill="none" stroke="midnightblue" d="M1292.1,-136.403C1332.92,-125.799 1402.41,-107.751 1447.24,-96.1067"/>
<polygon fill="midnightblue" stroke="midnightblue" points="1448.17,-99.4822 1456.96,-93.5806 1446.41,-92.7071 1448.17,-99.4822"/>
</g>
<!-- Node38 -->
<g id="node38" class="node"><title>Node38</title>
<polygon fill="none" stroke="#bfbfbf" points="1586,-74.5 1586,-93.5 1746,-93.5 1746,-74.5 1586,-74.5"/>
<text text-anchor="middle" x="1666" y="-81.5" font-family="Helvetica,sans-Serif" font-size="10.00">Math/GenVector/Translation3D.h</text>
</g>
<!-- Node35&#45;&gt;Node38 -->
<g id="edge54" class="edge"><title>Node35&#45;&gt;Node38</title>
<path fill="none" stroke="midnightblue" d="M1321.52,-136.648C1385.7,-127.959 1488.43,-113.729 1577,-100 1586.54,-98.5215 1596.64,-96.8861 1606.48,-95.2547"/>
<polygon fill="midnightblue" stroke="midnightblue" points="1607.32,-98.663 1616.61,-93.563 1606.17,-91.7587 1607.32,-98.663"/>
</g>
<!-- Node39 -->
<g id="node39" class="node"><title>Node39</title>
<polygon fill="none" stroke="#bfbfbf" points="715,-74.5 715,-93.5 791,-93.5 791,-74.5 715,-74.5"/>
<text text-anchor="middle" x="753" y="-81.5" font-family="Helvetica,sans-Serif" font-size="10.00">TGeoMatrix.h</text>
</g>
<!-- Node35&#45;&gt;Node39 -->
<g id="edge56" class="edge"><title>Node35&#45;&gt;Node39</title>
<path fill="none" stroke="midnightblue" d="M1196.37,-140.506C1088.97,-132.525 874.107,-115.279 800,-100 795.538,-99.0801 790.902,-97.8949 786.356,-96.5945"/>
<polygon fill="midnightblue" stroke="midnightblue" points="787.237,-93.2041 776.651,-93.6215 785.187,-99.8971 787.237,-93.2041"/>
</g>
<!-- Node40 -->
<g id="node40" class="node"><title>Node40</title>
<polygon fill="none" stroke="#bfbfbf" points="809.5,-69 809.5,-99 960.5,-99 960.5,-69 809.5,-69"/>
<text text-anchor="start" x="817.5" y="-87" font-family="Helvetica,sans-Serif" font-size="10.00">Math/GenVector/Displacement</text>
<text text-anchor="middle" x="885" y="-76" font-family="Helvetica,sans-Serif" font-size="10.00">Vector3D.h</text>
</g>
<!-- Node35&#45;&gt;Node40 -->
<g id="edge57" class="edge"><title>Node35&#45;&gt;Node40</title>
<path fill="none" stroke="midnightblue" d="M1201.92,-136.459C1145.75,-127.977 1057.27,-114.406 970.547,-100.071"/>
<polygon fill="midnightblue" stroke="midnightblue" points="970.968,-96.5931 960.53,-98.4105 969.823,-103.499 970.968,-96.5931"/>
</g>
<!-- Node41 -->
<g id="node41" class="node"><title>Node41</title>
<polygon fill="none" stroke="#bfbfbf" points="979,-74.5 979,-93.5 1155,-93.5 1155,-74.5 979,-74.5"/>
<text text-anchor="middle" x="1067" y="-81.5" font-family="Helvetica,sans-Serif" font-size="10.00">Math/GenVector/PositionVector3D.h</text>
</g>
<!-- Node35&#45;&gt;Node41 -->
<g id="edge58" class="edge"><title>Node35&#45;&gt;Node41</title>
<path fill="none" stroke="midnightblue" d="M1231.49,-136.403C1198.13,-125.978 1141.74,-108.356 1104.44,-96.6992"/>
<polygon fill="midnightblue" stroke="midnightblue" points="1105.05,-93.2227 1094.46,-93.5806 1102.96,-99.9041 1105.05,-93.2227"/>
</g>
<!-- Node42 -->
<g id="node42" class="node"><title>Node42</title>
<g id="a_node42"><a xlink:href="../../d2/dd0/Cartesian2D_8h.html" target="_top" xlink:title="MathUtils/Cartesian2D.h">
<polygon fill="none" stroke="black" points="252.5,-74.5 252.5,-93.5 377.5,-93.5 377.5,-74.5 252.5,-74.5"/>
<text text-anchor="middle" x="315" y="-81.5" font-family="Helvetica,sans-Serif" font-size="10.00">MathUtils/Cartesian2D.h</text>
</a>
</g>
</g>
<!-- Node35&#45;&gt;Node42 -->
<g id="edge59" class="edge"><title>Node35&#45;&gt;Node42</title>
<path fill="none" stroke="midnightblue" d="M1196.49,-140.897C1172.84,-139.352 1145.68,-137.586 1121,-136 850.718,-118.635 529.423,-98.4389 387.985,-89.5707"/>
<polygon fill="midnightblue" stroke="midnightblue" points="387.907,-86.0591 377.708,-88.9264 387.469,-93.0454 387.907,-86.0591"/>
</g>
<!-- Node45 -->
<g id="node45" class="node"><title>Node45</title>
<polygon fill="none" stroke="#bfbfbf" points="1173,-74.5 1173,-93.5 1227,-93.5 1227,-74.5 1173,-74.5"/>
<text text-anchor="middle" x="1200" y="-81.5" font-family="Helvetica,sans-Serif" font-size="10.00">iostream</text>
</g>
<!-- Node35&#45;&gt;Node45 -->
<g id="edge62" class="edge"><title>Node35&#45;&gt;Node45</title>
<path fill="none" stroke="midnightblue" d="M1250.55,-136.403C1241.43,-127.136 1226.73,-112.183 1215.52,-100.788"/>
<polygon fill="midnightblue" stroke="midnightblue" points="1217.94,-98.2569 1208.44,-93.5806 1212.95,-103.165 1217.94,-98.2569"/>
</g>
<!-- Node43 -->
<g id="node43" class="node"><title>Node43</title>
<polygon fill="none" stroke="#bfbfbf" points="330.5,-1 330.5,-31 481.5,-31 481.5,-1 330.5,-1"/>
<text text-anchor="start" x="338.5" y="-19" font-family="Helvetica,sans-Serif" font-size="10.00">Math/GenVector/Displacement</text>
<text text-anchor="middle" x="406" y="-8" font-family="Helvetica,sans-Serif" font-size="10.00">Vector2D.h</text>
</g>
<!-- Node42&#45;&gt;Node43 -->
<g id="edge60" class="edge"><title>Node42&#45;&gt;Node43</title>
<path fill="none" stroke="midnightblue" d="M326.897,-74.3717C339.779,-65.0286 360.78,-49.7966 377.907,-37.375"/>
<polygon fill="midnightblue" stroke="midnightblue" points="380.407,-39.8859 386.447,-31.1815 376.297,-34.2194 380.407,-39.8859"/>
</g>
<!-- Node44 -->
<g id="node44" class="node"><title>Node44</title>
<polygon fill="none" stroke="#bfbfbf" points="136,-6.5 136,-25.5 312,-25.5 312,-6.5 136,-6.5"/>
<text text-anchor="middle" x="224" y="-13.5" font-family="Helvetica,sans-Serif" font-size="10.00">Math/GenVector/PositionVector2D.h</text>
</g>
<!-- Node42&#45;&gt;Node44 -->
<g id="edge61" class="edge"><title>Node42&#45;&gt;Node44</title>
<path fill="none" stroke="midnightblue" d="M303.103,-74.3717C288.116,-63.5015 262.138,-44.6602 244.058,-31.5474"/>
<polygon fill="midnightblue" stroke="midnightblue" points="246.05,-28.6684 235.9,-25.6305 241.94,-34.3349 246.05,-28.6684"/>
</g>
</g>
</svg>
        <g id="navigator" transform="translate(0 0)" fill="#404254">
                <rect fill="#f2f5e9" fill-opacity="0.5" stroke="#606060" stroke-width=".5" x="0" y="0" width="60" height="60"/>
                <use id="zoomplus" xlink:href="#zoomPlus" x="17" y="9" onmousedown="handleZoom(evt,'in')"/>
                <use id="zoomminus" xlink:href="#zoomMin" x="42" y="9" onmousedown="handleZoom(evt,'out')"/>
                <use id="reset" xlink:href="#resetDef" x="30" y="36" onmousedown="handleReset()"/>
                <g id="arrowUp" xlink:href="#dirArrow" transform="translate(30 24)" onmousedown="handlePan(0,-1)">
                  <use xlink:href="#rim" fill="#404040">
                        <set attributeName="fill" to="#808080" begin="arrowUp.mouseover" end="arrowUp.mouseout"/>
                  </use>
                  <path fill="none" stroke="white" stroke-width="1.5" d="M0,-3.0v7 M-2.5,-0.5L0,-3.0L2.5,-0.5"/>
                </g>
                <g id="arrowRight" xlink:href="#dirArrow" transform="rotate(90) translate(36 -43)" onmousedown="handlePan(1,0)">
                  <use xlink:href="#rim" fill="#404040">
                        <set attributeName="fill" to="#808080" begin="arrowRight.mouseover" end="arrowRight.mouseout"/>
                  </use>
                  <path fill="none" stroke="white" stroke-width="1.5" d="M0,-3.0v7 M-2.5,-0.5L0,-3.0L2.5,-0.5"/>
                </g>
                <g id="arrowDown" xlink:href="#dirArrow" transform="rotate(180) translate(-30 -48)" onmousedown="handlePan(0,1)">
                  <use xlink:href="#rim" fill="#404040">
                        <set attributeName="fill" to="#808080" begin="arrowDown.mouseover" end="arrowDown.mouseout"/>
                  </use>
                  <path fill="none" stroke="white" stroke-width="1.5" d="M0,-3.0v7 M-2.5,-0.5L0,-3.0L2.5,-0.5"/>
                </g>
                <g id="arrowLeft" xlink:href="#dirArrow" transform="rotate(270) translate(-36 17)" onmousedown="handlePan(-1,0)">
                  <use xlink:href="#rim" fill="#404040">
                        <set attributeName="fill" to="#808080" begin="arrowLeft.mouseover" end="arrowLeft.mouseout"/>
                  </use>
                  <path fill="none" stroke="white" stroke-width="1.5" d="M0,-3.0v7 M-2.5,-0.5L0,-3.0L2.5,-0.5"/>
                </g>
        </g>
        <svg viewBox="0 0 15 15" width="100%" height="30px" preserveAspectRatio="xMaxYMin meet">
         <g id="arrow_out" transform="scale(0.3 0.3)">
          <a xlink:href="Base_2src_2Detector_8cxx__incl_org.svg" target="_base">
           <rect id="button" ry="5" rx="5" y="6" x="6" height="38" width="38"
                fill="#f2f5e9" fill-opacity="0.5" stroke="#606060" stroke-width="1.0"/>
           <path id="arrow"
             d="M 11.500037,31.436501 C 11.940474,20.09759 22.043105,11.32322 32.158766,21.979434 L 37.068811,17.246167 C 37.068811,17.246167 37.088388,32 37.088388,32 L 22.160133,31.978069 C 22.160133,31.978069 26.997745,27.140456 26.997745,27.140456 C 18.528582,18.264221 13.291696,25.230495 11.500037,31.436501 z"
             style="fill:#404040;"/>
          </a>
         </g>
        </svg>
</svg>
