<?xml version="1.0" encoding="UTF-8" standalone="no"?>
<!DOCTYPE svg PUBLIC "-//W3C//DTD SVG 1.1//EN"
 "http://www.w3.org/Graphics/SVG/1.1/DTD/svg11.dtd">
<!-- Generated by graphviz version 2.36.0 (20140111.2315)
 -->
<!-- Title: FairTask Pages: 1 -->
<svg width="1707pt" height="282pt"
 viewBox="0.00 0.00 1707.00 282.00" xmlns="http://www.w3.org/2000/svg" xmlns:xlink="http://www.w3.org/1999/xlink">
<g id="graph0" class="graph" transform="scale(1 1) rotate(0) translate(4 278)">
<title>FairTask</title>
<!-- Node1 -->
<g id="node1" class="node"><title>Node1</title>
<polygon fill="#bfbfbf" stroke="black" points="828.5,-216.5 828.5,-273.5 883.5,-273.5 883.5,-216.5 828.5,-216.5"/>
<text text-anchor="middle" x="856" y="-261.5" font-family="Helvetica,sans-Serif" font-size="10.00">FairTask</text>
<polyline fill="none" stroke="black" points="828.5,-254.5 883.5,-254.5 "/>
<text text-anchor="middle" x="856" y="-242.5" font-family="Helvetica,sans-Serif" font-size="10.00"> </text>
<polyline fill="none" stroke="black" points="828.5,-235.5 883.5,-235.5 "/>
<text text-anchor="middle" x="856" y="-223.5" font-family="Helvetica,sans-Serif" font-size="10.00"> </text>
</g>
<!-- Node2 -->
<g id="node2" class="node"><title>Node2</title>
<g id="a_node2"><a xlink:href="../../db/df6/classo2_1_1ITS_1_1ClustererTask.html" target="_top" xlink:title="{o2::ITS::ClustererTask\n||+ ClustererTask()\l+ ~ClustererTask()\l+ Init()\l+ Exec()\l}">
<polygon fill="none" stroke="black" points="0,-45 0,-135 116,-135 116,-45 0,-45"/>
<text text-anchor="middle" x="58" y="-123" font-family="Helvetica,sans-Serif" font-size="10.00">o2::ITS::ClustererTask</text>
<polyline fill="none" stroke="black" points="0,-116 116,-116 "/>
<text text-anchor="middle" x="58" y="-104" font-family="Helvetica,sans-Serif" font-size="10.00"> </text>
<polyline fill="none" stroke="black" points="0,-97 116,-97 "/>
<text text-anchor="start" x="8" y="-85" font-family="Helvetica,sans-Serif" font-size="10.00">+ ClustererTask()</text>
<text text-anchor="start" x="8" y="-74" font-family="Helvetica,sans-Serif" font-size="10.00">+ ~ClustererTask()</text>
<text text-anchor="start" x="8" y="-63" font-family="Helvetica,sans-Serif" font-size="10.00">+ Init()</text>
<text text-anchor="start" x="8" y="-52" font-family="Helvetica,sans-Serif" font-size="10.00">+ Exec()</text>
</a>
</g>
</g>
<!-- Node1&#45;&gt;Node2 -->
<g id="edge1" class="edge"><title>Node1&#45;&gt;Node2</title>
<path fill="none" stroke="midnightblue" d="M818.039,-242.48C676.698,-236.575 185.939,-213.8 125,-180 106.565,-169.775 91.6821,-152.122 80.6686,-135.221"/>
<polygon fill="none" stroke="midnightblue" points="818.224,-245.99 828.361,-242.907 818.514,-238.996 818.224,-245.99"/>
</g>
<!-- Node3 -->
<g id="node3" class="node"><title>Node3</title>
<g id="a_node3"><a xlink:href="../../d8/d68/classo2_1_1ITS_1_1CookedTrackerTask.html" target="_top" xlink:title="{o2::ITS::CookedTrackerTask\n||+ CookedTrackerTask()\l+ ~CookedTrackerTask()\l+ Init()\l+ Exec()\l+ setBz()\l+ setContinuousMode()\l+ getContinuousMode()\l}">
<polygon fill="none" stroke="black" points="134.5,-28.5 134.5,-151.5 277.5,-151.5 277.5,-28.5 134.5,-28.5"/>
<text text-anchor="middle" x="206" y="-139.5" font-family="Helvetica,sans-Serif" font-size="10.00">o2::ITS::CookedTrackerTask</text>
<polyline fill="none" stroke="black" points="134.5,-132.5 277.5,-132.5 "/>
<text text-anchor="middle" x="206" y="-120.5" font-family="Helvetica,sans-Serif" font-size="10.00"> </text>
<polyline fill="none" stroke="black" points="134.5,-113.5 277.5,-113.5 "/>
<text text-anchor="start" x="142.5" y="-101.5" font-family="Helvetica,sans-Serif" font-size="10.00">+ CookedTrackerTask()</text>
<text text-anchor="start" x="142.5" y="-90.5" font-family="Helvetica,sans-Serif" font-size="10.00">+ ~CookedTrackerTask()</text>
<text text-anchor="start" x="142.5" y="-79.5" font-family="Helvetica,sans-Serif" font-size="10.00">+ Init()</text>
<text text-anchor="start" x="142.5" y="-68.5" font-family="Helvetica,sans-Serif" font-size="10.00">+ Exec()</text>
<text text-anchor="start" x="142.5" y="-57.5" font-family="Helvetica,sans-Serif" font-size="10.00">+ setBz()</text>
<text text-anchor="start" x="142.5" y="-46.5" font-family="Helvetica,sans-Serif" font-size="10.00">+ setContinuousMode()</text>
<text text-anchor="start" x="142.5" y="-35.5" font-family="Helvetica,sans-Serif" font-size="10.00">+ getContinuousMode()</text>
</a>
</g>
</g>
<!-- Node1&#45;&gt;Node3 -->
<g id="edge2" class="edge"><title>Node1&#45;&gt;Node3</title>
<path fill="none" stroke="midnightblue" d="M818.391,-243.192C706.957,-240.271 380.481,-227.746 287,-180 273.418,-173.063 260.995,-162.845 250.175,-151.782"/>
<polygon fill="none" stroke="midnightblue" points="818.404,-246.694 828.489,-243.446 818.58,-239.696 818.404,-246.694"/>
</g>
<!-- Node4 -->
<g id="node4" class="node"><title>Node4</title>
<g id="a_node4"><a xlink:href="../../de/d22/classo2_1_1ITS_1_1DigitizerTask.html" target="_top" xlink:title="{o2::ITS::DigitizerTask\n||+ DigitizerTask()\l+ ~DigitizerTask()\l+ Init()\l+ Exec()\l+ FinishTask()\l+ getDigitizer()\l+ setContinuous()\l+ isContinuous()\l+ setUseAlpideSim()\l+ getUseAlpideSim()\l+ setFairTimeUnitInNS()\l+ getFairTimeUnitInNS()\l}">
<polygon fill="none" stroke="black" points="296,-1 296,-179 420,-179 420,-1 296,-1"/>
<text text-anchor="middle" x="358" y="-167" font-family="Helvetica,sans-Serif" font-size="10.00">o2::ITS::DigitizerTask</text>
<polyline fill="none" stroke="black" points="296,-160 420,-160 "/>
<text text-anchor="middle" x="358" y="-148" font-family="Helvetica,sans-Serif" font-size="10.00"> </text>
<polyline fill="none" stroke="black" points="296,-141 420,-141 "/>
<text text-anchor="start" x="304" y="-129" font-family="Helvetica,sans-Serif" font-size="10.00">+ DigitizerTask()</text>
<text text-anchor="start" x="304" y="-118" font-family="Helvetica,sans-Serif" font-size="10.00">+ ~DigitizerTask()</text>
<text text-anchor="start" x="304" y="-107" font-family="Helvetica,sans-Serif" font-size="10.00">+ Init()</text>
<text text-anchor="start" x="304" y="-96" font-family="Helvetica,sans-Serif" font-size="10.00">+ Exec()</text>
<text text-anchor="start" x="304" y="-85" font-family="Helvetica,sans-Serif" font-size="10.00">+ FinishTask()</text>
<text text-anchor="start" x="304" y="-74" font-family="Helvetica,sans-Serif" font-size="10.00">+ getDigitizer()</text>
<text text-anchor="start" x="304" y="-63" font-family="Helvetica,sans-Serif" font-size="10.00">+ setContinuous()</text>
<text text-anchor="start" x="304" y="-52" font-family="Helvetica,sans-Serif" font-size="10.00">+ isContinuous()</text>
<text text-anchor="start" x="304" y="-41" font-family="Helvetica,sans-Serif" font-size="10.00">+ setUseAlpideSim()</text>
<text text-anchor="start" x="304" y="-30" font-family="Helvetica,sans-Serif" font-size="10.00">+ getUseAlpideSim()</text>
<text text-anchor="start" x="304" y="-19" font-family="Helvetica,sans-Serif" font-size="10.00">+ setFairTimeUnitInNS()</text>
<text text-anchor="start" x="304" y="-8" font-family="Helvetica,sans-Serif" font-size="10.00">+ getFairTimeUnitInNS()</text>
</a>
</g>
</g>
<!-- Node1&#45;&gt;Node4 -->
<g id="edge3" class="edge"><title>Node1&#45;&gt;Node4</title>
<path fill="none" stroke="midnightblue" d="M818.078,-241.852C726.342,-236.103 495.132,-218.138 429,-180 425.918,-178.223 422.918,-176.255 420.005,-174.133"/>
<polygon fill="none" stroke="midnightblue" points="818.104,-245.36 828.299,-242.478 818.532,-238.373 818.104,-245.36"/>
</g>
<!-- Node5 -->
<g id="node5" class="node"><title>Node5</title>
<g id="a_node5"><a xlink:href="../../d6/df5/classo2_1_1ITS_1_1HitAnalysis.html" target="_top" xlink:title="{o2::ITS::HitAnalysis\n||+ HitAnalysis()\l+ ~HitAnalysis()\l+ Init()\l+ Exec()\l+ FinishTask()\l+ SetProcessHits()\l+ SetProcessChips()\l# ProcessChips()\l# ProcessHits()\l}">
<polygon fill="none" stroke="black" points="438,-17.5 438,-162.5 546,-162.5 546,-17.5 438,-17.5"/>
<text text-anchor="middle" x="492" y="-150.5" font-family="Helvetica,sans-Serif" font-size="10.00">o2::ITS::HitAnalysis</text>
<polyline fill="none" stroke="black" points="438,-143.5 546,-143.5 "/>
<text text-anchor="middle" x="492" y="-131.5" font-family="Helvetica,sans-Serif" font-size="10.00"> </text>
<polyline fill="none" stroke="black" points="438,-124.5 546,-124.5 "/>
<text text-anchor="start" x="446" y="-112.5" font-family="Helvetica,sans-Serif" font-size="10.00">+ HitAnalysis()</text>
<text text-anchor="start" x="446" y="-101.5" font-family="Helvetica,sans-Serif" font-size="10.00">+ ~HitAnalysis()</text>
<text text-anchor="start" x="446" y="-90.5" font-family="Helvetica,sans-Serif" font-size="10.00">+ Init()</text>
<text text-anchor="start" x="446" y="-79.5" font-family="Helvetica,sans-Serif" font-size="10.00">+ Exec()</text>
<text text-anchor="start" x="446" y="-68.5" font-family="Helvetica,sans-Serif" font-size="10.00">+ FinishTask()</text>
<text text-anchor="start" x="446" y="-57.5" font-family="Helvetica,sans-Serif" font-size="10.00">+ SetProcessHits()</text>
<text text-anchor="start" x="446" y="-46.5" font-family="Helvetica,sans-Serif" font-size="10.00">+ SetProcessChips()</text>
<text text-anchor="start" x="446" y="-35.5" font-family="Helvetica,sans-Serif" font-size="10.00"># ProcessChips()</text>
<text text-anchor="start" x="446" y="-24.5" font-family="Helvetica,sans-Serif" font-size="10.00"># ProcessHits()</text>
</a>
</g>
</g>
<!-- Node1&#45;&gt;Node5 -->
<g id="edge4" class="edge"><title>Node1&#45;&gt;Node5</title>
<path fill="none" stroke="midnightblue" d="M817.871,-244.493C757.239,-243.509 637.3,-234.175 555,-180 547.726,-175.212 541.032,-169.271 534.945,-162.746"/>
<polygon fill="none" stroke="midnightblue" points="818.098,-247.995 828.13,-244.588 818.163,-240.996 818.098,-247.995"/>
</g>
<!-- Node6 -->
<g id="node6" class="node"><title>Node6</title>
<g id="a_node6"><a xlink:href="../../db/d78/classo2_1_1ITS_1_1TrivialClustererTask.html" target="_top" xlink:title="{o2::ITS::TrivialClustererTask\n||+ TrivialClustererTask()\l+ ~TrivialClustererTask()\l+ Init()\l+ Exec()\l}">
<polygon fill="none" stroke="black" points="564.5,-45 564.5,-135 707.5,-135 707.5,-45 564.5,-45"/>
<text text-anchor="middle" x="636" y="-123" font-family="Helvetica,sans-Serif" font-size="10.00">o2::ITS::TrivialClustererTask</text>
<polyline fill="none" stroke="black" points="564.5,-116 707.5,-116 "/>
<text text-anchor="middle" x="636" y="-104" font-family="Helvetica,sans-Serif" font-size="10.00"> </text>
<polyline fill="none" stroke="black" points="564.5,-97 707.5,-97 "/>
<text text-anchor="start" x="572.5" y="-85" font-family="Helvetica,sans-Serif" font-size="10.00">+ TrivialClustererTask()</text>
<text text-anchor="start" x="572.5" y="-74" font-family="Helvetica,sans-Serif" font-size="10.00">+ ~TrivialClustererTask()</text>
<text text-anchor="start" x="572.5" y="-63" font-family="Helvetica,sans-Serif" font-size="10.00">+ Init()</text>
<text text-anchor="start" x="572.5" y="-52" font-family="Helvetica,sans-Serif" font-size="10.00">+ Exec()</text>
</a>
</g>
</g>
<!-- Node1&#45;&gt;Node6 -->
<g id="edge5" class="edge"><title>Node1&#45;&gt;Node6</title>
<path fill="none" stroke="midnightblue" d="M818.897,-231.8C789.315,-220.994 747.732,-203.316 716,-180 698.923,-167.452 682.754,-150.774 669.48,-135.25"/>
<polygon fill="none" stroke="midnightblue" points="817.842,-235.14 828.437,-235.199 820.192,-228.546 817.842,-235.14"/>
</g>
<!-- Node7 -->
<g id="node7" class="node"><title>Node7</title>
<g id="a_node7"><a xlink:href="../../d7/d6d/classo2_1_1MFT_1_1ClustererTask.html" target="_top" xlink:title="{o2::MFT::ClustererTask\n||+ ClustererTask()\l+ ~ClustererTask()\l+ Init()\l+ Exec()\l}">
<polygon fill="none" stroke="black" points="725.5,-45 725.5,-135 846.5,-135 846.5,-45 725.5,-45"/>
<text text-anchor="middle" x="786" y="-123" font-family="Helvetica,sans-Serif" font-size="10.00">o2::MFT::ClustererTask</text>
<polyline fill="none" stroke="black" points="725.5,-116 846.5,-116 "/>
<text text-anchor="middle" x="786" y="-104" font-family="Helvetica,sans-Serif" font-size="10.00"> </text>
<polyline fill="none" stroke="black" points="725.5,-97 846.5,-97 "/>
<text text-anchor="start" x="733.5" y="-85" font-family="Helvetica,sans-Serif" font-size="10.00">+ ClustererTask()</text>
<text text-anchor="start" x="733.5" y="-74" font-family="Helvetica,sans-Serif" font-size="10.00">+ ~ClustererTask()</text>
<text text-anchor="start" x="733.5" y="-63" font-family="Helvetica,sans-Serif" font-size="10.00">+ Init()</text>
<text text-anchor="start" x="733.5" y="-52" font-family="Helvetica,sans-Serif" font-size="10.00">+ Exec()</text>
</a>
</g>
</g>
<!-- Node1&#45;&gt;Node7 -->
<g id="edge6" class="edge"><title>Node1&#45;&gt;Node7</title>
<path fill="none" stroke="midnightblue" d="M839.109,-207.081C829.183,-185.385 816.575,-157.828 806.134,-135.008"/>
<polygon fill="none" stroke="midnightblue" points="835.98,-208.656 843.324,-216.293 842.346,-205.743 835.98,-208.656"/>
</g>
<!-- Node8 -->
<g id="node8" class="node"><title>Node8</title>
<g id="a_node8"><a xlink:href="../../d0/d22/classo2_1_1MFT_1_1DigitizerTask.html" target="_top" xlink:title="{o2::MFT::DigitizerTask\n||+ DigitizerTask()\l+ ~DigitizerTask()\l+ Init()\l+ Exec()\l+ FinishTask()\l+ getDigitizer()\l+ setContinuous()\l+ isContinuous()\l+ setUseAlpideSim()\l+ getUseAlpideSim()\l+ setFairTimeUnitInNS()\l+ getFairTimeUnitInNS()\l}">
<polygon fill="none" stroke="black" points="865,-1 865,-179 989,-179 989,-1 865,-1"/>
<text text-anchor="middle" x="927" y="-167" font-family="Helvetica,sans-Serif" font-size="10.00">o2::MFT::DigitizerTask</text>
<polyline fill="none" stroke="black" points="865,-160 989,-160 "/>
<text text-anchor="middle" x="927" y="-148" font-family="Helvetica,sans-Serif" font-size="10.00"> </text>
<polyline fill="none" stroke="black" points="865,-141 989,-141 "/>
<text text-anchor="start" x="873" y="-129" font-family="Helvetica,sans-Serif" font-size="10.00">+ DigitizerTask()</text>
<text text-anchor="start" x="873" y="-118" font-family="Helvetica,sans-Serif" font-size="10.00">+ ~DigitizerTask()</text>
<text text-anchor="start" x="873" y="-107" font-family="Helvetica,sans-Serif" font-size="10.00">+ Init()</text>
<text text-anchor="start" x="873" y="-96" font-family="Helvetica,sans-Serif" font-size="10.00">+ Exec()</text>
<text text-anchor="start" x="873" y="-85" font-family="Helvetica,sans-Serif" font-size="10.00">+ FinishTask()</text>
<text text-anchor="start" x="873" y="-74" font-family="Helvetica,sans-Serif" font-size="10.00">+ getDigitizer()</text>
<text text-anchor="start" x="873" y="-63" font-family="Helvetica,sans-Serif" font-size="10.00">+ setContinuous()</text>
<text text-anchor="start" x="873" y="-52" font-family="Helvetica,sans-Serif" font-size="10.00">+ isContinuous()</text>
<text text-anchor="start" x="873" y="-41" font-family="Helvetica,sans-Serif" font-size="10.00">+ setUseAlpideSim()</text>
<text text-anchor="start" x="873" y="-30" font-family="Helvetica,sans-Serif" font-size="10.00">+ getUseAlpideSim()</text>
<text text-anchor="start" x="873" y="-19" font-family="Helvetica,sans-Serif" font-size="10.00">+ setFairTimeUnitInNS()</text>
<text text-anchor="start" x="873" y="-8" font-family="Helvetica,sans-Serif" font-size="10.00">+ getFairTimeUnitInNS()</text>
</a>
</g>
</g>
<!-- Node1&#45;&gt;Node8 -->
<g id="edge7" class="edge"><title>Node1&#45;&gt;Node8</title>
<path fill="none" stroke="midnightblue" d="M873.169,-207.002C877.163,-198.396 881.583,-188.87 886.124,-179.086"/>
<polygon fill="none" stroke="midnightblue" points="869.892,-205.749 868.858,-216.293 876.242,-208.695 869.892,-205.749"/>
</g>
<!-- Node9 -->
<g id="node9" class="node"><title>Node9</title>
<g id="a_node9"><a xlink:href="../../d2/de9/classo2_1_1MFT_1_1FindClusters.html" target="_top" xlink:title="{o2::MFT::FindClusters\n||+ FindClusters()\l+ ~FindClusters()\l+ Init()\l+ ReInit()\l+ Exec()\l+ reset()\l+ initMQ()\l+ execMQ()\l}">
<polygon fill="none" stroke="black" points="1007.5,-23 1007.5,-157 1122.5,-157 1122.5,-23 1007.5,-23"/>
<text text-anchor="middle" x="1065" y="-145" font-family="Helvetica,sans-Serif" font-size="10.00">o2::MFT::FindClusters</text>
<polyline fill="none" stroke="black" points="1007.5,-138 1122.5,-138 "/>
<text text-anchor="middle" x="1065" y="-126" font-family="Helvetica,sans-Serif" font-size="10.00"> </text>
<polyline fill="none" stroke="black" points="1007.5,-119 1122.5,-119 "/>
<text text-anchor="start" x="1015.5" y="-107" font-family="Helvetica,sans-Serif" font-size="10.00">+ FindClusters()</text>
<text text-anchor="start" x="1015.5" y="-96" font-family="Helvetica,sans-Serif" font-size="10.00">+ ~FindClusters()</text>
<text text-anchor="start" x="1015.5" y="-85" font-family="Helvetica,sans-Serif" font-size="10.00">+ Init()</text>
<text text-anchor="start" x="1015.5" y="-74" font-family="Helvetica,sans-Serif" font-size="10.00">+ ReInit()</text>
<text text-anchor="start" x="1015.5" y="-63" font-family="Helvetica,sans-Serif" font-size="10.00">+ Exec()</text>
<text text-anchor="start" x="1015.5" y="-52" font-family="Helvetica,sans-Serif" font-size="10.00">+ reset()</text>
<text text-anchor="start" x="1015.5" y="-41" font-family="Helvetica,sans-Serif" font-size="10.00">+ initMQ()</text>
<text text-anchor="start" x="1015.5" y="-30" font-family="Helvetica,sans-Serif" font-size="10.00">+ execMQ()</text>
</a>
</g>
</g>
<!-- Node1&#45;&gt;Node9 -->
<g id="edge8" class="edge"><title>Node1&#45;&gt;Node9</title>
<path fill="none" stroke="midnightblue" d="M893.342,-232.719C923.469,-222.353 965.819,-204.817 997,-180 1005.37,-173.34 1013.28,-165.434 1020.54,-157.124"/>
<polygon fill="none" stroke="midnightblue" points="892.005,-229.475 883.627,-235.959 894.221,-236.115 892.005,-229.475"/>
</g>
<!-- Node10 -->
<g id="node10" class="node"><title>Node10</title>
<g id="a_node10"><a xlink:href="../../d4/d20/classo2_1_1MFT_1_1FindTracks.html" target="_top" xlink:title="{o2::MFT::FindTracks\n||+ FindTracks()\l+ FindTracks()\l+ ~FindTracks()\l+ Init()\l+ ReInit()\l+ Exec()\l+ reset()\l+ initMQ()\l+ execMQ()\l}">
<polygon fill="none" stroke="black" points="1141,-17.5 1141,-162.5 1249,-162.5 1249,-17.5 1141,-17.5"/>
<text text-anchor="middle" x="1195" y="-150.5" font-family="Helvetica,sans-Serif" font-size="10.00">o2::MFT::FindTracks</text>
<polyline fill="none" stroke="black" points="1141,-143.5 1249,-143.5 "/>
<text text-anchor="middle" x="1195" y="-131.5" font-family="Helvetica,sans-Serif" font-size="10.00"> </text>
<polyline fill="none" stroke="black" points="1141,-124.5 1249,-124.5 "/>
<text text-anchor="start" x="1149" y="-112.5" font-family="Helvetica,sans-Serif" font-size="10.00">+ FindTracks()</text>
<text text-anchor="start" x="1149" y="-101.5" font-family="Helvetica,sans-Serif" font-size="10.00">+ FindTracks()</text>
<text text-anchor="start" x="1149" y="-90.5" font-family="Helvetica,sans-Serif" font-size="10.00">+ ~FindTracks()</text>
<text text-anchor="start" x="1149" y="-79.5" font-family="Helvetica,sans-Serif" font-size="10.00">+ Init()</text>
<text text-anchor="start" x="1149" y="-68.5" font-family="Helvetica,sans-Serif" font-size="10.00">+ ReInit()</text>
<text text-anchor="start" x="1149" y="-57.5" font-family="Helvetica,sans-Serif" font-size="10.00">+ Exec()</text>
<text text-anchor="start" x="1149" y="-46.5" font-family="Helvetica,sans-Serif" font-size="10.00">+ reset()</text>
<text text-anchor="start" x="1149" y="-35.5" font-family="Helvetica,sans-Serif" font-size="10.00">+ initMQ()</text>
<text text-anchor="start" x="1149" y="-24.5" font-family="Helvetica,sans-Serif" font-size="10.00">+ execMQ()</text>
</a>
</g>
</g>
<!-- Node1&#45;&gt;Node10 -->
<g id="edge9" class="edge"><title>Node1&#45;&gt;Node10</title>
<path fill="none" stroke="midnightblue" d="M894.116,-243.405C950.457,-240.811 1057.24,-229.174 1131,-180 1138.28,-175.144 1145.02,-169.159 1151.16,-162.608"/>
<polygon fill="none" stroke="midnightblue" points="893.731,-239.917 883.874,-243.802 894.002,-246.912 893.731,-239.917"/>
</g>
<!-- Node11 -->
<g id="node11" class="node"><title>Node11</title>
<g id="a_node11"><a xlink:href="../../d0/dad/classo2_1_1tof_1_1DigitizerTask.html" target="_top" xlink:title="{o2::tof::DigitizerTask\n||+ DigitizerTask()\l+ ~DigitizerTask()\l+ Init()\l+ Exec()\l+ FinishTask()\l+ getDigitizer()\l+ setContinuous()\l+ isContinuous()\l}">
<polygon fill="none" stroke="black" points="1267,-23 1267,-157 1375,-157 1375,-23 1267,-23"/>
<text text-anchor="middle" x="1321" y="-145" font-family="Helvetica,sans-Serif" font-size="10.00">o2::tof::DigitizerTask</text>
<polyline fill="none" stroke="black" points="1267,-138 1375,-138 "/>
<text text-anchor="middle" x="1321" y="-126" font-family="Helvetica,sans-Serif" font-size="10.00"> </text>
<polyline fill="none" stroke="black" points="1267,-119 1375,-119 "/>
<text text-anchor="start" x="1275" y="-107" font-family="Helvetica,sans-Serif" font-size="10.00">+ DigitizerTask()</text>
<text text-anchor="start" x="1275" y="-96" font-family="Helvetica,sans-Serif" font-size="10.00">+ ~DigitizerTask()</text>
<text text-anchor="start" x="1275" y="-85" font-family="Helvetica,sans-Serif" font-size="10.00">+ Init()</text>
<text text-anchor="start" x="1275" y="-74" font-family="Helvetica,sans-Serif" font-size="10.00">+ Exec()</text>
<text text-anchor="start" x="1275" y="-63" font-family="Helvetica,sans-Serif" font-size="10.00">+ FinishTask()</text>
<text text-anchor="start" x="1275" y="-52" font-family="Helvetica,sans-Serif" font-size="10.00">+ getDigitizer()</text>
<text text-anchor="start" x="1275" y="-41" font-family="Helvetica,sans-Serif" font-size="10.00">+ setContinuous()</text>
<text text-anchor="start" x="1275" y="-30" font-family="Helvetica,sans-Serif" font-size="10.00">+ isContinuous()</text>
</a>
</g>
</g>
<!-- Node1&#45;&gt;Node11 -->
<g id="edge10" class="edge"><title>Node1&#45;&gt;Node11</title>
<path fill="none" stroke="midnightblue" d="M893.661,-241.714C981.544,-235.799 1197.3,-217.745 1258,-180 1267.65,-174.002 1276.23,-165.926 1283.72,-157.077"/>
<polygon fill="none" stroke="midnightblue" points="893.346,-238.227 883.597,-242.376 893.805,-245.212 893.346,-238.227"/>
</g>
<!-- Node12 -->
<g id="node12" class="node"><title>Node12</title>
<g id="a_node12"><a xlink:href="../../db/df7/classo2_1_1TPC_1_1ClustererTask.html" target="_top" xlink:title="{o2::TPC::ClustererTask\n||+ ClustererTask()\l+ ~ClustererTask()\l+ Init()\l+ Exec()\l+ setClustererEnable()\l+ isClustererEnable()\l+ getClusterer()\l+ getBoxClusterer()\l+ getHwClusterer()\l+ setContinuousReadout()\l}">
<polygon fill="none" stroke="black" points="1393.5,-12 1393.5,-168 1524.5,-168 1524.5,-12 1393.5,-12"/>
<text text-anchor="middle" x="1459" y="-156" font-family="Helvetica,sans-Serif" font-size="10.00">o2::TPC::ClustererTask</text>
<polyline fill="none" stroke="black" points="1393.5,-149 1524.5,-149 "/>
<text text-anchor="middle" x="1459" y="-137" font-family="Helvetica,sans-Serif" font-size="10.00"> </text>
<polyline fill="none" stroke="black" points="1393.5,-130 1524.5,-130 "/>
<text text-anchor="start" x="1401.5" y="-118" font-family="Helvetica,sans-Serif" font-size="10.00">+ ClustererTask()</text>
<text text-anchor="start" x="1401.5" y="-107" font-family="Helvetica,sans-Serif" font-size="10.00">+ ~ClustererTask()</text>
<text text-anchor="start" x="1401.5" y="-96" font-family="Helvetica,sans-Serif" font-size="10.00">+ Init()</text>
<text text-anchor="start" x="1401.5" y="-85" font-family="Helvetica,sans-Serif" font-size="10.00">+ Exec()</text>
<text text-anchor="start" x="1401.5" y="-74" font-family="Helvetica,sans-Serif" font-size="10.00">+ setClustererEnable()</text>
<text text-anchor="start" x="1401.5" y="-63" font-family="Helvetica,sans-Serif" font-size="10.00">+ isClustererEnable()</text>
<text text-anchor="start" x="1401.5" y="-52" font-family="Helvetica,sans-Serif" font-size="10.00">+ getClusterer()</text>
<text text-anchor="start" x="1401.5" y="-41" font-family="Helvetica,sans-Serif" font-size="10.00">+ getBoxClusterer()</text>
<text text-anchor="start" x="1401.5" y="-30" font-family="Helvetica,sans-Serif" font-size="10.00">+ getHwClusterer()</text>
<text text-anchor="start" x="1401.5" y="-19" font-family="Helvetica,sans-Serif" font-size="10.00">+ setContinuousReadout()</text>
</a>
</g>
</g>
<!-- Node1&#45;&gt;Node12 -->
<g id="edge11" class="edge"><title>Node1&#45;&gt;Node12</title>
<path fill="none" stroke="midnightblue" d="M893.797,-242.976C1000.02,-239.547 1298.99,-225.956 1384,-180 1390.04,-176.733 1395.8,-172.764 1401.25,-168.337"/>
<polygon fill="none" stroke="midnightblue" points="893.438,-239.485 883.552,-243.294 893.656,-246.482 893.438,-239.485"/>
</g>
<!-- Node13 -->
<g id="node13" class="node"><title>Node13</title>
<g id="a_node13"><a xlink:href="../../dd/d64/classo2_1_1TPC_1_1DigitizerTask.html" target="_top" xlink:title="{o2::TPC::DigitizerTask\n||+ DigitizerTask()\l+ ~DigitizerTask()\l+ Init()\l+ setDebugOutput()\l+ setContinuousReadout()\l+ setMaximalTimeBinWriteOut()\l+ Exec()\l+ FinishTask()\l+ initBunchTrainStructure()\l}">
<polygon fill="none" stroke="black" points="1542.5,-17.5 1542.5,-162.5 1699.5,-162.5 1699.5,-17.5 1542.5,-17.5"/>
<text text-anchor="middle" x="1621" y="-150.5" font-family="Helvetica,sans-Serif" font-size="10.00">o2::TPC::DigitizerTask</text>
<polyline fill="none" stroke="black" points="1542.5,-143.5 1699.5,-143.5 "/>
<text text-anchor="middle" x="1621" y="-131.5" font-family="Helvetica,sans-Serif" font-size="10.00"> </text>
<polyline fill="none" stroke="black" points="1542.5,-124.5 1699.5,-124.5 "/>
<text text-anchor="start" x="1550.5" y="-112.5" font-family="Helvetica,sans-Serif" font-size="10.00">+ DigitizerTask()</text>
<text text-anchor="start" x="1550.5" y="-101.5" font-family="Helvetica,sans-Serif" font-size="10.00">+ ~DigitizerTask()</text>
<text text-anchor="start" x="1550.5" y="-90.5" font-family="Helvetica,sans-Serif" font-size="10.00">+ Init()</text>
<text text-anchor="start" x="1550.5" y="-79.5" font-family="Helvetica,sans-Serif" font-size="10.00">+ setDebugOutput()</text>
<text text-anchor="start" x="1550.5" y="-68.5" font-family="Helvetica,sans-Serif" font-size="10.00">+ setContinuousReadout()</text>
<text text-anchor="start" x="1550.5" y="-57.5" font-family="Helvetica,sans-Serif" font-size="10.00">+ setMaximalTimeBinWriteOut()</text>
<text text-anchor="start" x="1550.5" y="-46.5" font-family="Helvetica,sans-Serif" font-size="10.00">+ Exec()</text>
<text text-anchor="start" x="1550.5" y="-35.5" font-family="Helvetica,sans-Serif" font-size="10.00">+ FinishTask()</text>
<text text-anchor="start" x="1550.5" y="-24.5" font-family="Helvetica,sans-Serif" font-size="10.00">+ initBunchTrainStructure()</text>
</a>
</g>
</g>
<!-- Node1&#45;&gt;Node13 -->
<g id="edge12" class="edge"><title>Node1&#45;&gt;Node13</title>
<path fill="none" stroke="midnightblue" d="M893.736,-243.784C1018.81,-242.553 1418.33,-234.358 1533,-180 1542.62,-175.439 1551.78,-169.364 1560.31,-162.521"/>
<polygon fill="none" stroke="midnightblue" points="893.481,-240.286 883.513,-243.875 893.544,-247.286 893.481,-240.286"/>
</g>
</g>
</svg>
