<?xml version="1.0" encoding="UTF-8" standalone="no"?>
<!DOCTYPE svg PUBLIC "-//W3C//DTD SVG 1.1//EN"
 "http://www.w3.org/Graphics/SVG/1.1/DTD/svg11.dtd">
<!-- Generated by graphviz version 2.36.0 (20140111.2315)
 -->
<!-- Title: /home/travis/build/AliceO2Group/AliceO2/DataFormats/Parameters/src/GRPObject.cxx Pages: 1 -->
<!--zoomable 298 -->
<svg id="main" version="1.1" xmlns="http://www.w3.org/2000/svg" xmlns:xlink="http://www.w3.org/1999/xlink" xml:space="preserve" onload="init(evt)">
<style type="text/css"><![CDATA[
.edge:hover path { stroke: red; }
.edge:hover polygon { stroke: red; fill: red; }
]]></style>
<script type="text/javascript"><![CDATA[
var edges = document.getElementsByTagName('g');
if (edges && edges.length) {
  for (var i=0;i<edges.length;i++) {
    if (edges[i].id.substr(0,4)=='edge') {
      edges[i].setAttribute('class','edge');
    }
  }
}
]]></script>
        <defs>
                <circle id="rim" cx="0" cy="0" r="7"/>
                <circle id="rim2" cx="0" cy="0" r="3.5"/>
                <g id="zoomPlus">
                        <use xlink:href="#rim" fill="#404040">
                                <set attributeName="fill" to="#808080" begin="zoomplus.mouseover" end="zoomplus.mouseout"/>
                        </use>
                        <path d="M-4,0h8M0,-4v8" fill="none" stroke="white" stroke-width="1.5" pointer-events="none"/>
                </g>
                <g id="zoomMin">
                        <use xlink:href="#rim" fill="#404040">
                                <set attributeName="fill" to="#808080" begin="zoomminus.mouseover" end="zoomminus.mouseout"/>
                        </use>
                        <path d="M-4,0h8" fill="none" stroke="white" stroke-width="1.5" pointer-events="none"/>
                </g>
                <g id="dirArrow">
                        <path fill="none" stroke="white" stroke-width="1.5" d="M0,-3.0v7 M-2.5,-0.5L0,-3.0L2.5,-0.5"/>
                </g>
               <g id="resetDef">
                       <use xlink:href="#rim2" fill="#404040">
                               <set attributeName="fill" to="#808080" begin="reset.mouseover" end="reset.mouseout"/>
                       </use>
               </g>
        </defs>

<script type="text/javascript">
var viewWidth = 894;
var viewHeight = 298;
var sectionId = 'dynsection-0';
</script>
<script xlink:href="../../svgpan.js"/>
<svg id="graph" class="graph">
<g id="viewport">
<title>/home/travis/build/AliceO2Group/AliceO2/DataFormats/Parameters/src/GRPObject.cxx</title>
<!-- Node1 -->
<g id="node1" class="node"><title>Node1</title>
<polygon fill="#bfbfbf" stroke="black" points="599.247,-237 599.247,-289 729.247,-289 729.247,-237 599.247,-237"/>
<text text-anchor="start" x="607.247" y="-277" font-family="Helvetica,sans-Serif" font-size="10.00">/home/travis/build</text>
<text text-anchor="start" x="607.247" y="-266" font-family="Helvetica,sans-Serif" font-size="10.00">/AliceO2Group/AliceO2</text>
<text text-anchor="start" x="607.247" y="-255" font-family="Helvetica,sans-Serif" font-size="10.00">/DataFormats/Parameters</text>
<text text-anchor="middle" x="664.247" y="-244" font-family="Helvetica,sans-Serif" font-size="10.00">/src/GRPObject.cxx</text>
</g>
<!-- Node2 -->
<g id="node2" class="node"><title>Node2</title>
<g id="a_node2"><a xlink:href="../../de/d28/GRPObject_8h.html" target="_top" xlink:title="Header of the General Run Parameters object. ">
<polygon fill="none" stroke="black" points="266.247,-169 266.247,-199 390.247,-199 390.247,-169 266.247,-169"/>
<text text-anchor="start" x="274.247" y="-187" font-family="Helvetica,sans-Serif" font-size="10.00">DataFormatsParameters</text>
<text text-anchor="middle" x="328.247" y="-176" font-family="Helvetica,sans-Serif" font-size="10.00">/GRPObject.h</text>
</a>
</g>
</g>
<!-- Node1&#45;&gt;Node2 -->
<g id="edge1" class="edge"><title>Node1&#45;&gt;Node2</title>
<path fill="none" stroke="midnightblue" d="M599.064,-247.062C541.786,-233.936 458.598,-214.872 399.561,-201.343"/>
<polygon fill="midnightblue" stroke="midnightblue" points="400.096,-197.875 389.567,-199.053 398.533,-204.698 400.096,-197.875"/>
</g>
<!-- Node15 -->
<g id="node15" class="node"><title>Node15</title>
<polygon fill="none" stroke="#bfbfbf" points="598.247,-0.5 598.247,-19.5 642.247,-19.5 642.247,-0.5 598.247,-0.5"/>
<text text-anchor="middle" x="620.247" y="-7.5" font-family="Helvetica,sans-Serif" font-size="10.00">cmath</text>
</g>
<!-- Node1&#45;&gt;Node15 -->
<g id="edge18" class="edge"><title>Node1&#45;&gt;Node15</title>
<path fill="none" stroke="midnightblue" d="M664.931,-236.979C665.322,-197.593 663.314,-119.118 644.247,-56 641.302,-46.2528 636.16,-36.1819 631.389,-28.0452"/>
<polygon fill="midnightblue" stroke="midnightblue" points="634.35,-26.1793 626.112,-19.5171 628.397,-29.8625 634.35,-26.1793"/>
</g>
<!-- Node16 -->
<g id="node16" class="node"><title>Node16</title>
<g id="a_node16"><a xlink:href="../../d3/d9d/PhysicsConstants_8h.html" target="_top" xlink:title="Header to collect physics constants. ">
<polygon fill="none" stroke="black" points="692.747,-174.5 692.747,-193.5 885.747,-193.5 885.747,-174.5 692.747,-174.5"/>
<text text-anchor="middle" x="789.247" y="-181.5" font-family="Helvetica,sans-Serif" font-size="10.00">CommonConstants/PhysicsConstants.h</text>
</a>
</g>
</g>
<!-- Node1&#45;&gt;Node16 -->
<g id="edge19" class="edge"><title>Node1&#45;&gt;Node16</title>
<path fill="none" stroke="midnightblue" d="M705.176,-236.787C725.602,-224.205 749.532,-209.464 766.626,-198.934"/>
<polygon fill="midnightblue" stroke="midnightblue" points="768.676,-201.783 775.354,-193.558 765.004,-195.823 768.676,-201.783"/>
</g>
<!-- Node3 -->
<g id="node3" class="node"><title>Node3</title>
<polygon fill="none" stroke="#bfbfbf" points="580.247,-56.5 580.247,-75.5 636.247,-75.5 636.247,-56.5 580.247,-56.5"/>
<text text-anchor="middle" x="608.247" y="-63.5" font-family="Helvetica,sans-Serif" font-size="10.00">Rtypes.h</text>
</g>
<!-- Node2&#45;&gt;Node3 -->
<g id="edge2" class="edge"><title>Node2&#45;&gt;Node3</title>
<path fill="none" stroke="midnightblue" d="M390.589,-175.273C432.675,-168.228 488.493,-155.24 533.247,-132 557.245,-119.538 580.006,-97.9274 594.027,-83.0684"/>
<polygon fill="midnightblue" stroke="midnightblue" points="596.689,-85.3441 600.87,-75.6091 591.531,-80.612 596.689,-85.3441"/>
</g>
<!-- Node4 -->
<g id="node4" class="node"><title>Node4</title>
<polygon fill="none" stroke="#bfbfbf" points="60.2467,-56.5 60.2467,-75.5 106.247,-75.5 106.247,-56.5 60.2467,-56.5"/>
<text text-anchor="middle" x="83.2467" y="-63.5" font-family="Helvetica,sans-Serif" font-size="10.00">cstdint</text>
</g>
<!-- Node2&#45;&gt;Node4 -->
<g id="edge3" class="edge"><title>Node2&#45;&gt;Node4</title>
<path fill="none" stroke="midnightblue" d="M266.059,-182.389C181.809,-180.091 38.1162,-170.467 5.24668,-132 -13.0149,-110.629 21.7435,-90.66 50.5518,-78.6396"/>
<polygon fill="midnightblue" stroke="midnightblue" points="52.0106,-81.8261 60.0083,-74.8773 49.4228,-75.322 52.0106,-81.8261"/>
</g>
<!-- Node5 -->
<g id="node5" class="node"><title>Node5</title>
<polygon fill="none" stroke="#bfbfbf" points="14.7467,-112.5 14.7467,-131.5 55.7467,-131.5 55.7467,-112.5 14.7467,-112.5"/>
<text text-anchor="middle" x="35.2467" y="-119.5" font-family="Helvetica,sans-Serif" font-size="10.00">ctime</text>
</g>
<!-- Node2&#45;&gt;Node5 -->
<g id="edge4" class="edge"><title>Node2&#45;&gt;Node5</title>
<path fill="none" stroke="midnightblue" d="M266.213,-173.003C214.753,-164.259 139.53,-150.437 65.697,-132.162"/>
<polygon fill="midnightblue" stroke="midnightblue" points="66.3135,-128.708 55.7628,-129.673 64.6126,-135.498 66.3135,-128.708"/>
</g>
<!-- Node6 -->
<g id="node6" class="node"><title>Node6</title>
<g id="a_node6"><a xlink:href="../../d4/dc6/LHCConstants_8h.html" target="_top" xlink:title="Header to collect LHC related constants. ">
<polygon fill="none" stroke="black" points="73.2467,-112.5 73.2467,-131.5 251.247,-131.5 251.247,-112.5 73.2467,-112.5"/>
<text text-anchor="middle" x="162.247" y="-119.5" font-family="Helvetica,sans-Serif" font-size="10.00">CommonConstants/LHCConstants.h</text>
</a>
</g>
</g>
<!-- Node2&#45;&gt;Node6 -->
<g id="edge5" class="edge"><title>Node2&#45;&gt;Node6</title>
<path fill="none" stroke="midnightblue" d="M289.327,-168.933C260.821,-158.629 222.542,-144.794 195.469,-135.008"/>
<polygon fill="midnightblue" stroke="midnightblue" points="196.634,-131.708 186.04,-131.6 194.255,-138.291 196.634,-131.708"/>
</g>
<!-- Node7 -->
<g id="node7" class="node"><title>Node7</title>
<g id="a_node7"><a xlink:href="../../da/d58/Units_8h.html" target="_top" xlink:title="Header to collect definitions for different units. ">
<polygon fill="none" stroke="black" points="269.247,-112.5 269.247,-131.5 387.247,-131.5 387.247,-112.5 269.247,-112.5"/>
<text text-anchor="middle" x="328.247" y="-119.5" font-family="Helvetica,sans-Serif" font-size="10.00">CommonTypes/Units.h</text>
</a>
</g>
</g>
<!-- Node2&#45;&gt;Node7 -->
<g id="edge6" class="edge"><title>Node2&#45;&gt;Node7</title>
<path fill="none" stroke="midnightblue" d="M328.247,-168.781C328.247,-160.781 328.247,-150.689 328.247,-142.017"/>
<polygon fill="midnightblue" stroke="midnightblue" points="331.747,-141.73 328.247,-131.731 324.747,-141.731 331.747,-141.73"/>
</g>
<!-- Node8 -->
<g id="node8" class="node"><title>Node8</title>
<g id="a_node8"><a xlink:href="../../d6/d31/DetID_8h.html" target="_top" xlink:title="DetectorsBase/DetID.h">
<polygon fill="none" stroke="black" points="405.747,-112.5 405.747,-131.5 524.747,-131.5 524.747,-112.5 405.747,-112.5"/>
<text text-anchor="middle" x="465.247" y="-119.5" font-family="Helvetica,sans-Serif" font-size="10.00">DetectorsBase/DetID.h</text>
</a>
</g>
</g>
<!-- Node2&#45;&gt;Node8 -->
<g id="edge7" class="edge"><title>Node2&#45;&gt;Node8</title>
<path fill="none" stroke="midnightblue" d="M360.367,-168.933C383.377,-158.855 414.103,-145.399 436.345,-135.657"/>
<polygon fill="midnightblue" stroke="midnightblue" points="437.854,-138.818 445.61,-131.6 435.046,-132.406 437.854,-138.818"/>
</g>
<!-- Node8&#45;&gt;Node3 -->
<g id="edge8" class="edge"><title>Node8&#45;&gt;Node3</title>
<path fill="none" stroke="midnightblue" d="M487.905,-112.444C511.649,-103.478 549.156,-89.314 575.985,-79.1827"/>
<polygon fill="midnightblue" stroke="midnightblue" points="577.575,-82.3235 585.694,-75.5164 575.102,-75.7749 577.575,-82.3235"/>
</g>
<!-- Node8&#45;&gt;Node4 -->
<g id="edge12" class="edge"><title>Node8&#45;&gt;Node4</title>
<path fill="none" stroke="midnightblue" d="M405.559,-112.562C324.062,-101.042 180.745,-80.7825 116.29,-71.671"/>
<polygon fill="midnightblue" stroke="midnightblue" points="116.674,-68.1906 106.282,-70.2563 115.694,-75.1217 116.674,-68.1906"/>
</g>
<!-- Node9 -->
<g id="node9" class="node"><title>Node9</title>
<polygon fill="none" stroke="#bfbfbf" points="342.247,-0.5 342.247,-19.5 380.247,-19.5 380.247,-0.5 342.247,-0.5"/>
<text text-anchor="middle" x="361.247" y="-7.5" font-family="Helvetica,sans-Serif" font-size="10.00">array</text>
</g>
<!-- Node8&#45;&gt;Node9 -->
<g id="edge9" class="edge"><title>Node8&#45;&gt;Node9</title>
<path fill="none" stroke="midnightblue" d="M436.594,-112.361C418.031,-105.369 394.704,-93.7276 380.247,-76 369.459,-62.7717 364.796,-43.6409 362.781,-29.5576"/>
<polygon fill="midnightblue" stroke="midnightblue" points="366.252,-29.105 361.666,-19.5543 359.295,-29.8805 366.252,-29.105"/>
</g>
<!-- Node10 -->
<g id="node10" class="node"><title>Node10</title>
<polygon fill="none" stroke="#bfbfbf" points="520.747,-56.5 520.747,-75.5 561.747,-75.5 561.747,-56.5 520.747,-56.5"/>
<text text-anchor="middle" x="541.247" y="-63.5" font-family="Helvetica,sans-Serif" font-size="10.00">bitset</text>
</g>
<!-- Node8&#45;&gt;Node10 -->
<g id="edge10" class="edge"><title>Node8&#45;&gt;Node10</title>
<path fill="none" stroke="midnightblue" d="M477.457,-112.324C489.023,-104.107 506.622,-91.6017 520.407,-81.8069"/>
<polygon fill="midnightblue" stroke="midnightblue" points="522.689,-84.4791 528.814,-75.8339 518.635,-78.7729 522.689,-84.4791"/>
</g>
<!-- Node11 -->
<g id="node11" class="node"><title>Node11</title>
<polygon fill="none" stroke="#bfbfbf" points="203.747,-56.5 203.747,-75.5 252.747,-75.5 252.747,-56.5 203.747,-56.5"/>
<text text-anchor="middle" x="228.247" y="-63.5" font-family="Helvetica,sans-Serif" font-size="10.00">cassert</text>
</g>
<!-- Node8&#45;&gt;Node11 -->
<g id="edge11" class="edge"><title>Node8&#45;&gt;Node11</title>
<path fill="none" stroke="midnightblue" d="M424.308,-112.435C385.314,-104.164 324.738,-91.0203 263.013,-76.1108"/>
<polygon fill="midnightblue" stroke="midnightblue" points="263.643,-72.6622 253.099,-73.7033 261.991,-79.4645 263.643,-72.6622"/>
</g>
<!-- Node12 -->
<g id="node12" class="node"><title>Node12</title>
<polygon fill="none" stroke="#bfbfbf" points="271.247,-56.5 271.247,-75.5 333.247,-75.5 333.247,-56.5 271.247,-56.5"/>
<text text-anchor="middle" x="302.247" y="-63.5" font-family="Helvetica,sans-Serif" font-size="10.00">type_traits</text>
</g>
<!-- Node8&#45;&gt;Node12 -->
<g id="edge13" class="edge"><title>Node8&#45;&gt;Node12</title>
<path fill="none" stroke="midnightblue" d="M439.419,-112.444C411.997,-103.359 368.469,-88.9388 337.814,-78.7831"/>
<polygon fill="midnightblue" stroke="midnightblue" points="338.547,-75.3389 327.954,-75.5164 336.346,-81.9837 338.547,-75.3389"/>
</g>
<!-- Node13 -->
<g id="node13" class="node"><title>Node13</title>
<g id="a_node13"><a xlink:href="../../d9/ded/Utils_8h.html" target="_top" xlink:title="DetectorsBase/Utils.h">
<polygon fill="none" stroke="black" points="389.747,-56.5 389.747,-75.5 502.747,-75.5 502.747,-56.5 389.747,-56.5"/>
<text text-anchor="middle" x="446.247" y="-63.5" font-family="Helvetica,sans-Serif" font-size="10.00">DetectorsBase/Utils.h</text>
</a>
</g>
</g>
<!-- Node8&#45;&gt;Node13 -->
<g id="edge14" class="edge"><title>Node8&#45;&gt;Node13</title>
<path fill="none" stroke="midnightblue" d="M462.109,-112.083C459.564,-104.849 455.89,-94.4087 452.72,-85.3968"/>
<polygon fill="midnightblue" stroke="midnightblue" points="455.946,-84.0225 449.326,-75.7511 449.343,-86.3459 455.946,-84.0225"/>
</g>
<!-- Node13&#45;&gt;Node9 -->
<g id="edge17" class="edge"><title>Node13&#45;&gt;Node9</title>
<path fill="none" stroke="midnightblue" d="M432.59,-56.324C419.33,-47.9002 398.979,-34.9709 383.4,-25.0741"/>
<polygon fill="midnightblue" stroke="midnightblue" points="385.187,-22.0626 374.87,-19.6545 381.433,-27.9711 385.187,-22.0626"/>
</g>
<!-- Node14 -->
<g id="node14" class="node"><title>Node14</title>
<g id="a_node14"><a xlink:href="../../d1/daa/Base_2include_2DetectorsBase_2Constants_8h.html" target="_top" xlink:title="DetectorsBase/Constants.h">
<polygon fill="none" stroke="black" points="398.247,-0.5 398.247,-19.5 536.247,-19.5 536.247,-0.5 398.247,-0.5"/>
<text text-anchor="middle" x="467.247" y="-7.5" font-family="Helvetica,sans-Serif" font-size="10.00">DetectorsBase/Constants.h</text>
</a>
</g>
</g>
<!-- Node13&#45;&gt;Node14 -->
<g id="edge15" class="edge"><title>Node13&#45;&gt;Node14</title>
<path fill="none" stroke="midnightblue" d="M449.714,-56.083C452.558,-48.77 456.676,-38.1814 460.206,-29.1034"/>
<polygon fill="midnightblue" stroke="midnightblue" points="463.481,-30.3397 463.843,-19.7511 456.957,-27.8025 463.481,-30.3397"/>
</g>
<!-- Node13&#45;&gt;Node15 -->
<g id="edge16" class="edge"><title>Node13&#45;&gt;Node15</title>
<path fill="none" stroke="midnightblue" d="M473.818,-56.4435C504.994,-46.768 555.674,-31.0397 588.483,-20.8577"/>
<polygon fill="midnightblue" stroke="midnightblue" points="589.537,-24.1954 598.05,-17.8886 587.462,-17.51 589.537,-24.1954"/>
</g>
</g>
</svg>
        <g id="navigator" transform="translate(0 0)" fill="#404254">
                <rect fill="#f2f5e9" fill-opacity="0.5" stroke="#606060" stroke-width=".5" x="0" y="0" width="60" height="60"/>
                <use id="zoomplus" xlink:href="#zoomPlus" x="17" y="9" onmousedown="handleZoom(evt,'in')"/>
                <use id="zoomminus" xlink:href="#zoomMin" x="42" y="9" onmousedown="handleZoom(evt,'out')"/>
                <use id="reset" xlink:href="#resetDef" x="30" y="36" onmousedown="handleReset()"/>
                <g id="arrowUp" xlink:href="#dirArrow" transform="translate(30 24)" onmousedown="handlePan(0,-1)">
                  <use xlink:href="#rim" fill="#404040">
                        <set attributeName="fill" to="#808080" begin="arrowUp.mouseover" end="arrowUp.mouseout"/>
                  </use>
                  <path fill="none" stroke="white" stroke-width="1.5" d="M0,-3.0v7 M-2.5,-0.5L0,-3.0L2.5,-0.5"/>
                </g>
                <g id="arrowRight" xlink:href="#dirArrow" transform="rotate(90) translate(36 -43)" onmousedown="handlePan(1,0)">
                  <use xlink:href="#rim" fill="#404040">
                        <set attributeName="fill" to="#808080" begin="arrowRight.mouseover" end="arrowRight.mouseout"/>
                  </use>
                  <path fill="none" stroke="white" stroke-width="1.5" d="M0,-3.0v7 M-2.5,-0.5L0,-3.0L2.5,-0.5"/>
                </g>
                <g id="arrowDown" xlink:href="#dirArrow" transform="rotate(180) translate(-30 -48)" onmousedown="handlePan(0,1)">
                  <use xlink:href="#rim" fill="#404040">
                        <set attributeName="fill" to="#808080" begin="arrowDown.mouseover" end="arrowDown.mouseout"/>
                  </use>
                  <path fill="none" stroke="white" stroke-width="1.5" d="M0,-3.0v7 M-2.5,-0.5L0,-3.0L2.5,-0.5"/>
                </g>
                <g id="arrowLeft" xlink:href="#dirArrow" transform="rotate(270) translate(-36 17)" onmousedown="handlePan(-1,0)">
                  <use xlink:href="#rim" fill="#404040">
                        <set attributeName="fill" to="#808080" begin="arrowLeft.mouseover" end="arrowLeft.mouseout"/>
                  </use>
                  <path fill="none" stroke="white" stroke-width="1.5" d="M0,-3.0v7 M-2.5,-0.5L0,-3.0L2.5,-0.5"/>
                </g>
        </g>
        <svg viewBox="0 0 15 15" width="100%" height="30px" preserveAspectRatio="xMaxYMin meet">
         <g id="arrow_out" transform="scale(0.3 0.3)">
          <a xlink:href="GRPObject_8cxx__incl_org.svg" target="_base">
           <rect id="button" ry="5" rx="5" y="6" x="6" height="38" width="38"
                fill="#f2f5e9" fill-opacity="0.5" stroke="#606060" stroke-width="1.0"/>
           <path id="arrow"
             d="M 11.500037,31.436501 C 11.940474,20.09759 22.043105,11.32322 32.158766,21.979434 L 37.068811,17.246167 C 37.068811,17.246167 37.088388,32 37.088388,32 L 22.160133,31.978069 C 22.160133,31.978069 26.997745,27.140456 26.997745,27.140456 C 18.528582,18.264221 13.291696,25.230495 11.500037,31.436501 z"
             style="fill:#404040;"/>
          </a>
         </g>
        </svg>
</svg>
