<?xml version="1.0" encoding="UTF-8" standalone="no"?>
<!DOCTYPE svg PUBLIC "-//W3C//DTD SVG 1.1//EN"
 "http://www.w3.org/Graphics/SVG/1.1/DTD/svg11.dtd">
<!-- Generated by graphviz version 2.36.0 (20140111.2315)
 -->
<!-- Title: o2::header::DataHeader Pages: 1 -->
<svg width="1383pt" height="1072pt"
 viewBox="0.00 0.00 1382.57 1072.00" xmlns="http://www.w3.org/2000/svg" xmlns:xlink="http://www.w3.org/1999/xlink">
<g id="graph0" class="graph" transform="scale(1 1) rotate(0) translate(4 1068)">
<title>o2::header::DataHeader</title>
<!-- Node1 -->
<g id="node1" class="node"><title>Node1</title>
<polygon fill="#bfbfbf" stroke="black" points="853.073,-0.5 853.073,-189.5 974.073,-189.5 974.073,-0.5 853.073,-0.5"/>
<text text-anchor="middle" x="913.573" y="-177.5" font-family="Helvetica,sans-Serif" font-size="10.00">o2::header::DataHeader</text>
<polyline fill="none" stroke="black" points="853.073,-170.5 974.073,-170.5 "/>
<text text-anchor="middle" x="913.573" y="-158.5" font-family="Helvetica,sans-Serif" font-size="10.00"> </text>
<polyline fill="none" stroke="black" points="853.073,-151.5 974.073,-151.5 "/>
<text text-anchor="start" x="861.073" y="-139.5" font-family="Helvetica,sans-Serif" font-size="10.00">+ DataHeader()</text>
<text text-anchor="start" x="861.073" y="-128.5" font-family="Helvetica,sans-Serif" font-size="10.00">+ DataHeader()</text>
<text text-anchor="start" x="861.073" y="-117.5" font-family="Helvetica,sans-Serif" font-size="10.00">+ DataHeader()</text>
<text text-anchor="start" x="861.073" y="-106.5" font-family="Helvetica,sans-Serif" font-size="10.00">+ operator=()</text>
<text text-anchor="start" x="861.073" y="-95.5" font-family="Helvetica,sans-Serif" font-size="10.00">+ operator=()</text>
<text text-anchor="start" x="861.073" y="-84.5" font-family="Helvetica,sans-Serif" font-size="10.00">+ operator=()</text>
<text text-anchor="start" x="861.073" y="-73.5" font-family="Helvetica,sans-Serif" font-size="10.00">+ operator=()</text>
<text text-anchor="start" x="861.073" y="-62.5" font-family="Helvetica,sans-Serif" font-size="10.00">+ operator==()</text>
<text text-anchor="start" x="861.073" y="-51.5" font-family="Helvetica,sans-Serif" font-size="10.00">+ operator==()</text>
<text text-anchor="start" x="861.073" y="-40.5" font-family="Helvetica,sans-Serif" font-size="10.00">+ operator==()</text>
<text text-anchor="start" x="861.073" y="-29.5" font-family="Helvetica,sans-Serif" font-size="10.00">+ operator==()</text>
<text text-anchor="start" x="861.073" y="-18.5" font-family="Helvetica,sans-Serif" font-size="10.00">+ print()</text>
<text text-anchor="start" x="861.073" y="-7.5" font-family="Helvetica,sans-Serif" font-size="10.00">+ Get()</text>
</g>
<!-- Node2 -->
<g id="node2" class="node"><title>Node2</title>
<g id="a_node2"><a xlink:href="../../d8/dbd/structo2_1_1header_1_1BaseHeader.html" target="_top" xlink:title="the base header struct Every header type must begin (i.e. derive) with this. Don&#39;t use this struct di...">
<polygon fill="none" stroke="black" points="680.573,-248.5 680.573,-371.5 802.573,-371.5 802.573,-248.5 680.573,-248.5"/>
<text text-anchor="middle" x="741.573" y="-359.5" font-family="Helvetica,sans-Serif" font-size="10.00">o2::header::BaseHeader</text>
<polyline fill="none" stroke="black" points="680.573,-352.5 802.573,-352.5 "/>
<text text-anchor="middle" x="741.573" y="-340.5" font-family="Helvetica,sans-Serif" font-size="10.00"> </text>
<polyline fill="none" stroke="black" points="680.573,-333.5 802.573,-333.5 "/>
<text text-anchor="start" x="688.573" y="-321.5" font-family="Helvetica,sans-Serif" font-size="10.00">+ BaseHeader()</text>
<text text-anchor="start" x="688.573" y="-310.5" font-family="Helvetica,sans-Serif" font-size="10.00">+ BaseHeader()</text>
<text text-anchor="start" x="688.573" y="-299.5" font-family="Helvetica,sans-Serif" font-size="10.00">+ BaseHeader()</text>
<text text-anchor="start" x="688.573" y="-288.5" font-family="Helvetica,sans-Serif" font-size="10.00">+ size()</text>
<text text-anchor="start" x="688.573" y="-277.5" font-family="Helvetica,sans-Serif" font-size="10.00">+ data()</text>
<text text-anchor="start" x="688.573" y="-266.5" font-family="Helvetica,sans-Serif" font-size="10.00">+ next()</text>
<text text-anchor="start" x="688.573" y="-255.5" font-family="Helvetica,sans-Serif" font-size="10.00">+ get()</text>
</a>
</g>
</g>
<!-- Node2&#45;&gt;Node1 -->
<g id="edge1" class="edge"><title>Node2&#45;&gt;Node1</title>
<path fill="none" stroke="midnightblue" d="M797.088,-240.251C814.879,-218.22 834.669,-193.713 852.814,-171.243"/>
<polygon fill="none" stroke="midnightblue" points="794.191,-238.269 790.631,-248.248 799.637,-242.667 794.191,-238.269"/>
</g>
<!-- Node3 -->
<g id="node3" class="node"><title>Node3</title>
<g id="a_node3"><a xlink:href="../../d9/db3/structo2_1_1header_1_1Descriptor.html" target="_top" xlink:title="{o2::header::Descriptor\l\&lt; gSizeHeaderDescriptionString \&gt;\n||+ Descriptor()\l+ Descriptor()\l+ Descriptor()\l+ Descriptor()\l+ operator=()\l+ operator ItgType()\l+ runtimeInit()\l+ operator==()\l+ operator==()\l+ operator!=()\l+ operator!=()\l+ print()\l}">
<polygon fill="none" stroke="black" points="395.573,-496.5 395.573,-685.5 561.573,-685.5 561.573,-496.5 395.573,-496.5"/>
<text text-anchor="start" x="403.573" y="-673.5" font-family="Helvetica,sans-Serif" font-size="10.00">o2::header::Descriptor</text>
<text text-anchor="middle" x="478.573" y="-662.5" font-family="Helvetica,sans-Serif" font-size="10.00">&lt; gSizeHeaderDescriptionString &gt;</text>
<polyline fill="none" stroke="black" points="395.573,-655.5 561.573,-655.5 "/>
<text text-anchor="middle" x="478.573" y="-643.5" font-family="Helvetica,sans-Serif" font-size="10.00"> </text>
<polyline fill="none" stroke="black" points="395.573,-636.5 561.573,-636.5 "/>
<text text-anchor="start" x="403.573" y="-624.5" font-family="Helvetica,sans-Serif" font-size="10.00">+ Descriptor()</text>
<text text-anchor="start" x="403.573" y="-613.5" font-family="Helvetica,sans-Serif" font-size="10.00">+ Descriptor()</text>
<text text-anchor="start" x="403.573" y="-602.5" font-family="Helvetica,sans-Serif" font-size="10.00">+ Descriptor()</text>
<text text-anchor="start" x="403.573" y="-591.5" font-family="Helvetica,sans-Serif" font-size="10.00">+ Descriptor()</text>
<text text-anchor="start" x="403.573" y="-580.5" font-family="Helvetica,sans-Serif" font-size="10.00">+ operator=()</text>
<text text-anchor="start" x="403.573" y="-569.5" font-family="Helvetica,sans-Serif" font-size="10.00">+ operator ItgType()</text>
<text text-anchor="start" x="403.573" y="-558.5" font-family="Helvetica,sans-Serif" font-size="10.00">+ runtimeInit()</text>
<text text-anchor="start" x="403.573" y="-547.5" font-family="Helvetica,sans-Serif" font-size="10.00">+ operator==()</text>
<text text-anchor="start" x="403.573" y="-536.5" font-family="Helvetica,sans-Serif" font-size="10.00">+ operator==()</text>
<text text-anchor="start" x="403.573" y="-525.5" font-family="Helvetica,sans-Serif" font-size="10.00">+ operator!=()</text>
<text text-anchor="start" x="403.573" y="-514.5" font-family="Helvetica,sans-Serif" font-size="10.00">+ operator!=()</text>
<text text-anchor="start" x="403.573" y="-503.5" font-family="Helvetica,sans-Serif" font-size="10.00">+ print()</text>
</a>
</g>
</g>
<!-- Node3&#45;&gt;Node2 -->
<g id="edge2" class="edge"><title>Node3&#45;&gt;Node2</title>
<path fill="none" stroke="#404040" d="M482.326,-496.407C488.216,-459.467 500.76,-419.012 526.573,-390 562.683,-349.414 621.477,-329.648 668.463,-320.039"/>
<polygon fill="none" stroke="#404040" points="668.655,-320.002 673.799,-314.948 680.442,-317.753 675.298,-322.807 668.655,-320.002"/>
<text text-anchor="middle" x="555.073" y="-431.5" font-family="Helvetica,sans-Serif" font-size="10.00"> +description</text>
</g>
<!-- Node4 -->
<g id="node4" class="node"><title>Node4</title>
<polygon fill="none" stroke="#bfbfbf" points="135.573,-1005.5 135.573,-1062.5 173.573,-1062.5 173.573,-1005.5 135.573,-1005.5"/>
<text text-anchor="middle" x="154.573" y="-1050.5" font-family="Helvetica,sans-Serif" font-size="10.00">Type</text>
<polyline fill="none" stroke="#bfbfbf" points="135.573,-1043.5 173.573,-1043.5 "/>
<text text-anchor="middle" x="154.573" y="-1031.5" font-family="Helvetica,sans-Serif" font-size="10.00"> </text>
<polyline fill="none" stroke="#bfbfbf" points="135.573,-1024.5 173.573,-1024.5 "/>
<text text-anchor="middle" x="154.573" y="-1012.5" font-family="Helvetica,sans-Serif" font-size="10.00"> </text>
</g>
<!-- Node4&#45;&gt;Node3 -->
<g id="edge3" class="edge"><title>Node4&#45;&gt;Node3</title>
<path fill="none" stroke="#404040" d="M150.67,-1005.13C144.464,-951.671 136.865,-832.2 177.573,-744 216.392,-659.892 293.487,-722.681 384.246,-686.229"/>
<polygon fill="none" stroke="#404040" points="384.417,-686.153 388.272,-680.06 395.38,-681.275 391.524,-687.369 384.417,-686.153"/>
<text text-anchor="middle" x="187.573" y="-836.5" font-family="Helvetica,sans-Serif" font-size="10.00"> +itg</text>
</g>
<!-- Node8 -->
<g id="node8" class="node"><title>Node8</title>
<g id="a_node8"><a xlink:href="../../d9/db3/structo2_1_1header_1_1Descriptor.html" target="_top" xlink:title="{o2::header::Descriptor\l\&lt; N, PrinterPolicy \&gt;\n||+ Descriptor()\l+ Descriptor()\l+ Descriptor()\l+ operator=()\l+ operator ItgType()\l+ Descriptor()\l+ runtimeInit()\l+ operator==()\l+ operator!=()\l+ operator==()\l+ operator!=()\l+ print()\l}">
<polygon fill="none" stroke="black" points="280.073,-744.5 280.073,-933.5 393.073,-933.5 393.073,-744.5 280.073,-744.5"/>
<text text-anchor="start" x="288.073" y="-921.5" font-family="Helvetica,sans-Serif" font-size="10.00">o2::header::Descriptor</text>
<text text-anchor="middle" x="336.573" y="-910.5" font-family="Helvetica,sans-Serif" font-size="10.00">&lt; N, PrinterPolicy &gt;</text>
<polyline fill="none" stroke="black" points="280.073,-903.5 393.073,-903.5 "/>
<text text-anchor="middle" x="336.573" y="-891.5" font-family="Helvetica,sans-Serif" font-size="10.00"> </text>
<polyline fill="none" stroke="black" points="280.073,-884.5 393.073,-884.5 "/>
<text text-anchor="start" x="288.073" y="-872.5" font-family="Helvetica,sans-Serif" font-size="10.00">+ Descriptor()</text>
<text text-anchor="start" x="288.073" y="-861.5" font-family="Helvetica,sans-Serif" font-size="10.00">+ Descriptor()</text>
<text text-anchor="start" x="288.073" y="-850.5" font-family="Helvetica,sans-Serif" font-size="10.00">+ Descriptor()</text>
<text text-anchor="start" x="288.073" y="-839.5" font-family="Helvetica,sans-Serif" font-size="10.00">+ operator=()</text>
<text text-anchor="start" x="288.073" y="-828.5" font-family="Helvetica,sans-Serif" font-size="10.00">+ operator ItgType()</text>
<text text-anchor="start" x="288.073" y="-817.5" font-family="Helvetica,sans-Serif" font-size="10.00">+ Descriptor()</text>
<text text-anchor="start" x="288.073" y="-806.5" font-family="Helvetica,sans-Serif" font-size="10.00">+ runtimeInit()</text>
<text text-anchor="start" x="288.073" y="-795.5" font-family="Helvetica,sans-Serif" font-size="10.00">+ operator==()</text>
<text text-anchor="start" x="288.073" y="-784.5" font-family="Helvetica,sans-Serif" font-size="10.00">+ operator!=()</text>
<text text-anchor="start" x="288.073" y="-773.5" font-family="Helvetica,sans-Serif" font-size="10.00">+ operator==()</text>
<text text-anchor="start" x="288.073" y="-762.5" font-family="Helvetica,sans-Serif" font-size="10.00">+ operator!=()</text>
<text text-anchor="start" x="288.073" y="-751.5" font-family="Helvetica,sans-Serif" font-size="10.00">+ print()</text>
</a>
</g>
</g>
<!-- Node4&#45;&gt;Node8 -->
<g id="edge8" class="edge"><title>Node4&#45;&gt;Node8</title>
<path fill="none" stroke="#404040" d="M173.832,-1015.48C178.024,-1011.69 182.441,-1007.7 186.573,-1004 221.509,-972.693 233.723,-968.442 265.573,-934 267.775,-931.619 269.977,-929.172 272.17,-926.676"/>
<polygon fill="none" stroke="#404040" points="272.255,-926.577 273.117,-919.417 280.057,-917.459 279.195,-924.619 272.255,-926.577"/>
<text text-anchor="middle" x="257.573" y="-966.5" font-family="Helvetica,sans-Serif" font-size="10.00"> +itg</text>
</g>
<!-- Node10 -->
<g id="node10" class="node"><title>Node10</title>
<g id="a_node10"><a xlink:href="../../d9/db3/structo2_1_1header_1_1Descriptor.html" target="_top" xlink:title="{o2::header::Descriptor\l\&lt; gSizeSerializationMethodString \&gt;\n||+ Descriptor()\l+ Descriptor()\l+ Descriptor()\l+ Descriptor()\l+ operator=()\l+ operator ItgType()\l+ runtimeInit()\l+ operator==()\l+ operator==()\l+ operator!=()\l+ operator!=()\l+ print()\l}">
<polygon fill="none" stroke="black" points="207.573,-496.5 207.573,-685.5 377.573,-685.5 377.573,-496.5 207.573,-496.5"/>
<text text-anchor="start" x="215.573" y="-673.5" font-family="Helvetica,sans-Serif" font-size="10.00">o2::header::Descriptor</text>
<text text-anchor="middle" x="292.573" y="-662.5" font-family="Helvetica,sans-Serif" font-size="10.00">&lt; gSizeSerializationMethodString &gt;</text>
<polyline fill="none" stroke="black" points="207.573,-655.5 377.573,-655.5 "/>
<text text-anchor="middle" x="292.573" y="-643.5" font-family="Helvetica,sans-Serif" font-size="10.00"> </text>
<polyline fill="none" stroke="black" points="207.573,-636.5 377.573,-636.5 "/>
<text text-anchor="start" x="215.573" y="-624.5" font-family="Helvetica,sans-Serif" font-size="10.00">+ Descriptor()</text>
<text text-anchor="start" x="215.573" y="-613.5" font-family="Helvetica,sans-Serif" font-size="10.00">+ Descriptor()</text>
<text text-anchor="start" x="215.573" y="-602.5" font-family="Helvetica,sans-Serif" font-size="10.00">+ Descriptor()</text>
<text text-anchor="start" x="215.573" y="-591.5" font-family="Helvetica,sans-Serif" font-size="10.00">+ Descriptor()</text>
<text text-anchor="start" x="215.573" y="-580.5" font-family="Helvetica,sans-Serif" font-size="10.00">+ operator=()</text>
<text text-anchor="start" x="215.573" y="-569.5" font-family="Helvetica,sans-Serif" font-size="10.00">+ operator ItgType()</text>
<text text-anchor="start" x="215.573" y="-558.5" font-family="Helvetica,sans-Serif" font-size="10.00">+ runtimeInit()</text>
<text text-anchor="start" x="215.573" y="-547.5" font-family="Helvetica,sans-Serif" font-size="10.00">+ operator==()</text>
<text text-anchor="start" x="215.573" y="-536.5" font-family="Helvetica,sans-Serif" font-size="10.00">+ operator==()</text>
<text text-anchor="start" x="215.573" y="-525.5" font-family="Helvetica,sans-Serif" font-size="10.00">+ operator!=()</text>
<text text-anchor="start" x="215.573" y="-514.5" font-family="Helvetica,sans-Serif" font-size="10.00">+ operator!=()</text>
<text text-anchor="start" x="215.573" y="-503.5" font-family="Helvetica,sans-Serif" font-size="10.00">+ print()</text>
</a>
</g>
</g>
<!-- Node4&#45;&gt;Node10 -->
<g id="edge17" class="edge"><title>Node4&#45;&gt;Node10</title>
<path fill="none" stroke="#404040" d="M135.414,-1024.92C105.836,-1011.24 50.2112,-980.39 28.5729,-934 -7.12361,-857.471 -11.5557,-818.3 28.5729,-744 62.8085,-680.611 135.36,-641.644 195.756,-619.057"/>
<polygon fill="none" stroke="#404040" points="195.985,-618.975 200.266,-613.172 207.269,-614.892 202.988,-620.695 195.985,-618.975"/>
<text text-anchor="middle" x="38.5729" y="-836.5" font-family="Helvetica,sans-Serif" font-size="10.00"> +itg</text>
</g>
<!-- Node5 -->
<g id="node5" class="node"><title>Node5</title>
<polygon fill="none" stroke="#bfbfbf" points="457.073,-1005.5 457.073,-1062.5 492.073,-1062.5 492.073,-1005.5 457.073,-1005.5"/>
<text text-anchor="middle" x="474.573" y="-1050.5" font-family="Helvetica,sans-Serif" font-size="10.00">char</text>
<polyline fill="none" stroke="#bfbfbf" points="457.073,-1043.5 492.073,-1043.5 "/>
<text text-anchor="middle" x="474.573" y="-1031.5" font-family="Helvetica,sans-Serif" font-size="10.00"> </text>
<polyline fill="none" stroke="#bfbfbf" points="457.073,-1024.5 492.073,-1024.5 "/>
<text text-anchor="middle" x="474.573" y="-1012.5" font-family="Helvetica,sans-Serif" font-size="10.00"> </text>
</g>
<!-- Node5&#45;&gt;Node2 -->
<g id="edge15" class="edge"><title>Node5&#45;&gt;Node2</title>
<path fill="none" stroke="#404040" d="M492.107,-1020.88C529.844,-994.788 615.459,-935.507 616.573,-934 680.41,-847.653 634.597,-795.64 690.573,-704 696.47,-694.345 703.789,-696.252 708.573,-686 732.773,-634.137 739.306,-477.724 741.019,-384.086"/>
<polygon fill="none" stroke="#404040" points="741.022,-383.867 737.123,-377.801 741.222,-371.868 745.121,-377.934 741.022,-383.867"/>
<text text-anchor="middle" x="721.073" y="-712.5" font-family="Helvetica,sans-Serif" font-size="10.00"> +magicString</text>
</g>
<!-- Node5&#45;&gt;Node3 -->
<g id="edge4" class="edge"><title>Node5&#45;&gt;Node3</title>
<path fill="none" stroke="#404040" d="M480.797,-1005.47C497.288,-931.736 540.392,-733.357 533.573,-704 533.04,-701.705 532.453,-699.403 531.817,-697.099"/>
<polygon fill="none" stroke="#404040" points="531.801,-697.046 526.21,-692.493 528.263,-685.58 533.854,-690.134 531.801,-697.046"/>
<text text-anchor="middle" x="543.073" y="-836.5" font-family="Helvetica,sans-Serif" font-size="10.00"> +str</text>
</g>
<!-- Node5&#45;&gt;Node8 -->
<g id="edge9" class="edge"><title>Node5&#45;&gt;Node8</title>
<path fill="none" stroke="#404040" d="M457.007,-1026.66C439.085,-1019.37 411.561,-1005.81 394.573,-986 384.174,-973.874 375.497,-959.654 368.299,-944.933"/>
<polygon fill="none" stroke="#404040" points="368.101,-944.504 361.957,-940.728 363.079,-933.605 369.223,-937.38 368.101,-944.504"/>
<text text-anchor="middle" x="405.073" y="-966.5" font-family="Helvetica,sans-Serif" font-size="10.00"> +str</text>
</g>
<!-- Node5&#45;&gt;Node10 -->
<g id="edge18" class="edge"><title>Node5&#45;&gt;Node10</title>
<path fill="none" stroke="#404040" d="M471.071,-1005.15C463.665,-952.232 443.532,-834.35 401.573,-744 394,-727.692 384.603,-711.328 374.526,-695.695"/>
<polygon fill="none" stroke="#404040" points="374.43,-695.549 367.786,-692.746 367.818,-685.535 374.462,-688.338 374.43,-695.549"/>
<text text-anchor="middle" x="470.073" y="-836.5" font-family="Helvetica,sans-Serif" font-size="10.00"> +str</text>
</g>
<!-- Node6 -->
<g id="node6" class="node"><title>Node6</title>
<polygon fill="none" stroke="#bfbfbf" points="196.073,-1005.5 196.073,-1062.5 225.073,-1062.5 225.073,-1005.5 196.073,-1005.5"/>
<text text-anchor="middle" x="210.573" y="-1050.5" font-family="Helvetica,sans-Serif" font-size="10.00">int</text>
<polyline fill="none" stroke="#bfbfbf" points="196.073,-1043.5 225.073,-1043.5 "/>
<text text-anchor="middle" x="210.573" y="-1031.5" font-family="Helvetica,sans-Serif" font-size="10.00"> </text>
<polyline fill="none" stroke="#bfbfbf" points="196.073,-1024.5 225.073,-1024.5 "/>
<text text-anchor="middle" x="210.573" y="-1012.5" font-family="Helvetica,sans-Serif" font-size="10.00"> </text>
</g>
<!-- Node6&#45;&gt;Node3 -->
<g id="edge5" class="edge"><title>Node6&#45;&gt;Node3</title>
<path fill="none" stroke="#404040" d="M207.8,-1005.42C201.221,-932.924 188.536,-740.091 235.573,-704 286.262,-665.108 321.865,-710.333 384.252,-686.149"/>
<polygon fill="none" stroke="#404040" points="384.386,-686.09 388.25,-680.001 395.356,-681.226 391.492,-687.314 384.386,-686.09"/>
<text text-anchor="middle" x="238.073" y="-847.5" font-family="Helvetica,sans-Serif" font-size="10.00"> +arraySize</text>
<text text-anchor="middle" x="238.073" y="-836.5" font-family="Helvetica,sans-Serif" font-size="10.00">+size</text>
<text text-anchor="middle" x="238.073" y="-825.5" font-family="Helvetica,sans-Serif" font-size="10.00">+bitcount</text>
</g>
<!-- Node6&#45;&gt;Node8 -->
<g id="edge10" class="edge"><title>Node6&#45;&gt;Node8</title>
<path fill="none" stroke="#404040" d="M225.215,-1027.04C241.591,-1019.68 267.872,-1005.68 283.573,-986 293.357,-973.739 301.431,-959.511 308.067,-944.844"/>
<polygon fill="none" stroke="#404040" points="308.167,-944.609 306.836,-937.522 312.866,-933.567 314.197,-940.654 308.167,-944.609"/>
<text text-anchor="middle" x="330.073" y="-977.5" font-family="Helvetica,sans-Serif" font-size="10.00"> +arraySize</text>
<text text-anchor="middle" x="330.073" y="-966.5" font-family="Helvetica,sans-Serif" font-size="10.00">+size</text>
<text text-anchor="middle" x="330.073" y="-955.5" font-family="Helvetica,sans-Serif" font-size="10.00">+bitcount</text>
</g>
<!-- Node6&#45;&gt;Node10 -->
<g id="edge19" class="edge"><title>Node6&#45;&gt;Node10</title>
<path fill="none" stroke="#404040" d="M195.996,-1016.78C191.823,-1012.45 187.159,-1007.9 182.573,-1004 140.959,-968.628 106.908,-982.384 81.5729,-934 42.4009,-859.191 43.0838,-819.163 81.5729,-744 106.001,-696.296 153.146,-660.149 196.686,-635.099"/>
<polygon fill="none" stroke="#404040" points="196.893,-634.983 200.179,-628.564 207.368,-629.128 204.082,-635.547 196.893,-634.983"/>
<text text-anchor="middle" x="107.073" y="-847.5" font-family="Helvetica,sans-Serif" font-size="10.00"> +arraySize</text>
<text text-anchor="middle" x="107.073" y="-836.5" font-family="Helvetica,sans-Serif" font-size="10.00">+size</text>
<text text-anchor="middle" x="107.073" y="-825.5" font-family="Helvetica,sans-Serif" font-size="10.00">+bitcount</text>
</g>
<!-- Node7 -->
<g id="node7" class="node"><title>Node7</title>
<polygon fill="none" stroke="#bfbfbf" points="692.073,-1005 692.073,-1063 721.073,-1063 721.073,-1005 692.073,-1005"/>
<polyline fill="none" stroke="#bfbfbf" points="692.073,-1043 721.073,-1043 "/>
<text text-anchor="middle" x="706.573" y="-1031" font-family="Helvetica,sans-Serif" font-size="10.00"> </text>
<polyline fill="none" stroke="#bfbfbf" points="692.073,-1024 721.073,-1024 "/>
<text text-anchor="middle" x="706.573" y="-1012" font-family="Helvetica,sans-Serif" font-size="10.00"> </text>
</g>
<!-- Node7&#45;&gt;Node2 -->
<g id="edge12" class="edge"><title>Node7&#45;&gt;Node2</title>
<path fill="none" stroke="#404040" d="M721.097,-1005.31C730.342,-985.944 741.345,-959.14 745.573,-934 763.008,-830.332 751.66,-524.905 745.187,-383.884"/>
<polygon fill="none" stroke="#404040" points="745.172,-383.562 740.898,-377.754 744.615,-371.575 748.889,-377.382 745.172,-383.562"/>
<text text-anchor="middle" x="768.073" y="-712.5" font-family="Helvetica,sans-Serif" font-size="10.00"> +@5</text>
</g>
<!-- Node7&#45;&gt;Node2 -->
<g id="edge14" class="edge"><title>Node7&#45;&gt;Node2</title>
<path fill="none" stroke="#404040" d="M721.22,-1020.84C730.874,-1012.08 743.074,-999.479 750.573,-986 762.209,-965.085 760.302,-957.55 764.573,-934 807.723,-696.1 800.221,-628.673 761.573,-390 761.223,-387.842 760.843,-385.656 760.437,-383.455"/>
<polygon fill="none" stroke="#404040" points="760.417,-383.354 755.312,-378.261 758.05,-371.59 763.155,-376.683 760.417,-383.354"/>
<text text-anchor="middle" x="806.073" y="-712.5" font-family="Helvetica,sans-Serif" font-size="10.00"> +@7</text>
</g>
<!-- Node7&#45;&gt;Node3 -->
<g id="edge6" class="edge"><title>Node7&#45;&gt;Node3</title>
<path fill="none" stroke="#404040" d="M709.728,-1004.75C717.055,-933.266 731.761,-747.76 692.573,-704 657.474,-664.807 622.688,-709.412 575.573,-686 574.392,-685.413 573.215,-684.806 572.045,-684.181"/>
<polygon fill="none" stroke="#404040" points="572.013,-684.163 564.814,-684.576 561.664,-678.089 568.863,-677.676 572.013,-684.163"/>
<text text-anchor="middle" x="732.073" y="-836.5" font-family="Helvetica,sans-Serif" font-size="10.00"> +@3</text>
</g>
<!-- Node7&#45;&gt;Node8 -->
<g id="edge11" class="edge"><title>Node7&#45;&gt;Node8</title>
<path fill="none" stroke="#404040" d="M691.788,-1031.26C645.69,-1025.22 502.02,-1001.69 407.573,-934 405.859,-932.771 404.167,-931.489 402.5,-930.16"/>
<polygon fill="none" stroke="#404040" points="402.265,-929.955 395.113,-929.031 393.216,-922.074 400.368,-922.998 402.265,-929.955"/>
<text text-anchor="middle" x="519.073" y="-966.5" font-family="Helvetica,sans-Serif" font-size="10.00"> +@3</text>
</g>
<!-- Node7&#45;&gt;Node10 -->
<g id="edge20" class="edge"><title>Node7&#45;&gt;Node10</title>
<path fill="none" stroke="#404040" d="M695.808,-1004.83C667.477,-932.228 589.273,-741.759 534.573,-704 483.13,-668.489 450.052,-709.778 388.983,-686.197"/>
<polygon fill="none" stroke="#404040" points="388.653,-686.052 381.55,-687.296 377.67,-681.217 384.773,-679.974 388.653,-686.052"/>
<text text-anchor="middle" x="679.073" y="-836.5" font-family="Helvetica,sans-Serif" font-size="10.00"> +@3</text>
</g>
<!-- Node8&#45;&gt;Node1 -->
<g id="edge28" class="edge"><title>Node8&#45;&gt;Node1</title>
<path fill="none" stroke="#404040" d="M279.965,-756.072C275.956,-751.82 271.816,-747.759 267.573,-744 255.359,-733.179 248.38,-736.112 235.573,-726 216.566,-710.993 207.403,-708.55 198.573,-686 150.587,-563.457 150.233,-508.934 206.573,-390 319.744,-151.093 683.722,-105.947 840.554,-97.6959"/>
<polygon fill="none" stroke="#404040" points="840.844,-97.682 846.645,-93.3974 852.83,-97.1036 847.03,-101.388 840.844,-97.682"/>
<text text-anchor="middle" x="255.073" y="-437" font-family="Helvetica,sans-Serif" font-size="10.00"> +sHeaderType</text>
<text text-anchor="middle" x="255.073" y="-426" font-family="Helvetica,sans-Serif" font-size="10.00">+sSerializationMethod</text>
</g>
<!-- Node8&#45;&gt;Node2 -->
<g id="edge22" class="edge"><title>Node8&#45;&gt;Node2</title>
<path fill="none" stroke="#404040" d="M393.217,-746.95C394.64,-745.919 396.092,-744.934 397.573,-744 449.51,-711.228 480.223,-754.593 534.573,-726 555.74,-714.864 559.684,-707.295 570.573,-686 609.903,-609.084 576.937,-575.141 611.573,-496 629.407,-455.25 656.923,-414.329 682.057,-381.371"/>
<polygon fill="none" stroke="#404040" points="682.077,-381.345 682.583,-374.152 689.418,-371.852 688.912,-379.046 682.077,-381.345"/>
<text text-anchor="middle" x="660.073" y="-594" font-family="Helvetica,sans-Serif" font-size="10.00"> +sHeaderType</text>
<text text-anchor="middle" x="660.073" y="-583" font-family="Helvetica,sans-Serif" font-size="10.00">+sSerializationMethod</text>
</g>
<!-- Node8&#45;&gt;Node3 -->
<g id="edge7" class="edge"><title>Node8&#45;&gt;Node3</title>
<path fill="none" stroke="orange" d="M395.88,-735.256C405.334,-718.879 415.072,-702.009 424.399,-685.851"/>
<polygon fill="orange" stroke="orange" points="392.63,-733.886 390.662,-744.296 398.693,-737.385 392.63,-733.886"/>
<text text-anchor="start" x="412.573" y="-718" font-family="Helvetica,sans-Serif" font-size="10.00"> &lt; gSizeHeaderDescription</text>
<text text-anchor="middle" x="471.573" y="-707" font-family="Helvetica,sans-Serif" font-size="10.00">String &gt;</text>
</g>
<!-- Node8&#45;&gt;Node10 -->
<g id="edge21" class="edge"><title>Node8&#45;&gt;Node10</title>
<path fill="none" stroke="orange" d="M273.141,-752.313C270.63,-749.471 268.103,-746.691 265.573,-744 257.153,-735.044 249.71,-737.168 244.573,-726 238.687,-713.203 237.802,-699.462 239.983,-685.831"/>
<polygon fill="orange" stroke="orange" points="270.56,-754.679 279.742,-759.964 275.859,-750.106 270.56,-754.679"/>
<text text-anchor="start" x="244.573" y="-718" font-family="Helvetica,sans-Serif" font-size="10.00"> &lt; gSizeSerializationMethod</text>
<text text-anchor="middle" x="306.073" y="-707" font-family="Helvetica,sans-Serif" font-size="10.00">String &gt;</text>
</g>
<!-- Node9 -->
<g id="node9" class="node"><title>Node9</title>
<polygon fill="none" stroke="#bfbfbf" points="858.073,-562.5 858.073,-619.5 909.073,-619.5 909.073,-562.5 858.073,-562.5"/>
<text text-anchor="middle" x="883.573" y="-607.5" font-family="Helvetica,sans-Serif" font-size="10.00">uint32_t</text>
<polyline fill="none" stroke="#bfbfbf" points="858.073,-600.5 909.073,-600.5 "/>
<text text-anchor="middle" x="883.573" y="-588.5" font-family="Helvetica,sans-Serif" font-size="10.00"> </text>
<polyline fill="none" stroke="#bfbfbf" points="858.073,-581.5 909.073,-581.5 "/>
<text text-anchor="middle" x="883.573" y="-569.5" font-family="Helvetica,sans-Serif" font-size="10.00"> </text>
</g>
<!-- Node9&#45;&gt;Node1 -->
<g id="edge23" class="edge"><title>Node9&#45;&gt;Node1</title>
<path fill="none" stroke="#404040" d="M888.329,-562.478C892.039,-539.864 896.981,-506.954 899.573,-478 907.912,-384.826 911.312,-278.443 912.684,-201.646"/>
<polygon fill="none" stroke="#404040" points="912.685,-201.58 908.787,-195.513 912.888,-189.582 916.786,-195.648 912.685,-201.58"/>
<text text-anchor="middle" x="936.073" y="-313" font-family="Helvetica,sans-Serif" font-size="10.00"> +reserved</text>
<text text-anchor="middle" x="936.073" y="-302" font-family="Helvetica,sans-Serif" font-size="10.00">+sVersion</text>
</g>
<!-- Node9&#45;&gt;Node2 -->
<g id="edge13" class="edge"><title>Node9&#45;&gt;Node2</title>
<path fill="none" stroke="#404040" d="M864.829,-562.049C850.743,-540.005 831.84,-508.067 819.573,-478 804.301,-440.571 813.495,-426.713 796.573,-390 795.436,-387.534 794.222,-385.062 792.945,-382.596"/>
<polygon fill="none" stroke="#404040" points="792.806,-382.346 786.399,-379.038 786.988,-371.851 793.395,-375.159 792.806,-382.346"/>
<text text-anchor="middle" x="859.573" y="-470" font-family="Helvetica,sans-Serif" font-size="10.00"> +headerVersion</text>
<text text-anchor="middle" x="859.573" y="-459" font-family="Helvetica,sans-Serif" font-size="10.00">+headerSize</text>
<text text-anchor="middle" x="859.573" y="-448" font-family="Helvetica,sans-Serif" font-size="10.00">+sMagicString</text>
<text text-anchor="middle" x="859.573" y="-437" font-family="Helvetica,sans-Serif" font-size="10.00">+flagsNextHeader</text>
<text text-anchor="middle" x="859.573" y="-426" font-family="Helvetica,sans-Serif" font-size="10.00">+magicStringInt</text>
<text text-anchor="middle" x="859.573" y="-415" font-family="Helvetica,sans-Serif" font-size="10.00">+flagsUnused</text>
<text text-anchor="middle" x="859.573" y="-404" font-family="Helvetica,sans-Serif" font-size="10.00">+flags</text>
<text text-anchor="middle" x="859.573" y="-393" font-family="Helvetica,sans-Serif" font-size="10.00">+sVersion</text>
</g>
<!-- Node10&#45;&gt;Node1 -->
<g id="edge27" class="edge"><title>Node10&#45;&gt;Node1</title>
<path fill="none" stroke="#404040" d="M301.967,-496.488C308.985,-460.816 321.227,-421.255 342.573,-390 461.243,-216.237 715.246,-138.894 840.568,-110.242"/>
<polygon fill="none" stroke="#404040" points="840.938,-110.159 845.921,-104.946 852.649,-107.54 847.667,-112.753 840.938,-110.159"/>
<text text-anchor="middle" x="552.073" y="-307.5" font-family="Helvetica,sans-Serif" font-size="10.00"> +payloadSerializationMethod</text>
</g>
<!-- Node10&#45;&gt;Node2 -->
<g id="edge16" class="edge"><title>Node10&#45;&gt;Node2</title>
<path fill="none" stroke="#404040" d="M334.115,-496.365C355.444,-458.168 384.954,-416.776 422.573,-390 495.692,-337.955 599.399,-320.042 668.495,-313.965"/>
<polygon fill="none" stroke="#404040" points="668.591,-313.958 674.25,-309.489 680.552,-312.994 674.893,-317.463 668.591,-313.958"/>
<text text-anchor="middle" x="453.073" y="-431.5" font-family="Helvetica,sans-Serif" font-size="10.00"> +serialization</text>
</g>
<!-- Node11 -->
<g id="node11" class="node"><title>Node11</title>
<polygon fill="none" stroke="#bfbfbf" points="979.073,-281.5 979.073,-338.5 1030.07,-338.5 1030.07,-281.5 979.073,-281.5"/>
<text text-anchor="middle" x="1004.57" y="-326.5" font-family="Helvetica,sans-Serif" font-size="10.00">uint64_t</text>
<polyline fill="none" stroke="#bfbfbf" points="979.073,-319.5 1030.07,-319.5 "/>
<text text-anchor="middle" x="1004.57" y="-307.5" font-family="Helvetica,sans-Serif" font-size="10.00"> </text>
<polyline fill="none" stroke="#bfbfbf" points="979.073,-300.5 1030.07,-300.5 "/>
<text text-anchor="middle" x="1004.57" y="-288.5" font-family="Helvetica,sans-Serif" font-size="10.00"> </text>
</g>
<!-- Node11&#45;&gt;Node1 -->
<g id="edge24" class="edge"><title>Node11&#45;&gt;Node1</title>
<path fill="none" stroke="#404040" d="M992.676,-281.154C983.791,-260.356 971.042,-230.515 958.366,-200.846"/>
<polygon fill="none" stroke="#404040" points="958.235,-200.537 952.199,-196.591 953.52,-189.502 959.556,-193.448 958.235,-200.537"/>
<text text-anchor="middle" x="1010.07" y="-222" font-family="Helvetica,sans-Serif" font-size="10.00"> +payloadSize</text>
<text text-anchor="middle" x="1010.07" y="-211" font-family="Helvetica,sans-Serif" font-size="10.00">+subSpecification</text>
</g>
<!-- Node12 -->
<g id="node12" class="node"><title>Node12</title>
<polygon fill="none" stroke="#bfbfbf" points="1048.57,-276 1048.57,-344 1190.57,-344 1190.57,-276 1048.57,-276"/>
<text text-anchor="start" x="1056.57" y="-332" font-family="Helvetica,sans-Serif" font-size="10.00">Descriptor&lt; gSizeDataOrigin</text>
<text text-anchor="middle" x="1119.57" y="-321" font-family="Helvetica,sans-Serif" font-size="10.00">String, printDataOrigin &gt;</text>
<polyline fill="none" stroke="#bfbfbf" points="1048.57,-314 1190.57,-314 "/>
<text text-anchor="middle" x="1119.57" y="-302" font-family="Helvetica,sans-Serif" font-size="10.00"> </text>
<polyline fill="none" stroke="#bfbfbf" points="1048.57,-295 1190.57,-295 "/>
<text text-anchor="middle" x="1119.57" y="-283" font-family="Helvetica,sans-Serif" font-size="10.00"> </text>
</g>
<!-- Node12&#45;&gt;Node1 -->
<g id="edge25" class="edge"><title>Node12&#45;&gt;Node1</title>
<path fill="none" stroke="#404040" d="M1101.48,-275.739C1089.39,-255.077 1072.3,-228.621 1053.57,-208 1032.97,-185.32 1007.51,-163.522 983.979,-145.281"/>
<polygon fill="none" stroke="#404040" points="983.917,-145.234 976.721,-144.772 974.379,-137.951 981.576,-138.413 983.917,-145.234"/>
<text text-anchor="middle" x="1097.57" y="-216.5" font-family="Helvetica,sans-Serif" font-size="10.00"> +dataOrigin</text>
</g>
<!-- Node13 -->
<g id="node13" class="node"><title>Node13</title>
<polygon fill="none" stroke="#bfbfbf" points="1208.57,-276 1208.57,-344 1374.57,-344 1374.57,-276 1208.57,-276"/>
<text text-anchor="start" x="1216.57" y="-332" font-family="Helvetica,sans-Serif" font-size="10.00">Descriptor&lt; gSizeDataDescription</text>
<text text-anchor="middle" x="1291.57" y="-321" font-family="Helvetica,sans-Serif" font-size="10.00">String, printDataDescription &gt;</text>
<polyline fill="none" stroke="#bfbfbf" points="1208.57,-314 1374.57,-314 "/>
<text text-anchor="middle" x="1291.57" y="-302" font-family="Helvetica,sans-Serif" font-size="10.00"> </text>
<polyline fill="none" stroke="#bfbfbf" points="1208.57,-295 1374.57,-295 "/>
<text text-anchor="middle" x="1291.57" y="-283" font-family="Helvetica,sans-Serif" font-size="10.00"> </text>
</g>
<!-- Node13&#45;&gt;Node1 -->
<g id="edge26" class="edge"><title>Node13&#45;&gt;Node1</title>
<path fill="none" stroke="#404040" d="M1242.82,-275.727C1228.97,-266.538 1213.79,-256.704 1199.57,-248 1128.5,-204.495 1043.87,-160.421 985.196,-131.016"/>
<polygon fill="none" stroke="#404040" points="984.921,-130.879 977.766,-131.777 974.186,-125.518 981.341,-124.62 984.921,-130.879"/>
<text text-anchor="middle" x="1208.57" y="-216.5" font-family="Helvetica,sans-Serif" font-size="10.00"> +dataDescription</text>
</g>
</g>
</svg>
