<?xml version="1.0" encoding="UTF-8" standalone="no"?>
<!DOCTYPE svg PUBLIC "-//W3C//DTD SVG 1.1//EN"
 "http://www.w3.org/Graphics/SVG/1.1/DTD/svg11.dtd">
<!-- Generated by graphviz version 2.36.0 (20140111.2315)
 -->
<!-- Title: /home/travis/build/AliceO2Group/AliceO2/Detectors/FIT/simulation/include/FITSimulation/Detector.h Pages: 1 -->
<svg width="1674pt" height="322pt"
 viewBox="0.00 0.00 1674.00 322.00" xmlns="http://www.w3.org/2000/svg" xmlns:xlink="http://www.w3.org/1999/xlink">
<g id="graph0" class="graph" transform="scale(1 1) rotate(0) translate(4 318)">
<title>/home/travis/build/AliceO2Group/AliceO2/Detectors/FIT/simulation/include/FITSimulation/Detector.h</title>
<!-- Node1 -->
<g id="node1" class="node"><title>Node1</title>
<polygon fill="#bfbfbf" stroke="black" points="928.5,-261 928.5,-313 1091.5,-313 1091.5,-261 928.5,-261"/>
<text text-anchor="start" x="936.5" y="-301" font-family="Helvetica,sans-Serif" font-size="10.00">/home/travis/build</text>
<text text-anchor="start" x="936.5" y="-290" font-family="Helvetica,sans-Serif" font-size="10.00">/AliceO2Group/AliceO2</text>
<text text-anchor="start" x="936.5" y="-279" font-family="Helvetica,sans-Serif" font-size="10.00">/Detectors/FIT/simulation</text>
<text text-anchor="middle" x="1010" y="-268" font-family="Helvetica,sans-Serif" font-size="10.00">/include/FITSimulation/Detector.h</text>
</g>
<!-- Node2 -->
<g id="node2" class="node"><title>Node2</title>
<g id="a_node2"><a xlink:href="../../d4/d25/BaseHits_8h.html" target="_top" xlink:title="SimulationDataFormat\l/BaseHits.h">
<polygon fill="none" stroke="black" points="675,-193 675,-223 789,-223 789,-193 675,-193"/>
<text text-anchor="start" x="683" y="-211" font-family="Helvetica,sans-Serif" font-size="10.00">SimulationDataFormat</text>
<text text-anchor="middle" x="732" y="-200" font-family="Helvetica,sans-Serif" font-size="10.00">/BaseHits.h</text>
</a>
</g>
</g>
<!-- Node1&#45;&gt;Node2 -->
<g id="edge1" class="edge"><title>Node1&#45;&gt;Node2</title>
<path fill="none" stroke="midnightblue" d="M928.469,-263.418C885.046,-251.39 832.541,-236.848 792.737,-225.823"/>
<polygon fill="midnightblue" stroke="midnightblue" points="793.476,-222.396 782.905,-223.1 791.608,-229.142 793.476,-222.396"/>
</g>
<!-- Node15 -->
<g id="node15" class="node"><title>Node15</title>
<g id="a_node15"><a xlink:href="../../d1/d3a/Base_2include_2DetectorsBase_2Detector_8h.html" target="_top" xlink:title="DetectorsBase/Detector.h">
<polygon fill="none" stroke="black" points="944.5,-198.5 944.5,-217.5 1075.5,-217.5 1075.5,-198.5 944.5,-198.5"/>
<text text-anchor="middle" x="1010" y="-205.5" font-family="Helvetica,sans-Serif" font-size="10.00">DetectorsBase/Detector.h</text>
</a>
</g>
</g>
<!-- Node1&#45;&gt;Node15 -->
<g id="edge14" class="edge"><title>Node1&#45;&gt;Node15</title>
<path fill="none" stroke="midnightblue" d="M1010,-260.787C1010,-250.069 1010,-237.785 1010,-227.871"/>
<polygon fill="midnightblue" stroke="midnightblue" points="1013.5,-227.558 1010,-217.558 1006.5,-227.558 1013.5,-227.558"/>
</g>
<!-- Node26 -->
<g id="node26" class="node"><title>Node26</title>
<g id="a_node26"><a xlink:href="../../d1/db1/FIT_2base_2include_2FITBase_2Geometry_8h.html" target="_top" xlink:title="FITBase/Geometry.h">
<polygon fill="none" stroke="black" points="1481,-198.5 1481,-217.5 1589,-217.5 1589,-198.5 1481,-198.5"/>
<text text-anchor="middle" x="1535" y="-205.5" font-family="Helvetica,sans-Serif" font-size="10.00">FITBase/Geometry.h</text>
</a>
</g>
</g>
<!-- Node1&#45;&gt;Node26 -->
<g id="edge28" class="edge"><title>Node1&#45;&gt;Node26</title>
<path fill="none" stroke="midnightblue" d="M1091.74,-274.011C1196.3,-258.676 1375.22,-232.434 1470.64,-218.44"/>
<polygon fill="midnightblue" stroke="midnightblue" points="1471.34,-221.874 1480.73,-216.96 1470.33,-214.948 1471.34,-221.874"/>
</g>
<!-- Node3 -->
<g id="node3" class="node"><title>Node3</title>
<g id="a_node3"><a xlink:href="../../dd/d76/Cartesian3D_8h.html" target="_top" xlink:title="MathUtils/Cartesian3D.h">
<polygon fill="none" stroke="black" points="531.5,-136.5 531.5,-155.5 656.5,-155.5 656.5,-136.5 531.5,-136.5"/>
<text text-anchor="middle" x="594" y="-143.5" font-family="Helvetica,sans-Serif" font-size="10.00">MathUtils/Cartesian3D.h</text>
</a>
</g>
</g>
<!-- Node2&#45;&gt;Node3 -->
<g id="edge2" class="edge"><title>Node2&#45;&gt;Node3</title>
<path fill="none" stroke="midnightblue" d="M699.645,-192.933C676.467,-182.855 645.517,-169.399 623.112,-159.657"/>
<polygon fill="midnightblue" stroke="midnightblue" points="624.346,-156.378 613.78,-155.6 621.555,-162.797 624.346,-156.378"/>
</g>
<!-- Node4 -->
<g id="node4" class="node"><title>Node4</title>
<polygon fill="none" stroke="#bfbfbf" points="930.5,-74.5 930.5,-93.5 1079.5,-93.5 1079.5,-74.5 930.5,-74.5"/>
<text text-anchor="middle" x="1005" y="-81.5" font-family="Helvetica,sans-Serif" font-size="10.00">Math/GenVector/Rotation3D.h</text>
</g>
<!-- Node3&#45;&gt;Node4 -->
<g id="edge3" class="edge"><title>Node3&#45;&gt;Node4</title>
<path fill="none" stroke="midnightblue" d="M656.619,-136.686C736.851,-125.981 871.472,-107.827 921,-100 930.134,-98.5566 939.808,-96.9253 949.215,-95.2835"/>
<polygon fill="midnightblue" stroke="midnightblue" points="950.041,-98.6918 959.28,-93.5062 948.824,-91.7984 950.041,-98.6918"/>
</g>
<!-- Node5 -->
<g id="node5" class="node"><title>Node5</title>
<polygon fill="none" stroke="#bfbfbf" points="578,-74.5 578,-93.5 734,-93.5 734,-74.5 578,-74.5"/>
<text text-anchor="middle" x="656" y="-81.5" font-family="Helvetica,sans-Serif" font-size="10.00">Math/GenVector/Transform3D.h</text>
</g>
<!-- Node3&#45;&gt;Node5 -->
<g id="edge4" class="edge"><title>Node3&#45;&gt;Node5</title>
<path fill="none" stroke="midnightblue" d="M602.883,-136.403C612.459,-127.136 627.911,-112.183 639.686,-100.788"/>
<polygon fill="midnightblue" stroke="midnightblue" points="642.381,-103.05 647.133,-93.5806 637.513,-98.0197 642.381,-103.05"/>
</g>
<!-- Node6 -->
<g id="node6" class="node"><title>Node6</title>
<polygon fill="none" stroke="#bfbfbf" points="752,-74.5 752,-93.5 912,-93.5 912,-74.5 752,-74.5"/>
<text text-anchor="middle" x="832" y="-81.5" font-family="Helvetica,sans-Serif" font-size="10.00">Math/GenVector/Translation3D.h</text>
</g>
<!-- Node3&#45;&gt;Node6 -->
<g id="edge5" class="edge"><title>Node3&#45;&gt;Node6</title>
<path fill="none" stroke="midnightblue" d="M627.847,-136.467C670.052,-125.827 742.268,-107.622 788.528,-95.9593"/>
<polygon fill="midnightblue" stroke="midnightblue" points="789.429,-99.3418 798.27,-93.5034 787.718,-92.5542 789.429,-99.3418"/>
</g>
<!-- Node7 -->
<g id="node7" class="node"><title>Node7</title>
<polygon fill="none" stroke="#bfbfbf" points="1325,-74.5 1325,-93.5 1381,-93.5 1381,-74.5 1325,-74.5"/>
<text text-anchor="middle" x="1353" y="-81.5" font-family="Helvetica,sans-Serif" font-size="10.00">Rtypes.h</text>
</g>
<!-- Node3&#45;&gt;Node7 -->
<g id="edge6" class="edge"><title>Node3&#45;&gt;Node7</title>
<path fill="none" stroke="midnightblue" d="M656.698,-136.857C659.502,-136.554 662.28,-136.267 665,-136 894.676,-113.48 952.937,-118.143 1183,-100 1228.24,-96.4326 1280.19,-91.7648 1314.64,-88.5902"/>
<polygon fill="midnightblue" stroke="midnightblue" points="1315.1,-92.0622 1324.74,-87.6558 1314.46,-85.092 1315.1,-92.0622"/>
</g>
<!-- Node8 -->
<g id="node8" class="node"><title>Node8</title>
<polygon fill="none" stroke="#bfbfbf" points="1098,-74.5 1098,-93.5 1174,-93.5 1174,-74.5 1098,-74.5"/>
<text text-anchor="middle" x="1136" y="-81.5" font-family="Helvetica,sans-Serif" font-size="10.00">TGeoMatrix.h</text>
</g>
<!-- Node3&#45;&gt;Node8 -->
<g id="edge7" class="edge"><title>Node3&#45;&gt;Node8</title>
<path fill="none" stroke="midnightblue" d="M656.704,-136.909C659.506,-136.593 662.282,-136.288 665,-136 852.631,-116.132 902.856,-136.355 1088,-100 1092.78,-99.0611 1097.76,-97.8186 1102.62,-96.4495"/>
<polygon fill="midnightblue" stroke="midnightblue" points="1103.77,-99.7576 1112.34,-93.5183 1101.75,-93.056 1103.77,-99.7576"/>
</g>
<!-- Node9 -->
<g id="node9" class="node"><title>Node9</title>
<polygon fill="none" stroke="#bfbfbf" points="-0.5,-69 -0.5,-99 150.5,-99 150.5,-69 -0.5,-69"/>
<text text-anchor="start" x="7.5" y="-87" font-family="Helvetica,sans-Serif" font-size="10.00">Math/GenVector/Displacement</text>
<text text-anchor="middle" x="75" y="-76" font-family="Helvetica,sans-Serif" font-size="10.00">Vector3D.h</text>
</g>
<!-- Node3&#45;&gt;Node9 -->
<g id="edge8" class="edge"><title>Node3&#45;&gt;Node9</title>
<path fill="none" stroke="midnightblue" d="M531.303,-139.913C448.753,-132.901 298.893,-119.086 160.873,-100.06"/>
<polygon fill="midnightblue" stroke="midnightblue" points="161.344,-96.5918 150.957,-98.681 160.38,-103.525 161.344,-96.5918"/>
</g>
<!-- Node10 -->
<g id="node10" class="node"><title>Node10</title>
<polygon fill="none" stroke="#bfbfbf" points="169,-74.5 169,-93.5 345,-93.5 345,-74.5 169,-74.5"/>
<text text-anchor="middle" x="257" y="-81.5" font-family="Helvetica,sans-Serif" font-size="10.00">Math/GenVector/PositionVector3D.h</text>
</g>
<!-- Node3&#45;&gt;Node10 -->
<g id="edge9" class="edge"><title>Node3&#45;&gt;Node10</title>
<path fill="none" stroke="midnightblue" d="M546.074,-136.467C485.185,-125.626 380.184,-106.932 314.887,-95.3062"/>
<polygon fill="midnightblue" stroke="midnightblue" points="315.219,-91.8105 304.761,-93.5034 313.992,-98.7021 315.219,-91.8105"/>
</g>
<!-- Node11 -->
<g id="node11" class="node"><title>Node11</title>
<g id="a_node11"><a xlink:href="../../d2/dd0/Cartesian2D_8h.html" target="_top" xlink:title="MathUtils/Cartesian2D.h">
<polygon fill="none" stroke="black" points="362.5,-74.5 362.5,-93.5 487.5,-93.5 487.5,-74.5 362.5,-74.5"/>
<text text-anchor="middle" x="425" y="-81.5" font-family="Helvetica,sans-Serif" font-size="10.00">MathUtils/Cartesian2D.h</text>
</a>
</g>
</g>
<!-- Node3&#45;&gt;Node11 -->
<g id="edge10" class="edge"><title>Node3&#45;&gt;Node11</title>
<path fill="none" stroke="midnightblue" d="M569.786,-136.403C540.671,-126.067 491.632,-108.656 458.798,-96.9994"/>
<polygon fill="midnightblue" stroke="midnightblue" points="459.763,-93.6281 449.169,-93.5806 457.421,-100.225 459.763,-93.6281"/>
</g>
<!-- Node14 -->
<g id="node14" class="node"><title>Node14</title>
<polygon fill="none" stroke="#bfbfbf" points="506,-74.5 506,-93.5 560,-93.5 560,-74.5 506,-74.5"/>
<text text-anchor="middle" x="533" y="-81.5" font-family="Helvetica,sans-Serif" font-size="10.00">iostream</text>
</g>
<!-- Node3&#45;&gt;Node14 -->
<g id="edge13" class="edge"><title>Node3&#45;&gt;Node14</title>
<path fill="none" stroke="midnightblue" d="M585.26,-136.403C575.838,-127.136 560.636,-112.183 549.051,-100.788"/>
<polygon fill="midnightblue" stroke="midnightblue" points="551.307,-98.0978 541.724,-93.5806 546.399,-103.088 551.307,-98.0978"/>
</g>
<!-- Node12 -->
<g id="node12" class="node"><title>Node12</title>
<polygon fill="none" stroke="#bfbfbf" points="258.5,-1 258.5,-31 409.5,-31 409.5,-1 258.5,-1"/>
<text text-anchor="start" x="266.5" y="-19" font-family="Helvetica,sans-Serif" font-size="10.00">Math/GenVector/Displacement</text>
<text text-anchor="middle" x="334" y="-8" font-family="Helvetica,sans-Serif" font-size="10.00">Vector2D.h</text>
</g>
<!-- Node11&#45;&gt;Node12 -->
<g id="edge11" class="edge"><title>Node11&#45;&gt;Node12</title>
<path fill="none" stroke="midnightblue" d="M413.103,-74.3717C400.221,-65.0286 379.22,-49.7966 362.093,-37.375"/>
<polygon fill="midnightblue" stroke="midnightblue" points="363.703,-34.2194 353.553,-31.1815 359.593,-39.8859 363.703,-34.2194"/>
</g>
<!-- Node13 -->
<g id="node13" class="node"><title>Node13</title>
<polygon fill="none" stroke="#bfbfbf" points="428,-6.5 428,-25.5 604,-25.5 604,-6.5 428,-6.5"/>
<text text-anchor="middle" x="516" y="-13.5" font-family="Helvetica,sans-Serif" font-size="10.00">Math/GenVector/PositionVector2D.h</text>
</g>
<!-- Node11&#45;&gt;Node13 -->
<g id="edge12" class="edge"><title>Node11&#45;&gt;Node13</title>
<path fill="none" stroke="midnightblue" d="M436.897,-74.3717C451.884,-63.5015 477.862,-44.6602 495.942,-31.5474"/>
<polygon fill="midnightblue" stroke="midnightblue" points="498.06,-34.3349 504.1,-25.6305 493.95,-28.6684 498.06,-34.3349"/>
</g>
<!-- Node15&#45;&gt;Node7 -->
<g id="edge23" class="edge"><title>Node15&#45;&gt;Node7</title>
<path fill="none" stroke="midnightblue" d="M980.031,-198.466C943.266,-186.568 888.638,-163.349 913,-136 919.684,-128.497 1208.91,-99.2338 1314.73,-88.7569"/>
<polygon fill="midnightblue" stroke="midnightblue" points="1315.36,-92.2121 1324.97,-87.7456 1314.67,-85.246 1315.36,-92.2121"/>
</g>
<!-- Node16 -->
<g id="node16" class="node"><title>Node16</title>
<polygon fill="none" stroke="#bfbfbf" points="1513.5,-74.5 1513.5,-93.5 1548.5,-93.5 1548.5,-74.5 1513.5,-74.5"/>
<text text-anchor="middle" x="1531" y="-81.5" font-family="Helvetica,sans-Serif" font-size="10.00">map</text>
</g>
<!-- Node15&#45;&gt;Node16 -->
<g id="edge15" class="edge"><title>Node15&#45;&gt;Node16</title>
<path fill="none" stroke="midnightblue" d="M1075.88,-204.586C1205.25,-199.241 1482.76,-184.557 1515,-156 1529.6,-143.066 1532.41,-119.913 1532.34,-103.568"/>
<polygon fill="midnightblue" stroke="midnightblue" points="1535.84,-103.403 1531.94,-93.5501 1528.84,-103.682 1535.84,-103.403"/>
</g>
<!-- Node17 -->
<g id="node17" class="node"><title>Node17</title>
<polygon fill="none" stroke="#bfbfbf" points="922,-136.5 922,-155.5 966,-155.5 966,-136.5 922,-136.5"/>
<text text-anchor="middle" x="944" y="-143.5" font-family="Helvetica,sans-Serif" font-size="10.00">vector</text>
</g>
<!-- Node15&#45;&gt;Node17 -->
<g id="edge16" class="edge"><title>Node15&#45;&gt;Node17</title>
<path fill="none" stroke="midnightblue" d="M1000.54,-198.403C990.252,-189.047 973.584,-173.895 961.006,-162.46"/>
<polygon fill="midnightblue" stroke="midnightblue" points="963.192,-159.718 953.439,-155.581 958.484,-164.897 963.192,-159.718"/>
</g>
<!-- Node18 -->
<g id="node18" class="node"><title>Node18</title>
<polygon fill="none" stroke="#bfbfbf" points="984,-136.5 984,-155.5 1036,-155.5 1036,-136.5 984,-136.5"/>
<text text-anchor="middle" x="1010" y="-143.5" font-family="Helvetica,sans-Serif" font-size="10.00">memory</text>
</g>
<!-- Node15&#45;&gt;Node18 -->
<g id="edge17" class="edge"><title>Node15&#45;&gt;Node18</title>
<path fill="none" stroke="midnightblue" d="M1010,-198.403C1010,-189.938 1010,-176.728 1010,-165.82"/>
<polygon fill="midnightblue" stroke="midnightblue" points="1013.5,-165.581 1010,-155.581 1006.5,-165.581 1013.5,-165.581"/>
</g>
<!-- Node19 -->
<g id="node19" class="node"><title>Node19</title>
<polygon fill="none" stroke="#bfbfbf" points="1054.5,-136.5 1054.5,-155.5 1133.5,-155.5 1133.5,-136.5 1054.5,-136.5"/>
<text text-anchor="middle" x="1094" y="-143.5" font-family="Helvetica,sans-Serif" font-size="10.00">FairDetector.h</text>
</g>
<!-- Node15&#45;&gt;Node19 -->
<g id="edge18" class="edge"><title>Node15&#45;&gt;Node19</title>
<path fill="none" stroke="midnightblue" d="M1022.04,-198.403C1035.51,-188.78 1057.57,-173.024 1073.72,-161.489"/>
<polygon fill="midnightblue" stroke="midnightblue" points="1075.88,-164.241 1081.99,-155.581 1071.82,-158.545 1075.88,-164.241"/>
</g>
<!-- Node20 -->
<g id="node20" class="node"><title>Node20</title>
<polygon fill="none" stroke="#bfbfbf" points="1152,-136.5 1152,-155.5 1252,-155.5 1252,-136.5 1152,-136.5"/>
<text text-anchor="middle" x="1202" y="-143.5" font-family="Helvetica,sans-Serif" font-size="10.00">FairRootManager.h</text>
</g>
<!-- Node15&#45;&gt;Node20 -->
<g id="edge19" class="edge"><title>Node15&#45;&gt;Node20</title>
<path fill="none" stroke="midnightblue" d="M1037.51,-198.403C1070.87,-187.978 1127.26,-170.356 1164.56,-158.699"/>
<polygon fill="midnightblue" stroke="midnightblue" points="1166.04,-161.904 1174.54,-155.581 1163.95,-155.223 1166.04,-161.904"/>
</g>
<!-- Node21 -->
<g id="node21" class="node"><title>Node21</title>
<g id="a_node21"><a xlink:href="../../d0/d9a/MaterialManager_8h.html" target="_top" xlink:title="DetectorsBase/MaterialManager.h">
<polygon fill="none" stroke="black" points="1341.5,-136.5 1341.5,-155.5 1506.5,-155.5 1506.5,-136.5 1341.5,-136.5"/>
<text text-anchor="middle" x="1424" y="-143.5" font-family="Helvetica,sans-Serif" font-size="10.00">DetectorsBase/MaterialManager.h</text>
</a>
</g>
</g>
<!-- Node15&#45;&gt;Node21 -->
<g id="edge20" class="edge"><title>Node15&#45;&gt;Node21</title>
<path fill="none" stroke="midnightblue" d="M1068.88,-198.467C1144.45,-187.515 1275.33,-168.546 1355.35,-156.95"/>
<polygon fill="midnightblue" stroke="midnightblue" points="1355.93,-160.402 1365.33,-155.503 1354.93,-153.474 1355.93,-160.402"/>
</g>
<!-- Node22 -->
<g id="node22" class="node"><title>Node22</title>
<polygon fill="none" stroke="#bfbfbf" points="1270.5,-136.5 1270.5,-155.5 1323.5,-155.5 1323.5,-136.5 1270.5,-136.5"/>
<text text-anchor="middle" x="1297" y="-143.5" font-family="Helvetica,sans-Serif" font-size="10.00">cxxabi.h</text>
</g>
<!-- Node15&#45;&gt;Node22 -->
<g id="edge24" class="edge"><title>Node15&#45;&gt;Node22</title>
<path fill="none" stroke="midnightblue" d="M1055.02,-198.48C1103.29,-189.205 1182.4,-173.602 1260.31,-156.076"/>
<polygon fill="midnightblue" stroke="midnightblue" points="1261.31,-159.437 1270.3,-153.817 1259.77,-152.609 1261.31,-159.437"/>
</g>
<!-- Node23 -->
<g id="node23" class="node"><title>Node23</title>
<polygon fill="none" stroke="#bfbfbf" points="674.5,-136.5 674.5,-155.5 725.5,-155.5 725.5,-136.5 674.5,-136.5"/>
<text text-anchor="middle" x="700" y="-143.5" font-family="Helvetica,sans-Serif" font-size="10.00">typeinfo</text>
</g>
<!-- Node15&#45;&gt;Node23 -->
<g id="edge25" class="edge"><title>Node15&#45;&gt;Node23</title>
<path fill="none" stroke="midnightblue" d="M958.089,-198.461C904.751,-189.444 819.115,-174.291 735.488,-155.979"/>
<polygon fill="midnightblue" stroke="midnightblue" points="736.085,-152.527 725.566,-153.789 734.576,-159.362 736.085,-152.527"/>
</g>
<!-- Node24 -->
<g id="node24" class="node"><title>Node24</title>
<polygon fill="none" stroke="#bfbfbf" points="744,-136.5 744,-155.5 806,-155.5 806,-136.5 744,-136.5"/>
<text text-anchor="middle" x="775" y="-143.5" font-family="Helvetica,sans-Serif" font-size="10.00">type_traits</text>
</g>
<!-- Node15&#45;&gt;Node24 -->
<g id="edge26" class="edge"><title>Node15&#45;&gt;Node24</title>
<path fill="none" stroke="midnightblue" d="M976.33,-198.403C934.09,-187.619 861.69,-169.134 816.191,-157.517"/>
<polygon fill="midnightblue" stroke="midnightblue" points="816.909,-154.088 806.354,-155.005 815.178,-160.87 816.909,-154.088"/>
</g>
<!-- Node25 -->
<g id="node25" class="node"><title>Node25</title>
<polygon fill="none" stroke="#bfbfbf" points="824.5,-136.5 824.5,-155.5 865.5,-155.5 865.5,-136.5 824.5,-136.5"/>
<text text-anchor="middle" x="845" y="-143.5" font-family="Helvetica,sans-Serif" font-size="10.00">string</text>
</g>
<!-- Node15&#45;&gt;Node25 -->
<g id="edge27" class="edge"><title>Node15&#45;&gt;Node25</title>
<path fill="none" stroke="midnightblue" d="M986.36,-198.403C957.172,-187.79 907.474,-169.718 875.455,-158.075"/>
<polygon fill="midnightblue" stroke="midnightblue" points="876.323,-154.666 865.729,-154.538 873.931,-161.245 876.323,-154.666"/>
</g>
<!-- Node21&#45;&gt;Node7 -->
<g id="edge21" class="edge"><title>Node21&#45;&gt;Node7</title>
<path fill="none" stroke="midnightblue" d="M1413.83,-136.403C1402.65,-126.958 1384.48,-111.606 1370.91,-100.134"/>
<polygon fill="midnightblue" stroke="midnightblue" points="1373.05,-97.3619 1363.15,-93.5806 1368.53,-102.709 1373.05,-97.3619"/>
</g>
<!-- Node21&#45;&gt;Node16 -->
<g id="edge22" class="edge"><title>Node21&#45;&gt;Node16</title>
<path fill="none" stroke="midnightblue" d="M1439.33,-136.403C1456.97,-126.512 1486.16,-110.144 1506.86,-98.5378"/>
<polygon fill="midnightblue" stroke="midnightblue" points="1508.69,-101.524 1515.7,-93.5806 1505.26,-95.4188 1508.69,-101.524"/>
</g>
<!-- Node26&#45;&gt;Node7 -->
<g id="edge29" class="edge"><title>Node26&#45;&gt;Node7</title>
<path fill="none" stroke="midnightblue" d="M1535.06,-198.291C1534.69,-183.471 1531.76,-153.281 1515,-136 1482.49,-102.483 1428.2,-90.9172 1391.53,-86.9705"/>
<polygon fill="midnightblue" stroke="midnightblue" points="1391.5,-83.4529 1381.22,-86.0107 1390.85,-90.4228 1391.5,-83.4529"/>
</g>
<!-- Node27 -->
<g id="node27" class="node"><title>Node27</title>
<polygon fill="none" stroke="#bfbfbf" points="1601.5,-136.5 1601.5,-155.5 1666.5,-155.5 1666.5,-136.5 1601.5,-136.5"/>
<text text-anchor="middle" x="1634" y="-143.5" font-family="Helvetica,sans-Serif" font-size="10.00">TVector3.h</text>
</g>
<!-- Node26&#45;&gt;Node27 -->
<g id="edge30" class="edge"><title>Node26&#45;&gt;Node27</title>
<path fill="none" stroke="midnightblue" d="M1549.18,-198.403C1565.36,-188.601 1592.03,-172.439 1611.14,-160.853"/>
<polygon fill="midnightblue" stroke="midnightblue" points="1613.1,-163.757 1619.84,-155.581 1609.48,-157.77 1613.1,-163.757"/>
</g>
</g>
</svg>
