<?xml version="1.0" encoding="UTF-8" standalone="no"?>
<!DOCTYPE svg PUBLIC "-//W3C//DTD SVG 1.1//EN"
 "http://www.w3.org/Graphics/SVG/1.1/DTD/svg11.dtd">
<!-- Generated by graphviz version 2.36.0 (20140111.2315)
 -->
<!-- Title: /home/travis/build/AliceO2Group/AliceO2/Common/Field/include/Field/MagFieldFact.h Pages: 1 -->
<!--zoomable 422 -->
<svg id="main" version="1.1" xmlns="http://www.w3.org/2000/svg" xmlns:xlink="http://www.w3.org/1999/xlink" xml:space="preserve" onload="init(evt)">
<style type="text/css"><![CDATA[
.edge:hover path { stroke: red; }
.edge:hover polygon { stroke: red; fill: red; }
]]></style>
<script type="text/javascript"><![CDATA[
var edges = document.getElementsByTagName('g');
if (edges && edges.length) {
  for (var i=0;i<edges.length;i++) {
    if (edges[i].id.substr(0,4)=='edge') {
      edges[i].setAttribute('class','edge');
    }
  }
}
]]></script>
        <defs>
                <circle id="rim" cx="0" cy="0" r="7"/>
                <circle id="rim2" cx="0" cy="0" r="3.5"/>
                <g id="zoomPlus">
                        <use xlink:href="#rim" fill="#404040">
                                <set attributeName="fill" to="#808080" begin="zoomplus.mouseover" end="zoomplus.mouseout"/>
                        </use>
                        <path d="M-4,0h8M0,-4v8" fill="none" stroke="white" stroke-width="1.5" pointer-events="none"/>
                </g>
                <g id="zoomMin">
                        <use xlink:href="#rim" fill="#404040">
                                <set attributeName="fill" to="#808080" begin="zoomminus.mouseover" end="zoomminus.mouseout"/>
                        </use>
                        <path d="M-4,0h8" fill="none" stroke="white" stroke-width="1.5" pointer-events="none"/>
                </g>
                <g id="dirArrow">
                        <path fill="none" stroke="white" stroke-width="1.5" d="M0,-3.0v7 M-2.5,-0.5L0,-3.0L2.5,-0.5"/>
                </g>
               <g id="resetDef">
                       <use xlink:href="#rim2" fill="#404040">
                               <set attributeName="fill" to="#808080" begin="reset.mouseover" end="reset.mouseout"/>
                       </use>
               </g>
        </defs>

<script type="text/javascript">
var viewWidth = 1807;
var viewHeight = 422;
var sectionId = 'dynsection-0';
</script>
<script xlink:href="../../svgpan.js"/>
<svg id="graph" class="graph">
<g id="viewport">
<title>/home/travis/build/AliceO2Group/AliceO2/Common/Field/include/Field/MagFieldFact.h</title>
<!-- Node1 -->
<g id="node1" class="node"><title>Node1</title>
<polygon fill="#bfbfbf" stroke="black" points="637.915,-361 637.915,-413 755.915,-413 755.915,-361 637.915,-361"/>
<text text-anchor="start" x="645.915" y="-401" font-family="Helvetica,sans-Serif" font-size="10.00">/home/travis/build</text>
<text text-anchor="start" x="645.915" y="-390" font-family="Helvetica,sans-Serif" font-size="10.00">/AliceO2Group/AliceO2</text>
<text text-anchor="start" x="645.915" y="-379" font-family="Helvetica,sans-Serif" font-size="10.00">/Common/Field/include</text>
<text text-anchor="middle" x="696.915" y="-368" font-family="Helvetica,sans-Serif" font-size="10.00">/Field/MagFieldFact.h</text>
</g>
<!-- Node2 -->
<g id="node2" class="node"><title>Node2</title>
<polygon fill="none" stroke="#bfbfbf" points="528.415,-304.5 528.415,-323.5 623.415,-323.5 623.415,-304.5 528.415,-304.5"/>
<text text-anchor="middle" x="575.915" y="-311.5" font-family="Helvetica,sans-Serif" font-size="10.00">FairFieldFactory.h</text>
</g>
<!-- Node1&#45;&gt;Node2 -->
<g id="edge1" class="edge"><title>Node1&#45;&gt;Node2</title>
<path fill="none" stroke="midnightblue" d="M654.255,-360.968C635.886,-350.19 615.108,-337.997 599.568,-328.879"/>
<polygon fill="midnightblue" stroke="midnightblue" points="601.034,-325.681 590.638,-323.639 597.491,-331.718 601.034,-325.681"/>
</g>
<!-- Node3 -->
<g id="node3" class="node"><title>Node3</title>
<g id="a_node3"><a xlink:href="../../db/d4b/MagneticField_8h.html" target="_top" xlink:title="Definition of the MagF class. ">
<polygon fill="none" stroke="black" points="641.915,-304.5 641.915,-323.5 751.915,-323.5 751.915,-304.5 641.915,-304.5"/>
<text text-anchor="middle" x="696.915" y="-311.5" font-family="Helvetica,sans-Serif" font-size="10.00">Field/MagneticField.h</text>
</a>
</g>
</g>
<!-- Node1&#45;&gt;Node3 -->
<g id="edge2" class="edge"><title>Node1&#45;&gt;Node3</title>
<path fill="none" stroke="midnightblue" d="M696.915,-360.768C696.915,-351.89 696.915,-342.074 696.915,-333.816"/>
<polygon fill="midnightblue" stroke="midnightblue" points="700.415,-333.757 696.915,-323.757 693.415,-333.757 700.415,-333.757"/>
</g>
<!-- Node30 -->
<g id="node30" class="node"><title>Node30</title>
<polygon fill="none" stroke="#bfbfbf" points="865.915,-248.5 865.915,-267.5 917.915,-267.5 917.915,-248.5 865.915,-248.5"/>
<text text-anchor="middle" x="891.915" y="-255.5" font-family="Helvetica,sans-Serif" font-size="10.00">memory</text>
</g>
<!-- Node1&#45;&gt;Node30 -->
<g id="edge42" class="edge"><title>Node1&#45;&gt;Node30</title>
<path fill="none" stroke="midnightblue" d="M735.441,-360.909C775.648,-334.723 837.287,-294.579 869.905,-273.335"/>
<polygon fill="midnightblue" stroke="midnightblue" points="872.198,-276.018 878.668,-267.628 868.378,-270.152 872.198,-276.018"/>
</g>
<!-- Node4 -->
<g id="node4" class="node"><title>Node4</title>
<polygon fill="none" stroke="#bfbfbf" points="747.915,-248.5 747.915,-267.5 809.915,-267.5 809.915,-248.5 747.915,-248.5"/>
<text text-anchor="middle" x="778.915" y="-255.5" font-family="Helvetica,sans-Serif" font-size="10.00">FairField.h</text>
</g>
<!-- Node3&#45;&gt;Node4 -->
<g id="edge3" class="edge"><title>Node3&#45;&gt;Node4</title>
<path fill="none" stroke="midnightblue" d="M710.09,-304.324C722.762,-295.979 742.149,-283.212 757.121,-273.352"/>
<polygon fill="midnightblue" stroke="midnightblue" points="759.347,-276.078 765.773,-267.655 755.497,-270.231 759.347,-276.078"/>
</g>
<!-- Node5 -->
<g id="node5" class="node"><title>Node5</title>
<g id="a_node5"><a xlink:href="../../d3/d91/MagFieldParam_8h.html" target="_top" xlink:title="Definition of the MagFieldParam: container for ALICE mag. field parameters. ">
<polygon fill="none" stroke="black" points="91.4153,-248.5 91.4153,-267.5 208.415,-267.5 208.415,-248.5 91.4153,-248.5"/>
<text text-anchor="middle" x="149.915" y="-255.5" font-family="Helvetica,sans-Serif" font-size="10.00">Field/MagFieldParam.h</text>
</a>
</g>
</g>
<!-- Node3&#45;&gt;Node5 -->
<g id="edge4" class="edge"><title>Node3&#45;&gt;Node5</title>
<path fill="none" stroke="midnightblue" d="M641.618,-305.173C638.337,-304.762 635.084,-304.367 631.915,-304 485.059,-286.986 312.445,-272.107 218.81,-264.462"/>
<polygon fill="midnightblue" stroke="midnightblue" points="218.869,-260.955 208.618,-263.633 218.302,-267.932 218.869,-260.955"/>
</g>
<!-- Node8 -->
<g id="node8" class="node"><title>Node8</title>
<g id="a_node8"><a xlink:href="../../dd/dfb/MagneticWrapperChebyshev_8h.html" target="_top" xlink:title="Field/MagneticWrapperChebyshev.h">
<polygon fill="none" stroke="black" points="363.415,-248.5 363.415,-267.5 538.415,-267.5 538.415,-248.5 363.415,-248.5"/>
<text text-anchor="middle" x="450.915" y="-255.5" font-family="Helvetica,sans-Serif" font-size="10.00">Field/MagneticWrapperChebyshev.h</text>
</a>
</g>
</g>
<!-- Node3&#45;&gt;Node8 -->
<g id="edge7" class="edge"><title>Node3&#45;&gt;Node8</title>
<path fill="none" stroke="midnightblue" d="M657.936,-304.444C615.022,-295.023 545.97,-279.866 499.547,-269.675"/>
<polygon fill="midnightblue" stroke="midnightblue" points="500.23,-266.242 489.712,-267.516 498.729,-273.079 500.23,-266.242"/>
</g>
<!-- Node10 -->
<g id="node10" class="node"><title>Node10</title>
<polygon fill="none" stroke="#bfbfbf" points="219.915,-74.5 219.915,-93.5 281.915,-93.5 281.915,-74.5 219.915,-74.5"/>
<text text-anchor="middle" x="250.915" y="-81.5" font-family="Helvetica,sans-Serif" font-size="10.00">TNamed.h</text>
</g>
<!-- Node3&#45;&gt;Node10 -->
<g id="edge40" class="edge"><title>Node3&#45;&gt;Node10</title>
<path fill="none" stroke="midnightblue" d="M641.63,-305.068C638.346,-304.683 635.089,-304.323 631.915,-304 492.252,-289.779 69.8317,-337.497 6.91529,-212 -34.9212,-128.55 129.394,-98.4939 209.43,-88.9463"/>
<polygon fill="midnightblue" stroke="midnightblue" points="210.134,-92.3889 219.675,-87.7814 209.343,-85.4337 210.134,-92.3889"/>
</g>
<!-- Node15 -->
<g id="node15" class="node"><title>Node15</title>
<polygon fill="none" stroke="#bfbfbf" points="550.915,-74.5 550.915,-93.5 606.915,-93.5 606.915,-74.5 550.915,-74.5"/>
<text text-anchor="middle" x="578.915" y="-81.5" font-family="Helvetica,sans-Serif" font-size="10.00">Rtypes.h</text>
</g>
<!-- Node3&#45;&gt;Node15 -->
<g id="edge39" class="edge"><title>Node3&#45;&gt;Node15</title>
<path fill="none" stroke="midnightblue" d="M686.829,-304.181C677.565,-295.659 663.944,-282.015 654.915,-268 619.263,-212.656 594.444,-137.794 584.185,-103.521"/>
<polygon fill="midnightblue" stroke="midnightblue" points="587.433,-102.158 581.269,-93.5408 580.714,-104.121 587.433,-102.158"/>
</g>
<!-- Node16 -->
<g id="node16" class="node"><title>Node16</title>
<g id="a_node16"><a xlink:href="../../da/df4/MagFieldFast_8h.html" target="_top" xlink:title="Definition of the fast magnetic field parametrization MagFieldFast. ">
<polygon fill="none" stroke="black" points="783.915,-192.5 783.915,-211.5 891.915,-211.5 891.915,-192.5 783.915,-192.5"/>
<text text-anchor="middle" x="837.915" y="-199.5" font-family="Helvetica,sans-Serif" font-size="10.00">Field/MagFieldFast.h</text>
</a>
</g>
</g>
<!-- Node3&#45;&gt;Node16 -->
<g id="edge23" class="edge"><title>Node3&#45;&gt;Node16</title>
<path fill="none" stroke="midnightblue" d="M749.274,-304.471C773.093,-298.106 799.914,-287.068 817.915,-268 829.683,-255.535 834.536,-236.302 836.532,-221.987"/>
<polygon fill="midnightblue" stroke="midnightblue" points="840.04,-222.094 837.598,-211.784 833.078,-221.366 840.04,-222.094"/>
</g>
<!-- Node29 -->
<g id="node29" class="node"><title>Node29</title>
<polygon fill="none" stroke="#bfbfbf" points="664.415,-248.5 664.415,-267.5 729.415,-267.5 729.415,-248.5 664.415,-248.5"/>
<text text-anchor="middle" x="696.915" y="-255.5" font-family="Helvetica,sans-Serif" font-size="10.00">TSystem.h</text>
</g>
<!-- Node3&#45;&gt;Node29 -->
<g id="edge38" class="edge"><title>Node3&#45;&gt;Node29</title>
<path fill="none" stroke="midnightblue" d="M696.915,-304.083C696.915,-297.006 696.915,-286.861 696.915,-277.986"/>
<polygon fill="midnightblue" stroke="midnightblue" points="700.415,-277.751 696.915,-267.751 693.415,-277.751 700.415,-277.751"/>
</g>
<!-- Node3&#45;&gt;Node30 -->
<g id="edge41" class="edge"><title>Node3&#45;&gt;Node30</title>
<path fill="none" stroke="midnightblue" d="M727.814,-304.444C762.661,-294.793 819.253,-279.122 856.029,-268.938"/>
<polygon fill="midnightblue" stroke="midnightblue" points="857.139,-272.262 865.842,-266.22 855.271,-265.516 857.139,-272.262"/>
</g>
<!-- Node6 -->
<g id="node6" class="node"><title>Node6</title>
<polygon fill="none" stroke="#bfbfbf" points="16.4153,-192.5 16.4153,-211.5 121.415,-211.5 121.415,-192.5 16.4153,-192.5"/>
<text text-anchor="middle" x="68.9153" y="-199.5" font-family="Helvetica,sans-Serif" font-size="10.00">FairParGenericSet.h</text>
</g>
<!-- Node5&#45;&gt;Node6 -->
<g id="edge5" class="edge"><title>Node5&#45;&gt;Node6</title>
<path fill="none" stroke="midnightblue" d="M136.901,-248.324C124.384,-239.979 105.234,-227.212 90.4439,-217.352"/>
<polygon fill="midnightblue" stroke="midnightblue" points="92.159,-214.289 81.897,-211.655 88.2761,-220.114 92.159,-214.289"/>
</g>
<!-- Node7 -->
<g id="node7" class="node"><title>Node7</title>
<polygon fill="none" stroke="#bfbfbf" points="103.915,-136.5 103.915,-155.5 159.915,-155.5 159.915,-136.5 103.915,-136.5"/>
<text text-anchor="middle" x="131.915" y="-143.5" font-family="Helvetica,sans-Serif" font-size="10.00">TString.h</text>
</g>
<!-- Node5&#45;&gt;Node7 -->
<g id="edge6" class="edge"><title>Node5&#45;&gt;Node7</title>
<path fill="none" stroke="midnightblue" d="M148.503,-248.368C145.598,-230.617 138.897,-189.666 134.959,-165.597"/>
<polygon fill="midnightblue" stroke="midnightblue" points="138.39,-164.895 133.321,-155.591 131.482,-166.025 138.39,-164.895"/>
</g>
<!-- Node9 -->
<g id="node9" class="node"><title>Node9</title>
<polygon fill="none" stroke="#bfbfbf" points="479.415,-192.5 479.415,-211.5 532.415,-211.5 532.415,-192.5 479.415,-192.5"/>
<text text-anchor="middle" x="505.915" y="-199.5" font-family="Helvetica,sans-Serif" font-size="10.00">TMath.h</text>
</g>
<!-- Node8&#45;&gt;Node9 -->
<g id="edge8" class="edge"><title>Node8&#45;&gt;Node9</title>
<path fill="none" stroke="midnightblue" d="M459.997,-248.083C468.087,-240.141 480.111,-228.335 489.825,-218.797"/>
<polygon fill="midnightblue" stroke="midnightblue" points="492.319,-221.254 497.002,-211.751 487.414,-216.26 492.319,-221.254"/>
</g>
<!-- Node8&#45;&gt;Node10 -->
<g id="edge9" class="edge"><title>Node8&#45;&gt;Node10</title>
<path fill="none" stroke="midnightblue" d="M367.528,-248.418C332.236,-242.086 291.775,-231.091 258.915,-212 223.527,-191.44 192.654,-174.362 206.915,-136 212.009,-122.299 222.619,-109.818 232.143,-100.633"/>
<polygon fill="midnightblue" stroke="midnightblue" points="234.689,-103.049 239.744,-93.738 229.986,-97.8647 234.689,-103.049"/>
</g>
<!-- Node11 -->
<g id="node11" class="node"><title>Node11</title>
<polygon fill="none" stroke="#bfbfbf" points="216.415,-136.5 216.415,-155.5 285.415,-155.5 285.415,-136.5 216.415,-136.5"/>
<text text-anchor="middle" x="250.915" y="-143.5" font-family="Helvetica,sans-Serif" font-size="10.00">TObjArray.h</text>
</g>
<!-- Node8&#45;&gt;Node11 -->
<g id="edge10" class="edge"><title>Node8&#45;&gt;Node11</title>
<path fill="none" stroke="midnightblue" d="M363.262,-250.475C332.965,-244.329 300.69,-232.923 276.915,-212 263.392,-200.099 256.812,-180.19 253.669,-165.535"/>
<polygon fill="midnightblue" stroke="midnightblue" points="257.092,-164.795 251.878,-155.572 250.203,-166.034 257.092,-164.795"/>
</g>
<!-- Node12 -->
<g id="node12" class="node"><title>Node12</title>
<g id="a_node12"><a xlink:href="../../d8/d64/Chebyshev3D_8h.html" target="_top" xlink:title="MathUtils/Chebyshev3D.h">
<polygon fill="none" stroke="black" points="285.915,-192.5 285.915,-211.5 417.915,-211.5 417.915,-192.5 285.915,-192.5"/>
<text text-anchor="middle" x="351.915" y="-199.5" font-family="Helvetica,sans-Serif" font-size="10.00">MathUtils/Chebyshev3D.h</text>
</a>
</g>
</g>
<!-- Node8&#45;&gt;Node12 -->
<g id="edge11" class="edge"><title>Node8&#45;&gt;Node12</title>
<path fill="none" stroke="midnightblue" d="M435.009,-248.324C419.277,-239.743 394.973,-226.486 376.706,-216.522"/>
<polygon fill="midnightblue" stroke="midnightblue" points="378.237,-213.37 367.782,-211.655 374.885,-219.516 378.237,-213.37"/>
</g>
<!-- Node14 -->
<g id="node14" class="node"><title>Node14</title>
<g id="a_node14"><a xlink:href="../../d4/d08/Chebyshev3DCalc_8h.html" target="_top" xlink:title="MathUtils/Chebyshev3DCalc.h">
<polygon fill="none" stroke="black" points="379.915,-136.5 379.915,-155.5 531.915,-155.5 531.915,-136.5 379.915,-136.5"/>
<text text-anchor="middle" x="455.915" y="-143.5" font-family="Helvetica,sans-Serif" font-size="10.00">MathUtils/Chebyshev3DCalc.h</text>
</a>
</g>
</g>
<!-- Node8&#45;&gt;Node14 -->
<g id="edge21" class="edge"><title>Node8&#45;&gt;Node14</title>
<path fill="none" stroke="midnightblue" d="M451.308,-248.368C452.115,-230.617 453.976,-189.666 455.07,-165.597"/>
<polygon fill="midnightblue" stroke="midnightblue" points="458.567,-165.74 455.525,-155.591 451.574,-165.422 458.567,-165.74"/>
</g>
<!-- Node8&#45;&gt;Node15 -->
<g id="edge22" class="edge"><title>Node8&#45;&gt;Node15</title>
<path fill="none" stroke="midnightblue" d="M480.196,-248.391C499.639,-241.361 524.51,-229.665 540.915,-212 569.144,-181.603 576.46,-131.049 578.318,-103.794"/>
<polygon fill="midnightblue" stroke="midnightblue" points="581.82,-103.828 578.825,-93.6659 574.829,-103.478 581.82,-103.828"/>
</g>
<!-- Node12&#45;&gt;Node7 -->
<g id="edge20" class="edge"><title>Node12&#45;&gt;Node7</title>
<path fill="none" stroke="midnightblue" d="M317.056,-192.444C276.957,-182.601 211.341,-166.496 169.951,-156.336"/>
<polygon fill="midnightblue" stroke="midnightblue" points="170.526,-152.873 159.98,-153.889 168.857,-159.672 170.526,-152.873"/>
</g>
<!-- Node12&#45;&gt;Node10 -->
<g id="edge12" class="edge"><title>Node12&#45;&gt;Node10</title>
<path fill="none" stroke="midnightblue" d="M344.324,-192.281C327.498,-172.957 286.848,-126.269 265.139,-101.336"/>
<polygon fill="midnightblue" stroke="midnightblue" points="267.527,-98.7483 258.32,-93.5048 262.247,-103.345 267.527,-98.7483"/>
</g>
<!-- Node12&#45;&gt;Node11 -->
<g id="edge13" class="edge"><title>Node12&#45;&gt;Node11</title>
<path fill="none" stroke="midnightblue" d="M335.688,-192.324C319.564,-183.703 294.615,-170.364 275.951,-160.386"/>
<polygon fill="midnightblue" stroke="midnightblue" points="277.571,-157.283 267.102,-155.655 274.271,-163.456 277.571,-157.283"/>
</g>
<!-- Node13 -->
<g id="node13" class="node"><title>Node13</title>
<polygon fill="none" stroke="#bfbfbf" points="382.415,-74.5 382.415,-93.5 425.415,-93.5 425.415,-74.5 382.415,-74.5"/>
<text text-anchor="middle" x="403.915" y="-81.5" font-family="Helvetica,sans-Serif" font-size="10.00">cstdio</text>
</g>
<!-- Node12&#45;&gt;Node13 -->
<g id="edge14" class="edge"><title>Node12&#45;&gt;Node13</title>
<path fill="none" stroke="midnightblue" d="M353.615,-192.303C356.291,-179.56 362.106,-155.242 370.915,-136 376.438,-123.937 384.501,-111.415 391.275,-101.797"/>
<polygon fill="midnightblue" stroke="midnightblue" points="394.202,-103.723 397.249,-93.5761 388.539,-99.6083 394.202,-103.723"/>
</g>
<!-- Node12&#45;&gt;Node14 -->
<g id="edge15" class="edge"><title>Node12&#45;&gt;Node14</title>
<path fill="none" stroke="midnightblue" d="M368.625,-192.324C385.227,-183.703 410.917,-170.364 430.136,-160.386"/>
<polygon fill="midnightblue" stroke="midnightblue" points="431.985,-163.369 439.247,-155.655 428.76,-157.156 431.985,-163.369"/>
</g>
<!-- Node12&#45;&gt;Node15 -->
<g id="edge19" class="edge"><title>Node12&#45;&gt;Node15</title>
<path fill="none" stroke="midnightblue" d="M418.06,-198.582C457.245,-194.122 505.916,-182.971 540.915,-156 557.831,-142.965 568.089,-120.207 573.612,-103.971"/>
<polygon fill="midnightblue" stroke="midnightblue" points="577.094,-104.559 576.703,-93.9713 570.406,-102.492 577.094,-104.559"/>
</g>
<!-- Node14&#45;&gt;Node10 -->
<g id="edge16" class="edge"><title>Node14&#45;&gt;Node10</title>
<path fill="none" stroke="midnightblue" d="M426.544,-136.403C390.618,-125.889 329.683,-108.054 289.871,-96.4016"/>
<polygon fill="midnightblue" stroke="midnightblue" points="290.813,-93.0306 280.232,-93.5806 288.847,-99.7487 290.813,-93.0306"/>
</g>
<!-- Node14&#45;&gt;Node13 -->
<g id="edge17" class="edge"><title>Node14&#45;&gt;Node13</title>
<path fill="none" stroke="midnightblue" d="M448.465,-136.403C440.588,-127.314 427.97,-112.756 418.171,-101.449"/>
<polygon fill="midnightblue" stroke="midnightblue" points="420.546,-98.8452 411.352,-93.5806 415.256,-103.43 420.546,-98.8452"/>
</g>
<!-- Node14&#45;&gt;Node15 -->
<g id="edge18" class="edge"><title>Node14&#45;&gt;Node15</title>
<path fill="none" stroke="midnightblue" d="M473.538,-136.403C494.089,-126.379 528.279,-109.701 552.122,-98.0699"/>
<polygon fill="midnightblue" stroke="midnightblue" points="553.872,-101.111 561.325,-93.5806 550.803,-94.8192 553.872,-101.111"/>
</g>
<!-- Node16&#45;&gt;Node15 -->
<g id="edge24" class="edge"><title>Node16&#45;&gt;Node15</title>
<path fill="none" stroke="midnightblue" d="M818.87,-192.47C773.78,-172.275 660.305,-121.453 607.176,-97.6574"/>
<polygon fill="midnightblue" stroke="midnightblue" points="608.545,-94.4356 597.988,-93.5423 605.684,-100.824 608.545,-94.4356"/>
</g>
<!-- Node17 -->
<g id="node17" class="node"><title>Node17</title>
<polygon fill="none" stroke="#bfbfbf" points="817.415,-136.5 817.415,-155.5 858.415,-155.5 858.415,-136.5 817.415,-136.5"/>
<text text-anchor="middle" x="837.915" y="-143.5" font-family="Helvetica,sans-Serif" font-size="10.00">string</text>
</g>
<!-- Node16&#45;&gt;Node17 -->
<g id="edge25" class="edge"><title>Node16&#45;&gt;Node17</title>
<path fill="none" stroke="midnightblue" d="M837.915,-192.083C837.915,-185.006 837.915,-174.861 837.915,-165.986"/>
<polygon fill="midnightblue" stroke="midnightblue" points="841.415,-165.751 837.915,-155.751 834.415,-165.751 841.415,-165.751"/>
</g>
<!-- Node18 -->
<g id="node18" class="node"><title>Node18</title>
<g id="a_node18"><a xlink:href="../../dd/d76/Cartesian3D_8h.html" target="_top" xlink:title="MathUtils/Cartesian3D.h">
<polygon fill="none" stroke="black" points="959.415,-136.5 959.415,-155.5 1084.42,-155.5 1084.42,-136.5 959.415,-136.5"/>
<text text-anchor="middle" x="1021.92" y="-143.5" font-family="Helvetica,sans-Serif" font-size="10.00">MathUtils/Cartesian3D.h</text>
</a>
</g>
</g>
<!-- Node16&#45;&gt;Node18 -->
<g id="edge26" class="edge"><title>Node16&#45;&gt;Node18</title>
<path fill="none" stroke="midnightblue" d="M867.071,-192.444C898.429,-183.241 948.446,-168.562 983.112,-158.388"/>
<polygon fill="midnightblue" stroke="midnightblue" points="984.287,-161.691 992.896,-155.516 982.315,-154.974 984.287,-161.691"/>
</g>
<!-- Node18&#45;&gt;Node15 -->
<g id="edge30" class="edge"><title>Node18&#45;&gt;Node15</title>
<path fill="none" stroke="midnightblue" d="M959.264,-140.263C861.788,-132.524 678.417,-116.381 614.915,-100 611.93,-99.23 608.868,-98.2593 605.851,-97.1839"/>
<polygon fill="midnightblue" stroke="midnightblue" points="607.102,-93.9149 596.515,-93.5081 604.537,-100.428 607.102,-93.9149"/>
</g>
<!-- Node19 -->
<g id="node19" class="node"><title>Node19</title>
<polygon fill="none" stroke="#bfbfbf" points="839.415,-74.5 839.415,-93.5 988.415,-93.5 988.415,-74.5 839.415,-74.5"/>
<text text-anchor="middle" x="913.915" y="-81.5" font-family="Helvetica,sans-Serif" font-size="10.00">Math/GenVector/Rotation3D.h</text>
</g>
<!-- Node18&#45;&gt;Node19 -->
<g id="edge27" class="edge"><title>Node18&#45;&gt;Node19</title>
<path fill="none" stroke="midnightblue" d="M1006.44,-136.403C988.637,-126.512 959.175,-110.144 938.283,-98.5378"/>
<polygon fill="midnightblue" stroke="midnightblue" points="939.802,-95.3775 929.36,-93.5806 936.402,-101.497 939.802,-95.3775"/>
</g>
<!-- Node20 -->
<g id="node20" class="node"><title>Node20</title>
<polygon fill="none" stroke="#bfbfbf" points="1006.92,-74.5 1006.92,-93.5 1162.92,-93.5 1162.92,-74.5 1006.92,-74.5"/>
<text text-anchor="middle" x="1084.92" y="-81.5" font-family="Helvetica,sans-Serif" font-size="10.00">Math/GenVector/Transform3D.h</text>
</g>
<!-- Node18&#45;&gt;Node20 -->
<g id="edge28" class="edge"><title>Node18&#45;&gt;Node20</title>
<path fill="none" stroke="midnightblue" d="M1030.94,-136.403C1040.67,-127.136 1056.37,-112.183 1068.34,-100.788"/>
<polygon fill="midnightblue" stroke="midnightblue" points="1071.08,-103.012 1075.91,-93.5806 1066.25,-97.9427 1071.08,-103.012"/>
</g>
<!-- Node21 -->
<g id="node21" class="node"><title>Node21</title>
<polygon fill="none" stroke="#bfbfbf" points="1180.92,-74.5 1180.92,-93.5 1340.92,-93.5 1340.92,-74.5 1180.92,-74.5"/>
<text text-anchor="middle" x="1260.92" y="-81.5" font-family="Helvetica,sans-Serif" font-size="10.00">Math/GenVector/Translation3D.h</text>
</g>
<!-- Node18&#45;&gt;Node21 -->
<g id="edge29" class="edge"><title>Node18&#45;&gt;Node21</title>
<path fill="none" stroke="midnightblue" d="M1055.9,-136.467C1098.29,-125.827 1170.81,-107.622 1217.26,-95.9593"/>
<polygon fill="midnightblue" stroke="midnightblue" points="1218.2,-99.333 1227.04,-93.5034 1216.49,-92.5437 1218.2,-99.333"/>
</g>
<!-- Node22 -->
<g id="node22" class="node"><title>Node22</title>
<polygon fill="none" stroke="#bfbfbf" points="1358.92,-74.5 1358.92,-93.5 1434.92,-93.5 1434.92,-74.5 1358.92,-74.5"/>
<text text-anchor="middle" x="1396.92" y="-81.5" font-family="Helvetica,sans-Serif" font-size="10.00">TGeoMatrix.h</text>
</g>
<!-- Node18&#45;&gt;Node22 -->
<g id="edge31" class="edge"><title>Node18&#45;&gt;Node22</title>
<path fill="none" stroke="midnightblue" d="M1084.45,-139.659C1150.88,-133.235 1258.68,-120.655 1349.92,-100 1354.14,-99.0426 1358.54,-97.8772 1362.87,-96.6236"/>
<polygon fill="midnightblue" stroke="midnightblue" points="1364.21,-99.8736 1372.74,-93.5947 1362.15,-93.1814 1364.21,-99.8736"/>
</g>
<!-- Node23 -->
<g id="node23" class="node"><title>Node23</title>
<polygon fill="none" stroke="#bfbfbf" points="1453.42,-69 1453.42,-99 1604.42,-99 1604.42,-69 1453.42,-69"/>
<text text-anchor="start" x="1461.42" y="-87" font-family="Helvetica,sans-Serif" font-size="10.00">Math/GenVector/Displacement</text>
<text text-anchor="middle" x="1528.92" y="-76" font-family="Helvetica,sans-Serif" font-size="10.00">Vector3D.h</text>
</g>
<!-- Node18&#45;&gt;Node23 -->
<g id="edge32" class="edge"><title>Node18&#45;&gt;Node23</title>
<path fill="none" stroke="midnightblue" d="M1084.64,-139.663C1165.2,-132.507 1309.53,-118.67 1443.39,-100.01"/>
<polygon fill="midnightblue" stroke="midnightblue" points="1444,-103.458 1453.41,-98.6001 1443.02,-96.5265 1444,-103.458"/>
</g>
<!-- Node24 -->
<g id="node24" class="node"><title>Node24</title>
<polygon fill="none" stroke="#bfbfbf" points="1622.92,-74.5 1622.92,-93.5 1798.92,-93.5 1798.92,-74.5 1622.92,-74.5"/>
<text text-anchor="middle" x="1710.92" y="-81.5" font-family="Helvetica,sans-Serif" font-size="10.00">Math/GenVector/PositionVector3D.h</text>
</g>
<!-- Node18&#45;&gt;Node24 -->
<g id="edge33" class="edge"><title>Node18&#45;&gt;Node24</title>
<path fill="none" stroke="midnightblue" d="M1084.61,-141.794C1192.69,-135.916 1420.97,-121.965 1612.92,-100 1624.94,-98.6241 1637.75,-96.8724 1650.01,-95.0552"/>
<polygon fill="midnightblue" stroke="midnightblue" points="1650.79,-98.4777 1660.15,-93.5201 1649.74,-91.5566 1650.79,-98.4777"/>
</g>
<!-- Node25 -->
<g id="node25" class="node"><title>Node25</title>
<g id="a_node25"><a xlink:href="../../d2/dd0/Cartesian2D_8h.html" target="_top" xlink:title="MathUtils/Cartesian2D.h">
<polygon fill="none" stroke="black" points="624.415,-74.5 624.415,-93.5 749.415,-93.5 749.415,-74.5 624.415,-74.5"/>
<text text-anchor="middle" x="686.915" y="-81.5" font-family="Helvetica,sans-Serif" font-size="10.00">MathUtils/Cartesian2D.h</text>
</a>
</g>
</g>
<!-- Node18&#45;&gt;Node25 -->
<g id="edge34" class="edge"><title>Node18&#45;&gt;Node25</title>
<path fill="none" stroke="midnightblue" d="M968.671,-136.466C915.472,-127.804 831.393,-113.746 758.915,-100 751.588,-98.6104 743.857,-97.0741 736.287,-95.5304"/>
<polygon fill="midnightblue" stroke="midnightblue" points="736.977,-92.0991 726.476,-93.5084 735.564,-98.955 736.977,-92.0991"/>
</g>
<!-- Node28 -->
<g id="node28" class="node"><title>Node28</title>
<polygon fill="none" stroke="#bfbfbf" points="767.915,-74.5 767.915,-93.5 821.915,-93.5 821.915,-74.5 767.915,-74.5"/>
<text text-anchor="middle" x="794.915" y="-81.5" font-family="Helvetica,sans-Serif" font-size="10.00">iostream</text>
</g>
<!-- Node18&#45;&gt;Node28 -->
<g id="edge37" class="edge"><title>Node18&#45;&gt;Node28</title>
<path fill="none" stroke="midnightblue" d="M976.578,-136.495C937.514,-128.653 879.857,-115.844 830.915,-100 828.347,-99.1684 825.705,-98.232 823.075,-97.2436"/>
<polygon fill="midnightblue" stroke="midnightblue" points="824.34,-93.9799 813.754,-93.5302 821.749,-100.483 824.34,-93.9799"/>
</g>
<!-- Node26 -->
<g id="node26" class="node"><title>Node26</title>
<polygon fill="none" stroke="#bfbfbf" points="520.415,-1 520.415,-31 671.415,-31 671.415,-1 520.415,-1"/>
<text text-anchor="start" x="528.415" y="-19" font-family="Helvetica,sans-Serif" font-size="10.00">Math/GenVector/Displacement</text>
<text text-anchor="middle" x="595.915" y="-8" font-family="Helvetica,sans-Serif" font-size="10.00">Vector2D.h</text>
</g>
<!-- Node25&#45;&gt;Node26 -->
<g id="edge35" class="edge"><title>Node25&#45;&gt;Node26</title>
<path fill="none" stroke="midnightblue" d="M675.019,-74.3717C662.137,-65.0286 641.135,-49.7966 624.008,-37.375"/>
<polygon fill="midnightblue" stroke="midnightblue" points="625.618,-34.2194 615.469,-31.1815 621.509,-39.8859 625.618,-34.2194"/>
</g>
<!-- Node27 -->
<g id="node27" class="node"><title>Node27</title>
<polygon fill="none" stroke="#bfbfbf" points="689.915,-6.5 689.915,-25.5 865.915,-25.5 865.915,-6.5 689.915,-6.5"/>
<text text-anchor="middle" x="777.915" y="-13.5" font-family="Helvetica,sans-Serif" font-size="10.00">Math/GenVector/PositionVector2D.h</text>
</g>
<!-- Node25&#45;&gt;Node27 -->
<g id="edge36" class="edge"><title>Node25&#45;&gt;Node27</title>
<path fill="none" stroke="midnightblue" d="M698.812,-74.3717C713.8,-63.5015 739.778,-44.6602 757.857,-31.5474"/>
<polygon fill="midnightblue" stroke="midnightblue" points="759.976,-34.3349 766.016,-25.6305 755.866,-28.6684 759.976,-34.3349"/>
</g>
</g>
</svg>
        <g id="navigator" transform="translate(0 0)" fill="#404254">
                <rect fill="#f2f5e9" fill-opacity="0.5" stroke="#606060" stroke-width=".5" x="0" y="0" width="60" height="60"/>
                <use id="zoomplus" xlink:href="#zoomPlus" x="17" y="9" onmousedown="handleZoom(evt,'in')"/>
                <use id="zoomminus" xlink:href="#zoomMin" x="42" y="9" onmousedown="handleZoom(evt,'out')"/>
                <use id="reset" xlink:href="#resetDef" x="30" y="36" onmousedown="handleReset()"/>
                <g id="arrowUp" xlink:href="#dirArrow" transform="translate(30 24)" onmousedown="handlePan(0,-1)">
                  <use xlink:href="#rim" fill="#404040">
                        <set attributeName="fill" to="#808080" begin="arrowUp.mouseover" end="arrowUp.mouseout"/>
                  </use>
                  <path fill="none" stroke="white" stroke-width="1.5" d="M0,-3.0v7 M-2.5,-0.5L0,-3.0L2.5,-0.5"/>
                </g>
                <g id="arrowRight" xlink:href="#dirArrow" transform="rotate(90) translate(36 -43)" onmousedown="handlePan(1,0)">
                  <use xlink:href="#rim" fill="#404040">
                        <set attributeName="fill" to="#808080" begin="arrowRight.mouseover" end="arrowRight.mouseout"/>
                  </use>
                  <path fill="none" stroke="white" stroke-width="1.5" d="M0,-3.0v7 M-2.5,-0.5L0,-3.0L2.5,-0.5"/>
                </g>
                <g id="arrowDown" xlink:href="#dirArrow" transform="rotate(180) translate(-30 -48)" onmousedown="handlePan(0,1)">
                  <use xlink:href="#rim" fill="#404040">
                        <set attributeName="fill" to="#808080" begin="arrowDown.mouseover" end="arrowDown.mouseout"/>
                  </use>
                  <path fill="none" stroke="white" stroke-width="1.5" d="M0,-3.0v7 M-2.5,-0.5L0,-3.0L2.5,-0.5"/>
                </g>
                <g id="arrowLeft" xlink:href="#dirArrow" transform="rotate(270) translate(-36 17)" onmousedown="handlePan(-1,0)">
                  <use xlink:href="#rim" fill="#404040">
                        <set attributeName="fill" to="#808080" begin="arrowLeft.mouseover" end="arrowLeft.mouseout"/>
                  </use>
                  <path fill="none" stroke="white" stroke-width="1.5" d="M0,-3.0v7 M-2.5,-0.5L0,-3.0L2.5,-0.5"/>
                </g>
        </g>
        <svg viewBox="0 0 15 15" width="100%" height="30px" preserveAspectRatio="xMaxYMin meet">
         <g id="arrow_out" transform="scale(0.3 0.3)">
          <a xlink:href="MagFieldFact_8h__incl_org.svg" target="_base">
           <rect id="button" ry="5" rx="5" y="6" x="6" height="38" width="38"
                fill="#f2f5e9" fill-opacity="0.5" stroke="#606060" stroke-width="1.0"/>
           <path id="arrow"
             d="M 11.500037,31.436501 C 11.940474,20.09759 22.043105,11.32322 32.158766,21.979434 L 37.068811,17.246167 C 37.068811,17.246167 37.088388,32 37.088388,32 L 22.160133,31.978069 C 22.160133,31.978069 26.997745,27.140456 26.997745,27.140456 C 18.528582,18.264221 13.291696,25.230495 11.500037,31.436501 z"
             style="fill:#404040;"/>
          </a>
         </g>
        </svg>
</svg>
