<?xml version="1.0" encoding="UTF-8" standalone="no"?>
<!DOCTYPE svg PUBLIC "-//W3C//DTD SVG 1.1//EN"
 "http://www.w3.org/Graphics/SVG/1.1/DTD/svg11.dtd">
<!-- Generated by graphviz version 2.36.0 (20140111.2315)
 -->
<!-- Title: /home/travis/build/AliceO2Group/AliceO2/DataFormats/TPC/test/ClusterNative.cxx Pages: 1 -->
<svg width="461pt" height="186pt"
 viewBox="0.00 0.00 461.00 186.00" xmlns="http://www.w3.org/2000/svg" xmlns:xlink="http://www.w3.org/1999/xlink">
<g id="graph0" class="graph" transform="scale(1 1) rotate(0) translate(4 182)">
<title>/home/travis/build/AliceO2Group/AliceO2/DataFormats/TPC/test/ClusterNative.cxx</title>
<!-- Node1 -->
<g id="node1" class="node"><title>Node1</title>
<polygon fill="#bfbfbf" stroke="black" points="139.5,-125 139.5,-177 258.5,-177 258.5,-125 139.5,-125"/>
<text text-anchor="start" x="147.5" y="-165" font-family="Helvetica,sans-Serif" font-size="10.00">/home/travis/build</text>
<text text-anchor="start" x="147.5" y="-154" font-family="Helvetica,sans-Serif" font-size="10.00">/AliceO2Group/AliceO2</text>
<text text-anchor="start" x="147.5" y="-143" font-family="Helvetica,sans-Serif" font-size="10.00">/DataFormats/TPC/test</text>
<text text-anchor="middle" x="199" y="-132" font-family="Helvetica,sans-Serif" font-size="10.00">/ClusterNative.cxx</text>
</g>
<!-- Node2 -->
<g id="node2" class="node"><title>Node2</title>
<polygon fill="none" stroke="#bfbfbf" points="-0.5,-62.5 -0.5,-81.5 118.5,-81.5 118.5,-62.5 -0.5,-62.5"/>
<text text-anchor="middle" x="59" y="-69.5" font-family="Helvetica,sans-Serif" font-size="10.00">boost/test/unit_test.hpp</text>
</g>
<!-- Node1&#45;&gt;Node2 -->
<g id="edge1" class="edge"><title>Node1&#45;&gt;Node2</title>
<path fill="none" stroke="midnightblue" d="M153.159,-124.787C129.964,-112.03 102.735,-97.0545 83.5416,-86.4979"/>
<polygon fill="midnightblue" stroke="midnightblue" points="85.0084,-83.3102 74.5595,-81.5577 81.6349,-89.4437 85.0084,-83.3102"/>
</g>
<!-- Node3 -->
<g id="node3" class="node"><title>Node3</title>
<polygon fill="none" stroke="#bfbfbf" points="137,-62.5 137,-81.5 191,-81.5 191,-62.5 137,-62.5"/>
<text text-anchor="middle" x="164" y="-69.5" font-family="Helvetica,sans-Serif" font-size="10.00">iostream</text>
</g>
<!-- Node1&#45;&gt;Node3 -->
<g id="edge2" class="edge"><title>Node1&#45;&gt;Node3</title>
<path fill="none" stroke="midnightblue" d="M187.54,-124.787C182.509,-113.719 176.719,-100.982 172.14,-90.9087"/>
<polygon fill="midnightblue" stroke="midnightblue" points="175.214,-89.2131 167.89,-81.5577 168.842,-92.1097 175.214,-89.2131"/>
</g>
<!-- Node4 -->
<g id="node4" class="node"><title>Node4</title>
<polygon fill="none" stroke="#bfbfbf" points="209,-62.5 209,-81.5 259,-81.5 259,-62.5 209,-62.5"/>
<text text-anchor="middle" x="234" y="-69.5" font-family="Helvetica,sans-Serif" font-size="10.00">iomanip</text>
</g>
<!-- Node1&#45;&gt;Node4 -->
<g id="edge3" class="edge"><title>Node1&#45;&gt;Node4</title>
<path fill="none" stroke="midnightblue" d="M210.46,-124.787C215.491,-113.719 221.281,-100.982 225.86,-90.9087"/>
<polygon fill="midnightblue" stroke="midnightblue" points="229.158,-92.1097 230.11,-81.5577 222.786,-89.2131 229.158,-92.1097"/>
</g>
<!-- Node5 -->
<g id="node5" class="node"><title>Node5</title>
<g id="a_node5"><a xlink:href="../../de/dcd/ClusterNative_8h.html" target="_top" xlink:title="Class of a TPC cluster in TPC&#45;native coordinates (row, time) ">
<polygon fill="none" stroke="black" points="277.5,-57 277.5,-87 414.5,-87 414.5,-57 277.5,-57"/>
<text text-anchor="start" x="285.5" y="-75" font-family="Helvetica,sans-Serif" font-size="10.00">../include/DataFormatsTPC</text>
<text text-anchor="middle" x="346" y="-64" font-family="Helvetica,sans-Serif" font-size="10.00">/ClusterNative.h</text>
</a>
</g>
</g>
<!-- Node1&#45;&gt;Node5 -->
<g id="edge4" class="edge"><title>Node1&#45;&gt;Node5</title>
<path fill="none" stroke="midnightblue" d="M247.133,-124.787C267.713,-114.007 291.318,-101.643 310.3,-91.6999"/>
<polygon fill="midnightblue" stroke="midnightblue" points="311.98,-94.7712 319.214,-87.0307 308.732,-88.5704 311.98,-94.7712"/>
</g>
<!-- Node6 -->
<g id="node6" class="node"><title>Node6</title>
<polygon fill="none" stroke="#bfbfbf" points="275,-0.5 275,-19.5 319,-19.5 319,-0.5 275,-0.5"/>
<text text-anchor="middle" x="297" y="-7.5" font-family="Helvetica,sans-Serif" font-size="10.00">vector</text>
</g>
<!-- Node5&#45;&gt;Node6 -->
<g id="edge5" class="edge"><title>Node5&#45;&gt;Node6</title>
<path fill="none" stroke="midnightblue" d="M334.388,-56.7808C327.267,-48.0621 318.117,-36.8574 310.651,-27.7153"/>
<polygon fill="midnightblue" stroke="midnightblue" points="313.166,-25.262 304.13,-19.7305 307.744,-29.6898 313.166,-25.262"/>
</g>
<!-- Node7 -->
<g id="node7" class="node"><title>Node7</title>
<g id="a_node7"><a xlink:href="../../d6/d51/TPC_2base_2include_2TPCBase_2Constants_8h.html" target="_top" xlink:title="TPCBase/Constants.h">
<polygon fill="none" stroke="black" points="337,-0.5 337,-19.5 453,-19.5 453,-0.5 337,-0.5"/>
<text text-anchor="middle" x="395" y="-7.5" font-family="Helvetica,sans-Serif" font-size="10.00">TPCBase/Constants.h</text>
</a>
</g>
</g>
<!-- Node5&#45;&gt;Node7 -->
<g id="edge6" class="edge"><title>Node5&#45;&gt;Node7</title>
<path fill="none" stroke="midnightblue" d="M357.612,-56.7808C364.733,-48.0621 373.883,-36.8574 381.349,-27.7153"/>
<polygon fill="midnightblue" stroke="midnightblue" points="384.256,-29.6898 387.87,-19.7305 378.834,-25.262 384.256,-29.6898"/>
</g>
</g>
</svg>
