<?xml version="1.0" encoding="UTF-8" standalone="no"?>
<!DOCTYPE svg PUBLIC "-//W3C//DTD SVG 1.1//EN"
 "http://www.w3.org/Graphics/SVG/1.1/DTD/svg11.dtd">
<!-- Generated by graphviz version 2.36.0 (20140111.2315)
 -->
<!-- Title: /home/travis/build/AliceO2Group/AliceO2/DataFormats/simulation/src/Stack.cxx Pages: 1 -->
<!--zoomable 390 -->
<svg id="main" version="1.1" xmlns="http://www.w3.org/2000/svg" xmlns:xlink="http://www.w3.org/1999/xlink" xml:space="preserve" onload="init(evt)">
<style type="text/css"><![CDATA[
.edge:hover path { stroke: red; }
.edge:hover polygon { stroke: red; fill: red; }
]]></style>
<script type="text/javascript"><![CDATA[
var edges = document.getElementsByTagName('g');
if (edges && edges.length) {
  for (var i=0;i<edges.length;i++) {
    if (edges[i].id.substr(0,4)=='edge') {
      edges[i].setAttribute('class','edge');
    }
  }
}
]]></script>
        <defs>
                <circle id="rim" cx="0" cy="0" r="7"/>
                <circle id="rim2" cx="0" cy="0" r="3.5"/>
                <g id="zoomPlus">
                        <use xlink:href="#rim" fill="#404040">
                                <set attributeName="fill" to="#808080" begin="zoomplus.mouseover" end="zoomplus.mouseout"/>
                        </use>
                        <path d="M-4,0h8M0,-4v8" fill="none" stroke="white" stroke-width="1.5" pointer-events="none"/>
                </g>
                <g id="zoomMin">
                        <use xlink:href="#rim" fill="#404040">
                                <set attributeName="fill" to="#808080" begin="zoomminus.mouseover" end="zoomminus.mouseout"/>
                        </use>
                        <path d="M-4,0h8" fill="none" stroke="white" stroke-width="1.5" pointer-events="none"/>
                </g>
                <g id="dirArrow">
                        <path fill="none" stroke="white" stroke-width="1.5" d="M0,-3.0v7 M-2.5,-0.5L0,-3.0L2.5,-0.5"/>
                </g>
               <g id="resetDef">
                       <use xlink:href="#rim2" fill="#404040">
                               <set attributeName="fill" to="#808080" begin="reset.mouseover" end="reset.mouseout"/>
                       </use>
               </g>
        </defs>

<script type="text/javascript">
var viewWidth = 2899;
var viewHeight = 390;
var sectionId = 'dynsection-0';
</script>
<script xlink:href="../../svgpan.js"/>
<svg id="graph" class="graph">
<g id="viewport">
<title>/home/travis/build/AliceO2Group/AliceO2/DataFormats/simulation/src/Stack.cxx</title>
<!-- Node1 -->
<g id="node1" class="node"><title>Node1</title>
<polygon fill="#bfbfbf" stroke="black" points="1459.03,-329 1459.03,-381 1583.03,-381 1583.03,-329 1459.03,-329"/>
<text text-anchor="start" x="1467.03" y="-369" font-family="Helvetica,sans-Serif" font-size="10.00">/home/travis/build</text>
<text text-anchor="start" x="1467.03" y="-358" font-family="Helvetica,sans-Serif" font-size="10.00">/AliceO2Group/AliceO2</text>
<text text-anchor="start" x="1467.03" y="-347" font-family="Helvetica,sans-Serif" font-size="10.00">/DataFormats/simulation</text>
<text text-anchor="middle" x="1521.03" y="-336" font-family="Helvetica,sans-Serif" font-size="10.00">/src/Stack.cxx</text>
</g>
<!-- Node2 -->
<g id="node2" class="node"><title>Node2</title>
<g id="a_node2"><a xlink:href="../../d6/d31/DetID_8h.html" target="_top" xlink:title="DetectorsBase/DetID.h">
<polygon fill="none" stroke="black" points="104.531,-130.5 104.531,-149.5 223.531,-149.5 223.531,-130.5 104.531,-130.5"/>
<text text-anchor="middle" x="164.031" y="-137.5" font-family="Helvetica,sans-Serif" font-size="10.00">DetectorsBase/DetID.h</text>
</a>
</g>
</g>
<!-- Node1&#45;&gt;Node2 -->
<g id="edge1" class="edge"><title>Node1&#45;&gt;Node2</title>
<path fill="none" stroke="midnightblue" d="M1459.01,-352.773C1249.15,-348.299 566.83,-331.039 351.031,-292 251.994,-274.084 194.561,-305.151 135.031,-224 120.27,-203.877 136.193,-175.602 149.627,-157.796"/>
<polygon fill="midnightblue" stroke="midnightblue" points="152.724,-159.529 156.25,-149.538 147.263,-155.15 152.724,-159.529"/>
</g>
<!-- Node12 -->
<g id="node12" class="node"><title>Node12</title>
<g id="a_node12"><a xlink:href="../../d1/d3a/Base_2include_2DetectorsBase_2Detector_8h.html" target="_top" xlink:title="DetectorsBase/Detector.h">
<polygon fill="none" stroke="black" points="499.531,-266.5 499.531,-285.5 630.531,-285.5 630.531,-266.5 499.531,-266.5"/>
<text text-anchor="middle" x="565.031" y="-273.5" font-family="Helvetica,sans-Serif" font-size="10.00">DetectorsBase/Detector.h</text>
</a>
</g>
</g>
<!-- Node1&#45;&gt;Node12 -->
<g id="edge12" class="edge"><title>Node1&#45;&gt;Node12</title>
<path fill="none" stroke="midnightblue" d="M1458.67,-348.978C1289.82,-335.377 824.087,-297.865 640.673,-283.092"/>
<polygon fill="midnightblue" stroke="midnightblue" points="640.826,-279.594 630.577,-282.279 640.263,-286.571 640.826,-279.594"/>
</g>
<!-- Node16 -->
<g id="node16" class="node"><title>Node16</title>
<polygon fill="none" stroke="#bfbfbf" points="144.531,-198.5 144.531,-217.5 223.531,-217.5 223.531,-198.5 144.531,-198.5"/>
<text text-anchor="middle" x="184.031" y="-205.5" font-family="Helvetica,sans-Serif" font-size="10.00">FairDetector.h</text>
</g>
<!-- Node1&#45;&gt;Node16 -->
<g id="edge46" class="edge"><title>Node1&#45;&gt;Node16</title>
<path fill="none" stroke="midnightblue" d="M1458.96,-354.645C1297.87,-355.374 853.712,-351.368 490.031,-292 389.536,-275.595 274.498,-239.56 218.408,-220.83"/>
<polygon fill="midnightblue" stroke="midnightblue" points="219.232,-217.414 208.638,-217.543 216.999,-224.049 219.232,-217.414"/>
</g>
<!-- Node17 -->
<g id="node17" class="node"><title>Node17</title>
<polygon fill="none" stroke="#bfbfbf" points="801.031,-198.5 801.031,-217.5 901.031,-217.5 901.031,-198.5 801.031,-198.5"/>
<text text-anchor="middle" x="851.031" y="-205.5" font-family="Helvetica,sans-Serif" font-size="10.00">FairRootManager.h</text>
</g>
<!-- Node1&#45;&gt;Node17 -->
<g id="edge61" class="edge"><title>Node1&#45;&gt;Node17</title>
<path fill="none" stroke="midnightblue" d="M1458.79,-345.586C1384.95,-335.141 1258.34,-315.768 1151.03,-292 1055.17,-270.767 944.263,-237.865 887.956,-220.553"/>
<polygon fill="midnightblue" stroke="midnightblue" points="888.681,-217.114 878.094,-217.508 886.616,-223.802 888.681,-217.114"/>
</g>
<!-- Node22 -->
<g id="node22" class="node"><title>Node22</title>
<g id="a_node22"><a xlink:href="../../dc/db6/Stack_8h.html" target="_top" xlink:title="Definition of the Stack class. ">
<polygon fill="none" stroke="black" points="1160.03,-261 1160.03,-291 1274.03,-291 1274.03,-261 1160.03,-261"/>
<text text-anchor="start" x="1168.03" y="-279" font-family="Helvetica,sans-Serif" font-size="10.00">SimulationDataFormat</text>
<text text-anchor="middle" x="1217.03" y="-268" font-family="Helvetica,sans-Serif" font-size="10.00">/Stack.h</text>
</a>
</g>
</g>
<!-- Node1&#45;&gt;Node22 -->
<g id="edge26" class="edge"><title>Node1&#45;&gt;Node22</title>
<path fill="none" stroke="midnightblue" d="M1458.78,-338.232C1407.29,-325.191 1334.4,-306.728 1282.14,-293.492"/>
<polygon fill="midnightblue" stroke="midnightblue" points="1282.86,-290.063 1272.31,-291 1281.14,-296.849 1282.86,-290.063"/>
</g>
<!-- Node24 -->
<g id="node24" class="node"><title>Node24</title>
<g id="a_node24"><a xlink:href="../../d2/de2/MCTrack_8h.html" target="_top" xlink:title="Definition of the MCTrack class. ">
<polygon fill="none" stroke="black" points="1223.03,-193 1223.03,-223 1337.03,-223 1337.03,-193 1223.03,-193"/>
<text text-anchor="start" x="1231.03" y="-211" font-family="Helvetica,sans-Serif" font-size="10.00">SimulationDataFormat</text>
<text text-anchor="middle" x="1280.03" y="-200" font-family="Helvetica,sans-Serif" font-size="10.00">/MCTrack.h</text>
</a>
</g>
</g>
<!-- Node1&#45;&gt;Node24 -->
<g id="edge45" class="edge"><title>Node1&#45;&gt;Node24</title>
<path fill="none" stroke="midnightblue" d="M1479.33,-328.908C1431.78,-300.304 1355.1,-254.166 1312.03,-228.254"/>
<polygon fill="midnightblue" stroke="midnightblue" points="1313.75,-225.201 1303.37,-223.045 1310.14,-231.199 1313.75,-225.201"/>
</g>
<!-- Node25 -->
<g id="node25" class="node"><title>Node25</title>
<polygon fill="none" stroke="#bfbfbf" points="1443.03,-130.5 1443.03,-149.5 1535.03,-149.5 1535.03,-130.5 1443.03,-130.5"/>
<text text-anchor="middle" x="1489.03" y="-137.5" font-family="Helvetica,sans-Serif" font-size="10.00">TLorentzVector.h</text>
</g>
<!-- Node1&#45;&gt;Node25 -->
<g id="edge62" class="edge"><title>Node1&#45;&gt;Node25</title>
<path fill="none" stroke="midnightblue" d="M1519.13,-328.868C1516.46,-296.888 1510.93,-240.031 1502.03,-192 1500,-181.033 1496.95,-168.93 1494.31,-159.267"/>
<polygon fill="midnightblue" stroke="midnightblue" points="1497.67,-158.264 1491.59,-149.585 1490.93,-160.159 1497.67,-158.264"/>
</g>
<!-- Node29 -->
<g id="node29" class="node"><title>Node29</title>
<polygon fill="none" stroke="#bfbfbf" points="1553.03,-130.5 1553.03,-149.5 1617.03,-149.5 1617.03,-130.5 1553.03,-130.5"/>
<text text-anchor="middle" x="1585.03" y="-137.5" font-family="Helvetica,sans-Serif" font-size="10.00">TParticle.h</text>
</g>
<!-- Node1&#45;&gt;Node29 -->
<g id="edge63" class="edge"><title>Node1&#45;&gt;Node29</title>
<path fill="none" stroke="midnightblue" d="M1528.62,-328.73C1541.64,-285.401 1567.93,-197.909 1579.43,-159.636"/>
<polygon fill="midnightblue" stroke="midnightblue" points="1582.85,-160.415 1582.38,-149.831 1576.15,-158.401 1582.85,-160.415"/>
</g>
<!-- Node34 -->
<g id="node34" class="node"><title>Node34</title>
<polygon fill="none" stroke="#bfbfbf" points="1587.53,-266.5 1587.53,-285.5 1658.53,-285.5 1658.53,-266.5 1587.53,-266.5"/>
<text text-anchor="middle" x="1623.03" y="-273.5" font-family="Helvetica,sans-Serif" font-size="10.00">FairLogger.h</text>
</g>
<!-- Node1&#45;&gt;Node34 -->
<g id="edge47" class="edge"><title>Node1&#45;&gt;Node34</title>
<path fill="none" stroke="midnightblue" d="M1554.43,-328.787C1570.63,-316.554 1589.54,-302.282 1603.4,-291.821"/>
<polygon fill="midnightblue" stroke="midnightblue" points="1605.82,-294.376 1611.69,-285.558 1601.6,-288.789 1605.82,-294.376"/>
</g>
<!-- Node35 -->
<g id="node35" class="node"><title>Node35</title>
<g id="a_node35"><a xlink:href="../../d4/d25/BaseHits_8h.html" target="_top" xlink:title="SimulationDataFormat\l/BaseHits.h">
<polygon fill="none" stroke="black" points="1677.03,-261 1677.03,-291 1791.03,-291 1791.03,-261 1677.03,-261"/>
<text text-anchor="start" x="1685.03" y="-279" font-family="Helvetica,sans-Serif" font-size="10.00">SimulationDataFormat</text>
<text text-anchor="middle" x="1734.03" y="-268" font-family="Helvetica,sans-Serif" font-size="10.00">/BaseHits.h</text>
</a>
</g>
</g>
<!-- Node1&#45;&gt;Node35 -->
<g id="edge48" class="edge"><title>Node1&#45;&gt;Node35</title>
<path fill="none" stroke="midnightblue" d="M1583.21,-331.521C1615.9,-319.705 1655.36,-305.438 1685.72,-294.463"/>
<polygon fill="midnightblue" stroke="midnightblue" points="1687.03,-297.714 1695.24,-291.023 1684.65,-291.131 1687.03,-297.714"/>
</g>
<!-- Node47 -->
<g id="node47" class="node"><title>Node47</title>
<polygon fill="none" stroke="#bfbfbf" points="1809.03,-266.5 1809.03,-285.5 1879.03,-285.5 1879.03,-266.5 1809.03,-266.5"/>
<text text-anchor="middle" x="1844.03" y="-273.5" font-family="Helvetica,sans-Serif" font-size="10.00">TRefArray.h</text>
</g>
<!-- Node1&#45;&gt;Node47 -->
<g id="edge64" class="edge"><title>Node1&#45;&gt;Node47</title>
<path fill="none" stroke="midnightblue" d="M1583.3,-342.204C1640.16,-330.949 1726.34,-312.681 1800.03,-292 1803.58,-291.004 1807.27,-289.885 1810.92,-288.72"/>
<polygon fill="midnightblue" stroke="midnightblue" points="1812.04,-292.039 1820.43,-285.578 1809.84,-285.392 1812.04,-292.039"/>
</g>
<!-- Node48 -->
<g id="node48" class="node"><title>Node48</title>
<polygon fill="none" stroke="#bfbfbf" points="1897.03,-266.5 1897.03,-285.5 1971.03,-285.5 1971.03,-266.5 1897.03,-266.5"/>
<text text-anchor="middle" x="1934.03" y="-273.5" font-family="Helvetica,sans-Serif" font-size="10.00">TVirtualMC.h</text>
</g>
<!-- Node1&#45;&gt;Node48 -->
<g id="edge65" class="edge"><title>Node1&#45;&gt;Node48</title>
<path fill="none" stroke="midnightblue" d="M1583.29,-346.34C1656.76,-336.646 1782.3,-318.017 1888.03,-292 1891.96,-291.034 1896.03,-289.901 1900.06,-288.698"/>
<polygon fill="midnightblue" stroke="midnightblue" points="1901.38,-291.953 1909.87,-285.619 1899.29,-285.274 1901.38,-291.953"/>
</g>
<!-- Node49 -->
<g id="node49" class="node"><title>Node49</title>
<polygon fill="none" stroke="#bfbfbf" points="1989.53,-266.5 1989.53,-285.5 2038.53,-285.5 2038.53,-266.5 1989.53,-266.5"/>
<text text-anchor="middle" x="2014.03" y="-273.5" font-family="Helvetica,sans-Serif" font-size="10.00">cstddef</text>
</g>
<!-- Node1&#45;&gt;Node49 -->
<g id="edge66" class="edge"><title>Node1&#45;&gt;Node49</title>
<path fill="none" stroke="midnightblue" d="M1583.4,-351.128C1672.76,-345.773 1841.69,-331.014 1980.03,-292 1982.53,-291.295 1985.08,-290.441 1987.61,-289.502"/>
<polygon fill="midnightblue" stroke="midnightblue" points="1989.17,-292.646 1997.08,-285.597 1986.5,-286.175 1989.17,-292.646"/>
</g>
<!-- Node3 -->
<g id="node3" class="node"><title>Node3</title>
<polygon fill="none" stroke="#bfbfbf" points="777.031,-62.5 777.031,-81.5 833.031,-81.5 833.031,-62.5 777.031,-62.5"/>
<text text-anchor="middle" x="805.031" y="-69.5" font-family="Helvetica,sans-Serif" font-size="10.00">Rtypes.h</text>
</g>
<!-- Node2&#45;&gt;Node3 -->
<g id="edge2" class="edge"><title>Node2&#45;&gt;Node3</title>
<path fill="none" stroke="midnightblue" d="M201.917,-130.484C213.465,-128.115 226.227,-125.722 238.031,-124 435.824,-95.1478 674.973,-80.0527 766.69,-74.9854"/>
<polygon fill="midnightblue" stroke="midnightblue" points="767.084,-78.4692 776.879,-74.4304 766.703,-71.4796 767.084,-78.4692"/>
</g>
<!-- Node4 -->
<g id="node4" class="node"><title>Node4</title>
<polygon fill="none" stroke="#bfbfbf" points="24.031,-0.5 24.031,-19.5 62.031,-19.5 62.031,-0.5 24.031,-0.5"/>
<text text-anchor="middle" x="43.031" y="-7.5" font-family="Helvetica,sans-Serif" font-size="10.00">array</text>
</g>
<!-- Node2&#45;&gt;Node4 -->
<g id="edge3" class="edge"><title>Node2&#45;&gt;Node4</title>
<path fill="none" stroke="midnightblue" d="M104.526,-136.511C69.4653,-131.604 27.667,-119.032 5.03104,-88 -9.16228,-68.5418 9.69439,-42.9755 25.5382,-26.7607"/>
<polygon fill="midnightblue" stroke="midnightblue" points="28.1647,-29.0895 32.916,-19.6197 23.2964,-24.0596 28.1647,-29.0895"/>
</g>
<!-- Node5 -->
<g id="node5" class="node"><title>Node5</title>
<polygon fill="none" stroke="#bfbfbf" points="14.531,-62.5 14.531,-81.5 55.531,-81.5 55.531,-62.5 14.531,-62.5"/>
<text text-anchor="middle" x="35.031" y="-69.5" font-family="Helvetica,sans-Serif" font-size="10.00">bitset</text>
</g>
<!-- Node2&#45;&gt;Node5 -->
<g id="edge4" class="edge"><title>Node2&#45;&gt;Node5</title>
<path fill="none" stroke="midnightblue" d="M147.03,-130.367C127.12,-120.248 93.155,-102.958 64.031,-88 62.8965,-87.4173 61.7375,-86.8212 60.5669,-86.2185"/>
<polygon fill="midnightblue" stroke="midnightblue" points="62.0768,-83.0591 51.5853,-81.5833 58.8665,-89.2796 62.0768,-83.0591"/>
</g>
<!-- Node6 -->
<g id="node6" class="node"><title>Node6</title>
<polygon fill="none" stroke="#bfbfbf" points="73.531,-62.5 73.531,-81.5 122.531,-81.5 122.531,-62.5 73.531,-62.5"/>
<text text-anchor="middle" x="98.031" y="-69.5" font-family="Helvetica,sans-Serif" font-size="10.00">cassert</text>
</g>
<!-- Node2&#45;&gt;Node6 -->
<g id="edge5" class="edge"><title>Node2&#45;&gt;Node6</title>
<path fill="none" stroke="midnightblue" d="M155.403,-130.372C144.986,-119.955 127.248,-102.217 114.247,-89.2162"/>
<polygon fill="midnightblue" stroke="midnightblue" points="116.418,-86.4373 106.872,-81.8411 111.468,-91.3871 116.418,-86.4373"/>
</g>
<!-- Node7 -->
<g id="node7" class="node"><title>Node7</title>
<polygon fill="none" stroke="#bfbfbf" points="141.031,-62.5 141.031,-81.5 187.031,-81.5 187.031,-62.5 141.031,-62.5"/>
<text text-anchor="middle" x="164.031" y="-69.5" font-family="Helvetica,sans-Serif" font-size="10.00">cstdint</text>
</g>
<!-- Node2&#45;&gt;Node7 -->
<g id="edge6" class="edge"><title>Node2&#45;&gt;Node7</title>
<path fill="none" stroke="midnightblue" d="M164.031,-130.372C164.031,-120.643 164.031,-104.528 164.031,-91.8504"/>
<polygon fill="midnightblue" stroke="midnightblue" points="167.531,-91.8411 164.031,-81.8411 160.531,-91.8412 167.531,-91.8411"/>
</g>
<!-- Node8 -->
<g id="node8" class="node"><title>Node8</title>
<polygon fill="none" stroke="#bfbfbf" points="337.031,-62.5 337.031,-81.5 399.031,-81.5 399.031,-62.5 337.031,-62.5"/>
<text text-anchor="middle" x="368.031" y="-69.5" font-family="Helvetica,sans-Serif" font-size="10.00">type_traits</text>
</g>
<!-- Node2&#45;&gt;Node8 -->
<g id="edge7" class="edge"><title>Node2&#45;&gt;Node8</title>
<path fill="none" stroke="midnightblue" d="M192.726,-130.472C225.39,-120.661 280.277,-103.857 327.031,-88 329.79,-87.0643 332.645,-86.0714 335.504,-85.0596"/>
<polygon fill="midnightblue" stroke="midnightblue" points="336.889,-88.2812 345.113,-81.6023 334.519,-81.6946 336.889,-88.2812"/>
</g>
<!-- Node9 -->
<g id="node9" class="node"><title>Node9</title>
<g id="a_node9"><a xlink:href="../../d9/ded/Utils_8h.html" target="_top" xlink:title="DetectorsBase/Utils.h">
<polygon fill="none" stroke="black" points="205.531,-62.5 205.531,-81.5 318.531,-81.5 318.531,-62.5 205.531,-62.5"/>
<text text-anchor="middle" x="262.031" y="-69.5" font-family="Helvetica,sans-Serif" font-size="10.00">DetectorsBase/Utils.h</text>
</a>
</g>
</g>
<!-- Node2&#45;&gt;Node9 -->
<g id="edge8" class="edge"><title>Node2&#45;&gt;Node9</title>
<path fill="none" stroke="midnightblue" d="M176.843,-130.372C193.057,-119.452 221.214,-100.489 240.695,-87.369"/>
<polygon fill="midnightblue" stroke="midnightblue" points="242.877,-90.1195 249.216,-81.6305 238.967,-84.3135 242.877,-90.1195"/>
</g>
<!-- Node9&#45;&gt;Node4 -->
<g id="edge11" class="edge"><title>Node9&#45;&gt;Node4</title>
<path fill="none" stroke="midnightblue" d="M230.654,-62.4035C188.131,-50.7534 112.812,-30.118 71.7237,-18.861"/>
<polygon fill="midnightblue" stroke="midnightblue" points="72.6254,-15.4791 62.0559,-16.2123 70.7757,-22.2303 72.6254,-15.4791"/>
</g>
<!-- Node10 -->
<g id="node10" class="node"><title>Node10</title>
<g id="a_node10"><a xlink:href="../../d1/daa/Base_2include_2DetectorsBase_2Constants_8h.html" target="_top" xlink:title="DetectorsBase/Constants.h">
<polygon fill="none" stroke="black" points="138.031,-0.5 138.031,-19.5 276.031,-19.5 276.031,-0.5 138.031,-0.5"/>
<text text-anchor="middle" x="207.031" y="-7.5" font-family="Helvetica,sans-Serif" font-size="10.00">DetectorsBase/Constants.h</text>
</a>
</g>
</g>
<!-- Node9&#45;&gt;Node10 -->
<g id="edge9" class="edge"><title>Node9&#45;&gt;Node10</title>
<path fill="none" stroke="midnightblue" d="M254.151,-62.4035C245.737,-53.2252 232.212,-38.4699 221.805,-27.1173"/>
<polygon fill="midnightblue" stroke="midnightblue" points="224.234,-24.5871 214.897,-19.5806 219.074,-29.3172 224.234,-24.5871"/>
</g>
<!-- Node11 -->
<g id="node11" class="node"><title>Node11</title>
<polygon fill="none" stroke="#bfbfbf" points="294.031,-0.5 294.031,-19.5 338.031,-19.5 338.031,-0.5 294.031,-0.5"/>
<text text-anchor="middle" x="316.031" y="-7.5" font-family="Helvetica,sans-Serif" font-size="10.00">cmath</text>
</g>
<!-- Node9&#45;&gt;Node11 -->
<g id="edge10" class="edge"><title>Node9&#45;&gt;Node11</title>
<path fill="none" stroke="midnightblue" d="M269.768,-62.4035C278.028,-53.2252 291.308,-38.4699 301.525,-27.1173"/>
<polygon fill="midnightblue" stroke="midnightblue" points="304.22,-29.3549 308.309,-19.5806 299.017,-24.6722 304.22,-29.3549"/>
</g>
<!-- Node12&#45;&gt;Node3 -->
<g id="edge21" class="edge"><title>Node12&#45;&gt;Node3</title>
<path fill="none" stroke="midnightblue" d="M510.503,-266.498C446.306,-255.936 346.971,-237.645 336.031,-224 327.134,-212.904 328.519,-204.076 336.031,-192 382.2,-117.781 663.227,-85.5911 766.77,-76.144"/>
<polygon fill="midnightblue" stroke="midnightblue" points="767.144,-79.6246 776.793,-75.2503 766.522,-72.6523 767.144,-79.6246"/>
</g>
<!-- Node12&#45;&gt;Node8 -->
<g id="edge24" class="edge"><title>Node12&#45;&gt;Node8</title>
<path fill="none" stroke="midnightblue" d="M510.503,-266.498C446.306,-255.936 346.971,-237.645 336.031,-224 304.266,-184.383 337.059,-120.682 356.242,-90.2575"/>
<polygon fill="midnightblue" stroke="midnightblue" points="359.346,-91.9057 361.893,-81.6214 353.489,-88.0729 359.346,-91.9057"/>
</g>
<!-- Node13 -->
<g id="node13" class="node"><title>Node13</title>
<polygon fill="none" stroke="#bfbfbf" points="483.531,-130.5 483.531,-149.5 518.531,-149.5 518.531,-130.5 483.531,-130.5"/>
<text text-anchor="middle" x="501.031" y="-137.5" font-family="Helvetica,sans-Serif" font-size="10.00">map</text>
</g>
<!-- Node12&#45;&gt;Node13 -->
<g id="edge13" class="edge"><title>Node12&#45;&gt;Node13</title>
<path fill="none" stroke="midnightblue" d="M499.3,-268.539C442.209,-261.408 365.809,-247.678 347.031,-224 310.053,-177.373 419.894,-153.499 473.471,-144.863"/>
<polygon fill="midnightblue" stroke="midnightblue" points="474.026,-148.319 483.376,-143.336 472.96,-141.4 474.026,-148.319"/>
</g>
<!-- Node14 -->
<g id="node14" class="node"><title>Node14</title>
<polygon fill="none" stroke="#bfbfbf" points="356.031,-198.5 356.031,-217.5 400.031,-217.5 400.031,-198.5 356.031,-198.5"/>
<text text-anchor="middle" x="378.031" y="-205.5" font-family="Helvetica,sans-Serif" font-size="10.00">vector</text>
</g>
<!-- Node12&#45;&gt;Node14 -->
<g id="edge14" class="edge"><title>Node12&#45;&gt;Node14</title>
<path fill="none" stroke="midnightblue" d="M534.988,-266.49C503.256,-257.199 451.973,-241.317 409.031,-224 407.392,-223.339 405.718,-222.631 404.039,-221.895"/>
<polygon fill="midnightblue" stroke="midnightblue" points="405.123,-218.54 394.577,-217.515 402.182,-224.892 405.123,-218.54"/>
</g>
<!-- Node15 -->
<g id="node15" class="node"><title>Node15</title>
<polygon fill="none" stroke="#bfbfbf" points="919.031,-198.5 919.031,-217.5 971.031,-217.5 971.031,-198.5 919.031,-198.5"/>
<text text-anchor="middle" x="945.031" y="-205.5" font-family="Helvetica,sans-Serif" font-size="10.00">memory</text>
</g>
<!-- Node12&#45;&gt;Node15 -->
<g id="edge15" class="edge"><title>Node12&#45;&gt;Node15</title>
<path fill="none" stroke="midnightblue" d="M630.623,-270.368C700.82,-264.245 814.925,-250.919 910.031,-224 912.683,-223.249 915.399,-222.346 918.088,-221.358"/>
<polygon fill="midnightblue" stroke="midnightblue" points="919.584,-224.529 927.548,-217.541 916.965,-218.037 919.584,-224.529"/>
</g>
<!-- Node12&#45;&gt;Node16 -->
<g id="edge16" class="edge"><title>Node12&#45;&gt;Node16</title>
<path fill="none" stroke="midnightblue" d="M499.475,-267.055C433.158,-258.486 327.888,-243.419 238.031,-224 232.931,-222.898 227.598,-221.599 222.354,-220.235"/>
<polygon fill="midnightblue" stroke="midnightblue" points="223.029,-216.792 212.462,-217.564 221.204,-223.55 223.029,-216.792"/>
</g>
<!-- Node12&#45;&gt;Node17 -->
<g id="edge17" class="edge"><title>Node12&#45;&gt;Node17</title>
<path fill="none" stroke="midnightblue" d="M604.289,-266.428C649.418,-256.508 725.681,-239.54 791.031,-224 796.385,-222.727 801.999,-221.362 807.556,-219.994"/>
<polygon fill="midnightblue" stroke="midnightblue" points="808.563,-223.35 817.427,-217.546 806.878,-216.556 808.563,-223.35"/>
</g>
<!-- Node18 -->
<g id="node18" class="node"><title>Node18</title>
<g id="a_node18"><a xlink:href="../../d0/d9a/MaterialManager_8h.html" target="_top" xlink:title="DetectorsBase/MaterialManager.h">
<polygon fill="none" stroke="black" points="418.531,-198.5 418.531,-217.5 583.531,-217.5 583.531,-198.5 418.531,-198.5"/>
<text text-anchor="middle" x="501.031" y="-205.5" font-family="Helvetica,sans-Serif" font-size="10.00">DetectorsBase/MaterialManager.h</text>
</a>
</g>
</g>
<!-- Node12&#45;&gt;Node18 -->
<g id="edge18" class="edge"><title>Node12&#45;&gt;Node18</title>
<path fill="none" stroke="midnightblue" d="M556.664,-266.372C546.563,-255.955 529.363,-238.217 516.756,-225.216"/>
<polygon fill="midnightblue" stroke="midnightblue" points="519.078,-222.584 509.604,-217.841 514.053,-227.457 519.078,-222.584"/>
</g>
<!-- Node19 -->
<g id="node19" class="node"><title>Node19</title>
<polygon fill="none" stroke="#bfbfbf" points="601.531,-198.5 601.531,-217.5 654.531,-217.5 654.531,-198.5 601.531,-198.5"/>
<text text-anchor="middle" x="628.031" y="-205.5" font-family="Helvetica,sans-Serif" font-size="10.00">cxxabi.h</text>
</g>
<!-- Node12&#45;&gt;Node19 -->
<g id="edge22" class="edge"><title>Node12&#45;&gt;Node19</title>
<path fill="none" stroke="midnightblue" d="M573.267,-266.372C583.211,-255.955 600.142,-238.217 612.552,-225.216"/>
<polygon fill="midnightblue" stroke="midnightblue" points="615.219,-227.491 619.592,-217.841 610.155,-222.658 615.219,-227.491"/>
</g>
<!-- Node20 -->
<g id="node20" class="node"><title>Node20</title>
<polygon fill="none" stroke="#bfbfbf" points="672.531,-198.5 672.531,-217.5 723.531,-217.5 723.531,-198.5 672.531,-198.5"/>
<text text-anchor="middle" x="698.031" y="-205.5" font-family="Helvetica,sans-Serif" font-size="10.00">typeinfo</text>
</g>
<!-- Node12&#45;&gt;Node20 -->
<g id="edge23" class="edge"><title>Node12&#45;&gt;Node20</title>
<path fill="none" stroke="midnightblue" d="M582.418,-266.372C605.12,-255.106 645.074,-235.279 671.551,-222.14"/>
<polygon fill="midnightblue" stroke="midnightblue" points="673.237,-225.211 680.639,-217.63 670.126,-218.94 673.237,-225.211"/>
</g>
<!-- Node21 -->
<g id="node21" class="node"><title>Node21</title>
<polygon fill="none" stroke="#bfbfbf" points="741.531,-198.5 741.531,-217.5 782.531,-217.5 782.531,-198.5 741.531,-198.5"/>
<text text-anchor="middle" x="762.031" y="-205.5" font-family="Helvetica,sans-Serif" font-size="10.00">string</text>
</g>
<!-- Node12&#45;&gt;Node21 -->
<g id="edge25" class="edge"><title>Node12&#45;&gt;Node21</title>
<path fill="none" stroke="midnightblue" d="M598.868,-266.454C633.014,-257.416 686.988,-241.992 732.031,-224 733.63,-223.361 735.259,-222.67 736.891,-221.947"/>
<polygon fill="midnightblue" stroke="midnightblue" points="738.527,-225.045 746.066,-217.601 735.53,-218.719 738.527,-225.045"/>
</g>
<!-- Node18&#45;&gt;Node3 -->
<g id="edge19" class="edge"><title>Node18&#45;&gt;Node3</title>
<path fill="none" stroke="midnightblue" d="M520.51,-198.414C572.523,-175.487 714.875,-112.74 776.247,-85.6877"/>
<polygon fill="midnightblue" stroke="midnightblue" points="777.975,-88.7508 785.714,-81.5146 775.152,-82.3455 777.975,-88.7508"/>
</g>
<!-- Node18&#45;&gt;Node13 -->
<g id="edge20" class="edge"><title>Node18&#45;&gt;Node13</title>
<path fill="none" stroke="midnightblue" d="M501.031,-198.372C501.031,-188.643 501.031,-172.528 501.031,-159.85"/>
<polygon fill="midnightblue" stroke="midnightblue" points="504.531,-159.841 501.031,-149.841 497.531,-159.841 504.531,-159.841"/>
</g>
<!-- Node22&#45;&gt;Node2 -->
<g id="edge38" class="edge"><title>Node22&#45;&gt;Node2</title>
<path fill="none" stroke="midnightblue" d="M1159.99,-268.859C1117.37,-262.401 1058.82,-249.46 1013.03,-224 995.176,-214.071 998.717,-200.26 980.031,-192 963.042,-184.49 427.991,-155.149 233.673,-144.711"/>
<polygon fill="midnightblue" stroke="midnightblue" points="233.748,-141.21 223.575,-144.169 233.373,-148.2 233.748,-141.21"/>
</g>
<!-- Node22&#45;&gt;Node3 -->
<g id="edge39" class="edge"><title>Node22&#45;&gt;Node3</title>
<path fill="none" stroke="midnightblue" d="M1176.25,-260.987C1151.72,-251.858 1120.26,-238.896 1094.03,-224 1073.32,-212.237 1072.47,-202.386 1051.03,-192 995.533,-165.115 972.556,-182.829 917.031,-156 879.875,-138.047 842.529,-107.189 821.729,-88.5805"/>
<polygon fill="midnightblue" stroke="midnightblue" points="823.869,-85.7955 814.118,-81.6525 819.157,-90.9722 823.869,-85.7955"/>
</g>
<!-- Node22&#45;&gt;Node13 -->
<g id="edge41" class="edge"><title>Node22&#45;&gt;Node13</title>
<path fill="none" stroke="midnightblue" d="M1161.82,-260.929C1131.32,-252.18 1093.2,-239.618 1061.03,-224 1037.97,-212.802 1037.17,-200.638 1013.03,-192 922.42,-159.576 621.63,-145.604 528.656,-141.992"/>
<polygon fill="midnightblue" stroke="midnightblue" points="528.741,-138.493 518.615,-141.611 528.476,-145.488 528.741,-138.493"/>
</g>
<!-- Node22&#45;&gt;Node15 -->
<g id="edge44" class="edge"><title>Node22&#45;&gt;Node15</title>
<path fill="none" stroke="midnightblue" d="M1159.73,-264.762C1112.42,-255.749 1043.76,-241.37 985.031,-224 981.902,-223.074 978.666,-222.024 975.454,-220.919"/>
<polygon fill="midnightblue" stroke="midnightblue" points="976.609,-217.615 966.015,-217.509 974.231,-224.198 976.609,-217.615"/>
</g>
<!-- Node23 -->
<g id="node23" class="node"><title>Node23</title>
<polygon fill="none" stroke="#bfbfbf" points="1103.53,-198.5 1103.53,-217.5 1204.53,-217.5 1204.53,-198.5 1103.53,-198.5"/>
<text text-anchor="middle" x="1154.03" y="-205.5" font-family="Helvetica,sans-Serif" font-size="10.00">FairGenericStack.h</text>
</g>
<!-- Node22&#45;&gt;Node23 -->
<g id="edge27" class="edge"><title>Node22&#45;&gt;Node23</title>
<path fill="none" stroke="midnightblue" d="M1203.36,-260.679C1193.44,-250.286 1180,-236.208 1169.66,-225.37"/>
<polygon fill="midnightblue" stroke="midnightblue" points="1171.89,-222.645 1162.46,-217.828 1166.83,-227.479 1171.89,-222.645"/>
</g>
<!-- Node22&#45;&gt;Node24 -->
<g id="edge28" class="edge"><title>Node22&#45;&gt;Node24</title>
<path fill="none" stroke="midnightblue" d="M1230.7,-260.679C1239.04,-251.944 1249.86,-240.605 1259.25,-230.775"/>
<polygon fill="midnightblue" stroke="midnightblue" points="1262.01,-232.943 1266.39,-223.293 1256.95,-228.11 1262.01,-232.943"/>
</g>
<!-- Node22&#45;&gt;Node29 -->
<g id="edge40" class="edge"><title>Node22&#45;&gt;Node29</title>
<path fill="none" stroke="midnightblue" d="M1262.89,-260.935C1288.32,-252.152 1319.98,-239.554 1346.03,-224 1364.99,-212.682 1364.25,-201.814 1384.03,-192 1449.32,-159.602 1474.1,-176.565 1544.03,-156 1547.16,-155.08 1550.39,-154.047 1553.61,-152.963"/>
<polygon fill="midnightblue" stroke="midnightblue" points="1554.81,-156.25 1563.08,-149.626 1552.48,-149.648 1554.81,-156.25"/>
</g>
<!-- Node32 -->
<g id="node32" class="node"><title>Node32</title>
<polygon fill="none" stroke="#bfbfbf" points="1393.53,-198.5 1393.53,-217.5 1434.53,-217.5 1434.53,-198.5 1393.53,-198.5"/>
<text text-anchor="middle" x="1414.03" y="-205.5" font-family="Helvetica,sans-Serif" font-size="10.00">stack</text>
</g>
<!-- Node22&#45;&gt;Node32 -->
<g id="edge42" class="edge"><title>Node22&#45;&gt;Node32</title>
<path fill="none" stroke="midnightblue" d="M1266.02,-260.968C1298.38,-251.36 1341.57,-237.885 1379.03,-224 1381.15,-223.216 1383.32,-222.374 1385.5,-221.505"/>
<polygon fill="midnightblue" stroke="midnightblue" points="1387.02,-224.664 1394.91,-217.601 1384.34,-218.197 1387.02,-224.664"/>
</g>
<!-- Node33 -->
<g id="node33" class="node"><title>Node33</title>
<polygon fill="none" stroke="#bfbfbf" points="1453.03,-198.5 1453.03,-217.5 1493.03,-217.5 1493.03,-198.5 1453.03,-198.5"/>
<text text-anchor="middle" x="1473.03" y="-205.5" font-family="Helvetica,sans-Serif" font-size="10.00">utility</text>
</g>
<!-- Node22&#45;&gt;Node33 -->
<g id="edge43" class="edge"><title>Node22&#45;&gt;Node33</title>
<path fill="none" stroke="midnightblue" d="M1274.3,-266.028C1320.64,-257.834 1387.15,-243.942 1443.03,-224 1444.88,-223.339 1446.77,-222.592 1448.64,-221.793"/>
<polygon fill="midnightblue" stroke="midnightblue" points="1450.2,-224.929 1457.77,-217.52 1447.23,-218.589 1450.2,-224.929"/>
</g>
<!-- Node24&#45;&gt;Node2 -->
<g id="edge33" class="edge"><title>Node24&#45;&gt;Node2</title>
<path fill="none" stroke="midnightblue" d="M1222.77,-193.501C1219.48,-192.938 1216.22,-192.431 1213.03,-192 1211.51,-191.794 468.042,-155.739 233.823,-144.383"/>
<polygon fill="midnightblue" stroke="midnightblue" points="233.876,-140.882 223.718,-143.893 233.537,-147.874 233.876,-140.882"/>
</g>
<!-- Node24&#45;&gt;Node3 -->
<g id="edge29" class="edge"><title>Node24&#45;&gt;Node3</title>
<path fill="none" stroke="midnightblue" d="M1222.71,-193.855C1219.44,-193.202 1216.2,-192.579 1213.03,-192 1101.31,-171.577 1065.06,-199.239 960.031,-156 938.003,-146.931 937.542,-136.116 917.031,-124 891.231,-108.761 860.086,-94.9124 837.195,-85.5046"/>
<polygon fill="midnightblue" stroke="midnightblue" points="838.201,-82.1363 827.619,-81.6297 835.576,-88.6252 838.201,-82.1363"/>
</g>
<!-- Node24&#45;&gt;Node25 -->
<g id="edge30" class="edge"><title>Node24&#45;&gt;Node25</title>
<path fill="none" stroke="midnightblue" d="M1324.61,-192.922C1362.58,-180.931 1416.5,-163.906 1452.1,-152.664"/>
<polygon fill="midnightblue" stroke="midnightblue" points="1453.59,-155.863 1462.07,-149.514 1451.48,-149.188 1453.59,-155.863"/>
</g>
<!-- Node26 -->
<g id="node26" class="node"><title>Node26</title>
<polygon fill="none" stroke="#bfbfbf" points="969.531,-130.5 969.531,-149.5 1022.53,-149.5 1022.53,-130.5 969.531,-130.5"/>
<text text-anchor="middle" x="996.031" y="-137.5" font-family="Helvetica,sans-Serif" font-size="10.00">TMath.h</text>
</g>
<!-- Node24&#45;&gt;Node26 -->
<g id="edge31" class="edge"><title>Node24&#45;&gt;Node26</title>
<path fill="none" stroke="midnightblue" d="M1222.67,-194.059C1219.41,-193.355 1216.18,-192.664 1213.03,-192 1132.35,-174.991 1109.8,-180.374 1031.03,-156 1028.54,-155.231 1025.99,-154.343 1023.46,-153.392"/>
<polygon fill="midnightblue" stroke="midnightblue" points="1024.51,-150.04 1013.93,-149.523 1021.88,-156.526 1024.51,-150.04"/>
</g>
<!-- Node27 -->
<g id="node27" class="node"><title>Node27</title>
<polygon fill="none" stroke="#bfbfbf" points="1040.53,-130.5 1040.53,-149.5 1105.53,-149.5 1105.53,-130.5 1040.53,-130.5"/>
<text text-anchor="middle" x="1073.03" y="-137.5" font-family="Helvetica,sans-Serif" font-size="10.00">TVector3.h</text>
</g>
<!-- Node24&#45;&gt;Node27 -->
<g id="edge32" class="edge"><title>Node24&#45;&gt;Node27</title>
<path fill="none" stroke="midnightblue" d="M1231.87,-192.935C1198.62,-183.045 1153.47,-169.261 1114.03,-156 1111.27,-155.071 1108.41,-154.083 1105.55,-153.075"/>
<polygon fill="midnightblue" stroke="midnightblue" points="1106.54,-149.709 1095.94,-149.623 1104.17,-156.297 1106.54,-149.709"/>
</g>
<!-- Node28 -->
<g id="node28" class="node"><title>Node28</title>
<polygon fill="none" stroke="#bfbfbf" points="1123.53,-130.5 1123.53,-149.5 1218.53,-149.5 1218.53,-130.5 1123.53,-130.5"/>
<text text-anchor="middle" x="1171.03" y="-137.5" font-family="Helvetica,sans-Serif" font-size="10.00">TDatabasePDG.h</text>
</g>
<!-- Node24&#45;&gt;Node28 -->
<g id="edge34" class="edge"><title>Node24&#45;&gt;Node28</title>
<path fill="none" stroke="midnightblue" d="M1256.65,-192.841C1238.13,-181.63 1212.41,-166.056 1194,-154.91"/>
<polygon fill="midnightblue" stroke="midnightblue" points="1195.74,-151.868 1185.37,-149.682 1192.11,-157.855 1195.74,-151.868"/>
</g>
<!-- Node24&#45;&gt;Node29 -->
<g id="edge35" class="edge"><title>Node24&#45;&gt;Node29</title>
<path fill="none" stroke="midnightblue" d="M1337.36,-194.766C1341.98,-193.817 1346.58,-192.885 1351.03,-192 1436.61,-174.981 1459.88,-179.07 1544.03,-156 1547.25,-155.118 1550.57,-154.097 1553.87,-153.009"/>
<polygon fill="midnightblue" stroke="midnightblue" points="1555.26,-156.228 1563.55,-149.623 1552.95,-149.621 1555.26,-156.228"/>
</g>
<!-- Node30 -->
<g id="node30" class="node"><title>Node30</title>
<polygon fill="none" stroke="#bfbfbf" points="1237.03,-130.5 1237.03,-149.5 1323.03,-149.5 1323.03,-130.5 1237.03,-130.5"/>
<text text-anchor="middle" x="1280.03" y="-137.5" font-family="Helvetica,sans-Serif" font-size="10.00">TParticlePDG.h</text>
</g>
<!-- Node24&#45;&gt;Node30 -->
<g id="edge36" class="edge"><title>Node24&#45;&gt;Node30</title>
<path fill="none" stroke="midnightblue" d="M1280.03,-192.679C1280.03,-183.101 1280.03,-170.394 1280.03,-159.977"/>
<polygon fill="midnightblue" stroke="midnightblue" points="1283.53,-159.828 1280.03,-149.828 1276.53,-159.828 1283.53,-159.828"/>
</g>
<!-- Node31 -->
<g id="node31" class="node"><title>Node31</title>
<polygon fill="none" stroke="#bfbfbf" points="1341.53,-130.5 1341.53,-149.5 1424.53,-149.5 1424.53,-130.5 1341.53,-130.5"/>
<text text-anchor="middle" x="1383.03" y="-137.5" font-family="Helvetica,sans-Serif" font-size="10.00">TMCProcess.h</text>
</g>
<!-- Node24&#45;&gt;Node31 -->
<g id="edge37" class="edge"><title>Node24&#45;&gt;Node31</title>
<path fill="none" stroke="midnightblue" d="M1302.13,-192.841C1319.38,-181.784 1343.26,-166.481 1360.6,-155.37"/>
<polygon fill="midnightblue" stroke="midnightblue" points="1362.95,-158.024 1369.48,-149.682 1359.17,-152.13 1362.95,-158.024"/>
</g>
<!-- Node36 -->
<g id="node36" class="node"><title>Node36</title>
<g id="a_node36"><a xlink:href="../../dd/d76/Cartesian3D_8h.html" target="_top" xlink:title="MathUtils/Cartesian3D.h">
<polygon fill="none" stroke="black" points="2099.53,-198.5 2099.53,-217.5 2224.53,-217.5 2224.53,-198.5 2099.53,-198.5"/>
<text text-anchor="middle" x="2162.03" y="-205.5" font-family="Helvetica,sans-Serif" font-size="10.00">MathUtils/Cartesian3D.h</text>
</a>
</g>
</g>
<!-- Node35&#45;&gt;Node36 -->
<g id="edge49" class="edge"><title>Node35&#45;&gt;Node36</title>
<path fill="none" stroke="midnightblue" d="M1791.21,-261.698C1794.19,-261.101 1797.14,-260.531 1800.03,-260 1899.74,-241.678 2015.96,-226.365 2089.27,-217.439"/>
<polygon fill="midnightblue" stroke="midnightblue" points="2089.81,-220.898 2099.32,-216.222 2088.97,-213.949 2089.81,-220.898"/>
</g>
<!-- Node36&#45;&gt;Node3 -->
<g id="edge53" class="edge"><title>Node36&#45;&gt;Node3</title>
<path fill="none" stroke="midnightblue" d="M2099.53,-205.17C1983.82,-201.035 1741.05,-188.65 1664.03,-156 1643.7,-147.382 1646.53,-132.21 1626.03,-124 1552.88,-94.7022 995.649,-78.015 843.378,-73.9703"/>
<polygon fill="midnightblue" stroke="midnightblue" points="843.215,-70.465 833.127,-73.701 843.031,-77.4625 843.215,-70.465"/>
</g>
<!-- Node37 -->
<g id="node37" class="node"><title>Node37</title>
<polygon fill="none" stroke="#bfbfbf" points="1672.53,-130.5 1672.53,-149.5 1821.53,-149.5 1821.53,-130.5 1672.53,-130.5"/>
<text text-anchor="middle" x="1747.03" y="-137.5" font-family="Helvetica,sans-Serif" font-size="10.00">Math/GenVector/Rotation3D.h</text>
</g>
<!-- Node36&#45;&gt;Node37 -->
<g id="edge50" class="edge"><title>Node36&#45;&gt;Node37</title>
<path fill="none" stroke="midnightblue" d="M2103.97,-198.481C2037.82,-188.678 1926.53,-171.881 1831.03,-156 1822.12,-154.519 1812.7,-152.892 1803.5,-151.274"/>
<polygon fill="midnightblue" stroke="midnightblue" points="1804.11,-147.827 1793.65,-149.529 1802.89,-154.72 1804.11,-147.827"/>
</g>
<!-- Node38 -->
<g id="node38" class="node"><title>Node38</title>
<polygon fill="none" stroke="#bfbfbf" points="1840.03,-130.5 1840.03,-149.5 1996.03,-149.5 1996.03,-130.5 1840.03,-130.5"/>
<text text-anchor="middle" x="1918.03" y="-137.5" font-family="Helvetica,sans-Serif" font-size="10.00">Math/GenVector/Transform3D.h</text>
</g>
<!-- Node36&#45;&gt;Node38 -->
<g id="edge51" class="edge"><title>Node36&#45;&gt;Node38</title>
<path fill="none" stroke="midnightblue" d="M2130.13,-198.372C2086.35,-186.53 2007.61,-165.229 1959.36,-152.179"/>
<polygon fill="midnightblue" stroke="midnightblue" points="1960.12,-148.758 1949.55,-149.526 1958.29,-155.516 1960.12,-148.758"/>
</g>
<!-- Node39 -->
<g id="node39" class="node"><title>Node39</title>
<polygon fill="none" stroke="#bfbfbf" points="2014.03,-130.5 2014.03,-149.5 2174.03,-149.5 2174.03,-130.5 2014.03,-130.5"/>
<text text-anchor="middle" x="2094.03" y="-137.5" font-family="Helvetica,sans-Serif" font-size="10.00">Math/GenVector/Translation3D.h</text>
</g>
<!-- Node36&#45;&gt;Node39 -->
<g id="edge52" class="edge"><title>Node36&#45;&gt;Node39</title>
<path fill="none" stroke="midnightblue" d="M2153.14,-198.372C2142.31,-187.856 2123.79,-169.882 2110.36,-156.85"/>
<polygon fill="midnightblue" stroke="midnightblue" points="2112.75,-154.294 2103.14,-149.841 2107.88,-159.317 2112.75,-154.294"/>
</g>
<!-- Node40 -->
<g id="node40" class="node"><title>Node40</title>
<polygon fill="none" stroke="#bfbfbf" points="2192.03,-130.5 2192.03,-149.5 2268.03,-149.5 2268.03,-130.5 2192.03,-130.5"/>
<text text-anchor="middle" x="2230.03" y="-137.5" font-family="Helvetica,sans-Serif" font-size="10.00">TGeoMatrix.h</text>
</g>
<!-- Node36&#45;&gt;Node40 -->
<g id="edge54" class="edge"><title>Node36&#45;&gt;Node40</title>
<path fill="none" stroke="midnightblue" d="M2170.92,-198.372C2181.75,-187.856 2200.27,-169.882 2213.7,-156.85"/>
<polygon fill="midnightblue" stroke="midnightblue" points="2216.18,-159.317 2220.92,-149.841 2211.31,-154.294 2216.18,-159.317"/>
</g>
<!-- Node41 -->
<g id="node41" class="node"><title>Node41</title>
<polygon fill="none" stroke="#bfbfbf" points="2286.53,-125 2286.53,-155 2437.53,-155 2437.53,-125 2286.53,-125"/>
<text text-anchor="start" x="2294.53" y="-143" font-family="Helvetica,sans-Serif" font-size="10.00">Math/GenVector/Displacement</text>
<text text-anchor="middle" x="2362.03" y="-132" font-family="Helvetica,sans-Serif" font-size="10.00">Vector3D.h</text>
</g>
<!-- Node36&#45;&gt;Node41 -->
<g id="edge55" class="edge"><title>Node36&#45;&gt;Node41</title>
<path fill="none" stroke="midnightblue" d="M2188.18,-198.372C2218.93,-188.225 2270.72,-171.133 2309.8,-158.237"/>
<polygon fill="midnightblue" stroke="midnightblue" points="2311.04,-161.514 2319.44,-155.056 2308.84,-154.866 2311.04,-161.514"/>
</g>
<!-- Node42 -->
<g id="node42" class="node"><title>Node42</title>
<polygon fill="none" stroke="#bfbfbf" points="2456.03,-130.5 2456.03,-149.5 2632.03,-149.5 2632.03,-130.5 2456.03,-130.5"/>
<text text-anchor="middle" x="2544.03" y="-137.5" font-family="Helvetica,sans-Serif" font-size="10.00">Math/GenVector/PositionVector3D.h</text>
</g>
<!-- Node36&#45;&gt;Node42 -->
<g id="edge56" class="edge"><title>Node36&#45;&gt;Node42</title>
<path fill="none" stroke="midnightblue" d="M2211.58,-198.439C2281.57,-186.347 2409.21,-164.294 2484.33,-151.315"/>
<polygon fill="midnightblue" stroke="midnightblue" points="2485.31,-154.697 2494.57,-149.546 2484.12,-147.799 2485.31,-154.697"/>
</g>
<!-- Node43 -->
<g id="node43" class="node"><title>Node43</title>
<g id="a_node43"><a xlink:href="../../d2/dd0/Cartesian2D_8h.html" target="_top" xlink:title="MathUtils/Cartesian2D.h">
<polygon fill="none" stroke="black" points="2649.53,-130.5 2649.53,-149.5 2774.53,-149.5 2774.53,-130.5 2649.53,-130.5"/>
<text text-anchor="middle" x="2712.03" y="-137.5" font-family="Helvetica,sans-Serif" font-size="10.00">MathUtils/Cartesian2D.h</text>
</a>
</g>
</g>
<!-- Node36&#45;&gt;Node43 -->
<g id="edge57" class="edge"><title>Node36&#45;&gt;Node43</title>
<path fill="none" stroke="midnightblue" d="M2224.55,-202.319C2316.09,-195.014 2491.83,-179.284 2640.03,-156 2647.92,-154.76 2656.26,-153.23 2664.35,-151.625"/>
<polygon fill="midnightblue" stroke="midnightblue" points="2665.32,-155 2674.42,-149.57 2663.92,-148.141 2665.32,-155"/>
</g>
<!-- Node46 -->
<g id="node46" class="node"><title>Node46</title>
<polygon fill="none" stroke="#bfbfbf" points="2793.03,-130.5 2793.03,-149.5 2847.03,-149.5 2847.03,-130.5 2793.03,-130.5"/>
<text text-anchor="middle" x="2820.03" y="-137.5" font-family="Helvetica,sans-Serif" font-size="10.00">iostream</text>
</g>
<!-- Node36&#45;&gt;Node46 -->
<g id="edge60" class="edge"><title>Node36&#45;&gt;Node46</title>
<path fill="none" stroke="midnightblue" d="M2224.6,-204.269C2360.36,-197.953 2678.19,-180.941 2783.03,-156 2786.1,-155.27 2789.25,-154.325 2792.35,-153.264"/>
<polygon fill="midnightblue" stroke="midnightblue" points="2793.85,-156.439 2801.95,-149.606 2791.36,-149.898 2793.85,-156.439"/>
</g>
<!-- Node44 -->
<g id="node44" class="node"><title>Node44</title>
<polygon fill="none" stroke="#bfbfbf" points="2545.53,-57 2545.53,-87 2696.53,-87 2696.53,-57 2545.53,-57"/>
<text text-anchor="start" x="2553.53" y="-75" font-family="Helvetica,sans-Serif" font-size="10.00">Math/GenVector/Displacement</text>
<text text-anchor="middle" x="2621.03" y="-64" font-family="Helvetica,sans-Serif" font-size="10.00">Vector2D.h</text>
</g>
<!-- Node43&#45;&gt;Node44 -->
<g id="edge58" class="edge"><title>Node43&#45;&gt;Node44</title>
<path fill="none" stroke="midnightblue" d="M2700.13,-130.372C2687.25,-121.029 2666.25,-105.797 2649.12,-93.375"/>
<polygon fill="midnightblue" stroke="midnightblue" points="2650.73,-90.2194 2640.58,-87.1815 2646.62,-95.8859 2650.73,-90.2194"/>
</g>
<!-- Node45 -->
<g id="node45" class="node"><title>Node45</title>
<polygon fill="none" stroke="#bfbfbf" points="2715.03,-62.5 2715.03,-81.5 2891.03,-81.5 2891.03,-62.5 2715.03,-62.5"/>
<text text-anchor="middle" x="2803.03" y="-69.5" font-family="Helvetica,sans-Serif" font-size="10.00">Math/GenVector/PositionVector2D.h</text>
</g>
<!-- Node43&#45;&gt;Node45 -->
<g id="edge59" class="edge"><title>Node43&#45;&gt;Node45</title>
<path fill="none" stroke="midnightblue" d="M2723.93,-130.372C2738.92,-119.502 2764.89,-100.66 2782.97,-87.5474"/>
<polygon fill="midnightblue" stroke="midnightblue" points="2785.09,-90.3349 2791.13,-81.6305 2780.98,-84.6684 2785.09,-90.3349"/>
</g>
</g>
</svg>
        <g id="navigator" transform="translate(0 0)" fill="#404254">
                <rect fill="#f2f5e9" fill-opacity="0.5" stroke="#606060" stroke-width=".5" x="0" y="0" width="60" height="60"/>
                <use id="zoomplus" xlink:href="#zoomPlus" x="17" y="9" onmousedown="handleZoom(evt,'in')"/>
                <use id="zoomminus" xlink:href="#zoomMin" x="42" y="9" onmousedown="handleZoom(evt,'out')"/>
                <use id="reset" xlink:href="#resetDef" x="30" y="36" onmousedown="handleReset()"/>
                <g id="arrowUp" xlink:href="#dirArrow" transform="translate(30 24)" onmousedown="handlePan(0,-1)">
                  <use xlink:href="#rim" fill="#404040">
                        <set attributeName="fill" to="#808080" begin="arrowUp.mouseover" end="arrowUp.mouseout"/>
                  </use>
                  <path fill="none" stroke="white" stroke-width="1.5" d="M0,-3.0v7 M-2.5,-0.5L0,-3.0L2.5,-0.5"/>
                </g>
                <g id="arrowRight" xlink:href="#dirArrow" transform="rotate(90) translate(36 -43)" onmousedown="handlePan(1,0)">
                  <use xlink:href="#rim" fill="#404040">
                        <set attributeName="fill" to="#808080" begin="arrowRight.mouseover" end="arrowRight.mouseout"/>
                  </use>
                  <path fill="none" stroke="white" stroke-width="1.5" d="M0,-3.0v7 M-2.5,-0.5L0,-3.0L2.5,-0.5"/>
                </g>
                <g id="arrowDown" xlink:href="#dirArrow" transform="rotate(180) translate(-30 -48)" onmousedown="handlePan(0,1)">
                  <use xlink:href="#rim" fill="#404040">
                        <set attributeName="fill" to="#808080" begin="arrowDown.mouseover" end="arrowDown.mouseout"/>
                  </use>
                  <path fill="none" stroke="white" stroke-width="1.5" d="M0,-3.0v7 M-2.5,-0.5L0,-3.0L2.5,-0.5"/>
                </g>
                <g id="arrowLeft" xlink:href="#dirArrow" transform="rotate(270) translate(-36 17)" onmousedown="handlePan(-1,0)">
                  <use xlink:href="#rim" fill="#404040">
                        <set attributeName="fill" to="#808080" begin="arrowLeft.mouseover" end="arrowLeft.mouseout"/>
                  </use>
                  <path fill="none" stroke="white" stroke-width="1.5" d="M0,-3.0v7 M-2.5,-0.5L0,-3.0L2.5,-0.5"/>
                </g>
        </g>
        <svg viewBox="0 0 15 15" width="100%" height="30px" preserveAspectRatio="xMaxYMin meet">
         <g id="arrow_out" transform="scale(0.3 0.3)">
          <a xlink:href="Stack_8cxx__incl_org.svg" target="_base">
           <rect id="button" ry="5" rx="5" y="6" x="6" height="38" width="38"
                fill="#f2f5e9" fill-opacity="0.5" stroke="#606060" stroke-width="1.0"/>
           <path id="arrow"
             d="M 11.500037,31.436501 C 11.940474,20.09759 22.043105,11.32322 32.158766,21.979434 L 37.068811,17.246167 C 37.068811,17.246167 37.088388,32 37.088388,32 L 22.160133,31.978069 C 22.160133,31.978069 26.997745,27.140456 26.997745,27.140456 C 18.528582,18.264221 13.291696,25.230495 11.500037,31.436501 z"
             style="fill:#404040;"/>
          </a>
         </g>
        </svg>
</svg>
