<?xml version="1.0" encoding="UTF-8" standalone="no"?>
<!DOCTYPE svg PUBLIC "-//W3C//DTD SVG 1.1//EN"
 "http://www.w3.org/Graphics/SVG/1.1/DTD/svg11.dtd">
<!-- Generated by graphviz version 2.36.0 (20140111.2315)
 -->
<!-- Title: /home/travis/build/AliceO2Group/AliceO2/Detectors/TPC/reconstruction/macro/runHardwareClusterDecoderRaw.C Pages: 1 -->
<!--zoomable 726 -->
<svg id="main" version="1.1" xmlns="http://www.w3.org/2000/svg" xmlns:xlink="http://www.w3.org/1999/xlink" xml:space="preserve" onload="init(evt)">
<style type="text/css"><![CDATA[
.edge:hover path { stroke: red; }
.edge:hover polygon { stroke: red; fill: red; }
]]></style>
<script type="text/javascript"><![CDATA[
var edges = document.getElementsByTagName('g');
if (edges && edges.length) {
  for (var i=0;i<edges.length;i++) {
    if (edges[i].id.substr(0,4)=='edge') {
      edges[i].setAttribute('class','edge');
    }
  }
}
]]></script>
        <defs>
                <circle id="rim" cx="0" cy="0" r="7"/>
                <circle id="rim2" cx="0" cy="0" r="3.5"/>
                <g id="zoomPlus">
                        <use xlink:href="#rim" fill="#404040">
                                <set attributeName="fill" to="#808080" begin="zoomplus.mouseover" end="zoomplus.mouseout"/>
                        </use>
                        <path d="M-4,0h8M0,-4v8" fill="none" stroke="white" stroke-width="1.5" pointer-events="none"/>
                </g>
                <g id="zoomMin">
                        <use xlink:href="#rim" fill="#404040">
                                <set attributeName="fill" to="#808080" begin="zoomminus.mouseover" end="zoomminus.mouseout"/>
                        </use>
                        <path d="M-4,0h8" fill="none" stroke="white" stroke-width="1.5" pointer-events="none"/>
                </g>
                <g id="dirArrow">
                        <path fill="none" stroke="white" stroke-width="1.5" d="M0,-3.0v7 M-2.5,-0.5L0,-3.0L2.5,-0.5"/>
                </g>
               <g id="resetDef">
                       <use xlink:href="#rim2" fill="#404040">
                               <set attributeName="fill" to="#808080" begin="reset.mouseover" end="reset.mouseout"/>
                       </use>
               </g>
        </defs>

<script type="text/javascript">
var viewWidth = 1871;
var viewHeight = 726;
var sectionId = 'dynsection-0';
</script>
<script xlink:href="../../svgpan.js"/>
<svg id="graph" class="graph">
<g id="viewport">
<title>/home/travis/build/AliceO2Group/AliceO2/Detectors/TPC/reconstruction/macro/runHardwareClusterDecoderRaw.C</title>
<!-- Node1 -->
<g id="node1" class="node"><title>Node1</title>
<polygon fill="#bfbfbf" stroke="black" points="253.077,-665 253.077,-717 457.077,-717 457.077,-665 253.077,-665"/>
<text text-anchor="start" x="261.077" y="-705" font-family="Helvetica,sans-Serif" font-size="10.00">/home/travis/build</text>
<text text-anchor="start" x="261.077" y="-694" font-family="Helvetica,sans-Serif" font-size="10.00">/AliceO2Group/AliceO2</text>
<text text-anchor="start" x="261.077" y="-683" font-family="Helvetica,sans-Serif" font-size="10.00">/Detectors/TPC/reconstruction</text>
<text text-anchor="middle" x="355.077" y="-672" font-family="Helvetica,sans-Serif" font-size="10.00">/macro/runHardwareClusterDecoderRaw.C</text>
</g>
<!-- Node2 -->
<g id="node2" class="node"><title>Node2</title>
<polygon fill="none" stroke="#bfbfbf" points="596.077,-360.5 596.077,-379.5 640.077,-379.5 640.077,-360.5 596.077,-360.5"/>
<text text-anchor="middle" x="618.077" y="-367.5" font-family="Helvetica,sans-Serif" font-size="10.00">vector</text>
</g>
<!-- Node1&#45;&gt;Node2 -->
<g id="edge1" class="edge"><title>Node1&#45;&gt;Node2</title>
<path fill="none" stroke="midnightblue" d="M457.268,-690.25C572.05,-688.097 747.866,-676.654 790.077,-628 827.488,-584.879 684.051,-436.051 634.413,-386.895"/>
<polygon fill="midnightblue" stroke="midnightblue" points="636.627,-384.164 627.043,-379.648 631.719,-389.155 636.627,-384.164"/>
</g>
<!-- Node3 -->
<g id="node3" class="node"><title>Node3</title>
<polygon fill="none" stroke="#bfbfbf" points="30.0771,-602.5 30.0771,-621.5 80.0771,-621.5 80.0771,-602.5 30.0771,-602.5"/>
<text text-anchor="middle" x="55.0771" y="-609.5" font-family="Helvetica,sans-Serif" font-size="10.00">fstream</text>
</g>
<!-- Node1&#45;&gt;Node3 -->
<g id="edge2" class="edge"><title>Node1&#45;&gt;Node3</title>
<path fill="none" stroke="midnightblue" d="M252.897,-669.057C204.365,-658.265 145.797,-644.01 94.0771,-628 91.2835,-627.135 88.4026,-626.171 85.5312,-625.16"/>
<polygon fill="midnightblue" stroke="midnightblue" points="86.5392,-621.801 75.946,-621.618 84.1132,-628.367 86.5392,-621.801"/>
</g>
<!-- Node4 -->
<g id="node4" class="node"><title>Node4</title>
<polygon fill="none" stroke="#bfbfbf" points="1809.08,-74.5 1809.08,-93.5 1863.08,-93.5 1863.08,-74.5 1809.08,-74.5"/>
<text text-anchor="middle" x="1836.08" y="-81.5" font-family="Helvetica,sans-Serif" font-size="10.00">iostream</text>
</g>
<!-- Node1&#45;&gt;Node4 -->
<g id="edge3" class="edge"><title>Node1&#45;&gt;Node4</title>
<path fill="none" stroke="midnightblue" d="M457.192,-690.456C786.483,-690.592 1799.08,-680.032 1799.08,-545 1799.08,-545 1799.08,-545 1799.08,-201 1799.08,-164.704 1815.72,-124.913 1826.68,-102.643"/>
<polygon fill="midnightblue" stroke="midnightblue" points="1829.81,-104.218 1831.24,-93.7198 1823.58,-101.034 1829.81,-104.218"/>
</g>
<!-- Node5 -->
<g id="node5" class="node"><title>Node5</title>
<polygon fill="none" stroke="#bfbfbf" points="136.577,-602.5 136.577,-621.5 201.577,-621.5 201.577,-602.5 136.577,-602.5"/>
<text text-anchor="middle" x="169.077" y="-609.5" font-family="Helvetica,sans-Serif" font-size="10.00">TSystem.h</text>
</g>
<!-- Node1&#45;&gt;Node5 -->
<g id="edge4" class="edge"><title>Node1&#45;&gt;Node5</title>
<path fill="none" stroke="midnightblue" d="M294.431,-664.894C262.611,-651.721 225.018,-636.158 199.356,-625.535"/>
<polygon fill="midnightblue" stroke="midnightblue" points="200.388,-622.174 189.809,-621.583 197.71,-628.642 200.388,-622.174"/>
</g>
<!-- Node6 -->
<g id="node6" class="node"><title>Node6</title>
<polygon fill="none" stroke="#bfbfbf" points="219.577,-602.5 219.577,-621.5 278.577,-621.5 278.577,-602.5 219.577,-602.5"/>
<text text-anchor="middle" x="249.077" y="-609.5" font-family="Helvetica,sans-Serif" font-size="10.00">TROOT.h</text>
</g>
<!-- Node1&#45;&gt;Node6 -->
<g id="edge5" class="edge"><title>Node1&#45;&gt;Node6</title>
<path fill="none" stroke="midnightblue" d="M320.369,-664.787C303.368,-652.438 283.506,-638.01 269.071,-627.523"/>
<polygon fill="midnightblue" stroke="midnightblue" points="271.006,-624.603 260.858,-621.558 266.892,-630.267 271.006,-624.603"/>
</g>
<!-- Node7 -->
<g id="node7" class="node"><title>Node7</title>
<polygon fill="none" stroke="#bfbfbf" points="296.577,-602.5 296.577,-621.5 343.577,-621.5 343.577,-602.5 296.577,-602.5"/>
<text text-anchor="middle" x="320.077" y="-609.5" font-family="Helvetica,sans-Serif" font-size="10.00">TFile.h</text>
</g>
<!-- Node1&#45;&gt;Node7 -->
<g id="edge6" class="edge"><title>Node1&#45;&gt;Node7</title>
<path fill="none" stroke="midnightblue" d="M343.617,-664.787C338.586,-653.719 332.796,-640.982 328.217,-630.909"/>
<polygon fill="midnightblue" stroke="midnightblue" points="331.291,-629.213 323.967,-621.558 324.919,-632.11 331.291,-629.213"/>
</g>
<!-- Node8 -->
<g id="node8" class="node"><title>Node8</title>
<polygon fill="none" stroke="#bfbfbf" points="362.077,-602.5 362.077,-621.5 418.077,-621.5 418.077,-602.5 362.077,-602.5"/>
<text text-anchor="middle" x="390.077" y="-609.5" font-family="Helvetica,sans-Serif" font-size="10.00">TString.h</text>
</g>
<!-- Node1&#45;&gt;Node8 -->
<g id="edge7" class="edge"><title>Node1&#45;&gt;Node8</title>
<path fill="none" stroke="midnightblue" d="M366.537,-664.787C371.568,-653.719 377.358,-640.982 381.937,-630.909"/>
<polygon fill="midnightblue" stroke="midnightblue" points="385.235,-632.11 386.187,-621.558 378.863,-629.213 385.235,-632.11"/>
</g>
<!-- Node9 -->
<g id="node9" class="node"><title>Node9</title>
<g id="a_node9"><a xlink:href="../../de/dcd/ClusterNative_8h.html" target="_top" xlink:title="Class of a TPC cluster in TPC&#45;native coordinates (row, time) ">
<polygon fill="none" stroke="black" points="275.577,-472.5 275.577,-491.5 440.577,-491.5 440.577,-472.5 275.577,-472.5"/>
<text text-anchor="middle" x="358.077" y="-479.5" font-family="Helvetica,sans-Serif" font-size="10.00">DataFormatsTPC/ClusterNative.h</text>
</a>
</g>
</g>
<!-- Node1&#45;&gt;Node9 -->
<g id="edge8" class="edge"><title>Node1&#45;&gt;Node9</title>
<path fill="none" stroke="midnightblue" d="M253.035,-674.643C200.02,-664.358 143.02,-648.858 127.077,-628 73.4709,-557.87 220.435,-512.987 304.281,-493.77"/>
<polygon fill="midnightblue" stroke="midnightblue" points="305.183,-497.154 314.176,-491.553 303.653,-490.324 305.183,-497.154"/>
</g>
<!-- Node10 -->
<g id="node10" class="node"><title>Node10</title>
<g id="a_node10"><a xlink:href="../../d6/d51/TPC_2base_2include_2TPCBase_2Constants_8h.html" target="_top" xlink:title="TPCBase/Constants.h">
<polygon fill="none" stroke="black" points="354.077,-192.5 354.077,-211.5 470.077,-211.5 470.077,-192.5 354.077,-192.5"/>
<text text-anchor="middle" x="412.077" y="-199.5" font-family="Helvetica,sans-Serif" font-size="10.00">TPCBase/Constants.h</text>
</a>
</g>
</g>
<!-- Node1&#45;&gt;Node10 -->
<g id="edge70" class="edge"><title>Node1&#45;&gt;Node10</title>
<path fill="none" stroke="midnightblue" d="M253.031,-683.212C167.317,-675.384 53.7412,-659.336 21.0771,-628 -6.2314,-601.802 2.07713,-582.843 2.07713,-545 2.07713,-545 2.07713,-545 2.07713,-313 2.07713,-243.16 226.806,-216.439 343.507,-207.271"/>
<polygon fill="midnightblue" stroke="midnightblue" points="344.065,-210.739 353.77,-206.489 343.532,-203.759 344.065,-210.739"/>
</g>
<!-- Node11 -->
<g id="node11" class="node"><title>Node11</title>
<g id="a_node11"><a xlink:href="../../d3/dc4/ClusterHardware_8h.html" target="_top" xlink:title="Class of a TPC cluster as produced by the hardware cluster finder (needs a postprocessing step to con...">
<polygon fill="none" stroke="black" points="602.577,-602.5 602.577,-621.5 781.577,-621.5 781.577,-602.5 602.577,-602.5"/>
<text text-anchor="middle" x="692.077" y="-609.5" font-family="Helvetica,sans-Serif" font-size="10.00">DataFormatsTPC/ClusterHardware.h</text>
</a>
</g>
</g>
<!-- Node1&#45;&gt;Node11 -->
<g id="edge11" class="edge"><title>Node1&#45;&gt;Node11</title>
<path fill="none" stroke="midnightblue" d="M457.103,-666.689C519.5,-652.432 596.381,-634.865 644.829,-623.795"/>
<polygon fill="midnightblue" stroke="midnightblue" points="645.752,-627.175 654.721,-621.535 644.192,-620.351 645.752,-627.175"/>
</g>
<!-- Node13 -->
<g id="node13" class="node"><title>Node13</title>
<g id="a_node13"><a xlink:href="../../d2/d41/HardwareClusterDecoder_8h.html" target="_top" xlink:title="TPCReconstruction/Hardware\lClusterDecoder.h">
<polygon fill="none" stroke="black" points="436.077,-597 436.077,-627 584.077,-627 584.077,-597 436.077,-597"/>
<text text-anchor="start" x="444.077" y="-615" font-family="Helvetica,sans-Serif" font-size="10.00">TPCReconstruction/Hardware</text>
<text text-anchor="middle" x="510.077" y="-604" font-family="Helvetica,sans-Serif" font-size="10.00">ClusterDecoder.h</text>
</a>
</g>
</g>
<!-- Node1&#45;&gt;Node13 -->
<g id="edge13" class="edge"><title>Node1&#45;&gt;Node13</title>
<path fill="none" stroke="midnightblue" d="M405.83,-664.787C427.629,-653.958 452.645,-641.531 472.707,-631.564"/>
<polygon fill="midnightblue" stroke="midnightblue" points="474.435,-634.614 481.834,-627.031 471.321,-628.345 474.435,-634.614"/>
</g>
<!-- Node39 -->
<g id="node39" class="node"><title>Node39</title>
<g id="a_node39"><a xlink:href="../../df/d26/CRU_8h.html" target="_top" xlink:title="TPCBase/CRU.h">
<polygon fill="none" stroke="black" points="1352.58,-360.5 1352.58,-379.5 1445.58,-379.5 1445.58,-360.5 1352.58,-360.5"/>
<text text-anchor="middle" x="1399.08" y="-367.5" font-family="Helvetica,sans-Serif" font-size="10.00">TPCBase/CRU.h</text>
</a>
</g>
</g>
<!-- Node1&#45;&gt;Node39 -->
<g id="edge71" class="edge"><title>Node1&#45;&gt;Node39</title>
<path fill="none" stroke="midnightblue" d="M457.262,-686.919C726.73,-677.441 1436.08,-643.168 1436.08,-545 1436.08,-545 1436.08,-545 1436.08,-481 1436.08,-446.889 1419.9,-409.787 1408.93,-388.568"/>
<polygon fill="midnightblue" stroke="midnightblue" points="1411.88,-386.662 1404.07,-379.51 1405.72,-389.976 1411.88,-386.662"/>
</g>
<!-- Node9&#45;&gt;Node2 -->
<g id="edge9" class="edge"><title>Node9&#45;&gt;Node2</title>
<path fill="none" stroke="midnightblue" d="M378.479,-472.368C424.234,-453.01 535.197,-406.065 588.514,-383.507"/>
<polygon fill="midnightblue" stroke="midnightblue" points="589.924,-386.711 597.77,-379.591 587.197,-380.264 589.924,-386.711"/>
</g>
<!-- Node9&#45;&gt;Node10 -->
<g id="edge10" class="edge"><title>Node9&#45;&gt;Node10</title>
<path fill="none" stroke="midnightblue" d="M361.718,-472.338C369.088,-453.996 385.077,-409.738 385.077,-371 385.077,-371 385.077,-371 385.077,-313 385.077,-279.861 396.778,-242.682 404.774,-221.144"/>
<polygon fill="midnightblue" stroke="midnightblue" points="408.099,-222.252 408.436,-211.662 401.569,-219.73 408.099,-222.252"/>
</g>
<!-- Node12 -->
<g id="node12" class="node"><title>Node12</title>
<polygon fill="none" stroke="#bfbfbf" points="669.077,-534.5 669.077,-553.5 715.077,-553.5 715.077,-534.5 669.077,-534.5"/>
<text text-anchor="middle" x="692.077" y="-541.5" font-family="Helvetica,sans-Serif" font-size="10.00">cstdint</text>
</g>
<!-- Node11&#45;&gt;Node12 -->
<g id="edge12" class="edge"><title>Node11&#45;&gt;Node12</title>
<path fill="none" stroke="midnightblue" d="M692.077,-602.372C692.077,-592.643 692.077,-576.528 692.077,-563.85"/>
<polygon fill="midnightblue" stroke="midnightblue" points="695.577,-563.841 692.077,-553.841 688.577,-563.841 695.577,-563.841"/>
</g>
<!-- Node13&#45;&gt;Node2 -->
<g id="edge14" class="edge"><title>Node13&#45;&gt;Node2</title>
<path fill="none" stroke="midnightblue" d="M541.957,-596.999C557.621,-588.51 575.383,-576.169 586.077,-560 621.527,-506.399 621.704,-426.125 619.651,-389.914"/>
<polygon fill="midnightblue" stroke="midnightblue" points="623.133,-389.529 618.948,-379.796 616.15,-390.014 623.133,-389.529"/>
</g>
<!-- Node13&#45;&gt;Node9 -->
<g id="edge69" class="edge"><title>Node13&#45;&gt;Node9</title>
<path fill="none" stroke="midnightblue" d="M486.608,-596.971C471.132,-587.313 450.724,-573.78 434.077,-560 410.914,-540.825 386.999,-515.519 372.332,-499.25"/>
<polygon fill="midnightblue" stroke="midnightblue" points="374.823,-496.784 365.558,-491.646 369.596,-501.441 374.823,-496.784"/>
</g>
<!-- Node14 -->
<g id="node14" class="node"><title>Node14</title>
<g id="a_node14"><a xlink:href="../../db/d19/DigitalCurrentClusterIntegrator_8h.html" target="_top" xlink:title="TPCReconstruction/Digital\lCurrentClusterIntegrator.h">
<polygon fill="none" stroke="black" points="443.077,-529 443.077,-559 577.077,-559 577.077,-529 443.077,-529"/>
<text text-anchor="start" x="451.077" y="-547" font-family="Helvetica,sans-Serif" font-size="10.00">TPCReconstruction/Digital</text>
<text text-anchor="middle" x="510.077" y="-536" font-family="Helvetica,sans-Serif" font-size="10.00">CurrentClusterIntegrator.h</text>
</a>
</g>
</g>
<!-- Node13&#45;&gt;Node14 -->
<g id="edge15" class="edge"><title>Node13&#45;&gt;Node14</title>
<path fill="none" stroke="midnightblue" d="M510.077,-596.679C510.077,-588.722 510.077,-578.605 510.077,-569.436"/>
<polygon fill="midnightblue" stroke="midnightblue" points="513.577,-569.293 510.077,-559.293 506.577,-569.293 513.577,-569.293"/>
</g>
<!-- Node14&#45;&gt;Node2 -->
<g id="edge16" class="edge"><title>Node14&#45;&gt;Node2</title>
<path fill="none" stroke="midnightblue" d="M511.888,-528.956C514.237,-514.104 519.254,-490.333 529.077,-472 547.607,-437.418 580.106,-404.76 600.285,-386.373"/>
<polygon fill="midnightblue" stroke="midnightblue" points="602.724,-388.887 607.855,-379.618 598.064,-383.664 602.724,-388.887"/>
</g>
<!-- Node14&#45;&gt;Node9 -->
<g id="edge18" class="edge"><title>Node14&#45;&gt;Node9</title>
<path fill="none" stroke="midnightblue" d="M474.44,-528.933C448.681,-518.765 414.208,-505.157 389.481,-495.396"/>
<polygon fill="midnightblue" stroke="midnightblue" points="390.451,-492.016 379.864,-491.6 387.88,-498.527 390.451,-492.016"/>
</g>
<!-- Node14&#45;&gt;Node10 -->
<g id="edge19" class="edge"><title>Node14&#45;&gt;Node10</title>
<path fill="none" stroke="midnightblue" d="M503.773,-528.594C491.607,-499.44 466.077,-431.104 466.077,-371 466.077,-371 466.077,-371 466.077,-313 466.077,-276.863 442.303,-240.252 426.304,-219.706"/>
<polygon fill="midnightblue" stroke="midnightblue" points="428.828,-217.262 419.814,-211.694 423.388,-221.668 428.828,-217.262"/>
</g>
<!-- Node15 -->
<g id="node15" class="node"><title>Node15</title>
<polygon fill="none" stroke="#bfbfbf" points="538.077,-472.5 538.077,-491.5 590.077,-491.5 590.077,-472.5 538.077,-472.5"/>
<text text-anchor="middle" x="564.077" y="-479.5" font-family="Helvetica,sans-Serif" font-size="10.00">memory</text>
</g>
<!-- Node14&#45;&gt;Node15 -->
<g id="edge17" class="edge"><title>Node14&#45;&gt;Node15</title>
<path fill="none" stroke="midnightblue" d="M522.874,-528.781C530.802,-519.972 541.014,-508.626 549.287,-499.433"/>
<polygon fill="midnightblue" stroke="midnightblue" points="552.132,-501.505 556.22,-491.731 546.928,-496.822 552.132,-501.505"/>
</g>
<!-- Node16 -->
<g id="node16" class="node"><title>Node16</title>
<g id="a_node16"><a xlink:href="../../d7/d2c/Mapper_8h.html" target="_top" xlink:title="TPCBase/Mapper.h">
<polygon fill="none" stroke="black" points="1075.58,-472.5 1075.58,-491.5 1178.58,-491.5 1178.58,-472.5 1075.58,-472.5"/>
<text text-anchor="middle" x="1127.08" y="-479.5" font-family="Helvetica,sans-Serif" font-size="10.00">TPCBase/Mapper.h</text>
</a>
</g>
</g>
<!-- Node14&#45;&gt;Node16 -->
<g id="edge20" class="edge"><title>Node14&#45;&gt;Node16</title>
<path fill="none" stroke="midnightblue" d="M577.275,-536.228C603.154,-533.634 632.989,-530.66 660.077,-528 805.258,-513.746 975.87,-497.412 1065.27,-488.884"/>
<polygon fill="midnightblue" stroke="midnightblue" points="1065.62,-492.367 1075.24,-487.933 1064.95,-485.398 1065.62,-492.367"/>
</g>
<!-- Node16&#45;&gt;Node2 -->
<g id="edge22" class="edge"><title>Node16&#45;&gt;Node2</title>
<path fill="none" stroke="midnightblue" d="M1075.44,-481.198C999.681,-480.122 854.773,-472.841 738.077,-436 700.777,-424.225 661.682,-400.606 638.618,-385.315"/>
<polygon fill="midnightblue" stroke="midnightblue" points="640.569,-382.409 630.322,-379.714 636.651,-388.211 640.569,-382.409"/>
</g>
<!-- Node17 -->
<g id="node17" class="node"><title>Node17</title>
<polygon fill="none" stroke="#bfbfbf" points="1054.58,-416.5 1054.58,-435.5 1089.58,-435.5 1089.58,-416.5 1054.58,-416.5"/>
<text text-anchor="middle" x="1072.08" y="-423.5" font-family="Helvetica,sans-Serif" font-size="10.00">map</text>
</g>
<!-- Node16&#45;&gt;Node17 -->
<g id="edge21" class="edge"><title>Node16&#45;&gt;Node17</title>
<path fill="none" stroke="midnightblue" d="M1118,-472.083C1109.91,-464.141 1097.88,-452.335 1088.17,-442.797"/>
<polygon fill="midnightblue" stroke="midnightblue" points="1090.58,-440.26 1080.99,-435.751 1085.67,-445.254 1090.58,-440.26"/>
</g>
<!-- Node18 -->
<g id="node18" class="node"><title>Node18</title>
<polygon fill="none" stroke="#bfbfbf" points="1108.08,-416.5 1108.08,-435.5 1146.08,-435.5 1146.08,-416.5 1108.08,-416.5"/>
<text text-anchor="middle" x="1127.08" y="-423.5" font-family="Helvetica,sans-Serif" font-size="10.00">array</text>
</g>
<!-- Node16&#45;&gt;Node18 -->
<g id="edge23" class="edge"><title>Node16&#45;&gt;Node18</title>
<path fill="none" stroke="midnightblue" d="M1127.08,-472.083C1127.08,-465.006 1127.08,-454.861 1127.08,-445.986"/>
<polygon fill="midnightblue" stroke="midnightblue" points="1130.58,-445.751 1127.08,-435.751 1123.58,-445.751 1130.58,-445.751"/>
</g>
<!-- Node19 -->
<g id="node19" class="node"><title>Node19</title>
<polygon fill="none" stroke="#bfbfbf" points="1164.58,-416.5 1164.58,-435.5 1205.58,-435.5 1205.58,-416.5 1164.58,-416.5"/>
<text text-anchor="middle" x="1185.08" y="-423.5" font-family="Helvetica,sans-Serif" font-size="10.00">string</text>
</g>
<!-- Node16&#45;&gt;Node19 -->
<g id="edge24" class="edge"><title>Node16&#45;&gt;Node19</title>
<path fill="none" stroke="midnightblue" d="M1136.4,-472.324C1144.97,-464.341 1157.89,-452.313 1168.26,-442.653"/>
<polygon fill="midnightblue" stroke="midnightblue" points="1170.65,-445.21 1175.59,-435.834 1165.88,-440.086 1170.65,-445.21"/>
</g>
<!-- Node20 -->
<g id="node20" class="node"><title>Node20</title>
<polygon fill="none" stroke="#bfbfbf" points="1402.08,-136.5 1402.08,-155.5 1446.08,-155.5 1446.08,-136.5 1402.08,-136.5"/>
<text text-anchor="middle" x="1424.08" y="-143.5" font-family="Helvetica,sans-Serif" font-size="10.00">cmath</text>
</g>
<!-- Node16&#45;&gt;Node20 -->
<g id="edge25" class="edge"><title>Node16&#45;&gt;Node20</title>
<path fill="none" stroke="midnightblue" d="M1178.73,-477.445C1254.04,-471.586 1389.74,-458.277 1433.08,-436 1463.83,-420.194 1473.85,-411.946 1487.08,-380 1519.14,-302.548 1462.62,-203.865 1436.39,-164.427"/>
<polygon fill="midnightblue" stroke="midnightblue" points="1438.97,-162.007 1430.44,-155.726 1433.19,-165.957 1438.97,-162.007"/>
</g>
<!-- Node21 -->
<g id="node21" class="node"><title>Node21</title>
<g id="a_node21"><a xlink:href="../../d1/d73/Defs_8h.html" target="_top" xlink:title="Common definitions for 2D coordinates. ">
<polygon fill="none" stroke="black" points="1160.08,-192.5 1160.08,-211.5 1252.08,-211.5 1252.08,-192.5 1160.08,-192.5"/>
<text text-anchor="middle" x="1206.08" y="-199.5" font-family="Helvetica,sans-Serif" font-size="10.00">TPCBase/Defs.h</text>
</a>
</g>
</g>
<!-- Node16&#45;&gt;Node21 -->
<g id="edge26" class="edge"><title>Node16&#45;&gt;Node21</title>
<path fill="none" stroke="midnightblue" d="M1178.75,-480.169C1234.48,-477.521 1324.66,-468.073 1395.08,-436 1436.45,-417.152 1474.08,-416.468 1474.08,-371 1474.08,-371 1474.08,-371 1474.08,-313 1474.08,-222.269 1340.99,-204.787 1262.39,-202.375"/>
<polygon fill="midnightblue" stroke="midnightblue" points="1262.23,-198.871 1252.15,-202.136 1262.06,-205.869 1262.23,-198.871"/>
</g>
<!-- Node33 -->
<g id="node33" class="node"><title>Node33</title>
<g id="a_node33"><a xlink:href="../../de/d41/PadPos_8h.html" target="_top" xlink:title="TPCBase/PadPos.h">
<polygon fill="none" stroke="black" points="1044.58,-304.5 1044.58,-323.5 1149.58,-323.5 1149.58,-304.5 1044.58,-304.5"/>
<text text-anchor="middle" x="1097.08" y="-311.5" font-family="Helvetica,sans-Serif" font-size="10.00">TPCBase/PadPos.h</text>
</a>
</g>
</g>
<!-- Node16&#45;&gt;Node33 -->
<g id="edge41" class="edge"><title>Node16&#45;&gt;Node33</title>
<path fill="none" stroke="midnightblue" d="M1157.51,-472.481C1188.94,-462.046 1231.17,-442.441 1214.08,-416 1192.91,-383.258 1162.92,-406.235 1134.08,-380 1119.99,-367.189 1109.9,-347.73 1103.85,-333.441"/>
<polygon fill="midnightblue" stroke="midnightblue" points="1106.94,-331.734 1100.02,-323.718 1100.43,-334.304 1106.94,-331.734"/>
</g>
<!-- Node34 -->
<g id="node34" class="node"><title>Node34</title>
<g id="a_node34"><a xlink:href="../../dd/d0b/PadSecPos_8h.html" target="_top" xlink:title="TPCBase/PadSecPos.h">
<polygon fill="none" stroke="black" points="914.077,-360.5 914.077,-379.5 1036.08,-379.5 1036.08,-360.5 914.077,-360.5"/>
<text text-anchor="middle" x="975.077" y="-367.5" font-family="Helvetica,sans-Serif" font-size="10.00">TPCBase/PadSecPos.h</text>
</a>
</g>
</g>
<!-- Node16&#45;&gt;Node34 -->
<g id="edge42" class="edge"><title>Node16&#45;&gt;Node34</title>
<path fill="none" stroke="midnightblue" d="M1075.32,-478.557C977.258,-473.394 772.242,-459.849 751.077,-436 704.875,-383.938 821.717,-372.486 903.475,-370.58"/>
<polygon fill="midnightblue" stroke="midnightblue" points="903.825,-374.074 913.757,-370.385 903.692,-367.075 903.825,-374.074"/>
</g>
<!-- Node35 -->
<g id="node35" class="node"><title>Node35</title>
<g id="a_node35"><a xlink:href="../../d3/dd6/Sector_8h.html" target="_top" xlink:title="TPCBase/Sector.h">
<polygon fill="none" stroke="black" points="1007.58,-248.5 1007.58,-267.5 1106.58,-267.5 1106.58,-248.5 1007.58,-248.5"/>
<text text-anchor="middle" x="1057.08" y="-255.5" font-family="Helvetica,sans-Serif" font-size="10.00">TPCBase/Sector.h</text>
</a>
</g>
</g>
<!-- Node16&#45;&gt;Node35 -->
<g id="edge68" class="edge"><title>Node16&#45;&gt;Node35</title>
<path fill="none" stroke="midnightblue" d="M1075.44,-480.542C950.18,-478.107 636.794,-463.62 587.077,-380 543.642,-306.944 860.556,-273.887 996.839,-263.157"/>
<polygon fill="midnightblue" stroke="midnightblue" points="997.412,-266.623 1007.11,-262.363 996.873,-259.644 997.412,-266.623"/>
</g>
<!-- Node36 -->
<g id="node36" class="node"><title>Node36</title>
<g id="a_node36"><a xlink:href="../../da/d61/PadROCPos_8h.html" target="_top" xlink:title="TPCBase/PadROCPos.h">
<polygon fill="none" stroke="black" points="1206.08,-360.5 1206.08,-379.5 1334.08,-379.5 1334.08,-360.5 1206.08,-360.5"/>
<text text-anchor="middle" x="1270.08" y="-367.5" font-family="Helvetica,sans-Serif" font-size="10.00">TPCBase/PadROCPos.h</text>
</a>
</g>
</g>
<!-- Node16&#45;&gt;Node36 -->
<g id="edge47" class="edge"><title>Node16&#45;&gt;Node36</title>
<path fill="none" stroke="midnightblue" d="M1178.73,-479.32C1244.9,-475.954 1354.04,-465.901 1379.08,-436 1400.31,-410.645 1359.18,-392.678 1321.51,-382.151"/>
<polygon fill="midnightblue" stroke="midnightblue" points="1322.11,-378.688 1311.54,-379.508 1320.31,-385.455 1322.11,-378.688"/>
</g>
<!-- Node38 -->
<g id="node38" class="node"><title>Node38</title>
<g id="a_node38"><a xlink:href="../../d3/d54/DigitPos_8h.html" target="_top" xlink:title="TPCBase/DigitPos.h">
<polygon fill="none" stroke="black" points="1262.08,-416.5 1262.08,-435.5 1370.08,-435.5 1370.08,-416.5 1262.08,-416.5"/>
<text text-anchor="middle" x="1316.08" y="-423.5" font-family="Helvetica,sans-Serif" font-size="10.00">TPCBase/DigitPos.h</text>
</a>
</g>
</g>
<!-- Node16&#45;&gt;Node38 -->
<g id="edge53" class="edge"><title>Node16&#45;&gt;Node38</title>
<path fill="none" stroke="midnightblue" d="M1157.02,-472.444C1189.23,-463.241 1240.61,-448.562 1276.22,-438.388"/>
<polygon fill="midnightblue" stroke="midnightblue" points="1277.62,-441.629 1286.27,-435.516 1275.69,-434.898 1277.62,-441.629"/>
</g>
<!-- Node40 -->
<g id="node40" class="node"><title>Node40</title>
<g id="a_node40"><a xlink:href="../../d1/d1f/FECInfo_8h.html" target="_top" xlink:title="TPCBase/FECInfo.h">
<polygon fill="none" stroke="black" points="1628.58,-248.5 1628.58,-267.5 1735.58,-267.5 1735.58,-248.5 1628.58,-248.5"/>
<text text-anchor="middle" x="1682.08" y="-255.5" font-family="Helvetica,sans-Serif" font-size="10.00">TPCBase/FECInfo.h</text>
</a>
</g>
</g>
<!-- Node16&#45;&gt;Node40 -->
<g id="edge61" class="edge"><title>Node16&#45;&gt;Node40</title>
<path fill="none" stroke="midnightblue" d="M1178.89,-478.401C1265.19,-473.435 1434.23,-460.814 1488.08,-436 1570.53,-398.005 1642.09,-312.028 1669.81,-275.701"/>
<polygon fill="midnightblue" stroke="midnightblue" points="1672.7,-277.694 1675.9,-267.595 1667.1,-273.491 1672.7,-277.694"/>
</g>
<!-- Node41 -->
<g id="node41" class="node"><title>Node41</title>
<g id="a_node41"><a xlink:href="../../da/d9d/PadRegionInfo_8h.html" target="_top" xlink:title="TPCBase/PadRegionInfo.h">
<polygon fill="none" stroke="black" points="901.577,-416.5 901.577,-435.5 1036.58,-435.5 1036.58,-416.5 901.577,-416.5"/>
<text text-anchor="middle" x="969.077" y="-423.5" font-family="Helvetica,sans-Serif" font-size="10.00">TPCBase/PadRegionInfo.h</text>
</a>
</g>
</g>
<!-- Node16&#45;&gt;Node41 -->
<g id="edge63" class="edge"><title>Node16&#45;&gt;Node41</title>
<path fill="none" stroke="midnightblue" d="M1102.04,-472.444C1075.46,-463.359 1033.27,-448.939 1003.55,-438.783"/>
<polygon fill="midnightblue" stroke="midnightblue" points="1004.59,-435.439 993.996,-435.516 1002.33,-442.062 1004.59,-435.439"/>
</g>
<!-- Node42 -->
<g id="node42" class="node"><title>Node42</title>
<g id="a_node42"><a xlink:href="../../d6/d42/PartitionInfo_8h.html" target="_top" xlink:title="TPCBase/PartitionInfo.h">
<polygon fill="none" stroke="black" points="760.577,-416.5 760.577,-435.5 883.577,-435.5 883.577,-416.5 760.577,-416.5"/>
<text text-anchor="middle" x="822.077" y="-423.5" font-family="Helvetica,sans-Serif" font-size="10.00">TPCBase/PartitionInfo.h</text>
</a>
</g>
</g>
<!-- Node16&#45;&gt;Node42 -->
<g id="edge67" class="edge"><title>Node16&#45;&gt;Node42</title>
<path fill="none" stroke="midnightblue" d="M1078.75,-472.444C1024.87,-462.905 937.77,-447.483 880.213,-437.293"/>
<polygon fill="midnightblue" stroke="midnightblue" points="880.636,-433.813 870.179,-435.516 879.416,-440.706 880.636,-433.813"/>
</g>
<!-- Node21&#45;&gt;Node20 -->
<g id="edge27" class="edge"><title>Node21&#45;&gt;Node20</title>
<path fill="none" stroke="midnightblue" d="M1240.62,-192.444C1282.26,-182.13 1351.66,-164.938 1392.11,-154.918"/>
<polygon fill="midnightblue" stroke="midnightblue" points="1393.11,-158.275 1401.98,-152.474 1391.43,-151.481 1393.11,-158.275"/>
</g>
<!-- Node22 -->
<g id="node22" class="node"><title>Node22</title>
<g id="a_node22"><a xlink:href="../../d2/dd0/Cartesian2D_8h.html" target="_top" xlink:title="MathUtils/Cartesian2D.h">
<polygon fill="none" stroke="black" points="614.577,-74.5 614.577,-93.5 739.577,-93.5 739.577,-74.5 614.577,-74.5"/>
<text text-anchor="middle" x="677.077" y="-81.5" font-family="Helvetica,sans-Serif" font-size="10.00">MathUtils/Cartesian2D.h</text>
</a>
</g>
</g>
<!-- Node21&#45;&gt;Node22 -->
<g id="edge28" class="edge"><title>Node21&#45;&gt;Node22</title>
<path fill="none" stroke="midnightblue" d="M1167.18,-192.47C1072.5,-171.71 830.222,-118.582 725.977,-95.7228"/>
<polygon fill="midnightblue" stroke="midnightblue" points="726.55,-92.2655 716.033,-93.5423 725.051,-99.103 726.55,-92.2655"/>
</g>
<!-- Node25 -->
<g id="node25" class="node"><title>Node25</title>
<g id="a_node25"><a xlink:href="../../dd/d76/Cartesian3D_8h.html" target="_top" xlink:title="MathUtils/Cartesian3D.h">
<polygon fill="none" stroke="black" points="1134.58,-136.5 1134.58,-155.5 1259.58,-155.5 1259.58,-136.5 1134.58,-136.5"/>
<text text-anchor="middle" x="1197.08" y="-143.5" font-family="Helvetica,sans-Serif" font-size="10.00">MathUtils/Cartesian3D.h</text>
</a>
</g>
</g>
<!-- Node21&#45;&gt;Node25 -->
<g id="edge31" class="edge"><title>Node21&#45;&gt;Node25</title>
<path fill="none" stroke="midnightblue" d="M1204.59,-192.083C1203.4,-184.927 1201.68,-174.635 1200.19,-165.691"/>
<polygon fill="midnightblue" stroke="midnightblue" points="1203.63,-165.04 1198.54,-155.751 1196.73,-166.19 1203.63,-165.04"/>
</g>
<!-- Node23 -->
<g id="node23" class="node"><title>Node23</title>
<polygon fill="none" stroke="#bfbfbf" points="510.577,-1 510.577,-31 661.577,-31 661.577,-1 510.577,-1"/>
<text text-anchor="start" x="518.577" y="-19" font-family="Helvetica,sans-Serif" font-size="10.00">Math/GenVector/Displacement</text>
<text text-anchor="middle" x="586.077" y="-8" font-family="Helvetica,sans-Serif" font-size="10.00">Vector2D.h</text>
</g>
<!-- Node22&#45;&gt;Node23 -->
<g id="edge29" class="edge"><title>Node22&#45;&gt;Node23</title>
<path fill="none" stroke="midnightblue" d="M665.18,-74.3717C652.298,-65.0286 631.297,-49.7966 614.17,-37.375"/>
<polygon fill="midnightblue" stroke="midnightblue" points="615.78,-34.2194 605.63,-31.1815 611.671,-39.8859 615.78,-34.2194"/>
</g>
<!-- Node24 -->
<g id="node24" class="node"><title>Node24</title>
<polygon fill="none" stroke="#bfbfbf" points="680.077,-6.5 680.077,-25.5 856.077,-25.5 856.077,-6.5 680.077,-6.5"/>
<text text-anchor="middle" x="768.077" y="-13.5" font-family="Helvetica,sans-Serif" font-size="10.00">Math/GenVector/PositionVector2D.h</text>
</g>
<!-- Node22&#45;&gt;Node24 -->
<g id="edge30" class="edge"><title>Node22&#45;&gt;Node24</title>
<path fill="none" stroke="midnightblue" d="M688.974,-74.3717C703.961,-63.5015 729.94,-44.6602 748.019,-31.5474"/>
<polygon fill="midnightblue" stroke="midnightblue" points="750.137,-34.3349 756.178,-25.6305 746.028,-28.6684 750.137,-34.3349"/>
</g>
<!-- Node25&#45;&gt;Node4 -->
<g id="edge40" class="edge"><title>Node25&#45;&gt;Node4</title>
<path fill="none" stroke="midnightblue" d="M1259.63,-141.468C1403.31,-133.192 1748.55,-112.318 1800.08,-100 1803.08,-99.2833 1806.15,-98.347 1809.17,-97.2919"/>
<polygon fill="midnightblue" stroke="midnightblue" points="1810.47,-100.541 1818.51,-93.6403 1807.92,-94.0211 1810.47,-100.541"/>
</g>
<!-- Node25&#45;&gt;Node22 -->
<g id="edge39" class="edge"><title>Node25&#45;&gt;Node22</title>
<path fill="none" stroke="midnightblue" d="M1134.49,-140.803C1047.64,-134.505 885.825,-121.053 749.077,-100 741.002,-98.7569 732.466,-97.1981 724.204,-95.5592"/>
<polygon fill="midnightblue" stroke="midnightblue" points="724.809,-92.1106 714.311,-93.5361 723.407,-98.9687 724.809,-92.1106"/>
</g>
<!-- Node26 -->
<g id="node26" class="node"><title>Node26</title>
<polygon fill="none" stroke="#bfbfbf" points="1467.58,-74.5 1467.58,-93.5 1616.58,-93.5 1616.58,-74.5 1467.58,-74.5"/>
<text text-anchor="middle" x="1542.08" y="-81.5" font-family="Helvetica,sans-Serif" font-size="10.00">Math/GenVector/Rotation3D.h</text>
</g>
<!-- Node25&#45;&gt;Node26 -->
<g id="edge32" class="edge"><title>Node25&#45;&gt;Node26</title>
<path fill="none" stroke="midnightblue" d="M1247.13,-136.462C1299.68,-127.476 1384.71,-112.875 1458.08,-100 1466.66,-98.493 1475.74,-96.8862 1484.63,-95.3051"/>
<polygon fill="midnightblue" stroke="midnightblue" points="1485.32,-98.7374 1494.55,-93.5375 1484.09,-91.846 1485.32,-98.7374"/>
</g>
<!-- Node27 -->
<g id="node27" class="node"><title>Node27</title>
<polygon fill="none" stroke="#bfbfbf" points="1635.08,-74.5 1635.08,-93.5 1791.08,-93.5 1791.08,-74.5 1635.08,-74.5"/>
<text text-anchor="middle" x="1713.08" y="-81.5" font-family="Helvetica,sans-Serif" font-size="10.00">Math/GenVector/Transform3D.h</text>
</g>
<!-- Node25&#45;&gt;Node27 -->
<g id="edge33" class="edge"><title>Node25&#45;&gt;Node27</title>
<path fill="none" stroke="midnightblue" d="M1259.6,-139.691C1343.1,-132.312 1495.55,-117.83 1625.08,-100 1635.1,-98.621 1645.72,-96.9705 1656,-95.2764"/>
<polygon fill="midnightblue" stroke="midnightblue" points="1656.84,-98.6842 1666.12,-93.5763 1655.68,-91.7809 1656.84,-98.6842"/>
</g>
<!-- Node28 -->
<g id="node28" class="node"><title>Node28</title>
<polygon fill="none" stroke="#bfbfbf" points="758.077,-74.5 758.077,-93.5 918.077,-93.5 918.077,-74.5 758.077,-74.5"/>
<text text-anchor="middle" x="838.077" y="-81.5" font-family="Helvetica,sans-Serif" font-size="10.00">Math/GenVector/Translation3D.h</text>
</g>
<!-- Node25&#45;&gt;Node28 -->
<g id="edge34" class="edge"><title>Node25&#45;&gt;Node28</title>
<path fill="none" stroke="midnightblue" d="M1145.81,-136.485C1091.5,-127.456 1003.24,-112.765 927.077,-100 917.787,-98.4429 907.952,-96.7899 898.34,-95.172"/>
<polygon fill="midnightblue" stroke="midnightblue" points="898.879,-91.7136 888.437,-93.5041 897.717,-98.6164 898.879,-91.7136"/>
</g>
<!-- Node29 -->
<g id="node29" class="node"><title>Node29</title>
<polygon fill="none" stroke="#bfbfbf" points="936.077,-74.5 936.077,-93.5 992.077,-93.5 992.077,-74.5 936.077,-74.5"/>
<text text-anchor="middle" x="964.077" y="-81.5" font-family="Helvetica,sans-Serif" font-size="10.00">Rtypes.h</text>
</g>
<!-- Node25&#45;&gt;Node29 -->
<g id="edge35" class="edge"><title>Node25&#45;&gt;Node29</title>
<path fill="none" stroke="midnightblue" d="M1150.58,-136.5C1110.51,-128.66 1051.36,-115.852 1001.08,-100 998.441,-99.1689 995.729,-98.2328 993.027,-97.2446"/>
<polygon fill="midnightblue" stroke="midnightblue" points="994.04,-93.8832 983.451,-93.5315 991.509,-100.41 994.04,-93.8832"/>
</g>
<!-- Node30 -->
<g id="node30" class="node"><title>Node30</title>
<polygon fill="none" stroke="#bfbfbf" points="1010.08,-74.5 1010.08,-93.5 1086.08,-93.5 1086.08,-74.5 1010.08,-74.5"/>
<text text-anchor="middle" x="1048.08" y="-81.5" font-family="Helvetica,sans-Serif" font-size="10.00">TGeoMatrix.h</text>
</g>
<!-- Node25&#45;&gt;Node30 -->
<g id="edge36" class="edge"><title>Node25&#45;&gt;Node30</title>
<path fill="none" stroke="midnightblue" d="M1175.73,-136.403C1150.39,-126.2 1107.94,-109.105 1079.01,-97.4544"/>
<polygon fill="midnightblue" stroke="midnightblue" points="1079.97,-94.0694 1069.39,-93.5806 1077.35,-100.563 1079.97,-94.0694"/>
</g>
<!-- Node31 -->
<g id="node31" class="node"><title>Node31</title>
<polygon fill="none" stroke="#bfbfbf" points="1104.58,-69 1104.58,-99 1255.58,-99 1255.58,-69 1104.58,-69"/>
<text text-anchor="start" x="1112.58" y="-87" font-family="Helvetica,sans-Serif" font-size="10.00">Math/GenVector/Displacement</text>
<text text-anchor="middle" x="1180.08" y="-76" font-family="Helvetica,sans-Serif" font-size="10.00">Vector3D.h</text>
</g>
<!-- Node25&#45;&gt;Node31 -->
<g id="edge37" class="edge"><title>Node25&#45;&gt;Node31</title>
<path fill="none" stroke="midnightblue" d="M1194.64,-136.403C1192.6,-129.189 1189.58,-118.528 1186.82,-108.782"/>
<polygon fill="midnightblue" stroke="midnightblue" points="1190.18,-107.808 1184.08,-99.1408 1183.44,-109.716 1190.18,-107.808"/>
</g>
<!-- Node32 -->
<g id="node32" class="node"><title>Node32</title>
<polygon fill="none" stroke="#bfbfbf" points="1274.08,-74.5 1274.08,-93.5 1450.08,-93.5 1450.08,-74.5 1274.08,-74.5"/>
<text text-anchor="middle" x="1362.08" y="-81.5" font-family="Helvetica,sans-Serif" font-size="10.00">Math/GenVector/PositionVector3D.h</text>
</g>
<!-- Node25&#45;&gt;Node32 -->
<g id="edge38" class="edge"><title>Node25&#45;&gt;Node32</title>
<path fill="none" stroke="midnightblue" d="M1220.72,-136.403C1249.14,-126.067 1297.02,-108.656 1329.08,-96.9994"/>
<polygon fill="midnightblue" stroke="midnightblue" points="1330.28,-100.287 1338.48,-93.5806 1327.89,-93.7088 1330.28,-100.287"/>
</g>
<!-- Node34&#45;&gt;Node33 -->
<g id="edge46" class="edge"><title>Node34&#45;&gt;Node33</title>
<path fill="none" stroke="midnightblue" d="M994.408,-360.444C1014.4,-351.596 1045.82,-337.687 1068.64,-327.586"/>
<polygon fill="midnightblue" stroke="midnightblue" points="1070.11,-330.764 1077.84,-323.516 1067.28,-324.363 1070.11,-330.764"/>
</g>
<!-- Node34&#45;&gt;Node35 -->
<g id="edge43" class="edge"><title>Node34&#45;&gt;Node35</title>
<path fill="none" stroke="midnightblue" d="M981.512,-360.368C995.104,-342.135 1026.94,-299.426 1044.65,-275.675"/>
<polygon fill="midnightblue" stroke="midnightblue" points="1047.5,-277.701 1050.67,-267.591 1041.89,-273.517 1047.5,-277.701"/>
</g>
<!-- Node35&#45;&gt;Node10 -->
<g id="edge44" class="edge"><title>Node35&#45;&gt;Node10</title>
<path fill="none" stroke="midnightblue" d="M1007.54,-252.852C893.369,-243.294 611.566,-219.701 480.79,-208.753"/>
<polygon fill="midnightblue" stroke="midnightblue" points="480.762,-205.238 470.504,-207.892 480.177,-212.214 480.762,-205.238"/>
</g>
<!-- Node35&#45;&gt;Node21 -->
<g id="edge45" class="edge"><title>Node35&#45;&gt;Node21</title>
<path fill="none" stroke="midnightblue" d="M1080.69,-248.444C1105.53,-239.438 1144.85,-225.189 1172.83,-215.049"/>
<polygon fill="midnightblue" stroke="midnightblue" points="1174.37,-218.214 1182.58,-211.516 1171.98,-211.633 1174.37,-218.214"/>
</g>
<!-- Node36&#45;&gt;Node21 -->
<g id="edge48" class="edge"><title>Node36&#45;&gt;Node21</title>
<path fill="none" stroke="midnightblue" d="M1281.49,-360.145C1295.65,-347.993 1316.93,-325.233 1308.08,-304 1292.1,-265.694 1253.74,-234.482 1228.88,-217.346"/>
<polygon fill="midnightblue" stroke="midnightblue" points="1230.66,-214.326 1220.4,-211.683 1226.78,-220.147 1230.66,-214.326"/>
</g>
<!-- Node36&#45;&gt;Node33 -->
<g id="edge52" class="edge"><title>Node36&#45;&gt;Node33</title>
<path fill="none" stroke="midnightblue" d="M1242.66,-360.444C1213.31,-351.28 1166.56,-336.688 1133.98,-326.519"/>
<polygon fill="midnightblue" stroke="midnightblue" points="1134.95,-323.155 1124.36,-323.516 1132.86,-329.837 1134.95,-323.155"/>
</g>
<!-- Node37 -->
<g id="node37" class="node"><title>Node37</title>
<g id="a_node37"><a xlink:href="../../dc/d14/ROC_8h.html" target="_top" xlink:title="TPCBase/ROC.h">
<polygon fill="none" stroke="black" points="1206.58,-304.5 1206.58,-323.5 1299.58,-323.5 1299.58,-304.5 1206.58,-304.5"/>
<text text-anchor="middle" x="1253.08" y="-311.5" font-family="Helvetica,sans-Serif" font-size="10.00">TPCBase/ROC.h</text>
</a>
</g>
</g>
<!-- Node36&#45;&gt;Node37 -->
<g id="edge49" class="edge"><title>Node36&#45;&gt;Node37</title>
<path fill="none" stroke="midnightblue" d="M1267.27,-360.083C1264.99,-352.849 1261.71,-342.409 1258.87,-333.397"/>
<polygon fill="midnightblue" stroke="midnightblue" points="1262.17,-332.239 1255.83,-323.751 1255.5,-334.341 1262.17,-332.239"/>
</g>
<!-- Node37&#45;&gt;Node21 -->
<g id="edge50" class="edge"><title>Node37&#45;&gt;Node21</title>
<path fill="none" stroke="midnightblue" d="M1249.39,-304.368C1241.74,-286.456 1223.99,-244.923 1213.75,-220.948"/>
<polygon fill="midnightblue" stroke="midnightblue" points="1216.9,-219.412 1209.75,-211.591 1210.46,-222.162 1216.9,-219.412"/>
</g>
<!-- Node37&#45;&gt;Node35 -->
<g id="edge51" class="edge"><title>Node37&#45;&gt;Node35</title>
<path fill="none" stroke="midnightblue" d="M1222.02,-304.444C1188.47,-295.201 1134.88,-280.436 1097.94,-270.257"/>
<polygon fill="midnightblue" stroke="midnightblue" points="1098.56,-266.798 1087.99,-267.516 1096.7,-273.547 1098.56,-266.798"/>
</g>
<!-- Node38&#45;&gt;Node21 -->
<g id="edge54" class="edge"><title>Node38&#45;&gt;Node21</title>
<path fill="none" stroke="midnightblue" d="M1261.92,-418.411C1237.89,-412.487 1211.77,-401.261 1197.08,-380 1163.46,-331.347 1185.39,-255.98 1198.41,-221.436"/>
<polygon fill="midnightblue" stroke="midnightblue" points="1201.83,-222.327 1202.25,-211.74 1195.32,-219.753 1201.83,-222.327"/>
</g>
<!-- Node38&#45;&gt;Node33 -->
<g id="edge59" class="edge"><title>Node38&#45;&gt;Node33</title>
<path fill="none" stroke="midnightblue" d="M1265.71,-416.459C1234.87,-409.726 1195.44,-398.335 1164.08,-380 1142.32,-367.282 1122.28,-346.035 1109.89,-331.311"/>
<polygon fill="midnightblue" stroke="midnightblue" points="1112.56,-329.047 1103.53,-323.509 1107.14,-333.471 1112.56,-329.047"/>
</g>
<!-- Node38&#45;&gt;Node34 -->
<g id="edge60" class="edge"><title>Node38&#45;&gt;Node34</title>
<path fill="none" stroke="midnightblue" d="M1262.04,-416.444C1201.44,-406.846 1103.21,-391.292 1038.88,-381.104"/>
<polygon fill="midnightblue" stroke="midnightblue" points="1039.28,-377.624 1028.86,-379.516 1038.19,-384.538 1039.28,-377.624"/>
</g>
<!-- Node38&#45;&gt;Node39 -->
<g id="edge55" class="edge"><title>Node38&#45;&gt;Node39</title>
<path fill="none" stroke="midnightblue" d="M1329.41,-416.324C1342.24,-407.979 1361.86,-395.212 1377.02,-385.352"/>
<polygon fill="midnightblue" stroke="midnightblue" points="1379.3,-388.042 1385.77,-379.655 1375.48,-382.174 1379.3,-388.042"/>
</g>
<!-- Node39&#45;&gt;Node21 -->
<g id="edge56" class="edge"><title>Node39&#45;&gt;Node21</title>
<path fill="none" stroke="midnightblue" d="M1393.03,-360.454C1377.74,-339.289 1335.48,-283.576 1290.08,-248 1273.53,-235.034 1252.72,-223.853 1235.95,-215.88"/>
<polygon fill="midnightblue" stroke="midnightblue" points="1237.15,-212.58 1226.6,-211.566 1234.22,-218.936 1237.15,-212.58"/>
</g>
<!-- Node39&#45;&gt;Node35 -->
<g id="edge57" class="edge"><title>Node39&#45;&gt;Node35</title>
<path fill="none" stroke="midnightblue" d="M1389.85,-360.224C1374.31,-345.982 1341.35,-318.023 1308.08,-304 1246.12,-277.89 1169.33,-266.922 1117.12,-262.319"/>
<polygon fill="midnightblue" stroke="midnightblue" points="1117.27,-258.82 1107.02,-261.481 1116.69,-265.796 1117.27,-258.82"/>
</g>
<!-- Node39&#45;&gt;Node37 -->
<g id="edge58" class="edge"><title>Node39&#45;&gt;Node37</title>
<path fill="none" stroke="midnightblue" d="M1375.94,-360.444C1351.59,-351.438 1313.07,-337.189 1285.65,-327.049"/>
<polygon fill="midnightblue" stroke="midnightblue" points="1286.7,-323.703 1276.1,-323.516 1284.27,-330.268 1286.7,-323.703"/>
</g>
<!-- Node40&#45;&gt;Node4 -->
<g id="edge62" class="edge"><title>Node40&#45;&gt;Node4</title>
<path fill="none" stroke="midnightblue" d="M1689.09,-248.287C1705.42,-228.102 1747.47,-176.749 1785.08,-136 1796.2,-123.947 1809.29,-110.876 1819.43,-100.985"/>
<polygon fill="midnightblue" stroke="midnightblue" points="1822.08,-103.287 1826.83,-93.8143 1817.21,-98.2604 1822.08,-103.287"/>
</g>
<!-- Node41&#45;&gt;Node2 -->
<g id="edge64" class="edge"><title>Node41&#45;&gt;Node2</title>
<path fill="none" stroke="midnightblue" d="M903.628,-416.46C825.77,-406.157 700.496,-389.093 654.077,-380 652.797,-379.749 651.494,-379.482 650.18,-379.202"/>
<polygon fill="midnightblue" stroke="midnightblue" points="650.611,-375.71 640.081,-376.883 649.044,-382.532 650.611,-375.71"/>
</g>
<!-- Node41&#45;&gt;Node21 -->
<g id="edge65" class="edge"><title>Node41&#45;&gt;Node21</title>
<path fill="none" stroke="midnightblue" d="M947.595,-416.36C932.686,-409.09 913.966,-397.117 905.077,-380 900.98,-372.111 902.058,-368.361 905.077,-360 927.05,-299.144 942.764,-281.567 998.077,-248 1044.38,-219.904 1105.85,-209.229 1149.94,-205.237"/>
<polygon fill="midnightblue" stroke="midnightblue" points="1150.23,-208.725 1159.91,-204.42 1149.66,-201.748 1150.23,-208.725"/>
</g>
<!-- Node41&#45;&gt;Node33 -->
<g id="edge66" class="edge"><title>Node41&#45;&gt;Node33</title>
<path fill="none" stroke="midnightblue" d="M987.485,-416.481C1003.68,-408.455 1027.37,-395.387 1045.08,-380 1061.21,-365.984 1076.05,-346.472 1085.72,-332.49"/>
<polygon fill="midnightblue" stroke="midnightblue" points="1088.86,-334.083 1091.53,-323.83 1083.05,-330.182 1088.86,-334.083"/>
</g>
</g>
</svg>
        <g id="navigator" transform="translate(0 0)" fill="#404254">
                <rect fill="#f2f5e9" fill-opacity="0.5" stroke="#606060" stroke-width=".5" x="0" y="0" width="60" height="60"/>
                <use id="zoomplus" xlink:href="#zoomPlus" x="17" y="9" onmousedown="handleZoom(evt,'in')"/>
                <use id="zoomminus" xlink:href="#zoomMin" x="42" y="9" onmousedown="handleZoom(evt,'out')"/>
                <use id="reset" xlink:href="#resetDef" x="30" y="36" onmousedown="handleReset()"/>
                <g id="arrowUp" xlink:href="#dirArrow" transform="translate(30 24)" onmousedown="handlePan(0,-1)">
                  <use xlink:href="#rim" fill="#404040">
                        <set attributeName="fill" to="#808080" begin="arrowUp.mouseover" end="arrowUp.mouseout"/>
                  </use>
                  <path fill="none" stroke="white" stroke-width="1.5" d="M0,-3.0v7 M-2.5,-0.5L0,-3.0L2.5,-0.5"/>
                </g>
                <g id="arrowRight" xlink:href="#dirArrow" transform="rotate(90) translate(36 -43)" onmousedown="handlePan(1,0)">
                  <use xlink:href="#rim" fill="#404040">
                        <set attributeName="fill" to="#808080" begin="arrowRight.mouseover" end="arrowRight.mouseout"/>
                  </use>
                  <path fill="none" stroke="white" stroke-width="1.5" d="M0,-3.0v7 M-2.5,-0.5L0,-3.0L2.5,-0.5"/>
                </g>
                <g id="arrowDown" xlink:href="#dirArrow" transform="rotate(180) translate(-30 -48)" onmousedown="handlePan(0,1)">
                  <use xlink:href="#rim" fill="#404040">
                        <set attributeName="fill" to="#808080" begin="arrowDown.mouseover" end="arrowDown.mouseout"/>
                  </use>
                  <path fill="none" stroke="white" stroke-width="1.5" d="M0,-3.0v7 M-2.5,-0.5L0,-3.0L2.5,-0.5"/>
                </g>
                <g id="arrowLeft" xlink:href="#dirArrow" transform="rotate(270) translate(-36 17)" onmousedown="handlePan(-1,0)">
                  <use xlink:href="#rim" fill="#404040">
                        <set attributeName="fill" to="#808080" begin="arrowLeft.mouseover" end="arrowLeft.mouseout"/>
                  </use>
                  <path fill="none" stroke="white" stroke-width="1.5" d="M0,-3.0v7 M-2.5,-0.5L0,-3.0L2.5,-0.5"/>
                </g>
        </g>
        <svg viewBox="0 0 15 15" width="100%" height="30px" preserveAspectRatio="xMaxYMin meet">
         <g id="arrow_out" transform="scale(0.3 0.3)">
          <a xlink:href="runHardwareClusterDecoderRaw_8C__incl_org.svg" target="_base">
           <rect id="button" ry="5" rx="5" y="6" x="6" height="38" width="38"
                fill="#f2f5e9" fill-opacity="0.5" stroke="#606060" stroke-width="1.0"/>
           <path id="arrow"
             d="M 11.500037,31.436501 C 11.940474,20.09759 22.043105,11.32322 32.158766,21.979434 L 37.068811,17.246167 C 37.068811,17.246167 37.088388,32 37.088388,32 L 22.160133,31.978069 C 22.160133,31.978069 26.997745,27.140456 26.997745,27.140456 C 18.528582,18.264221 13.291696,25.230495 11.500037,31.436501 z"
             style="fill:#404040;"/>
          </a>
         </g>
        </svg>
</svg>
