<?xml version="1.0" encoding="UTF-8" standalone="no"?>
<!DOCTYPE svg PUBLIC "-//W3C//DTD SVG 1.1//EN"
 "http://www.w3.org/Graphics/SVG/1.1/DTD/svg11.dtd">
<!-- Generated by graphviz version 2.36.0 (20140111.2315)
 -->
<!-- Title: /home/travis/build/AliceO2Group/AliceO2/Detectors/TOF/prototyping/drawTOFgeometry.C Pages: 1 -->
<!--zoomable 378 -->
<svg id="main" version="1.1" xmlns="http://www.w3.org/2000/svg" xmlns:xlink="http://www.w3.org/1999/xlink" xml:space="preserve" onload="init(evt)">
<style type="text/css"><![CDATA[
.edge:hover path { stroke: red; }
.edge:hover polygon { stroke: red; fill: red; }
]]></style>
<script type="text/javascript"><![CDATA[
var edges = document.getElementsByTagName('g');
if (edges && edges.length) {
  for (var i=0;i<edges.length;i++) {
    if (edges[i].id.substr(0,4)=='edge') {
      edges[i].setAttribute('class','edge');
    }
  }
}
]]></script>
        <defs>
                <circle id="rim" cx="0" cy="0" r="7"/>
                <circle id="rim2" cx="0" cy="0" r="3.5"/>
                <g id="zoomPlus">
                        <use xlink:href="#rim" fill="#404040">
                                <set attributeName="fill" to="#808080" begin="zoomplus.mouseover" end="zoomplus.mouseout"/>
                        </use>
                        <path d="M-4,0h8M0,-4v8" fill="none" stroke="white" stroke-width="1.5" pointer-events="none"/>
                </g>
                <g id="zoomMin">
                        <use xlink:href="#rim" fill="#404040">
                                <set attributeName="fill" to="#808080" begin="zoomminus.mouseover" end="zoomminus.mouseout"/>
                        </use>
                        <path d="M-4,0h8" fill="none" stroke="white" stroke-width="1.5" pointer-events="none"/>
                </g>
                <g id="dirArrow">
                        <path fill="none" stroke="white" stroke-width="1.5" d="M0,-3.0v7 M-2.5,-0.5L0,-3.0L2.5,-0.5"/>
                </g>
               <g id="resetDef">
                       <use xlink:href="#rim2" fill="#404040">
                               <set attributeName="fill" to="#808080" begin="reset.mouseover" end="reset.mouseout"/>
                       </use>
               </g>
        </defs>

<script type="text/javascript">
var viewWidth = 2066;
var viewHeight = 378;
var sectionId = 'dynsection-0';
</script>
<script xlink:href="../../svgpan.js"/>
<svg id="graph" class="graph">
<g id="viewport">
<title>/home/travis/build/AliceO2Group/AliceO2/Detectors/TOF/prototyping/drawTOFgeometry.C</title>
<!-- Node1 -->
<g id="node1" class="node"><title>Node1</title>
<polygon fill="#bfbfbf" stroke="black" points="1491,-317 1491,-369 1627,-369 1627,-317 1491,-317"/>
<text text-anchor="start" x="1499" y="-357" font-family="Helvetica,sans-Serif" font-size="10.00">/home/travis/build</text>
<text text-anchor="start" x="1499" y="-346" font-family="Helvetica,sans-Serif" font-size="10.00">/AliceO2Group/AliceO2</text>
<text text-anchor="start" x="1499" y="-335" font-family="Helvetica,sans-Serif" font-size="10.00">/Detectors/TOF/prototyping</text>
<text text-anchor="middle" x="1559" y="-324" font-family="Helvetica,sans-Serif" font-size="10.00">/drawTOFgeometry.C</text>
</g>
<!-- Node2 -->
<g id="node2" class="node"><title>Node2</title>
<g id="a_node2"><a xlink:href="../../d9/d6d/Cave_8h.html" target="_top" xlink:title="DetectorsPassive/Cave.h">
<polygon fill="none" stroke="black" points="90.5,-198.5 90.5,-217.5 219.5,-217.5 219.5,-198.5 90.5,-198.5"/>
<text text-anchor="middle" x="155" y="-205.5" font-family="Helvetica,sans-Serif" font-size="10.00">DetectorsPassive/Cave.h</text>
</a>
</g>
</g>
<!-- Node1&#45;&gt;Node2 -->
<g id="edge1" class="edge"><title>Node1&#45;&gt;Node2</title>
<path fill="none" stroke="midnightblue" d="M1490.81,-335.54C1255.04,-313.206 475.397,-239.351 229.785,-216.084"/>
<polygon fill="midnightblue" stroke="midnightblue" points="229.821,-212.572 219.535,-215.113 229.161,-219.541 229.821,-212.572"/>
</g>
<!-- Node7 -->
<g id="node7" class="node"><title>Node7</title>
<g id="a_node7"><a xlink:href="../../d2/d69/FrameStructure_8h.html" target="_top" xlink:title="DetectorsPassive/FrameStructure.h">
<polygon fill="none" stroke="black" points="1229.5,-260.5 1229.5,-279.5 1402.5,-279.5 1402.5,-260.5 1229.5,-260.5"/>
<text text-anchor="middle" x="1316" y="-267.5" font-family="Helvetica,sans-Serif" font-size="10.00">DetectorsPassive/FrameStructure.h</text>
</a>
</g>
</g>
<!-- Node1&#45;&gt;Node7 -->
<g id="edge6" class="edge"><title>Node1&#45;&gt;Node7</title>
<path fill="none" stroke="midnightblue" d="M1490.99,-322.128C1447.1,-309.304 1391.57,-293.079 1354.98,-282.388"/>
<polygon fill="midnightblue" stroke="midnightblue" points="1355.76,-278.972 1345.18,-279.526 1353.8,-285.691 1355.76,-278.972"/>
</g>
<!-- Node9 -->
<g id="node9" class="node"><title>Node9</title>
<polygon fill="none" stroke="#bfbfbf" points="1420.5,-260.5 1420.5,-279.5 1497.5,-279.5 1497.5,-260.5 1420.5,-260.5"/>
<text text-anchor="middle" x="1459" y="-267.5" font-family="Helvetica,sans-Serif" font-size="10.00">FairRunSim.h</text>
</g>
<!-- Node1&#45;&gt;Node9 -->
<g id="edge8" class="edge"><title>Node1&#45;&gt;Node9</title>
<path fill="none" stroke="midnightblue" d="M1523.74,-316.968C1509.08,-306.559 1492.57,-294.831 1479.88,-285.827"/>
<polygon fill="midnightblue" stroke="midnightblue" points="1481.59,-282.745 1471.41,-279.81 1477.54,-288.453 1481.59,-282.745"/>
</g>
<!-- Node10 -->
<g id="node10" class="node"><title>Node10</title>
<polygon fill="none" stroke="#bfbfbf" points="1516,-260.5 1516,-279.5 1602,-279.5 1602,-260.5 1516,-260.5"/>
<text text-anchor="middle" x="1559" y="-267.5" font-family="Helvetica,sans-Serif" font-size="10.00">TGeoManager.h</text>
</g>
<!-- Node1&#45;&gt;Node10 -->
<g id="edge9" class="edge"><title>Node1&#45;&gt;Node10</title>
<path fill="none" stroke="midnightblue" d="M1559,-316.768C1559,-307.89 1559,-298.074 1559,-289.816"/>
<polygon fill="midnightblue" stroke="midnightblue" points="1562.5,-289.757 1559,-279.757 1555.5,-289.757 1562.5,-289.757"/>
</g>
<!-- Node11 -->
<g id="node11" class="node"><title>Node11</title>
<g id="a_node11"><a xlink:href="../../d5/d3c/TOF_2simulation_2include_2TOFSimulation_2Detector_8h.html" target="_top" xlink:title="TOFSimulation/Detector.h">
<polygon fill="none" stroke="black" points="984.5,-260.5 984.5,-279.5 1115.5,-279.5 1115.5,-260.5 984.5,-260.5"/>
<text text-anchor="middle" x="1050" y="-267.5" font-family="Helvetica,sans-Serif" font-size="10.00">TOFSimulation/Detector.h</text>
</a>
</g>
</g>
<!-- Node1&#45;&gt;Node11 -->
<g id="edge10" class="edge"><title>Node1&#45;&gt;Node11</title>
<path fill="none" stroke="midnightblue" d="M1490.88,-332.498C1394.47,-319.05 1219.06,-294.582 1121.07,-280.913"/>
<polygon fill="midnightblue" stroke="midnightblue" points="1121.35,-277.418 1110.96,-279.503 1120.38,-284.351 1121.35,-277.418"/>
</g>
<!-- Node33 -->
<g id="node33" class="node"><title>Node33</title>
<polygon fill="none" stroke="#bfbfbf" points="1700,-74.5 1700,-93.5 1754,-93.5 1754,-74.5 1700,-74.5"/>
<text text-anchor="middle" x="1727" y="-81.5" font-family="Helvetica,sans-Serif" font-size="10.00">iostream</text>
</g>
<!-- Node1&#45;&gt;Node33 -->
<g id="edge45" class="edge"><title>Node1&#45;&gt;Node33</title>
<path fill="none" stroke="midnightblue" d="M1490.63,-339.489C1401.72,-334.62 1253.76,-320.498 1220,-280 1214.31,-273.173 1217.23,-268.446 1220,-260 1231.69,-224.356 1238.54,-212.431 1270,-192 1430.63,-87.687 1508.31,-157.508 1691,-100 1693.58,-99.1893 1696.22,-98.2673 1698.85,-97.2882"/>
<polygon fill="midnightblue" stroke="midnightblue" points="1700.17,-100.53 1708.18,-93.5897 1697.59,-94.023 1700.17,-100.53"/>
</g>
<!-- Node34 -->
<g id="node34" class="node"><title>Node34</title>
<polygon fill="none" stroke="#bfbfbf" points="1620.5,-260.5 1620.5,-279.5 1679.5,-279.5 1679.5,-260.5 1620.5,-260.5"/>
<text text-anchor="middle" x="1650" y="-267.5" font-family="Helvetica,sans-Serif" font-size="10.00">TROOT.h</text>
</g>
<!-- Node1&#45;&gt;Node34 -->
<g id="edge40" class="edge"><title>Node1&#45;&gt;Node34</title>
<path fill="none" stroke="midnightblue" d="M1591.08,-316.968C1604.29,-306.66 1619.16,-295.059 1630.66,-286.09"/>
<polygon fill="midnightblue" stroke="midnightblue" points="1632.98,-288.72 1638.71,-279.81 1628.67,-283.202 1632.98,-288.72"/>
</g>
<!-- Node35 -->
<g id="node35" class="node"><title>Node35</title>
<polygon fill="none" stroke="#bfbfbf" points="1698,-260.5 1698,-279.5 1754,-279.5 1754,-260.5 1698,-260.5"/>
<text text-anchor="middle" x="1726" y="-267.5" font-family="Helvetica,sans-Serif" font-size="10.00">TString.h</text>
</g>
<!-- Node1&#45;&gt;Node35 -->
<g id="edge41" class="edge"><title>Node1&#45;&gt;Node35</title>
<path fill="none" stroke="midnightblue" d="M1617.88,-316.968C1644.43,-305.681 1674.62,-292.844 1696.34,-283.61"/>
<polygon fill="midnightblue" stroke="midnightblue" points="1697.85,-286.773 1705.68,-279.639 1695.11,-280.331 1697.85,-286.773"/>
</g>
<!-- Node36 -->
<g id="node36" class="node"><title>Node36</title>
<polygon fill="none" stroke="#bfbfbf" points="1772.5,-260.5 1772.5,-279.5 1837.5,-279.5 1837.5,-260.5 1772.5,-260.5"/>
<text text-anchor="middle" x="1805" y="-267.5" font-family="Helvetica,sans-Serif" font-size="10.00">TSystem.h</text>
</g>
<!-- Node1&#45;&gt;Node36 -->
<g id="edge42" class="edge"><title>Node1&#45;&gt;Node36</title>
<path fill="none" stroke="midnightblue" d="M1627.2,-322.317C1671.65,-309.488 1728.1,-293.194 1765.33,-282.449"/>
<polygon fill="midnightblue" stroke="midnightblue" points="1766.66,-285.709 1775.3,-279.573 1764.72,-278.984 1766.66,-285.709"/>
</g>
<!-- Node37 -->
<g id="node37" class="node"><title>Node37</title>
<polygon fill="none" stroke="#bfbfbf" points="1856,-260.5 1856,-279.5 1990,-279.5 1990,-260.5 1856,-260.5"/>
<text text-anchor="middle" x="1923" y="-267.5" font-family="Helvetica,sans-Serif" font-size="10.00">boost/program_options.hpp</text>
</g>
<!-- Node1&#45;&gt;Node37 -->
<g id="edge43" class="edge"><title>Node1&#45;&gt;Node37</title>
<path fill="none" stroke="midnightblue" d="M1627.04,-328.729C1697.16,-315.051 1805.04,-294.008 1869.36,-281.462"/>
<polygon fill="midnightblue" stroke="midnightblue" points="1870.15,-284.874 1879.3,-279.524 1868.81,-278.003 1870.15,-284.874"/>
</g>
<!-- Node38 -->
<g id="node38" class="node"><title>Node38</title>
<polygon fill="none" stroke="#bfbfbf" points="2008,-260.5 2008,-279.5 2058,-279.5 2058,-260.5 2008,-260.5"/>
<text text-anchor="middle" x="2033" y="-267.5" font-family="Helvetica,sans-Serif" font-size="10.00">iomanip</text>
</g>
<!-- Node1&#45;&gt;Node38 -->
<g id="edge44" class="edge"><title>Node1&#45;&gt;Node38</title>
<path fill="none" stroke="midnightblue" d="M1627.26,-334.927C1712.1,-325.569 1861.36,-307.241 1998.01,-279.997"/>
<polygon fill="midnightblue" stroke="midnightblue" points="1998.72,-283.425 2007.83,-278.02 1997.33,-276.563 1998.72,-283.425"/>
</g>
<!-- Node3 -->
<g id="node3" class="node"><title>Node3</title>
<polygon fill="none" stroke="#bfbfbf" points="115.5,-136.5 115.5,-155.5 194.5,-155.5 194.5,-136.5 115.5,-136.5"/>
<text text-anchor="middle" x="155" y="-143.5" font-family="Helvetica,sans-Serif" font-size="10.00">FairDetector.h</text>
</g>
<!-- Node2&#45;&gt;Node3 -->
<g id="edge2" class="edge"><title>Node2&#45;&gt;Node3</title>
<path fill="none" stroke="midnightblue" d="M155,-198.403C155,-189.938 155,-176.728 155,-165.82"/>
<polygon fill="midnightblue" stroke="midnightblue" points="158.5,-165.581 155,-155.581 151.5,-165.581 158.5,-165.581"/>
</g>
<!-- Node4 -->
<g id="node4" class="node"><title>Node4</title>
<polygon fill="none" stroke="#bfbfbf" points="506,-74.5 506,-93.5 562,-93.5 562,-74.5 506,-74.5"/>
<text text-anchor="middle" x="534" y="-81.5" font-family="Helvetica,sans-Serif" font-size="10.00">Rtypes.h</text>
</g>
<!-- Node2&#45;&gt;Node4 -->
<g id="edge3" class="edge"><title>Node2&#45;&gt;Node4</title>
<path fill="none" stroke="midnightblue" d="M141.538,-198.426C121.385,-184.571 87.6035,-156.719 106,-136 107.619,-134.176 390.742,-101.466 495.561,-89.4126"/>
<polygon fill="midnightblue" stroke="midnightblue" points="496.176,-92.865 505.71,-88.2459 495.376,-85.9108 496.176,-92.865"/>
</g>
<!-- Node5 -->
<g id="node5" class="node"><title>Node5</title>
<polygon fill="none" stroke="#bfbfbf" points="-0.5,-136.5 -0.5,-155.5 58.5,-155.5 58.5,-136.5 -0.5,-136.5"/>
<text text-anchor="middle" x="29" y="-143.5" font-family="Helvetica,sans-Serif" font-size="10.00">functional</text>
</g>
<!-- Node2&#45;&gt;Node5 -->
<g id="edge4" class="edge"><title>Node2&#45;&gt;Node5</title>
<path fill="none" stroke="midnightblue" d="M136.947,-198.403C115.802,-188.334 80.5596,-171.552 56.1218,-159.915"/>
<polygon fill="midnightblue" stroke="midnightblue" points="57.5526,-156.72 47.0192,-155.581 54.5431,-163.04 57.5526,-156.72"/>
</g>
<!-- Node6 -->
<g id="node6" class="node"><title>Node6</title>
<polygon fill="none" stroke="#bfbfbf" points="212,-136.5 212,-155.5 256,-155.5 256,-136.5 212,-136.5"/>
<text text-anchor="middle" x="234" y="-143.5" font-family="Helvetica,sans-Serif" font-size="10.00">vector</text>
</g>
<!-- Node2&#45;&gt;Node6 -->
<g id="edge5" class="edge"><title>Node2&#45;&gt;Node6</title>
<path fill="none" stroke="midnightblue" d="M166.319,-198.403C178.873,-188.869 199.351,-173.315 214.499,-161.811"/>
<polygon fill="midnightblue" stroke="midnightblue" points="216.856,-164.416 222.702,-155.581 212.622,-158.842 216.856,-164.416"/>
</g>
<!-- Node8 -->
<g id="node8" class="node"><title>Node8</title>
<polygon fill="none" stroke="#bfbfbf" points="1279.5,-198.5 1279.5,-217.5 1352.5,-217.5 1352.5,-198.5 1279.5,-198.5"/>
<text text-anchor="middle" x="1316" y="-205.5" font-family="Helvetica,sans-Serif" font-size="10.00">FairModule.h</text>
</g>
<!-- Node7&#45;&gt;Node8 -->
<g id="edge7" class="edge"><title>Node7&#45;&gt;Node8</title>
<path fill="none" stroke="midnightblue" d="M1316,-260.403C1316,-251.938 1316,-238.728 1316,-227.82"/>
<polygon fill="midnightblue" stroke="midnightblue" points="1319.5,-227.581 1316,-217.581 1312.5,-227.581 1319.5,-227.581"/>
</g>
<!-- Node12 -->
<g id="node12" class="node"><title>Node12</title>
<g id="a_node12"><a xlink:href="../../d1/d3a/Base_2include_2DetectorsBase_2Detector_8h.html" target="_top" xlink:title="DetectorsBase/Detector.h">
<polygon fill="none" stroke="black" points="523.5,-198.5 523.5,-217.5 654.5,-217.5 654.5,-198.5 523.5,-198.5"/>
<text text-anchor="middle" x="589" y="-205.5" font-family="Helvetica,sans-Serif" font-size="10.00">DetectorsBase/Detector.h</text>
</a>
</g>
</g>
<!-- Node11&#45;&gt;Node12 -->
<g id="edge11" class="edge"><title>Node11&#45;&gt;Node12</title>
<path fill="none" stroke="midnightblue" d="M984.44,-260.467C899.946,-249.47 753.359,-230.392 664.361,-218.808"/>
<polygon fill="midnightblue" stroke="midnightblue" points="664.702,-215.323 654.334,-217.503 663.799,-222.265 664.702,-215.323"/>
</g>
<!-- Node21 -->
<g id="node21" class="node"><title>Node21</title>
<g id="a_node21"><a xlink:href="../../d4/d54/Geo_8h.html" target="_top" xlink:title="TOFBase/Geo.h">
<polygon fill="none" stroke="black" points="950,-198.5 950,-217.5 1038,-217.5 1038,-198.5 950,-198.5"/>
<text text-anchor="middle" x="994" y="-205.5" font-family="Helvetica,sans-Serif" font-size="10.00">TOFBase/Geo.h</text>
</a>
</g>
</g>
<!-- Node11&#45;&gt;Node21 -->
<g id="edge25" class="edge"><title>Node11&#45;&gt;Node21</title>
<path fill="none" stroke="midnightblue" d="M1041.98,-260.403C1033.41,-251.225 1019.64,-236.47 1009.04,-225.117"/>
<polygon fill="midnightblue" stroke="midnightblue" points="1011.39,-222.503 1002.01,-217.581 1006.27,-227.279 1011.39,-222.503"/>
</g>
<!-- Node22 -->
<g id="node22" class="node"><title>Node22</title>
<g id="a_node22"><a xlink:href="../../d4/d25/BaseHits_8h.html" target="_top" xlink:title="SimulationDataFormat\l/BaseHits.h">
<polygon fill="none" stroke="black" points="1056,-193 1056,-223 1170,-223 1170,-193 1056,-193"/>
<text text-anchor="start" x="1064" y="-211" font-family="Helvetica,sans-Serif" font-size="10.00">SimulationDataFormat</text>
<text text-anchor="middle" x="1113" y="-200" font-family="Helvetica,sans-Serif" font-size="10.00">/BaseHits.h</text>
</a>
</g>
</g>
<!-- Node11&#45;&gt;Node22 -->
<g id="edge27" class="edge"><title>Node11&#45;&gt;Node22</title>
<path fill="none" stroke="midnightblue" d="M1059.03,-260.403C1067.32,-252.505 1079.95,-240.477 1090.91,-230.041"/>
<polygon fill="midnightblue" stroke="midnightblue" points="1093.32,-232.572 1098.15,-223.141 1088.5,-227.503 1093.32,-232.572"/>
</g>
<!-- Node12&#45;&gt;Node3 -->
<g id="edge15" class="edge"><title>Node12&#45;&gt;Node3</title>
<path fill="none" stroke="midnightblue" d="M523.277,-199.412C448.437,-190.526 322.275,-174.798 204.44,-156.164"/>
<polygon fill="midnightblue" stroke="midnightblue" points="204.949,-152.701 194.523,-154.586 203.849,-159.614 204.949,-152.701"/>
</g>
<!-- Node12&#45;&gt;Node4 -->
<g id="edge20" class="edge"><title>Node12&#45;&gt;Node4</title>
<path fill="none" stroke="midnightblue" d="M599.473,-198.072C614.156,-184.432 637.715,-157.702 625,-136 618.08,-124.189 587.6,-108.543 563.799,-97.7099"/>
<polygon fill="midnightblue" stroke="midnightblue" points="564.979,-94.4039 554.42,-93.5289 562.128,-100.797 564.979,-94.4039"/>
</g>
<!-- Node12&#45;&gt;Node6 -->
<g id="edge13" class="edge"><title>Node12&#45;&gt;Node6</title>
<path fill="none" stroke="midnightblue" d="M525.459,-198.492C460.867,-189.457 358.054,-174.01 270,-156 268.722,-155.739 267.421,-155.462 266.108,-155.175"/>
<polygon fill="midnightblue" stroke="midnightblue" points="266.549,-151.684 256.016,-152.824 264.961,-158.501 266.549,-151.684"/>
</g>
<!-- Node13 -->
<g id="node13" class="node"><title>Node13</title>
<polygon fill="none" stroke="#bfbfbf" points="359.5,-74.5 359.5,-93.5 394.5,-93.5 394.5,-74.5 359.5,-74.5"/>
<text text-anchor="middle" x="377" y="-81.5" font-family="Helvetica,sans-Serif" font-size="10.00">map</text>
</g>
<!-- Node12&#45;&gt;Node13 -->
<g id="edge12" class="edge"><title>Node12&#45;&gt;Node13</title>
<path fill="none" stroke="midnightblue" d="M523.176,-204.728C447.613,-200.573 330.525,-188.867 303,-156 283.795,-133.067 321.67,-109.655 349.975,-96.27"/>
<polygon fill="midnightblue" stroke="midnightblue" points="351.447,-99.4456 359.112,-92.1304 348.558,-93.0696 351.447,-99.4456"/>
</g>
<!-- Node14 -->
<g id="node14" class="node"><title>Node14</title>
<polygon fill="none" stroke="#bfbfbf" points="673,-136.5 673,-155.5 725,-155.5 725,-136.5 673,-136.5"/>
<text text-anchor="middle" x="699" y="-143.5" font-family="Helvetica,sans-Serif" font-size="10.00">memory</text>
</g>
<!-- Node12&#45;&gt;Node14 -->
<g id="edge14" class="edge"><title>Node12&#45;&gt;Node14</title>
<path fill="none" stroke="midnightblue" d="M604.76,-198.403C622.976,-188.468 653.173,-171.997 674.468,-160.381"/>
<polygon fill="midnightblue" stroke="midnightblue" points="676.166,-163.442 683.269,-155.581 672.814,-157.297 676.166,-163.442"/>
</g>
<!-- Node15 -->
<g id="node15" class="node"><title>Node15</title>
<polygon fill="none" stroke="#bfbfbf" points="743,-136.5 743,-155.5 843,-155.5 843,-136.5 743,-136.5"/>
<text text-anchor="middle" x="793" y="-143.5" font-family="Helvetica,sans-Serif" font-size="10.00">FairRootManager.h</text>
</g>
<!-- Node12&#45;&gt;Node15 -->
<g id="edge16" class="edge"><title>Node12&#45;&gt;Node15</title>
<path fill="none" stroke="midnightblue" d="M618.228,-198.403C653.903,-187.911 714.36,-170.129 753.982,-158.476"/>
<polygon fill="midnightblue" stroke="midnightblue" points="755.22,-161.76 763.826,-155.581 753.245,-155.045 755.22,-161.76"/>
</g>
<!-- Node16 -->
<g id="node16" class="node"><title>Node16</title>
<g id="a_node16"><a xlink:href="../../d0/d9a/MaterialManager_8h.html" target="_top" xlink:title="DetectorsBase/MaterialManager.h">
<polygon fill="none" stroke="black" points="451.5,-136.5 451.5,-155.5 616.5,-155.5 616.5,-136.5 451.5,-136.5"/>
<text text-anchor="middle" x="534" y="-143.5" font-family="Helvetica,sans-Serif" font-size="10.00">DetectorsBase/MaterialManager.h</text>
</a>
</g>
</g>
<!-- Node12&#45;&gt;Node16 -->
<g id="edge17" class="edge"><title>Node12&#45;&gt;Node16</title>
<path fill="none" stroke="midnightblue" d="M581.12,-198.403C572.706,-189.225 559.181,-174.47 548.774,-163.117"/>
<polygon fill="midnightblue" stroke="midnightblue" points="551.203,-160.587 541.866,-155.581 546.043,-165.317 551.203,-160.587"/>
</g>
<!-- Node17 -->
<g id="node17" class="node"><title>Node17</title>
<polygon fill="none" stroke="#bfbfbf" points="861.5,-136.5 861.5,-155.5 914.5,-155.5 914.5,-136.5 861.5,-136.5"/>
<text text-anchor="middle" x="888" y="-143.5" font-family="Helvetica,sans-Serif" font-size="10.00">cxxabi.h</text>
</g>
<!-- Node12&#45;&gt;Node17 -->
<g id="edge21" class="edge"><title>Node12&#45;&gt;Node17</title>
<path fill="none" stroke="midnightblue" d="M637.151,-198.461C687.946,-189.274 770.538,-173.832 851.445,-156.026"/>
<polygon fill="midnightblue" stroke="midnightblue" points="852.295,-159.423 861.301,-153.843 850.781,-152.589 852.295,-159.423"/>
</g>
<!-- Node18 -->
<g id="node18" class="node"><title>Node18</title>
<polygon fill="none" stroke="#bfbfbf" points="932.5,-136.5 932.5,-155.5 983.5,-155.5 983.5,-136.5 932.5,-136.5"/>
<text text-anchor="middle" x="958" y="-143.5" font-family="Helvetica,sans-Serif" font-size="10.00">typeinfo</text>
</g>
<!-- Node12&#45;&gt;Node18 -->
<g id="edge22" class="edge"><title>Node12&#45;&gt;Node18</title>
<path fill="none" stroke="midnightblue" d="M654.623,-198.956C720.044,-190.489 823.538,-175.89 922.577,-155.899"/>
<polygon fill="midnightblue" stroke="midnightblue" points="923.356,-159.312 932.454,-153.884 921.957,-152.453 923.356,-159.312"/>
</g>
<!-- Node19 -->
<g id="node19" class="node"><title>Node19</title>
<polygon fill="none" stroke="#bfbfbf" points="312,-136.5 312,-155.5 374,-155.5 374,-136.5 312,-136.5"/>
<text text-anchor="middle" x="343" y="-143.5" font-family="Helvetica,sans-Serif" font-size="10.00">type_traits</text>
</g>
<!-- Node12&#45;&gt;Node19 -->
<g id="edge23" class="edge"><title>Node12&#45;&gt;Node19</title>
<path fill="none" stroke="midnightblue" d="M554.015,-198.467C509.279,-187.556 431.922,-168.688 384.329,-157.08"/>
<polygon fill="midnightblue" stroke="midnightblue" points="384.903,-153.618 374.358,-154.648 383.244,-160.418 384.903,-153.618"/>
</g>
<!-- Node20 -->
<g id="node20" class="node"><title>Node20</title>
<polygon fill="none" stroke="#bfbfbf" points="392.5,-136.5 392.5,-155.5 433.5,-155.5 433.5,-136.5 392.5,-136.5"/>
<text text-anchor="middle" x="413" y="-143.5" font-family="Helvetica,sans-Serif" font-size="10.00">string</text>
</g>
<!-- Node12&#45;&gt;Node20 -->
<g id="edge24" class="edge"><title>Node12&#45;&gt;Node20</title>
<path fill="none" stroke="midnightblue" d="M563.783,-198.403C531.998,-187.568 477.411,-168.958 443.366,-157.352"/>
<polygon fill="midnightblue" stroke="midnightblue" points="444.103,-153.905 433.508,-153.991 441.844,-160.531 444.103,-153.905"/>
</g>
<!-- Node16&#45;&gt;Node4 -->
<g id="edge18" class="edge"><title>Node16&#45;&gt;Node4</title>
<path fill="none" stroke="midnightblue" d="M534,-136.403C534,-127.938 534,-114.728 534,-103.82"/>
<polygon fill="midnightblue" stroke="midnightblue" points="537.5,-103.581 534,-93.5806 530.5,-103.581 537.5,-103.581"/>
</g>
<!-- Node16&#45;&gt;Node13 -->
<g id="edge19" class="edge"><title>Node16&#45;&gt;Node13</title>
<path fill="none" stroke="midnightblue" d="M511.506,-136.403C483.168,-125.574 434.512,-106.979 404.139,-95.3717"/>
<polygon fill="midnightblue" stroke="midnightblue" points="405.186,-92.0249 394.596,-91.7244 402.687,-98.5637 405.186,-92.0249"/>
</g>
<!-- Node21&#45;&gt;Node4 -->
<g id="edge26" class="edge"><title>Node21&#45;&gt;Node4</title>
<path fill="none" stroke="midnightblue" d="M997.021,-198.2C1001.53,-183.245 1007.92,-152.854 992,-136 927.529,-67.7352 662.311,-121.884 571,-100 567.931,-99.2645 564.783,-98.3161 561.682,-97.2538"/>
<polygon fill="midnightblue" stroke="midnightblue" points="562.677,-93.8873 552.086,-93.5937 560.182,-100.428 562.677,-93.8873"/>
</g>
<!-- Node23 -->
<g id="node23" class="node"><title>Node23</title>
<g id="a_node23"><a xlink:href="../../dd/d76/Cartesian3D_8h.html" target="_top" xlink:title="MathUtils/Cartesian3D.h">
<polygon fill="none" stroke="black" points="1047.5,-136.5 1047.5,-155.5 1172.5,-155.5 1172.5,-136.5 1047.5,-136.5"/>
<text text-anchor="middle" x="1110" y="-143.5" font-family="Helvetica,sans-Serif" font-size="10.00">MathUtils/Cartesian3D.h</text>
</a>
</g>
</g>
<!-- Node22&#45;&gt;Node23 -->
<g id="edge28" class="edge"><title>Node22&#45;&gt;Node23</title>
<path fill="none" stroke="midnightblue" d="M1112.29,-192.781C1111.88,-184.691 1111.37,-174.462 1110.94,-165.725"/>
<polygon fill="midnightblue" stroke="midnightblue" points="1114.43,-165.543 1110.44,-155.731 1107.44,-165.893 1114.43,-165.543"/>
</g>
<!-- Node23&#45;&gt;Node4 -->
<g id="edge32" class="edge"><title>Node23&#45;&gt;Node4</title>
<path fill="none" stroke="midnightblue" d="M1047.18,-138.077C1040.04,-137.347 1032.86,-136.639 1026,-136 824.02,-117.193 768.417,-146.652 571,-100 567.929,-99.2742 564.779,-98.3321 561.677,-97.2735"/>
<polygon fill="midnightblue" stroke="midnightblue" points="562.671,-93.9069 552.08,-93.6178 560.179,-100.448 562.671,-93.9069"/>
</g>
<!-- Node24 -->
<g id="node24" class="node"><title>Node24</title>
<polygon fill="none" stroke="#bfbfbf" points="1358.5,-74.5 1358.5,-93.5 1507.5,-93.5 1507.5,-74.5 1358.5,-74.5"/>
<text text-anchor="middle" x="1433" y="-81.5" font-family="Helvetica,sans-Serif" font-size="10.00">Math/GenVector/Rotation3D.h</text>
</g>
<!-- Node23&#45;&gt;Node24 -->
<g id="edge29" class="edge"><title>Node23&#45;&gt;Node24</title>
<path fill="none" stroke="midnightblue" d="M1155.93,-136.467C1214.17,-125.649 1314.52,-107.009 1377.13,-95.3781"/>
<polygon fill="midnightblue" stroke="midnightblue" points="1378.03,-98.7709 1387.22,-93.5034 1376.75,-91.8887 1378.03,-98.7709"/>
</g>
<!-- Node25 -->
<g id="node25" class="node"><title>Node25</title>
<polygon fill="none" stroke="#bfbfbf" points="1526,-74.5 1526,-93.5 1682,-93.5 1682,-74.5 1526,-74.5"/>
<text text-anchor="middle" x="1604" y="-81.5" font-family="Helvetica,sans-Serif" font-size="10.00">Math/GenVector/Transform3D.h</text>
</g>
<!-- Node23&#45;&gt;Node25 -->
<g id="edge30" class="edge"><title>Node23&#45;&gt;Node25</title>
<path fill="none" stroke="midnightblue" d="M1172.61,-137.643C1177.48,-137.083 1182.32,-136.53 1187,-136 1333.16,-119.462 1370.32,-120.367 1516,-100 1526.02,-98.5998 1536.64,-96.9389 1546.92,-95.2411"/>
<polygon fill="midnightblue" stroke="midnightblue" points="1547.76,-98.6488 1557.04,-93.5394 1546.6,-91.7456 1547.76,-98.6488"/>
</g>
<!-- Node26 -->
<g id="node26" class="node"><title>Node26</title>
<polygon fill="none" stroke="#bfbfbf" points="580,-74.5 580,-93.5 740,-93.5 740,-74.5 580,-74.5"/>
<text text-anchor="middle" x="660" y="-81.5" font-family="Helvetica,sans-Serif" font-size="10.00">Math/GenVector/Translation3D.h</text>
</g>
<!-- Node23&#45;&gt;Node26 -->
<g id="edge31" class="edge"><title>Node23&#45;&gt;Node26</title>
<path fill="none" stroke="midnightblue" d="M1047.28,-138.01C975.188,-129.782 853.361,-115.292 749,-100 739.116,-98.5518 728.636,-96.8946 718.469,-95.2225"/>
<polygon fill="midnightblue" stroke="midnightblue" points="718.88,-91.7427 708.441,-93.5524 717.73,-98.6476 718.88,-91.7427"/>
</g>
<!-- Node27 -->
<g id="node27" class="node"><title>Node27</title>
<polygon fill="none" stroke="#bfbfbf" points="758,-74.5 758,-93.5 834,-93.5 834,-74.5 758,-74.5"/>
<text text-anchor="middle" x="796" y="-81.5" font-family="Helvetica,sans-Serif" font-size="10.00">TGeoMatrix.h</text>
</g>
<!-- Node23&#45;&gt;Node27 -->
<g id="edge33" class="edge"><title>Node23&#45;&gt;Node27</title>
<path fill="none" stroke="midnightblue" d="M1047.45,-137.018C993.013,-129.465 912.21,-116.787 843,-100 838.88,-99.0006 834.596,-97.8269 830.365,-96.5837"/>
<polygon fill="midnightblue" stroke="midnightblue" points="831.28,-93.2034 820.693,-93.6058 829.221,-99.8935 831.28,-93.2034"/>
</g>
<!-- Node28 -->
<g id="node28" class="node"><title>Node28</title>
<polygon fill="none" stroke="#bfbfbf" points="852.5,-69 852.5,-99 1003.5,-99 1003.5,-69 852.5,-69"/>
<text text-anchor="start" x="860.5" y="-87" font-family="Helvetica,sans-Serif" font-size="10.00">Math/GenVector/Displacement</text>
<text text-anchor="middle" x="928" y="-76" font-family="Helvetica,sans-Serif" font-size="10.00">Vector3D.h</text>
</g>
<!-- Node23&#45;&gt;Node28 -->
<g id="edge34" class="edge"><title>Node23&#45;&gt;Node28</title>
<path fill="none" stroke="midnightblue" d="M1083.92,-136.403C1057,-127.526 1014.24,-113.432 980.311,-102.245"/>
<polygon fill="midnightblue" stroke="midnightblue" points="981.137,-98.8323 970.543,-99.0253 978.945,-105.48 981.137,-98.8323"/>
</g>
<!-- Node29 -->
<g id="node29" class="node"><title>Node29</title>
<polygon fill="none" stroke="#bfbfbf" points="1022,-74.5 1022,-93.5 1198,-93.5 1198,-74.5 1022,-74.5"/>
<text text-anchor="middle" x="1110" y="-81.5" font-family="Helvetica,sans-Serif" font-size="10.00">Math/GenVector/PositionVector3D.h</text>
</g>
<!-- Node23&#45;&gt;Node29 -->
<g id="edge35" class="edge"><title>Node23&#45;&gt;Node29</title>
<path fill="none" stroke="midnightblue" d="M1110,-136.403C1110,-127.938 1110,-114.728 1110,-103.82"/>
<polygon fill="midnightblue" stroke="midnightblue" points="1113.5,-103.581 1110,-93.5806 1106.5,-103.581 1113.5,-103.581"/>
</g>
<!-- Node30 -->
<g id="node30" class="node"><title>Node30</title>
<g id="a_node30"><a xlink:href="../../d2/dd0/Cartesian2D_8h.html" target="_top" xlink:title="MathUtils/Cartesian2D.h">
<polygon fill="none" stroke="black" points="1215.5,-74.5 1215.5,-93.5 1340.5,-93.5 1340.5,-74.5 1215.5,-74.5"/>
<text text-anchor="middle" x="1278" y="-81.5" font-family="Helvetica,sans-Serif" font-size="10.00">MathUtils/Cartesian2D.h</text>
</a>
</g>
</g>
<!-- Node23&#45;&gt;Node30 -->
<g id="edge36" class="edge"><title>Node23&#45;&gt;Node30</title>
<path fill="none" stroke="midnightblue" d="M1134.07,-136.403C1163.01,-126.067 1211.76,-108.656 1244.4,-96.9994"/>
<polygon fill="midnightblue" stroke="midnightblue" points="1245.73,-100.24 1253.97,-93.5806 1243.38,-93.6479 1245.73,-100.24"/>
</g>
<!-- Node23&#45;&gt;Node33 -->
<g id="edge39" class="edge"><title>Node23&#45;&gt;Node33</title>
<path fill="none" stroke="midnightblue" d="M1172.59,-137.445C1177.46,-136.93 1182.31,-136.441 1187,-136 1410.58,-114.959 1472.5,-151.864 1691,-100 1694,-99.288 1697.07,-98.3548 1700.09,-97.3016"/>
<polygon fill="midnightblue" stroke="midnightblue" points="1701.4,-100.551 1709.44,-93.6522 1698.85,-94.0306 1701.4,-100.551"/>
</g>
<!-- Node31 -->
<g id="node31" class="node"><title>Node31</title>
<polygon fill="none" stroke="#bfbfbf" points="1111.5,-1 1111.5,-31 1262.5,-31 1262.5,-1 1111.5,-1"/>
<text text-anchor="start" x="1119.5" y="-19" font-family="Helvetica,sans-Serif" font-size="10.00">Math/GenVector/Displacement</text>
<text text-anchor="middle" x="1187" y="-8" font-family="Helvetica,sans-Serif" font-size="10.00">Vector2D.h</text>
</g>
<!-- Node30&#45;&gt;Node31 -->
<g id="edge37" class="edge"><title>Node30&#45;&gt;Node31</title>
<path fill="none" stroke="midnightblue" d="M1266.1,-74.3717C1253.22,-65.0286 1232.22,-49.7966 1215.09,-37.375"/>
<polygon fill="midnightblue" stroke="midnightblue" points="1216.7,-34.2194 1206.55,-31.1815 1212.59,-39.8859 1216.7,-34.2194"/>
</g>
<!-- Node32 -->
<g id="node32" class="node"><title>Node32</title>
<polygon fill="none" stroke="#bfbfbf" points="1281,-6.5 1281,-25.5 1457,-25.5 1457,-6.5 1281,-6.5"/>
<text text-anchor="middle" x="1369" y="-13.5" font-family="Helvetica,sans-Serif" font-size="10.00">Math/GenVector/PositionVector2D.h</text>
</g>
<!-- Node30&#45;&gt;Node32 -->
<g id="edge38" class="edge"><title>Node30&#45;&gt;Node32</title>
<path fill="none" stroke="midnightblue" d="M1289.9,-74.3717C1304.88,-63.5015 1330.86,-44.6602 1348.94,-31.5474"/>
<polygon fill="midnightblue" stroke="midnightblue" points="1351.06,-34.3349 1357.1,-25.6305 1346.95,-28.6684 1351.06,-34.3349"/>
</g>
</g>
</svg>
        <g id="navigator" transform="translate(0 0)" fill="#404254">
                <rect fill="#f2f5e9" fill-opacity="0.5" stroke="#606060" stroke-width=".5" x="0" y="0" width="60" height="60"/>
                <use id="zoomplus" xlink:href="#zoomPlus" x="17" y="9" onmousedown="handleZoom(evt,'in')"/>
                <use id="zoomminus" xlink:href="#zoomMin" x="42" y="9" onmousedown="handleZoom(evt,'out')"/>
                <use id="reset" xlink:href="#resetDef" x="30" y="36" onmousedown="handleReset()"/>
                <g id="arrowUp" xlink:href="#dirArrow" transform="translate(30 24)" onmousedown="handlePan(0,-1)">
                  <use xlink:href="#rim" fill="#404040">
                        <set attributeName="fill" to="#808080" begin="arrowUp.mouseover" end="arrowUp.mouseout"/>
                  </use>
                  <path fill="none" stroke="white" stroke-width="1.5" d="M0,-3.0v7 M-2.5,-0.5L0,-3.0L2.5,-0.5"/>
                </g>
                <g id="arrowRight" xlink:href="#dirArrow" transform="rotate(90) translate(36 -43)" onmousedown="handlePan(1,0)">
                  <use xlink:href="#rim" fill="#404040">
                        <set attributeName="fill" to="#808080" begin="arrowRight.mouseover" end="arrowRight.mouseout"/>
                  </use>
                  <path fill="none" stroke="white" stroke-width="1.5" d="M0,-3.0v7 M-2.5,-0.5L0,-3.0L2.5,-0.5"/>
                </g>
                <g id="arrowDown" xlink:href="#dirArrow" transform="rotate(180) translate(-30 -48)" onmousedown="handlePan(0,1)">
                  <use xlink:href="#rim" fill="#404040">
                        <set attributeName="fill" to="#808080" begin="arrowDown.mouseover" end="arrowDown.mouseout"/>
                  </use>
                  <path fill="none" stroke="white" stroke-width="1.5" d="M0,-3.0v7 M-2.5,-0.5L0,-3.0L2.5,-0.5"/>
                </g>
                <g id="arrowLeft" xlink:href="#dirArrow" transform="rotate(270) translate(-36 17)" onmousedown="handlePan(-1,0)">
                  <use xlink:href="#rim" fill="#404040">
                        <set attributeName="fill" to="#808080" begin="arrowLeft.mouseover" end="arrowLeft.mouseout"/>
                  </use>
                  <path fill="none" stroke="white" stroke-width="1.5" d="M0,-3.0v7 M-2.5,-0.5L0,-3.0L2.5,-0.5"/>
                </g>
        </g>
        <svg viewBox="0 0 15 15" width="100%" height="30px" preserveAspectRatio="xMaxYMin meet">
         <g id="arrow_out" transform="scale(0.3 0.3)">
          <a xlink:href="drawTOFgeometry_8C__incl_org.svg" target="_base">
           <rect id="button" ry="5" rx="5" y="6" x="6" height="38" width="38"
                fill="#f2f5e9" fill-opacity="0.5" stroke="#606060" stroke-width="1.0"/>
           <path id="arrow"
             d="M 11.500037,31.436501 C 11.940474,20.09759 22.043105,11.32322 32.158766,21.979434 L 37.068811,17.246167 C 37.068811,17.246167 37.088388,32 37.088388,32 L 22.160133,31.978069 C 22.160133,31.978069 26.997745,27.140456 26.997745,27.140456 C 18.528582,18.264221 13.291696,25.230495 11.500037,31.436501 z"
             style="fill:#404040;"/>
          </a>
         </g>
        </svg>
</svg>
