<?xml version="1.0" encoding="UTF-8" standalone="no"?>
<!DOCTYPE svg PUBLIC "-//W3C//DTD SVG 1.1//EN"
 "http://www.w3.org/Graphics/SVG/1.1/DTD/svg11.dtd">
<!-- Generated by graphviz version 2.36.0 (20140111.2315)
 -->
<!-- Title: /home/travis/build/AliceO2Group/AliceO2/DataFormats/TPC/include/DataFormatsTPC/ClusterNative.h Pages: 1 -->
<svg width="2625pt" height="352pt"
 viewBox="0.00 0.00 2625.00 352.00" xmlns="http://www.w3.org/2000/svg" xmlns:xlink="http://www.w3.org/1999/xlink">
<g id="graph0" class="graph" transform="scale(1 1) rotate(0) translate(4 348)">
<title>/home/travis/build/AliceO2Group/AliceO2/DataFormats/TPC/include/DataFormatsTPC/ClusterNative.h</title>
<!-- Node1 -->
<g id="node1" class="node"><title>Node1</title>
<polygon fill="#bfbfbf" stroke="black" points="1955,-291 1955,-343 2123,-343 2123,-291 1955,-291"/>
<text text-anchor="start" x="1963" y="-331" font-family="Helvetica,sans-Serif" font-size="10.00">/home/travis/build</text>
<text text-anchor="start" x="1963" y="-320" font-family="Helvetica,sans-Serif" font-size="10.00">/AliceO2Group/AliceO2</text>
<text text-anchor="start" x="1963" y="-309" font-family="Helvetica,sans-Serif" font-size="10.00">/DataFormats/TPC/include</text>
<text text-anchor="middle" x="2039" y="-298" font-family="Helvetica,sans-Serif" font-size="10.00">/DataFormatsTPC/ClusterNative.h</text>
</g>
<!-- Node2 -->
<g id="node2" class="node"><title>Node2</title>
<g id="a_node2"><a xlink:href="../../db/df1/Helpers_8h.html" target="_top" xlink:title="Helper class for memory management of TPC Data Formats, external from the actual data type classes to...">
<polygon fill="none" stroke="black" points="357,-196 357,-248 499,-248 499,-196 357,-196"/>
<text text-anchor="start" x="365" y="-236" font-family="Helvetica,sans-Serif" font-size="10.00">/home/travis/build</text>
<text text-anchor="start" x="365" y="-225" font-family="Helvetica,sans-Serif" font-size="10.00">/AliceO2Group/AliceO2</text>
<text text-anchor="start" x="365" y="-214" font-family="Helvetica,sans-Serif" font-size="10.00">/DataFormats/TPC/include</text>
<text text-anchor="middle" x="428" y="-203" font-family="Helvetica,sans-Serif" font-size="10.00">/DataFormatsTPC/Helpers.h</text>
</a>
</g>
</g>
<!-- Node1&#45;&gt;Node2 -->
<g id="edge1" class="edge"><title>Node1&#45;&gt;Node2</title>
<path fill="none" stroke="midnightblue" d="M1944.32,-315.757C1715.6,-314.325 1115.07,-305.521 617,-254 577.807,-249.946 534.401,-243.003 499.081,-236.714"/>
<polygon fill="midnightblue" stroke="midnightblue" points="1944.58,-319.259 1954.6,-315.818 1944.62,-312.259 1944.58,-319.259"/>
</g>
<!-- Node5 -->
<g id="node5" class="node"><title>Node5</title>
<g id="a_node5"><a xlink:href="../../d1/df0/runCATrackingClusterNative_8C.html" target="_top" xlink:title="/home/travis/build\l/AliceO2Group/AliceO2\l/Detectors/TPC/reconstruction\l/macro/runCATrackingClusterNative.C">
<polygon fill="none" stroke="black" points="455.5,-96 455.5,-148 640.5,-148 640.5,-96 455.5,-96"/>
<text text-anchor="start" x="463.5" y="-136" font-family="Helvetica,sans-Serif" font-size="10.00">/home/travis/build</text>
<text text-anchor="start" x="463.5" y="-125" font-family="Helvetica,sans-Serif" font-size="10.00">/AliceO2Group/AliceO2</text>
<text text-anchor="start" x="463.5" y="-114" font-family="Helvetica,sans-Serif" font-size="10.00">/Detectors/TPC/reconstruction</text>
<text text-anchor="middle" x="548" y="-103" font-family="Helvetica,sans-Serif" font-size="10.00">/macro/runCATrackingClusterNative.C</text>
</a>
</g>
</g>
<!-- Node1&#45;&gt;Node5 -->
<g id="edge30" class="edge"><title>Node1&#45;&gt;Node5</title>
<path fill="none" stroke="midnightblue" d="M1944.66,-314.576C1663.96,-309.912 846.482,-293.098 733,-254 668.443,-231.758 606.416,-179.493 573.142,-148.116"/>
<polygon fill="midnightblue" stroke="midnightblue" points="1944.77,-318.078 1954.82,-314.743 1944.88,-311.079 1944.77,-318.078"/>
</g>
<!-- Node6 -->
<g id="node6" class="node"><title>Node6</title>
<g id="a_node6"><a xlink:href="../../dc/daf/runHardwareClusterDecoderRoot_8C.html" target="_top" xlink:title="/home/travis/build\l/AliceO2Group/AliceO2\l/Detectors/TPC/reconstruction\l/macro/runHardwareClusterDecoderRoot.C">
<polygon fill="none" stroke="black" points="1917.5,-1 1917.5,-53 2122.5,-53 2122.5,-1 1917.5,-1"/>
<text text-anchor="start" x="1925.5" y="-41" font-family="Helvetica,sans-Serif" font-size="10.00">/home/travis/build</text>
<text text-anchor="start" x="1925.5" y="-30" font-family="Helvetica,sans-Serif" font-size="10.00">/AliceO2Group/AliceO2</text>
<text text-anchor="start" x="1925.5" y="-19" font-family="Helvetica,sans-Serif" font-size="10.00">/Detectors/TPC/reconstruction</text>
<text text-anchor="middle" x="2020" y="-8" font-family="Helvetica,sans-Serif" font-size="10.00">/macro/runHardwareClusterDecoderRoot.C</text>
</a>
</g>
</g>
<!-- Node1&#45;&gt;Node6 -->
<g id="edge32" class="edge"><title>Node1&#45;&gt;Node6</title>
<path fill="none" stroke="midnightblue" d="M2036.67,-280.637C2032.78,-221.653 2025.05,-104.603 2021.66,-53.2015"/>
<polygon fill="midnightblue" stroke="midnightblue" points="2033.2,-281.198 2037.35,-290.946 2040.18,-280.737 2033.2,-281.198"/>
</g>
<!-- Node7 -->
<g id="node7" class="node"><title>Node7</title>
<g id="a_node7"><a xlink:href="../../da/d8a/ClusterNative_8cxx.html" target="_top" xlink:title="Unit test for the TPC ClusterNative data struct. ">
<polygon fill="none" stroke="black" points="2498.5,-196 2498.5,-248 2617.5,-248 2617.5,-196 2498.5,-196"/>
<text text-anchor="start" x="2506.5" y="-236" font-family="Helvetica,sans-Serif" font-size="10.00">/home/travis/build</text>
<text text-anchor="start" x="2506.5" y="-225" font-family="Helvetica,sans-Serif" font-size="10.00">/AliceO2Group/AliceO2</text>
<text text-anchor="start" x="2506.5" y="-214" font-family="Helvetica,sans-Serif" font-size="10.00">/DataFormats/TPC/test</text>
<text text-anchor="middle" x="2558" y="-203" font-family="Helvetica,sans-Serif" font-size="10.00">/ClusterNative.cxx</text>
</a>
</g>
</g>
<!-- Node1&#45;&gt;Node7 -->
<g id="edge6" class="edge"><title>Node1&#45;&gt;Node7</title>
<path fill="none" stroke="midnightblue" d="M2133.16,-309.966C2224.22,-302.482 2365.45,-286.501 2484,-254 2490.04,-252.343 2496.25,-250.31 2502.38,-248.086"/>
<polygon fill="midnightblue" stroke="midnightblue" points="2132.82,-306.482 2123.14,-310.773 2133.38,-313.46 2132.82,-306.482"/>
</g>
<!-- Node8 -->
<g id="node8" class="node"><title>Node8</title>
<g id="a_node8"><a xlink:href="../../db/d19/DigitalCurrentClusterIntegrator_8h.html" target="_top" xlink:title="/home/travis/build\l/AliceO2Group/AliceO2\l/Detectors/TPC/reconstruction\l/include/TPCReconstruction\l/DigitalCurrentClusterIntegrator.h">
<polygon fill="none" stroke="black" points="2099.5,-190.5 2099.5,-253.5 2260.5,-253.5 2260.5,-190.5 2099.5,-190.5"/>
<text text-anchor="start" x="2107.5" y="-241.5" font-family="Helvetica,sans-Serif" font-size="10.00">/home/travis/build</text>
<text text-anchor="start" x="2107.5" y="-230.5" font-family="Helvetica,sans-Serif" font-size="10.00">/AliceO2Group/AliceO2</text>
<text text-anchor="start" x="2107.5" y="-219.5" font-family="Helvetica,sans-Serif" font-size="10.00">/Detectors/TPC/reconstruction</text>
<text text-anchor="start" x="2107.5" y="-208.5" font-family="Helvetica,sans-Serif" font-size="10.00">/include/TPCReconstruction</text>
<text text-anchor="middle" x="2180" y="-197.5" font-family="Helvetica,sans-Serif" font-size="10.00">/DigitalCurrentClusterIntegrator.h</text>
</a>
</g>
</g>
<!-- Node1&#45;&gt;Node8 -->
<g id="edge7" class="edge"><title>Node1&#45;&gt;Node8</title>
<path fill="none" stroke="midnightblue" d="M2085.52,-285.315C2100.94,-275.144 2118.1,-263.827 2133.52,-253.659"/>
<polygon fill="midnightblue" stroke="midnightblue" points="2083.58,-282.405 2077.16,-290.833 2087.43,-288.249 2083.58,-282.405"/>
</g>
<!-- Node9 -->
<g id="node9" class="node"><title>Node9</title>
<g id="a_node9"><a xlink:href="../../d2/d41/HardwareClusterDecoder_8h.html" target="_top" xlink:title="/home/travis/build\l/AliceO2Group/AliceO2\l/Detectors/TPC/reconstruction\l/include/TPCReconstruction\l/HardwareClusterDecoder.h">
<polygon fill="none" stroke="black" points="2292,-90.5 2292,-153.5 2442,-153.5 2442,-90.5 2292,-90.5"/>
<text text-anchor="start" x="2300" y="-141.5" font-family="Helvetica,sans-Serif" font-size="10.00">/home/travis/build</text>
<text text-anchor="start" x="2300" y="-130.5" font-family="Helvetica,sans-Serif" font-size="10.00">/AliceO2Group/AliceO2</text>
<text text-anchor="start" x="2300" y="-119.5" font-family="Helvetica,sans-Serif" font-size="10.00">/Detectors/TPC/reconstruction</text>
<text text-anchor="start" x="2300" y="-108.5" font-family="Helvetica,sans-Serif" font-size="10.00">/include/TPCReconstruction</text>
<text text-anchor="middle" x="2367" y="-97.5" font-family="Helvetica,sans-Serif" font-size="10.00">/HardwareClusterDecoder.h</text>
</a>
</g>
</g>
<!-- Node1&#45;&gt;Node9 -->
<g id="edge13" class="edge"><title>Node1&#45;&gt;Node9</title>
<path fill="none" stroke="midnightblue" d="M2132.95,-305.115C2177.14,-296.539 2228.83,-281.244 2269,-254 2306.61,-228.494 2335.49,-183.698 2351.86,-153.689"/>
<polygon fill="midnightblue" stroke="midnightblue" points="2132.25,-301.684 2123.06,-306.948 2133.53,-308.567 2132.25,-301.684"/>
</g>
<!-- Node10 -->
<g id="node10" class="node"><title>Node10</title>
<g id="a_node10"><a xlink:href="../../d1/dfd/runHardwareClusterDecoderRaw_8C.html" target="_top" xlink:title="/home/travis/build\l/AliceO2Group/AliceO2\l/Detectors/TPC/reconstruction\l/macro/runHardwareClusterDecoderRaw.C">
<polygon fill="none" stroke="black" points="2152,-1 2152,-53 2356,-53 2356,-1 2152,-1"/>
<text text-anchor="start" x="2160" y="-41" font-family="Helvetica,sans-Serif" font-size="10.00">/home/travis/build</text>
<text text-anchor="start" x="2160" y="-30" font-family="Helvetica,sans-Serif" font-size="10.00">/AliceO2Group/AliceO2</text>
<text text-anchor="start" x="2160" y="-19" font-family="Helvetica,sans-Serif" font-size="10.00">/Detectors/TPC/reconstruction</text>
<text text-anchor="middle" x="2254" y="-8" font-family="Helvetica,sans-Serif" font-size="10.00">/macro/runHardwareClusterDecoderRaw.C</text>
</a>
</g>
</g>
<!-- Node1&#45;&gt;Node10 -->
<g id="edge31" class="edge"><title>Node1&#45;&gt;Node10</title>
<path fill="none" stroke="midnightblue" d="M2042.94,-280.753C2049.92,-220.885 2064.88,-104.387 2077,-90 2088.22,-76.6794 2120.99,-63.6627 2155.32,-53.0229"/>
<polygon fill="midnightblue" stroke="midnightblue" points="2039.44,-280.554 2041.77,-290.889 2046.39,-281.356 2039.44,-280.554"/>
</g>
<!-- Node11 -->
<g id="node11" class="node"><title>Node11</title>
<g id="a_node11"><a xlink:href="../../d4/d7c/HardwareClusterDecoder_8cxx.html" target="_top" xlink:title="/home/travis/build\l/AliceO2Group/AliceO2\l/Detectors/TPC/reconstruction\l/src/HardwareClusterDecoder.cxx">
<polygon fill="none" stroke="black" points="2380.5,-1 2380.5,-53 2545.5,-53 2545.5,-1 2380.5,-1"/>
<text text-anchor="start" x="2388.5" y="-41" font-family="Helvetica,sans-Serif" font-size="10.00">/home/travis/build</text>
<text text-anchor="start" x="2388.5" y="-30" font-family="Helvetica,sans-Serif" font-size="10.00">/AliceO2Group/AliceO2</text>
<text text-anchor="start" x="2388.5" y="-19" font-family="Helvetica,sans-Serif" font-size="10.00">/Detectors/TPC/reconstruction</text>
<text text-anchor="middle" x="2463" y="-8" font-family="Helvetica,sans-Serif" font-size="10.00">/src/HardwareClusterDecoder.cxx</text>
</a>
</g>
</g>
<!-- Node1&#45;&gt;Node11 -->
<g id="edge33" class="edge"><title>Node1&#45;&gt;Node11</title>
<path fill="none" stroke="midnightblue" d="M2133.11,-304.601C2187.71,-295.616 2256.78,-280.096 2314,-254 2382.26,-222.868 2412.73,-219.116 2450,-154 2467.8,-122.889 2468.21,-80.3141 2466.15,-53.4866"/>
<polygon fill="midnightblue" stroke="midnightblue" points="2132.41,-301.169 2123.09,-306.204 2133.52,-308.081 2132.41,-301.169"/>
</g>
<!-- Node13 -->
<g id="node13" class="node"><title>Node13</title>
<g id="a_node13"><a xlink:href="../../df/d30/TPCCATracking_8h.html" target="_top" xlink:title="Decoder to convert TPC ClusterHardware to ClusterNative. ">
<polygon fill="none" stroke="black" points="742,-190.5 742,-253.5 892,-253.5 892,-190.5 742,-190.5"/>
<text text-anchor="start" x="750" y="-241.5" font-family="Helvetica,sans-Serif" font-size="10.00">/home/travis/build</text>
<text text-anchor="start" x="750" y="-230.5" font-family="Helvetica,sans-Serif" font-size="10.00">/AliceO2Group/AliceO2</text>
<text text-anchor="start" x="750" y="-219.5" font-family="Helvetica,sans-Serif" font-size="10.00">/Detectors/TPC/reconstruction</text>
<text text-anchor="start" x="750" y="-208.5" font-family="Helvetica,sans-Serif" font-size="10.00">/include/TPCReconstruction</text>
<text text-anchor="middle" x="817" y="-197.5" font-family="Helvetica,sans-Serif" font-size="10.00">/TPCCATracking.h</text>
</a>
</g>
</g>
<!-- Node1&#45;&gt;Node13 -->
<g id="edge14" class="edge"><title>Node1&#45;&gt;Node13</title>
<path fill="none" stroke="midnightblue" d="M1944.3,-308.793C1709.54,-290.927 1104.37,-244.87 892.006,-228.708"/>
<polygon fill="midnightblue" stroke="midnightblue" points="1944.29,-312.302 1954.52,-309.571 1944.82,-305.322 1944.29,-312.302"/>
</g>
<!-- Node17 -->
<g id="node17" class="node"><title>Node17</title>
<g id="a_node17"><a xlink:href="../../d5/dc9/TrackTPC_8h.html" target="_top" xlink:title="/home/travis/build\l/AliceO2Group/AliceO2\l/Detectors/TPC/reconstruction\l/include/TPCReconstruction\l/TrackTPC.h">
<polygon fill="none" stroke="black" points="1246,-190.5 1246,-253.5 1396,-253.5 1396,-190.5 1246,-190.5"/>
<text text-anchor="start" x="1254" y="-241.5" font-family="Helvetica,sans-Serif" font-size="10.00">/home/travis/build</text>
<text text-anchor="start" x="1254" y="-230.5" font-family="Helvetica,sans-Serif" font-size="10.00">/AliceO2Group/AliceO2</text>
<text text-anchor="start" x="1254" y="-219.5" font-family="Helvetica,sans-Serif" font-size="10.00">/Detectors/TPC/reconstruction</text>
<text text-anchor="start" x="1254" y="-208.5" font-family="Helvetica,sans-Serif" font-size="10.00">/include/TPCReconstruction</text>
<text text-anchor="middle" x="1321" y="-197.5" font-family="Helvetica,sans-Serif" font-size="10.00">/TrackTPC.h</text>
</a>
</g>
</g>
<!-- Node1&#45;&gt;Node17 -->
<g id="edge19" class="edge"><title>Node1&#45;&gt;Node17</title>
<path fill="none" stroke="midnightblue" d="M1944.72,-303.788C1800.44,-285.1 1527.77,-249.782 1396.01,-232.716"/>
<polygon fill="midnightblue" stroke="midnightblue" points="1944.51,-307.29 1954.88,-305.104 1945.41,-300.348 1944.51,-307.29"/>
</g>
<!-- Node3 -->
<g id="node3" class="node"><title>Node3</title>
<g id="a_node3"><a xlink:href="../../dc/def/Helpers_8cxx.html" target="_top" xlink:title="/home/travis/build\l/AliceO2Group/AliceO2\l/DataFormats/TPC/src/Helpers.cxx">
<polygon fill="none" stroke="black" points="0,-101.5 0,-142.5 172,-142.5 172,-101.5 0,-101.5"/>
<text text-anchor="start" x="8" y="-130.5" font-family="Helvetica,sans-Serif" font-size="10.00">/home/travis/build</text>
<text text-anchor="start" x="8" y="-119.5" font-family="Helvetica,sans-Serif" font-size="10.00">/AliceO2Group/AliceO2</text>
<text text-anchor="middle" x="86" y="-108.5" font-family="Helvetica,sans-Serif" font-size="10.00">/DataFormats/TPC/src/Helpers.cxx</text>
</a>
</g>
</g>
<!-- Node2&#45;&gt;Node3 -->
<g id="edge2" class="edge"><title>Node2&#45;&gt;Node3</title>
<path fill="none" stroke="midnightblue" d="M347.14,-200.169C298.764,-187.433 236.165,-170.471 181,-154 169.114,-150.451 156.457,-146.466 144.386,-142.566"/>
<polygon fill="midnightblue" stroke="midnightblue" points="346.367,-203.585 356.928,-202.74 348.145,-196.814 346.367,-203.585"/>
</g>
<!-- Node4 -->
<g id="node4" class="node"><title>Node4</title>
<g id="a_node4"><a xlink:href="../../d7/d3d/convertClusterToClusterHardware_8C.html" target="_top" xlink:title="/home/travis/build\l/AliceO2Group/AliceO2\l/Detectors/TPC/reconstruction\l/macro/convertClusterToClusterHardware.C">
<polygon fill="none" stroke="black" points="190.5,-96 190.5,-148 399.5,-148 399.5,-96 190.5,-96"/>
<text text-anchor="start" x="198.5" y="-136" font-family="Helvetica,sans-Serif" font-size="10.00">/home/travis/build</text>
<text text-anchor="start" x="198.5" y="-125" font-family="Helvetica,sans-Serif" font-size="10.00">/AliceO2Group/AliceO2</text>
<text text-anchor="start" x="198.5" y="-114" font-family="Helvetica,sans-Serif" font-size="10.00">/Detectors/TPC/reconstruction</text>
<text text-anchor="middle" x="295" y="-103" font-family="Helvetica,sans-Serif" font-size="10.00">/macro/convertClusterToClusterHardware.C</text>
</a>
</g>
</g>
<!-- Node2&#45;&gt;Node4 -->
<g id="edge3" class="edge"><title>Node2&#45;&gt;Node4</title>
<path fill="none" stroke="midnightblue" d="M385.593,-189.753C367.362,-176.32 346.338,-160.828 329.135,-148.152"/>
<polygon fill="midnightblue" stroke="midnightblue" points="383.622,-192.648 393.749,-195.763 387.775,-187.013 383.622,-192.648"/>
</g>
<!-- Node2&#45;&gt;Node5 -->
<g id="edge4" class="edge"><title>Node2&#45;&gt;Node5</title>
<path fill="none" stroke="midnightblue" d="M466.707,-189.389C483.052,-176.041 501.82,-160.714 517.202,-148.152"/>
<polygon fill="midnightblue" stroke="midnightblue" points="464.434,-186.726 458.903,-195.763 468.862,-192.148 464.434,-186.726"/>
</g>
<!-- Node2&#45;&gt;Node6 -->
<g id="edge5" class="edge"><title>Node2&#45;&gt;Node6</title>
<path fill="none" stroke="midnightblue" d="M421.762,-185.886C418.639,-155.764 419.993,-113.595 446,-90 459.668,-77.6001 1570.18,-42.0058 1917.43,-31.1689"/>
<polygon fill="midnightblue" stroke="midnightblue" points="418.311,-186.497 423.02,-195.988 425.257,-185.632 418.311,-186.497"/>
</g>
<!-- Node8&#45;&gt;Node9 -->
<g id="edge8" class="edge"><title>Node8&#45;&gt;Node9</title>
<path fill="none" stroke="midnightblue" d="M2247.47,-185.639C2267.52,-175.131 2289.31,-163.715 2308.72,-153.541"/>
<polygon fill="midnightblue" stroke="midnightblue" points="2245.63,-182.653 2238.4,-190.395 2248.88,-188.853 2245.63,-182.653"/>
</g>
<!-- Node12 -->
<g id="node12" class="node"><title>Node12</title>
<g id="a_node12"><a xlink:href="../../d1/d81/DigitalCurrentClusterIntegrator_8cxx.html" target="_top" xlink:title="/home/travis/build\l/AliceO2Group/AliceO2\l/Detectors/TPC/reconstruction\l/src/DigitalCurrentClusterIntegrator.cxx">
<polygon fill="none" stroke="black" points="2086,-96 2086,-148 2274,-148 2274,-96 2086,-96"/>
<text text-anchor="start" x="2094" y="-136" font-family="Helvetica,sans-Serif" font-size="10.00">/home/travis/build</text>
<text text-anchor="start" x="2094" y="-125" font-family="Helvetica,sans-Serif" font-size="10.00">/AliceO2Group/AliceO2</text>
<text text-anchor="start" x="2094" y="-114" font-family="Helvetica,sans-Serif" font-size="10.00">/Detectors/TPC/reconstruction</text>
<text text-anchor="middle" x="2180" y="-103" font-family="Helvetica,sans-Serif" font-size="10.00">/src/DigitalCurrentClusterIntegrator.cxx</text>
</a>
</g>
</g>
<!-- Node8&#45;&gt;Node12 -->
<g id="edge12" class="edge"><title>Node8&#45;&gt;Node12</title>
<path fill="none" stroke="midnightblue" d="M2180,-180.079C2180,-169.21 2180,-157.794 2180,-148.054"/>
<polygon fill="midnightblue" stroke="midnightblue" points="2176.5,-180.261 2180,-190.261 2183.5,-180.261 2176.5,-180.261"/>
</g>
<!-- Node9&#45;&gt;Node6 -->
<g id="edge10" class="edge"><title>Node9&#45;&gt;Node6</title>
<path fill="none" stroke="midnightblue" d="M2281.75,-89.7813C2241.92,-78.3735 2178.22,-63.4635 2122.77,-50.8772"/>
<polygon fill="midnightblue" stroke="midnightblue" points="2281.01,-93.2109 2291.59,-92.6769 2282.99,-86.4957 2281.01,-93.2109"/>
</g>
<!-- Node9&#45;&gt;Node10 -->
<g id="edge9" class="edge"><title>Node9&#45;&gt;Node10</title>
<path fill="none" stroke="midnightblue" d="M2321.62,-83.6542C2309.15,-73.3858 2295.92,-62.4973 2284.5,-53.1001"/>
<polygon fill="midnightblue" stroke="midnightblue" points="2319.74,-86.6383 2329.69,-90.2906 2324.19,-81.2334 2319.74,-86.6383"/>
</g>
<!-- Node9&#45;&gt;Node11 -->
<g id="edge11" class="edge"><title>Node9&#45;&gt;Node11</title>
<path fill="none" stroke="midnightblue" d="M2406.16,-83.0668C2416.58,-72.9716 2427.57,-62.3183 2437.09,-53.1001"/>
<polygon fill="midnightblue" stroke="midnightblue" points="2403.45,-80.8187 2398.7,-90.2906 2408.32,-85.8464 2403.45,-80.8187"/>
</g>
<!-- Node13&#45;&gt;Node5 -->
<g id="edge17" class="edge"><title>Node13&#45;&gt;Node5</title>
<path fill="none" stroke="midnightblue" d="M731.913,-190.002C694.806,-176.483 651.873,-160.842 616.824,-148.073"/>
<polygon fill="midnightblue" stroke="midnightblue" points="731.117,-193.437 741.711,-193.571 733.513,-186.86 731.117,-193.437"/>
</g>
<!-- Node14 -->
<g id="node14" class="node"><title>Node14</title>
<g id="a_node14"><a xlink:href="../../d1/d27/runCATracking_8C.html" target="_top" xlink:title="/home/travis/build\l/AliceO2Group/AliceO2\l/Detectors/TPC/reconstruction\l/macro/runCATracking.C">
<polygon fill="none" stroke="black" points="826,-96 826,-148 976,-148 976,-96 826,-96"/>
<text text-anchor="start" x="834" y="-136" font-family="Helvetica,sans-Serif" font-size="10.00">/home/travis/build</text>
<text text-anchor="start" x="834" y="-125" font-family="Helvetica,sans-Serif" font-size="10.00">/AliceO2Group/AliceO2</text>
<text text-anchor="start" x="834" y="-114" font-family="Helvetica,sans-Serif" font-size="10.00">/Detectors/TPC/reconstruction</text>
<text text-anchor="middle" x="901" y="-103" font-family="Helvetica,sans-Serif" font-size="10.00">/macro/runCATracking.C</text>
</a>
</g>
</g>
<!-- Node13&#45;&gt;Node14 -->
<g id="edge15" class="edge"><title>Node13&#45;&gt;Node14</title>
<path fill="none" stroke="midnightblue" d="M850.066,-182.423C859.972,-170.866 870.574,-158.497 879.526,-148.054"/>
<polygon fill="midnightblue" stroke="midnightblue" points="847.198,-180.391 843.348,-190.261 852.513,-184.946 847.198,-180.391"/>
</g>
<!-- Node16 -->
<g id="node16" class="node"><title>Node16</title>
<g id="a_node16"><a xlink:href="../../d8/ded/TPCCATracking_8cxx.html" target="_top" xlink:title="/home/travis/build\l/AliceO2Group/AliceO2\l/Detectors/TPC/reconstruction\l/src/TPCCATracking.cxx">
<polygon fill="none" stroke="black" points="658,-96 658,-148 808,-148 808,-96 658,-96"/>
<text text-anchor="start" x="666" y="-136" font-family="Helvetica,sans-Serif" font-size="10.00">/home/travis/build</text>
<text text-anchor="start" x="666" y="-125" font-family="Helvetica,sans-Serif" font-size="10.00">/AliceO2Group/AliceO2</text>
<text text-anchor="start" x="666" y="-114" font-family="Helvetica,sans-Serif" font-size="10.00">/Detectors/TPC/reconstruction</text>
<text text-anchor="middle" x="733" y="-103" font-family="Helvetica,sans-Serif" font-size="10.00">/src/TPCCATracking.cxx</text>
</a>
</g>
</g>
<!-- Node13&#45;&gt;Node16 -->
<g id="edge18" class="edge"><title>Node13&#45;&gt;Node16</title>
<path fill="none" stroke="midnightblue" d="M783.934,-182.423C774.028,-170.866 763.426,-158.497 754.474,-148.054"/>
<polygon fill="midnightblue" stroke="midnightblue" points="781.487,-184.946 790.652,-190.261 786.802,-180.391 781.487,-184.946"/>
</g>
<!-- Node15 -->
<g id="node15" class="node"><title>Node15</title>
<g id="a_node15"><a xlink:href="../../d3/d56/runTPC_8cxx.html" target="_top" xlink:title="/home/travis/build\l/AliceO2Group/AliceO2\l/run/runTPC.cxx">
<polygon fill="none" stroke="black" points="842,-6.5 842,-47.5 960,-47.5 960,-6.5 842,-6.5"/>
<text text-anchor="start" x="850" y="-35.5" font-family="Helvetica,sans-Serif" font-size="10.00">/home/travis/build</text>
<text text-anchor="start" x="850" y="-24.5" font-family="Helvetica,sans-Serif" font-size="10.00">/AliceO2Group/AliceO2</text>
<text text-anchor="middle" x="901" y="-13.5" font-family="Helvetica,sans-Serif" font-size="10.00">/run/runTPC.cxx</text>
</a>
</g>
</g>
<!-- Node14&#45;&gt;Node15 -->
<g id="edge16" class="edge"><title>Node14&#45;&gt;Node15</title>
<path fill="none" stroke="midnightblue" d="M901,-85.2578C901,-72.5353 901,-58.6761 901,-47.7798"/>
<polygon fill="midnightblue" stroke="midnightblue" points="897.5,-85.5873 901,-95.5873 904.5,-85.5874 897.5,-85.5873"/>
</g>
<!-- Node17&#45;&gt;Node5 -->
<g id="edge25" class="edge"><title>Node17&#45;&gt;Node5</title>
<path fill="none" stroke="midnightblue" d="M1235.42,-214.597C1080.41,-202.645 759.042,-176.145 649,-154 640.818,-152.354 632.355,-150.313 623.967,-148.071"/>
<polygon fill="midnightblue" stroke="midnightblue" points="1235.6,-218.121 1245.84,-215.397 1236.13,-211.141 1235.6,-218.121"/>
</g>
<!-- Node17&#45;&gt;Node14 -->
<g id="edge24" class="edge"><title>Node17&#45;&gt;Node14</title>
<path fill="none" stroke="midnightblue" d="M1235.92,-207.831C1167.47,-196.329 1069.16,-177.762 985,-154 978.717,-152.226 972.234,-150.2 965.787,-148.052"/>
<polygon fill="midnightblue" stroke="midnightblue" points="1235.36,-211.285 1245.8,-209.476 1236.51,-204.38 1235.36,-211.285"/>
</g>
<!-- Node17&#45;&gt;Node16 -->
<g id="edge27" class="edge"><title>Node17&#45;&gt;Node16</title>
<path fill="none" stroke="midnightblue" d="M1235.58,-215.433C1134.46,-207.52 961.547,-189.81 817,-154 810.21,-152.318 803.212,-150.269 796.288,-148.035"/>
<polygon fill="midnightblue" stroke="midnightblue" points="1235.5,-218.937 1245.74,-216.214 1236.04,-211.958 1235.5,-218.937"/>
</g>
<!-- Node18 -->
<g id="node18" class="node"><title>Node18</title>
<g id="a_node18"><a xlink:href="../../d9/d90/convertTracks_8C.html" target="_top" xlink:title="/home/travis/build\l/AliceO2Group/AliceO2\l/Detectors/TPC/reconstruction\l/macro/convertTracks.C">
<polygon fill="none" stroke="black" points="1674,-96 1674,-148 1824,-148 1824,-96 1674,-96"/>
<text text-anchor="start" x="1682" y="-136" font-family="Helvetica,sans-Serif" font-size="10.00">/home/travis/build</text>
<text text-anchor="start" x="1682" y="-125" font-family="Helvetica,sans-Serif" font-size="10.00">/AliceO2Group/AliceO2</text>
<text text-anchor="start" x="1682" y="-114" font-family="Helvetica,sans-Serif" font-size="10.00">/Detectors/TPC/reconstruction</text>
<text text-anchor="middle" x="1749" y="-103" font-family="Helvetica,sans-Serif" font-size="10.00">/macro/convertTracks.C</text>
</a>
</g>
</g>
<!-- Node17&#45;&gt;Node18 -->
<g id="edge20" class="edge"><title>Node17&#45;&gt;Node18</title>
<path fill="none" stroke="midnightblue" d="M1406.14,-208.186C1476.08,-196.751 1577.36,-178.1 1664,-154 1670.36,-152.232 1676.91,-150.21 1683.44,-148.064"/>
<polygon fill="midnightblue" stroke="midnightblue" points="1405.37,-204.766 1396.06,-209.82 1406.49,-211.675 1405.37,-204.766"/>
</g>
<!-- Node19 -->
<g id="node19" class="node"><title>Node19</title>
<g id="a_node19"><a xlink:href="../../d6/dee/dEdxRes_8C.html" target="_top" xlink:title="/home/travis/build\l/AliceO2Group/AliceO2\l/Detectors/TPC/reconstruction\l/macro/dEdxRes.C">
<polygon fill="none" stroke="black" points="1842,-96 1842,-148 1992,-148 1992,-96 1842,-96"/>
<text text-anchor="start" x="1850" y="-136" font-family="Helvetica,sans-Serif" font-size="10.00">/home/travis/build</text>
<text text-anchor="start" x="1850" y="-125" font-family="Helvetica,sans-Serif" font-size="10.00">/AliceO2Group/AliceO2</text>
<text text-anchor="start" x="1850" y="-114" font-family="Helvetica,sans-Serif" font-size="10.00">/Detectors/TPC/reconstruction</text>
<text text-anchor="middle" x="1917" y="-103" font-family="Helvetica,sans-Serif" font-size="10.00">/macro/dEdxRes.C</text>
</a>
</g>
</g>
<!-- Node17&#45;&gt;Node19 -->
<g id="edge21" class="edge"><title>Node17&#45;&gt;Node19</title>
<path fill="none" stroke="midnightblue" d="M1406.39,-215.551C1508.72,-207.709 1684.81,-190.027 1832,-154 1838.87,-152.32 1845.94,-150.272 1852.95,-148.038"/>
<polygon fill="midnightblue" stroke="midnightblue" points="1406.13,-212.061 1396.42,-216.302 1406.66,-219.042 1406.13,-212.061"/>
</g>
<!-- Node20 -->
<g id="node20" class="node"><title>Node20</title>
<g id="a_node20"><a xlink:href="../../d5/db8/RawClusterFinder_8C.html" target="_top" xlink:title="/home/travis/build\l/AliceO2Group/AliceO2\l/Detectors/TPC/reconstruction\l/macro/RawClusterFinder.C">
<polygon fill="none" stroke="black" points="994,-96 994,-148 1144,-148 1144,-96 994,-96"/>
<text text-anchor="start" x="1002" y="-136" font-family="Helvetica,sans-Serif" font-size="10.00">/home/travis/build</text>
<text text-anchor="start" x="1002" y="-125" font-family="Helvetica,sans-Serif" font-size="10.00">/AliceO2Group/AliceO2</text>
<text text-anchor="start" x="1002" y="-114" font-family="Helvetica,sans-Serif" font-size="10.00">/Detectors/TPC/reconstruction</text>
<text text-anchor="middle" x="1069" y="-103" font-family="Helvetica,sans-Serif" font-size="10.00">/macro/RawClusterFinder.C</text>
</a>
</g>
</g>
<!-- Node17&#45;&gt;Node20 -->
<g id="edge22" class="edge"><title>Node17&#45;&gt;Node20</title>
<path fill="none" stroke="midnightblue" d="M1236.4,-188.1C1202.86,-175.058 1164.92,-160.303 1133.65,-148.142"/>
<polygon fill="midnightblue" stroke="midnightblue" points="1235.14,-191.367 1245.73,-191.73 1237.68,-184.843 1235.14,-191.367"/>
</g>
<!-- Node22 -->
<g id="node22" class="node"><title>Node22</title>
<g id="a_node22"><a xlink:href="../../db/d60/testTracks_8C.html" target="_top" xlink:title="/home/travis/build\l/AliceO2Group/AliceO2\l/Detectors/TPC/reconstruction\l/macro/testTracks.C">
<polygon fill="none" stroke="black" points="1162,-96 1162,-148 1312,-148 1312,-96 1162,-96"/>
<text text-anchor="start" x="1170" y="-136" font-family="Helvetica,sans-Serif" font-size="10.00">/home/travis/build</text>
<text text-anchor="start" x="1170" y="-125" font-family="Helvetica,sans-Serif" font-size="10.00">/AliceO2Group/AliceO2</text>
<text text-anchor="start" x="1170" y="-114" font-family="Helvetica,sans-Serif" font-size="10.00">/Detectors/TPC/reconstruction</text>
<text text-anchor="middle" x="1237" y="-103" font-family="Helvetica,sans-Serif" font-size="10.00">/macro/testTracks.C</text>
</a>
</g>
</g>
<!-- Node17&#45;&gt;Node22 -->
<g id="edge26" class="edge"><title>Node17&#45;&gt;Node22</title>
<path fill="none" stroke="midnightblue" d="M1287.93,-182.423C1278.03,-170.866 1267.43,-158.497 1258.47,-148.054"/>
<polygon fill="midnightblue" stroke="midnightblue" points="1285.49,-184.946 1294.65,-190.261 1290.8,-180.391 1285.49,-184.946"/>
</g>
<!-- Node23 -->
<g id="node23" class="node"><title>Node23</title>
<g id="a_node23"><a xlink:href="../../d6/da8/TrackTPC_8cxx.html" target="_top" xlink:title="Implementation of the TPC track. ">
<polygon fill="none" stroke="black" points="1330,-96 1330,-148 1480,-148 1480,-96 1330,-96"/>
<text text-anchor="start" x="1338" y="-136" font-family="Helvetica,sans-Serif" font-size="10.00">/home/travis/build</text>
<text text-anchor="start" x="1338" y="-125" font-family="Helvetica,sans-Serif" font-size="10.00">/AliceO2Group/AliceO2</text>
<text text-anchor="start" x="1338" y="-114" font-family="Helvetica,sans-Serif" font-size="10.00">/Detectors/TPC/reconstruction</text>
<text text-anchor="middle" x="1405" y="-103" font-family="Helvetica,sans-Serif" font-size="10.00">/src/TrackTPC.cxx</text>
</a>
</g>
</g>
<!-- Node17&#45;&gt;Node23 -->
<g id="edge28" class="edge"><title>Node17&#45;&gt;Node23</title>
<path fill="none" stroke="midnightblue" d="M1354.07,-182.423C1363.97,-170.866 1374.57,-158.497 1383.53,-148.054"/>
<polygon fill="midnightblue" stroke="midnightblue" points="1351.2,-180.391 1347.35,-190.261 1356.51,-184.946 1351.2,-180.391"/>
</g>
<!-- Node24 -->
<g id="node24" class="node"><title>Node24</title>
<g id="a_node24"><a xlink:href="../../d9/d59/testHitsDigitsClusters_8C.html" target="_top" xlink:title="/home/travis/build\l/AliceO2Group/AliceO2\l/Detectors/TPC/simulation\l/macro/testHitsDigitsClusters.C">
<polygon fill="none" stroke="black" points="1498.5,-96 1498.5,-148 1655.5,-148 1655.5,-96 1498.5,-96"/>
<text text-anchor="start" x="1506.5" y="-136" font-family="Helvetica,sans-Serif" font-size="10.00">/home/travis/build</text>
<text text-anchor="start" x="1506.5" y="-125" font-family="Helvetica,sans-Serif" font-size="10.00">/AliceO2Group/AliceO2</text>
<text text-anchor="start" x="1506.5" y="-114" font-family="Helvetica,sans-Serif" font-size="10.00">/Detectors/TPC/simulation</text>
<text text-anchor="middle" x="1577" y="-103" font-family="Helvetica,sans-Serif" font-size="10.00">/macro/testHitsDigitsClusters.C</text>
</a>
</g>
</g>
<!-- Node17&#45;&gt;Node24 -->
<g id="edge29" class="edge"><title>Node17&#45;&gt;Node24</title>
<path fill="none" stroke="midnightblue" d="M1405.66,-188.592C1440.1,-175.408 1479.29,-160.406 1511.48,-148.08"/>
<polygon fill="midnightblue" stroke="midnightblue" points="1404.17,-185.415 1396.08,-192.259 1406.67,-191.952 1404.17,-185.415"/>
</g>
<!-- Node21 -->
<g id="node21" class="node"><title>Node21</title>
<g id="a_node21"><a xlink:href="../../df/da0/runRawClusterFinder_8C.html" target="_top" xlink:title="/home/travis/build\l/AliceO2Group/AliceO2\l/Detectors/TPC/reconstruction\l/macro/runRawClusterFinder.C">
<polygon fill="none" stroke="black" points="993,-1 993,-53 1145,-53 1145,-1 993,-1"/>
<text text-anchor="start" x="1001" y="-41" font-family="Helvetica,sans-Serif" font-size="10.00">/home/travis/build</text>
<text text-anchor="start" x="1001" y="-30" font-family="Helvetica,sans-Serif" font-size="10.00">/AliceO2Group/AliceO2</text>
<text text-anchor="start" x="1001" y="-19" font-family="Helvetica,sans-Serif" font-size="10.00">/Detectors/TPC/reconstruction</text>
<text text-anchor="middle" x="1069" y="-8" font-family="Helvetica,sans-Serif" font-size="10.00">/macro/runRawClusterFinder.C</text>
</a>
</g>
</g>
<!-- Node20&#45;&gt;Node21 -->
<g id="edge23" class="edge"><title>Node20&#45;&gt;Node21</title>
<path fill="none" stroke="midnightblue" d="M1069,-85.5493C1069,-74.7221 1069,-63.0464 1069,-53.0599"/>
<polygon fill="midnightblue" stroke="midnightblue" points="1065.5,-85.5873 1069,-95.5873 1072.5,-85.5874 1065.5,-85.5873"/>
</g>
</g>
</svg>
