<?xml version="1.0" encoding="UTF-8" standalone="no"?>
<!DOCTYPE svg PUBLIC "-//W3C//DTD SVG 1.1//EN"
 "http://www.w3.org/Graphics/SVG/1.1/DTD/svg11.dtd">
<!-- Generated by graphviz version 2.36.0 (20140111.2315)
 -->
<!-- Title: /home/travis/build/AliceO2Group/AliceO2/Detectors/TOF/simulation/include/TOFSimulation/Digitizer.h Pages: 1 -->
<svg width="2556pt" height="402pt"
 viewBox="0.00 0.00 2556.00 402.00" xmlns="http://www.w3.org/2000/svg" xmlns:xlink="http://www.w3.org/1999/xlink">
<g id="graph0" class="graph" transform="scale(1 1) rotate(0) translate(4 398)">
<title>/home/travis/build/AliceO2Group/AliceO2/Detectors/TOF/simulation/include/TOFSimulation/Digitizer.h</title>
<!-- Node1 -->
<g id="node1" class="node"><title>Node1</title>
<polygon fill="#bfbfbf" stroke="black" points="1801,-341 1801,-393 1967,-393 1967,-341 1801,-341"/>
<text text-anchor="start" x="1809" y="-381" font-family="Helvetica,sans-Serif" font-size="10.00">/home/travis/build</text>
<text text-anchor="start" x="1809" y="-370" font-family="Helvetica,sans-Serif" font-size="10.00">/AliceO2Group/AliceO2</text>
<text text-anchor="start" x="1809" y="-359" font-family="Helvetica,sans-Serif" font-size="10.00">/Detectors/TOF/simulation</text>
<text text-anchor="middle" x="1884" y="-348" font-family="Helvetica,sans-Serif" font-size="10.00">/include/TOFSimulation/Digitizer.h</text>
</g>
<!-- Node2 -->
<g id="node2" class="node"><title>Node2</title>
<g id="a_node2"><a xlink:href="../../d4/d54/Geo_8h.html" target="_top" xlink:title="TOFBase/Geo.h">
<polygon fill="none" stroke="black" points="1746,-210.5 1746,-229.5 1834,-229.5 1834,-210.5 1746,-210.5"/>
<text text-anchor="middle" x="1790" y="-217.5" font-family="Helvetica,sans-Serif" font-size="10.00">TOFBase/Geo.h</text>
</a>
</g>
</g>
<!-- Node1&#45;&gt;Node2 -->
<g id="edge1" class="edge"><title>Node1&#45;&gt;Node2</title>
<path fill="none" stroke="midnightblue" d="M1843.88,-340.709C1830.98,-330.734 1817.78,-318.236 1809,-304 1796.84,-284.285 1792.45,-257.612 1790.87,-239.883"/>
<polygon fill="midnightblue" stroke="midnightblue" points="1794.35,-239.43 1790.19,-229.687 1787.36,-239.899 1794.35,-239.43"/>
</g>
<!-- Node4 -->
<g id="node4" class="node"><title>Node4</title>
<g id="a_node4"><a xlink:href="../../df/d9c/TOF_2base_2include_2TOFBase_2Digit_8h.html" target="_top" xlink:title="TOFBase/Digit.h">
<polygon fill="none" stroke="black" points="1992,-278.5 1992,-297.5 2082,-297.5 2082,-278.5 1992,-278.5"/>
<text text-anchor="middle" x="2037" y="-285.5" font-family="Helvetica,sans-Serif" font-size="10.00">TOFBase/Digit.h</text>
</a>
</g>
</g>
<!-- Node1&#45;&gt;Node4 -->
<g id="edge3" class="edge"><title>Node1&#45;&gt;Node4</title>
<path fill="none" stroke="midnightblue" d="M1934.1,-340.787C1959.79,-327.855 1990.02,-312.644 2011.04,-302.067"/>
<polygon fill="midnightblue" stroke="midnightblue" points="2012.64,-305.18 2020,-297.558 2009.49,-298.927 2012.64,-305.18"/>
</g>
<!-- Node8 -->
<g id="node8" class="node"><title>Node8</title>
<g id="a_node8"><a xlink:href="../../d5/d3c/TOF_2simulation_2include_2TOFSimulation_2Detector_8h.html" target="_top" xlink:title="TOFSimulation/Detector.h">
<polygon fill="none" stroke="black" points="1457.5,-278.5 1457.5,-297.5 1588.5,-297.5 1588.5,-278.5 1457.5,-278.5"/>
<text text-anchor="middle" x="1523" y="-285.5" font-family="Helvetica,sans-Serif" font-size="10.00">TOFSimulation/Detector.h</text>
</a>
</g>
</g>
<!-- Node1&#45;&gt;Node8 -->
<g id="edge8" class="edge"><title>Node1&#45;&gt;Node8</title>
<path fill="none" stroke="midnightblue" d="M1800.73,-348.238C1730.26,-333.207 1631.61,-312.166 1572.82,-299.626"/>
<polygon fill="midnightblue" stroke="midnightblue" points="1573.54,-296.201 1563.03,-297.538 1572.08,-303.047 1573.54,-296.201"/>
</g>
<!-- Node32 -->
<g id="node32" class="node"><title>Node32</title>
<g id="a_node32"><a xlink:href="../../db/d14/MCTruthContainer_8h.html" target="_top" xlink:title="Definition of a container to keep Monte Carlo truth external to simulation objects. ">
<polygon fill="none" stroke="black" points="2326,-273 2326,-303 2440,-303 2440,-273 2326,-273"/>
<text text-anchor="start" x="2334" y="-291" font-family="Helvetica,sans-Serif" font-size="10.00">SimulationDataFormat</text>
<text text-anchor="middle" x="2383" y="-280" font-family="Helvetica,sans-Serif" font-size="10.00">/MCTruthContainer.h</text>
</a>
</g>
</g>
<!-- Node1&#45;&gt;Node32 -->
<g id="edge37" class="edge"><title>Node1&#45;&gt;Node32</title>
<path fill="none" stroke="midnightblue" d="M1967.24,-353.155C2065.1,-338.055 2225.57,-313.292 2315.86,-299.36"/>
<polygon fill="midnightblue" stroke="midnightblue" points="2316.63,-302.783 2325.98,-297.799 2315.56,-295.865 2316.63,-302.783"/>
</g>
<!-- Node37 -->
<g id="node37" class="node"><title>Node37</title>
<g id="a_node37"><a xlink:href="../../df/d71/MCLabel_8h.html" target="_top" xlink:title="TOFSimulation/MCLabel.h">
<polygon fill="none" stroke="black" points="1818,-278.5 1818,-297.5 1950,-297.5 1950,-278.5 1818,-278.5"/>
<text text-anchor="middle" x="1884" y="-285.5" font-family="Helvetica,sans-Serif" font-size="10.00">TOFSimulation/MCLabel.h</text>
</a>
</g>
</g>
<!-- Node1&#45;&gt;Node37 -->
<g id="edge42" class="edge"><title>Node1&#45;&gt;Node37</title>
<path fill="none" stroke="midnightblue" d="M1884,-340.787C1884,-330.069 1884,-317.785 1884,-307.871"/>
<polygon fill="midnightblue" stroke="midnightblue" points="1887.5,-307.558 1884,-297.558 1880.5,-307.558 1887.5,-307.558"/>
</g>
<!-- Node3 -->
<g id="node3" class="node"><title>Node3</title>
<polygon fill="none" stroke="#bfbfbf" points="1746,-74.5 1746,-93.5 1802,-93.5 1802,-74.5 1746,-74.5"/>
<text text-anchor="middle" x="1774" y="-81.5" font-family="Helvetica,sans-Serif" font-size="10.00">Rtypes.h</text>
</g>
<!-- Node2&#45;&gt;Node3 -->
<g id="edge2" class="edge"><title>Node2&#45;&gt;Node3</title>
<path fill="none" stroke="midnightblue" d="M1788.95,-210.208C1786.38,-188.722 1779.75,-133.167 1776.25,-103.814"/>
<polygon fill="midnightblue" stroke="midnightblue" points="1779.69,-103.165 1775.03,-93.6503 1772.74,-103.995 1779.69,-103.165"/>
</g>
<!-- Node4&#45;&gt;Node3 -->
<g id="edge5" class="edge"><title>Node4&#45;&gt;Node3</title>
<path fill="none" stroke="midnightblue" d="M2024.97,-278.497C2012.68,-269.269 1993.79,-253.492 1982,-236 1955.42,-196.576 1978.8,-168.393 1944,-136 1907.82,-102.323 1850.23,-90.8258 1812.27,-86.9355"/>
<polygon fill="midnightblue" stroke="midnightblue" points="1812.39,-83.4324 1802.12,-86.0278 1811.76,-90.4046 1812.39,-83.4324"/>
</g>
<!-- Node5 -->
<g id="node5" class="node"><title>Node5</title>
<polygon fill="none" stroke="#bfbfbf" points="1991,-210.5 1991,-229.5 2083,-229.5 2083,-210.5 1991,-210.5"/>
<text text-anchor="middle" x="2037" y="-217.5" font-family="Helvetica,sans-Serif" font-size="10.00">FairTimeStamp.h</text>
</g>
<!-- Node4&#45;&gt;Node5 -->
<g id="edge4" class="edge"><title>Node4&#45;&gt;Node5</title>
<path fill="none" stroke="midnightblue" d="M2037,-278.372C2037,-268.643 2037,-252.528 2037,-239.85"/>
<polygon fill="midnightblue" stroke="midnightblue" points="2040.5,-239.841 2037,-229.841 2033.5,-239.841 2040.5,-239.841"/>
</g>
<!-- Node6 -->
<g id="node6" class="node"><title>Node6</title>
<polygon fill="none" stroke="#bfbfbf" points="2101.5,-210.5 2101.5,-229.5 2146.5,-229.5 2146.5,-210.5 2101.5,-210.5"/>
<text text-anchor="middle" x="2124" y="-217.5" font-family="Helvetica,sans-Serif" font-size="10.00">iosfwd</text>
</g>
<!-- Node4&#45;&gt;Node6 -->
<g id="edge6" class="edge"><title>Node4&#45;&gt;Node6</title>
<path fill="none" stroke="midnightblue" d="M2048.37,-278.372C2062.57,-267.6 2087.09,-249.002 2104.35,-235.906"/>
<polygon fill="midnightblue" stroke="midnightblue" points="2106.77,-238.463 2112.62,-229.63 2102.54,-232.886 2106.77,-238.463"/>
</g>
<!-- Node7 -->
<g id="node7" class="node"><title>Node7</title>
<polygon fill="none" stroke="#bfbfbf" points="2164.5,-205 2164.5,-235 2259.5,-235 2259.5,-205 2164.5,-205"/>
<text text-anchor="start" x="2172.5" y="-223" font-family="Helvetica,sans-Serif" font-size="10.00">boost/serialization</text>
<text text-anchor="middle" x="2212" y="-212" font-family="Helvetica,sans-Serif" font-size="10.00">/base_object.hpp</text>
</g>
<!-- Node4&#45;&gt;Node7 -->
<g id="edge7" class="edge"><title>Node4&#45;&gt;Node7</title>
<path fill="none" stroke="midnightblue" d="M2059.88,-278.372C2086.44,-268.354 2130.95,-251.566 2164.99,-238.731"/>
<polygon fill="midnightblue" stroke="midnightblue" points="2166.61,-241.86 2174.73,-235.056 2164.14,-235.31 2166.61,-241.86"/>
</g>
<!-- Node8&#45;&gt;Node2 -->
<g id="edge23" class="edge"><title>Node8&#45;&gt;Node2</title>
<path fill="none" stroke="midnightblue" d="M1557.63,-278.439C1605.75,-266.545 1692.86,-245.013 1745.67,-231.959"/>
<polygon fill="midnightblue" stroke="midnightblue" points="1746.56,-235.343 1755.43,-229.546 1744.88,-228.548 1746.56,-235.343"/>
</g>
<!-- Node9 -->
<g id="node9" class="node"><title>Node9</title>
<g id="a_node9"><a xlink:href="../../d1/d3a/Base_2include_2DetectorsBase_2Detector_8h.html" target="_top" xlink:title="DetectorsBase/Detector.h">
<polygon fill="none" stroke="black" points="1320.5,-210.5 1320.5,-229.5 1451.5,-229.5 1451.5,-210.5 1320.5,-210.5"/>
<text text-anchor="middle" x="1386" y="-217.5" font-family="Helvetica,sans-Serif" font-size="10.00">DetectorsBase/Detector.h</text>
</a>
</g>
</g>
<!-- Node8&#45;&gt;Node9 -->
<g id="edge9" class="edge"><title>Node8&#45;&gt;Node9</title>
<path fill="none" stroke="midnightblue" d="M1505.09,-278.372C1481.71,-267.106 1440.55,-247.279 1413.28,-234.14"/>
<polygon fill="midnightblue" stroke="midnightblue" points="1414.44,-230.817 1403.91,-229.63 1411.4,-237.124 1414.44,-230.817"/>
</g>
<!-- Node20 -->
<g id="node20" class="node"><title>Node20</title>
<g id="a_node20"><a xlink:href="../../d4/d25/BaseHits_8h.html" target="_top" xlink:title="SimulationDataFormat\l/BaseHits.h">
<polygon fill="none" stroke="black" points="994,-205 994,-235 1108,-235 1108,-205 994,-205"/>
<text text-anchor="start" x="1002" y="-223" font-family="Helvetica,sans-Serif" font-size="10.00">SimulationDataFormat</text>
<text text-anchor="middle" x="1051" y="-212" font-family="Helvetica,sans-Serif" font-size="10.00">/BaseHits.h</text>
</a>
</g>
</g>
<!-- Node8&#45;&gt;Node20 -->
<g id="edge24" class="edge"><title>Node8&#45;&gt;Node20</title>
<path fill="none" stroke="midnightblue" d="M1461.78,-278.439C1373.18,-266.051 1209.82,-243.208 1118.06,-230.378"/>
<polygon fill="midnightblue" stroke="midnightblue" points="1118.44,-226.897 1108.05,-228.978 1117.47,-233.829 1118.44,-226.897"/>
</g>
<!-- Node9&#45;&gt;Node3 -->
<g id="edge18" class="edge"><title>Node9&#45;&gt;Node3</title>
<path fill="none" stroke="midnightblue" d="M1451.64,-216.707C1540.03,-212.411 1691.29,-200.427 1735,-168 1755.84,-152.536 1765.95,-123.113 1770.55,-103.778"/>
<polygon fill="midnightblue" stroke="midnightblue" points="1774.03,-104.247 1772.66,-93.7409 1767.18,-102.808 1774.03,-104.247"/>
</g>
<!-- Node10 -->
<g id="node10" class="node"><title>Node10</title>
<polygon fill="none" stroke="#bfbfbf" points="1191.5,-74.5 1191.5,-93.5 1226.5,-93.5 1226.5,-74.5 1191.5,-74.5"/>
<text text-anchor="middle" x="1209" y="-81.5" font-family="Helvetica,sans-Serif" font-size="10.00">map</text>
</g>
<!-- Node9&#45;&gt;Node10 -->
<g id="edge10" class="edge"><title>Node9&#45;&gt;Node10</title>
<path fill="none" stroke="midnightblue" d="M1320.23,-218.288C1235.55,-215.816 1095.41,-205.927 1063,-168 1053.76,-157.188 1054.52,-147.42 1063,-136 1095.93,-91.6303 1131.12,-121.54 1182,-100 1183.36,-99.4252 1184.74,-98.8007 1186.11,-98.144"/>
<polygon fill="midnightblue" stroke="midnightblue" points="1187.74,-101.245 1194.99,-93.5246 1184.51,-95.0352 1187.74,-101.245"/>
</g>
<!-- Node11 -->
<g id="node11" class="node"><title>Node11</title>
<polygon fill="none" stroke="#bfbfbf" points="1256,-142.5 1256,-161.5 1300,-161.5 1300,-142.5 1256,-142.5"/>
<text text-anchor="middle" x="1278" y="-149.5" font-family="Helvetica,sans-Serif" font-size="10.00">vector</text>
</g>
<!-- Node9&#45;&gt;Node11 -->
<g id="edge11" class="edge"><title>Node9&#45;&gt;Node11</title>
<path fill="none" stroke="midnightblue" d="M1371.88,-210.372C1353.85,-199.353 1322.42,-180.145 1300.93,-167.014"/>
<polygon fill="midnightblue" stroke="midnightblue" points="1302.48,-163.859 1292.12,-161.63 1298.83,-169.832 1302.48,-163.859"/>
</g>
<!-- Node12 -->
<g id="node12" class="node"><title>Node12</title>
<polygon fill="none" stroke="#bfbfbf" points="1318,-142.5 1318,-161.5 1370,-161.5 1370,-142.5 1318,-142.5"/>
<text text-anchor="middle" x="1344" y="-149.5" font-family="Helvetica,sans-Serif" font-size="10.00">memory</text>
</g>
<!-- Node9&#45;&gt;Node12 -->
<g id="edge12" class="edge"><title>Node9&#45;&gt;Node12</title>
<path fill="none" stroke="midnightblue" d="M1380.51,-210.372C1374.07,-200.25 1363.23,-183.215 1355.03,-170.331"/>
<polygon fill="midnightblue" stroke="midnightblue" points="1357.95,-168.399 1349.63,-161.841 1352.04,-172.157 1357.95,-168.399"/>
</g>
<!-- Node13 -->
<g id="node13" class="node"><title>Node13</title>
<polygon fill="none" stroke="#bfbfbf" points="1388.5,-142.5 1388.5,-161.5 1467.5,-161.5 1467.5,-142.5 1388.5,-142.5"/>
<text text-anchor="middle" x="1428" y="-149.5" font-family="Helvetica,sans-Serif" font-size="10.00">FairDetector.h</text>
</g>
<!-- Node9&#45;&gt;Node13 -->
<g id="edge13" class="edge"><title>Node9&#45;&gt;Node13</title>
<path fill="none" stroke="midnightblue" d="M1391.49,-210.372C1397.93,-200.25 1408.77,-183.215 1416.97,-170.331"/>
<polygon fill="midnightblue" stroke="midnightblue" points="1419.96,-172.157 1422.37,-161.841 1414.05,-168.399 1419.96,-172.157"/>
</g>
<!-- Node14 -->
<g id="node14" class="node"><title>Node14</title>
<polygon fill="none" stroke="#bfbfbf" points="1486,-142.5 1486,-161.5 1586,-161.5 1586,-142.5 1486,-142.5"/>
<text text-anchor="middle" x="1536" y="-149.5" font-family="Helvetica,sans-Serif" font-size="10.00">FairRootManager.h</text>
</g>
<!-- Node9&#45;&gt;Node14 -->
<g id="edge14" class="edge"><title>Node9&#45;&gt;Node14</title>
<path fill="none" stroke="midnightblue" d="M1405.61,-210.372C1431.44,-199.007 1477.07,-178.931 1506.92,-165.796"/>
<polygon fill="midnightblue" stroke="midnightblue" points="1508.64,-168.862 1516.39,-161.63 1505.82,-162.454 1508.64,-168.862"/>
</g>
<!-- Node15 -->
<g id="node15" class="node"><title>Node15</title>
<g id="a_node15"><a xlink:href="../../d0/d9a/MaterialManager_8h.html" target="_top" xlink:title="DetectorsBase/MaterialManager.h">
<polygon fill="none" stroke="black" points="1072.5,-142.5 1072.5,-161.5 1237.5,-161.5 1237.5,-142.5 1072.5,-142.5"/>
<text text-anchor="middle" x="1155" y="-149.5" font-family="Helvetica,sans-Serif" font-size="10.00">DetectorsBase/MaterialManager.h</text>
</a>
</g>
</g>
<!-- Node9&#45;&gt;Node15 -->
<g id="edge15" class="edge"><title>Node9&#45;&gt;Node15</title>
<path fill="none" stroke="midnightblue" d="M1355.8,-210.372C1314.53,-198.58 1240.43,-177.407 1194.7,-164.343"/>
<polygon fill="midnightblue" stroke="midnightblue" points="1195.42,-160.908 1184.84,-161.526 1193.49,-167.638 1195.42,-160.908"/>
</g>
<!-- Node16 -->
<g id="node16" class="node"><title>Node16</title>
<polygon fill="none" stroke="#bfbfbf" points="1604.5,-142.5 1604.5,-161.5 1657.5,-161.5 1657.5,-142.5 1604.5,-142.5"/>
<text text-anchor="middle" x="1631" y="-149.5" font-family="Helvetica,sans-Serif" font-size="10.00">cxxabi.h</text>
</g>
<!-- Node9&#45;&gt;Node16 -->
<g id="edge19" class="edge"><title>Node9&#45;&gt;Node16</title>
<path fill="none" stroke="midnightblue" d="M1429.38,-210.474C1472.04,-201.609 1538.75,-186.457 1595,-168 1597.57,-167.158 1600.2,-166.215 1602.83,-165.222"/>
<polygon fill="midnightblue" stroke="midnightblue" points="1604.16,-168.46 1612.15,-161.501 1601.57,-161.959 1604.16,-168.46"/>
</g>
<!-- Node17 -->
<g id="node17" class="node"><title>Node17</title>
<polygon fill="none" stroke="#bfbfbf" points="1675.5,-142.5 1675.5,-161.5 1726.5,-161.5 1726.5,-142.5 1675.5,-142.5"/>
<text text-anchor="middle" x="1701" y="-149.5" font-family="Helvetica,sans-Serif" font-size="10.00">typeinfo</text>
</g>
<!-- Node9&#45;&gt;Node17 -->
<g id="edge20" class="edge"><title>Node9&#45;&gt;Node17</title>
<path fill="none" stroke="midnightblue" d="M1451.76,-211.273C1509.14,-203.531 1594.2,-189.623 1666,-168 1668.49,-167.249 1671.05,-166.375 1673.58,-165.432"/>
<polygon fill="midnightblue" stroke="midnightblue" points="1675.16,-168.569 1683.12,-161.577 1672.54,-162.079 1675.16,-168.569"/>
</g>
<!-- Node18 -->
<g id="node18" class="node"><title>Node18</title>
<polygon fill="none" stroke="#bfbfbf" points="894,-142.5 894,-161.5 956,-161.5 956,-142.5 894,-142.5"/>
<text text-anchor="middle" x="925" y="-149.5" font-family="Helvetica,sans-Serif" font-size="10.00">type_traits</text>
</g>
<!-- Node9&#45;&gt;Node18 -->
<g id="edge21" class="edge"><title>Node9&#45;&gt;Node18</title>
<path fill="none" stroke="midnightblue" d="M1320.23,-215.884C1236.63,-210.823 1088.37,-198.147 965,-168 961.582,-167.165 958.058,-166.124 954.583,-164.983"/>
<polygon fill="midnightblue" stroke="midnightblue" points="955.649,-161.647 945.054,-161.586 953.299,-168.241 955.649,-161.647"/>
</g>
<!-- Node19 -->
<g id="node19" class="node"><title>Node19</title>
<polygon fill="none" stroke="#bfbfbf" points="974.5,-142.5 974.5,-161.5 1015.5,-161.5 1015.5,-142.5 974.5,-142.5"/>
<text text-anchor="middle" x="995" y="-149.5" font-family="Helvetica,sans-Serif" font-size="10.00">string</text>
</g>
<!-- Node9&#45;&gt;Node19 -->
<g id="edge22" class="edge"><title>Node9&#45;&gt;Node19</title>
<path fill="none" stroke="midnightblue" d="M1320.3,-214.774C1248.05,-208.936 1129.04,-195.793 1030,-168 1027.35,-167.255 1024.63,-166.356 1021.94,-165.371"/>
<polygon fill="midnightblue" stroke="midnightblue" points="1023.06,-162.05 1012.48,-161.557 1020.44,-168.542 1023.06,-162.05"/>
</g>
<!-- Node15&#45;&gt;Node3 -->
<g id="edge16" class="edge"><title>Node15&#45;&gt;Node3</title>
<path fill="none" stroke="midnightblue" d="M1203.61,-142.467C1217.59,-140.178 1232.88,-137.833 1247,-136 1429.45,-112.324 1648.75,-94.4944 1735.75,-87.8422"/>
<polygon fill="midnightblue" stroke="midnightblue" points="1736.23,-91.3161 1745.93,-87.0685 1735.7,-84.3362 1736.23,-91.3161"/>
</g>
<!-- Node15&#45;&gt;Node10 -->
<g id="edge17" class="edge"><title>Node15&#45;&gt;Node10</title>
<path fill="none" stroke="midnightblue" d="M1162.06,-142.372C1170.5,-132.053 1184.82,-114.551 1195.43,-101.585"/>
<polygon fill="midnightblue" stroke="midnightblue" points="1198.14,-103.797 1201.77,-93.8411 1192.73,-99.3644 1198.14,-103.797"/>
</g>
<!-- Node21 -->
<g id="node21" class="node"><title>Node21</title>
<g id="a_node21"><a xlink:href="../../dd/d76/Cartesian3D_8h.html" target="_top" xlink:title="MathUtils/Cartesian3D.h">
<polygon fill="none" stroke="black" points="643.5,-142.5 643.5,-161.5 768.5,-161.5 768.5,-142.5 643.5,-142.5"/>
<text text-anchor="middle" x="706" y="-149.5" font-family="Helvetica,sans-Serif" font-size="10.00">MathUtils/Cartesian3D.h</text>
</a>
</g>
</g>
<!-- Node20&#45;&gt;Node21 -->
<g id="edge25" class="edge"><title>Node20&#45;&gt;Node21</title>
<path fill="none" stroke="midnightblue" d="M993.643,-208.027C928.804,-195.623 824.022,-175.578 760.42,-163.411"/>
<polygon fill="midnightblue" stroke="midnightblue" points="761.058,-159.969 750.578,-161.528 759.743,-166.845 761.058,-159.969"/>
</g>
<!-- Node21&#45;&gt;Node3 -->
<g id="edge29" class="edge"><title>Node21&#45;&gt;Node3</title>
<path fill="none" stroke="midnightblue" d="M768.513,-145.356C802.875,-142.356 846.271,-138.733 885,-136 1214.28,-112.762 1612.74,-92.8083 1735.9,-86.8268"/>
<polygon fill="midnightblue" stroke="midnightblue" points="1736.14,-90.3194 1745.96,-86.3396 1735.8,-83.3276 1736.14,-90.3194"/>
</g>
<!-- Node22 -->
<g id="node22" class="node"><title>Node22</title>
<polygon fill="none" stroke="#bfbfbf" points="577.5,-74.5 577.5,-93.5 726.5,-93.5 726.5,-74.5 577.5,-74.5"/>
<text text-anchor="middle" x="652" y="-81.5" font-family="Helvetica,sans-Serif" font-size="10.00">Math/GenVector/Rotation3D.h</text>
</g>
<!-- Node21&#45;&gt;Node22 -->
<g id="edge26" class="edge"><title>Node21&#45;&gt;Node22</title>
<path fill="none" stroke="midnightblue" d="M698.94,-142.372C690.498,-132.053 676.178,-114.551 665.57,-101.585"/>
<polygon fill="midnightblue" stroke="midnightblue" points="668.275,-99.3644 659.234,-93.8411 662.857,-103.797 668.275,-99.3644"/>
</g>
<!-- Node23 -->
<g id="node23" class="node"><title>Node23</title>
<polygon fill="none" stroke="#bfbfbf" points="745,-74.5 745,-93.5 901,-93.5 901,-74.5 745,-74.5"/>
<text text-anchor="middle" x="823" y="-81.5" font-family="Helvetica,sans-Serif" font-size="10.00">Math/GenVector/Transform3D.h</text>
</g>
<!-- Node21&#45;&gt;Node23 -->
<g id="edge27" class="edge"><title>Node21&#45;&gt;Node23</title>
<path fill="none" stroke="midnightblue" d="M721.296,-142.372C741.003,-131.254 775.491,-111.8 798.78,-98.6624"/>
<polygon fill="midnightblue" stroke="midnightblue" points="800.71,-101.592 807.701,-93.6305 797.271,-95.4953 800.71,-101.592"/>
</g>
<!-- Node24 -->
<g id="node24" class="node"><title>Node24</title>
<polygon fill="none" stroke="#bfbfbf" points="919,-74.5 919,-93.5 1079,-93.5 1079,-74.5 919,-74.5"/>
<text text-anchor="middle" x="999" y="-81.5" font-family="Helvetica,sans-Serif" font-size="10.00">Math/GenVector/Translation3D.h</text>
</g>
<!-- Node21&#45;&gt;Node24 -->
<g id="edge28" class="edge"><title>Node21&#45;&gt;Node24</title>
<path fill="none" stroke="midnightblue" d="M744.004,-142.439C797.028,-130.495 893.191,-108.834 951.07,-95.7966"/>
<polygon fill="midnightblue" stroke="midnightblue" points="952.077,-99.1575 961.063,-93.5455 950.538,-92.3286 952.077,-99.1575"/>
</g>
<!-- Node25 -->
<g id="node25" class="node"><title>Node25</title>
<polygon fill="none" stroke="#bfbfbf" points="1097,-74.5 1097,-93.5 1173,-93.5 1173,-74.5 1097,-74.5"/>
<text text-anchor="middle" x="1135" y="-81.5" font-family="Helvetica,sans-Serif" font-size="10.00">TGeoMatrix.h</text>
</g>
<!-- Node21&#45;&gt;Node25 -->
<g id="edge30" class="edge"><title>Node21&#45;&gt;Node25</title>
<path fill="none" stroke="midnightblue" d="M768.792,-146.035C844.98,-139.229 977.019,-124.914 1088,-100 1092.23,-99.0502 1096.63,-97.8895 1100.96,-96.6384"/>
<polygon fill="midnightblue" stroke="midnightblue" points="1102.3,-99.8888 1110.83,-93.6118 1100.24,-93.1961 1102.3,-99.8888"/>
</g>
<!-- Node26 -->
<g id="node26" class="node"><title>Node26</title>
<polygon fill="none" stroke="#bfbfbf" points="-0.5,-69 -0.5,-99 150.5,-99 150.5,-69 -0.5,-69"/>
<text text-anchor="start" x="7.5" y="-87" font-family="Helvetica,sans-Serif" font-size="10.00">Math/GenVector/Displacement</text>
<text text-anchor="middle" x="75" y="-76" font-family="Helvetica,sans-Serif" font-size="10.00">Vector3D.h</text>
</g>
<!-- Node21&#45;&gt;Node26 -->
<g id="edge31" class="edge"><title>Node21&#45;&gt;Node26</title>
<path fill="none" stroke="midnightblue" d="M643.168,-146.804C543.238,-139.763 341.764,-124.063 160.913,-100.053"/>
<polygon fill="midnightblue" stroke="midnightblue" points="161.328,-96.5777 150.952,-98.7195 160.399,-103.516 161.328,-96.5777"/>
</g>
<!-- Node27 -->
<g id="node27" class="node"><title>Node27</title>
<polygon fill="none" stroke="#bfbfbf" points="169,-74.5 169,-93.5 345,-93.5 345,-74.5 169,-74.5"/>
<text text-anchor="middle" x="257" y="-81.5" font-family="Helvetica,sans-Serif" font-size="10.00">Math/GenVector/PositionVector3D.h</text>
</g>
<!-- Node21&#45;&gt;Node27 -->
<g id="edge32" class="edge"><title>Node21&#45;&gt;Node27</title>
<path fill="none" stroke="midnightblue" d="M645.38,-142.458C575.035,-132.496 455.565,-115.421 353,-100 342.634,-98.4414 331.644,-96.7556 320.944,-95.0963"/>
<polygon fill="midnightblue" stroke="midnightblue" points="321.223,-91.5976 310.803,-93.5185 320.146,-98.5144 321.223,-91.5976"/>
</g>
<!-- Node28 -->
<g id="node28" class="node"><title>Node28</title>
<g id="a_node28"><a xlink:href="../../d2/dd0/Cartesian2D_8h.html" target="_top" xlink:title="MathUtils/Cartesian2D.h">
<polygon fill="none" stroke="black" points="362.5,-74.5 362.5,-93.5 487.5,-93.5 487.5,-74.5 362.5,-74.5"/>
<text text-anchor="middle" x="425" y="-81.5" font-family="Helvetica,sans-Serif" font-size="10.00">MathUtils/Cartesian2D.h</text>
</a>
</g>
</g>
<!-- Node21&#45;&gt;Node28 -->
<g id="edge33" class="edge"><title>Node21&#45;&gt;Node28</title>
<path fill="none" stroke="midnightblue" d="M669.552,-142.439C618.805,-130.52 526.857,-108.924 471.313,-95.8777"/>
<polygon fill="midnightblue" stroke="midnightblue" points="471.919,-92.4248 461.383,-93.5455 470.318,-99.2394 471.919,-92.4248"/>
</g>
<!-- Node31 -->
<g id="node31" class="node"><title>Node31</title>
<polygon fill="none" stroke="#bfbfbf" points="506,-74.5 506,-93.5 560,-93.5 560,-74.5 506,-74.5"/>
<text text-anchor="middle" x="533" y="-81.5" font-family="Helvetica,sans-Serif" font-size="10.00">iostream</text>
</g>
<!-- Node21&#45;&gt;Node31 -->
<g id="edge36" class="edge"><title>Node21&#45;&gt;Node31</title>
<path fill="none" stroke="midnightblue" d="M681.427,-142.345C653.717,-132.487 607.384,-115.705 568,-100 566.112,-99.247 564.172,-98.4585 562.221,-97.6539"/>
<polygon fill="midnightblue" stroke="midnightblue" points="563.124,-94.2367 552.549,-93.5861 560.41,-100.689 563.124,-94.2367"/>
</g>
<!-- Node29 -->
<g id="node29" class="node"><title>Node29</title>
<polygon fill="none" stroke="#bfbfbf" points="258.5,-1 258.5,-31 409.5,-31 409.5,-1 258.5,-1"/>
<text text-anchor="start" x="266.5" y="-19" font-family="Helvetica,sans-Serif" font-size="10.00">Math/GenVector/Displacement</text>
<text text-anchor="middle" x="334" y="-8" font-family="Helvetica,sans-Serif" font-size="10.00">Vector2D.h</text>
</g>
<!-- Node28&#45;&gt;Node29 -->
<g id="edge34" class="edge"><title>Node28&#45;&gt;Node29</title>
<path fill="none" stroke="midnightblue" d="M413.103,-74.3717C400.221,-65.0286 379.22,-49.7966 362.093,-37.375"/>
<polygon fill="midnightblue" stroke="midnightblue" points="363.703,-34.2194 353.553,-31.1815 359.593,-39.8859 363.703,-34.2194"/>
</g>
<!-- Node30 -->
<g id="node30" class="node"><title>Node30</title>
<polygon fill="none" stroke="#bfbfbf" points="428,-6.5 428,-25.5 604,-25.5 604,-6.5 428,-6.5"/>
<text text-anchor="middle" x="516" y="-13.5" font-family="Helvetica,sans-Serif" font-size="10.00">Math/GenVector/PositionVector2D.h</text>
</g>
<!-- Node28&#45;&gt;Node30 -->
<g id="edge35" class="edge"><title>Node28&#45;&gt;Node30</title>
<path fill="none" stroke="midnightblue" d="M436.897,-74.3717C451.884,-63.5015 477.862,-44.6602 495.942,-31.5474"/>
<polygon fill="midnightblue" stroke="midnightblue" points="498.06,-34.3349 504.1,-25.6305 493.95,-28.6684 498.06,-34.3349"/>
</g>
<!-- Node33 -->
<g id="node33" class="node"><title>Node33</title>
<polygon fill="none" stroke="#bfbfbf" points="2278,-210.5 2278,-229.5 2340,-229.5 2340,-210.5 2278,-210.5"/>
<text text-anchor="middle" x="2309" y="-217.5" font-family="Helvetica,sans-Serif" font-size="10.00">TNamed.h</text>
</g>
<!-- Node32&#45;&gt;Node33 -->
<g id="edge38" class="edge"><title>Node32&#45;&gt;Node33</title>
<path fill="none" stroke="midnightblue" d="M2366.94,-272.679C2355.06,-262.082 2338.89,-247.655 2326.64,-236.736"/>
<polygon fill="midnightblue" stroke="midnightblue" points="2328.69,-233.872 2318.9,-229.828 2324.03,-239.097 2328.69,-233.872"/>
</g>
<!-- Node34 -->
<g id="node34" class="node"><title>Node34</title>
<polygon fill="none" stroke="#bfbfbf" points="2358.5,-210.5 2358.5,-229.5 2407.5,-229.5 2407.5,-210.5 2358.5,-210.5"/>
<text text-anchor="middle" x="2383" y="-217.5" font-family="Helvetica,sans-Serif" font-size="10.00">cassert</text>
</g>
<!-- Node32&#45;&gt;Node34 -->
<g id="edge39" class="edge"><title>Node32&#45;&gt;Node34</title>
<path fill="none" stroke="midnightblue" d="M2383,-272.679C2383,-263.101 2383,-250.394 2383,-239.977"/>
<polygon fill="midnightblue" stroke="midnightblue" points="2386.5,-239.828 2383,-229.828 2379.5,-239.828 2386.5,-239.828"/>
</g>
<!-- Node35 -->
<g id="node35" class="node"><title>Node35</title>
<polygon fill="none" stroke="#bfbfbf" points="2425.5,-210.5 2425.5,-229.5 2484.5,-229.5 2484.5,-210.5 2425.5,-210.5"/>
<text text-anchor="middle" x="2455" y="-217.5" font-family="Helvetica,sans-Serif" font-size="10.00">stdexcept</text>
</g>
<!-- Node32&#45;&gt;Node35 -->
<g id="edge40" class="edge"><title>Node32&#45;&gt;Node35</title>
<path fill="none" stroke="midnightblue" d="M2398.62,-272.679C2410.18,-262.082 2425.92,-247.655 2437.83,-236.736"/>
<polygon fill="midnightblue" stroke="midnightblue" points="2440.36,-239.166 2445.37,-229.828 2435.63,-234.006 2440.36,-239.166"/>
</g>
<!-- Node36 -->
<g id="node36" class="node"><title>Node36</title>
<polygon fill="none" stroke="#bfbfbf" points="2502.5,-210.5 2502.5,-229.5 2547.5,-229.5 2547.5,-210.5 2502.5,-210.5"/>
<text text-anchor="middle" x="2525" y="-217.5" font-family="Helvetica,sans-Serif" font-size="10.00">gsl/gsl</text>
</g>
<!-- Node32&#45;&gt;Node36 -->
<g id="edge41" class="edge"><title>Node32&#45;&gt;Node36</title>
<path fill="none" stroke="midnightblue" d="M2413.36,-272.964C2435.46,-262.739 2466.1,-248.541 2493,-236 2494.39,-235.352 2495.81,-234.687 2497.25,-234.016"/>
<polygon fill="midnightblue" stroke="midnightblue" points="2499.16,-236.989 2506.73,-229.58 2496.19,-230.649 2499.16,-236.989"/>
</g>
<!-- Node38 -->
<g id="node38" class="node"><title>Node38</title>
<g id="a_node38"><a xlink:href="../../d7/dcd/MCCompLabel_8h.html" target="_top" xlink:title="SimulationDataFormat\l/MCCompLabel.h">
<polygon fill="none" stroke="black" points="1821,-137 1821,-167 1935,-167 1935,-137 1821,-137"/>
<text text-anchor="start" x="1829" y="-155" font-family="Helvetica,sans-Serif" font-size="10.00">SimulationDataFormat</text>
<text text-anchor="middle" x="1878" y="-144" font-family="Helvetica,sans-Serif" font-size="10.00">/MCCompLabel.h</text>
</a>
</g>
</g>
<!-- Node37&#45;&gt;Node38 -->
<g id="edge43" class="edge"><title>Node37&#45;&gt;Node38</title>
<path fill="none" stroke="midnightblue" d="M1883.61,-278.208C1882.7,-257.984 1880.44,-207.575 1879.09,-177.244"/>
<polygon fill="midnightblue" stroke="midnightblue" points="1882.57,-176.905 1878.63,-167.071 1875.58,-177.218 1882.57,-176.905"/>
</g>
<!-- Node38&#45;&gt;Node3 -->
<g id="edge44" class="edge"><title>Node38&#45;&gt;Node3</title>
<path fill="none" stroke="midnightblue" d="M1855.69,-136.841C1838.1,-125.681 1813.71,-110.198 1796.16,-99.0625"/>
<polygon fill="midnightblue" stroke="midnightblue" points="1798,-96.085 1787.68,-93.6819 1794.25,-101.995 1798,-96.085"/>
</g>
</g>
</svg>
