<?xml version="1.0" encoding="UTF-8" standalone="no"?>
<!DOCTYPE svg PUBLIC "-//W3C//DTD SVG 1.1//EN"
 "http://www.w3.org/Graphics/SVG/1.1/DTD/svg11.dtd">
<!-- Generated by graphviz version 2.36.0 (20140111.2315)
 -->
<!-- Title: /home/travis/build/AliceO2Group/AliceO2/Detectors/Base/include/DetectorsBase/AlignParam.h Pages: 1 -->
<svg width="352pt" height="152pt"
 viewBox="0.00 0.00 352.00 152.00" xmlns="http://www.w3.org/2000/svg" xmlns:xlink="http://www.w3.org/1999/xlink">
<g id="graph0" class="graph" transform="scale(1 1) rotate(0) translate(4 148)">
<title>/home/travis/build/AliceO2Group/AliceO2/Detectors/Base/include/DetectorsBase/AlignParam.h</title>
<!-- Node1 -->
<g id="node1" class="node"><title>Node1</title>
<polygon fill="#bfbfbf" stroke="black" points="105,-91 105,-143 251,-143 251,-91 105,-91"/>
<text text-anchor="start" x="113" y="-131" font-family="Helvetica,sans-Serif" font-size="10.00">/home/travis/build</text>
<text text-anchor="start" x="113" y="-120" font-family="Helvetica,sans-Serif" font-size="10.00">/AliceO2Group/AliceO2</text>
<text text-anchor="start" x="113" y="-109" font-family="Helvetica,sans-Serif" font-size="10.00">/Detectors/Base/include</text>
<text text-anchor="middle" x="178" y="-98" font-family="Helvetica,sans-Serif" font-size="10.00">/DetectorsBase/AlignParam.h</text>
</g>
<!-- Node2 -->
<g id="node2" class="node"><title>Node2</title>
<g id="a_node2"><a xlink:href="../../d6/d35/AlignParam_8cxx.html" target="_top" xlink:title="Implementation of the base alignment parameters class. ">
<polygon fill="none" stroke="black" points="0,-6.5 0,-47.5 176,-47.5 176,-6.5 0,-6.5"/>
<text text-anchor="start" x="8" y="-35.5" font-family="Helvetica,sans-Serif" font-size="10.00">/home/travis/build</text>
<text text-anchor="start" x="8" y="-24.5" font-family="Helvetica,sans-Serif" font-size="10.00">/AliceO2Group/AliceO2</text>
<text text-anchor="middle" x="88" y="-13.5" font-family="Helvetica,sans-Serif" font-size="10.00">/Detectors/Base/src/AlignParam.cxx</text>
</a>
</g>
</g>
<!-- Node1&#45;&gt;Node2 -->
<g id="edge1" class="edge"><title>Node1&#45;&gt;Node2</title>
<path fill="none" stroke="midnightblue" d="M144.51,-83.2545C132.22,-71.2371 118.701,-58.019 107.969,-47.5249"/>
<polygon fill="midnightblue" stroke="midnightblue" points="142.371,-86.0581 151.968,-90.5468 147.265,-81.053 142.371,-86.0581"/>
</g>
<!-- Node3 -->
<g id="node3" class="node"><title>Node3</title>
<g id="a_node3"><a xlink:href="../../d2/d93/Detectors_2Base_2src_2GeometryManager_8cxx.html" target="_top" xlink:title="/home/travis/build\l/AliceO2Group/AliceO2\l/Detectors/Base/src/Geometry\lManager.cxx">
<polygon fill="none" stroke="black" points="194,-1 194,-53 344,-53 344,-1 194,-1"/>
<text text-anchor="start" x="202" y="-41" font-family="Helvetica,sans-Serif" font-size="10.00">/home/travis/build</text>
<text text-anchor="start" x="202" y="-30" font-family="Helvetica,sans-Serif" font-size="10.00">/AliceO2Group/AliceO2</text>
<text text-anchor="start" x="202" y="-19" font-family="Helvetica,sans-Serif" font-size="10.00">/Detectors/Base/src/Geometry</text>
<text text-anchor="middle" x="269" y="-8" font-family="Helvetica,sans-Serif" font-size="10.00">Manager.cxx</text>
</a>
</g>
</g>
<!-- Node1&#45;&gt;Node3 -->
<g id="edge2" class="edge"><title>Node1&#45;&gt;Node3</title>
<path fill="none" stroke="midnightblue" d="M211.68,-83.4308C222.045,-73.4069 233.29,-62.5325 243.052,-53.0921"/>
<polygon fill="midnightblue" stroke="midnightblue" points="209.077,-81.0791 204.321,-90.5468 213.943,-86.1112 209.077,-81.0791"/>
</g>
</g>
</svg>
