<?xml version="1.0" encoding="UTF-8" standalone="no"?>
<!DOCTYPE svg PUBLIC "-//W3C//DTD SVG 1.1//EN"
 "http://www.w3.org/Graphics/SVG/1.1/DTD/svg11.dtd">
<!-- Generated by graphviz version 2.36.0 (20140111.2315)
 -->
<!-- Title: FairTimeStamp Pages: 1 -->
<svg width="346pt" height="436pt"
 viewBox="0.00 0.00 346.00 436.00" xmlns="http://www.w3.org/2000/svg" xmlns:xlink="http://www.w3.org/1999/xlink">
<g id="graph0" class="graph" transform="scale(1 1) rotate(0) translate(4 432)">
<title>FairTimeStamp</title>
<!-- Node1 -->
<g id="node1" class="node"><title>Node1</title>
<polygon fill="#bfbfbf" stroke="black" points="133.5,-370.5 133.5,-427.5 216.5,-427.5 216.5,-370.5 133.5,-370.5"/>
<text text-anchor="middle" x="175" y="-415.5" font-family="Helvetica,sans-Serif" font-size="10.00">FairTimeStamp</text>
<polyline fill="none" stroke="black" points="133.5,-408.5 216.5,-408.5 "/>
<text text-anchor="middle" x="175" y="-396.5" font-family="Helvetica,sans-Serif" font-size="10.00"> </text>
<polyline fill="none" stroke="black" points="133.5,-389.5 216.5,-389.5 "/>
<text text-anchor="middle" x="175" y="-377.5" font-family="Helvetica,sans-Serif" font-size="10.00"> </text>
</g>
<!-- Node2 -->
<g id="node2" class="node"><title>Node2</title>
<g id="a_node2"><a xlink:href="../../d5/d5a/classo2_1_1EMCAL_1_1Digit.html" target="_top" xlink:title="EMCAL digit implementation. ">
<polygon fill="none" stroke="black" points="0,-83.5 0,-250.5 94,-250.5 94,-83.5 0,-83.5"/>
<text text-anchor="middle" x="47" y="-238.5" font-family="Helvetica,sans-Serif" font-size="10.00">o2::EMCAL::Digit</text>
<polyline fill="none" stroke="black" points="0,-231.5 94,-231.5 "/>
<text text-anchor="middle" x="47" y="-219.5" font-family="Helvetica,sans-Serif" font-size="10.00"> </text>
<polyline fill="none" stroke="black" points="0,-212.5 94,-212.5 "/>
<text text-anchor="start" x="8" y="-200.5" font-family="Helvetica,sans-Serif" font-size="10.00">+ Digit()</text>
<text text-anchor="start" x="8" y="-189.5" font-family="Helvetica,sans-Serif" font-size="10.00">+ Digit()</text>
<text text-anchor="start" x="8" y="-178.5" font-family="Helvetica,sans-Serif" font-size="10.00">+ ~Digit()</text>
<text text-anchor="start" x="8" y="-167.5" font-family="Helvetica,sans-Serif" font-size="10.00">+ operator&lt;()</text>
<text text-anchor="start" x="8" y="-156.5" font-family="Helvetica,sans-Serif" font-size="10.00">+ GetModule()</text>
<text text-anchor="start" x="8" y="-145.5" font-family="Helvetica,sans-Serif" font-size="10.00">+ GetTower()</text>
<text text-anchor="start" x="8" y="-134.5" font-family="Helvetica,sans-Serif" font-size="10.00">+ GetAmplitude()</text>
<text text-anchor="start" x="8" y="-123.5" font-family="Helvetica,sans-Serif" font-size="10.00">+ SetModule()</text>
<text text-anchor="start" x="8" y="-112.5" font-family="Helvetica,sans-Serif" font-size="10.00">+ SetTower()</text>
<text text-anchor="start" x="8" y="-101.5" font-family="Helvetica,sans-Serif" font-size="10.00">+ SetAmplitude()</text>
<text text-anchor="start" x="8" y="-90.5" font-family="Helvetica,sans-Serif" font-size="10.00">+ PrintStream()</text>
</a>
</g>
</g>
<!-- Node1&#45;&gt;Node2 -->
<g id="edge1" class="edge"><title>Node1&#45;&gt;Node2</title>
<path fill="none" stroke="midnightblue" d="M128.877,-363.478C119.343,-354.686 110.066,-344.674 103,-334 86.4628,-309.019 74.3609,-278.686 65.7296,-250.818"/>
<polygon fill="none" stroke="midnightblue" points="126.732,-366.253 136.541,-370.257 131.369,-361.01 126.732,-366.253"/>
</g>
<!-- Node3 -->
<g id="node3" class="node"><title>Node3</title>
<g id="a_node3"><a xlink:href="../../d0/dd8/classo2_1_1ITSMFT_1_1Digit.html" target="_top" xlink:title="Digit class for the ITS. ">
<polygon fill="none" stroke="black" points="112.5,-1 112.5,-333 237.5,-333 237.5,-1 112.5,-1"/>
<text text-anchor="middle" x="175" y="-321" font-family="Helvetica,sans-Serif" font-size="10.00">o2::ITSMFT::Digit</text>
<polyline fill="none" stroke="black" points="112.5,-314 237.5,-314 "/>
<text text-anchor="start" x="120.5" y="-302" font-family="Helvetica,sans-Serif" font-size="10.00">+ maxLabels</text>
<polyline fill="none" stroke="black" points="112.5,-295 237.5,-295 "/>
<text text-anchor="start" x="120.5" y="-283" font-family="Helvetica,sans-Serif" font-size="10.00">+ Digit()</text>
<text text-anchor="start" x="120.5" y="-272" font-family="Helvetica,sans-Serif" font-size="10.00">+ Digit()</text>
<text text-anchor="start" x="120.5" y="-261" font-family="Helvetica,sans-Serif" font-size="10.00">+ ~Digit()</text>
<text text-anchor="start" x="120.5" y="-250" font-family="Helvetica,sans-Serif" font-size="10.00">+ operator+()</text>
<text text-anchor="start" x="120.5" y="-239" font-family="Helvetica,sans-Serif" font-size="10.00">+ operator+=()</text>
<text text-anchor="start" x="120.5" y="-228" font-family="Helvetica,sans-Serif" font-size="10.00">+ getChipIndex()</text>
<text text-anchor="start" x="120.5" y="-217" font-family="Helvetica,sans-Serif" font-size="10.00">+ getColumn()</text>
<text text-anchor="start" x="120.5" y="-206" font-family="Helvetica,sans-Serif" font-size="10.00">+ getRow()</text>
<text text-anchor="start" x="120.5" y="-195" font-family="Helvetica,sans-Serif" font-size="10.00">+ getCharge()</text>
<text text-anchor="start" x="120.5" y="-184" font-family="Helvetica,sans-Serif" font-size="10.00">+ getLabel()</text>
<text text-anchor="start" x="120.5" y="-173" font-family="Helvetica,sans-Serif" font-size="10.00">+ setLabel()</text>
<text text-anchor="start" x="120.5" y="-162" font-family="Helvetica,sans-Serif" font-size="10.00">+ setLabel()</text>
<text text-anchor="start" x="120.5" y="-151" font-family="Helvetica,sans-Serif" font-size="10.00">+ setChipIndex()</text>
<text text-anchor="start" x="120.5" y="-140" font-family="Helvetica,sans-Serif" font-size="10.00">+ setPixelIndex()</text>
<text text-anchor="start" x="120.5" y="-129" font-family="Helvetica,sans-Serif" font-size="10.00">+ setCharge()</text>
<text text-anchor="start" x="120.5" y="-118" font-family="Helvetica,sans-Serif" font-size="10.00">+ addCharge()</text>
<text text-anchor="start" x="120.5" y="-107" font-family="Helvetica,sans-Serif" font-size="10.00">+ getROFrame()</text>
<text text-anchor="start" x="120.5" y="-96" font-family="Helvetica,sans-Serif" font-size="10.00">+ getNOverflowFrames()</text>
<text text-anchor="start" x="120.5" y="-85" font-family="Helvetica,sans-Serif" font-size="10.00">+ setROFrame()</text>
<text text-anchor="start" x="120.5" y="-74" font-family="Helvetica,sans-Serif" font-size="10.00">+ setNOverflowFrames()</text>
<text text-anchor="start" x="120.5" y="-63" font-family="Helvetica,sans-Serif" font-size="10.00">+ equal()</text>
<text text-anchor="start" x="120.5" y="-52" font-family="Helvetica,sans-Serif" font-size="10.00">+ operator&lt;()</text>
<text text-anchor="start" x="120.5" y="-41" font-family="Helvetica,sans-Serif" font-size="10.00">+ print()</text>
<text text-anchor="start" x="120.5" y="-30" font-family="Helvetica,sans-Serif" font-size="10.00">+ serialize()</text>
<text text-anchor="start" x="120.5" y="-19" font-family="Helvetica,sans-Serif" font-size="10.00">+ getOrderingKey()</text>
<text text-anchor="start" x="120.5" y="-8" font-family="Helvetica,sans-Serif" font-size="10.00">+ key2ROFrame()</text>
</a>
</g>
</g>
<!-- Node1&#45;&gt;Node3 -->
<g id="edge2" class="edge"><title>Node1&#45;&gt;Node3</title>
<path fill="none" stroke="midnightblue" d="M175,-360.143C175,-352.008 175,-342.917 175,-333.235"/>
<polygon fill="none" stroke="midnightblue" points="171.5,-360.257 175,-370.257 178.5,-360.257 171.5,-360.257"/>
</g>
<!-- Node4 -->
<g id="node4" class="node"><title>Node4</title>
<g id="a_node4"><a xlink:href="../../d8/db4/classo2_1_1tof_1_1Digit.html" target="_top" xlink:title="TOF digit implementation. ">
<polygon fill="none" stroke="black" points="256,-78 256,-256 338,-256 338,-78 256,-78"/>
<text text-anchor="middle" x="297" y="-244" font-family="Helvetica,sans-Serif" font-size="10.00">o2::tof::Digit</text>
<polyline fill="none" stroke="black" points="256,-237 338,-237 "/>
<text text-anchor="middle" x="297" y="-225" font-family="Helvetica,sans-Serif" font-size="10.00"> </text>
<polyline fill="none" stroke="black" points="256,-218 338,-218 "/>
<text text-anchor="start" x="264" y="-206" font-family="Helvetica,sans-Serif" font-size="10.00">+ Digit()</text>
<text text-anchor="start" x="264" y="-195" font-family="Helvetica,sans-Serif" font-size="10.00">+ Digit()</text>
<text text-anchor="start" x="264" y="-184" font-family="Helvetica,sans-Serif" font-size="10.00">+ ~Digit()</text>
<text text-anchor="start" x="264" y="-173" font-family="Helvetica,sans-Serif" font-size="10.00">+ getChannel()</text>
<text text-anchor="start" x="264" y="-162" font-family="Helvetica,sans-Serif" font-size="10.00">+ setChannel()</text>
<text text-anchor="start" x="264" y="-151" font-family="Helvetica,sans-Serif" font-size="10.00">+ getTDC()</text>
<text text-anchor="start" x="264" y="-140" font-family="Helvetica,sans-Serif" font-size="10.00">+ setTDC()</text>
<text text-anchor="start" x="264" y="-129" font-family="Helvetica,sans-Serif" font-size="10.00">+ getTOT()</text>
<text text-anchor="start" x="264" y="-118" font-family="Helvetica,sans-Serif" font-size="10.00">+ setTOT()</text>
<text text-anchor="start" x="264" y="-107" font-family="Helvetica,sans-Serif" font-size="10.00">+ getBC()</text>
<text text-anchor="start" x="264" y="-96" font-family="Helvetica,sans-Serif" font-size="10.00">+ setBC()</text>
<text text-anchor="start" x="264" y="-85" font-family="Helvetica,sans-Serif" font-size="10.00">+ printStream()</text>
</a>
</g>
</g>
<!-- Node1&#45;&gt;Node4 -->
<g id="edge3" class="edge"><title>Node1&#45;&gt;Node4</title>
<path fill="none" stroke="midnightblue" d="M220.687,-363.531C230.079,-354.736 239.171,-344.71 246,-334 260.913,-310.613 271.693,-282.596 279.386,-256.298"/>
<polygon fill="none" stroke="midnightblue" points="218.237,-361.027 213.129,-370.31 222.91,-366.239 218.237,-361.027"/>
</g>
</g>
</svg>
