<?xml version="1.0" encoding="UTF-8" standalone="no"?>
<!DOCTYPE svg PUBLIC "-//W3C//DTD SVG 1.1//EN"
 "http://www.w3.org/Graphics/SVG/1.1/DTD/svg11.dtd">
<!-- Generated by graphviz version 2.36.0 (20140111.2315)
 -->
<!-- Title: /home/travis/build/AliceO2Group/AliceO2/Detectors/Base/src/AlignParam.cxx Pages: 1 -->
<svg width="612pt" height="162pt"
 viewBox="0.00 0.00 612.00 162.00" xmlns="http://www.w3.org/2000/svg" xmlns:xlink="http://www.w3.org/1999/xlink">
<g id="graph0" class="graph" transform="scale(1 1) rotate(0) translate(4 158)">
<title>/home/travis/build/AliceO2Group/AliceO2/Detectors/Base/src/AlignParam.cxx</title>
<!-- Node1 -->
<g id="node1" class="node"><title>Node1</title>
<polygon fill="#bfbfbf" stroke="black" points="150,-112.5 150,-153.5 326,-153.5 326,-112.5 150,-112.5"/>
<text text-anchor="start" x="158" y="-141.5" font-family="Helvetica,sans-Serif" font-size="10.00">/home/travis/build</text>
<text text-anchor="start" x="158" y="-130.5" font-family="Helvetica,sans-Serif" font-size="10.00">/AliceO2Group/AliceO2</text>
<text text-anchor="middle" x="238" y="-119.5" font-family="Helvetica,sans-Serif" font-size="10.00">/Detectors/Base/src/AlignParam.cxx</text>
</g>
<!-- Node2 -->
<g id="node2" class="node"><title>Node2</title>
<polygon fill="none" stroke="#bfbfbf" points="-0.5,-56.5 -0.5,-75.5 70.5,-75.5 70.5,-56.5 -0.5,-56.5"/>
<text text-anchor="middle" x="35" y="-63.5" font-family="Helvetica,sans-Serif" font-size="10.00">FairLogger.h</text>
</g>
<!-- Node1&#45;&gt;Node2 -->
<g id="edge1" class="edge"><title>Node1&#45;&gt;Node2</title>
<path fill="none" stroke="midnightblue" d="M177.093,-112.498C142.723,-101.493 100.917,-88.1065 71.5799,-78.7128"/>
<polygon fill="midnightblue" stroke="midnightblue" points="72.3467,-75.2833 61.7556,-75.5671 70.212,-81.9499 72.3467,-75.2833"/>
</g>
<!-- Node3 -->
<g id="node3" class="node"><title>Node3</title>
<polygon fill="none" stroke="#bfbfbf" points="89,-56.5 89,-75.5 175,-75.5 175,-56.5 89,-56.5"/>
<text text-anchor="middle" x="132" y="-63.5" font-family="Helvetica,sans-Serif" font-size="10.00">TGeoManager.h</text>
</g>
<!-- Node1&#45;&gt;Node3 -->
<g id="edge2" class="edge"><title>Node1&#45;&gt;Node3</title>
<path fill="none" stroke="midnightblue" d="M206.197,-112.498C189.632,-102.34 169.761,-90.1551 154.753,-80.9523"/>
<polygon fill="midnightblue" stroke="midnightblue" points="156.465,-77.8963 146.11,-75.6525 152.805,-83.8637 156.465,-77.8963"/>
</g>
<!-- Node4 -->
<g id="node4" class="node"><title>Node4</title>
<polygon fill="none" stroke="#bfbfbf" points="286,-0.5 286,-19.5 362,-19.5 362,-0.5 286,-0.5"/>
<text text-anchor="middle" x="324" y="-7.5" font-family="Helvetica,sans-Serif" font-size="10.00">TGeoMatrix.h</text>
</g>
<!-- Node1&#45;&gt;Node4 -->
<g id="edge3" class="edge"><title>Node1&#45;&gt;Node4</title>
<path fill="none" stroke="midnightblue" d="M226.362,-112.415C218.347,-96.1242 210.956,-72.9439 222,-56 234.125,-37.3974 255.868,-26.4306 276.173,-19.9918"/>
<polygon fill="midnightblue" stroke="midnightblue" points="277.329,-23.3015 285.977,-17.181 275.4,-16.5725 277.329,-23.3015"/>
</g>
<!-- Node5 -->
<g id="node5" class="node"><title>Node5</title>
<polygon fill="none" stroke="#bfbfbf" points="231.5,-56.5 231.5,-75.5 314.5,-75.5 314.5,-56.5 231.5,-56.5"/>
<text text-anchor="middle" x="273" y="-63.5" font-family="Helvetica,sans-Serif" font-size="10.00">TGeoOverlap.h</text>
</g>
<!-- Node1&#45;&gt;Node5 -->
<g id="edge4" class="edge"><title>Node1&#45;&gt;Node5</title>
<path fill="none" stroke="midnightblue" d="M248.501,-112.498C253.3,-103.586 258.939,-93.1135 263.597,-84.4636"/>
<polygon fill="midnightblue" stroke="midnightblue" points="266.682,-86.1166 268.341,-75.6525 260.518,-82.7978 266.682,-86.1166"/>
</g>
<!-- Node6 -->
<g id="node6" class="node"><title>Node6</title>
<polygon fill="none" stroke="#bfbfbf" points="333,-56.5 333,-75.5 443,-75.5 443,-56.5 333,-56.5"/>
<text text-anchor="middle" x="388" y="-63.5" font-family="Helvetica,sans-Serif" font-size="10.00">TGeoPhysicalNode.h</text>
</g>
<!-- Node1&#45;&gt;Node6 -->
<g id="edge5" class="edge"><title>Node1&#45;&gt;Node6</title>
<path fill="none" stroke="midnightblue" d="M283.005,-112.498C307.551,-101.861 337.228,-89.001 358.76,-79.6705"/>
<polygon fill="midnightblue" stroke="midnightblue" points="360.249,-82.8401 368.033,-75.6525 357.466,-76.4172 360.249,-82.8401"/>
</g>
<!-- Node7 -->
<g id="node7" class="node"><title>Node7</title>
<g id="a_node7"><a xlink:href="../../d2/d8f/AlignParam_8h.html" target="_top" xlink:title="Definition of the base alignment parameters class. ">
<polygon fill="none" stroke="black" points="461.5,-56.5 461.5,-75.5 604.5,-75.5 604.5,-56.5 461.5,-56.5"/>
<text text-anchor="middle" x="533" y="-63.5" font-family="Helvetica,sans-Serif" font-size="10.00">DetectorsBase/AlignParam.h</text>
</a>
</g>
</g>
<!-- Node1&#45;&gt;Node7 -->
<g id="edge6" class="edge"><title>Node1&#45;&gt;Node7</title>
<path fill="none" stroke="midnightblue" d="M326.11,-112.586C377.979,-101.157 441.61,-87.1368 484.499,-77.6867"/>
<polygon fill="midnightblue" stroke="midnightblue" points="485.385,-81.0756 494.397,-75.5057 483.878,-74.2395 485.385,-81.0756"/>
</g>
<!-- Node7&#45;&gt;Node4 -->
<g id="edge7" class="edge"><title>Node7&#45;&gt;Node4</title>
<path fill="none" stroke="midnightblue" d="M499.883,-56.4435C463.882,-47.1419 406.23,-32.246 366.814,-22.062"/>
<polygon fill="midnightblue" stroke="midnightblue" points="367.519,-18.6294 356.962,-19.5164 365.768,-25.4068 367.519,-18.6294"/>
</g>
<!-- Node8 -->
<g id="node8" class="node"><title>Node8</title>
<polygon fill="none" stroke="#bfbfbf" points="502,-0.5 502,-19.5 564,-19.5 564,-0.5 502,-0.5"/>
<text text-anchor="middle" x="533" y="-7.5" font-family="Helvetica,sans-Serif" font-size="10.00">TNamed.h</text>
</g>
<!-- Node7&#45;&gt;Node8 -->
<g id="edge8" class="edge"><title>Node7&#45;&gt;Node8</title>
<path fill="none" stroke="midnightblue" d="M533,-56.083C533,-49.0059 533,-38.8611 533,-29.9865"/>
<polygon fill="midnightblue" stroke="midnightblue" points="536.5,-29.751 533,-19.7511 529.5,-29.7511 536.5,-29.751"/>
</g>
</g>
</svg>
