<?xml version="1.0" encoding="UTF-8" standalone="no"?>
<!DOCTYPE svg PUBLIC "-//W3C//DTD SVG 1.1//EN"
 "http://www.w3.org/Graphics/SVG/1.1/DTD/svg11.dtd">
<!-- Generated by graphviz version 2.36.0 (20140111.2315)
 -->
<!-- Title: /home/travis/build/AliceO2Group/AliceO2/Detectors/ITSMFT/ITS/simulation/include/ITSSimulation/Detector.h Pages: 1 -->
<svg width="2057pt" height="400pt"
 viewBox="0.00 0.00 2057.00 400.00" xmlns="http://www.w3.org/2000/svg" xmlns:xlink="http://www.w3.org/1999/xlink">
<g id="graph0" class="graph" transform="scale(1 1) rotate(0) translate(4 396)">
<title>/home/travis/build/AliceO2Group/AliceO2/Detectors/ITSMFT/ITS/simulation/include/ITSSimulation/Detector.h</title>
<!-- Node1 -->
<g id="node1" class="node"><title>Node1</title>
<polygon fill="#bfbfbf" stroke="black" points="1274,-328.5 1274,-391.5 1436,-391.5 1436,-328.5 1274,-328.5"/>
<text text-anchor="start" x="1282" y="-379.5" font-family="Helvetica,sans-Serif" font-size="10.00">/home/travis/build</text>
<text text-anchor="start" x="1282" y="-368.5" font-family="Helvetica,sans-Serif" font-size="10.00">/AliceO2Group/AliceO2</text>
<text text-anchor="start" x="1282" y="-357.5" font-family="Helvetica,sans-Serif" font-size="10.00">/Detectors/ITSMFT/ITS</text>
<text text-anchor="start" x="1282" y="-346.5" font-family="Helvetica,sans-Serif" font-size="10.00">/simulation/include/ITSSimulation</text>
<text text-anchor="middle" x="1355" y="-335.5" font-family="Helvetica,sans-Serif" font-size="10.00">/Detector.h</text>
</g>
<!-- Node2 -->
<g id="node2" class="node"><title>Node2</title>
<g id="a_node2"><a xlink:href="../../d1/d3a/Base_2include_2DetectorsBase_2Detector_8h.html" target="_top" xlink:title="DetectorsBase/Detector.h">
<polygon fill="none" stroke="black" points="415.5,-272.5 415.5,-291.5 546.5,-291.5 546.5,-272.5 415.5,-272.5"/>
<text text-anchor="middle" x="481" y="-279.5" font-family="Helvetica,sans-Serif" font-size="10.00">DetectorsBase/Detector.h</text>
</a>
</g>
</g>
<!-- Node1&#45;&gt;Node2 -->
<g id="edge1" class="edge"><title>Node1&#45;&gt;Node2</title>
<path fill="none" stroke="midnightblue" d="M1273.95,-351.952C1105.56,-337.31 719.956,-303.779 556.479,-289.563"/>
<polygon fill="midnightblue" stroke="midnightblue" points="556.772,-286.076 546.506,-288.696 556.166,-293.049 556.772,-286.076"/>
</g>
<!-- Node4 -->
<g id="node4" class="node"><title>Node4</title>
<polygon fill="none" stroke="#bfbfbf" points="0,-210.5 0,-229.5 44,-229.5 44,-210.5 0,-210.5"/>
<text text-anchor="middle" x="22" y="-217.5" font-family="Helvetica,sans-Serif" font-size="10.00">vector</text>
</g>
<!-- Node1&#45;&gt;Node4 -->
<g id="edge50" class="edge"><title>Node1&#45;&gt;Node4</title>
<path fill="none" stroke="midnightblue" d="M1273.85,-355.65C1109.61,-348.345 726.194,-328.631 406,-292 248.179,-273.945 204.567,-283.55 53,-236 50.8679,-235.331 48.6975,-234.538 46.5456,-233.671"/>
<polygon fill="midnightblue" stroke="midnightblue" points="47.9601,-230.469 37.4049,-229.553 45.0852,-236.852 47.9601,-230.469"/>
</g>
<!-- Node9 -->
<g id="node9" class="node"><title>Node9</title>
<polygon fill="none" stroke="#bfbfbf" points="801,-74.5 801,-93.5 857,-93.5 857,-74.5 801,-74.5"/>
<text text-anchor="middle" x="829" y="-81.5" font-family="Helvetica,sans-Serif" font-size="10.00">Rtypes.h</text>
</g>
<!-- Node1&#45;&gt;Node9 -->
<g id="edge45" class="edge"><title>Node1&#45;&gt;Node9</title>
<path fill="none" stroke="midnightblue" d="M1273.78,-351.4C1142.54,-337.291 892.943,-302.28 838,-236 806.653,-198.185 816.306,-135.027 823.782,-103.74"/>
<polygon fill="midnightblue" stroke="midnightblue" points="827.247,-104.319 826.358,-93.7615 820.47,-102.569 827.247,-104.319"/>
</g>
<!-- Node14 -->
<g id="node14" class="node"><title>Node14</title>
<g id="a_node14"><a xlink:href="../../d6/d31/DetID_8h.html" target="_top" xlink:title="DetectorsBase/DetID.h">
<polygon fill="none" stroke="black" points="1069.5,-272.5 1069.5,-291.5 1188.5,-291.5 1188.5,-272.5 1069.5,-272.5"/>
<text text-anchor="middle" x="1129" y="-279.5" font-family="Helvetica,sans-Serif" font-size="10.00">DetectorsBase/DetID.h</text>
</a>
</g>
</g>
<!-- Node1&#45;&gt;Node14 -->
<g id="edge15" class="edge"><title>Node1&#45;&gt;Node14</title>
<path fill="none" stroke="midnightblue" d="M1273.73,-331.67C1236.15,-319.031 1193.47,-304.679 1164.25,-294.854"/>
<polygon fill="midnightblue" stroke="midnightblue" points="1165.1,-291.448 1154.51,-291.578 1162.87,-298.083 1165.1,-291.448"/>
</g>
<!-- Node22 -->
<g id="node22" class="node"><title>Node22</title>
<g id="a_node22"><a xlink:href="../../d0/dae/ITSMFT_2common_2simulation_2include_2ITSMFTSimulation_2Hit_8h.html" target="_top" xlink:title="ITSMFTSimulation/Hit.h">
<polygon fill="none" stroke="black" points="1294,-272.5 1294,-291.5 1416,-291.5 1416,-272.5 1294,-272.5"/>
<text text-anchor="middle" x="1355" y="-279.5" font-family="Helvetica,sans-Serif" font-size="10.00">ITSMFTSimulation/Hit.h</text>
</a>
</g>
</g>
<!-- Node1&#45;&gt;Node22 -->
<g id="edge26" class="edge"><title>Node1&#45;&gt;Node22</title>
<path fill="none" stroke="midnightblue" d="M1355,-328.088C1355,-319.15 1355,-309.669 1355,-301.719"/>
<polygon fill="midnightblue" stroke="midnightblue" points="1358.5,-301.718 1355,-291.718 1351.5,-301.718 1358.5,-301.718"/>
</g>
<!-- Node36 -->
<g id="node36" class="node"><title>Node36</title>
<polygon fill="none" stroke="#bfbfbf" points="1587.5,-210.5 1587.5,-229.5 1652.5,-229.5 1652.5,-210.5 1587.5,-210.5"/>
<text text-anchor="middle" x="1620" y="-217.5" font-family="Helvetica,sans-Serif" font-size="10.00">TVector3.h</text>
</g>
<!-- Node1&#45;&gt;Node36 -->
<g id="edge49" class="edge"><title>Node1&#45;&gt;Node36</title>
<path fill="none" stroke="midnightblue" d="M1386.8,-328.186C1407.21,-309.786 1435.05,-287.128 1463,-272 1465.76,-270.507 1538.23,-247.184 1583.74,-232.601"/>
<polygon fill="midnightblue" stroke="midnightblue" points="1584.82,-235.928 1593.28,-229.544 1582.69,-229.262 1584.82,-235.928"/>
</g>
<!-- Node37 -->
<g id="node37" class="node"><title>Node37</title>
<polygon fill="none" stroke="#bfbfbf" points="1472,-272.5 1472,-291.5 1534,-291.5 1534,-272.5 1472,-272.5"/>
<text text-anchor="middle" x="1503" y="-279.5" font-family="Helvetica,sans-Serif" font-size="10.00">TArrayD.h</text>
</g>
<!-- Node1&#45;&gt;Node37 -->
<g id="edge46" class="edge"><title>Node1&#45;&gt;Node37</title>
<path fill="none" stroke="midnightblue" d="M1414.77,-328.307C1436.57,-317.114 1460.07,-305.043 1477.34,-296.177"/>
<polygon fill="midnightblue" stroke="midnightblue" points="1478.94,-299.288 1486.24,-291.607 1475.75,-293.061 1478.94,-299.288"/>
</g>
<!-- Node38 -->
<g id="node38" class="node"><title>Node38</title>
<polygon fill="none" stroke="#bfbfbf" points="1552,-272.5 1552,-291.5 1638,-291.5 1638,-272.5 1552,-272.5"/>
<text text-anchor="middle" x="1595" y="-279.5" font-family="Helvetica,sans-Serif" font-size="10.00">TGeoManager.h</text>
</g>
<!-- Node1&#45;&gt;Node38 -->
<g id="edge47" class="edge"><title>Node1&#45;&gt;Node38</title>
<path fill="none" stroke="midnightblue" d="M1436.25,-333.27C1477.61,-320.175 1525.84,-304.902 1558.19,-294.658"/>
<polygon fill="midnightblue" stroke="midnightblue" points="1559.63,-297.873 1568.1,-291.518 1557.51,-291.2 1559.63,-297.873"/>
</g>
<!-- Node39 -->
<g id="node39" class="node"><title>Node39</title>
<polygon fill="none" stroke="#bfbfbf" points="1656,-272.5 1656,-291.5 1748,-291.5 1748,-272.5 1656,-272.5"/>
<text text-anchor="middle" x="1702" y="-279.5" font-family="Helvetica,sans-Serif" font-size="10.00">TLorentzVector.h</text>
</g>
<!-- Node1&#45;&gt;Node39 -->
<g id="edge48" class="edge"><title>Node1&#45;&gt;Node39</title>
<path fill="none" stroke="midnightblue" d="M1436.36,-341.181C1503.49,-326.478 1596.56,-306.095 1652.84,-293.767"/>
<polygon fill="midnightblue" stroke="midnightblue" points="1653.89,-297.121 1662.91,-291.562 1652.39,-290.283 1653.89,-297.121"/>
</g>
<!-- Node3 -->
<g id="node3" class="node"><title>Node3</title>
<polygon fill="none" stroke="#bfbfbf" points="239.5,-142.5 239.5,-161.5 274.5,-161.5 274.5,-142.5 239.5,-142.5"/>
<text text-anchor="middle" x="257" y="-149.5" font-family="Helvetica,sans-Serif" font-size="10.00">map</text>
</g>
<!-- Node2&#45;&gt;Node3 -->
<g id="edge2" class="edge"><title>Node2&#45;&gt;Node3</title>
<path fill="none" stroke="midnightblue" d="M415.398,-279.015C346.414,-275.383 244.513,-265.101 220,-236 203.077,-215.91 223.818,-186.843 240.39,-168.974"/>
<polygon fill="midnightblue" stroke="midnightblue" points="243.082,-171.227 247.56,-161.625 238.071,-166.339 243.082,-171.227"/>
</g>
<!-- Node2&#45;&gt;Node4 -->
<g id="edge3" class="edge"><title>Node2&#45;&gt;Node4</title>
<path fill="none" stroke="midnightblue" d="M415.14,-281.064C329.941,-279.575 177.664,-271.539 53,-236 50.8043,-235.374 48.5739,-234.601 46.3679,-233.739"/>
<polygon fill="midnightblue" stroke="midnightblue" points="47.5951,-230.454 37.0374,-229.567 44.7378,-236.844 47.5951,-230.454"/>
</g>
<!-- Node5 -->
<g id="node5" class="node"><title>Node5</title>
<polygon fill="none" stroke="#bfbfbf" points="413,-210.5 413,-229.5 465,-229.5 465,-210.5 413,-210.5"/>
<text text-anchor="middle" x="439" y="-217.5" font-family="Helvetica,sans-Serif" font-size="10.00">memory</text>
</g>
<!-- Node2&#45;&gt;Node5 -->
<g id="edge4" class="edge"><title>Node2&#45;&gt;Node5</title>
<path fill="none" stroke="midnightblue" d="M474.982,-272.403C468.682,-263.403 458.629,-249.041 450.748,-237.782"/>
<polygon fill="midnightblue" stroke="midnightblue" points="453.608,-235.766 445.006,-229.581 447.874,-239.78 453.608,-235.766"/>
</g>
<!-- Node6 -->
<g id="node6" class="node"><title>Node6</title>
<polygon fill="none" stroke="#bfbfbf" points="483.5,-210.5 483.5,-229.5 562.5,-229.5 562.5,-210.5 483.5,-210.5"/>
<text text-anchor="middle" x="523" y="-217.5" font-family="Helvetica,sans-Serif" font-size="10.00">FairDetector.h</text>
</g>
<!-- Node2&#45;&gt;Node6 -->
<g id="edge5" class="edge"><title>Node2&#45;&gt;Node6</title>
<path fill="none" stroke="midnightblue" d="M487.018,-272.403C493.318,-263.403 503.371,-249.041 511.252,-237.782"/>
<polygon fill="midnightblue" stroke="midnightblue" points="514.126,-239.78 516.994,-229.581 508.392,-235.766 514.126,-239.78"/>
</g>
<!-- Node7 -->
<g id="node7" class="node"><title>Node7</title>
<polygon fill="none" stroke="#bfbfbf" points="581,-210.5 581,-229.5 681,-229.5 681,-210.5 581,-210.5"/>
<text text-anchor="middle" x="631" y="-217.5" font-family="Helvetica,sans-Serif" font-size="10.00">FairRootManager.h</text>
</g>
<!-- Node2&#45;&gt;Node7 -->
<g id="edge6" class="edge"><title>Node2&#45;&gt;Node7</title>
<path fill="none" stroke="midnightblue" d="M502.491,-272.403C528.11,-262.156 571.11,-244.956 600.245,-233.302"/>
<polygon fill="midnightblue" stroke="midnightblue" points="601.564,-236.544 609.549,-229.581 598.964,-230.045 601.564,-236.544"/>
</g>
<!-- Node8 -->
<g id="node8" class="node"><title>Node8</title>
<g id="a_node8"><a xlink:href="../../d0/d9a/MaterialManager_8h.html" target="_top" xlink:title="DetectorsBase/MaterialManager.h">
<polygon fill="none" stroke="black" points="229.5,-210.5 229.5,-229.5 394.5,-229.5 394.5,-210.5 229.5,-210.5"/>
<text text-anchor="middle" x="312" y="-217.5" font-family="Helvetica,sans-Serif" font-size="10.00">DetectorsBase/MaterialManager.h</text>
</a>
</g>
</g>
<!-- Node2&#45;&gt;Node8 -->
<g id="edge7" class="edge"><title>Node2&#45;&gt;Node8</title>
<path fill="none" stroke="midnightblue" d="M456.786,-272.403C427.671,-262.067 378.632,-244.656 345.798,-232.999"/>
<polygon fill="midnightblue" stroke="midnightblue" points="346.763,-229.628 336.169,-229.581 344.421,-236.225 346.763,-229.628"/>
</g>
<!-- Node2&#45;&gt;Node9 -->
<g id="edge10" class="edge"><title>Node2&#45;&gt;Node9</title>
<path fill="none" stroke="midnightblue" d="M546.83,-277.123C589.933,-272.19 646.179,-261.056 690,-236 720.797,-218.391 787.782,-136.817 816.026,-101.44"/>
<polygon fill="midnightblue" stroke="midnightblue" points="818.847,-103.516 822.327,-93.5085 813.366,-99.1619 818.847,-103.516"/>
</g>
<!-- Node10 -->
<g id="node10" class="node"><title>Node10</title>
<polygon fill="none" stroke="#bfbfbf" points="737.5,-210.5 737.5,-229.5 790.5,-229.5 790.5,-210.5 737.5,-210.5"/>
<text text-anchor="middle" x="764" y="-217.5" font-family="Helvetica,sans-Serif" font-size="10.00">cxxabi.h</text>
</g>
<!-- Node2&#45;&gt;Node10 -->
<g id="edge11" class="edge"><title>Node2&#45;&gt;Node10</title>
<path fill="none" stroke="midnightblue" d="M542.304,-272.497C591.611,-264.967 662.412,-252.592 723,-236 726.217,-235.119 729.539,-234.098 732.835,-233.011"/>
<polygon fill="midnightblue" stroke="midnightblue" points="734.231,-236.23 742.515,-229.625 731.92,-229.623 734.231,-236.23"/>
</g>
<!-- Node11 -->
<g id="node11" class="node"><title>Node11</title>
<polygon fill="none" stroke="#bfbfbf" points="62.5,-210.5 62.5,-229.5 113.5,-229.5 113.5,-210.5 62.5,-210.5"/>
<text text-anchor="middle" x="88" y="-217.5" font-family="Helvetica,sans-Serif" font-size="10.00">typeinfo</text>
</g>
<!-- Node2&#45;&gt;Node11 -->
<g id="edge12" class="edge"><title>Node2&#45;&gt;Node11</title>
<path fill="none" stroke="midnightblue" d="M415.357,-278.486C342.513,-274.387 222.037,-263.696 122,-236 119.497,-235.307 116.941,-234.461 114.41,-233.528"/>
<polygon fill="midnightblue" stroke="midnightblue" points="115.519,-230.2 104.94,-229.631 112.856,-236.673 115.519,-230.2"/>
</g>
<!-- Node12 -->
<g id="node12" class="node"><title>Node12</title>
<polygon fill="none" stroke="#bfbfbf" points="847,-210.5 847,-229.5 909,-229.5 909,-210.5 847,-210.5"/>
<text text-anchor="middle" x="878" y="-217.5" font-family="Helvetica,sans-Serif" font-size="10.00">type_traits</text>
</g>
<!-- Node2&#45;&gt;Node12 -->
<g id="edge13" class="edge"><title>Node2&#45;&gt;Node12</title>
<path fill="none" stroke="midnightblue" d="M546.609,-272.633C611.004,-264.204 711.948,-250.416 799,-236 811.374,-233.951 824.793,-231.493 836.999,-229.165"/>
<polygon fill="midnightblue" stroke="midnightblue" points="837.761,-232.582 846.918,-227.252 836.436,-225.709 837.761,-232.582"/>
</g>
<!-- Node13 -->
<g id="node13" class="node"><title>Node13</title>
<polygon fill="none" stroke="#bfbfbf" points="131.5,-210.5 131.5,-229.5 172.5,-229.5 172.5,-210.5 131.5,-210.5"/>
<text text-anchor="middle" x="152" y="-217.5" font-family="Helvetica,sans-Serif" font-size="10.00">string</text>
</g>
<!-- Node2&#45;&gt;Node13 -->
<g id="edge14" class="edge"><title>Node2&#45;&gt;Node13</title>
<path fill="none" stroke="midnightblue" d="M415.465,-275.755C355.205,-269.813 263.83,-257.959 187,-236 184.35,-235.243 181.635,-234.334 178.947,-233.344"/>
<polygon fill="midnightblue" stroke="midnightblue" points="180.071,-230.023 169.488,-229.523 177.449,-236.514 180.071,-230.023"/>
</g>
<!-- Node8&#45;&gt;Node3 -->
<g id="edge9" class="edge"><title>Node8&#45;&gt;Node3</title>
<path fill="none" stroke="midnightblue" d="M304.81,-210.372C296.211,-200.053 281.626,-182.551 270.821,-169.585"/>
<polygon fill="midnightblue" stroke="midnightblue" points="273.458,-167.283 264.368,-161.841 268.081,-171.764 273.458,-167.283"/>
</g>
<!-- Node8&#45;&gt;Node9 -->
<g id="edge8" class="edge"><title>Node8&#45;&gt;Node9</title>
<path fill="none" stroke="midnightblue" d="M345.127,-210.414C436.931,-186.62 694.216,-119.934 791.289,-94.7743"/>
<polygon fill="midnightblue" stroke="midnightblue" points="792.176,-98.16 800.978,-92.2629 790.42,-91.3839 792.176,-98.16"/>
</g>
<!-- Node14&#45;&gt;Node9 -->
<g id="edge16" class="edge"><title>Node14&#45;&gt;Node9</title>
<path fill="none" stroke="midnightblue" d="M1069.32,-274.676C1034.2,-268.801 990.118,-257.533 956,-236 927.414,-217.959 867.421,-137.986 841.437,-102.297"/>
<polygon fill="midnightblue" stroke="midnightblue" points="844.032,-99.9137 835.333,-93.8665 838.363,-104.019 844.032,-99.9137"/>
</g>
<!-- Node14&#45;&gt;Node12 -->
<g id="edge21" class="edge"><title>Node14&#45;&gt;Node12</title>
<path fill="none" stroke="midnightblue" d="M1083.25,-272.461C1041.27,-264.284 977.533,-250.999 923,-236 919.372,-235.002 915.606,-233.883 911.867,-232.717"/>
<polygon fill="midnightblue" stroke="midnightblue" points="912.735,-229.319 902.143,-229.574 910.582,-235.98 912.735,-229.319"/>
</g>
<!-- Node15 -->
<g id="node15" class="node"><title>Node15</title>
<polygon fill="none" stroke="#bfbfbf" points="1179,-142.5 1179,-161.5 1217,-161.5 1217,-142.5 1179,-142.5"/>
<text text-anchor="middle" x="1198" y="-149.5" font-family="Helvetica,sans-Serif" font-size="10.00">array</text>
</g>
<!-- Node14&#45;&gt;Node15 -->
<g id="edge17" class="edge"><title>Node14&#45;&gt;Node15</title>
<path fill="none" stroke="midnightblue" d="M1133.74,-272.202C1145.02,-251.275 1173.63,-198.216 1188.57,-170.486"/>
<polygon fill="midnightblue" stroke="midnightblue" points="1191.74,-171.986 1193.41,-161.522 1185.58,-168.664 1191.74,-171.986"/>
</g>
<!-- Node16 -->
<g id="node16" class="node"><title>Node16</title>
<polygon fill="none" stroke="#bfbfbf" points="1199.5,-210.5 1199.5,-229.5 1240.5,-229.5 1240.5,-210.5 1199.5,-210.5"/>
<text text-anchor="middle" x="1220" y="-217.5" font-family="Helvetica,sans-Serif" font-size="10.00">bitset</text>
</g>
<!-- Node14&#45;&gt;Node16 -->
<g id="edge18" class="edge"><title>Node14&#45;&gt;Node16</title>
<path fill="none" stroke="midnightblue" d="M1142.04,-272.403C1156.77,-262.691 1180.97,-246.732 1198.51,-235.17"/>
<polygon fill="midnightblue" stroke="midnightblue" points="1200.56,-238.007 1206.99,-229.581 1196.71,-232.163 1200.56,-238.007"/>
</g>
<!-- Node17 -->
<g id="node17" class="node"><title>Node17</title>
<polygon fill="none" stroke="#bfbfbf" points="1258.5,-210.5 1258.5,-229.5 1307.5,-229.5 1307.5,-210.5 1258.5,-210.5"/>
<text text-anchor="middle" x="1283" y="-217.5" font-family="Helvetica,sans-Serif" font-size="10.00">cassert</text>
</g>
<!-- Node14&#45;&gt;Node17 -->
<g id="edge19" class="edge"><title>Node14&#45;&gt;Node17</title>
<path fill="none" stroke="midnightblue" d="M1153.06,-272.432C1177.4,-263.658 1216.03,-249.44 1249,-236 1250.84,-235.251 1252.72,-234.466 1254.62,-233.663"/>
<polygon fill="midnightblue" stroke="midnightblue" points="1256.23,-236.781 1264.02,-229.601 1253.45,-230.355 1256.23,-236.781"/>
</g>
<!-- Node18 -->
<g id="node18" class="node"><title>Node18</title>
<polygon fill="none" stroke="#bfbfbf" points="965,-210.5 965,-229.5 1011,-229.5 1011,-210.5 965,-210.5"/>
<text text-anchor="middle" x="988" y="-217.5" font-family="Helvetica,sans-Serif" font-size="10.00">cstdint</text>
</g>
<!-- Node14&#45;&gt;Node18 -->
<g id="edge20" class="edge"><title>Node14&#45;&gt;Node18</title>
<path fill="none" stroke="midnightblue" d="M1107.81,-272.403C1085.97,-263.489 1050.98,-249.057 1021,-236 1019.37,-235.292 1017.71,-234.558 1016.02,-233.812"/>
<polygon fill="midnightblue" stroke="midnightblue" points="1017.01,-230.418 1006.45,-229.513 1014.14,-236.804 1017.01,-230.418"/>
</g>
<!-- Node19 -->
<g id="node19" class="node"><title>Node19</title>
<g id="a_node19"><a xlink:href="../../d9/ded/Utils_8h.html" target="_top" xlink:title="DetectorsBase/Utils.h">
<polygon fill="none" stroke="black" points="1029.5,-210.5 1029.5,-229.5 1142.5,-229.5 1142.5,-210.5 1029.5,-210.5"/>
<text text-anchor="middle" x="1086" y="-217.5" font-family="Helvetica,sans-Serif" font-size="10.00">DetectorsBase/Utils.h</text>
</a>
</g>
</g>
<!-- Node14&#45;&gt;Node19 -->
<g id="edge22" class="edge"><title>Node14&#45;&gt;Node19</title>
<path fill="none" stroke="midnightblue" d="M1122.84,-272.403C1116.39,-263.403 1106.1,-249.041 1098.03,-237.782"/>
<polygon fill="midnightblue" stroke="midnightblue" points="1100.82,-235.67 1092.15,-229.581 1095.13,-239.748 1100.82,-235.67"/>
</g>
<!-- Node19&#45;&gt;Node15 -->
<g id="edge25" class="edge"><title>Node19&#45;&gt;Node15</title>
<path fill="none" stroke="midnightblue" d="M1100.64,-210.372C1119.42,-199.304 1152.23,-179.972 1174.52,-166.838"/>
<polygon fill="midnightblue" stroke="midnightblue" points="1176.52,-169.723 1183.35,-161.63 1172.96,-163.692 1176.52,-169.723"/>
</g>
<!-- Node20 -->
<g id="node20" class="node"><title>Node20</title>
<g id="a_node20"><a xlink:href="../../d1/daa/Base_2include_2DetectorsBase_2Constants_8h.html" target="_top" xlink:title="DetectorsBase/Constants.h">
<polygon fill="none" stroke="black" points="961,-142.5 961,-161.5 1099,-161.5 1099,-142.5 961,-142.5"/>
<text text-anchor="middle" x="1030" y="-149.5" font-family="Helvetica,sans-Serif" font-size="10.00">DetectorsBase/Constants.h</text>
</a>
</g>
</g>
<!-- Node19&#45;&gt;Node20 -->
<g id="edge23" class="edge"><title>Node19&#45;&gt;Node20</title>
<path fill="none" stroke="midnightblue" d="M1078.68,-210.372C1069.92,-200.053 1055.07,-182.551 1044.07,-169.585"/>
<polygon fill="midnightblue" stroke="midnightblue" points="1046.64,-167.202 1037.5,-161.841 1041.3,-171.731 1046.64,-167.202"/>
</g>
<!-- Node21 -->
<g id="node21" class="node"><title>Node21</title>
<polygon fill="none" stroke="#bfbfbf" points="1117,-142.5 1117,-161.5 1161,-161.5 1161,-142.5 1117,-142.5"/>
<text text-anchor="middle" x="1139" y="-149.5" font-family="Helvetica,sans-Serif" font-size="10.00">cmath</text>
</g>
<!-- Node19&#45;&gt;Node21 -->
<g id="edge24" class="edge"><title>Node19&#45;&gt;Node21</title>
<path fill="none" stroke="midnightblue" d="M1092.93,-210.372C1101.14,-200.151 1115,-182.884 1125.38,-169.957"/>
<polygon fill="midnightblue" stroke="midnightblue" points="1128.37,-171.83 1131.9,-161.841 1122.91,-167.447 1128.37,-171.83"/>
</g>
<!-- Node22&#45;&gt;Node9 -->
<g id="edge42" class="edge"><title>Node22&#45;&gt;Node9</title>
<path fill="none" stroke="midnightblue" d="M1352.13,-272.082C1346.87,-256.807 1334.51,-225.235 1316,-204 1297.53,-182.813 1286.33,-185.072 1264,-168 1246.46,-154.59 1246.34,-144.594 1226,-136 1077.88,-73.4148 1022.1,-138.599 866,-100 862.936,-99.2424 859.792,-98.2798 856.693,-97.2091"/>
<polygon fill="midnightblue" stroke="midnightblue" points="857.69,-93.8432 847.099,-93.5391 855.188,-100.381 857.69,-93.8432"/>
</g>
<!-- Node23 -->
<g id="node23" class="node"><title>Node23</title>
<g id="a_node23"><a xlink:href="../../d4/d25/BaseHits_8h.html" target="_top" xlink:title="SimulationDataFormat\l/BaseHits.h">
<polygon fill="none" stroke="black" points="1408,-205 1408,-235 1522,-235 1522,-205 1408,-205"/>
<text text-anchor="start" x="1416" y="-223" font-family="Helvetica,sans-Serif" font-size="10.00">SimulationDataFormat</text>
<text text-anchor="middle" x="1465" y="-212" font-family="Helvetica,sans-Serif" font-size="10.00">/BaseHits.h</text>
</a>
</g>
</g>
<!-- Node22&#45;&gt;Node23 -->
<g id="edge27" class="edge"><title>Node22&#45;&gt;Node23</title>
<path fill="none" stroke="midnightblue" d="M1370.76,-272.403C1386.22,-263.974 1410.3,-250.839 1430.25,-239.957"/>
<polygon fill="midnightblue" stroke="midnightblue" points="1431.97,-243.002 1439.08,-235.141 1428.62,-236.857 1431.97,-243.002"/>
</g>
<!-- Node34 -->
<g id="node34" class="node"><title>Node34</title>
<polygon fill="none" stroke="#bfbfbf" points="1995,-74.5 1995,-93.5 2049,-93.5 2049,-74.5 1995,-74.5"/>
<text text-anchor="middle" x="2022" y="-81.5" font-family="Helvetica,sans-Serif" font-size="10.00">iostream</text>
</g>
<!-- Node22&#45;&gt;Node34 -->
<g id="edge44" class="edge"><title>Node22&#45;&gt;Node34</title>
<path fill="none" stroke="midnightblue" d="M1406.98,-272.498C1442.86,-265.491 1491.1,-253.778 1531,-236 1554.42,-225.565 1555.58,-214.44 1579,-204 1749.13,-128.151 1808.07,-158.234 1985,-100 1987.57,-99.1556 1990.21,-98.2206 1992.84,-97.2423"/>
<polygon fill="midnightblue" stroke="midnightblue" points="1994.16,-100.484 2002.21,-93.5935 1991.62,-93.9613 1994.16,-100.484"/>
</g>
<!-- Node35 -->
<g id="node35" class="node"><title>Node35</title>
<g id="a_node35"><a xlink:href="../../d7/dcd/MCCompLabel_8h.html" target="_top" xlink:title="SimulationDataFormat\l/MCCompLabel.h">
<polygon fill="none" stroke="black" points="1273,-137 1273,-167 1387,-167 1387,-137 1273,-137"/>
<text text-anchor="start" x="1281" y="-155" font-family="Helvetica,sans-Serif" font-size="10.00">SimulationDataFormat</text>
<text text-anchor="middle" x="1330" y="-144" font-family="Helvetica,sans-Serif" font-size="10.00">/MCCompLabel.h</text>
</a>
</g>
</g>
<!-- Node22&#45;&gt;Node35 -->
<g id="edge40" class="edge"><title>Node22&#45;&gt;Node35</title>
<path fill="none" stroke="midnightblue" d="M1355.3,-272.332C1355.6,-257.948 1355.42,-228.32 1350,-204 1347.95,-194.793 1344.48,-185.064 1341.01,-176.6"/>
<polygon fill="midnightblue" stroke="midnightblue" points="1344.19,-175.142 1337.01,-167.353 1337.77,-177.92 1344.19,-175.142"/>
</g>
<!-- Node22&#45;&gt;Node36 -->
<g id="edge43" class="edge"><title>Node22&#45;&gt;Node36</title>
<path fill="none" stroke="midnightblue" d="M1403.83,-272.445C1448.23,-264.304 1515.43,-251.084 1573,-236 1576.9,-234.979 1580.95,-233.827 1584.97,-232.626"/>
<polygon fill="midnightblue" stroke="midnightblue" points="1586.26,-235.89 1594.78,-229.589 1584.19,-229.203 1586.26,-235.89"/>
</g>
<!-- Node24 -->
<g id="node24" class="node"><title>Node24</title>
<g id="a_node24"><a xlink:href="../../dd/d76/Cartesian3D_8h.html" target="_top" xlink:title="MathUtils/Cartesian3D.h">
<polygon fill="none" stroke="black" points="1405.5,-142.5 1405.5,-161.5 1530.5,-161.5 1530.5,-142.5 1405.5,-142.5"/>
<text text-anchor="middle" x="1468" y="-149.5" font-family="Helvetica,sans-Serif" font-size="10.00">MathUtils/Cartesian3D.h</text>
</a>
</g>
</g>
<!-- Node23&#45;&gt;Node24 -->
<g id="edge28" class="edge"><title>Node23&#45;&gt;Node24</title>
<path fill="none" stroke="midnightblue" d="M1465.65,-204.679C1466.09,-195.101 1466.66,-182.394 1467.14,-171.977"/>
<polygon fill="midnightblue" stroke="midnightblue" points="1470.64,-171.977 1467.6,-161.828 1463.65,-171.659 1470.64,-171.977"/>
</g>
<!-- Node24&#45;&gt;Node9 -->
<g id="edge32" class="edge"><title>Node24&#45;&gt;Node9</title>
<path fill="none" stroke="midnightblue" d="M1431.91,-142.467C1420.48,-140.039 1407.76,-137.617 1396,-136 1162.1,-103.847 1096.07,-153.018 866,-100 862.758,-99.2529 859.431,-98.2586 856.165,-97.1361"/>
<polygon fill="midnightblue" stroke="midnightblue" points="857.284,-93.817 846.694,-93.5028 854.777,-100.353 857.284,-93.817"/>
</g>
<!-- Node25 -->
<g id="node25" class="node"><title>Node25</title>
<polygon fill="none" stroke="#bfbfbf" points="1211.5,-74.5 1211.5,-93.5 1360.5,-93.5 1360.5,-74.5 1211.5,-74.5"/>
<text text-anchor="middle" x="1286" y="-81.5" font-family="Helvetica,sans-Serif" font-size="10.00">Math/GenVector/Rotation3D.h</text>
</g>
<!-- Node24&#45;&gt;Node25 -->
<g id="edge29" class="edge"><title>Node24&#45;&gt;Node25</title>
<path fill="none" stroke="midnightblue" d="M1444.21,-142.372C1412.24,-130.778 1355.26,-110.116 1319.11,-97.0087"/>
<polygon fill="midnightblue" stroke="midnightblue" points="1320.1,-93.6447 1309.51,-93.5259 1317.72,-100.225 1320.1,-93.6447"/>
</g>
<!-- Node26 -->
<g id="node26" class="node"><title>Node26</title>
<polygon fill="none" stroke="#bfbfbf" points="1379,-74.5 1379,-93.5 1535,-93.5 1535,-74.5 1379,-74.5"/>
<text text-anchor="middle" x="1457" y="-81.5" font-family="Helvetica,sans-Serif" font-size="10.00">Math/GenVector/Transform3D.h</text>
</g>
<!-- Node24&#45;&gt;Node26 -->
<g id="edge30" class="edge"><title>Node24&#45;&gt;Node26</title>
<path fill="none" stroke="midnightblue" d="M1466.56,-142.372C1464.94,-132.643 1462.25,-116.528 1460.14,-103.85"/>
<polygon fill="midnightblue" stroke="midnightblue" points="1463.57,-103.13 1458.47,-93.8411 1456.67,-104.28 1463.57,-103.13"/>
</g>
<!-- Node27 -->
<g id="node27" class="node"><title>Node27</title>
<polygon fill="none" stroke="#bfbfbf" points="1553,-74.5 1553,-93.5 1713,-93.5 1713,-74.5 1553,-74.5"/>
<text text-anchor="middle" x="1633" y="-81.5" font-family="Helvetica,sans-Serif" font-size="10.00">Math/GenVector/Translation3D.h</text>
</g>
<!-- Node24&#45;&gt;Node27 -->
<g id="edge31" class="edge"><title>Node24&#45;&gt;Node27</title>
<path fill="none" stroke="midnightblue" d="M1489.57,-142.372C1518.31,-130.877 1569.33,-110.469 1602.13,-97.3465"/>
<polygon fill="midnightblue" stroke="midnightblue" points="1603.7,-100.49 1611.69,-93.5259 1601.1,-93.9902 1603.7,-100.49"/>
</g>
<!-- Node28 -->
<g id="node28" class="node"><title>Node28</title>
<polygon fill="none" stroke="#bfbfbf" points="1731,-74.5 1731,-93.5 1807,-93.5 1807,-74.5 1731,-74.5"/>
<text text-anchor="middle" x="1769" y="-81.5" font-family="Helvetica,sans-Serif" font-size="10.00">TGeoMatrix.h</text>
</g>
<!-- Node24&#45;&gt;Node28 -->
<g id="edge33" class="edge"><title>Node24&#45;&gt;Node28</title>
<path fill="none" stroke="midnightblue" d="M1511.95,-142.452C1579.18,-129.331 1701.94,-105.197 1722,-100 1725.9,-98.9896 1729.95,-97.8441 1733.97,-96.6474"/>
<polygon fill="midnightblue" stroke="midnightblue" points="1735.26,-99.9119 1743.78,-93.6146 1733.19,-93.2241 1735.26,-99.9119"/>
</g>
<!-- Node29 -->
<g id="node29" class="node"><title>Node29</title>
<polygon fill="none" stroke="#bfbfbf" points="1825.5,-69 1825.5,-99 1976.5,-99 1976.5,-69 1825.5,-69"/>
<text text-anchor="start" x="1833.5" y="-87" font-family="Helvetica,sans-Serif" font-size="10.00">Math/GenVector/Displacement</text>
<text text-anchor="middle" x="1901" y="-76" font-family="Helvetica,sans-Serif" font-size="10.00">Vector3D.h</text>
</g>
<!-- Node24&#45;&gt;Node29 -->
<g id="edge34" class="edge"><title>Node24&#45;&gt;Node29</title>
<path fill="none" stroke="midnightblue" d="M1509.48,-142.444C1520.96,-140.205 1533.44,-137.892 1545,-136 1661.75,-116.892 1694.23,-118.462 1815.44,-100.04"/>
<polygon fill="midnightblue" stroke="midnightblue" points="1816.13,-103.475 1825.48,-98.4984 1815.07,-96.5556 1816.13,-103.475"/>
</g>
<!-- Node30 -->
<g id="node30" class="node"><title>Node30</title>
<polygon fill="none" stroke="#bfbfbf" points="875,-74.5 875,-93.5 1051,-93.5 1051,-74.5 875,-74.5"/>
<text text-anchor="middle" x="963" y="-81.5" font-family="Helvetica,sans-Serif" font-size="10.00">Math/GenVector/PositionVector3D.h</text>
</g>
<!-- Node24&#45;&gt;Node30 -->
<g id="edge35" class="edge"><title>Node24&#45;&gt;Node30</title>
<path fill="none" stroke="midnightblue" d="M1430.39,-142.433C1419.35,-140.117 1407.23,-137.766 1396,-136 1247.64,-112.656 1208.92,-119.481 1060,-100 1048.7,-98.5212 1036.68,-96.7909 1025.08,-95.0415"/>
<polygon fill="midnightblue" stroke="midnightblue" points="1025.45,-91.5572 1015.04,-93.5051 1024.39,-98.4767 1025.45,-91.5572"/>
</g>
<!-- Node31 -->
<g id="node31" class="node"><title>Node31</title>
<g id="a_node31"><a xlink:href="../../d2/dd0/Cartesian2D_8h.html" target="_top" xlink:title="MathUtils/Cartesian2D.h">
<polygon fill="none" stroke="black" points="1068.5,-74.5 1068.5,-93.5 1193.5,-93.5 1193.5,-74.5 1068.5,-74.5"/>
<text text-anchor="middle" x="1131" y="-81.5" font-family="Helvetica,sans-Serif" font-size="10.00">MathUtils/Cartesian2D.h</text>
</a>
</g>
</g>
<!-- Node24&#45;&gt;Node31 -->
<g id="edge36" class="edge"><title>Node24&#45;&gt;Node31</title>
<path fill="none" stroke="midnightblue" d="M1427.67,-142.441C1417.35,-140.295 1406.27,-138.028 1396,-136 1310.39,-119.101 1288.61,-116.899 1203,-100 1195.94,-98.6059 1188.49,-97.0984 1181.18,-95.5951"/>
<polygon fill="midnightblue" stroke="midnightblue" points="1181.84,-92.1567 1171.33,-93.5586 1180.42,-99.0116 1181.84,-92.1567"/>
</g>
<!-- Node24&#45;&gt;Node34 -->
<g id="edge39" class="edge"><title>Node24&#45;&gt;Node34</title>
<path fill="none" stroke="midnightblue" d="M1507.43,-142.448C1519.44,-140.078 1532.72,-137.693 1545,-136 1739.37,-109.2 1794.11,-145.38 1985,-100 1988.07,-99.2701 1991.22,-98.3253 1994.32,-97.2652"/>
<polygon fill="midnightblue" stroke="midnightblue" points="1995.82,-100.44 2003.92,-93.6076 1993.33,-93.8986 1995.82,-100.44"/>
</g>
<!-- Node32 -->
<g id="node32" class="node"><title>Node32</title>
<polygon fill="none" stroke="#bfbfbf" points="964.5,-1 964.5,-31 1115.5,-31 1115.5,-1 964.5,-1"/>
<text text-anchor="start" x="972.5" y="-19" font-family="Helvetica,sans-Serif" font-size="10.00">Math/GenVector/Displacement</text>
<text text-anchor="middle" x="1040" y="-8" font-family="Helvetica,sans-Serif" font-size="10.00">Vector2D.h</text>
</g>
<!-- Node31&#45;&gt;Node32 -->
<g id="edge37" class="edge"><title>Node31&#45;&gt;Node32</title>
<path fill="none" stroke="midnightblue" d="M1119.1,-74.3717C1106.22,-65.0286 1085.22,-49.7966 1068.09,-37.375"/>
<polygon fill="midnightblue" stroke="midnightblue" points="1069.7,-34.2194 1059.55,-31.1815 1065.59,-39.8859 1069.7,-34.2194"/>
</g>
<!-- Node33 -->
<g id="node33" class="node"><title>Node33</title>
<polygon fill="none" stroke="#bfbfbf" points="1134,-6.5 1134,-25.5 1310,-25.5 1310,-6.5 1134,-6.5"/>
<text text-anchor="middle" x="1222" y="-13.5" font-family="Helvetica,sans-Serif" font-size="10.00">Math/GenVector/PositionVector2D.h</text>
</g>
<!-- Node31&#45;&gt;Node33 -->
<g id="edge38" class="edge"><title>Node31&#45;&gt;Node33</title>
<path fill="none" stroke="midnightblue" d="M1142.9,-74.3717C1157.88,-63.5015 1183.86,-44.6602 1201.94,-31.5474"/>
<polygon fill="midnightblue" stroke="midnightblue" points="1204.06,-34.3349 1210.1,-25.6305 1199.95,-28.6684 1204.06,-34.3349"/>
</g>
<!-- Node35&#45;&gt;Node9 -->
<g id="edge41" class="edge"><title>Node35&#45;&gt;Node9</title>
<path fill="none" stroke="midnightblue" d="M1272.75,-138.306C1268.11,-137.46 1263.48,-136.677 1259,-136 1085.57,-109.828 1036.44,-141.395 866,-100 862.933,-99.2552 859.787,-98.3008 856.686,-97.235"/>
<polygon fill="midnightblue" stroke="midnightblue" points="857.682,-93.8687 847.091,-93.5707 855.185,-100.408 857.682,-93.8687"/>
</g>
</g>
</svg>
