<?xml version="1.0" encoding="UTF-8" standalone="no"?>
<!DOCTYPE svg PUBLIC "-//W3C//DTD SVG 1.1//EN"
 "http://www.w3.org/Graphics/SVG/1.1/DTD/svg11.dtd">
<!-- Generated by graphviz version 2.36.0 (20140111.2315)
 -->
<!-- Title: /home/travis/build/AliceO2Group/AliceO2/Detectors/TRD/simulation/include/TRDSimulation/Detector.h Pages: 1 -->
<svg width="1741pt" height="322pt"
 viewBox="0.00 0.00 1741.00 322.00" xmlns="http://www.w3.org/2000/svg" xmlns:xlink="http://www.w3.org/1999/xlink">
<g id="graph0" class="graph" transform="scale(1 1) rotate(0) translate(4 318)">
<title>/home/travis/build/AliceO2Group/AliceO2/Detectors/TRD/simulation/include/TRDSimulation/Detector.h</title>
<!-- Node1 -->
<g id="node1" class="node"><title>Node1</title>
<polygon fill="#bfbfbf" stroke="black" points="384.5,-261 384.5,-313 553.5,-313 553.5,-261 384.5,-261"/>
<text text-anchor="start" x="392.5" y="-301" font-family="Helvetica,sans-Serif" font-size="10.00">/home/travis/build</text>
<text text-anchor="start" x="392.5" y="-290" font-family="Helvetica,sans-Serif" font-size="10.00">/AliceO2Group/AliceO2</text>
<text text-anchor="start" x="392.5" y="-279" font-family="Helvetica,sans-Serif" font-size="10.00">/Detectors/TRD/simulation</text>
<text text-anchor="middle" x="469" y="-268" font-family="Helvetica,sans-Serif" font-size="10.00">/include/TRDSimulation/Detector.h</text>
</g>
<!-- Node2 -->
<g id="node2" class="node"><title>Node2</title>
<polygon fill="none" stroke="#bfbfbf" points="0,-136.5 0,-155.5 44,-155.5 44,-136.5 0,-136.5"/>
<text text-anchor="middle" x="22" y="-143.5" font-family="Helvetica,sans-Serif" font-size="10.00">vector</text>
</g>
<!-- Node1&#45;&gt;Node2 -->
<g id="edge1" class="edge"><title>Node1&#45;&gt;Node2</title>
<path fill="none" stroke="midnightblue" d="M388.569,-260.989C288.872,-229.987 123.651,-178.61 54.2587,-157.031"/>
<polygon fill="midnightblue" stroke="midnightblue" points="54.9397,-153.578 44.3515,-153.95 52.8611,-160.262 54.9397,-153.578"/>
</g>
<!-- Node3 -->
<g id="node3" class="node"><title>Node3</title>
<g id="a_node3"><a xlink:href="../../d1/d3a/Base_2include_2DetectorsBase_2Detector_8h.html" target="_top" xlink:title="DetectorsBase/Detector.h">
<polygon fill="none" stroke="black" points="403.5,-198.5 403.5,-217.5 534.5,-217.5 534.5,-198.5 403.5,-198.5"/>
<text text-anchor="middle" x="469" y="-205.5" font-family="Helvetica,sans-Serif" font-size="10.00">DetectorsBase/Detector.h</text>
</a>
</g>
</g>
<!-- Node1&#45;&gt;Node3 -->
<g id="edge2" class="edge"><title>Node1&#45;&gt;Node3</title>
<path fill="none" stroke="midnightblue" d="M469,-260.787C469,-250.069 469,-237.785 469,-227.871"/>
<polygon fill="midnightblue" stroke="midnightblue" points="472.5,-227.558 469,-217.558 465.5,-227.558 472.5,-227.558"/>
</g>
<!-- Node14 -->
<g id="node14" class="node"><title>Node14</title>
<g id="a_node14"><a xlink:href="../../d4/d25/BaseHits_8h.html" target="_top" xlink:title="SimulationDataFormat\l/BaseHits.h">
<polygon fill="none" stroke="black" points="784,-193 784,-223 898,-223 898,-193 784,-193"/>
<text text-anchor="start" x="792" y="-211" font-family="Helvetica,sans-Serif" font-size="10.00">SimulationDataFormat</text>
<text text-anchor="middle" x="841" y="-200" font-family="Helvetica,sans-Serif" font-size="10.00">/BaseHits.h</text>
</a>
</g>
</g>
<!-- Node1&#45;&gt;Node14 -->
<g id="edge16" class="edge"><title>Node1&#45;&gt;Node14</title>
<path fill="none" stroke="midnightblue" d="M553.878,-268.431C620.606,-254.619 712.281,-235.643 773.931,-222.882"/>
<polygon fill="midnightblue" stroke="midnightblue" points="774.856,-226.265 783.939,-220.811 773.437,-219.411 774.856,-226.265"/>
</g>
<!-- Node3&#45;&gt;Node2 -->
<g id="edge4" class="edge"><title>Node3&#45;&gt;Node2</title>
<path fill="none" stroke="midnightblue" d="M403.49,-201.348C322.064,-193.756 179.048,-178.555 58,-156 56.7531,-155.768 55.4851,-155.518 54.2066,-155.255"/>
<polygon fill="midnightblue" stroke="midnightblue" points="54.9007,-151.823 44.3761,-153.041 53.3629,-158.652 54.9007,-151.823"/>
</g>
<!-- Node4 -->
<g id="node4" class="node"><title>Node4</title>
<polygon fill="none" stroke="#bfbfbf" points="221.5,-74.5 221.5,-93.5 256.5,-93.5 256.5,-74.5 221.5,-74.5"/>
<text text-anchor="middle" x="239" y="-81.5" font-family="Helvetica,sans-Serif" font-size="10.00">map</text>
</g>
<!-- Node3&#45;&gt;Node4 -->
<g id="edge3" class="edge"><title>Node3&#45;&gt;Node4</title>
<path fill="none" stroke="midnightblue" d="M403.385,-202.787C300.604,-195.513 111.211,-179.121 91,-156 54.5026,-114.248 159.005,-94.946 211.239,-88.0887"/>
<polygon fill="midnightblue" stroke="midnightblue" points="211.736,-91.5539 221.227,-86.8453 210.871,-84.6075 211.736,-91.5539"/>
</g>
<!-- Node5 -->
<g id="node5" class="node"><title>Node5</title>
<polygon fill="none" stroke="#bfbfbf" points="100,-136.5 100,-155.5 152,-155.5 152,-136.5 100,-136.5"/>
<text text-anchor="middle" x="126" y="-143.5" font-family="Helvetica,sans-Serif" font-size="10.00">memory</text>
</g>
<!-- Node3&#45;&gt;Node5 -->
<g id="edge5" class="edge"><title>Node3&#45;&gt;Node5</title>
<path fill="none" stroke="midnightblue" d="M407.928,-198.499C347.764,-189.761 253.065,-175.036 162.228,-156.115"/>
<polygon fill="midnightblue" stroke="midnightblue" points="162.821,-152.663 152.315,-154.03 161.381,-159.514 162.821,-152.663"/>
</g>
<!-- Node6 -->
<g id="node6" class="node"><title>Node6</title>
<polygon fill="none" stroke="#bfbfbf" points="170.5,-136.5 170.5,-155.5 249.5,-155.5 249.5,-136.5 170.5,-136.5"/>
<text text-anchor="middle" x="210" y="-143.5" font-family="Helvetica,sans-Serif" font-size="10.00">FairDetector.h</text>
</g>
<!-- Node3&#45;&gt;Node6 -->
<g id="edge6" class="edge"><title>Node3&#45;&gt;Node6</title>
<path fill="none" stroke="midnightblue" d="M432.167,-198.467C386.045,-187.783 306.99,-169.469 256.676,-157.813"/>
<polygon fill="midnightblue" stroke="midnightblue" points="257.238,-154.351 246.706,-155.503 255.658,-161.17 257.238,-154.351"/>
</g>
<!-- Node7 -->
<g id="node7" class="node"><title>Node7</title>
<polygon fill="none" stroke="#bfbfbf" points="268,-136.5 268,-155.5 368,-155.5 368,-136.5 268,-136.5"/>
<text text-anchor="middle" x="318" y="-143.5" font-family="Helvetica,sans-Serif" font-size="10.00">FairRootManager.h</text>
</g>
<!-- Node3&#45;&gt;Node7 -->
<g id="edge7" class="edge"><title>Node3&#45;&gt;Node7</title>
<path fill="none" stroke="midnightblue" d="M447.365,-198.403C421.576,-188.156 378.289,-170.956 348.96,-159.302"/>
<polygon fill="midnightblue" stroke="midnightblue" points="350.18,-156.021 339.594,-155.581 347.595,-162.526 350.18,-156.021"/>
</g>
<!-- Node8 -->
<g id="node8" class="node"><title>Node8</title>
<g id="a_node8"><a xlink:href="../../d0/d9a/MaterialManager_8h.html" target="_top" xlink:title="DetectorsBase/MaterialManager.h">
<polygon fill="none" stroke="black" points="386.5,-136.5 386.5,-155.5 551.5,-155.5 551.5,-136.5 386.5,-136.5"/>
<text text-anchor="middle" x="469" y="-143.5" font-family="Helvetica,sans-Serif" font-size="10.00">DetectorsBase/MaterialManager.h</text>
</a>
</g>
</g>
<!-- Node3&#45;&gt;Node8 -->
<g id="edge8" class="edge"><title>Node3&#45;&gt;Node8</title>
<path fill="none" stroke="midnightblue" d="M469,-198.403C469,-189.938 469,-176.728 469,-165.82"/>
<polygon fill="midnightblue" stroke="midnightblue" points="472.5,-165.581 469,-155.581 465.5,-165.581 472.5,-165.581"/>
</g>
<!-- Node9 -->
<g id="node9" class="node"><title>Node9</title>
<polygon fill="none" stroke="#bfbfbf" points="441,-74.5 441,-93.5 497,-93.5 497,-74.5 441,-74.5"/>
<text text-anchor="middle" x="469" y="-81.5" font-family="Helvetica,sans-Serif" font-size="10.00">Rtypes.h</text>
</g>
<!-- Node3&#45;&gt;Node9 -->
<g id="edge11" class="edge"><title>Node3&#45;&gt;Node9</title>
<path fill="none" stroke="midnightblue" d="M500.675,-198.39C521.54,-190.889 547.274,-177.72 560,-156 564.494,-148.331 564.494,-143.669 560,-136 553.08,-124.189 522.6,-108.543 498.799,-97.7099"/>
<polygon fill="midnightblue" stroke="midnightblue" points="499.979,-94.4039 489.42,-93.5289 497.128,-100.797 499.979,-94.4039"/>
</g>
<!-- Node10 -->
<g id="node10" class="node"><title>Node10</title>
<polygon fill="none" stroke="#bfbfbf" points="608.5,-136.5 608.5,-155.5 661.5,-155.5 661.5,-136.5 608.5,-136.5"/>
<text text-anchor="middle" x="635" y="-143.5" font-family="Helvetica,sans-Serif" font-size="10.00">cxxabi.h</text>
</g>
<!-- Node3&#45;&gt;Node10 -->
<g id="edge12" class="edge"><title>Node3&#45;&gt;Node10</title>
<path fill="none" stroke="midnightblue" d="M492.784,-198.403C521.382,-188.067 569.551,-170.656 601.802,-158.999"/>
<polygon fill="midnightblue" stroke="midnightblue" points="603.046,-162.271 611.26,-155.581 600.666,-155.688 603.046,-162.271"/>
</g>
<!-- Node11 -->
<g id="node11" class="node"><title>Node11</title>
<polygon fill="none" stroke="#bfbfbf" points="679.5,-136.5 679.5,-155.5 730.5,-155.5 730.5,-136.5 679.5,-136.5"/>
<text text-anchor="middle" x="705" y="-143.5" font-family="Helvetica,sans-Serif" font-size="10.00">typeinfo</text>
</g>
<!-- Node3&#45;&gt;Node11 -->
<g id="edge13" class="edge"><title>Node3&#45;&gt;Node11</title>
<path fill="none" stroke="midnightblue" d="M502.794,-198.46C540.791,-188.851 604.605,-172.69 669.404,-156.146"/>
<polygon fill="midnightblue" stroke="midnightblue" points="670.565,-159.462 679.388,-153.596 668.833,-152.68 670.565,-159.462"/>
</g>
<!-- Node12 -->
<g id="node12" class="node"><title>Node12</title>
<polygon fill="none" stroke="#bfbfbf" points="749,-136.5 749,-155.5 811,-155.5 811,-136.5 749,-136.5"/>
<text text-anchor="middle" x="780" y="-143.5" font-family="Helvetica,sans-Serif" font-size="10.00">type_traits</text>
</g>
<!-- Node3&#45;&gt;Node12 -->
<g id="edge14" class="edge"><title>Node3&#45;&gt;Node12</title>
<path fill="none" stroke="midnightblue" d="M516.393,-198.484C568.318,-189.056 654.315,-173.157 738.671,-156.016"/>
<polygon fill="midnightblue" stroke="midnightblue" points="739.582,-159.402 748.681,-153.974 738.183,-152.543 739.582,-159.402"/>
</g>
<!-- Node13 -->
<g id="node13" class="node"><title>Node13</title>
<polygon fill="none" stroke="#bfbfbf" points="829.5,-136.5 829.5,-155.5 870.5,-155.5 870.5,-136.5 829.5,-136.5"/>
<text text-anchor="middle" x="850" y="-143.5" font-family="Helvetica,sans-Serif" font-size="10.00">string</text>
</g>
<!-- Node3&#45;&gt;Node13 -->
<g id="edge15" class="edge"><title>Node3&#45;&gt;Node13</title>
<path fill="none" stroke="midnightblue" d="M534.634,-200.173C605.33,-192.185 720.884,-177.285 819,-156 819.212,-155.954 819.425,-155.907 819.639,-155.86"/>
<polygon fill="midnightblue" stroke="midnightblue" points="820.578,-159.233 829.424,-153.403 818.873,-152.444 820.578,-159.233"/>
</g>
<!-- Node8&#45;&gt;Node4 -->
<g id="edge10" class="edge"><title>Node8&#45;&gt;Node4</title>
<path fill="none" stroke="midnightblue" d="M436.047,-136.403C390.472,-124.514 309.026,-103.268 266.524,-92.1803"/>
<polygon fill="midnightblue" stroke="midnightblue" points="267.163,-88.7298 256.603,-89.5922 265.396,-95.5032 267.163,-88.7298"/>
</g>
<!-- Node8&#45;&gt;Node9 -->
<g id="edge9" class="edge"><title>Node8&#45;&gt;Node9</title>
<path fill="none" stroke="midnightblue" d="M469,-136.403C469,-127.938 469,-114.728 469,-103.82"/>
<polygon fill="midnightblue" stroke="midnightblue" points="472.5,-103.581 469,-93.5806 465.5,-103.581 472.5,-103.581"/>
</g>
<!-- Node15 -->
<g id="node15" class="node"><title>Node15</title>
<g id="a_node15"><a xlink:href="../../dd/d76/Cartesian3D_8h.html" target="_top" xlink:title="MathUtils/Cartesian3D.h">
<polygon fill="none" stroke="black" points="949.5,-136.5 949.5,-155.5 1074.5,-155.5 1074.5,-136.5 949.5,-136.5"/>
<text text-anchor="middle" x="1012" y="-143.5" font-family="Helvetica,sans-Serif" font-size="10.00">MathUtils/Cartesian3D.h</text>
</a>
</g>
</g>
<!-- Node14&#45;&gt;Node15 -->
<g id="edge17" class="edge"><title>Node14&#45;&gt;Node15</title>
<path fill="none" stroke="midnightblue" d="M881.092,-192.933C910.545,-182.598 950.125,-168.711 978.028,-158.92"/>
<polygon fill="midnightblue" stroke="midnightblue" points="979.462,-162.126 987.739,-155.513 977.144,-155.521 979.462,-162.126"/>
</g>
<!-- Node15&#45;&gt;Node9 -->
<g id="edge21" class="edge"><title>Node15&#45;&gt;Node9</title>
<path fill="none" stroke="midnightblue" d="M949.398,-140.521C823.305,-131.342 547.149,-110.389 505,-100 502.007,-99.2622 498.939,-98.3124 495.919,-97.2493"/>
<polygon fill="midnightblue" stroke="midnightblue" points="497.167,-93.9792 486.579,-93.5882 494.612,-100.496 497.167,-93.9792"/>
</g>
<!-- Node16 -->
<g id="node16" class="node"><title>Node16</title>
<polygon fill="none" stroke="#bfbfbf" points="514.5,-74.5 514.5,-93.5 663.5,-93.5 663.5,-74.5 514.5,-74.5"/>
<text text-anchor="middle" x="589" y="-81.5" font-family="Helvetica,sans-Serif" font-size="10.00">Math/GenVector/Rotation3D.h</text>
</g>
<!-- Node15&#45;&gt;Node16 -->
<g id="edge18" class="edge"><title>Node15&#45;&gt;Node16</title>
<path fill="none" stroke="midnightblue" d="M949.399,-137.541C881.277,-129.226 769.21,-114.968 673,-100 663.863,-98.5784 654.187,-96.9583 644.779,-95.3209"/>
<polygon fill="midnightblue" stroke="midnightblue" points="645.169,-91.8358 634.713,-93.5461 643.954,-98.7295 645.169,-91.8358"/>
</g>
<!-- Node17 -->
<g id="node17" class="node"><title>Node17</title>
<polygon fill="none" stroke="#bfbfbf" points="682,-74.5 682,-93.5 838,-93.5 838,-74.5 682,-74.5"/>
<text text-anchor="middle" x="760" y="-81.5" font-family="Helvetica,sans-Serif" font-size="10.00">Math/GenVector/Transform3D.h</text>
</g>
<!-- Node15&#45;&gt;Node17 -->
<g id="edge19" class="edge"><title>Node15&#45;&gt;Node17</title>
<path fill="none" stroke="midnightblue" d="M976.162,-136.467C931.38,-125.805 854.69,-107.545 805.721,-95.886"/>
<polygon fill="midnightblue" stroke="midnightblue" points="806.253,-92.4148 795.714,-93.5034 804.632,-99.2245 806.253,-92.4148"/>
</g>
<!-- Node18 -->
<g id="node18" class="node"><title>Node18</title>
<polygon fill="none" stroke="#bfbfbf" points="856,-74.5 856,-93.5 1016,-93.5 1016,-74.5 856,-74.5"/>
<text text-anchor="middle" x="936" y="-81.5" font-family="Helvetica,sans-Serif" font-size="10.00">Math/GenVector/Translation3D.h</text>
</g>
<!-- Node15&#45;&gt;Node18 -->
<g id="edge20" class="edge"><title>Node15&#45;&gt;Node18</title>
<path fill="none" stroke="midnightblue" d="M1001.11,-136.403C989.034,-126.869 969.333,-111.315 954.76,-99.8106"/>
<polygon fill="midnightblue" stroke="midnightblue" points="956.886,-97.03 946.869,-93.5806 952.549,-102.524 956.886,-97.03"/>
</g>
<!-- Node19 -->
<g id="node19" class="node"><title>Node19</title>
<polygon fill="none" stroke="#bfbfbf" points="1034,-74.5 1034,-93.5 1110,-93.5 1110,-74.5 1034,-74.5"/>
<text text-anchor="middle" x="1072" y="-81.5" font-family="Helvetica,sans-Serif" font-size="10.00">TGeoMatrix.h</text>
</g>
<!-- Node15&#45;&gt;Node19 -->
<g id="edge22" class="edge"><title>Node15&#45;&gt;Node19</title>
<path fill="none" stroke="midnightblue" d="M1020.6,-136.403C1029.86,-127.136 1044.82,-112.183 1056.21,-100.788"/>
<polygon fill="midnightblue" stroke="midnightblue" points="1058.82,-103.127 1063.42,-93.5806 1053.87,-98.1768 1058.82,-103.127"/>
</g>
<!-- Node20 -->
<g id="node20" class="node"><title>Node20</title>
<polygon fill="none" stroke="#bfbfbf" points="1128.5,-69 1128.5,-99 1279.5,-99 1279.5,-69 1128.5,-69"/>
<text text-anchor="start" x="1136.5" y="-87" font-family="Helvetica,sans-Serif" font-size="10.00">Math/GenVector/Displacement</text>
<text text-anchor="middle" x="1204" y="-76" font-family="Helvetica,sans-Serif" font-size="10.00">Vector3D.h</text>
</g>
<!-- Node15&#45;&gt;Node20 -->
<g id="edge23" class="edge"><title>Node15&#45;&gt;Node20</title>
<path fill="none" stroke="midnightblue" d="M1039.51,-136.403C1068.04,-127.488 1113.4,-113.311 1149.28,-102.101"/>
<polygon fill="midnightblue" stroke="midnightblue" points="1150.62,-105.349 1159.12,-99.0253 1148.53,-98.6675 1150.62,-105.349"/>
</g>
<!-- Node21 -->
<g id="node21" class="node"><title>Node21</title>
<polygon fill="none" stroke="#bfbfbf" points="1298,-74.5 1298,-93.5 1474,-93.5 1474,-74.5 1298,-74.5"/>
<text text-anchor="middle" x="1386" y="-81.5" font-family="Helvetica,sans-Serif" font-size="10.00">Math/GenVector/PositionVector3D.h</text>
</g>
<!-- Node15&#45;&gt;Node21 -->
<g id="edge24" class="edge"><title>Node15&#45;&gt;Node21</title>
<path fill="none" stroke="midnightblue" d="M1065.19,-136.467C1133.18,-125.559 1250.73,-106.701 1323.09,-95.0918"/>
<polygon fill="midnightblue" stroke="midnightblue" points="1323.68,-98.5433 1333,-93.5034 1322.57,-91.6317 1323.68,-98.5433"/>
</g>
<!-- Node22 -->
<g id="node22" class="node"><title>Node22</title>
<g id="a_node22"><a xlink:href="../../d2/dd0/Cartesian2D_8h.html" target="_top" xlink:title="MathUtils/Cartesian2D.h">
<polygon fill="none" stroke="black" points="1491.5,-74.5 1491.5,-93.5 1616.5,-93.5 1616.5,-74.5 1491.5,-74.5"/>
<text text-anchor="middle" x="1554" y="-81.5" font-family="Helvetica,sans-Serif" font-size="10.00">MathUtils/Cartesian2D.h</text>
</a>
</g>
</g>
<!-- Node15&#45;&gt;Node22 -->
<g id="edge25" class="edge"><title>Node15&#45;&gt;Node22</title>
<path fill="none" stroke="midnightblue" d="M1074.61,-141.203C1164.95,-135.228 1336.93,-121.988 1482,-100 1490.08,-98.7757 1498.62,-97.2264 1506.88,-95.5909"/>
<polygon fill="midnightblue" stroke="midnightblue" points="1507.67,-99.0006 1516.77,-93.5694 1506.27,-92.1422 1507.67,-99.0006"/>
</g>
<!-- Node25 -->
<g id="node25" class="node"><title>Node25</title>
<polygon fill="none" stroke="#bfbfbf" points="1635,-74.5 1635,-93.5 1689,-93.5 1689,-74.5 1635,-74.5"/>
<text text-anchor="middle" x="1662" y="-81.5" font-family="Helvetica,sans-Serif" font-size="10.00">iostream</text>
</g>
<!-- Node15&#45;&gt;Node25 -->
<g id="edge28" class="edge"><title>Node15&#45;&gt;Node25</title>
<path fill="none" stroke="midnightblue" d="M1074.51,-142.879C1208.93,-137.918 1521.67,-124.11 1625,-100 1628.07,-99.2829 1631.22,-98.3464 1634.33,-97.2912"/>
<polygon fill="midnightblue" stroke="midnightblue" points="1635.82,-100.467 1643.92,-93.6395 1633.33,-93.9243 1635.82,-100.467"/>
</g>
<!-- Node23 -->
<g id="node23" class="node"><title>Node23</title>
<polygon fill="none" stroke="#bfbfbf" points="1387.5,-1 1387.5,-31 1538.5,-31 1538.5,-1 1387.5,-1"/>
<text text-anchor="start" x="1395.5" y="-19" font-family="Helvetica,sans-Serif" font-size="10.00">Math/GenVector/Displacement</text>
<text text-anchor="middle" x="1463" y="-8" font-family="Helvetica,sans-Serif" font-size="10.00">Vector2D.h</text>
</g>
<!-- Node22&#45;&gt;Node23 -->
<g id="edge26" class="edge"><title>Node22&#45;&gt;Node23</title>
<path fill="none" stroke="midnightblue" d="M1542.1,-74.3717C1529.22,-65.0286 1508.22,-49.7966 1491.09,-37.375"/>
<polygon fill="midnightblue" stroke="midnightblue" points="1492.7,-34.2194 1482.55,-31.1815 1488.59,-39.8859 1492.7,-34.2194"/>
</g>
<!-- Node24 -->
<g id="node24" class="node"><title>Node24</title>
<polygon fill="none" stroke="#bfbfbf" points="1557,-6.5 1557,-25.5 1733,-25.5 1733,-6.5 1557,-6.5"/>
<text text-anchor="middle" x="1645" y="-13.5" font-family="Helvetica,sans-Serif" font-size="10.00">Math/GenVector/PositionVector2D.h</text>
</g>
<!-- Node22&#45;&gt;Node24 -->
<g id="edge27" class="edge"><title>Node22&#45;&gt;Node24</title>
<path fill="none" stroke="midnightblue" d="M1565.9,-74.3717C1580.88,-63.5015 1606.86,-44.6602 1624.94,-31.5474"/>
<polygon fill="midnightblue" stroke="midnightblue" points="1627.06,-34.3349 1633.1,-25.6305 1622.95,-28.6684 1627.06,-34.3349"/>
</g>
</g>
</svg>
