<?xml version="1.0" encoding="UTF-8" standalone="no"?>
<!DOCTYPE svg PUBLIC "-//W3C//DTD SVG 1.1//EN"
 "http://www.w3.org/Graphics/SVG/1.1/DTD/svg11.dtd">
<!-- Generated by graphviz version 2.36.0 (20140111.2315)
 -->
<!-- Title: /home/travis/build/AliceO2Group/AliceO2/Common/Field/src/MagFieldFact.cxx Pages: 1 -->
<!--zoomable 410 -->
<svg id="main" version="1.1" xmlns="http://www.w3.org/2000/svg" xmlns:xlink="http://www.w3.org/1999/xlink" xml:space="preserve" onload="init(evt)">
<style type="text/css"><![CDATA[
.edge:hover path { stroke: red; }
.edge:hover polygon { stroke: red; fill: red; }
]]></style>
<script type="text/javascript"><![CDATA[
var edges = document.getElementsByTagName('g');
if (edges && edges.length) {
  for (var i=0;i<edges.length;i++) {
    if (edges[i].id.substr(0,4)=='edge') {
      edges[i].setAttribute('class','edge');
    }
  }
}
]]></script>
        <defs>
                <circle id="rim" cx="0" cy="0" r="7"/>
                <circle id="rim2" cx="0" cy="0" r="3.5"/>
                <g id="zoomPlus">
                        <use xlink:href="#rim" fill="#404040">
                                <set attributeName="fill" to="#808080" begin="zoomplus.mouseover" end="zoomplus.mouseout"/>
                        </use>
                        <path d="M-4,0h8M0,-4v8" fill="none" stroke="white" stroke-width="1.5" pointer-events="none"/>
                </g>
                <g id="zoomMin">
                        <use xlink:href="#rim" fill="#404040">
                                <set attributeName="fill" to="#808080" begin="zoomminus.mouseover" end="zoomminus.mouseout"/>
                        </use>
                        <path d="M-4,0h8" fill="none" stroke="white" stroke-width="1.5" pointer-events="none"/>
                </g>
                <g id="dirArrow">
                        <path fill="none" stroke="white" stroke-width="1.5" d="M0,-3.0v7 M-2.5,-0.5L0,-3.0L2.5,-0.5"/>
                </g>
               <g id="resetDef">
                       <use xlink:href="#rim2" fill="#404040">
                               <set attributeName="fill" to="#808080" begin="reset.mouseover" end="reset.mouseout"/>
                       </use>
               </g>
        </defs>

<script type="text/javascript">
var viewWidth = 2022;
var viewHeight = 410;
var sectionId = 'dynsection-0';
</script>
<script xlink:href="../../svgpan.js"/>
<svg id="graph" class="graph">
<g id="viewport">
<title>/home/travis/build/AliceO2Group/AliceO2/Common/Field/src/MagFieldFact.cxx</title>
<!-- Node1 -->
<g id="node1" class="node"><title>Node1</title>
<polygon fill="#bfbfbf" stroke="black" points="241.5,-360.5 241.5,-401.5 422.5,-401.5 422.5,-360.5 241.5,-360.5"/>
<text text-anchor="start" x="249.5" y="-389.5" font-family="Helvetica,sans-Serif" font-size="10.00">/home/travis/build</text>
<text text-anchor="start" x="249.5" y="-378.5" font-family="Helvetica,sans-Serif" font-size="10.00">/AliceO2Group/AliceO2</text>
<text text-anchor="middle" x="332" y="-367.5" font-family="Helvetica,sans-Serif" font-size="10.00">/Common/Field/src/MagFieldFact.cxx</text>
</g>
<!-- Node2 -->
<g id="node2" class="node"><title>Node2</title>
<g id="a_node2"><a xlink:href="../../da/d34/MagFieldFact_8h.html" target="_top" xlink:title="Definition of the MagFieldFact: factory for ALIDE mag. field from MagFieldParam. ">
<polygon fill="none" stroke="black" points="237,-304.5 237,-323.5 345,-323.5 345,-304.5 237,-304.5"/>
<text text-anchor="middle" x="291" y="-311.5" font-family="Helvetica,sans-Serif" font-size="10.00">Field/MagFieldFact.h</text>
</a>
</g>
</g>
<!-- Node1&#45;&gt;Node2 -->
<g id="edge1" class="edge"><title>Node1&#45;&gt;Node2</title>
<path fill="none" stroke="midnightblue" d="M319.699,-360.498C314.017,-351.49 307.329,-340.888 301.84,-332.185"/>
<polygon fill="midnightblue" stroke="midnightblue" points="304.753,-330.243 296.458,-323.652 298.833,-333.978 304.753,-330.243"/>
</g>
<!-- Node4 -->
<g id="node4" class="node"><title>Node4</title>
<g id="a_node4"><a xlink:href="../../db/d4b/MagneticField_8h.html" target="_top" xlink:title="Definition of the MagF class. ">
<polygon fill="none" stroke="black" points="319,-248.5 319,-267.5 429,-267.5 429,-248.5 319,-248.5"/>
<text text-anchor="middle" x="374" y="-255.5" font-family="Helvetica,sans-Serif" font-size="10.00">Field/MagneticField.h</text>
</a>
</g>
</g>
<!-- Node1&#45;&gt;Node4 -->
<g id="edge45" class="edge"><title>Node1&#45;&gt;Node4</title>
<path fill="none" stroke="midnightblue" d="M340.105,-360.44C344.429,-349.747 349.724,-336.226 354,-324 359.42,-308.502 364.853,-290.661 368.686,-277.596"/>
<polygon fill="midnightblue" stroke="midnightblue" points="372.074,-278.48 371.493,-267.901 365.35,-276.532 372.074,-278.48"/>
</g>
<!-- Node5 -->
<g id="node5" class="node"><title>Node5</title>
<polygon fill="none" stroke="#bfbfbf" points="0,-192.5 0,-211.5 62,-211.5 62,-192.5 0,-192.5"/>
<text text-anchor="middle" x="31" y="-199.5" font-family="Helvetica,sans-Serif" font-size="10.00">FairField.h</text>
</g>
<!-- Node1&#45;&gt;Node5 -->
<g id="edge47" class="edge"><title>Node1&#45;&gt;Node5</title>
<path fill="none" stroke="midnightblue" d="M271.151,-360.444C245.088,-350.994 214.78,-338.535 189,-324 133.36,-292.628 75.6816,-243.463 47.9267,-218.565"/>
<polygon fill="midnightblue" stroke="midnightblue" points="50.0701,-215.784 40.3092,-211.664 45.3702,-220.972 50.0701,-215.784"/>
</g>
<!-- Node6 -->
<g id="node6" class="node"><title>Node6</title>
<g id="a_node6"><a xlink:href="../../d3/d91/MagFieldParam_8h.html" target="_top" xlink:title="Definition of the MagFieldParam: container for ALICE mag. field parameters. ">
<polygon fill="none" stroke="black" points="80.5,-192.5 80.5,-211.5 197.5,-211.5 197.5,-192.5 80.5,-192.5"/>
<text text-anchor="middle" x="139" y="-199.5" font-family="Helvetica,sans-Serif" font-size="10.00">Field/MagFieldParam.h</text>
</a>
</g>
</g>
<!-- Node1&#45;&gt;Node6 -->
<g id="edge44" class="edge"><title>Node1&#45;&gt;Node6</title>
<path fill="none" stroke="midnightblue" d="M280.62,-360.423C240.762,-342.499 187.491,-312.025 158,-268 148.696,-254.111 143.866,-235.599 141.41,-221.883"/>
<polygon fill="midnightblue" stroke="midnightblue" points="144.825,-221.057 139.86,-211.697 137.905,-222.11 144.825,-221.057"/>
</g>
<!-- Node29 -->
<g id="node29" class="node"><title>Node29</title>
<polygon fill="none" stroke="#bfbfbf" points="1960,-74.5 1960,-93.5 2014,-93.5 2014,-74.5 1960,-74.5"/>
<text text-anchor="middle" x="1987" y="-81.5" font-family="Helvetica,sans-Serif" font-size="10.00">iostream</text>
</g>
<!-- Node1&#45;&gt;Node29 -->
<g id="edge48" class="edge"><title>Node1&#45;&gt;Node29</title>
<path fill="none" stroke="midnightblue" d="M422.777,-378.765C673.998,-374.151 1360,-352.952 1360,-259 1360,-259 1360,-259 1360,-201 1360,-67.7626 1823.03,-137.08 1951,-100 1953.65,-99.2315 1956.37,-98.3273 1959.07,-97.3499"/>
<polygon fill="midnightblue" stroke="midnightblue" points="1960.58,-100.519 1968.6,-93.6025 1958.02,-94.0049 1960.58,-100.519"/>
</g>
<!-- Node32 -->
<g id="node32" class="node"><title>Node32</title>
<polygon fill="none" stroke="#bfbfbf" points="1388.5,-304.5 1388.5,-323.5 1479.5,-323.5 1479.5,-304.5 1388.5,-304.5"/>
<text text-anchor="middle" x="1434" y="-311.5" font-family="Helvetica,sans-Serif" font-size="10.00">FairRuntimeDb.h</text>
</g>
<!-- Node1&#45;&gt;Node32 -->
<g id="edge46" class="edge"><title>Node1&#45;&gt;Node32</title>
<path fill="none" stroke="midnightblue" d="M422.821,-378.026C604.08,-373.445 1023.44,-359.63 1374,-324 1375.3,-323.868 1376.61,-323.728 1377.93,-323.581"/>
<polygon fill="midnightblue" stroke="midnightblue" points="1378.69,-327.014 1388.19,-322.33 1377.84,-320.066 1378.69,-327.014"/>
</g>
<!-- Node3 -->
<g id="node3" class="node"><title>Node3</title>
<polygon fill="none" stroke="#bfbfbf" points="167.5,-248.5 167.5,-267.5 262.5,-267.5 262.5,-248.5 167.5,-248.5"/>
<text text-anchor="middle" x="215" y="-255.5" font-family="Helvetica,sans-Serif" font-size="10.00">FairFieldFactory.h</text>
</g>
<!-- Node2&#45;&gt;Node3 -->
<g id="edge2" class="edge"><title>Node2&#45;&gt;Node3</title>
<path fill="none" stroke="midnightblue" d="M278.789,-304.324C267.224,-296.107 249.625,-283.602 235.839,-273.807"/>
<polygon fill="midnightblue" stroke="midnightblue" points="237.612,-270.773 227.433,-267.834 233.557,-276.479 237.612,-270.773"/>
</g>
<!-- Node2&#45;&gt;Node4 -->
<g id="edge3" class="edge"><title>Node2&#45;&gt;Node4</title>
<path fill="none" stroke="midnightblue" d="M304.335,-304.324C317.162,-295.979 336.785,-283.212 351.94,-273.352"/>
<polygon fill="midnightblue" stroke="midnightblue" points="354.224,-276.042 360.698,-267.655 350.407,-270.174 354.224,-276.042"/>
</g>
<!-- Node31 -->
<g id="node31" class="node"><title>Node31</title>
<polygon fill="none" stroke="#bfbfbf" points="216,-192.5 216,-211.5 268,-211.5 268,-192.5 216,-192.5"/>
<text text-anchor="middle" x="242" y="-199.5" font-family="Helvetica,sans-Serif" font-size="10.00">memory</text>
</g>
<!-- Node2&#45;&gt;Node31 -->
<g id="edge43" class="edge"><title>Node2&#45;&gt;Node31</title>
<path fill="none" stroke="midnightblue" d="M289.129,-304.31C286.211,-291.576 279.965,-267.269 271,-248 266.442,-238.204 260.044,-228.025 254.416,-219.832"/>
<polygon fill="midnightblue" stroke="midnightblue" points="257.176,-217.673 248.529,-211.55 251.471,-221.729 257.176,-217.673"/>
</g>
<!-- Node4&#45;&gt;Node5 -->
<g id="edge4" class="edge"><title>Node4&#45;&gt;Node5</title>
<path fill="none" stroke="midnightblue" d="M318.782,-250.046C260.034,-242.368 164.166,-229.042 72.4094,-212.155"/>
<polygon fill="midnightblue" stroke="midnightblue" points="72.8687,-208.68 62.3976,-210.295 71.5901,-215.562 72.8687,-208.68"/>
</g>
<!-- Node4&#45;&gt;Node6 -->
<g id="edge5" class="edge"><title>Node4&#45;&gt;Node6</title>
<path fill="none" stroke="midnightblue" d="M336.764,-248.444C295.94,-239.063 230.357,-223.993 186.016,-213.804"/>
<polygon fill="midnightblue" stroke="midnightblue" points="186.592,-210.345 176.062,-211.516 185.024,-217.167 186.592,-210.345"/>
</g>
<!-- Node9 -->
<g id="node9" class="node"><title>Node9</title>
<g id="a_node9"><a xlink:href="../../dd/dfb/MagneticWrapperChebyshev_8h.html" target="_top" xlink:title="Field/MagneticWrapperChebyshev.h">
<polygon fill="none" stroke="black" points="408.5,-192.5 408.5,-211.5 583.5,-211.5 583.5,-192.5 408.5,-192.5"/>
<text text-anchor="middle" x="496" y="-199.5" font-family="Helvetica,sans-Serif" font-size="10.00">Field/MagneticWrapperChebyshev.h</text>
</a>
</g>
</g>
<!-- Node4&#45;&gt;Node9 -->
<g id="edge8" class="edge"><title>Node4&#45;&gt;Node9</title>
<path fill="none" stroke="midnightblue" d="M393.331,-248.444C413.32,-239.596 444.743,-225.687 467.564,-215.586"/>
<polygon fill="midnightblue" stroke="midnightblue" points="469.032,-218.764 476.759,-211.516 466.198,-212.363 469.032,-218.764"/>
</g>
<!-- Node11 -->
<g id="node11" class="node"><title>Node11</title>
<polygon fill="none" stroke="#bfbfbf" points="275,-6.5 275,-25.5 337,-25.5 337,-6.5 275,-6.5"/>
<text text-anchor="middle" x="306" y="-13.5" font-family="Helvetica,sans-Serif" font-size="10.00">TNamed.h</text>
</g>
<!-- Node4&#45;&gt;Node11 -->
<g id="edge41" class="edge"><title>Node4&#45;&gt;Node11</title>
<path fill="none" stroke="midnightblue" d="M373.686,-248.471C372.886,-235.519 370.05,-210.45 360,-192 349.176,-172.129 336.25,-175.025 324,-156 309.609,-133.651 307.743,-126.155 303,-100 299.07,-78.3282 300.898,-52.9684 303.012,-36.0375"/>
<polygon fill="midnightblue" stroke="midnightblue" points="306.523,-36.2024 304.454,-25.8116 299.592,-35.225 306.523,-36.2024"/>
</g>
<!-- Node16 -->
<g id="node16" class="node"><title>Node16</title>
<polygon fill="none" stroke="#bfbfbf" points="688,-6.5 688,-25.5 744,-25.5 744,-6.5 688,-6.5"/>
<text text-anchor="middle" x="716" y="-13.5" font-family="Helvetica,sans-Serif" font-size="10.00">Rtypes.h</text>
</g>
<!-- Node4&#45;&gt;Node16 -->
<g id="edge40" class="edge"><title>Node4&#45;&gt;Node16</title>
<path fill="none" stroke="midnightblue" d="M429.329,-254.234C475.241,-249.972 541.025,-239.193 592,-212 652.741,-179.597 668.102,-161.52 699,-100 709.289,-79.5135 713.351,-53.2069 714.955,-35.7608"/>
<polygon fill="midnightblue" stroke="midnightblue" points="718.45,-35.9561 715.694,-25.7259 711.468,-35.4416 718.45,-35.9561"/>
</g>
<!-- Node17 -->
<g id="node17" class="node"><title>Node17</title>
<g id="a_node17"><a xlink:href="../../da/df4/MagFieldFast_8h.html" target="_top" xlink:title="Definition of the fast magnetic field parametrization MagFieldFast. ">
<polygon fill="none" stroke="black" points="771,-192.5 771,-211.5 879,-211.5 879,-192.5 771,-192.5"/>
<text text-anchor="middle" x="825" y="-199.5" font-family="Helvetica,sans-Serif" font-size="10.00">Field/MagFieldFast.h</text>
</a>
</g>
</g>
<!-- Node4&#45;&gt;Node17 -->
<g id="edge24" class="edge"><title>Node4&#45;&gt;Node17</title>
<path fill="none" stroke="midnightblue" d="M429.301,-250.379C513.101,-240.345 671.873,-221.335 760.704,-210.698"/>
<polygon fill="midnightblue" stroke="midnightblue" points="761.142,-214.171 770.655,-209.507 760.31,-207.221 761.142,-214.171"/>
</g>
<!-- Node30 -->
<g id="node30" class="node"><title>Node30</title>
<polygon fill="none" stroke="#bfbfbf" points="286.5,-192.5 286.5,-211.5 351.5,-211.5 351.5,-192.5 286.5,-192.5"/>
<text text-anchor="middle" x="319" y="-199.5" font-family="Helvetica,sans-Serif" font-size="10.00">TSystem.h</text>
</g>
<!-- Node4&#45;&gt;Node30 -->
<g id="edge39" class="edge"><title>Node4&#45;&gt;Node30</title>
<path fill="none" stroke="midnightblue" d="M364.918,-248.083C356.829,-240.141 344.805,-228.335 335.09,-218.797"/>
<polygon fill="midnightblue" stroke="midnightblue" points="337.501,-216.26 327.913,-211.751 332.597,-221.254 337.501,-216.26"/>
</g>
<!-- Node4&#45;&gt;Node31 -->
<g id="edge42" class="edge"><title>Node4&#45;&gt;Node31</title>
<path fill="none" stroke="midnightblue" d="M353.084,-248.444C331.264,-239.517 296.85,-225.439 272.108,-215.317"/>
<polygon fill="midnightblue" stroke="midnightblue" points="273.399,-212.063 262.818,-211.516 270.748,-218.542 273.399,-212.063"/>
</g>
<!-- Node7 -->
<g id="node7" class="node"><title>Node7</title>
<polygon fill="none" stroke="#bfbfbf" points="59.5,-136.5 59.5,-155.5 164.5,-155.5 164.5,-136.5 59.5,-136.5"/>
<text text-anchor="middle" x="112" y="-143.5" font-family="Helvetica,sans-Serif" font-size="10.00">FairParGenericSet.h</text>
</g>
<!-- Node6&#45;&gt;Node7 -->
<g id="edge6" class="edge"><title>Node6&#45;&gt;Node7</title>
<path fill="none" stroke="midnightblue" d="M134.541,-192.083C130.846,-184.691 125.477,-173.953 120.906,-164.811"/>
<polygon fill="midnightblue" stroke="midnightblue" points="123.978,-163.13 116.376,-155.751 117.717,-166.261 123.978,-163.13"/>
</g>
<!-- Node8 -->
<g id="node8" class="node"><title>Node8</title>
<polygon fill="none" stroke="#bfbfbf" points="165,-74.5 165,-93.5 221,-93.5 221,-74.5 165,-74.5"/>
<text text-anchor="middle" x="193" y="-81.5" font-family="Helvetica,sans-Serif" font-size="10.00">TString.h</text>
</g>
<!-- Node6&#45;&gt;Node8 -->
<g id="edge7" class="edge"><title>Node6&#45;&gt;Node8</title>
<path fill="none" stroke="midnightblue" d="M147.108,-192.357C154.782,-183.751 166.12,-169.857 173,-156 181.35,-139.182 186.696,-118.338 189.74,-103.596"/>
<polygon fill="midnightblue" stroke="midnightblue" points="193.195,-104.16 191.63,-93.6811 186.319,-102.849 193.195,-104.16"/>
</g>
<!-- Node10 -->
<g id="node10" class="node"><title>Node10</title>
<polygon fill="none" stroke="#bfbfbf" points="352.5,-136.5 352.5,-155.5 405.5,-155.5 405.5,-136.5 352.5,-136.5"/>
<text text-anchor="middle" x="379" y="-143.5" font-family="Helvetica,sans-Serif" font-size="10.00">TMath.h</text>
</g>
<!-- Node9&#45;&gt;Node10 -->
<g id="edge9" class="edge"><title>Node9&#45;&gt;Node10</title>
<path fill="none" stroke="midnightblue" d="M477.461,-192.444C458.377,-183.636 428.425,-169.812 406.564,-159.722"/>
<polygon fill="midnightblue" stroke="midnightblue" points="407.999,-156.529 397.452,-155.516 405.065,-162.885 407.999,-156.529"/>
</g>
<!-- Node9&#45;&gt;Node11 -->
<g id="edge10" class="edge"><title>Node9&#45;&gt;Node11</title>
<path fill="none" stroke="midnightblue" d="M422.874,-192.485C395.29,-186.162 365.236,-175.155 343,-156 307.768,-125.651 304.214,-65.9091 304.895,-35.5918"/>
<polygon fill="midnightblue" stroke="midnightblue" points="308.395,-35.6704 305.306,-25.5358 301.4,-35.3845 308.395,-35.6704"/>
</g>
<!-- Node12 -->
<g id="node12" class="node"><title>Node12</title>
<polygon fill="none" stroke="#bfbfbf" points="599.5,-74.5 599.5,-93.5 668.5,-93.5 668.5,-74.5 599.5,-74.5"/>
<text text-anchor="middle" x="634" y="-81.5" font-family="Helvetica,sans-Serif" font-size="10.00">TObjArray.h</text>
</g>
<!-- Node9&#45;&gt;Node12 -->
<g id="edge11" class="edge"><title>Node9&#45;&gt;Node12</title>
<path fill="none" stroke="midnightblue" d="M534.435,-192.475C556.839,-185.803 584.278,-174.47 603,-156 617.485,-141.71 625.676,-119.515 629.953,-103.748"/>
<polygon fill="midnightblue" stroke="midnightblue" points="633.457,-104.151 632.41,-93.6084 626.654,-102.503 633.457,-104.151"/>
</g>
<!-- Node13 -->
<g id="node13" class="node"><title>Node13</title>
<g id="a_node13"><a xlink:href="../../d8/d64/Chebyshev3D_8h.html" target="_top" xlink:title="MathUtils/Chebyshev3D.h">
<polygon fill="none" stroke="black" points="462,-136.5 462,-155.5 594,-155.5 594,-136.5 462,-136.5"/>
<text text-anchor="middle" x="528" y="-143.5" font-family="Helvetica,sans-Serif" font-size="10.00">MathUtils/Chebyshev3D.h</text>
</a>
</g>
</g>
<!-- Node9&#45;&gt;Node13 -->
<g id="edge12" class="edge"><title>Node9&#45;&gt;Node13</title>
<path fill="none" stroke="midnightblue" d="M501.284,-192.083C505.711,-184.613 512.163,-173.724 517.618,-164.52"/>
<polygon fill="midnightblue" stroke="midnightblue" points="520.727,-166.138 522.814,-155.751 514.705,-162.57 520.727,-166.138"/>
</g>
<!-- Node15 -->
<g id="node15" class="node"><title>Node15</title>
<g id="a_node15"><a xlink:href="../../d4/d08/Chebyshev3DCalc_8h.html" target="_top" xlink:title="MathUtils/Chebyshev3DCalc.h">
<polygon fill="none" stroke="black" points="353,-74.5 353,-93.5 505,-93.5 505,-74.5 353,-74.5"/>
<text text-anchor="middle" x="429" y="-81.5" font-family="Helvetica,sans-Serif" font-size="10.00">MathUtils/Chebyshev3DCalc.h</text>
</a>
</g>
</g>
<!-- Node9&#45;&gt;Node15 -->
<g id="edge22" class="edge"><title>Node9&#45;&gt;Node15</title>
<path fill="none" stroke="midnightblue" d="M485.438,-192.366C475.787,-183.976 461.729,-170.421 453,-156 443.121,-139.679 436.685,-118.762 432.989,-103.869"/>
<polygon fill="midnightblue" stroke="midnightblue" points="436.333,-102.793 430.685,-93.8292 429.511,-104.359 436.333,-102.793"/>
</g>
<!-- Node9&#45;&gt;Node16 -->
<g id="edge23" class="edge"><title>Node9&#45;&gt;Node16</title>
<path fill="none" stroke="midnightblue" d="M533.92,-192.499C560.317,-185.441 595.564,-173.665 623,-156 652.071,-137.282 657.385,-128.473 677,-100 691.212,-79.3705 702.686,-52.7454 709.42,-35.2879"/>
<polygon fill="midnightblue" stroke="midnightblue" points="712.766,-36.3311 712.982,-25.7384 706.208,-33.8847 712.766,-36.3311"/>
</g>
<!-- Node13&#45;&gt;Node8 -->
<g id="edge21" class="edge"><title>Node13&#45;&gt;Node8</title>
<path fill="none" stroke="midnightblue" d="M480.358,-136.467C413.42,-124.478 292.851,-102.884 231.346,-91.868"/>
<polygon fill="midnightblue" stroke="midnightblue" points="231.747,-88.3842 221.287,-90.0663 230.513,-95.2745 231.747,-88.3842"/>
</g>
<!-- Node13&#45;&gt;Node11 -->
<g id="edge13" class="edge"><title>Node13&#45;&gt;Node11</title>
<path fill="none" stroke="midnightblue" d="M461.664,-142.769C423.527,-138.327 376.828,-127.13 344,-100 324.087,-83.5429 314.126,-54.3916 309.517,-35.3846"/>
<polygon fill="midnightblue" stroke="midnightblue" points="312.922,-34.5724 307.387,-25.5385 306.08,-36.0525 312.922,-34.5724"/>
</g>
<!-- Node13&#45;&gt;Node12 -->
<g id="edge14" class="edge"><title>Node13&#45;&gt;Node12</title>
<path fill="none" stroke="midnightblue" d="M543.187,-136.403C560.662,-126.512 589.579,-110.144 610.083,-98.5378"/>
<polygon fill="midnightblue" stroke="midnightblue" points="611.862,-101.553 618.841,-93.5806 608.414,-95.4607 611.862,-101.553"/>
</g>
<!-- Node14 -->
<g id="node14" class="node"><title>Node14</title>
<polygon fill="none" stroke="#bfbfbf" points="459.5,-6.5 459.5,-25.5 502.5,-25.5 502.5,-6.5 459.5,-6.5"/>
<text text-anchor="middle" x="481" y="-13.5" font-family="Helvetica,sans-Serif" font-size="10.00">cstdio</text>
</g>
<!-- Node13&#45;&gt;Node14 -->
<g id="edge15" class="edge"><title>Node13&#45;&gt;Node14</title>
<path fill="none" stroke="midnightblue" d="M527.519,-136.147C526.479,-121.498 523.305,-91.4967 514,-68 509.174,-55.814 501.256,-43.4401 494.386,-33.9327"/>
<polygon fill="midnightblue" stroke="midnightblue" points="497.068,-31.6762 488.255,-25.7955 491.477,-35.8885 497.068,-31.6762"/>
</g>
<!-- Node13&#45;&gt;Node15 -->
<g id="edge16" class="edge"><title>Node13&#45;&gt;Node15</title>
<path fill="none" stroke="midnightblue" d="M513.816,-136.403C497.642,-126.601 470.974,-110.439 451.857,-98.8526"/>
<polygon fill="midnightblue" stroke="midnightblue" points="453.524,-95.7705 443.158,-93.5806 449.896,-101.757 453.524,-95.7705"/>
</g>
<!-- Node13&#45;&gt;Node16 -->
<g id="edge20" class="edge"><title>Node13&#45;&gt;Node16</title>
<path fill="none" stroke="midnightblue" d="M532.99,-136.42C542.456,-120.816 564.465,-87.6016 591,-68 617.329,-48.5511 652.133,-35.1442 678.329,-26.9752"/>
<polygon fill="midnightblue" stroke="midnightblue" points="679.339,-30.3261 687.911,-24.0992 677.327,-23.6216 679.339,-30.3261"/>
</g>
<!-- Node15&#45;&gt;Node11 -->
<g id="edge17" class="edge"><title>Node15&#45;&gt;Node11</title>
<path fill="none" stroke="midnightblue" d="M412.92,-74.3717C392.109,-63.2051 355.622,-43.6266 331.136,-30.4876"/>
<polygon fill="midnightblue" stroke="midnightblue" points="332.551,-27.2746 322.084,-25.6305 329.241,-33.4428 332.551,-27.2746"/>
</g>
<!-- Node15&#45;&gt;Node14 -->
<g id="edge18" class="edge"><title>Node15&#45;&gt;Node14</title>
<path fill="none" stroke="midnightblue" d="M435.798,-74.3717C443.851,-64.1512 457.455,-46.884 467.64,-33.9571"/>
<polygon fill="midnightblue" stroke="midnightblue" points="470.595,-35.8621 474.034,-25.8411 465.096,-31.53 470.595,-35.8621"/>
</g>
<!-- Node15&#45;&gt;Node16 -->
<g id="edge19" class="edge"><title>Node15&#45;&gt;Node16</title>
<path fill="none" stroke="midnightblue" d="M466.226,-74.4393C520.941,-61.8568 622.552,-38.4897 677.811,-25.782"/>
<polygon fill="midnightblue" stroke="midnightblue" points="678.932,-29.1158 687.893,-23.4636 677.363,-22.2939 678.932,-29.1158"/>
</g>
<!-- Node17&#45;&gt;Node16 -->
<g id="edge25" class="edge"><title>Node17&#45;&gt;Node16</title>
<path fill="none" stroke="midnightblue" d="M824.748,-192.172C824.081,-179.266 821.671,-154.747 813,-136 793.468,-93.7711 755.471,-53.8016 733.273,-32.6453"/>
<polygon fill="midnightblue" stroke="midnightblue" points="735.57,-30.0014 725.873,-25.7327 730.792,-35.1167 735.57,-30.0014"/>
</g>
<!-- Node18 -->
<g id="node18" class="node"><title>Node18</title>
<polygon fill="none" stroke="#bfbfbf" points="763.5,-136.5 763.5,-155.5 804.5,-155.5 804.5,-136.5 763.5,-136.5"/>
<text text-anchor="middle" x="784" y="-143.5" font-family="Helvetica,sans-Serif" font-size="10.00">string</text>
</g>
<!-- Node17&#45;&gt;Node18 -->
<g id="edge26" class="edge"><title>Node17&#45;&gt;Node18</title>
<path fill="none" stroke="midnightblue" d="M818.23,-192.083C812.438,-184.455 803.942,-173.264 796.862,-163.941"/>
<polygon fill="midnightblue" stroke="midnightblue" points="799.479,-161.599 790.644,-155.751 793.904,-165.832 799.479,-161.599"/>
</g>
<!-- Node19 -->
<g id="node19" class="node"><title>Node19</title>
<g id="a_node19"><a xlink:href="../../dd/d76/Cartesian3D_8h.html" target="_top" xlink:title="MathUtils/Cartesian3D.h">
<polygon fill="none" stroke="black" points="1206.5,-136.5 1206.5,-155.5 1331.5,-155.5 1331.5,-136.5 1206.5,-136.5"/>
<text text-anchor="middle" x="1269" y="-143.5" font-family="Helvetica,sans-Serif" font-size="10.00">MathUtils/Cartesian3D.h</text>
</a>
</g>
</g>
<!-- Node17&#45;&gt;Node19 -->
<g id="edge27" class="edge"><title>Node17&#45;&gt;Node19</title>
<path fill="none" stroke="midnightblue" d="M879.443,-194.379C959.044,-184.697 1107.36,-166.659 1196.24,-155.85"/>
<polygon fill="midnightblue" stroke="midnightblue" points="1196.74,-159.315 1206.24,-154.633 1195.89,-152.366 1196.74,-159.315"/>
</g>
<!-- Node19&#45;&gt;Node16 -->
<g id="edge31" class="edge"><title>Node19&#45;&gt;Node16</title>
<path fill="none" stroke="midnightblue" d="M1269.66,-136.195C1270.34,-119.915 1269.18,-85.2056 1249,-68 1211.49,-36.0151 870.176,-22.0196 754.292,-18.162"/>
<polygon fill="midnightblue" stroke="midnightblue" points="754.222,-14.658 744.114,-17.8301 753.994,-21.6543 754.222,-14.658"/>
</g>
<!-- Node20 -->
<g id="node20" class="node"><title>Node20</title>
<polygon fill="none" stroke="#bfbfbf" points="1440.5,-74.5 1440.5,-93.5 1589.5,-93.5 1589.5,-74.5 1440.5,-74.5"/>
<text text-anchor="middle" x="1515" y="-81.5" font-family="Helvetica,sans-Serif" font-size="10.00">Math/GenVector/Rotation3D.h</text>
</g>
<!-- Node19&#45;&gt;Node20 -->
<g id="edge28" class="edge"><title>Node19&#45;&gt;Node20</title>
<path fill="none" stroke="midnightblue" d="M1303.98,-136.467C1347.7,-125.805 1422.56,-107.545 1470.37,-95.886"/>
<polygon fill="midnightblue" stroke="midnightblue" points="1471.25,-99.2733 1480.14,-93.5034 1469.59,-92.4727 1471.25,-99.2733"/>
</g>
<!-- Node21 -->
<g id="node21" class="node"><title>Node21</title>
<polygon fill="none" stroke="#bfbfbf" points="1608,-74.5 1608,-93.5 1764,-93.5 1764,-74.5 1608,-74.5"/>
<text text-anchor="middle" x="1686" y="-81.5" font-family="Helvetica,sans-Serif" font-size="10.00">Math/GenVector/Transform3D.h</text>
</g>
<!-- Node19&#45;&gt;Node21 -->
<g id="edge29" class="edge"><title>Node19&#45;&gt;Node21</title>
<path fill="none" stroke="midnightblue" d="M1331.55,-137.067C1397.8,-128.519 1505.4,-114.22 1598,-100 1607.55,-98.5333 1617.67,-96.8914 1627.51,-95.2466"/>
<polygon fill="midnightblue" stroke="midnightblue" points="1628.35,-98.6538 1637.63,-93.5387 1627.19,-91.7514 1628.35,-98.6538"/>
</g>
<!-- Node22 -->
<g id="node22" class="node"><title>Node22</title>
<polygon fill="none" stroke="#bfbfbf" points="1782,-74.5 1782,-93.5 1942,-93.5 1942,-74.5 1782,-74.5"/>
<text text-anchor="middle" x="1862" y="-81.5" font-family="Helvetica,sans-Serif" font-size="10.00">Math/GenVector/Translation3D.h</text>
</g>
<!-- Node19&#45;&gt;Node22 -->
<g id="edge30" class="edge"><title>Node19&#45;&gt;Node22</title>
<path fill="none" stroke="midnightblue" d="M1331.6,-137.513C1336.47,-136.982 1341.31,-136.471 1346,-136 1535.5,-116.943 1584.05,-123.847 1773,-100 1783.71,-98.6481 1795.11,-96.9372 1806.04,-95.1585"/>
<polygon fill="midnightblue" stroke="midnightblue" points="1806.63,-98.609 1815.91,-93.5144 1805.48,-91.704 1806.63,-98.609"/>
</g>
<!-- Node23 -->
<g id="node23" class="node"><title>Node23</title>
<polygon fill="none" stroke="#bfbfbf" points="801,-74.5 801,-93.5 877,-93.5 877,-74.5 801,-74.5"/>
<text text-anchor="middle" x="839" y="-81.5" font-family="Helvetica,sans-Serif" font-size="10.00">TGeoMatrix.h</text>
</g>
<!-- Node19&#45;&gt;Node23 -->
<g id="edge32" class="edge"><title>Node19&#45;&gt;Node23</title>
<path fill="none" stroke="midnightblue" d="M1206.22,-141.192C1130.05,-135.749 998.027,-123.673 887,-100 882.458,-99.0317 877.732,-97.8182 873.094,-96.5033"/>
<polygon fill="midnightblue" stroke="midnightblue" points="873.771,-93.0519 863.186,-93.5184 871.751,-99.7543 873.771,-93.0519"/>
</g>
<!-- Node24 -->
<g id="node24" class="node"><title>Node24</title>
<polygon fill="none" stroke="#bfbfbf" points="895.5,-69 895.5,-99 1046.5,-99 1046.5,-69 895.5,-69"/>
<text text-anchor="start" x="903.5" y="-87" font-family="Helvetica,sans-Serif" font-size="10.00">Math/GenVector/Displacement</text>
<text text-anchor="middle" x="971" y="-76" font-family="Helvetica,sans-Serif" font-size="10.00">Vector3D.h</text>
</g>
<!-- Node19&#45;&gt;Node24 -->
<g id="edge33" class="edge"><title>Node19&#45;&gt;Node24</title>
<path fill="none" stroke="midnightblue" d="M1226.62,-136.467C1180.99,-127.28 1107.35,-112.454 1050.81,-101.068"/>
<polygon fill="midnightblue" stroke="midnightblue" points="1051.31,-97.5993 1040.81,-99.0565 1049.93,-104.462 1051.31,-97.5993"/>
</g>
<!-- Node25 -->
<g id="node25" class="node"><title>Node25</title>
<polygon fill="none" stroke="#bfbfbf" points="1065,-74.5 1065,-93.5 1241,-93.5 1241,-74.5 1065,-74.5"/>
<text text-anchor="middle" x="1153" y="-81.5" font-family="Helvetica,sans-Serif" font-size="10.00">Math/GenVector/PositionVector3D.h</text>
</g>
<!-- Node19&#45;&gt;Node25 -->
<g id="edge34" class="edge"><title>Node19&#45;&gt;Node25</title>
<path fill="none" stroke="midnightblue" d="M1252.38,-136.403C1233.08,-126.423 1201.04,-109.849 1178.57,-98.2253"/>
<polygon fill="midnightblue" stroke="midnightblue" points="1180.08,-95.0661 1169.59,-93.5806 1176.86,-101.284 1180.08,-95.0661"/>
</g>
<!-- Node26 -->
<g id="node26" class="node"><title>Node26</title>
<g id="a_node26"><a xlink:href="../../d2/dd0/Cartesian2D_8h.html" target="_top" xlink:title="MathUtils/Cartesian2D.h">
<polygon fill="none" stroke="black" points="1297.5,-74.5 1297.5,-93.5 1422.5,-93.5 1422.5,-74.5 1297.5,-74.5"/>
<text text-anchor="middle" x="1360" y="-81.5" font-family="Helvetica,sans-Serif" font-size="10.00">MathUtils/Cartesian2D.h</text>
</a>
</g>
</g>
<!-- Node19&#45;&gt;Node26 -->
<g id="edge35" class="edge"><title>Node19&#45;&gt;Node26</title>
<path fill="none" stroke="midnightblue" d="M1282.04,-136.403C1296.77,-126.691 1320.97,-110.732 1338.51,-99.1697"/>
<polygon fill="midnightblue" stroke="midnightblue" points="1340.56,-102.007 1346.99,-93.5806 1336.71,-96.1632 1340.56,-102.007"/>
</g>
<!-- Node19&#45;&gt;Node29 -->
<g id="edge38" class="edge"><title>Node19&#45;&gt;Node29</title>
<path fill="none" stroke="midnightblue" d="M1331.58,-137.383C1336.46,-136.882 1341.31,-136.414 1346,-136 1614.32,-112.355 1688.55,-160.652 1951,-100 1954.07,-99.2911 1957.21,-98.3448 1960.29,-97.2708"/>
<polygon fill="midnightblue" stroke="midnightblue" points="1961.78,-100.448 1969.81,-93.5388 1959.22,-93.9311 1961.78,-100.448"/>
</g>
<!-- Node27 -->
<g id="node27" class="node"><title>Node27</title>
<polygon fill="none" stroke="#bfbfbf" points="1375.5,-1 1375.5,-31 1526.5,-31 1526.5,-1 1375.5,-1"/>
<text text-anchor="start" x="1383.5" y="-19" font-family="Helvetica,sans-Serif" font-size="10.00">Math/GenVector/Displacement</text>
<text text-anchor="middle" x="1451" y="-8" font-family="Helvetica,sans-Serif" font-size="10.00">Vector2D.h</text>
</g>
<!-- Node26&#45;&gt;Node27 -->
<g id="edge36" class="edge"><title>Node26&#45;&gt;Node27</title>
<path fill="none" stroke="midnightblue" d="M1371.9,-74.3717C1384.78,-65.0286 1405.78,-49.7966 1422.91,-37.375"/>
<polygon fill="midnightblue" stroke="midnightblue" points="1425.41,-39.8859 1431.45,-31.1815 1421.3,-34.2194 1425.41,-39.8859"/>
</g>
<!-- Node28 -->
<g id="node28" class="node"><title>Node28</title>
<polygon fill="none" stroke="#bfbfbf" points="1181,-6.5 1181,-25.5 1357,-25.5 1357,-6.5 1181,-6.5"/>
<text text-anchor="middle" x="1269" y="-13.5" font-family="Helvetica,sans-Serif" font-size="10.00">Math/GenVector/PositionVector2D.h</text>
</g>
<!-- Node26&#45;&gt;Node28 -->
<g id="edge37" class="edge"><title>Node26&#45;&gt;Node28</title>
<path fill="none" stroke="midnightblue" d="M1348.1,-74.3717C1333.12,-63.5015 1307.14,-44.6602 1289.06,-31.5474"/>
<polygon fill="midnightblue" stroke="midnightblue" points="1291.05,-28.6684 1280.9,-25.6305 1286.94,-34.3349 1291.05,-28.6684"/>
</g>
</g>
</svg>
        <g id="navigator" transform="translate(0 0)" fill="#404254">
                <rect fill="#f2f5e9" fill-opacity="0.5" stroke="#606060" stroke-width=".5" x="0" y="0" width="60" height="60"/>
                <use id="zoomplus" xlink:href="#zoomPlus" x="17" y="9" onmousedown="handleZoom(evt,'in')"/>
                <use id="zoomminus" xlink:href="#zoomMin" x="42" y="9" onmousedown="handleZoom(evt,'out')"/>
                <use id="reset" xlink:href="#resetDef" x="30" y="36" onmousedown="handleReset()"/>
                <g id="arrowUp" xlink:href="#dirArrow" transform="translate(30 24)" onmousedown="handlePan(0,-1)">
                  <use xlink:href="#rim" fill="#404040">
                        <set attributeName="fill" to="#808080" begin="arrowUp.mouseover" end="arrowUp.mouseout"/>
                  </use>
                  <path fill="none" stroke="white" stroke-width="1.5" d="M0,-3.0v7 M-2.5,-0.5L0,-3.0L2.5,-0.5"/>
                </g>
                <g id="arrowRight" xlink:href="#dirArrow" transform="rotate(90) translate(36 -43)" onmousedown="handlePan(1,0)">
                  <use xlink:href="#rim" fill="#404040">
                        <set attributeName="fill" to="#808080" begin="arrowRight.mouseover" end="arrowRight.mouseout"/>
                  </use>
                  <path fill="none" stroke="white" stroke-width="1.5" d="M0,-3.0v7 M-2.5,-0.5L0,-3.0L2.5,-0.5"/>
                </g>
                <g id="arrowDown" xlink:href="#dirArrow" transform="rotate(180) translate(-30 -48)" onmousedown="handlePan(0,1)">
                  <use xlink:href="#rim" fill="#404040">
                        <set attributeName="fill" to="#808080" begin="arrowDown.mouseover" end="arrowDown.mouseout"/>
                  </use>
                  <path fill="none" stroke="white" stroke-width="1.5" d="M0,-3.0v7 M-2.5,-0.5L0,-3.0L2.5,-0.5"/>
                </g>
                <g id="arrowLeft" xlink:href="#dirArrow" transform="rotate(270) translate(-36 17)" onmousedown="handlePan(-1,0)">
                  <use xlink:href="#rim" fill="#404040">
                        <set attributeName="fill" to="#808080" begin="arrowLeft.mouseover" end="arrowLeft.mouseout"/>
                  </use>
                  <path fill="none" stroke="white" stroke-width="1.5" d="M0,-3.0v7 M-2.5,-0.5L0,-3.0L2.5,-0.5"/>
                </g>
        </g>
        <svg viewBox="0 0 15 15" width="100%" height="30px" preserveAspectRatio="xMaxYMin meet">
         <g id="arrow_out" transform="scale(0.3 0.3)">
          <a xlink:href="MagFieldFact_8cxx__incl_org.svg" target="_base">
           <rect id="button" ry="5" rx="5" y="6" x="6" height="38" width="38"
                fill="#f2f5e9" fill-opacity="0.5" stroke="#606060" stroke-width="1.0"/>
           <path id="arrow"
             d="M 11.500037,31.436501 C 11.940474,20.09759 22.043105,11.32322 32.158766,21.979434 L 37.068811,17.246167 C 37.068811,17.246167 37.088388,32 37.088388,32 L 22.160133,31.978069 C 22.160133,31.978069 26.997745,27.140456 26.997745,27.140456 C 18.528582,18.264221 13.291696,25.230495 11.500037,31.436501 z"
             style="fill:#404040;"/>
          </a>
         </g>
        </svg>
</svg>
