<?xml version="1.0" encoding="UTF-8" standalone="no"?>
<!DOCTYPE svg PUBLIC "-//W3C//DTD SVG 1.1//EN"
 "http://www.w3.org/Graphics/SVG/1.1/DTD/svg11.dtd">
<!-- Generated by graphviz version 2.36.0 (20140111.2315)
 -->
<!-- Title: /home/travis/build/AliceO2Group/AliceO2/Detectors/TOF/simulation/include/TOFSimulation/Detector.h Pages: 1 -->
<svg width="1777pt" height="322pt"
 viewBox="0.00 0.00 1777.30 322.00" xmlns="http://www.w3.org/2000/svg" xmlns:xlink="http://www.w3.org/1999/xlink">
<g id="graph0" class="graph" transform="scale(1 1) rotate(0) translate(4 318)">
<title>/home/travis/build/AliceO2Group/AliceO2/Detectors/TOF/simulation/include/TOFSimulation/Detector.h</title>
<!-- Node1 -->
<g id="node1" class="node"><title>Node1</title>
<polygon fill="#bfbfbf" stroke="black" points="797.798,-261 797.798,-313 964.798,-313 964.798,-261 797.798,-261"/>
<text text-anchor="start" x="805.798" y="-301" font-family="Helvetica,sans-Serif" font-size="10.00">/home/travis/build</text>
<text text-anchor="start" x="805.798" y="-290" font-family="Helvetica,sans-Serif" font-size="10.00">/AliceO2Group/AliceO2</text>
<text text-anchor="start" x="805.798" y="-279" font-family="Helvetica,sans-Serif" font-size="10.00">/Detectors/TOF/simulation</text>
<text text-anchor="middle" x="881.298" y="-268" font-family="Helvetica,sans-Serif" font-size="10.00">/include/TOFSimulation/Detector.h</text>
</g>
<!-- Node2 -->
<g id="node2" class="node"><title>Node2</title>
<g id="a_node2"><a xlink:href="../../d1/d3a/Base_2include_2DetectorsBase_2Detector_8h.html" target="_top" xlink:title="DetectorsBase/Detector.h">
<polygon fill="none" stroke="black" points="440.798,-198.5 440.798,-217.5 571.798,-217.5 571.798,-198.5 440.798,-198.5"/>
<text text-anchor="middle" x="506.298" y="-205.5" font-family="Helvetica,sans-Serif" font-size="10.00">DetectorsBase/Detector.h</text>
</a>
</g>
</g>
<!-- Node1&#45;&gt;Node2 -->
<g id="edge1" class="edge"><title>Node1&#45;&gt;Node2</title>
<path fill="none" stroke="midnightblue" d="M797.607,-268.816C724.097,-253.722 619.502,-232.245 557.692,-219.553"/>
<polygon fill="midnightblue" stroke="midnightblue" points="558.28,-216.101 547.78,-217.518 556.872,-222.958 558.28,-216.101"/>
</g>
<!-- Node14 -->
<g id="node14" class="node"><title>Node14</title>
<g id="a_node14"><a xlink:href="../../d4/d54/Geo_8h.html" target="_top" xlink:title="TOFBase/Geo.h">
<polygon fill="none" stroke="black" points="837.298,-198.5 837.298,-217.5 925.298,-217.5 925.298,-198.5 837.298,-198.5"/>
<text text-anchor="middle" x="881.298" y="-205.5" font-family="Helvetica,sans-Serif" font-size="10.00">TOFBase/Geo.h</text>
</a>
</g>
</g>
<!-- Node1&#45;&gt;Node14 -->
<g id="edge15" class="edge"><title>Node1&#45;&gt;Node14</title>
<path fill="none" stroke="midnightblue" d="M881.298,-260.787C881.298,-250.069 881.298,-237.785 881.298,-227.871"/>
<polygon fill="midnightblue" stroke="midnightblue" points="884.798,-227.558 881.298,-217.558 877.798,-227.558 884.798,-227.558"/>
</g>
<!-- Node15 -->
<g id="node15" class="node"><title>Node15</title>
<g id="a_node15"><a xlink:href="../../d4/d25/BaseHits_8h.html" target="_top" xlink:title="SimulationDataFormat\l/BaseHits.h">
<polygon fill="none" stroke="black" points="970.298,-193 970.298,-223 1084.3,-223 1084.3,-193 970.298,-193"/>
<text text-anchor="start" x="978.298" y="-211" font-family="Helvetica,sans-Serif" font-size="10.00">SimulationDataFormat</text>
<text text-anchor="middle" x="1027.3" y="-200" font-family="Helvetica,sans-Serif" font-size="10.00">/BaseHits.h</text>
</a>
</g>
</g>
<!-- Node1&#45;&gt;Node15 -->
<g id="edge17" class="edge"><title>Node1&#45;&gt;Node15</title>
<path fill="none" stroke="midnightblue" d="M929.104,-260.787C949.544,-250.007 972.987,-237.643 991.841,-227.7"/>
<polygon fill="midnightblue" stroke="midnightblue" points="993.482,-230.792 1000.69,-223.031 990.216,-224.6 993.482,-230.792"/>
</g>
<!-- Node3 -->
<g id="node3" class="node"><title>Node3</title>
<polygon fill="none" stroke="#bfbfbf" points="227.798,-74.5 227.798,-93.5 262.798,-93.5 262.798,-74.5 227.798,-74.5"/>
<text text-anchor="middle" x="245.298" y="-81.5" font-family="Helvetica,sans-Serif" font-size="10.00">map</text>
</g>
<!-- Node2&#45;&gt;Node3 -->
<g id="edge2" class="edge"><title>Node2&#45;&gt;Node3</title>
<path fill="none" stroke="midnightblue" d="M440.675,-205.037C312.649,-200.527 39.5473,-187.31 11.2978,-156 -47.8084,-90.4912 143.281,-84.5528 217.284,-84.6373"/>
<polygon fill="midnightblue" stroke="midnightblue" points="217.688,-88.1393 227.705,-84.6907 217.723,-81.1394 217.688,-88.1393"/>
</g>
<!-- Node4 -->
<g id="node4" class="node"><title>Node4</title>
<polygon fill="none" stroke="#bfbfbf" points="20.2978,-136.5 20.2978,-155.5 64.2978,-155.5 64.2978,-136.5 20.2978,-136.5"/>
<text text-anchor="middle" x="42.2978" y="-143.5" font-family="Helvetica,sans-Serif" font-size="10.00">vector</text>
</g>
<!-- Node2&#45;&gt;Node4 -->
<g id="edge3" class="edge"><title>Node2&#45;&gt;Node4</title>
<path fill="none" stroke="midnightblue" d="M440.476,-202.649C357.228,-196.39 209.447,-182.764 74.6347,-155.971"/>
<polygon fill="midnightblue" stroke="midnightblue" points="75.0338,-152.481 64.5392,-153.934 73.6497,-159.343 75.0338,-152.481"/>
</g>
<!-- Node5 -->
<g id="node5" class="node"><title>Node5</title>
<polygon fill="none" stroke="#bfbfbf" points="82.2978,-136.5 82.2978,-155.5 134.298,-155.5 134.298,-136.5 82.2978,-136.5"/>
<text text-anchor="middle" x="108.298" y="-143.5" font-family="Helvetica,sans-Serif" font-size="10.00">memory</text>
</g>
<!-- Node2&#45;&gt;Node5 -->
<g id="edge4" class="edge"><title>Node2&#45;&gt;Node5</title>
<path fill="none" stroke="midnightblue" d="M440.68,-200.024C369.829,-191.987 253.519,-177.334 144.453,-156.046"/>
<polygon fill="midnightblue" stroke="midnightblue" points="145.087,-152.604 134.599,-154.1 143.731,-159.471 145.087,-152.604"/>
</g>
<!-- Node6 -->
<g id="node6" class="node"><title>Node6</title>
<polygon fill="none" stroke="#bfbfbf" points="152.798,-136.5 152.798,-155.5 231.798,-155.5 231.798,-136.5 152.798,-136.5"/>
<text text-anchor="middle" x="192.298" y="-143.5" font-family="Helvetica,sans-Serif" font-size="10.00">FairDetector.h</text>
</g>
<!-- Node2&#45;&gt;Node6 -->
<g id="edge5" class="edge"><title>Node2&#45;&gt;Node6</title>
<path fill="none" stroke="midnightblue" d="M461.643,-198.467C403.542,-187.365 302.336,-168.026 241.901,-156.478"/>
<polygon fill="midnightblue" stroke="midnightblue" points="242.317,-152.995 231.838,-154.555 241.003,-159.87 242.317,-152.995"/>
</g>
<!-- Node7 -->
<g id="node7" class="node"><title>Node7</title>
<polygon fill="none" stroke="#bfbfbf" points="250.298,-136.5 250.298,-155.5 350.298,-155.5 350.298,-136.5 250.298,-136.5"/>
<text text-anchor="middle" x="300.298" y="-143.5" font-family="Helvetica,sans-Serif" font-size="10.00">FairRootManager.h</text>
</g>
<!-- Node2&#45;&gt;Node7 -->
<g id="edge6" class="edge"><title>Node2&#45;&gt;Node7</title>
<path fill="none" stroke="midnightblue" d="M476.783,-198.403C440.682,-187.889 379.45,-170.054 339.443,-158.402"/>
<polygon fill="midnightblue" stroke="midnightblue" points="340.338,-155.017 329.758,-155.581 338.38,-161.737 340.338,-155.017"/>
</g>
<!-- Node8 -->
<g id="node8" class="node"><title>Node8</title>
<g id="a_node8"><a xlink:href="../../d0/d9a/MaterialManager_8h.html" target="_top" xlink:title="DetectorsBase/MaterialManager.h">
<polygon fill="none" stroke="black" points="368.798,-136.5 368.798,-155.5 533.798,-155.5 533.798,-136.5 368.798,-136.5"/>
<text text-anchor="middle" x="451.298" y="-143.5" font-family="Helvetica,sans-Serif" font-size="10.00">DetectorsBase/MaterialManager.h</text>
</a>
</g>
</g>
<!-- Node2&#45;&gt;Node8 -->
<g id="edge7" class="edge"><title>Node2&#45;&gt;Node8</title>
<path fill="none" stroke="midnightblue" d="M498.418,-198.403C490.004,-189.225 476.478,-174.47 466.072,-163.117"/>
<polygon fill="midnightblue" stroke="midnightblue" points="468.501,-160.587 459.163,-155.581 463.341,-165.317 468.501,-160.587"/>
</g>
<!-- Node9 -->
<g id="node9" class="node"><title>Node9</title>
<polygon fill="none" stroke="#bfbfbf" points="478.298,-74.5 478.298,-93.5 534.298,-93.5 534.298,-74.5 478.298,-74.5"/>
<text text-anchor="middle" x="506.298" y="-81.5" font-family="Helvetica,sans-Serif" font-size="10.00">Rtypes.h</text>
</g>
<!-- Node2&#45;&gt;Node9 -->
<g id="edge10" class="edge"><title>Node2&#45;&gt;Node9</title>
<path fill="none" stroke="midnightblue" d="M515.922,-198.212C528.968,-185.18 549.823,-159.711 542.298,-136 538.231,-123.188 529.655,-110.819 521.893,-101.471"/>
<polygon fill="midnightblue" stroke="midnightblue" points="524.382,-99.0017 515.146,-93.81 519.128,-103.628 524.382,-99.0017"/>
</g>
<!-- Node10 -->
<g id="node10" class="node"><title>Node10</title>
<polygon fill="none" stroke="#bfbfbf" points="590.798,-136.5 590.798,-155.5 643.798,-155.5 643.798,-136.5 590.798,-136.5"/>
<text text-anchor="middle" x="617.298" y="-143.5" font-family="Helvetica,sans-Serif" font-size="10.00">cxxabi.h</text>
</g>
<!-- Node2&#45;&gt;Node10 -->
<g id="edge11" class="edge"><title>Node2&#45;&gt;Node10</title>
<path fill="none" stroke="midnightblue" d="M522.201,-198.403C540.582,-188.468 571.054,-171.997 592.542,-160.381"/>
<polygon fill="midnightblue" stroke="midnightblue" points="594.291,-163.415 601.424,-155.581 590.962,-157.257 594.291,-163.415"/>
</g>
<!-- Node11 -->
<g id="node11" class="node"><title>Node11</title>
<polygon fill="none" stroke="#bfbfbf" points="661.798,-136.5 661.798,-155.5 712.798,-155.5 712.798,-136.5 661.798,-136.5"/>
<text text-anchor="middle" x="687.298" y="-143.5" font-family="Helvetica,sans-Serif" font-size="10.00">typeinfo</text>
</g>
<!-- Node2&#45;&gt;Node11 -->
<g id="edge12" class="edge"><title>Node2&#45;&gt;Node11</title>
<path fill="none" stroke="midnightblue" d="M532.231,-198.403C563.636,-187.993 616.688,-170.407 651.853,-158.75"/>
<polygon fill="midnightblue" stroke="midnightblue" points="653.315,-161.952 661.705,-155.484 651.112,-155.308 653.315,-161.952"/>
</g>
<!-- Node12 -->
<g id="node12" class="node"><title>Node12</title>
<polygon fill="none" stroke="#bfbfbf" points="731.298,-136.5 731.298,-155.5 793.298,-155.5 793.298,-136.5 731.298,-136.5"/>
<text text-anchor="middle" x="762.298" y="-143.5" font-family="Helvetica,sans-Serif" font-size="10.00">type_traits</text>
</g>
<!-- Node2&#45;&gt;Node12 -->
<g id="edge13" class="edge"><title>Node2&#45;&gt;Node12</title>
<path fill="none" stroke="midnightblue" d="M542.704,-198.467C589.872,-187.412 671.887,-168.19 721.229,-156.625"/>
<polygon fill="midnightblue" stroke="midnightblue" points="722.3,-159.969 731.238,-154.28 720.703,-153.154 722.3,-159.969"/>
</g>
<!-- Node13 -->
<g id="node13" class="node"><title>Node13</title>
<polygon fill="none" stroke="#bfbfbf" points="811.798,-136.5 811.798,-155.5 852.798,-155.5 852.798,-136.5 811.798,-136.5"/>
<text text-anchor="middle" x="832.298" y="-143.5" font-family="Helvetica,sans-Serif" font-size="10.00">string</text>
</g>
<!-- Node2&#45;&gt;Node13 -->
<g id="edge14" class="edge"><title>Node2&#45;&gt;Node13</title>
<path fill="none" stroke="midnightblue" d="M567.429,-198.463C627.368,-189.617 721.155,-174.501 801.298,-156 801.509,-155.951 801.722,-155.902 801.935,-155.852"/>
<polygon fill="midnightblue" stroke="midnightblue" points="802.899,-159.217 811.705,-153.326 801.147,-152.44 802.899,-159.217"/>
</g>
<!-- Node8&#45;&gt;Node3 -->
<g id="edge9" class="edge"><title>Node8&#45;&gt;Node3</title>
<path fill="none" stroke="midnightblue" d="M421.783,-136.403C382.022,-124.823 311.776,-104.362 272.978,-93.0623"/>
<polygon fill="midnightblue" stroke="midnightblue" points="273.501,-89.5691 262.921,-90.133 271.543,-96.2898 273.501,-89.5691"/>
</g>
<!-- Node8&#45;&gt;Node9 -->
<g id="edge8" class="edge"><title>Node8&#45;&gt;Node9</title>
<path fill="none" stroke="midnightblue" d="M459.178,-136.403C467.591,-127.225 481.117,-112.47 491.524,-101.117"/>
<polygon fill="midnightblue" stroke="midnightblue" points="494.255,-103.317 498.432,-93.5806 489.095,-98.5871 494.255,-103.317"/>
</g>
<!-- Node14&#45;&gt;Node9 -->
<g id="edge16" class="edge"><title>Node14&#45;&gt;Node9</title>
<path fill="none" stroke="midnightblue" d="M881.693,-198.417C881.875,-183.233 879.84,-151.755 861.298,-136 806.933,-89.8081 611.355,-117.897 542.298,-100 539.471,-99.2675 536.575,-98.3561 533.714,-97.3468"/>
<polygon fill="midnightblue" stroke="midnightblue" points="534.855,-94.0352 524.267,-93.6566 532.308,-100.555 534.855,-94.0352"/>
</g>
<!-- Node16 -->
<g id="node16" class="node"><title>Node16</title>
<g id="a_node16"><a xlink:href="../../dd/d76/Cartesian3D_8h.html" target="_top" xlink:title="MathUtils/Cartesian3D.h">
<polygon fill="none" stroke="black" points="1033.8,-136.5 1033.8,-155.5 1158.8,-155.5 1158.8,-136.5 1033.8,-136.5"/>
<text text-anchor="middle" x="1096.3" y="-143.5" font-family="Helvetica,sans-Serif" font-size="10.00">MathUtils/Cartesian3D.h</text>
</a>
</g>
</g>
<!-- Node15&#45;&gt;Node16 -->
<g id="edge18" class="edge"><title>Node15&#45;&gt;Node16</title>
<path fill="none" stroke="midnightblue" d="M1043.65,-192.781C1054.19,-183.613 1067.9,-171.696 1078.68,-162.319"/>
<polygon fill="midnightblue" stroke="midnightblue" points="1081.01,-164.933 1086.26,-155.731 1076.41,-159.651 1081.01,-164.933"/>
</g>
<!-- Node16&#45;&gt;Node9 -->
<g id="edge22" class="edge"><title>Node16&#45;&gt;Node9</title>
<path fill="none" stroke="midnightblue" d="M1033.46,-142.373C908.716,-136.751 633.967,-122.231 542.298,-100 539.302,-99.2734 536.233,-98.3308 533.211,-97.272"/>
<polygon fill="midnightblue" stroke="midnightblue" points="534.458,-94.0015 523.87,-93.6159 531.907,-100.52 534.458,-94.0015"/>
</g>
<!-- Node17 -->
<g id="node17" class="node"><title>Node17</title>
<polygon fill="none" stroke="#bfbfbf" points="551.798,-74.5 551.798,-93.5 700.798,-93.5 700.798,-74.5 551.798,-74.5"/>
<text text-anchor="middle" x="626.298" y="-81.5" font-family="Helvetica,sans-Serif" font-size="10.00">Math/GenVector/Rotation3D.h</text>
</g>
<!-- Node16&#45;&gt;Node17 -->
<g id="edge19" class="edge"><title>Node16&#45;&gt;Node17</title>
<path fill="none" stroke="midnightblue" d="M1033.63,-138.875C957.144,-131.126 823.933,-116.754 710.298,-100 700.835,-98.6048 690.801,-96.9591 681.087,-95.2781"/>
<polygon fill="midnightblue" stroke="midnightblue" points="681.573,-91.8098 671.117,-93.5225 680.359,-98.7037 681.573,-91.8098"/>
</g>
<!-- Node18 -->
<g id="node18" class="node"><title>Node18</title>
<polygon fill="none" stroke="#bfbfbf" points="719.298,-74.5 719.298,-93.5 875.298,-93.5 875.298,-74.5 719.298,-74.5"/>
<text text-anchor="middle" x="797.298" y="-81.5" font-family="Helvetica,sans-Serif" font-size="10.00">Math/GenVector/Transform3D.h</text>
</g>
<!-- Node16&#45;&gt;Node18 -->
<g id="edge20" class="edge"><title>Node16&#45;&gt;Node18</title>
<path fill="none" stroke="midnightblue" d="M1053.78,-136.467C1000.09,-125.693 907.74,-107.162 849.734,-95.5223"/>
<polygon fill="midnightblue" stroke="midnightblue" points="850.166,-92.0393 839.673,-93.5034 848.789,-98.9025 850.166,-92.0393"/>
</g>
<!-- Node19 -->
<g id="node19" class="node"><title>Node19</title>
<polygon fill="none" stroke="#bfbfbf" points="893.298,-74.5 893.298,-93.5 1053.3,-93.5 1053.3,-74.5 893.298,-74.5"/>
<text text-anchor="middle" x="973.298" y="-81.5" font-family="Helvetica,sans-Serif" font-size="10.00">Math/GenVector/Translation3D.h</text>
</g>
<!-- Node16&#45;&gt;Node19 -->
<g id="edge21" class="edge"><title>Node16&#45;&gt;Node19</title>
<path fill="none" stroke="midnightblue" d="M1078.67,-136.403C1058.12,-126.379 1023.93,-109.701 1000.09,-98.0699"/>
<polygon fill="midnightblue" stroke="midnightblue" points="1001.41,-94.8192 990.888,-93.5806 998.341,-101.111 1001.41,-94.8192"/>
</g>
<!-- Node20 -->
<g id="node20" class="node"><title>Node20</title>
<polygon fill="none" stroke="#bfbfbf" points="1071.3,-74.5 1071.3,-93.5 1147.3,-93.5 1147.3,-74.5 1071.3,-74.5"/>
<text text-anchor="middle" x="1109.3" y="-81.5" font-family="Helvetica,sans-Serif" font-size="10.00">TGeoMatrix.h</text>
</g>
<!-- Node16&#45;&gt;Node20 -->
<g id="edge23" class="edge"><title>Node16&#45;&gt;Node20</title>
<path fill="none" stroke="midnightblue" d="M1098.16,-136.403C1100.01,-127.849 1102.92,-114.45 1105.29,-103.476"/>
<polygon fill="midnightblue" stroke="midnightblue" points="1108.74,-104.095 1107.44,-93.5806 1101.9,-102.613 1108.74,-104.095"/>
</g>
<!-- Node21 -->
<g id="node21" class="node"><title>Node21</title>
<polygon fill="none" stroke="#bfbfbf" points="1165.8,-69 1165.8,-99 1316.8,-99 1316.8,-69 1165.8,-69"/>
<text text-anchor="start" x="1173.8" y="-87" font-family="Helvetica,sans-Serif" font-size="10.00">Math/GenVector/Displacement</text>
<text text-anchor="middle" x="1241.3" y="-76" font-family="Helvetica,sans-Serif" font-size="10.00">Vector3D.h</text>
</g>
<!-- Node16&#45;&gt;Node21 -->
<g id="edge24" class="edge"><title>Node16&#45;&gt;Node21</title>
<path fill="none" stroke="midnightblue" d="M1117.07,-136.403C1138.07,-127.717 1171.13,-114.035 1197.87,-102.969"/>
<polygon fill="midnightblue" stroke="midnightblue" points="1199.5,-106.083 1207.4,-99.0253 1196.82,-99.6148 1199.5,-106.083"/>
</g>
<!-- Node22 -->
<g id="node22" class="node"><title>Node22</title>
<polygon fill="none" stroke="#bfbfbf" points="1335.3,-74.5 1335.3,-93.5 1511.3,-93.5 1511.3,-74.5 1335.3,-74.5"/>
<text text-anchor="middle" x="1423.3" y="-81.5" font-family="Helvetica,sans-Serif" font-size="10.00">Math/GenVector/PositionVector3D.h</text>
</g>
<!-- Node16&#45;&gt;Node22 -->
<g id="edge25" class="edge"><title>Node16&#45;&gt;Node22</title>
<path fill="none" stroke="midnightblue" d="M1142.8,-136.467C1201.76,-125.649 1303.35,-107.009 1366.74,-95.3781"/>
<polygon fill="midnightblue" stroke="midnightblue" points="1367.75,-98.7507 1376.95,-93.5034 1366.49,-91.8657 1367.75,-98.7507"/>
</g>
<!-- Node23 -->
<g id="node23" class="node"><title>Node23</title>
<g id="a_node23"><a xlink:href="../../d2/dd0/Cartesian2D_8h.html" target="_top" xlink:title="MathUtils/Cartesian2D.h">
<polygon fill="none" stroke="black" points="1528.8,-74.5 1528.8,-93.5 1653.8,-93.5 1653.8,-74.5 1528.8,-74.5"/>
<text text-anchor="middle" x="1591.3" y="-81.5" font-family="Helvetica,sans-Serif" font-size="10.00">MathUtils/Cartesian2D.h</text>
</a>
</g>
</g>
<!-- Node16&#45;&gt;Node23 -->
<g id="edge26" class="edge"><title>Node16&#45;&gt;Node23</title>
<path fill="none" stroke="midnightblue" d="M1158.91,-140.297C1241.7,-133.632 1391.98,-119.983 1519.3,-100 1527.19,-98.761 1535.53,-97.2315 1543.62,-95.6274"/>
<polygon fill="midnightblue" stroke="midnightblue" points="1544.59,-99.0019 1553.69,-93.5721 1543.19,-92.1434 1544.59,-99.0019"/>
</g>
<!-- Node26 -->
<g id="node26" class="node"><title>Node26</title>
<polygon fill="none" stroke="#bfbfbf" points="1672.3,-74.5 1672.3,-93.5 1726.3,-93.5 1726.3,-74.5 1672.3,-74.5"/>
<text text-anchor="middle" x="1699.3" y="-81.5" font-family="Helvetica,sans-Serif" font-size="10.00">iostream</text>
</g>
<!-- Node16&#45;&gt;Node26 -->
<g id="edge29" class="edge"><title>Node16&#45;&gt;Node26</title>
<path fill="none" stroke="midnightblue" d="M1159.02,-142.428C1285.73,-136.838 1568.17,-122.263 1662.3,-100 1665.37,-99.2736 1668.52,-98.3311 1671.62,-97.2724"/>
<polygon fill="midnightblue" stroke="midnightblue" points="1673.12,-100.447 1681.22,-93.6164 1670.63,-93.9057 1673.12,-100.447"/>
</g>
<!-- Node24 -->
<g id="node24" class="node"><title>Node24</title>
<polygon fill="none" stroke="#bfbfbf" points="1424.8,-1 1424.8,-31 1575.8,-31 1575.8,-1 1424.8,-1"/>
<text text-anchor="start" x="1432.8" y="-19" font-family="Helvetica,sans-Serif" font-size="10.00">Math/GenVector/Displacement</text>
<text text-anchor="middle" x="1500.3" y="-8" font-family="Helvetica,sans-Serif" font-size="10.00">Vector2D.h</text>
</g>
<!-- Node23&#45;&gt;Node24 -->
<g id="edge27" class="edge"><title>Node23&#45;&gt;Node24</title>
<path fill="none" stroke="midnightblue" d="M1579.4,-74.3717C1566.52,-65.0286 1545.52,-49.7966 1528.39,-37.375"/>
<polygon fill="midnightblue" stroke="midnightblue" points="1530,-34.2194 1519.85,-31.1815 1525.89,-39.8859 1530,-34.2194"/>
</g>
<!-- Node25 -->
<g id="node25" class="node"><title>Node25</title>
<polygon fill="none" stroke="#bfbfbf" points="1594.3,-6.5 1594.3,-25.5 1770.3,-25.5 1770.3,-6.5 1594.3,-6.5"/>
<text text-anchor="middle" x="1682.3" y="-13.5" font-family="Helvetica,sans-Serif" font-size="10.00">Math/GenVector/PositionVector2D.h</text>
</g>
<!-- Node23&#45;&gt;Node25 -->
<g id="edge28" class="edge"><title>Node23&#45;&gt;Node25</title>
<path fill="none" stroke="midnightblue" d="M1603.19,-74.3717C1618.18,-63.5015 1644.16,-44.6602 1662.24,-31.5474"/>
<polygon fill="midnightblue" stroke="midnightblue" points="1664.36,-34.3349 1670.4,-25.6305 1660.25,-28.6684 1664.36,-34.3349"/>
</g>
</g>
</svg>
