<?xml version="1.0" encoding="UTF-8" standalone="no"?>
<!DOCTYPE svg PUBLIC "-//W3C//DTD SVG 1.1//EN"
 "http://www.w3.org/Graphics/SVG/1.1/DTD/svg11.dtd">
<!-- Generated by graphviz version 2.36.0 (20140111.2315)
 -->
<!-- Title: o2::DataFormat::TPC::ClusterHardwareContainer Pages: 1 -->
<svg width="447pt" height="366pt"
 viewBox="0.00 0.00 447.00 366.00" xmlns="http://www.w3.org/2000/svg" xmlns:xlink="http://www.w3.org/1999/xlink">
<g id="graph0" class="graph" transform="scale(1 1) rotate(0) translate(4 362)">
<title>o2::DataFormat::TPC::ClusterHardwareContainer</title>
<!-- Node1 -->
<g id="node1" class="node"><title>Node1</title>
<polygon fill="#bfbfbf" stroke="black" points="76,-1 76,-69 214,-69 214,-1 76,-1"/>
<text text-anchor="start" x="84" y="-57" font-family="Helvetica,sans-Serif" font-size="10.00">o2::DataFormat::TPC</text>
<text text-anchor="middle" x="145" y="-46" font-family="Helvetica,sans-Serif" font-size="10.00">::ClusterHardwareContainer</text>
<polyline fill="none" stroke="black" points="76,-39 214,-39 "/>
<text text-anchor="middle" x="145" y="-27" font-family="Helvetica,sans-Serif" font-size="10.00"> </text>
<polyline fill="none" stroke="black" points="76,-20 214,-20 "/>
<text text-anchor="middle" x="145" y="-8" font-family="Helvetica,sans-Serif" font-size="10.00"> </text>
</g>
<!-- Node2 -->
<g id="node2" class="node"><title>Node2</title>
<polygon fill="none" stroke="#bfbfbf" points="-0.5,-140.5 -0.5,-197.5 50.5,-197.5 50.5,-140.5 -0.5,-140.5"/>
<text text-anchor="middle" x="25" y="-185.5" font-family="Helvetica,sans-Serif" font-size="10.00">uint32_t</text>
<polyline fill="none" stroke="#bfbfbf" points="-0.5,-178.5 50.5,-178.5 "/>
<text text-anchor="middle" x="25" y="-166.5" font-family="Helvetica,sans-Serif" font-size="10.00"> </text>
<polyline fill="none" stroke="#bfbfbf" points="-0.5,-159.5 50.5,-159.5 "/>
<text text-anchor="middle" x="25" y="-147.5" font-family="Helvetica,sans-Serif" font-size="10.00"> </text>
</g>
<!-- Node2&#45;&gt;Node1 -->
<g id="edge1" class="edge"><title>Node2&#45;&gt;Node1</title>
<path fill="none" stroke="#404040" d="M28.3459,-140.332C31.5603,-123.663 37.8266,-102.857 50,-88 54.5804,-82.4098 59.927,-77.3259 65.7065,-72.7225"/>
<polygon fill="none" stroke="#404040" points="66.0642,-72.4634 68.577,-65.7043 75.7827,-65.4241 73.2699,-72.1833 66.0642,-72.4634"/>
<text text-anchor="middle" x="85" y="-91.5" font-family="Helvetica,sans-Serif" font-size="10.00"> +timeBinOffset</text>
</g>
<!-- Node3 -->
<g id="node3" class="node"><title>Node3</title>
<polygon fill="none" stroke="#bfbfbf" points="85.5,-140.5 85.5,-197.5 136.5,-197.5 136.5,-140.5 85.5,-140.5"/>
<text text-anchor="middle" x="111" y="-185.5" font-family="Helvetica,sans-Serif" font-size="10.00">uint64_t</text>
<polyline fill="none" stroke="#bfbfbf" points="85.5,-178.5 136.5,-178.5 "/>
<text text-anchor="middle" x="111" y="-166.5" font-family="Helvetica,sans-Serif" font-size="10.00"> </text>
<polyline fill="none" stroke="#bfbfbf" points="85.5,-159.5 136.5,-159.5 "/>
<text text-anchor="middle" x="111" y="-147.5" font-family="Helvetica,sans-Serif" font-size="10.00"> </text>
</g>
<!-- Node3&#45;&gt;Node1 -->
<g id="edge2" class="edge"><title>Node3&#45;&gt;Node1</title>
<path fill="none" stroke="#404040" d="M115.031,-140.346C117.581,-124.818 121.288,-105.17 126,-88 126.666,-85.5742 127.394,-83.1008 128.165,-80.6151"/>
<polygon fill="none" stroke="#404040" points="128.231,-80.4139 126.324,-73.4596 132.01,-69.0242 133.917,-75.9785 128.231,-80.4139"/>
<text text-anchor="middle" x="142.5" y="-91.5" font-family="Helvetica,sans-Serif" font-size="10.00"> +mDH</text>
</g>
<!-- Node4 -->
<g id="node4" class="node"><title>Node4</title>
<polygon fill="none" stroke="#bfbfbf" points="160.5,-300.5 160.5,-357.5 211.5,-357.5 211.5,-300.5 160.5,-300.5"/>
<text text-anchor="middle" x="186" y="-345.5" font-family="Helvetica,sans-Serif" font-size="10.00">uint16_t</text>
<polyline fill="none" stroke="#bfbfbf" points="160.5,-338.5 211.5,-338.5 "/>
<text text-anchor="middle" x="186" y="-326.5" font-family="Helvetica,sans-Serif" font-size="10.00"> </text>
<polyline fill="none" stroke="#bfbfbf" points="160.5,-319.5 211.5,-319.5 "/>
<text text-anchor="middle" x="186" y="-307.5" font-family="Helvetica,sans-Serif" font-size="10.00"> </text>
</g>
<!-- Node4&#45;&gt;Node1 -->
<g id="edge3" class="edge"><title>Node4&#45;&gt;Node1</title>
<path fill="none" stroke="#404040" d="M184.258,-300.444C181.121,-255.608 173.46,-164.21 159,-88 158.562,-85.6922 158.075,-83.3365 157.553,-80.9645"/>
<polygon fill="none" stroke="#404040" points="157.511,-80.7857 152.223,-75.8824 154.716,-69.1157 160.003,-74.019 157.511,-80.7857"/>
<text text-anchor="middle" x="222.5" y="-172" font-family="Helvetica,sans-Serif" font-size="10.00"> +numberOfClusters</text>
<text text-anchor="middle" x="222.5" y="-161" font-family="Helvetica,sans-Serif" font-size="10.00">+CRU</text>
</g>
<!-- Node5 -->
<g id="node5" class="node"><title>Node5</title>
<g id="a_node5"><a xlink:href="../../df/d9e/structo2_1_1DataFormat_1_1TPC_1_1ClusterHardware.html" target="_top" xlink:title="{o2::DataFormat::TPC\l::ClusterHardware\n||+ getPad()\l+ getTimeLocal()\l+ getSigmaPad2()\l+ getSigmaTime2()\l}">
<polygon fill="none" stroke="black" points="280.5,-118.5 280.5,-219.5 391.5,-219.5 391.5,-118.5 280.5,-118.5"/>
<text text-anchor="start" x="288.5" y="-207.5" font-family="Helvetica,sans-Serif" font-size="10.00">o2::DataFormat::TPC</text>
<text text-anchor="middle" x="336" y="-196.5" font-family="Helvetica,sans-Serif" font-size="10.00">::ClusterHardware</text>
<polyline fill="none" stroke="black" points="280.5,-189.5 391.5,-189.5 "/>
<text text-anchor="middle" x="336" y="-177.5" font-family="Helvetica,sans-Serif" font-size="10.00"> </text>
<polyline fill="none" stroke="black" points="280.5,-170.5 391.5,-170.5 "/>
<text text-anchor="start" x="288.5" y="-158.5" font-family="Helvetica,sans-Serif" font-size="10.00">+ getPad()</text>
<text text-anchor="start" x="288.5" y="-147.5" font-family="Helvetica,sans-Serif" font-size="10.00">+ getTimeLocal()</text>
<text text-anchor="start" x="288.5" y="-136.5" font-family="Helvetica,sans-Serif" font-size="10.00">+ getSigmaPad2()</text>
<text text-anchor="start" x="288.5" y="-125.5" font-family="Helvetica,sans-Serif" font-size="10.00">+ getSigmaTime2()</text>
</a>
</g>
</g>
<!-- Node4&#45;&gt;Node5 -->
<g id="edge5" class="edge"><title>Node4&#45;&gt;Node5</title>
<path fill="none" stroke="#404040" d="M211.786,-300.839C230.586,-281.036 256.772,-253.454 280.256,-228.717"/>
<polygon fill="none" stroke="#404040" points="280.505,-228.454 281.735,-221.349 288.767,-219.752 287.537,-226.857 280.505,-228.454"/>
<text text-anchor="middle" x="285.5" y="-263" font-family="Helvetica,sans-Serif" font-size="10.00"> +qTot</text>
<text text-anchor="middle" x="285.5" y="-252" font-family="Helvetica,sans-Serif" font-size="10.00">+qMax</text>
</g>
<!-- Node5&#45;&gt;Node1 -->
<g id="edge4" class="edge"><title>Node5&#45;&gt;Node1</title>
<path fill="none" stroke="#404040" d="M280.303,-128.03C275.476,-124.622 270.658,-121.241 266,-118 246.045,-104.115 224.08,-89.1382 204.404,-75.8319"/>
<polygon fill="none" stroke="#404040" points="204.291,-75.7558 197.08,-75.7131 194.346,-69.0404 201.557,-69.0831 204.291,-75.7558"/>
<text text-anchor="middle" x="262" y="-91.5" font-family="Helvetica,sans-Serif" font-size="10.00"> +clusters</text>
</g>
<!-- Node6 -->
<g id="node6" class="node"><title>Node6</title>
<g id="a_node6"><a xlink:href="../../d4/dc3/classfloat.html" target="_top" xlink:title="{float\n||}">
<polygon fill="none" stroke="black" points="299.5,-300.5 299.5,-357.5 334.5,-357.5 334.5,-300.5 299.5,-300.5"/>
<text text-anchor="middle" x="317" y="-345.5" font-family="Helvetica,sans-Serif" font-size="10.00">float</text>
<polyline fill="none" stroke="black" points="299.5,-338.5 334.5,-338.5 "/>
<text text-anchor="middle" x="317" y="-326.5" font-family="Helvetica,sans-Serif" font-size="10.00"> </text>
<polyline fill="none" stroke="black" points="299.5,-319.5 334.5,-319.5 "/>
<text text-anchor="middle" x="317" y="-307.5" font-family="Helvetica,sans-Serif" font-size="10.00"> </text>
</a>
</g>
</g>
<!-- Node6&#45;&gt;Node5 -->
<g id="edge6" class="edge"><title>Node6&#45;&gt;Node5</title>
<path fill="none" stroke="#404040" d="M315.546,-300.298C315.041,-282.435 315.183,-258.748 318,-238 318.277,-235.962 318.595,-233.897 318.948,-231.819"/>
<polygon fill="none" stroke="#404040" points="318.987,-231.623 316.221,-224.963 321.305,-219.849 324.07,-226.509 318.987,-231.623"/>
<text text-anchor="middle" x="355.5" y="-274" font-family="Helvetica,sans-Serif" font-size="10.00"> +sigmaPad2Pre</text>
<text text-anchor="middle" x="355.5" y="-263" font-family="Helvetica,sans-Serif" font-size="10.00">+timePre</text>
<text text-anchor="middle" x="355.5" y="-252" font-family="Helvetica,sans-Serif" font-size="10.00">+sigmaTime2Pre</text>
<text text-anchor="middle" x="355.5" y="-241" font-family="Helvetica,sans-Serif" font-size="10.00">+padPre</text>
</g>
<!-- Node7 -->
<g id="node7" class="node"><title>Node7</title>
<polygon fill="none" stroke="#bfbfbf" points="392,-300.5 392,-357.5 438,-357.5 438,-300.5 392,-300.5"/>
<text text-anchor="middle" x="415" y="-345.5" font-family="Helvetica,sans-Serif" font-size="10.00">uint8_t</text>
<polyline fill="none" stroke="#bfbfbf" points="392,-338.5 438,-338.5 "/>
<text text-anchor="middle" x="415" y="-326.5" font-family="Helvetica,sans-Serif" font-size="10.00"> </text>
<polyline fill="none" stroke="#bfbfbf" points="392,-319.5 438,-319.5 "/>
<text text-anchor="middle" x="415" y="-307.5" font-family="Helvetica,sans-Serif" font-size="10.00"> </text>
</g>
<!-- Node7&#45;&gt;Node5 -->
<g id="edge7" class="edge"><title>Node7&#45;&gt;Node5</title>
<path fill="none" stroke="#404040" d="M411.611,-300.483C408.555,-282.053 402.954,-257.66 393,-238 391.63,-235.294 390.134,-232.603 388.539,-229.939"/>
<polygon fill="none" stroke="#404040" points="388.504,-229.886 381.877,-227.042 381.954,-219.831 388.581,-222.675 388.504,-229.886"/>
<text text-anchor="middle" x="423.5" y="-263" font-family="Helvetica,sans-Serif" font-size="10.00"> +flags</text>
<text text-anchor="middle" x="423.5" y="-252" font-family="Helvetica,sans-Serif" font-size="10.00">+row</text>
</g>
</g>
</svg>
