<?xml version="1.0" encoding="UTF-8" standalone="no"?>
<!DOCTYPE svg PUBLIC "-//W3C//DTD SVG 1.1//EN"
 "http://www.w3.org/Graphics/SVG/1.1/DTD/svg11.dtd">
<!-- Generated by graphviz version 2.36.0 (20140111.2315)
 -->
<!-- Title: /home/travis/build/AliceO2Group/AliceO2/Detectors/TOF/simulation/src/DigitizerTask.cxx Pages: 1 -->
<svg width="2321pt" height="514pt"
 viewBox="0.00 0.00 2321.00 514.00" xmlns="http://www.w3.org/2000/svg" xmlns:xlink="http://www.w3.org/1999/xlink">
<g id="graph0" class="graph" transform="scale(1 1) rotate(0) translate(4 510)">
<title>/home/travis/build/AliceO2Group/AliceO2/Detectors/TOF/simulation/src/DigitizerTask.cxx</title>
<!-- Node1 -->
<g id="node1" class="node"><title>Node1</title>
<polygon fill="#bfbfbf" stroke="black" points="2005,-453 2005,-505 2137,-505 2137,-453 2005,-453"/>
<text text-anchor="start" x="2013" y="-493" font-family="Helvetica,sans-Serif" font-size="10.00">/home/travis/build</text>
<text text-anchor="start" x="2013" y="-482" font-family="Helvetica,sans-Serif" font-size="10.00">/AliceO2Group/AliceO2</text>
<text text-anchor="start" x="2013" y="-471" font-family="Helvetica,sans-Serif" font-size="10.00">/Detectors/TOF/simulation</text>
<text text-anchor="middle" x="2071" y="-460" font-family="Helvetica,sans-Serif" font-size="10.00">/src/DigitizerTask.cxx</text>
</g>
<!-- Node2 -->
<g id="node2" class="node"><title>Node2</title>
<g id="a_node2"><a xlink:href="../../d8/dc6/TOF_2simulation_2include_2TOFSimulation_2DigitizerTask_8h.html" target="_top" xlink:title="TOFSimulation/DigitizerTask.h">
<polygon fill="none" stroke="black" points="1242.5,-396.5 1242.5,-415.5 1393.5,-415.5 1393.5,-396.5 1242.5,-396.5"/>
<text text-anchor="middle" x="1318" y="-403.5" font-family="Helvetica,sans-Serif" font-size="10.00">TOFSimulation/DigitizerTask.h</text>
</a>
</g>
</g>
<!-- Node1&#45;&gt;Node2 -->
<g id="edge1" class="edge"><title>Node1&#45;&gt;Node2</title>
<path fill="none" stroke="midnightblue" d="M2004.84,-471.761C1868.37,-458.894 1555.75,-429.417 1403.91,-415.1"/>
<polygon fill="midnightblue" stroke="midnightblue" points="1403.99,-411.592 1393.7,-414.138 1403.33,-418.561 1403.99,-411.592"/>
</g>
<!-- Node15 -->
<g id="node15" class="node"><title>Node15</title>
<polygon fill="none" stroke="#bfbfbf" points="2018,-142.5 2018,-161.5 2118,-161.5 2118,-142.5 2018,-142.5"/>
<text text-anchor="middle" x="2068" y="-149.5" font-family="Helvetica,sans-Serif" font-size="10.00">FairRootManager.h</text>
</g>
<!-- Node1&#45;&gt;Node15 -->
<g id="edge57" class="edge"><title>Node1&#45;&gt;Node15</title>
<path fill="none" stroke="midnightblue" d="M2057.25,-452.547C2045,-427.47 2029,-387.692 2029,-351 2029,-351 2029,-351 2029,-287 2029,-243.963 2047.78,-196.137 2059.27,-170.887"/>
<polygon fill="midnightblue" stroke="midnightblue" points="2062.59,-172.066 2063.68,-161.528 2056.25,-169.085 2062.59,-172.066"/>
</g>
<!-- Node42 -->
<g id="node42" class="node"><title>Node42</title>
<g id="a_node42"><a xlink:href="../../d9/ded/Utils_8h.html" target="_top" xlink:title="DetectorsBase/Utils.h">
<polygon fill="none" stroke="black" points="2057.5,-396.5 2057.5,-415.5 2170.5,-415.5 2170.5,-396.5 2057.5,-396.5"/>
<text text-anchor="middle" x="2114" y="-403.5" font-family="Helvetica,sans-Serif" font-size="10.00">DetectorsBase/Utils.h</text>
</a>
</g>
</g>
<!-- Node1&#45;&gt;Node42 -->
<g id="edge52" class="edge"><title>Node1&#45;&gt;Node42</title>
<path fill="none" stroke="midnightblue" d="M2086.28,-452.768C2091.96,-443.385 2098.28,-432.955 2103.45,-424.425"/>
<polygon fill="midnightblue" stroke="midnightblue" points="2106.51,-426.124 2108.7,-415.757 2100.52,-422.498 2106.51,-426.124"/>
</g>
<!-- Node46 -->
<g id="node46" class="node"><title>Node46</title>
<polygon fill="none" stroke="#bfbfbf" points="2188.5,-396.5 2188.5,-415.5 2259.5,-415.5 2259.5,-396.5 2188.5,-396.5"/>
<text text-anchor="middle" x="2224" y="-403.5" font-family="Helvetica,sans-Serif" font-size="10.00">FairLogger.h</text>
</g>
<!-- Node1&#45;&gt;Node46 -->
<g id="edge56" class="edge"><title>Node1&#45;&gt;Node46</title>
<path fill="none" stroke="midnightblue" d="M2124.94,-452.968C2149.05,-441.783 2176.43,-429.075 2196.29,-419.86"/>
<polygon fill="midnightblue" stroke="midnightblue" points="2197.79,-423.023 2205.38,-415.639 2194.84,-416.673 2197.79,-423.023"/>
</g>
<!-- Node3 -->
<g id="node3" class="node"><title>Node3</title>
<polygon fill="none" stroke="#bfbfbf" points="1133.5,-340.5 1133.5,-359.5 1196.5,-359.5 1196.5,-340.5 1133.5,-340.5"/>
<text text-anchor="middle" x="1165" y="-347.5" font-family="Helvetica,sans-Serif" font-size="10.00">FairTask.h</text>
</g>
<!-- Node2&#45;&gt;Node3 -->
<g id="edge2" class="edge"><title>Node2&#45;&gt;Node3</title>
<path fill="none" stroke="midnightblue" d="M1293.76,-396.444C1268.13,-387.399 1227.51,-373.064 1198.76,-362.916"/>
<polygon fill="midnightblue" stroke="midnightblue" points="1199.72,-359.544 1189.13,-359.516 1197.39,-366.145 1199.72,-359.544"/>
</g>
<!-- Node4 -->
<g id="node4" class="node"><title>Node4</title>
<polygon fill="none" stroke="#bfbfbf" points="1192,-74.5 1192,-93.5 1248,-93.5 1248,-74.5 1192,-74.5"/>
<text text-anchor="middle" x="1220" y="-81.5" font-family="Helvetica,sans-Serif" font-size="10.00">Rtypes.h</text>
</g>
<!-- Node2&#45;&gt;Node4 -->
<g id="edge3" class="edge"><title>Node2&#45;&gt;Node4</title>
<path fill="none" stroke="midnightblue" d="M1393.53,-398.997C1561.64,-384.622 1952,-345.193 1952,-289 1952,-289 1952,-289 1952,-219 1952,-181.055 1960.95,-160.529 1932,-136 1880.4,-92.2757 1399.01,-86.0369 1258.39,-85.1476"/>
<polygon fill="midnightblue" stroke="midnightblue" points="1258.13,-81.6461 1248.11,-85.0884 1258.09,-88.646 1258.13,-81.6461"/>
</g>
<!-- Node5 -->
<g id="node5" class="node"><title>Node5</title>
<g id="a_node5"><a xlink:href="../../df/d9c/TOF_2base_2include_2TOFBase_2Digit_8h.html" target="_top" xlink:title="TOFBase/Digit.h">
<polygon fill="none" stroke="black" points="846,-278.5 846,-297.5 936,-297.5 936,-278.5 846,-278.5"/>
<text text-anchor="middle" x="891" y="-285.5" font-family="Helvetica,sans-Serif" font-size="10.00">TOFBase/Digit.h</text>
</a>
</g>
</g>
<!-- Node2&#45;&gt;Node5 -->
<g id="edge4" class="edge"><title>Node2&#45;&gt;Node5</title>
<path fill="none" stroke="midnightblue" d="M1277.67,-396.483C1238.3,-387.969 1176.77,-374.142 1124,-360 1053.56,-341.121 972.284,-315.457 926.741,-300.717"/>
<polygon fill="midnightblue" stroke="midnightblue" points="927.632,-297.327 917.04,-297.568 925.471,-303.985 927.632,-297.327"/>
</g>
<!-- Node9 -->
<g id="node9" class="node"><title>Node9</title>
<g id="a_node9"><a xlink:href="../../d5/d3c/TOF_2simulation_2include_2TOFSimulation_2Detector_8h.html" target="_top" xlink:title="TOFSimulation/Detector.h">
<polygon fill="none" stroke="black" points="1393.5,-278.5 1393.5,-297.5 1524.5,-297.5 1524.5,-278.5 1393.5,-278.5"/>
<text text-anchor="middle" x="1459" y="-285.5" font-family="Helvetica,sans-Serif" font-size="10.00">TOFSimulation/Detector.h</text>
</a>
</g>
</g>
<!-- Node2&#45;&gt;Node9 -->
<g id="edge9" class="edge"><title>Node2&#45;&gt;Node9</title>
<path fill="none" stroke="midnightblue" d="M1334.45,-396.448C1349.78,-388.115 1372.94,-374.599 1391,-360 1411.64,-343.319 1432.29,-320.71 1445.33,-305.527"/>
<polygon fill="midnightblue" stroke="midnightblue" points="1448.29,-307.446 1452.07,-297.547 1442.94,-302.93 1448.29,-307.446"/>
</g>
<!-- Node34 -->
<g id="node34" class="node"><title>Node34</title>
<g id="a_node34"><a xlink:href="../../d0/d85/TOF_2simulation_2include_2TOFSimulation_2Digitizer_8h.html" target="_top" xlink:title="TOFSimulation/Digitizer.h">
<polygon fill="none" stroke="black" points="1253.5,-340.5 1253.5,-359.5 1382.5,-359.5 1382.5,-340.5 1253.5,-340.5"/>
<text text-anchor="middle" x="1318" y="-347.5" font-family="Helvetica,sans-Serif" font-size="10.00">TOFSimulation/Digitizer.h</text>
</a>
</g>
</g>
<!-- Node2&#45;&gt;Node34 -->
<g id="edge39" class="edge"><title>Node2&#45;&gt;Node34</title>
<path fill="none" stroke="midnightblue" d="M1318,-396.083C1318,-389.006 1318,-378.861 1318,-369.986"/>
<polygon fill="midnightblue" stroke="midnightblue" points="1321.5,-369.751 1318,-359.751 1314.5,-369.751 1321.5,-369.751"/>
</g>
<!-- Node35 -->
<g id="node35" class="node"><title>Node35</title>
<g id="a_node35"><a xlink:href="../../db/d14/MCTruthContainer_8h.html" target="_top" xlink:title="Definition of a container to keep Monte Carlo truth external to simulation objects. ">
<polygon fill="none" stroke="black" points="1070,-273 1070,-303 1184,-303 1184,-273 1070,-273"/>
<text text-anchor="start" x="1078" y="-291" font-family="Helvetica,sans-Serif" font-size="10.00">SimulationDataFormat</text>
<text text-anchor="middle" x="1127" y="-280" font-family="Helvetica,sans-Serif" font-size="10.00">/MCTruthContainer.h</text>
</a>
</g>
</g>
<!-- Node2&#45;&gt;Node35 -->
<g id="edge51" class="edge"><title>Node2&#45;&gt;Node35</title>
<path fill="none" stroke="midnightblue" d="M1303.96,-396.47C1273.62,-378.045 1201.3,-334.123 1159.1,-308.495"/>
<polygon fill="midnightblue" stroke="midnightblue" points="1160.69,-305.366 1150.33,-303.167 1157.06,-311.349 1160.69,-305.366"/>
</g>
<!-- Node5&#45;&gt;Node4 -->
<g id="edge6" class="edge"><title>Node5&#45;&gt;Node4</title>
<path fill="none" stroke="midnightblue" d="M895.789,-278.42C904.8,-262.688 925.411,-228.586 948,-204 980.264,-168.883 988.258,-157.149 1031,-136 1093.22,-105.212 1116.86,-121.103 1183,-100 1185.63,-99.1599 1188.34,-98.2175 1191.04,-97.2252"/>
<polygon fill="midnightblue" stroke="midnightblue" points="1192.56,-100.389 1200.62,-93.5057 1190.03,-93.8644 1192.56,-100.389"/>
</g>
<!-- Node6 -->
<g id="node6" class="node"><title>Node6</title>
<polygon fill="none" stroke="#bfbfbf" points="632,-210.5 632,-229.5 724,-229.5 724,-210.5 632,-210.5"/>
<text text-anchor="middle" x="678" y="-217.5" font-family="Helvetica,sans-Serif" font-size="10.00">FairTimeStamp.h</text>
</g>
<!-- Node5&#45;&gt;Node6 -->
<g id="edge5" class="edge"><title>Node5&#45;&gt;Node6</title>
<path fill="none" stroke="midnightblue" d="M863.154,-278.372C825.258,-266.629 757.342,-245.585 715.141,-232.508"/>
<polygon fill="midnightblue" stroke="midnightblue" points="716.103,-229.143 705.515,-229.526 714.031,-235.829 716.103,-229.143"/>
</g>
<!-- Node7 -->
<g id="node7" class="node"><title>Node7</title>
<polygon fill="none" stroke="#bfbfbf" points="742.5,-210.5 742.5,-229.5 787.5,-229.5 787.5,-210.5 742.5,-210.5"/>
<text text-anchor="middle" x="765" y="-217.5" font-family="Helvetica,sans-Serif" font-size="10.00">iosfwd</text>
</g>
<!-- Node5&#45;&gt;Node7 -->
<g id="edge7" class="edge"><title>Node5&#45;&gt;Node7</title>
<path fill="none" stroke="midnightblue" d="M874.528,-278.372C853.115,-267.156 815.501,-247.453 790.417,-234.314"/>
<polygon fill="midnightblue" stroke="midnightblue" points="791.959,-231.17 781.476,-229.63 788.711,-237.371 791.959,-231.17"/>
</g>
<!-- Node8 -->
<g id="node8" class="node"><title>Node8</title>
<polygon fill="none" stroke="#bfbfbf" points="805.5,-205 805.5,-235 900.5,-235 900.5,-205 805.5,-205"/>
<text text-anchor="start" x="813.5" y="-223" font-family="Helvetica,sans-Serif" font-size="10.00">boost/serialization</text>
<text text-anchor="middle" x="853" y="-212" font-family="Helvetica,sans-Serif" font-size="10.00">/base_object.hpp</text>
</g>
<!-- Node5&#45;&gt;Node8 -->
<g id="edge8" class="edge"><title>Node5&#45;&gt;Node8</title>
<path fill="none" stroke="midnightblue" d="M886.032,-278.372C881.048,-269.714 873.152,-256.001 866.33,-244.152"/>
<polygon fill="midnightblue" stroke="midnightblue" points="869.188,-242.101 861.165,-235.181 863.122,-245.594 869.188,-242.101"/>
</g>
<!-- Node10 -->
<g id="node10" class="node"><title>Node10</title>
<g id="a_node10"><a xlink:href="../../d1/d3a/Base_2include_2DetectorsBase_2Detector_8h.html" target="_top" xlink:title="DetectorsBase/Detector.h">
<polygon fill="none" stroke="black" points="1521.5,-210.5 1521.5,-229.5 1652.5,-229.5 1652.5,-210.5 1521.5,-210.5"/>
<text text-anchor="middle" x="1587" y="-217.5" font-family="Helvetica,sans-Serif" font-size="10.00">DetectorsBase/Detector.h</text>
</a>
</g>
</g>
<!-- Node9&#45;&gt;Node10 -->
<g id="edge10" class="edge"><title>Node9&#45;&gt;Node10</title>
<path fill="none" stroke="midnightblue" d="M1475.73,-278.372C1497.49,-267.156 1535.7,-247.453 1561.18,-234.314"/>
<polygon fill="midnightblue" stroke="midnightblue" points="1562.98,-237.324 1570.26,-229.63 1559.77,-231.103 1562.98,-237.324"/>
</g>
<!-- Node21 -->
<g id="node21" class="node"><title>Node21</title>
<g id="a_node21"><a xlink:href="../../d4/d54/Geo_8h.html" target="_top" xlink:title="TOFBase/Geo.h">
<polygon fill="none" stroke="black" points="1415,-210.5 1415,-229.5 1503,-229.5 1503,-210.5 1415,-210.5"/>
<text text-anchor="middle" x="1459" y="-217.5" font-family="Helvetica,sans-Serif" font-size="10.00">TOFBase/Geo.h</text>
</a>
</g>
</g>
<!-- Node9&#45;&gt;Node21 -->
<g id="edge24" class="edge"><title>Node9&#45;&gt;Node21</title>
<path fill="none" stroke="midnightblue" d="M1459,-278.372C1459,-268.643 1459,-252.528 1459,-239.85"/>
<polygon fill="midnightblue" stroke="midnightblue" points="1462.5,-239.841 1459,-229.841 1455.5,-239.841 1462.5,-239.841"/>
</g>
<!-- Node22 -->
<g id="node22" class="node"><title>Node22</title>
<g id="a_node22"><a xlink:href="../../d4/d25/BaseHits_8h.html" target="_top" xlink:title="SimulationDataFormat\l/BaseHits.h">
<polygon fill="none" stroke="black" points="1245,-205 1245,-235 1359,-235 1359,-205 1245,-205"/>
<text text-anchor="start" x="1253" y="-223" font-family="Helvetica,sans-Serif" font-size="10.00">SimulationDataFormat</text>
<text text-anchor="middle" x="1302" y="-212" font-family="Helvetica,sans-Serif" font-size="10.00">/BaseHits.h</text>
</a>
</g>
</g>
<!-- Node9&#45;&gt;Node22 -->
<g id="edge26" class="edge"><title>Node9&#45;&gt;Node22</title>
<path fill="none" stroke="midnightblue" d="M1438.47,-278.372C1414.85,-268.44 1375.39,-251.854 1344.97,-239.063"/>
<polygon fill="midnightblue" stroke="midnightblue" points="1346.01,-235.705 1335.44,-235.056 1343.3,-242.158 1346.01,-235.705"/>
</g>
<!-- Node10&#45;&gt;Node4 -->
<g id="edge19" class="edge"><title>Node10&#45;&gt;Node4</title>
<path fill="none" stroke="midnightblue" d="M1546.07,-210.428C1534.73,-208.189 1522.41,-205.88 1511,-204 1450.84,-194.092 1284.08,-209.053 1239,-168 1221.27,-151.851 1218.38,-122.833 1218.64,-103.745"/>
<polygon fill="midnightblue" stroke="midnightblue" points="1222.15,-103.731 1219.09,-93.5859 1215.15,-103.422 1222.15,-103.731"/>
</g>
<!-- Node11 -->
<g id="node11" class="node"><title>Node11</title>
<polygon fill="none" stroke="#bfbfbf" points="1898.5,-74.5 1898.5,-93.5 1933.5,-93.5 1933.5,-74.5 1898.5,-74.5"/>
<text text-anchor="middle" x="1916" y="-81.5" font-family="Helvetica,sans-Serif" font-size="10.00">map</text>
</g>
<!-- Node10&#45;&gt;Node11 -->
<g id="edge11" class="edge"><title>Node10&#45;&gt;Node11</title>
<path fill="none" stroke="midnightblue" d="M1652.63,-219.062C1742.46,-217.589 1896.64,-208.967 1932,-168 1947.69,-149.825 1936.79,-120.983 1926.88,-102.53"/>
<polygon fill="midnightblue" stroke="midnightblue" points="1929.82,-100.624 1921.79,-93.7103 1923.76,-104.121 1929.82,-100.624"/>
</g>
<!-- Node12 -->
<g id="node12" class="node"><title>Node12</title>
<polygon fill="none" stroke="#bfbfbf" points="1696,-142.5 1696,-161.5 1740,-161.5 1740,-142.5 1696,-142.5"/>
<text text-anchor="middle" x="1718" y="-149.5" font-family="Helvetica,sans-Serif" font-size="10.00">vector</text>
</g>
<!-- Node10&#45;&gt;Node12 -->
<g id="edge12" class="edge"><title>Node10&#45;&gt;Node12</title>
<path fill="none" stroke="midnightblue" d="M1604.13,-210.372C1626.49,-199.106 1665.84,-179.279 1691.92,-166.14"/>
<polygon fill="midnightblue" stroke="midnightblue" points="1693.51,-169.256 1700.87,-161.63 1690.36,-163.004 1693.51,-169.256"/>
</g>
<!-- Node13 -->
<g id="node13" class="node"><title>Node13</title>
<polygon fill="none" stroke="#bfbfbf" points="1248,-142.5 1248,-161.5 1300,-161.5 1300,-142.5 1248,-142.5"/>
<text text-anchor="middle" x="1274" y="-149.5" font-family="Helvetica,sans-Serif" font-size="10.00">memory</text>
</g>
<!-- Node10&#45;&gt;Node13 -->
<g id="edge13" class="edge"><title>Node10&#45;&gt;Node13</title>
<path fill="none" stroke="midnightblue" d="M1544.42,-210.452C1533.53,-208.306 1521.84,-206.035 1511,-204 1421.37,-187.17 1396.37,-194.132 1309,-168 1306.51,-167.254 1303.95,-166.383 1301.41,-165.442"/>
<polygon fill="midnightblue" stroke="midnightblue" points="1302.46,-162.089 1291.87,-161.591 1299.84,-168.58 1302.46,-162.089"/>
</g>
<!-- Node14 -->
<g id="node14" class="node"><title>Node14</title>
<polygon fill="none" stroke="#bfbfbf" points="1318.5,-142.5 1318.5,-161.5 1397.5,-161.5 1397.5,-142.5 1318.5,-142.5"/>
<text text-anchor="middle" x="1358" y="-149.5" font-family="Helvetica,sans-Serif" font-size="10.00">FairDetector.h</text>
</g>
<!-- Node10&#45;&gt;Node14 -->
<g id="edge14" class="edge"><title>Node10&#45;&gt;Node14</title>
<path fill="none" stroke="midnightblue" d="M1555.53,-210.423C1519.36,-200.499 1458.26,-183.526 1406,-168 1402.25,-166.885 1398.34,-165.7 1394.44,-164.505"/>
<polygon fill="midnightblue" stroke="midnightblue" points="1395.46,-161.157 1384.87,-161.543 1393.39,-167.844 1395.46,-161.157"/>
</g>
<!-- Node10&#45;&gt;Node15 -->
<g id="edge15" class="edge"><title>Node10&#45;&gt;Node15</title>
<path fill="none" stroke="midnightblue" d="M1652.69,-213.19C1735.13,-205.389 1880.67,-189.928 2004,-168 2010.72,-166.805 2017.79,-165.35 2024.68,-163.822"/>
<polygon fill="midnightblue" stroke="midnightblue" points="2025.63,-167.196 2034.59,-161.552 2024.07,-160.373 2025.63,-167.196"/>
</g>
<!-- Node16 -->
<g id="node16" class="node"><title>Node16</title>
<g id="a_node16"><a xlink:href="../../d0/d9a/MaterialManager_8h.html" target="_top" xlink:title="DetectorsBase/MaterialManager.h">
<polygon fill="none" stroke="black" points="1758.5,-142.5 1758.5,-161.5 1923.5,-161.5 1923.5,-142.5 1758.5,-142.5"/>
<text text-anchor="middle" x="1841" y="-149.5" font-family="Helvetica,sans-Serif" font-size="10.00">DetectorsBase/MaterialManager.h</text>
</a>
</g>
</g>
<!-- Node10&#45;&gt;Node16 -->
<g id="edge16" class="edge"><title>Node10&#45;&gt;Node16</title>
<path fill="none" stroke="midnightblue" d="M1619.95,-210.439C1665.53,-198.594 1747.9,-177.192 1798.2,-164.122"/>
<polygon fill="midnightblue" stroke="midnightblue" points="1799.31,-167.448 1808.11,-161.546 1797.55,-160.673 1799.31,-167.448"/>
</g>
<!-- Node17 -->
<g id="node17" class="node"><title>Node17</title>
<polygon fill="none" stroke="#bfbfbf" points="1415.5,-142.5 1415.5,-161.5 1468.5,-161.5 1468.5,-142.5 1415.5,-142.5"/>
<text text-anchor="middle" x="1442" y="-149.5" font-family="Helvetica,sans-Serif" font-size="10.00">cxxabi.h</text>
</g>
<!-- Node10&#45;&gt;Node17 -->
<g id="edge20" class="edge"><title>Node10&#45;&gt;Node17</title>
<path fill="none" stroke="midnightblue" d="M1568.04,-210.372C1543.08,-199.007 1498.97,-178.931 1470.11,-165.796"/>
<polygon fill="midnightblue" stroke="midnightblue" points="1471.51,-162.588 1460.96,-161.63 1468.61,-168.959 1471.51,-162.588"/>
</g>
<!-- Node18 -->
<g id="node18" class="node"><title>Node18</title>
<polygon fill="none" stroke="#bfbfbf" points="1486.5,-142.5 1486.5,-161.5 1537.5,-161.5 1537.5,-142.5 1486.5,-142.5"/>
<text text-anchor="middle" x="1512" y="-149.5" font-family="Helvetica,sans-Serif" font-size="10.00">typeinfo</text>
</g>
<!-- Node10&#45;&gt;Node18 -->
<g id="edge21" class="edge"><title>Node10&#45;&gt;Node18</title>
<path fill="none" stroke="midnightblue" d="M1577.2,-210.372C1565.13,-199.758 1544.44,-181.545 1529.6,-168.485"/>
<polygon fill="midnightblue" stroke="midnightblue" points="1531.87,-165.82 1522.05,-161.841 1527.24,-171.075 1531.87,-165.82"/>
</g>
<!-- Node19 -->
<g id="node19" class="node"><title>Node19</title>
<polygon fill="none" stroke="#bfbfbf" points="1556,-142.5 1556,-161.5 1618,-161.5 1618,-142.5 1556,-142.5"/>
<text text-anchor="middle" x="1587" y="-149.5" font-family="Helvetica,sans-Serif" font-size="10.00">type_traits</text>
</g>
<!-- Node10&#45;&gt;Node19 -->
<g id="edge22" class="edge"><title>Node10&#45;&gt;Node19</title>
<path fill="none" stroke="midnightblue" d="M1587,-210.372C1587,-200.643 1587,-184.528 1587,-171.85"/>
<polygon fill="midnightblue" stroke="midnightblue" points="1590.5,-171.841 1587,-161.841 1583.5,-171.841 1590.5,-171.841"/>
</g>
<!-- Node20 -->
<g id="node20" class="node"><title>Node20</title>
<polygon fill="none" stroke="#bfbfbf" points="1636.5,-142.5 1636.5,-161.5 1677.5,-161.5 1677.5,-142.5 1636.5,-142.5"/>
<text text-anchor="middle" x="1657" y="-149.5" font-family="Helvetica,sans-Serif" font-size="10.00">string</text>
</g>
<!-- Node10&#45;&gt;Node20 -->
<g id="edge23" class="edge"><title>Node10&#45;&gt;Node20</title>
<path fill="none" stroke="midnightblue" d="M1596.15,-210.372C1607.3,-199.856 1626.37,-181.882 1640.19,-168.85"/>
<polygon fill="midnightblue" stroke="midnightblue" points="1642.75,-171.248 1647.62,-161.841 1637.95,-166.155 1642.75,-171.248"/>
</g>
<!-- Node16&#45;&gt;Node4 -->
<g id="edge17" class="edge"><title>Node16&#45;&gt;Node4</title>
<path fill="none" stroke="midnightblue" d="M1791.85,-142.474C1777.72,-140.186 1762.27,-137.839 1748,-136 1565.18,-112.452 1345.48,-94.5504 1258.32,-87.8605"/>
<polygon fill="midnightblue" stroke="midnightblue" points="1258.36,-84.3531 1248.12,-87.0823 1257.82,-91.3328 1258.36,-84.3531"/>
</g>
<!-- Node16&#45;&gt;Node11 -->
<g id="edge18" class="edge"><title>Node16&#45;&gt;Node11</title>
<path fill="none" stroke="midnightblue" d="M1850.8,-142.372C1862.87,-131.758 1883.56,-113.545 1898.4,-100.485"/>
<polygon fill="midnightblue" stroke="midnightblue" points="1900.76,-103.075 1905.95,-93.8411 1896.13,-97.8199 1900.76,-103.075"/>
</g>
<!-- Node21&#45;&gt;Node4 -->
<g id="edge25" class="edge"><title>Node21&#45;&gt;Node4</title>
<path fill="none" stroke="midnightblue" d="M1417.7,-210.474C1407.35,-208.349 1396.27,-206.082 1386,-204 1306.04,-187.79 1257.72,-231.093 1206,-168 1190.99,-149.692 1200.58,-121.318 1209.65,-102.949"/>
<polygon fill="midnightblue" stroke="midnightblue" points="1212.86,-104.371 1214.48,-93.9004 1206.68,-101.078 1212.86,-104.371"/>
</g>
<!-- Node23 -->
<g id="node23" class="node"><title>Node23</title>
<g id="a_node23"><a xlink:href="../../dd/d76/Cartesian3D_8h.html" target="_top" xlink:title="MathUtils/Cartesian3D.h">
<polygon fill="none" stroke="black" points="700.5,-142.5 700.5,-161.5 825.5,-161.5 825.5,-142.5 700.5,-142.5"/>
<text text-anchor="middle" x="763" y="-149.5" font-family="Helvetica,sans-Serif" font-size="10.00">MathUtils/Cartesian3D.h</text>
</a>
</g>
</g>
<!-- Node22&#45;&gt;Node23 -->
<g id="edge27" class="edge"><title>Node22&#45;&gt;Node23</title>
<path fill="none" stroke="midnightblue" d="M1244.7,-205.726C1241.43,-205.107 1238.18,-204.525 1235,-204 1094.51,-180.759 928.662,-165.659 835.677,-158.297"/>
<polygon fill="midnightblue" stroke="midnightblue" points="835.775,-154.794 825.532,-157.502 835.228,-161.773 835.775,-154.794"/>
</g>
<!-- Node23&#45;&gt;Node4 -->
<g id="edge31" class="edge"><title>Node23&#45;&gt;Node4</title>
<path fill="none" stroke="midnightblue" d="M825.619,-144.32C934.229,-132.596 1149.22,-108.733 1183,-100 1185.99,-99.2268 1189.06,-98.2683 1192.09,-97.2125"/>
<polygon fill="midnightblue" stroke="midnightblue" points="1193.41,-100.456 1201.5,-93.6154 1190.91,-93.917 1193.41,-100.456"/>
</g>
<!-- Node24 -->
<g id="node24" class="node"><title>Node24</title>
<polygon fill="none" stroke="#bfbfbf" points="-0.5,-74.5 -0.5,-93.5 148.5,-93.5 148.5,-74.5 -0.5,-74.5"/>
<text text-anchor="middle" x="74" y="-81.5" font-family="Helvetica,sans-Serif" font-size="10.00">Math/GenVector/Rotation3D.h</text>
</g>
<!-- Node23&#45;&gt;Node24 -->
<g id="edge28" class="edge"><title>Node23&#45;&gt;Node24</title>
<path fill="none" stroke="midnightblue" d="M700.086,-147.622C589.908,-141.276 355.006,-125.837 158,-100 148.085,-98.6997 137.559,-97.0423 127.433,-95.3065"/>
<polygon fill="midnightblue" stroke="midnightblue" points="127.934,-91.8408 117.479,-93.5548 126.721,-98.7349 127.934,-91.8408"/>
</g>
<!-- Node25 -->
<g id="node25" class="node"><title>Node25</title>
<polygon fill="none" stroke="#bfbfbf" points="167,-74.5 167,-93.5 323,-93.5 323,-74.5 167,-74.5"/>
<text text-anchor="middle" x="245" y="-81.5" font-family="Helvetica,sans-Serif" font-size="10.00">Math/GenVector/Transform3D.h</text>
</g>
<!-- Node23&#45;&gt;Node25 -->
<g id="edge29" class="edge"><title>Node23&#45;&gt;Node25</title>
<path fill="none" stroke="midnightblue" d="M700.41,-144.645C616.421,-135.876 462.676,-118.983 332,-100 322.217,-98.5788 311.841,-96.9216 301.791,-95.2374"/>
<polygon fill="midnightblue" stroke="midnightblue" points="302.33,-91.7789 291.885,-93.5521 301.156,-98.6798 302.33,-91.7789"/>
</g>
<!-- Node26 -->
<g id="node26" class="node"><title>Node26</title>
<polygon fill="none" stroke="#bfbfbf" points="341,-74.5 341,-93.5 501,-93.5 501,-74.5 341,-74.5"/>
<text text-anchor="middle" x="421" y="-81.5" font-family="Helvetica,sans-Serif" font-size="10.00">Math/GenVector/Translation3D.h</text>
</g>
<!-- Node23&#45;&gt;Node26 -->
<g id="edge30" class="edge"><title>Node23&#45;&gt;Node26</title>
<path fill="none" stroke="midnightblue" d="M718.64,-142.439C656.236,-130.396 542.641,-108.475 475.277,-95.4745"/>
<polygon fill="midnightblue" stroke="midnightblue" points="475.763,-92.0039 465.281,-93.5455 474.437,-98.8771 475.763,-92.0039"/>
</g>
<!-- Node27 -->
<g id="node27" class="node"><title>Node27</title>
<polygon fill="none" stroke="#bfbfbf" points="519,-74.5 519,-93.5 595,-93.5 595,-74.5 519,-74.5"/>
<text text-anchor="middle" x="557" y="-81.5" font-family="Helvetica,sans-Serif" font-size="10.00">TGeoMatrix.h</text>
</g>
<!-- Node23&#45;&gt;Node27 -->
<g id="edge32" class="edge"><title>Node23&#45;&gt;Node27</title>
<path fill="none" stroke="midnightblue" d="M736.069,-142.372C699.496,-130.654 634.012,-109.674 593.179,-96.5912"/>
<polygon fill="midnightblue" stroke="midnightblue" points="594.202,-93.2439 583.611,-93.5259 592.066,-99.9102 594.202,-93.2439"/>
</g>
<!-- Node28 -->
<g id="node28" class="node"><title>Node28</title>
<polygon fill="none" stroke="#bfbfbf" points="613.5,-69 613.5,-99 764.5,-99 764.5,-69 613.5,-69"/>
<text text-anchor="start" x="621.5" y="-87" font-family="Helvetica,sans-Serif" font-size="10.00">Math/GenVector/Displacement</text>
<text text-anchor="middle" x="689" y="-76" font-family="Helvetica,sans-Serif" font-size="10.00">Vector3D.h</text>
</g>
<!-- Node23&#45;&gt;Node28 -->
<g id="edge33" class="edge"><title>Node23&#45;&gt;Node28</title>
<path fill="none" stroke="midnightblue" d="M753.326,-142.372C743.042,-133.2 726.396,-118.354 712.614,-106.062"/>
<polygon fill="midnightblue" stroke="midnightblue" points="714.693,-103.226 704.9,-99.1815 710.034,-108.45 714.693,-103.226"/>
</g>
<!-- Node29 -->
<g id="node29" class="node"><title>Node29</title>
<polygon fill="none" stroke="#bfbfbf" points="783,-74.5 783,-93.5 959,-93.5 959,-74.5 783,-74.5"/>
<text text-anchor="middle" x="871" y="-81.5" font-family="Helvetica,sans-Serif" font-size="10.00">Math/GenVector/PositionVector3D.h</text>
</g>
<!-- Node23&#45;&gt;Node29 -->
<g id="edge34" class="edge"><title>Node23&#45;&gt;Node29</title>
<path fill="none" stroke="midnightblue" d="M777.119,-142.372C795.149,-131.353 826.581,-112.145 848.068,-99.0142"/>
<polygon fill="midnightblue" stroke="midnightblue" points="850.17,-101.832 856.877,-93.6305 846.519,-95.8585 850.17,-101.832"/>
</g>
<!-- Node30 -->
<g id="node30" class="node"><title>Node30</title>
<g id="a_node30"><a xlink:href="../../d2/dd0/Cartesian2D_8h.html" target="_top" xlink:title="MathUtils/Cartesian2D.h">
<polygon fill="none" stroke="black" points="976.5,-74.5 976.5,-93.5 1101.5,-93.5 1101.5,-74.5 976.5,-74.5"/>
<text text-anchor="middle" x="1039" y="-81.5" font-family="Helvetica,sans-Serif" font-size="10.00">MathUtils/Cartesian2D.h</text>
</a>
</g>
</g>
<!-- Node23&#45;&gt;Node30 -->
<g id="edge35" class="edge"><title>Node23&#45;&gt;Node30</title>
<path fill="none" stroke="midnightblue" d="M798.799,-142.439C848.643,-130.52 938.956,-108.924 993.511,-95.8777"/>
<polygon fill="midnightblue" stroke="midnightblue" points="994.352,-99.2754 1003.26,-93.5455 992.724,-92.4673 994.352,-99.2754"/>
</g>
<!-- Node33 -->
<g id="node33" class="node"><title>Node33</title>
<polygon fill="none" stroke="#bfbfbf" points="1120,-74.5 1120,-93.5 1174,-93.5 1174,-74.5 1120,-74.5"/>
<text text-anchor="middle" x="1147" y="-81.5" font-family="Helvetica,sans-Serif" font-size="10.00">iostream</text>
</g>
<!-- Node23&#45;&gt;Node33 -->
<g id="edge38" class="edge"><title>Node23&#45;&gt;Node33</title>
<path fill="none" stroke="midnightblue" d="M825.805,-143.599C910.787,-133.269 1057.78,-114.202 1110,-100 1112.98,-99.1894 1116.04,-98.2065 1119.07,-97.1358"/>
<polygon fill="midnightblue" stroke="midnightblue" points="1120.4,-100.376 1128.48,-93.5202 1117.89,-93.8419 1120.4,-100.376"/>
</g>
<!-- Node31 -->
<g id="node31" class="node"><title>Node31</title>
<polygon fill="none" stroke="#bfbfbf" points="872.5,-1 872.5,-31 1023.5,-31 1023.5,-1 872.5,-1"/>
<text text-anchor="start" x="880.5" y="-19" font-family="Helvetica,sans-Serif" font-size="10.00">Math/GenVector/Displacement</text>
<text text-anchor="middle" x="948" y="-8" font-family="Helvetica,sans-Serif" font-size="10.00">Vector2D.h</text>
</g>
<!-- Node30&#45;&gt;Node31 -->
<g id="edge36" class="edge"><title>Node30&#45;&gt;Node31</title>
<path fill="none" stroke="midnightblue" d="M1027.1,-74.3717C1014.22,-65.0286 993.22,-49.7966 976.093,-37.375"/>
<polygon fill="midnightblue" stroke="midnightblue" points="977.703,-34.2194 967.553,-31.1815 973.593,-39.8859 977.703,-34.2194"/>
</g>
<!-- Node32 -->
<g id="node32" class="node"><title>Node32</title>
<polygon fill="none" stroke="#bfbfbf" points="1042,-6.5 1042,-25.5 1218,-25.5 1218,-6.5 1042,-6.5"/>
<text text-anchor="middle" x="1130" y="-13.5" font-family="Helvetica,sans-Serif" font-size="10.00">Math/GenVector/PositionVector2D.h</text>
</g>
<!-- Node30&#45;&gt;Node32 -->
<g id="edge37" class="edge"><title>Node30&#45;&gt;Node32</title>
<path fill="none" stroke="midnightblue" d="M1050.9,-74.3717C1065.88,-63.5015 1091.86,-44.6602 1109.94,-31.5474"/>
<polygon fill="midnightblue" stroke="midnightblue" points="1112.06,-34.3349 1118.1,-25.6305 1107.95,-28.6684 1112.06,-34.3349"/>
</g>
<!-- Node34&#45;&gt;Node5 -->
<g id="edge41" class="edge"><title>Node34&#45;&gt;Node5</title>
<path fill="none" stroke="midnightblue" d="M1257.27,-340.467C1174.31,-328.81 1026.71,-308.07 946.546,-296.805"/>
<polygon fill="midnightblue" stroke="midnightblue" points="946.557,-293.272 936.167,-295.347 945.583,-300.204 946.557,-293.272"/>
</g>
<!-- Node34&#45;&gt;Node9 -->
<g id="edge42" class="edge"><title>Node34&#45;&gt;Node9</title>
<path fill="none" stroke="midnightblue" d="M1338.2,-340.403C1362.07,-330.245 1402,-313.255 1429.37,-301.607"/>
<polygon fill="midnightblue" stroke="midnightblue" points="1431,-304.717 1438.84,-297.581 1428.26,-298.276 1431,-304.717"/>
</g>
<!-- Node34&#45;&gt;Node21 -->
<g id="edge40" class="edge"><title>Node34&#45;&gt;Node21</title>
<path fill="none" stroke="midnightblue" d="M1324.27,-340.258C1335.3,-325.249 1359.33,-294.066 1384,-272 1399.84,-257.831 1419.83,-244.425 1435.19,-234.916"/>
<polygon fill="midnightblue" stroke="midnightblue" points="1437.34,-237.706 1444.07,-229.528 1433.71,-231.721 1437.34,-237.706"/>
</g>
<!-- Node34&#45;&gt;Node35 -->
<g id="edge43" class="edge"><title>Node34&#45;&gt;Node35</title>
<path fill="none" stroke="midnightblue" d="M1290.63,-340.403C1262.25,-331.488 1217.12,-317.311 1181.44,-306.101"/>
<polygon fill="midnightblue" stroke="midnightblue" points="1182.24,-302.683 1171.65,-303.025 1180.14,-309.361 1182.24,-302.683"/>
</g>
<!-- Node40 -->
<g id="node40" class="node"><title>Node40</title>
<g id="a_node40"><a xlink:href="../../df/d71/MCLabel_8h.html" target="_top" xlink:title="TOFSimulation/MCLabel.h">
<polygon fill="none" stroke="black" points="1205,-278.5 1205,-297.5 1337,-297.5 1337,-278.5 1205,-278.5"/>
<text text-anchor="middle" x="1271" y="-285.5" font-family="Helvetica,sans-Serif" font-size="10.00">TOFSimulation/MCLabel.h</text>
</a>
</g>
</g>
<!-- Node34&#45;&gt;Node40 -->
<g id="edge48" class="edge"><title>Node34&#45;&gt;Node40</title>
<path fill="none" stroke="midnightblue" d="M1311.27,-340.403C1304.22,-331.403 1292.97,-317.041 1284.15,-305.782"/>
<polygon fill="midnightblue" stroke="midnightblue" points="1286.64,-303.295 1277.72,-297.581 1281.13,-307.611 1286.64,-303.295"/>
</g>
<!-- Node36 -->
<g id="node36" class="node"><title>Node36</title>
<polygon fill="none" stroke="#bfbfbf" points="1165,-210.5 1165,-229.5 1227,-229.5 1227,-210.5 1165,-210.5"/>
<text text-anchor="middle" x="1196" y="-217.5" font-family="Helvetica,sans-Serif" font-size="10.00">TNamed.h</text>
</g>
<!-- Node35&#45;&gt;Node36 -->
<g id="edge44" class="edge"><title>Node35&#45;&gt;Node36</title>
<path fill="none" stroke="midnightblue" d="M1141.97,-272.679C1152.94,-262.184 1167.84,-247.932 1179.22,-237.052"/>
<polygon fill="midnightblue" stroke="midnightblue" points="1181.96,-239.27 1186.77,-229.828 1177.12,-234.211 1181.96,-239.27"/>
</g>
<!-- Node37 -->
<g id="node37" class="node"><title>Node37</title>
<polygon fill="none" stroke="#bfbfbf" points="957.5,-210.5 957.5,-229.5 1006.5,-229.5 1006.5,-210.5 957.5,-210.5"/>
<text text-anchor="middle" x="982" y="-217.5" font-family="Helvetica,sans-Serif" font-size="10.00">cassert</text>
</g>
<!-- Node35&#45;&gt;Node37 -->
<g id="edge45" class="edge"><title>Node35&#45;&gt;Node37</title>
<path fill="none" stroke="midnightblue" d="M1095.89,-272.841C1070.48,-261.272 1034.85,-245.055 1010.24,-233.855"/>
<polygon fill="midnightblue" stroke="midnightblue" points="1011.63,-230.639 1001.07,-229.682 1008.73,-237.01 1011.63,-230.639"/>
</g>
<!-- Node38 -->
<g id="node38" class="node"><title>Node38</title>
<polygon fill="none" stroke="#bfbfbf" points="1024.5,-210.5 1024.5,-229.5 1083.5,-229.5 1083.5,-210.5 1024.5,-210.5"/>
<text text-anchor="middle" x="1054" y="-217.5" font-family="Helvetica,sans-Serif" font-size="10.00">stdexcept</text>
</g>
<!-- Node35&#45;&gt;Node38 -->
<g id="edge46" class="edge"><title>Node35&#45;&gt;Node38</title>
<path fill="none" stroke="midnightblue" d="M1111.16,-272.679C1099.44,-262.082 1083.48,-247.655 1071.41,-236.736"/>
<polygon fill="midnightblue" stroke="midnightblue" points="1073.53,-233.939 1063.76,-229.828 1068.84,-239.131 1073.53,-233.939"/>
</g>
<!-- Node39 -->
<g id="node39" class="node"><title>Node39</title>
<polygon fill="none" stroke="#bfbfbf" points="1101.5,-210.5 1101.5,-229.5 1146.5,-229.5 1146.5,-210.5 1101.5,-210.5"/>
<text text-anchor="middle" x="1124" y="-217.5" font-family="Helvetica,sans-Serif" font-size="10.00">gsl/gsl</text>
</g>
<!-- Node35&#45;&gt;Node39 -->
<g id="edge47" class="edge"><title>Node35&#45;&gt;Node39</title>
<path fill="none" stroke="midnightblue" d="M1126.35,-272.679C1125.91,-263.101 1125.34,-250.394 1124.86,-239.977"/>
<polygon fill="midnightblue" stroke="midnightblue" points="1128.35,-239.659 1124.4,-229.828 1121.36,-239.977 1128.35,-239.659"/>
</g>
<!-- Node41 -->
<g id="node41" class="node"><title>Node41</title>
<g id="a_node41"><a xlink:href="../../d7/dcd/MCCompLabel_8h.html" target="_top" xlink:title="SimulationDataFormat\l/MCCompLabel.h">
<polygon fill="none" stroke="black" points="1040,-137 1040,-167 1154,-167 1154,-137 1040,-137"/>
<text text-anchor="start" x="1048" y="-155" font-family="Helvetica,sans-Serif" font-size="10.00">SimulationDataFormat</text>
<text text-anchor="middle" x="1097" y="-144" font-family="Helvetica,sans-Serif" font-size="10.00">/MCCompLabel.h</text>
</a>
</g>
</g>
<!-- Node40&#45;&gt;Node41 -->
<g id="edge49" class="edge"><title>Node40&#45;&gt;Node41</title>
<path fill="none" stroke="midnightblue" d="M1306.14,-278.487C1328.08,-271.158 1354.62,-258.149 1368,-236 1375.35,-223.826 1377.12,-214.911 1368,-204 1339.03,-169.355 1212.32,-176.668 1168,-168 1166.75,-167.755 1165.48,-167.506 1164.21,-167.254"/>
<polygon fill="midnightblue" stroke="midnightblue" points="1164.81,-163.805 1154.32,-165.265 1163.43,-170.668 1164.81,-163.805"/>
</g>
<!-- Node41&#45;&gt;Node4 -->
<g id="edge50" class="edge"><title>Node41&#45;&gt;Node4</title>
<path fill="none" stroke="midnightblue" d="M1123.39,-136.841C1144.57,-125.476 1174.1,-109.628 1194.93,-98.454"/>
<polygon fill="midnightblue" stroke="midnightblue" points="1196.66,-101.494 1203.82,-93.6819 1193.35,-95.326 1196.66,-101.494"/>
</g>
<!-- Node43 -->
<g id="node43" class="node"><title>Node43</title>
<g id="a_node43"><a xlink:href="../../d1/daa/Base_2include_2DetectorsBase_2Constants_8h.html" target="_top" xlink:title="DetectorsBase/Constants.h">
<polygon fill="none" stroke="black" points="2175,-340.5 2175,-359.5 2313,-359.5 2313,-340.5 2175,-340.5"/>
<text text-anchor="middle" x="2244" y="-347.5" font-family="Helvetica,sans-Serif" font-size="10.00">DetectorsBase/Constants.h</text>
</a>
</g>
</g>
<!-- Node42&#45;&gt;Node43 -->
<g id="edge53" class="edge"><title>Node42&#45;&gt;Node43</title>
<path fill="none" stroke="midnightblue" d="M2134.6,-396.444C2155.99,-387.557 2189.68,-373.563 2214.02,-363.451"/>
<polygon fill="midnightblue" stroke="midnightblue" points="2215.61,-366.585 2223.5,-359.516 2212.92,-360.12 2215.61,-366.585"/>
</g>
<!-- Node44 -->
<g id="node44" class="node"><title>Node44</title>
<polygon fill="none" stroke="#bfbfbf" points="2057,-340.5 2057,-359.5 2101,-359.5 2101,-340.5 2057,-340.5"/>
<text text-anchor="middle" x="2079" y="-347.5" font-family="Helvetica,sans-Serif" font-size="10.00">cmath</text>
</g>
<!-- Node42&#45;&gt;Node44 -->
<g id="edge54" class="edge"><title>Node42&#45;&gt;Node44</title>
<path fill="none" stroke="midnightblue" d="M2108.22,-396.083C2103.33,-388.534 2096.17,-377.495 2090.17,-368.23"/>
<polygon fill="midnightblue" stroke="midnightblue" points="2093.05,-366.239 2084.67,-359.751 2087.17,-370.046 2093.05,-366.239"/>
</g>
<!-- Node45 -->
<g id="node45" class="node"><title>Node45</title>
<polygon fill="none" stroke="#bfbfbf" points="2119,-340.5 2119,-359.5 2157,-359.5 2157,-340.5 2119,-340.5"/>
<text text-anchor="middle" x="2138" y="-347.5" font-family="Helvetica,sans-Serif" font-size="10.00">array</text>
</g>
<!-- Node42&#45;&gt;Node45 -->
<g id="edge55" class="edge"><title>Node42&#45;&gt;Node45</title>
<path fill="none" stroke="midnightblue" d="M2117.96,-396.083C2121.21,-388.77 2125.92,-378.181 2129.95,-369.103"/>
<polygon fill="midnightblue" stroke="midnightblue" points="2133.25,-370.311 2134.11,-359.751 2126.85,-367.468 2133.25,-370.311"/>
</g>
</g>
</svg>
