<?xml version="1.0" encoding="UTF-8" standalone="no"?>
<!DOCTYPE svg PUBLIC "-//W3C//DTD SVG 1.1//EN"
 "http://www.w3.org/Graphics/SVG/1.1/DTD/svg11.dtd">
<!-- Generated by graphviz version 2.36.0 (20140111.2315)
 -->
<!-- Title: o2::AliceHLT::RawClusterData Pages: 1 -->
<svg width="257pt" height="430pt"
 viewBox="0.00 0.00 257.00 430.00" xmlns="http://www.w3.org/2000/svg" xmlns:xlink="http://www.w3.org/1999/xlink">
<g id="graph0" class="graph" transform="scale(1 1) rotate(0) translate(4 426)">
<title>o2::AliceHLT::RawClusterData</title>
<!-- Node1 -->
<g id="node1" class="node"><title>Node1</title>
<polygon fill="#bfbfbf" stroke="black" points="0,-0.5 0,-57.5 152,-57.5 152,-0.5 0,-0.5"/>
<text text-anchor="middle" x="76" y="-45.5" font-family="Helvetica,sans-Serif" font-size="10.00">o2::AliceHLT::RawClusterData</text>
<polyline fill="none" stroke="black" points="0,-38.5 152,-38.5 "/>
<text text-anchor="middle" x="76" y="-26.5" font-family="Helvetica,sans-Serif" font-size="10.00"> </text>
<polyline fill="none" stroke="black" points="0,-19.5 152,-19.5 "/>
<text text-anchor="middle" x="76" y="-7.5" font-family="Helvetica,sans-Serif" font-size="10.00"> </text>
</g>
<!-- Node2 -->
<g id="node2" class="node"><title>Node2</title>
<polygon fill="none" stroke="#bfbfbf" points="7.5,-171.5 7.5,-228.5 58.5,-228.5 58.5,-171.5 7.5,-171.5"/>
<text text-anchor="middle" x="33" y="-216.5" font-family="Helvetica,sans-Serif" font-size="10.00">uint32_t</text>
<polyline fill="none" stroke="#bfbfbf" points="7.5,-209.5 58.5,-209.5 "/>
<text text-anchor="middle" x="33" y="-197.5" font-family="Helvetica,sans-Serif" font-size="10.00"> </text>
<polyline fill="none" stroke="#bfbfbf" points="7.5,-190.5 58.5,-190.5 "/>
<text text-anchor="middle" x="33" y="-178.5" font-family="Helvetica,sans-Serif" font-size="10.00"> </text>
</g>
<!-- Node2&#45;&gt;Node1 -->
<g id="edge1" class="edge"><title>Node2&#45;&gt;Node1</title>
<path fill="none" stroke="#404040" d="M35.9527,-171.168C39.1047,-145.923 45.0437,-107.889 55,-76 55.7064,-73.7374 56.4974,-71.4404 57.3473,-69.1414"/>
<polygon fill="none" stroke="#404040" points="57.4473,-68.8955 56.0027,-61.8306 61.9685,-57.7798 63.4131,-64.8448 57.4473,-68.8955"/>
<text text-anchor="middle" x="76.5" y="-90" font-family="Helvetica,sans-Serif" font-size="10.00"> +fCount</text>
<text text-anchor="middle" x="76.5" y="-79" font-family="Helvetica,sans-Serif" font-size="10.00">+fVersion</text>
</g>
<!-- Node3 -->
<g id="node3" class="node"><title>Node3</title>
<g id="a_node3"><a xlink:href="../../d7/d0a/structo2_1_1AliceHLT_1_1RawCluster.html" target="_top" xlink:title="{o2::AliceHLT::RawCluster\n||+ GetPadRow()\l+ GetPad()\l+ GetTime()\l+ GetSigmaPad2()\l+ GetSigmaTime2()\l+ GetCharge()\l+ GetQMax()\l+ GetFlagSplitPad()\l+ GetFlagSplitTime()\l+ GetFlagSplitAny()\l+ GetFlags()\l}">
<polygon fill="none" stroke="black" points="76.5,-116.5 76.5,-283.5 207.5,-283.5 207.5,-116.5 76.5,-116.5"/>
<text text-anchor="middle" x="142" y="-271.5" font-family="Helvetica,sans-Serif" font-size="10.00">o2::AliceHLT::RawCluster</text>
<polyline fill="none" stroke="black" points="76.5,-264.5 207.5,-264.5 "/>
<text text-anchor="middle" x="142" y="-252.5" font-family="Helvetica,sans-Serif" font-size="10.00"> </text>
<polyline fill="none" stroke="black" points="76.5,-245.5 207.5,-245.5 "/>
<text text-anchor="start" x="84.5" y="-233.5" font-family="Helvetica,sans-Serif" font-size="10.00">+ GetPadRow()</text>
<text text-anchor="start" x="84.5" y="-222.5" font-family="Helvetica,sans-Serif" font-size="10.00">+ GetPad()</text>
<text text-anchor="start" x="84.5" y="-211.5" font-family="Helvetica,sans-Serif" font-size="10.00">+ GetTime()</text>
<text text-anchor="start" x="84.5" y="-200.5" font-family="Helvetica,sans-Serif" font-size="10.00">+ GetSigmaPad2()</text>
<text text-anchor="start" x="84.5" y="-189.5" font-family="Helvetica,sans-Serif" font-size="10.00">+ GetSigmaTime2()</text>
<text text-anchor="start" x="84.5" y="-178.5" font-family="Helvetica,sans-Serif" font-size="10.00">+ GetCharge()</text>
<text text-anchor="start" x="84.5" y="-167.5" font-family="Helvetica,sans-Serif" font-size="10.00">+ GetQMax()</text>
<text text-anchor="start" x="84.5" y="-156.5" font-family="Helvetica,sans-Serif" font-size="10.00">+ GetFlagSplitPad()</text>
<text text-anchor="start" x="84.5" y="-145.5" font-family="Helvetica,sans-Serif" font-size="10.00">+ GetFlagSplitTime()</text>
<text text-anchor="start" x="84.5" y="-134.5" font-family="Helvetica,sans-Serif" font-size="10.00">+ GetFlagSplitAny()</text>
<text text-anchor="start" x="84.5" y="-123.5" font-family="Helvetica,sans-Serif" font-size="10.00">+ GetFlags()</text>
</a>
</g>
</g>
<!-- Node3&#45;&gt;Node1 -->
<g id="edge2" class="edge"><title>Node3&#45;&gt;Node1</title>
<path fill="none" stroke="#404040" d="M113.689,-116.181C108.692,-102.662 103.365,-88.8747 98,-76 96.9764,-73.5435 95.8897,-71.0295 94.7691,-68.5056"/>
<polygon fill="none" stroke="#404040" points="94.7336,-68.4283 88.5952,-64.6441 89.7273,-57.5224 95.8658,-61.3066 94.7336,-68.4283"/>
<text text-anchor="middle" x="130.5" y="-84.5" font-family="Helvetica,sans-Serif" font-size="10.00"> +fClusters</text>
</g>
<!-- Node4 -->
<g id="node4" class="node"><title>Node4</title>
<g id="a_node4"><a xlink:href="../../d4/dc3/classfloat.html" target="_top" xlink:title="{float\n||}">
<polygon fill="none" stroke="black" points="37.5,-364.5 37.5,-421.5 72.5,-421.5 72.5,-364.5 37.5,-364.5"/>
<text text-anchor="middle" x="55" y="-409.5" font-family="Helvetica,sans-Serif" font-size="10.00">float</text>
<polyline fill="none" stroke="black" points="37.5,-402.5 72.5,-402.5 "/>
<text text-anchor="middle" x="55" y="-390.5" font-family="Helvetica,sans-Serif" font-size="10.00"> </text>
<polyline fill="none" stroke="black" points="37.5,-383.5 72.5,-383.5 "/>
<text text-anchor="middle" x="55" y="-371.5" font-family="Helvetica,sans-Serif" font-size="10.00"> </text>
</a>
</g>
</g>
<!-- Node4&#45;&gt;Node3 -->
<g id="edge3" class="edge"><title>Node4&#45;&gt;Node3</title>
<path fill="none" stroke="#404040" d="M58.0314,-364.398C60.703,-346.152 65.5363,-322.001 74,-302 75.0542,-299.509 76.1729,-297.014 77.347,-294.523"/>
<polygon fill="none" stroke="#404040" points="77.4287,-294.361 76.5521,-287.203 82.8221,-283.641 83.6986,-290.799 77.4287,-294.361"/>
<text text-anchor="middle" x="106" y="-338" font-family="Helvetica,sans-Serif" font-size="10.00"> +fTime</text>
<text text-anchor="middle" x="106" y="-327" font-family="Helvetica,sans-Serif" font-size="10.00">+fPad</text>
<text text-anchor="middle" x="106" y="-316" font-family="Helvetica,sans-Serif" font-size="10.00">+fSigmaTime2</text>
<text text-anchor="middle" x="106" y="-305" font-family="Helvetica,sans-Serif" font-size="10.00">+fSigmaPad2</text>
</g>
<!-- Node5 -->
<g id="node5" class="node"><title>Node5</title>
<polygon fill="none" stroke="#bfbfbf" points="116.5,-364.5 116.5,-421.5 167.5,-421.5 167.5,-364.5 116.5,-364.5"/>
<text text-anchor="middle" x="142" y="-409.5" font-family="Helvetica,sans-Serif" font-size="10.00">uint16_t</text>
<polyline fill="none" stroke="#bfbfbf" points="116.5,-402.5 167.5,-402.5 "/>
<text text-anchor="middle" x="142" y="-390.5" font-family="Helvetica,sans-Serif" font-size="10.00"> </text>
<polyline fill="none" stroke="#bfbfbf" points="116.5,-383.5 167.5,-383.5 "/>
<text text-anchor="middle" x="142" y="-371.5" font-family="Helvetica,sans-Serif" font-size="10.00"> </text>
</g>
<!-- Node5&#45;&gt;Node3 -->
<g id="edge4" class="edge"><title>Node5&#45;&gt;Node3</title>
<path fill="none" stroke="#404040" d="M142,-364.227C142,-346 142,-320.991 142,-296.025"/>
<polygon fill="none" stroke="#404040" points="142,-295.802 138,-289.802 142,-283.802 146,-289.802 142,-295.802"/>
<text text-anchor="middle" x="162.5" y="-332.5" font-family="Helvetica,sans-Serif" font-size="10.00"> +fQMax</text>
<text text-anchor="middle" x="162.5" y="-321.5" font-family="Helvetica,sans-Serif" font-size="10.00">+fCharge</text>
<text text-anchor="middle" x="162.5" y="-310.5" font-family="Helvetica,sans-Serif" font-size="10.00">+fFlags</text>
</g>
<!-- Node6 -->
<g id="node6" class="node"><title>Node6</title>
<polygon fill="none" stroke="#bfbfbf" points="186,-364.5 186,-421.5 232,-421.5 232,-364.5 186,-364.5"/>
<text text-anchor="middle" x="209" y="-409.5" font-family="Helvetica,sans-Serif" font-size="10.00">int16_t</text>
<polyline fill="none" stroke="#bfbfbf" points="186,-402.5 232,-402.5 "/>
<text text-anchor="middle" x="209" y="-390.5" font-family="Helvetica,sans-Serif" font-size="10.00"> </text>
<polyline fill="none" stroke="#bfbfbf" points="186,-383.5 232,-383.5 "/>
<text text-anchor="middle" x="209" y="-371.5" font-family="Helvetica,sans-Serif" font-size="10.00"> </text>
</g>
<!-- Node6&#45;&gt;Node3 -->
<g id="edge5" class="edge"><title>Node6&#45;&gt;Node3</title>
<path fill="none" stroke="#404040" d="M203.61,-364.459C199.759,-346.452 194.025,-322.547 187,-302 186.231,-299.752 185.432,-297.486 184.607,-295.208"/>
<polygon fill="none" stroke="#404040" points="184.521,-294.98 178.66,-290.778 180.284,-283.753 186.145,-287.954 184.521,-294.98"/>
<text text-anchor="middle" x="224" y="-321.5" font-family="Helvetica,sans-Serif" font-size="10.00"> +fPadRow</text>
</g>
</g>
</svg>
