<?xml version="1.0" encoding="UTF-8" standalone="no"?>
<!DOCTYPE svg PUBLIC "-//W3C//DTD SVG 1.1//EN"
 "http://www.w3.org/Graphics/SVG/1.1/DTD/svg11.dtd">
<!-- Generated by graphviz version 2.36.0 (20140111.2315)
 -->
<!-- Title: o2::ITS::TrivialClusterer Pages: 1 -->
<svg width="585pt" height="1338pt"
 viewBox="0.00 0.00 585.00 1338.00" xmlns="http://www.w3.org/2000/svg" xmlns:xlink="http://www.w3.org/1999/xlink">
<g id="graph0" class="graph" transform="scale(1 1) rotate(0) translate(4 1334)">
<title>o2::ITS::TrivialClusterer</title>
<!-- Node1 -->
<g id="node1" class="node"><title>Node1</title>
<polygon fill="#bfbfbf" stroke="black" points="317.5,-0.5 317.5,-123.5 442.5,-123.5 442.5,-0.5 317.5,-0.5"/>
<text text-anchor="middle" x="380" y="-111.5" font-family="Helvetica,sans-Serif" font-size="10.00">o2::ITS::TrivialClusterer</text>
<polyline fill="none" stroke="black" points="317.5,-104.5 442.5,-104.5 "/>
<text text-anchor="middle" x="380" y="-92.5" font-family="Helvetica,sans-Serif" font-size="10.00"> </text>
<polyline fill="none" stroke="black" points="317.5,-85.5 442.5,-85.5 "/>
<text text-anchor="start" x="325.5" y="-73.5" font-family="Helvetica,sans-Serif" font-size="10.00">+ TrivialClusterer()</text>
<text text-anchor="start" x="325.5" y="-62.5" font-family="Helvetica,sans-Serif" font-size="10.00">+ ~TrivialClusterer()</text>
<text text-anchor="start" x="325.5" y="-51.5" font-family="Helvetica,sans-Serif" font-size="10.00">+ TrivialClusterer()</text>
<text text-anchor="start" x="325.5" y="-40.5" font-family="Helvetica,sans-Serif" font-size="10.00">+ operator=()</text>
<text text-anchor="start" x="325.5" y="-29.5" font-family="Helvetica,sans-Serif" font-size="10.00">+ process()</text>
<text text-anchor="start" x="325.5" y="-18.5" font-family="Helvetica,sans-Serif" font-size="10.00">+ setGeometry()</text>
<text text-anchor="start" x="325.5" y="-7.5" font-family="Helvetica,sans-Serif" font-size="10.00">+ setMCTruthContainer()</text>
</g>
<!-- Node2 -->
<g id="node2" class="node"><title>Node2</title>
<g id="a_node2"><a xlink:href="../../d7/d98/classo2_1_1ITSMFT_1_1GeometryTGeo.html" target="_top" xlink:title="{o2::ITSMFT::GeometryTGeo\n||+ GeometryTGeo()\l+ GeometryTGeo()\l+ operator=()\l+ GeometryTGeo()\l+ ~GeometryTGeo()\l+ getNumberOfChips()\l+ Build()\l# ClassDefOverride()\l}">
<polygon fill="none" stroke="black" points="209,-211 209,-345 351,-345 351,-211 209,-211"/>
<text text-anchor="middle" x="280" y="-333" font-family="Helvetica,sans-Serif" font-size="10.00">o2::ITSMFT::GeometryTGeo</text>
<polyline fill="none" stroke="black" points="209,-326 351,-326 "/>
<text text-anchor="middle" x="280" y="-314" font-family="Helvetica,sans-Serif" font-size="10.00"> </text>
<polyline fill="none" stroke="black" points="209,-307 351,-307 "/>
<text text-anchor="start" x="217" y="-295" font-family="Helvetica,sans-Serif" font-size="10.00">+ GeometryTGeo()</text>
<text text-anchor="start" x="217" y="-284" font-family="Helvetica,sans-Serif" font-size="10.00">+ GeometryTGeo()</text>
<text text-anchor="start" x="217" y="-273" font-family="Helvetica,sans-Serif" font-size="10.00">+ operator=()</text>
<text text-anchor="start" x="217" y="-262" font-family="Helvetica,sans-Serif" font-size="10.00">+ GeometryTGeo()</text>
<text text-anchor="start" x="217" y="-251" font-family="Helvetica,sans-Serif" font-size="10.00">+ ~GeometryTGeo()</text>
<text text-anchor="start" x="217" y="-240" font-family="Helvetica,sans-Serif" font-size="10.00">+ getNumberOfChips()</text>
<text text-anchor="start" x="217" y="-229" font-family="Helvetica,sans-Serif" font-size="10.00">+ Build()</text>
<text text-anchor="start" x="217" y="-218" font-family="Helvetica,sans-Serif" font-size="10.00"># ClassDefOverride()</text>
</a>
</g>
</g>
<!-- Node2&#45;&gt;Node1 -->
<g id="edge1" class="edge"><title>Node2&#45;&gt;Node1</title>
<path fill="none" stroke="#404040" d="M310.956,-210.755C322.198,-186.697 334.95,-159.408 346.409,-134.886"/>
<polygon fill="none" stroke="#404040" points="346.492,-134.707 345.408,-127.578 351.572,-123.835 352.656,-130.964 346.492,-134.707"/>
<text text-anchor="middle" x="372" y="-145.5" font-family="Helvetica,sans-Serif" font-size="10.00"> #mGeometry</text>
</g>
<!-- Node3 -->
<g id="node3" class="node"><title>Node3</title>
<g id="a_node3"><a xlink:href="../../df/d66/classo2_1_1Base_1_1DetMatrixCache.html" target="_top" xlink:title="{o2::Base::DetMatrixCache\n||+ DetMatrixCache()\l+ DetMatrixCache()\l+ ~DetMatrixCache()\l+ DetMatrixCache()\l+ operator=()\l+ getDetID()\l+ getName()\l+ getCacheT2L()\l+ getCacheT2G()\l+ getCacheL2G()\l+ getCacheT2GRot()\l+ getMatrixT2L()\l+ getMatrixT2G()\l+ getMatrixL2G()\l+ getMatrixT2GRot()\l+ isBuilt()\l+ getSize()\l+ fillMatrixCache()\l+ setSize()\l+ getCacheT2L()\l+ getCacheT2G()\l+ getCacheL2G()\l+ getCacheT2GRot()\l+ ClassDef()\l}">
<polygon fill="none" stroke="black" points="213.5,-433 213.5,-743 346.5,-743 346.5,-433 213.5,-433"/>
<text text-anchor="middle" x="280" y="-731" font-family="Helvetica,sans-Serif" font-size="10.00">o2::Base::DetMatrixCache</text>
<polyline fill="none" stroke="black" points="213.5,-724 346.5,-724 "/>
<text text-anchor="middle" x="280" y="-712" font-family="Helvetica,sans-Serif" font-size="10.00"> </text>
<polyline fill="none" stroke="black" points="213.5,-705 346.5,-705 "/>
<text text-anchor="start" x="221.5" y="-693" font-family="Helvetica,sans-Serif" font-size="10.00">+ DetMatrixCache()</text>
<text text-anchor="start" x="221.5" y="-682" font-family="Helvetica,sans-Serif" font-size="10.00">+ DetMatrixCache()</text>
<text text-anchor="start" x="221.5" y="-671" font-family="Helvetica,sans-Serif" font-size="10.00">+ ~DetMatrixCache()</text>
<text text-anchor="start" x="221.5" y="-660" font-family="Helvetica,sans-Serif" font-size="10.00">+ DetMatrixCache()</text>
<text text-anchor="start" x="221.5" y="-649" font-family="Helvetica,sans-Serif" font-size="10.00">+ operator=()</text>
<text text-anchor="start" x="221.5" y="-638" font-family="Helvetica,sans-Serif" font-size="10.00">+ getDetID()</text>
<text text-anchor="start" x="221.5" y="-627" font-family="Helvetica,sans-Serif" font-size="10.00">+ getName()</text>
<text text-anchor="start" x="221.5" y="-616" font-family="Helvetica,sans-Serif" font-size="10.00">+ getCacheT2L()</text>
<text text-anchor="start" x="221.5" y="-605" font-family="Helvetica,sans-Serif" font-size="10.00">+ getCacheT2G()</text>
<text text-anchor="start" x="221.5" y="-594" font-family="Helvetica,sans-Serif" font-size="10.00">+ getCacheL2G()</text>
<text text-anchor="start" x="221.5" y="-583" font-family="Helvetica,sans-Serif" font-size="10.00">+ getCacheT2GRot()</text>
<text text-anchor="start" x="221.5" y="-572" font-family="Helvetica,sans-Serif" font-size="10.00">+ getMatrixT2L()</text>
<text text-anchor="start" x="221.5" y="-561" font-family="Helvetica,sans-Serif" font-size="10.00">+ getMatrixT2G()</text>
<text text-anchor="start" x="221.5" y="-550" font-family="Helvetica,sans-Serif" font-size="10.00">+ getMatrixL2G()</text>
<text text-anchor="start" x="221.5" y="-539" font-family="Helvetica,sans-Serif" font-size="10.00">+ getMatrixT2GRot()</text>
<text text-anchor="start" x="221.5" y="-528" font-family="Helvetica,sans-Serif" font-size="10.00">+ isBuilt()</text>
<text text-anchor="start" x="221.5" y="-517" font-family="Helvetica,sans-Serif" font-size="10.00">+ getSize()</text>
<text text-anchor="start" x="221.5" y="-506" font-family="Helvetica,sans-Serif" font-size="10.00">+ fillMatrixCache()</text>
<text text-anchor="start" x="221.5" y="-495" font-family="Helvetica,sans-Serif" font-size="10.00">+ setSize()</text>
<text text-anchor="start" x="221.5" y="-484" font-family="Helvetica,sans-Serif" font-size="10.00">+ getCacheT2L()</text>
<text text-anchor="start" x="221.5" y="-473" font-family="Helvetica,sans-Serif" font-size="10.00">+ getCacheT2G()</text>
<text text-anchor="start" x="221.5" y="-462" font-family="Helvetica,sans-Serif" font-size="10.00">+ getCacheL2G()</text>
<text text-anchor="start" x="221.5" y="-451" font-family="Helvetica,sans-Serif" font-size="10.00">+ getCacheT2GRot()</text>
<text text-anchor="start" x="221.5" y="-440" font-family="Helvetica,sans-Serif" font-size="10.00">+ ClassDef()</text>
</a>
</g>
</g>
<!-- Node3&#45;&gt;Node2 -->
<g id="edge2" class="edge"><title>Node3&#45;&gt;Node2</title>
<path fill="none" stroke="midnightblue" d="M280,-422.46C280,-395.113 280,-368.211 280,-345.225"/>
<polygon fill="none" stroke="midnightblue" points="276.5,-422.549 280,-432.549 283.5,-422.549 276.5,-422.549"/>
</g>
<!-- Node4 -->
<g id="node4" class="node"><title>Node4</title>
<g id="a_node4"><a xlink:href="../../db/d0d/classo2_1_1Base_1_1MatrixCache.html" target="_top" xlink:title="{o2::Base::MatrixCache\l\&lt; o2::Base::Transform3D \&gt;\n||+ MatrixCache()\l+ MatrixCache()\l+ ~MatrixCache()\l+ operator=()\l+ setSize()\l+ getSize()\l+ setMatrix()\l+ getMatrix()\l+ isFilled()\l}">
<polygon fill="none" stroke="black" points="-0.5,-842 -0.5,-998 136.5,-998 136.5,-842 -0.5,-842"/>
<text text-anchor="start" x="7.5" y="-986" font-family="Helvetica,sans-Serif" font-size="10.00">o2::Base::MatrixCache</text>
<text text-anchor="middle" x="68" y="-975" font-family="Helvetica,sans-Serif" font-size="10.00">&lt; o2::Base::Transform3D &gt;</text>
<polyline fill="none" stroke="black" points="-0.5,-968 136.5,-968 "/>
<text text-anchor="middle" x="68" y="-956" font-family="Helvetica,sans-Serif" font-size="10.00"> </text>
<polyline fill="none" stroke="black" points="-0.5,-949 136.5,-949 "/>
<text text-anchor="start" x="7.5" y="-937" font-family="Helvetica,sans-Serif" font-size="10.00">+ MatrixCache()</text>
<text text-anchor="start" x="7.5" y="-926" font-family="Helvetica,sans-Serif" font-size="10.00">+ MatrixCache()</text>
<text text-anchor="start" x="7.5" y="-915" font-family="Helvetica,sans-Serif" font-size="10.00">+ ~MatrixCache()</text>
<text text-anchor="start" x="7.5" y="-904" font-family="Helvetica,sans-Serif" font-size="10.00">+ operator=()</text>
<text text-anchor="start" x="7.5" y="-893" font-family="Helvetica,sans-Serif" font-size="10.00">+ setSize()</text>
<text text-anchor="start" x="7.5" y="-882" font-family="Helvetica,sans-Serif" font-size="10.00">+ getSize()</text>
<text text-anchor="start" x="7.5" y="-871" font-family="Helvetica,sans-Serif" font-size="10.00">+ setMatrix()</text>
<text text-anchor="start" x="7.5" y="-860" font-family="Helvetica,sans-Serif" font-size="10.00">+ getMatrix()</text>
<text text-anchor="start" x="7.5" y="-849" font-family="Helvetica,sans-Serif" font-size="10.00">+ isFilled()</text>
</a>
</g>
</g>
<!-- Node4&#45;&gt;Node3 -->
<g id="edge3" class="edge"><title>Node4&#45;&gt;Node3</title>
<path fill="none" stroke="#404040" d="M117.705,-841.63C144.215,-800.363 177.344,-748.795 206.746,-703.028"/>
<polygon fill="none" stroke="#404040" points="206.862,-702.847 206.74,-695.637 213.348,-692.751 213.47,-699.961 206.862,-702.847"/>
<text text-anchor="middle" x="186.5" y="-787.5" font-family="Helvetica,sans-Serif" font-size="10.00"> +mT2G</text>
<text text-anchor="middle" x="186.5" y="-776.5" font-family="Helvetica,sans-Serif" font-size="10.00">+mT2L</text>
<text text-anchor="middle" x="186.5" y="-765.5" font-family="Helvetica,sans-Serif" font-size="10.00">+mL2G</text>
</g>
<!-- Node5 -->
<g id="node5" class="node"><title>Node5</title>
<g id="a_node5"><a xlink:href="../../db/d0d/classo2_1_1Base_1_1MatrixCache.html" target="_top" xlink:title="MatrixCache is a vector of cached transform matrices (per sensor) for specific Transformation type...">
<polygon fill="none" stroke="black" points="70.5,-1184.5 70.5,-1329.5 211.5,-1329.5 211.5,-1184.5 70.5,-1184.5"/>
<text text-anchor="middle" x="141" y="-1317.5" font-family="Helvetica,sans-Serif" font-size="10.00">o2::Base::MatrixCache&lt; T &gt;</text>
<polyline fill="none" stroke="black" points="70.5,-1310.5 211.5,-1310.5 "/>
<text text-anchor="middle" x="141" y="-1298.5" font-family="Helvetica,sans-Serif" font-size="10.00"> </text>
<polyline fill="none" stroke="black" points="70.5,-1291.5 211.5,-1291.5 "/>
<text text-anchor="start" x="78.5" y="-1279.5" font-family="Helvetica,sans-Serif" font-size="10.00">+ MatrixCache()</text>
<text text-anchor="start" x="78.5" y="-1268.5" font-family="Helvetica,sans-Serif" font-size="10.00">+ ~MatrixCache()</text>
<text text-anchor="start" x="78.5" y="-1257.5" font-family="Helvetica,sans-Serif" font-size="10.00">+ MatrixCache()</text>
<text text-anchor="start" x="78.5" y="-1246.5" font-family="Helvetica,sans-Serif" font-size="10.00">+ operator=()</text>
<text text-anchor="start" x="78.5" y="-1235.5" font-family="Helvetica,sans-Serif" font-size="10.00">+ setSize()</text>
<text text-anchor="start" x="78.5" y="-1224.5" font-family="Helvetica,sans-Serif" font-size="10.00">+ getSize()</text>
<text text-anchor="start" x="78.5" y="-1213.5" font-family="Helvetica,sans-Serif" font-size="10.00">+ setMatrix()</text>
<text text-anchor="start" x="78.5" y="-1202.5" font-family="Helvetica,sans-Serif" font-size="10.00">+ getMatrix()</text>
<text text-anchor="start" x="78.5" y="-1191.5" font-family="Helvetica,sans-Serif" font-size="10.00">+ isFilled()</text>
</a>
</g>
</g>
<!-- Node5&#45;&gt;Node4 -->
<g id="edge4" class="edge"><title>Node5&#45;&gt;Node4</title>
<path fill="none" stroke="orange" d="M71.7836,-1175.29C70.379,-1172.23 69.1094,-1169.13 68,-1166 48.9171,-1112.18 49.8489,-1047.43 55.0514,-998.016"/>
<polygon fill="orange" stroke="orange" points="68.7322,-1177.01 76.377,-1184.35 74.9752,-1173.84 68.7322,-1177.01"/>
<text text-anchor="middle" x="130" y="-1102.5" font-family="Helvetica,sans-Serif" font-size="10.00"> &lt; o2::Base::Transform3D &gt;</text>
</g>
<!-- Node6 -->
<g id="node6" class="node"><title>Node6</title>
<g id="a_node6"><a xlink:href="../../db/d0d/classo2_1_1Base_1_1MatrixCache.html" target="_top" xlink:title="{o2::Base::MatrixCache\l\&lt; o2::Base::Rotation2D \&gt;\n||+ MatrixCache()\l+ MatrixCache()\l+ ~MatrixCache()\l+ operator=()\l+ setSize()\l+ getSize()\l+ setMatrix()\l+ getMatrix()\l+ isFilled()\l}">
<polygon fill="none" stroke="black" points="156.5,-842 156.5,-998 285.5,-998 285.5,-842 156.5,-842"/>
<text text-anchor="start" x="164.5" y="-986" font-family="Helvetica,sans-Serif" font-size="10.00">o2::Base::MatrixCache</text>
<text text-anchor="middle" x="221" y="-975" font-family="Helvetica,sans-Serif" font-size="10.00">&lt; o2::Base::Rotation2D &gt;</text>
<polyline fill="none" stroke="black" points="156.5,-968 285.5,-968 "/>
<text text-anchor="middle" x="221" y="-956" font-family="Helvetica,sans-Serif" font-size="10.00"> </text>
<polyline fill="none" stroke="black" points="156.5,-949 285.5,-949 "/>
<text text-anchor="start" x="164.5" y="-937" font-family="Helvetica,sans-Serif" font-size="10.00">+ MatrixCache()</text>
<text text-anchor="start" x="164.5" y="-926" font-family="Helvetica,sans-Serif" font-size="10.00">+ MatrixCache()</text>
<text text-anchor="start" x="164.5" y="-915" font-family="Helvetica,sans-Serif" font-size="10.00">+ ~MatrixCache()</text>
<text text-anchor="start" x="164.5" y="-904" font-family="Helvetica,sans-Serif" font-size="10.00">+ operator=()</text>
<text text-anchor="start" x="164.5" y="-893" font-family="Helvetica,sans-Serif" font-size="10.00">+ setSize()</text>
<text text-anchor="start" x="164.5" y="-882" font-family="Helvetica,sans-Serif" font-size="10.00">+ getSize()</text>
<text text-anchor="start" x="164.5" y="-871" font-family="Helvetica,sans-Serif" font-size="10.00">+ setMatrix()</text>
<text text-anchor="start" x="164.5" y="-860" font-family="Helvetica,sans-Serif" font-size="10.00">+ getMatrix()</text>
<text text-anchor="start" x="164.5" y="-849" font-family="Helvetica,sans-Serif" font-size="10.00">+ isFilled()</text>
</a>
</g>
</g>
<!-- Node5&#45;&gt;Node6 -->
<g id="edge6" class="edge"><title>Node5&#45;&gt;Node6</title>
<path fill="none" stroke="orange" d="M188.782,-1174.95C189.946,-1171.96 191.025,-1168.98 192,-1166 209.84,-1111.56 216.955,-1047.13 219.681,-998.008"/>
<polygon fill="orange" stroke="orange" points="185.436,-1173.88 184.797,-1184.45 191.892,-1176.58 185.436,-1173.88"/>
<text text-anchor="middle" x="274" y="-1102.5" font-family="Helvetica,sans-Serif" font-size="10.00"> &lt; o2::Base::Rotation2D &gt;</text>
</g>
<!-- Node6&#45;&gt;Node3 -->
<g id="edge5" class="edge"><title>Node6&#45;&gt;Node3</title>
<path fill="none" stroke="#404040" d="M234.833,-841.63C239.493,-815.562 244.889,-785.383 250.294,-755.153"/>
<polygon fill="none" stroke="#404040" points="250.333,-754.934 247.451,-748.323 252.445,-743.121 255.327,-749.731 250.333,-754.934"/>
<text text-anchor="middle" x="275" y="-776.5" font-family="Helvetica,sans-Serif" font-size="10.00"> +mT2GRot</text>
</g>
<!-- Node7 -->
<g id="node7" class="node"><title>Node7</title>
<g id="a_node7"><a xlink:href="../../de/dee/classo2_1_1Base_1_1DetID.html" target="_top" xlink:title="Static class with identifiers, bitmasks and names for ALICE detectors. ">
<polygon fill="none" stroke="black" points="305.5,-814.5 305.5,-1025.5 400.5,-1025.5 400.5,-814.5 305.5,-814.5"/>
<text text-anchor="middle" x="353" y="-1013.5" font-family="Helvetica,sans-Serif" font-size="10.00">o2::Base::DetID</text>
<polyline fill="none" stroke="black" points="305.5,-1006.5 400.5,-1006.5 "/>
<text text-anchor="start" x="313.5" y="-994.5" font-family="Helvetica,sans-Serif" font-size="10.00">+ TOF</text>
<text text-anchor="start" x="313.5" y="-983.5" font-family="Helvetica,sans-Serif" font-size="10.00">+ PHS</text>
<text text-anchor="start" x="313.5" y="-972.5" font-family="Helvetica,sans-Serif" font-size="10.00">+ EMC</text>
<text text-anchor="start" x="313.5" y="-961.5" font-family="Helvetica,sans-Serif" font-size="10.00">+ HMP</text>
<text text-anchor="start" x="313.5" y="-950.5" font-family="Helvetica,sans-Serif" font-size="10.00">+ MFT</text>
<text text-anchor="start" x="313.5" y="-939.5" font-family="Helvetica,sans-Serif" font-size="10.00">+ Last</text>
<polyline fill="none" stroke="black" points="305.5,-932.5 400.5,-932.5 "/>
<text text-anchor="start" x="313.5" y="-920.5" font-family="Helvetica,sans-Serif" font-size="10.00">+ DetID()</text>
<text text-anchor="start" x="313.5" y="-909.5" font-family="Helvetica,sans-Serif" font-size="10.00">+ DetID()</text>
<text text-anchor="start" x="313.5" y="-898.5" font-family="Helvetica,sans-Serif" font-size="10.00">+ getID()</text>
<text text-anchor="start" x="313.5" y="-887.5" font-family="Helvetica,sans-Serif" font-size="10.00">+ getMask()</text>
<text text-anchor="start" x="313.5" y="-876.5" font-family="Helvetica,sans-Serif" font-size="10.00">+ getName()</text>
<text text-anchor="start" x="313.5" y="-865.5" font-family="Helvetica,sans-Serif" font-size="10.00">+ operator int()</text>
<text text-anchor="start" x="313.5" y="-854.5" font-family="Helvetica,sans-Serif" font-size="10.00">+ DetID()</text>
<text text-anchor="start" x="313.5" y="-843.5" font-family="Helvetica,sans-Serif" font-size="10.00">+ getNDetectors()</text>
<text text-anchor="start" x="313.5" y="-832.5" font-family="Helvetica,sans-Serif" font-size="10.00">+ getName()</text>
<text text-anchor="start" x="313.5" y="-821.5" font-family="Helvetica,sans-Serif" font-size="10.00">+ getMask()</text>
</a>
</g>
</g>
<!-- Node7&#45;&gt;Node3 -->
<g id="edge7" class="edge"><title>Node7&#45;&gt;Node3</title>
<path fill="none" stroke="#404040" d="M329.802,-814.133C325.614,-795.201 321.155,-775.045 316.693,-754.873"/>
<polygon fill="none" stroke="#404040" points="316.659,-754.719 311.458,-749.725 314.067,-743.002 319.269,-747.997 316.659,-754.719"/>
<text text-anchor="middle" x="348" y="-776.5" font-family="Helvetica,sans-Serif" font-size="10.00"> +mDetID</text>
</g>
<!-- Node8 -->
<g id="node8" class="node"><title>Node8</title>
<polygon fill="none" stroke="#bfbfbf" points="303,-1228.5 303,-1285.5 403,-1285.5 403,-1228.5 303,-1228.5"/>
<text text-anchor="middle" x="353" y="-1273.5" font-family="Helvetica,sans-Serif" font-size="10.00">static constexpr ID</text>
<polyline fill="none" stroke="#bfbfbf" points="303,-1266.5 403,-1266.5 "/>
<text text-anchor="middle" x="353" y="-1254.5" font-family="Helvetica,sans-Serif" font-size="10.00"> </text>
<polyline fill="none" stroke="#bfbfbf" points="303,-1247.5 403,-1247.5 "/>
<text text-anchor="middle" x="353" y="-1235.5" font-family="Helvetica,sans-Serif" font-size="10.00"> </text>
</g>
<!-- Node8&#45;&gt;Node7 -->
<g id="edge8" class="edge"><title>Node8&#45;&gt;Node7</title>
<path fill="none" stroke="#404040" d="M353,-1228.3C353,-1186.82 353,-1106.13 353,-1037.85"/>
<polygon fill="none" stroke="#404040" points="353,-1037.69 349,-1031.69 353,-1025.69 357,-1031.69 353,-1037.69"/>
<text text-anchor="middle" x="368.5" y="-1157.5" font-family="Helvetica,sans-Serif" font-size="10.00"> +ACO</text>
<text text-anchor="middle" x="368.5" y="-1146.5" font-family="Helvetica,sans-Serif" font-size="10.00">+First</text>
<text text-anchor="middle" x="368.5" y="-1135.5" font-family="Helvetica,sans-Serif" font-size="10.00">+FIT</text>
<text text-anchor="middle" x="368.5" y="-1124.5" font-family="Helvetica,sans-Serif" font-size="10.00">+MCH</text>
<text text-anchor="middle" x="368.5" y="-1113.5" font-family="Helvetica,sans-Serif" font-size="10.00">+TRD</text>
<text text-anchor="middle" x="368.5" y="-1102.5" font-family="Helvetica,sans-Serif" font-size="10.00">+TPC</text>
<text text-anchor="middle" x="368.5" y="-1091.5" font-family="Helvetica,sans-Serif" font-size="10.00">+ZDC</text>
<text text-anchor="middle" x="368.5" y="-1080.5" font-family="Helvetica,sans-Serif" font-size="10.00">+MID</text>
<text text-anchor="middle" x="368.5" y="-1069.5" font-family="Helvetica,sans-Serif" font-size="10.00">+ITS</text>
<text text-anchor="middle" x="368.5" y="-1058.5" font-family="Helvetica,sans-Serif" font-size="10.00">+CPV</text>
<text text-anchor="middle" x="368.5" y="-1047.5" font-family="Helvetica,sans-Serif" font-size="10.00">...</text>
</g>
<!-- Node9 -->
<g id="node9" class="node"><title>Node9</title>
<polygon fill="none" stroke="#bfbfbf" points="443.5,-1228.5 443.5,-1285.5 472.5,-1285.5 472.5,-1228.5 443.5,-1228.5"/>
<text text-anchor="middle" x="458" y="-1273.5" font-family="Helvetica,sans-Serif" font-size="10.00">int</text>
<polyline fill="none" stroke="#bfbfbf" points="443.5,-1266.5 472.5,-1266.5 "/>
<text text-anchor="middle" x="458" y="-1254.5" font-family="Helvetica,sans-Serif" font-size="10.00"> </text>
<polyline fill="none" stroke="#bfbfbf" points="443.5,-1247.5 472.5,-1247.5 "/>
<text text-anchor="middle" x="458" y="-1235.5" font-family="Helvetica,sans-Serif" font-size="10.00"> </text>
</g>
<!-- Node9&#45;&gt;Node3 -->
<g id="edge10" class="edge"><title>Node9&#45;&gt;Node3</title>
<path fill="none" stroke="#404040" d="M461.821,-1228.44C466.815,-1187.88 474.033,-1109.81 466,-1044 453.239,-939.461 448.235,-911.733 409,-814 404.341,-802.394 379.43,-758.486 352.723,-712.499"/>
<polygon fill="none" stroke="#404040" points="352.675,-712.415 346.2,-709.24 346.641,-702.042 353.115,-705.217 352.675,-712.415"/>
<text text-anchor="middle" x="482.5" y="-917.5" font-family="Helvetica,sans-Serif" font-size="10.00"> +mSize</text>
</g>
<!-- Node9&#45;&gt;Node7 -->
<g id="edge9" class="edge"><title>Node9&#45;&gt;Node7</title>
<path fill="none" stroke="#404040" d="M443.382,-1234.39C432.09,-1216.72 416.929,-1190.71 408,-1166 389.25,-1114.11 397.064,-1097.84 385,-1044 384.515,-1041.83 384.018,-1039.65 383.511,-1037.45"/>
<polygon fill="none" stroke="#404040" points="383.464,-1037.24 378.198,-1032.32 380.721,-1025.56 385.986,-1030.49 383.464,-1037.24"/>
<text text-anchor="middle" x="437" y="-1102.5" font-family="Helvetica,sans-Serif" font-size="10.00"> +nDetectors</text>
</g>
<!-- Node10 -->
<g id="node10" class="node"><title>Node10</title>
<g id="a_node10"><a xlink:href="../../dc/daa/classo2_1_1dataformats_1_1MCTruthContainer.html" target="_top" xlink:title="{o2::dataformats::MCTruth\lContainer\&lt; o2::o2::MCCompLabel \&gt;\n||+ MCTruthContainer()\l+ MCTruthContainer()\l+ ~MCTruthContainer()\l+ operator=()\l+ getMCTruthHeader()\l+ getElement()\l+ getIndexedSize()\l+ getNElements()\l+ getLabels()\l+ getLabels()\l+ clear()\l+ addElement()\l+ addElementRandomAccess()\l+ ClassDefNV()\l}">
<polygon fill="none" stroke="black" points="369.5,-172.5 369.5,-383.5 544.5,-383.5 544.5,-172.5 369.5,-172.5"/>
<text text-anchor="start" x="377.5" y="-371.5" font-family="Helvetica,sans-Serif" font-size="10.00">o2::dataformats::MCTruth</text>
<text text-anchor="middle" x="457" y="-360.5" font-family="Helvetica,sans-Serif" font-size="10.00">Container&lt; o2::o2::MCCompLabel &gt;</text>
<polyline fill="none" stroke="black" points="369.5,-353.5 544.5,-353.5 "/>
<text text-anchor="middle" x="457" y="-341.5" font-family="Helvetica,sans-Serif" font-size="10.00"> </text>
<polyline fill="none" stroke="black" points="369.5,-334.5 544.5,-334.5 "/>
<text text-anchor="start" x="377.5" y="-322.5" font-family="Helvetica,sans-Serif" font-size="10.00">+ MCTruthContainer()</text>
<text text-anchor="start" x="377.5" y="-311.5" font-family="Helvetica,sans-Serif" font-size="10.00">+ MCTruthContainer()</text>
<text text-anchor="start" x="377.5" y="-300.5" font-family="Helvetica,sans-Serif" font-size="10.00">+ ~MCTruthContainer()</text>
<text text-anchor="start" x="377.5" y="-289.5" font-family="Helvetica,sans-Serif" font-size="10.00">+ operator=()</text>
<text text-anchor="start" x="377.5" y="-278.5" font-family="Helvetica,sans-Serif" font-size="10.00">+ getMCTruthHeader()</text>
<text text-anchor="start" x="377.5" y="-267.5" font-family="Helvetica,sans-Serif" font-size="10.00">+ getElement()</text>
<text text-anchor="start" x="377.5" y="-256.5" font-family="Helvetica,sans-Serif" font-size="10.00">+ getIndexedSize()</text>
<text text-anchor="start" x="377.5" y="-245.5" font-family="Helvetica,sans-Serif" font-size="10.00">+ getNElements()</text>
<text text-anchor="start" x="377.5" y="-234.5" font-family="Helvetica,sans-Serif" font-size="10.00">+ getLabels()</text>
<text text-anchor="start" x="377.5" y="-223.5" font-family="Helvetica,sans-Serif" font-size="10.00">+ getLabels()</text>
<text text-anchor="start" x="377.5" y="-212.5" font-family="Helvetica,sans-Serif" font-size="10.00">+ clear()</text>
<text text-anchor="start" x="377.5" y="-201.5" font-family="Helvetica,sans-Serif" font-size="10.00">+ addElement()</text>
<text text-anchor="start" x="377.5" y="-190.5" font-family="Helvetica,sans-Serif" font-size="10.00">+ addElementRandomAccess()</text>
<text text-anchor="start" x="377.5" y="-179.5" font-family="Helvetica,sans-Serif" font-size="10.00">+ ClassDefNV()</text>
</a>
</g>
</g>
<!-- Node10&#45;&gt;Node1 -->
<g id="edge11" class="edge"><title>Node10&#45;&gt;Node1</title>
<path fill="none" stroke="#404040" d="M419.29,-172.194C414.803,-159.724 410.302,-147.215 406.03,-135.343"/>
<polygon fill="none" stroke="#404040" points="405.907,-135.001 400.112,-130.709 401.844,-123.71 407.639,-128.001 405.907,-135.001"/>
<text text-anchor="middle" x="442.5" y="-145.5" font-family="Helvetica,sans-Serif" font-size="10.00"> #mClsLabels</text>
</g>
<!-- Node11 -->
<g id="node11" class="node"><title>Node11</title>
<g id="a_node11"><a xlink:href="../../dc/daa/classo2_1_1dataformats_1_1MCTruthContainer.html" target="_top" xlink:title="{o2::dataformats::MCTruth\lContainer\&lt; TruthElement \&gt;\n||+ MCTruthContainer()\l+ ~MCTruthContainer()\l+ MCTruthContainer()\l+ operator=()\l+ getMCTruthHeader()\l+ getElement()\l+ getIndexedSize()\l+ getNElements()\l+ getLabels()\l+ getLabels()\l+ clear()\l+ addElement()\l+ addElementRandomAccess()\l+ ClassDefNV()\l}">
<polygon fill="none" stroke="black" points="380.5,-482.5 380.5,-693.5 533.5,-693.5 533.5,-482.5 380.5,-482.5"/>
<text text-anchor="start" x="388.5" y="-681.5" font-family="Helvetica,sans-Serif" font-size="10.00">o2::dataformats::MCTruth</text>
<text text-anchor="middle" x="457" y="-670.5" font-family="Helvetica,sans-Serif" font-size="10.00">Container&lt; TruthElement &gt;</text>
<polyline fill="none" stroke="black" points="380.5,-663.5 533.5,-663.5 "/>
<text text-anchor="middle" x="457" y="-651.5" font-family="Helvetica,sans-Serif" font-size="10.00"> </text>
<polyline fill="none" stroke="black" points="380.5,-644.5 533.5,-644.5 "/>
<text text-anchor="start" x="388.5" y="-632.5" font-family="Helvetica,sans-Serif" font-size="10.00">+ MCTruthContainer()</text>
<text text-anchor="start" x="388.5" y="-621.5" font-family="Helvetica,sans-Serif" font-size="10.00">+ ~MCTruthContainer()</text>
<text text-anchor="start" x="388.5" y="-610.5" font-family="Helvetica,sans-Serif" font-size="10.00">+ MCTruthContainer()</text>
<text text-anchor="start" x="388.5" y="-599.5" font-family="Helvetica,sans-Serif" font-size="10.00">+ operator=()</text>
<text text-anchor="start" x="388.5" y="-588.5" font-family="Helvetica,sans-Serif" font-size="10.00">+ getMCTruthHeader()</text>
<text text-anchor="start" x="388.5" y="-577.5" font-family="Helvetica,sans-Serif" font-size="10.00">+ getElement()</text>
<text text-anchor="start" x="388.5" y="-566.5" font-family="Helvetica,sans-Serif" font-size="10.00">+ getIndexedSize()</text>
<text text-anchor="start" x="388.5" y="-555.5" font-family="Helvetica,sans-Serif" font-size="10.00">+ getNElements()</text>
<text text-anchor="start" x="388.5" y="-544.5" font-family="Helvetica,sans-Serif" font-size="10.00">+ getLabels()</text>
<text text-anchor="start" x="388.5" y="-533.5" font-family="Helvetica,sans-Serif" font-size="10.00">+ getLabels()</text>
<text text-anchor="start" x="388.5" y="-522.5" font-family="Helvetica,sans-Serif" font-size="10.00">+ clear()</text>
<text text-anchor="start" x="388.5" y="-511.5" font-family="Helvetica,sans-Serif" font-size="10.00">+ addElement()</text>
<text text-anchor="start" x="388.5" y="-500.5" font-family="Helvetica,sans-Serif" font-size="10.00">+ addElementRandomAccess()</text>
<text text-anchor="start" x="388.5" y="-489.5" font-family="Helvetica,sans-Serif" font-size="10.00">+ ClassDefNV()</text>
</a>
</g>
</g>
<!-- Node11&#45;&gt;Node10 -->
<g id="edge12" class="edge"><title>Node11&#45;&gt;Node10</title>
<path fill="none" stroke="orange" d="M457,-472.128C457,-443.128 457,-412.145 457,-383.676"/>
<polygon fill="orange" stroke="orange" points="453.5,-472.295 457,-482.295 460.5,-472.296 453.5,-472.295"/>
<text text-anchor="middle" x="517" y="-405.5" font-family="Helvetica,sans-Serif" font-size="10.00"> &lt; o2::o2::MCCompLabel &gt;</text>
</g>
</g>
</svg>
