<?xml version="1.0" encoding="UTF-8" standalone="no"?>
<!DOCTYPE svg PUBLIC "-//W3C//DTD SVG 1.1//EN"
 "http://www.w3.org/Graphics/SVG/1.1/DTD/svg11.dtd">
<!-- Generated by graphviz version 2.36.0 (20140111.2315)
 -->
<!-- Title: o2::tof::MCLabel Pages: 1 -->
<svg width="183pt" height="510pt"
 viewBox="0.00 0.00 183.00 510.00" xmlns="http://www.w3.org/2000/svg" xmlns:xlink="http://www.w3.org/1999/xlink">
<g id="graph0" class="graph" transform="scale(1 1) rotate(0) translate(4 506)">
<title>o2::tof::MCLabel</title>
<!-- Node1 -->
<g id="node1" class="node"><title>Node1</title>
<polygon fill="#bfbfbf" stroke="black" points="31.5,-0.5 31.5,-79.5 120.5,-79.5 120.5,-0.5 31.5,-0.5"/>
<text text-anchor="middle" x="76" y="-67.5" font-family="Helvetica,sans-Serif" font-size="10.00">o2::tof::MCLabel</text>
<polyline fill="none" stroke="black" points="31.5,-60.5 120.5,-60.5 "/>
<text text-anchor="middle" x="76" y="-48.5" font-family="Helvetica,sans-Serif" font-size="10.00"> </text>
<polyline fill="none" stroke="black" points="31.5,-41.5 120.5,-41.5 "/>
<text text-anchor="start" x="39.5" y="-29.5" font-family="Helvetica,sans-Serif" font-size="10.00">+ MCLabel()</text>
<text text-anchor="start" x="39.5" y="-18.5" font-family="Helvetica,sans-Serif" font-size="10.00">+ MCLabel()</text>
<text text-anchor="start" x="39.5" y="-7.5" font-family="Helvetica,sans-Serif" font-size="10.00">+ getTDC()</text>
</g>
<!-- Node2 -->
<g id="node2" class="node"><title>Node2</title>
<g id="a_node2"><a xlink:href="../../de/def/classo2_1_1MCCompLabel.html" target="_top" xlink:title="{o2::MCCompLabel\n||+ MCCompLabel()\l+ MCCompLabel()\l+ ~MCCompLabel()\l+ isSet()\l+ isEmpty()\l+ isPosTrackID()\l+ operator ULong64_t()\l+ unset()\l+ set()\l+ getTrackID()\l+ getEventID()\l+ getSourceID()\l+ get()\l+ print()\l+ ClassDefNV()\l+ maxSourceID()\l+ maxEventID()\l+ maxTrackID()\l}">
<polygon fill="none" stroke="black" points="17.5,-119 17.5,-363 134.5,-363 134.5,-119 17.5,-119"/>
<text text-anchor="middle" x="76" y="-351" font-family="Helvetica,sans-Serif" font-size="10.00">o2::MCCompLabel</text>
<polyline fill="none" stroke="black" points="17.5,-344 134.5,-344 "/>
<text text-anchor="middle" x="76" y="-332" font-family="Helvetica,sans-Serif" font-size="10.00"> </text>
<polyline fill="none" stroke="black" points="17.5,-325 134.5,-325 "/>
<text text-anchor="start" x="25.5" y="-313" font-family="Helvetica,sans-Serif" font-size="10.00">+ MCCompLabel()</text>
<text text-anchor="start" x="25.5" y="-302" font-family="Helvetica,sans-Serif" font-size="10.00">+ MCCompLabel()</text>
<text text-anchor="start" x="25.5" y="-291" font-family="Helvetica,sans-Serif" font-size="10.00">+ ~MCCompLabel()</text>
<text text-anchor="start" x="25.5" y="-280" font-family="Helvetica,sans-Serif" font-size="10.00">+ isSet()</text>
<text text-anchor="start" x="25.5" y="-269" font-family="Helvetica,sans-Serif" font-size="10.00">+ isEmpty()</text>
<text text-anchor="start" x="25.5" y="-258" font-family="Helvetica,sans-Serif" font-size="10.00">+ isPosTrackID()</text>
<text text-anchor="start" x="25.5" y="-247" font-family="Helvetica,sans-Serif" font-size="10.00">+ operator ULong64_t()</text>
<text text-anchor="start" x="25.5" y="-236" font-family="Helvetica,sans-Serif" font-size="10.00">+ unset()</text>
<text text-anchor="start" x="25.5" y="-225" font-family="Helvetica,sans-Serif" font-size="10.00">+ set()</text>
<text text-anchor="start" x="25.5" y="-214" font-family="Helvetica,sans-Serif" font-size="10.00">+ getTrackID()</text>
<text text-anchor="start" x="25.5" y="-203" font-family="Helvetica,sans-Serif" font-size="10.00">+ getEventID()</text>
<text text-anchor="start" x="25.5" y="-192" font-family="Helvetica,sans-Serif" font-size="10.00">+ getSourceID()</text>
<text text-anchor="start" x="25.5" y="-181" font-family="Helvetica,sans-Serif" font-size="10.00">+ get()</text>
<text text-anchor="start" x="25.5" y="-170" font-family="Helvetica,sans-Serif" font-size="10.00">+ print()</text>
<text text-anchor="start" x="25.5" y="-159" font-family="Helvetica,sans-Serif" font-size="10.00">+ ClassDefNV()</text>
<text text-anchor="start" x="25.5" y="-148" font-family="Helvetica,sans-Serif" font-size="10.00">+ maxSourceID()</text>
<text text-anchor="start" x="25.5" y="-137" font-family="Helvetica,sans-Serif" font-size="10.00">+ maxEventID()</text>
<text text-anchor="start" x="25.5" y="-126" font-family="Helvetica,sans-Serif" font-size="10.00">+ maxTrackID()</text>
</a>
</g>
</g>
<!-- Node2&#45;&gt;Node1 -->
<g id="edge1" class="edge"><title>Node2&#45;&gt;Node1</title>
<path fill="none" stroke="midnightblue" d="M76,-108.774C76,-98.4679 76,-88.6691 76,-79.8879"/>
<polygon fill="none" stroke="midnightblue" points="72.5001,-108.794 76,-118.794 79.5001,-108.794 72.5001,-108.794"/>
</g>
<!-- Node3 -->
<g id="node3" class="node"><title>Node3</title>
<polygon fill="none" stroke="#bfbfbf" points="0,-444.5 0,-501.5 64,-501.5 64,-444.5 0,-444.5"/>
<text text-anchor="middle" x="32" y="-489.5" font-family="Helvetica,sans-Serif" font-size="10.00">ULong64_t</text>
<polyline fill="none" stroke="#bfbfbf" points="0,-482.5 64,-482.5 "/>
<text text-anchor="middle" x="32" y="-470.5" font-family="Helvetica,sans-Serif" font-size="10.00"> </text>
<polyline fill="none" stroke="#bfbfbf" points="0,-463.5 64,-463.5 "/>
<text text-anchor="middle" x="32" y="-451.5" font-family="Helvetica,sans-Serif" font-size="10.00"> </text>
</g>
<!-- Node3&#45;&gt;Node2 -->
<g id="edge2" class="edge"><title>Node3&#45;&gt;Node2</title>
<path fill="none" stroke="#404040" d="M30.2687,-444.258C29.6538,-426.378 29.7767,-402.689 33,-382 33.3446,-379.788 33.7164,-377.563 34.1131,-375.327"/>
<polygon fill="none" stroke="#404040" points="34.1619,-375.077 31.3842,-368.422 36.4587,-363.298 39.2363,-369.953 34.1619,-375.077"/>
<text text-anchor="middle" x="66" y="-418" font-family="Helvetica,sans-Serif" font-size="10.00"> +maskFull</text>
<text text-anchor="middle" x="66" y="-407" font-family="Helvetica,sans-Serif" font-size="10.00">+maskSrcID</text>
<text text-anchor="middle" x="66" y="-396" font-family="Helvetica,sans-Serif" font-size="10.00">+maskEvID</text>
<text text-anchor="middle" x="66" y="-385" font-family="Helvetica,sans-Serif" font-size="10.00">+maskTrackID</text>
</g>
<!-- Node4 -->
<g id="node4" class="node"><title>Node4</title>
<polygon fill="none" stroke="#bfbfbf" points="106.5,-444.5 106.5,-501.5 135.5,-501.5 135.5,-444.5 106.5,-444.5"/>
<text text-anchor="middle" x="121" y="-489.5" font-family="Helvetica,sans-Serif" font-size="10.00">int</text>
<polyline fill="none" stroke="#bfbfbf" points="106.5,-482.5 135.5,-482.5 "/>
<text text-anchor="middle" x="121" y="-470.5" font-family="Helvetica,sans-Serif" font-size="10.00"> </text>
<polyline fill="none" stroke="#bfbfbf" points="106.5,-463.5 135.5,-463.5 "/>
<text text-anchor="middle" x="121" y="-451.5" font-family="Helvetica,sans-Serif" font-size="10.00"> </text>
</g>
<!-- Node4&#45;&gt;Node2 -->
<g id="edge3" class="edge"><title>Node4&#45;&gt;Node2</title>
<path fill="none" stroke="#404040" d="M115.572,-444.257C112.055,-426.28 107.188,-401.403 102.067,-375.234"/>
<polygon fill="none" stroke="#404040" points="102.005,-374.916 96.9276,-369.795 99.7011,-363.139 104.779,-368.259 102.005,-374.916"/>
<text text-anchor="middle" x="143.5" y="-412.5" font-family="Helvetica,sans-Serif" font-size="10.00"> +nbitsSrcID</text>
<text text-anchor="middle" x="143.5" y="-401.5" font-family="Helvetica,sans-Serif" font-size="10.00">+nbitsTrackID</text>
<text text-anchor="middle" x="143.5" y="-390.5" font-family="Helvetica,sans-Serif" font-size="10.00">+nbitsEvID</text>
</g>
</g>
</svg>
