<?xml version="1.0" encoding="UTF-8" standalone="no"?>
<!DOCTYPE svg PUBLIC "-//W3C//DTD SVG 1.1//EN"
 "http://www.w3.org/Graphics/SVG/1.1/DTD/svg11.dtd">
<!-- Generated by graphviz version 2.36.0 (20140111.2315)
 -->
<!-- Title: /home/travis/build/AliceO2Group/AliceO2/macro/initSimGeomAndField.C Pages: 1 -->
<svg width="2584pt" height="422pt"
 viewBox="0.00 0.00 2584.00 422.00" xmlns="http://www.w3.org/2000/svg" xmlns:xlink="http://www.w3.org/1999/xlink">
<g id="graph0" class="graph" transform="scale(1 1) rotate(0) translate(4 418)">
<title>/home/travis/build/AliceO2Group/AliceO2/macro/initSimGeomAndField.C</title>
<!-- Node1 -->
<g id="node1" class="node"><title>Node1</title>
<polygon fill="#bfbfbf" stroke="black" points="644.5,-372.5 644.5,-413.5 799.5,-413.5 799.5,-372.5 644.5,-372.5"/>
<text text-anchor="start" x="652.5" y="-401.5" font-family="Helvetica,sans-Serif" font-size="10.00">/home/travis/build</text>
<text text-anchor="start" x="652.5" y="-390.5" font-family="Helvetica,sans-Serif" font-size="10.00">/AliceO2Group/AliceO2</text>
<text text-anchor="middle" x="722" y="-379.5" font-family="Helvetica,sans-Serif" font-size="10.00">/macro/initSimGeomAndField.C</text>
</g>
<!-- Node2 -->
<g id="node2" class="node"><title>Node2</title>
<polygon fill="none" stroke="#bfbfbf" points="467.5,-316.5 467.5,-335.5 514.5,-335.5 514.5,-316.5 467.5,-316.5"/>
<text text-anchor="middle" x="491" y="-323.5" font-family="Helvetica,sans-Serif" font-size="10.00">TFile.h</text>
</g>
<!-- Node1&#45;&gt;Node2 -->
<g id="edge1" class="edge"><title>Node1&#45;&gt;Node2</title>
<path fill="none" stroke="midnightblue" d="M652.692,-372.498C610.178,-360.535 557.667,-345.759 524.249,-336.356"/>
<polygon fill="midnightblue" stroke="midnightblue" points="525.097,-332.959 514.523,-333.619 523.201,-339.697 525.097,-332.959"/>
</g>
<!-- Node3 -->
<g id="node3" class="node"><title>Node3</title>
<polygon fill="none" stroke="#bfbfbf" points="533,-316.5 533,-335.5 649,-335.5 649,-316.5 533,-316.5"/>
<text text-anchor="middle" x="591" y="-323.5" font-family="Helvetica,sans-Serif" font-size="10.00">TGeoGlobalMagField.h</text>
</g>
<!-- Node1&#45;&gt;Node3 -->
<g id="edge2" class="edge"><title>Node1&#45;&gt;Node3</title>
<path fill="none" stroke="midnightblue" d="M682.696,-372.498C661.645,-362.053 636.273,-349.464 617.559,-340.178"/>
<polygon fill="midnightblue" stroke="midnightblue" points="618.952,-336.962 608.438,-335.652 615.84,-343.233 618.952,-336.962"/>
</g>
<!-- Node4 -->
<g id="node4" class="node"><title>Node4</title>
<g id="a_node4"><a xlink:href="../../db/d4b/MagneticField_8h.html" target="_top" xlink:title="Definition of the MagF class. ">
<polygon fill="none" stroke="black" points="667,-316.5 667,-335.5 777,-335.5 777,-316.5 667,-316.5"/>
<text text-anchor="middle" x="722" y="-323.5" font-family="Helvetica,sans-Serif" font-size="10.00">Field/MagneticField.h</text>
</a>
</g>
</g>
<!-- Node1&#45;&gt;Node4 -->
<g id="edge3" class="edge"><title>Node1&#45;&gt;Node4</title>
<path fill="none" stroke="midnightblue" d="M722,-372.498C722,-364.065 722,-354.235 722,-345.874"/>
<polygon fill="midnightblue" stroke="midnightblue" points="725.5,-345.652 722,-335.652 718.5,-345.653 725.5,-345.652"/>
</g>
<!-- Node18 -->
<g id="node18" class="node"><title>Node18</title>
<polygon fill="none" stroke="#bfbfbf" points="1108.5,-198.5 1108.5,-217.5 1149.5,-217.5 1149.5,-198.5 1108.5,-198.5"/>
<text text-anchor="middle" x="1129" y="-205.5" font-family="Helvetica,sans-Serif" font-size="10.00">string</text>
</g>
<!-- Node1&#45;&gt;Node18 -->
<g id="edge60" class="edge"><title>Node1&#45;&gt;Node18</title>
<path fill="none" stroke="midnightblue" d="M793.691,-372.461C858.145,-353.431 954.34,-321.351 1032,-280 1061.87,-264.094 1092.82,-239.85 1111.5,-224.214"/>
<polygon fill="midnightblue" stroke="midnightblue" points="1113.81,-226.839 1119.17,-217.696 1109.28,-221.505 1113.81,-226.839"/>
</g>
<!-- Node32 -->
<g id="node32" class="node"><title>Node32</title>
<g id="a_node32"><a xlink:href="../../de/d28/GRPObject_8h.html" target="_top" xlink:title="Header of the General Run Parameters object. ">
<polygon fill="none" stroke="black" points="2042,-193 2042,-223 2166,-223 2166,-193 2042,-193"/>
<text text-anchor="start" x="2050" y="-211" font-family="Helvetica,sans-Serif" font-size="10.00">DataFormatsParameters</text>
<text text-anchor="middle" x="2104" y="-200" font-family="Helvetica,sans-Serif" font-size="10.00">/GRPObject.h</text>
</a>
</g>
</g>
<!-- Node1&#45;&gt;Node32 -->
<g id="edge43" class="edge"><title>Node1&#45;&gt;Node32</title>
<path fill="none" stroke="midnightblue" d="M799.762,-381.703C1044.24,-349.33 1795.08,-249.906 2031.76,-218.566"/>
<polygon fill="midnightblue" stroke="midnightblue" points="2032.51,-221.997 2041.97,-217.214 2031.6,-215.057 2032.51,-221.997"/>
</g>
<!-- Node5 -->
<g id="node5" class="node"><title>Node5</title>
<polygon fill="none" stroke="#bfbfbf" points="804,-260.5 804,-279.5 866,-279.5 866,-260.5 804,-260.5"/>
<text text-anchor="middle" x="835" y="-267.5" font-family="Helvetica,sans-Serif" font-size="10.00">FairField.h</text>
</g>
<!-- Node4&#45;&gt;Node5 -->
<g id="edge4" class="edge"><title>Node4&#45;&gt;Node5</title>
<path fill="none" stroke="midnightblue" d="M739.905,-316.444C758.254,-307.675 787.005,-293.935 808.094,-283.858"/>
<polygon fill="midnightblue" stroke="midnightblue" points="809.665,-286.986 817.179,-279.516 806.647,-280.67 809.665,-286.986"/>
</g>
<!-- Node6 -->
<g id="node6" class="node"><title>Node6</title>
<g id="a_node6"><a xlink:href="../../d3/d91/MagFieldParam_8h.html" target="_top" xlink:title="Definition of the MagFieldParam: container for ALICE mag. field parameters. ">
<polygon fill="none" stroke="black" points="476.5,-260.5 476.5,-279.5 593.5,-279.5 593.5,-260.5 476.5,-260.5"/>
<text text-anchor="middle" x="535" y="-267.5" font-family="Helvetica,sans-Serif" font-size="10.00">Field/MagFieldParam.h</text>
</a>
</g>
</g>
<!-- Node4&#45;&gt;Node6 -->
<g id="edge5" class="edge"><title>Node4&#45;&gt;Node6</title>
<path fill="none" stroke="midnightblue" d="M692.369,-316.444C660.5,-307.241 609.667,-292.562 574.436,-282.388"/>
<polygon fill="midnightblue" stroke="midnightblue" points="575.071,-278.928 564.492,-279.516 573.128,-285.653 575.071,-278.928"/>
</g>
<!-- Node9 -->
<g id="node9" class="node"><title>Node9</title>
<g id="a_node9"><a xlink:href="../../dd/dfb/MagneticWrapperChebyshev_8h.html" target="_top" xlink:title="Field/MagneticWrapperChebyshev.h">
<polygon fill="none" stroke="black" points="241.5,-260.5 241.5,-279.5 416.5,-279.5 416.5,-260.5 241.5,-260.5"/>
<text text-anchor="middle" x="329" y="-267.5" font-family="Helvetica,sans-Serif" font-size="10.00">Field/MagneticWrapperChebyshev.h</text>
</a>
</g>
</g>
<!-- Node4&#45;&gt;Node9 -->
<g id="edge8" class="edge"><title>Node4&#45;&gt;Node9</title>
<path fill="none" stroke="midnightblue" d="M666.682,-317.336C663.406,-316.883 660.16,-316.436 657,-316 568.991,-303.87 467.688,-289.983 401.226,-280.883"/>
<polygon fill="midnightblue" stroke="midnightblue" points="401.655,-277.409 391.273,-279.52 400.706,-284.344 401.655,-277.409"/>
</g>
<!-- Node11 -->
<g id="node11" class="node"><title>Node11</title>
<polygon fill="none" stroke="#bfbfbf" points="0,-62.5 0,-81.5 62,-81.5 62,-62.5 0,-62.5"/>
<text text-anchor="middle" x="31" y="-69.5" font-family="Helvetica,sans-Serif" font-size="10.00">TNamed.h</text>
</g>
<!-- Node4&#45;&gt;Node11 -->
<g id="edge41" class="edge"><title>Node4&#45;&gt;Node11</title>
<path fill="none" stroke="midnightblue" d="M666.707,-317.141C663.425,-316.737 660.17,-316.353 657,-316 525.558,-301.344 170.96,-308.237 69,-224 42.1408,-201.81 38.969,-189.666 30,-156 26.3387,-142.257 29.8606,-138.222 30,-124 30.1048,-113.307 30.3332,-101.355 30.5453,-91.7103"/>
<polygon fill="midnightblue" stroke="midnightblue" points="34.0455,-91.7407 30.7784,-81.6621 27.0474,-91.5782 34.0455,-91.7407"/>
</g>
<!-- Node16 -->
<g id="node16" class="node"><title>Node16</title>
<polygon fill="none" stroke="#bfbfbf" points="613,-62.5 613,-81.5 669,-81.5 669,-62.5 613,-62.5"/>
<text text-anchor="middle" x="641" y="-69.5" font-family="Helvetica,sans-Serif" font-size="10.00">Rtypes.h</text>
</g>
<!-- Node4&#45;&gt;Node16 -->
<g id="edge40" class="edge"><title>Node4&#45;&gt;Node16</title>
<path fill="none" stroke="midnightblue" d="M690.977,-316.436C672.968,-309.694 651.769,-298.302 641,-280 605.171,-219.108 624.371,-129.663 635.212,-91.4303"/>
<polygon fill="midnightblue" stroke="midnightblue" points="638.615,-92.2649 638.117,-81.6817 631.907,-90.2658 638.615,-92.2649"/>
</g>
<!-- Node17 -->
<g id="node17" class="node"><title>Node17</title>
<g id="a_node17"><a xlink:href="../../da/df4/MagFieldFast_8h.html" target="_top" xlink:title="Definition of the fast magnetic field parametrization MagFieldFast. ">
<polygon fill="none" stroke="black" points="915,-260.5 915,-279.5 1023,-279.5 1023,-260.5 915,-260.5"/>
<text text-anchor="middle" x="969" y="-267.5" font-family="Helvetica,sans-Serif" font-size="10.00">Field/MagFieldFast.h</text>
</a>
</g>
</g>
<!-- Node4&#45;&gt;Node17 -->
<g id="edge24" class="edge"><title>Node4&#45;&gt;Node17</title>
<path fill="none" stroke="midnightblue" d="M761.138,-316.444C804.226,-307.023 873.559,-291.866 920.171,-281.675"/>
<polygon fill="midnightblue" stroke="midnightblue" points="921.024,-285.072 930.045,-279.516 919.528,-278.233 921.024,-285.072"/>
</g>
<!-- Node30 -->
<g id="node30" class="node"><title>Node30</title>
<polygon fill="none" stroke="#bfbfbf" points="650.5,-260.5 650.5,-279.5 715.5,-279.5 715.5,-260.5 650.5,-260.5"/>
<text text-anchor="middle" x="683" y="-267.5" font-family="Helvetica,sans-Serif" font-size="10.00">TSystem.h</text>
</g>
<!-- Node4&#45;&gt;Node30 -->
<g id="edge39" class="edge"><title>Node4&#45;&gt;Node30</title>
<path fill="none" stroke="midnightblue" d="M715.56,-316.083C710.051,-308.455 701.969,-297.264 695.235,-287.941"/>
<polygon fill="midnightblue" stroke="midnightblue" points="698.013,-285.809 689.32,-279.751 692.338,-289.907 698.013,-285.809"/>
</g>
<!-- Node31 -->
<g id="node31" class="node"><title>Node31</title>
<polygon fill="none" stroke="#bfbfbf" points="734,-260.5 734,-279.5 786,-279.5 786,-260.5 734,-260.5"/>
<text text-anchor="middle" x="760" y="-267.5" font-family="Helvetica,sans-Serif" font-size="10.00">memory</text>
</g>
<!-- Node4&#45;&gt;Node31 -->
<g id="edge42" class="edge"><title>Node4&#45;&gt;Node31</title>
<path fill="none" stroke="midnightblue" d="M728.275,-316.083C733.642,-308.455 741.518,-297.264 748.079,-287.941"/>
<polygon fill="midnightblue" stroke="midnightblue" points="750.949,-289.943 753.842,-279.751 745.225,-285.915 750.949,-289.943"/>
</g>
<!-- Node7 -->
<g id="node7" class="node"><title>Node7</title>
<polygon fill="none" stroke="#bfbfbf" points="488.5,-198.5 488.5,-217.5 593.5,-217.5 593.5,-198.5 488.5,-198.5"/>
<text text-anchor="middle" x="541" y="-205.5" font-family="Helvetica,sans-Serif" font-size="10.00">FairParGenericSet.h</text>
</g>
<!-- Node6&#45;&gt;Node7 -->
<g id="edge6" class="edge"><title>Node6&#45;&gt;Node7</title>
<path fill="none" stroke="midnightblue" d="M535.86,-260.403C536.706,-251.938 538.027,-238.728 539.118,-227.82"/>
<polygon fill="midnightblue" stroke="midnightblue" points="542.629,-227.879 540.142,-217.581 535.664,-227.183 542.629,-227.879"/>
</g>
<!-- Node8 -->
<g id="node8" class="node"><title>Node8</title>
<polygon fill="none" stroke="#bfbfbf" points="450,-130.5 450,-149.5 506,-149.5 506,-130.5 450,-130.5"/>
<text text-anchor="middle" x="478" y="-137.5" font-family="Helvetica,sans-Serif" font-size="10.00">TString.h</text>
</g>
<!-- Node6&#45;&gt;Node8 -->
<g id="edge7" class="edge"><title>Node6&#45;&gt;Node8</title>
<path fill="none" stroke="midnightblue" d="M517.552,-260.439C504.297,-252.876 487.024,-240.485 479,-224 469.119,-203.698 470.958,-177.157 473.873,-159.618"/>
<polygon fill="midnightblue" stroke="midnightblue" points="477.358,-160.033 475.831,-149.549 470.486,-158.697 477.358,-160.033"/>
</g>
<!-- Node10 -->
<g id="node10" class="node"><title>Node10</title>
<polygon fill="none" stroke="#bfbfbf" points="302.5,-198.5 302.5,-217.5 355.5,-217.5 355.5,-198.5 302.5,-198.5"/>
<text text-anchor="middle" x="329" y="-205.5" font-family="Helvetica,sans-Serif" font-size="10.00">TMath.h</text>
</g>
<!-- Node9&#45;&gt;Node10 -->
<g id="edge9" class="edge"><title>Node9&#45;&gt;Node10</title>
<path fill="none" stroke="midnightblue" d="M329,-260.403C329,-251.938 329,-238.728 329,-227.82"/>
<polygon fill="midnightblue" stroke="midnightblue" points="332.5,-227.581 329,-217.581 325.5,-227.581 332.5,-227.581"/>
</g>
<!-- Node9&#45;&gt;Node11 -->
<g id="edge10" class="edge"><title>Node9&#45;&gt;Node11</title>
<path fill="none" stroke="midnightblue" d="M258.651,-260.499C219.934,-253.984 171.812,-242.802 132,-224 87.3065,-202.892 69.1633,-198.543 44,-156 32.3659,-136.331 30.1031,-109.648 30.0985,-91.9038"/>
<polygon fill="midnightblue" stroke="midnightblue" points="33.6024,-91.7798 30.3457,-81.698 26.6045,-91.6102 33.6024,-91.7798"/>
</g>
<!-- Node12 -->
<g id="node12" class="node"><title>Node12</title>
<polygon fill="none" stroke="#bfbfbf" points="324.5,-130.5 324.5,-149.5 393.5,-149.5 393.5,-130.5 324.5,-130.5"/>
<text text-anchor="middle" x="359" y="-137.5" font-family="Helvetica,sans-Serif" font-size="10.00">TObjArray.h</text>
</g>
<!-- Node9&#45;&gt;Node12 -->
<g id="edge11" class="edge"><title>Node9&#45;&gt;Node12</title>
<path fill="none" stroke="midnightblue" d="M338.556,-260.45C347.088,-252.12 358.989,-238.604 364,-224 371.302,-202.718 367.859,-176.585 364.049,-159.396"/>
<polygon fill="midnightblue" stroke="midnightblue" points="367.407,-158.395 361.601,-149.533 360.613,-160.081 367.407,-158.395"/>
</g>
<!-- Node13 -->
<g id="node13" class="node"><title>Node13</title>
<g id="a_node13"><a xlink:href="../../d8/d64/Chebyshev3D_8h.html" target="_top" xlink:title="MathUtils/Chebyshev3D.h">
<polygon fill="none" stroke="black" points="152,-198.5 152,-217.5 284,-217.5 284,-198.5 152,-198.5"/>
<text text-anchor="middle" x="218" y="-205.5" font-family="Helvetica,sans-Serif" font-size="10.00">MathUtils/Chebyshev3D.h</text>
</a>
</g>
</g>
<!-- Node9&#45;&gt;Node13 -->
<g id="edge12" class="edge"><title>Node9&#45;&gt;Node13</title>
<path fill="none" stroke="midnightblue" d="M313.096,-260.403C294.715,-250.468 264.244,-233.997 242.755,-222.381"/>
<polygon fill="midnightblue" stroke="midnightblue" points="244.335,-219.257 233.874,-217.581 241.007,-225.415 244.335,-219.257"/>
</g>
<!-- Node15 -->
<g id="node15" class="node"><title>Node15</title>
<g id="a_node15"><a xlink:href="../../d4/d08/Chebyshev3DCalc_8h.html" target="_top" xlink:title="MathUtils/Chebyshev3DCalc.h">
<polygon fill="none" stroke="black" points="78,-130.5 78,-149.5 230,-149.5 230,-130.5 78,-130.5"/>
<text text-anchor="middle" x="154" y="-137.5" font-family="Helvetica,sans-Serif" font-size="10.00">MathUtils/Chebyshev3DCalc.h</text>
</a>
</g>
</g>
<!-- Node9&#45;&gt;Node15 -->
<g id="edge22" class="edge"><title>Node9&#45;&gt;Node15</title>
<path fill="none" stroke="midnightblue" d="M254.916,-260.463C209.353,-253.515 157.074,-241.885 143,-224 128.505,-205.58 136.635,-177.435 144.638,-159.124"/>
<polygon fill="midnightblue" stroke="midnightblue" points="147.911,-160.39 149.045,-149.856 141.59,-157.384 147.911,-160.39"/>
</g>
<!-- Node9&#45;&gt;Node16 -->
<g id="edge23" class="edge"><title>Node9&#45;&gt;Node16</title>
<path fill="none" stroke="midnightblue" d="M341.119,-260.292C352.329,-251.849 369.017,-238.258 381,-224 414.348,-184.322 399.428,-154.954 441,-124 489.059,-88.2159 559.664,-77.4199 602.858,-74.2355"/>
<polygon fill="midnightblue" stroke="midnightblue" points="603.197,-77.7211 612.955,-73.5934 602.753,-70.7352 603.197,-77.7211"/>
</g>
<!-- Node13&#45;&gt;Node8 -->
<g id="edge21" class="edge"><title>Node13&#45;&gt;Node8</title>
<path fill="none" stroke="midnightblue" d="M251.724,-198.439C300.186,-186.137 389.257,-163.527 439.992,-150.648"/>
<polygon fill="midnightblue" stroke="midnightblue" points="441.074,-153.985 449.906,-148.132 439.352,-147.2 441.074,-153.985"/>
</g>
<!-- Node13&#45;&gt;Node11 -->
<g id="edge13" class="edge"><title>Node13&#45;&gt;Node11</title>
<path fill="none" stroke="midnightblue" d="M160.058,-198.451C129.88,-191.427 94.1365,-178.751 69,-156 50.0337,-138.834 39.8775,-110.318 34.9617,-91.5888"/>
<polygon fill="midnightblue" stroke="midnightblue" points="38.3098,-90.5385 32.5959,-81.6165 31.4988,-92.1544 38.3098,-90.5385"/>
</g>
<!-- Node13&#45;&gt;Node12 -->
<g id="edge14" class="edge"><title>Node13&#45;&gt;Node12</title>
<path fill="none" stroke="midnightblue" d="M236.433,-198.372C260.606,-187.057 303.23,-167.105 331.296,-153.968"/>
<polygon fill="midnightblue" stroke="midnightblue" points="332.989,-157.04 340.562,-149.63 330.021,-150.7 332.989,-157.04"/>
</g>
<!-- Node14 -->
<g id="node14" class="node"><title>Node14</title>
<polygon fill="none" stroke="#bfbfbf" points="184.5,-62.5 184.5,-81.5 227.5,-81.5 227.5,-62.5 184.5,-62.5"/>
<text text-anchor="middle" x="206" y="-69.5" font-family="Helvetica,sans-Serif" font-size="10.00">cstdio</text>
</g>
<!-- Node13&#45;&gt;Node14 -->
<g id="edge15" class="edge"><title>Node13&#45;&gt;Node14</title>
<path fill="none" stroke="midnightblue" d="M223.333,-198.215C231.879,-183 246.914,-150.8 239,-124 235.288,-111.43 227.402,-99.0448 220.271,-89.6276"/>
<polygon fill="midnightblue" stroke="midnightblue" points="222.815,-87.2056 213.825,-81.599 217.356,-91.588 222.815,-87.2056"/>
</g>
<!-- Node13&#45;&gt;Node15 -->
<g id="edge16" class="edge"><title>Node13&#45;&gt;Node15</title>
<path fill="none" stroke="midnightblue" d="M209.633,-198.372C199.532,-187.955 182.332,-170.217 169.725,-157.216"/>
<polygon fill="midnightblue" stroke="midnightblue" points="172.047,-154.584 162.573,-149.841 167.022,-159.457 172.047,-154.584"/>
</g>
<!-- Node13&#45;&gt;Node16 -->
<g id="edge20" class="edge"><title>Node13&#45;&gt;Node16</title>
<path fill="none" stroke="midnightblue" d="M224.985,-198.453C239.644,-181.169 275.54,-142.168 315,-124 411.658,-79.4975 539.683,-72.7258 602.666,-72.3603"/>
<polygon fill="midnightblue" stroke="midnightblue" points="602.927,-75.8603 612.925,-72.3551 602.923,-68.8603 602.927,-75.8603"/>
</g>
<!-- Node15&#45;&gt;Node11 -->
<g id="edge17" class="edge"><title>Node15&#45;&gt;Node11</title>
<path fill="none" stroke="midnightblue" d="M137.92,-130.372C117.109,-119.205 80.6223,-99.6266 56.1361,-86.4876"/>
<polygon fill="midnightblue" stroke="midnightblue" points="57.5505,-83.2746 47.084,-81.6305 54.2408,-89.4428 57.5505,-83.2746"/>
</g>
<!-- Node15&#45;&gt;Node14 -->
<g id="edge18" class="edge"><title>Node15&#45;&gt;Node14</title>
<path fill="none" stroke="midnightblue" d="M160.798,-130.372C168.851,-120.151 182.455,-102.884 192.64,-89.9571"/>
<polygon fill="midnightblue" stroke="midnightblue" points="195.595,-91.8621 199.034,-81.8411 190.096,-87.53 195.595,-91.8621"/>
</g>
<!-- Node15&#45;&gt;Node16 -->
<g id="edge19" class="edge"><title>Node15&#45;&gt;Node16</title>
<path fill="none" stroke="midnightblue" d="M217.167,-130.439C319.716,-116.542 519.346,-89.4869 602.844,-78.171"/>
<polygon fill="midnightblue" stroke="midnightblue" points="603.464,-81.6191 612.904,-76.8077 602.524,-74.6825 603.464,-81.6191"/>
</g>
<!-- Node17&#45;&gt;Node16 -->
<g id="edge25" class="edge"><title>Node17&#45;&gt;Node16</title>
<path fill="none" stroke="midnightblue" d="M914.832,-261.206C850.232,-249.261 742.642,-220.61 676,-156 657.876,-138.429 648.693,-110.019 644.381,-91.423"/>
<polygon fill="midnightblue" stroke="midnightblue" points="647.787,-90.6129 642.331,-81.5309 640.933,-92.0331 647.787,-90.6129"/>
</g>
<!-- Node17&#45;&gt;Node18 -->
<g id="edge26" class="edge"><title>Node17&#45;&gt;Node18</title>
<path fill="none" stroke="midnightblue" d="M997.037,-260.463C1023.64,-252.09 1064.55,-238.502 1099,-224 1100.41,-223.407 1101.84,-222.778 1103.29,-222.126"/>
<polygon fill="midnightblue" stroke="midnightblue" points="1105.16,-225.111 1112.68,-217.645 1102.14,-218.793 1105.16,-225.111"/>
</g>
<!-- Node19 -->
<g id="node19" class="node"><title>Node19</title>
<g id="a_node19"><a xlink:href="../../dd/d76/Cartesian3D_8h.html" target="_top" xlink:title="MathUtils/Cartesian3D.h">
<polygon fill="none" stroke="black" points="965.5,-198.5 965.5,-217.5 1090.5,-217.5 1090.5,-198.5 965.5,-198.5"/>
<text text-anchor="middle" x="1028" y="-205.5" font-family="Helvetica,sans-Serif" font-size="10.00">MathUtils/Cartesian3D.h</text>
</a>
</g>
</g>
<!-- Node17&#45;&gt;Node19 -->
<g id="edge27" class="edge"><title>Node17&#45;&gt;Node19</title>
<path fill="none" stroke="midnightblue" d="M977.453,-260.403C986.566,-251.136 1001.27,-236.183 1012.48,-224.788"/>
<polygon fill="midnightblue" stroke="midnightblue" points="1015.05,-227.165 1019.56,-217.581 1010.06,-222.257 1015.05,-227.165"/>
</g>
<!-- Node19&#45;&gt;Node16 -->
<g id="edge31" class="edge"><title>Node19&#45;&gt;Node16</title>
<path fill="none" stroke="midnightblue" d="M965.265,-201.594C887.125,-194.028 758.806,-178.62 717,-156 688.056,-140.339 664.299,-109.355 651.433,-89.9917"/>
<polygon fill="midnightblue" stroke="midnightblue" points="654.359,-88.0699 646.017,-81.5376 648.464,-91.846 654.359,-88.0699"/>
</g>
<!-- Node20 -->
<g id="node20" class="node"><title>Node20</title>
<polygon fill="none" stroke="#bfbfbf" points="797.5,-130.5 797.5,-149.5 946.5,-149.5 946.5,-130.5 797.5,-130.5"/>
<text text-anchor="middle" x="872" y="-137.5" font-family="Helvetica,sans-Serif" font-size="10.00">Math/GenVector/Rotation3D.h</text>
</g>
<!-- Node19&#45;&gt;Node20 -->
<g id="edge28" class="edge"><title>Node19&#45;&gt;Node20</title>
<path fill="none" stroke="midnightblue" d="M1007.61,-198.372C980.628,-186.958 932.878,-166.756 901.841,-153.625"/>
<polygon fill="midnightblue" stroke="midnightblue" points="902.973,-150.304 892.399,-149.63 900.245,-156.75 902.973,-150.304"/>
</g>
<!-- Node21 -->
<g id="node21" class="node"><title>Node21</title>
<polygon fill="none" stroke="#bfbfbf" points="965,-130.5 965,-149.5 1121,-149.5 1121,-130.5 965,-130.5"/>
<text text-anchor="middle" x="1043" y="-137.5" font-family="Helvetica,sans-Serif" font-size="10.00">Math/GenVector/Transform3D.h</text>
</g>
<!-- Node19&#45;&gt;Node21 -->
<g id="edge29" class="edge"><title>Node19&#45;&gt;Node21</title>
<path fill="none" stroke="midnightblue" d="M1029.96,-198.372C1032.17,-188.643 1035.83,-172.528 1038.72,-159.85"/>
<polygon fill="midnightblue" stroke="midnightblue" points="1042.19,-160.368 1040.99,-149.841 1035.36,-158.817 1042.19,-160.368"/>
</g>
<!-- Node22 -->
<g id="node22" class="node"><title>Node22</title>
<polygon fill="none" stroke="#bfbfbf" points="1139,-130.5 1139,-149.5 1299,-149.5 1299,-130.5 1139,-130.5"/>
<text text-anchor="middle" x="1219" y="-137.5" font-family="Helvetica,sans-Serif" font-size="10.00">Math/GenVector/Translation3D.h</text>
</g>
<!-- Node19&#45;&gt;Node22 -->
<g id="edge30" class="edge"><title>Node19&#45;&gt;Node22</title>
<path fill="none" stroke="midnightblue" d="M1052.97,-198.372C1086.66,-186.728 1146.83,-165.939 1184.73,-152.841"/>
<polygon fill="midnightblue" stroke="midnightblue" points="1186.02,-156.1 1194.33,-149.526 1183.73,-149.484 1186.02,-156.1"/>
</g>
<!-- Node23 -->
<g id="node23" class="node"><title>Node23</title>
<polygon fill="none" stroke="#bfbfbf" points="1317,-130.5 1317,-149.5 1393,-149.5 1393,-130.5 1317,-130.5"/>
<text text-anchor="middle" x="1355" y="-137.5" font-family="Helvetica,sans-Serif" font-size="10.00">TGeoMatrix.h</text>
</g>
<!-- Node19&#45;&gt;Node23 -->
<g id="edge32" class="edge"><title>Node19&#45;&gt;Node23</title>
<path fill="none" stroke="midnightblue" d="M1067.01,-198.483C1077.39,-196.292 1088.61,-193.992 1099,-192 1191.57,-174.255 1216.44,-178.382 1308,-156 1312.12,-154.993 1316.4,-153.815 1320.63,-152.569"/>
<polygon fill="midnightblue" stroke="midnightblue" points="1321.78,-155.879 1330.3,-149.589 1319.72,-149.189 1321.78,-155.879"/>
</g>
<!-- Node24 -->
<g id="node24" class="node"><title>Node24</title>
<polygon fill="none" stroke="#bfbfbf" points="1411.5,-125 1411.5,-155 1562.5,-155 1562.5,-125 1411.5,-125"/>
<text text-anchor="start" x="1419.5" y="-143" font-family="Helvetica,sans-Serif" font-size="10.00">Math/GenVector/Displacement</text>
<text text-anchor="middle" x="1487" y="-132" font-family="Helvetica,sans-Serif" font-size="10.00">Vector3D.h</text>
</g>
<!-- Node19&#45;&gt;Node24 -->
<g id="edge33" class="edge"><title>Node19&#45;&gt;Node24</title>
<path fill="none" stroke="midnightblue" d="M1065.47,-198.427C1076.25,-196.137 1088.06,-193.802 1099,-192 1229.67,-170.478 1266.14,-175.534 1401.57,-156.002"/>
<polygon fill="midnightblue" stroke="midnightblue" points="1402.1,-159.461 1411.49,-154.553 1401.09,-152.535 1402.1,-159.461"/>
</g>
<!-- Node25 -->
<g id="node25" class="node"><title>Node25</title>
<polygon fill="none" stroke="#bfbfbf" points="1581,-130.5 1581,-149.5 1757,-149.5 1757,-130.5 1581,-130.5"/>
<text text-anchor="middle" x="1669" y="-137.5" font-family="Helvetica,sans-Serif" font-size="10.00">Math/GenVector/PositionVector3D.h</text>
</g>
<!-- Node19&#45;&gt;Node25 -->
<g id="edge34" class="edge"><title>Node19&#45;&gt;Node25</title>
<path fill="none" stroke="midnightblue" d="M1063.96,-198.441C1075.13,-196.041 1087.53,-193.642 1099,-192 1307.26,-162.191 1361.98,-179.933 1571,-156 1583.02,-154.623 1595.84,-152.871 1608.1,-151.054"/>
<polygon fill="midnightblue" stroke="midnightblue" points="1608.87,-154.477 1618.23,-149.519 1607.82,-147.555 1608.87,-154.477"/>
</g>
<!-- Node26 -->
<g id="node26" class="node"><title>Node26</title>
<g id="a_node26"><a xlink:href="../../d2/dd0/Cartesian2D_8h.html" target="_top" xlink:title="MathUtils/Cartesian2D.h">
<polygon fill="none" stroke="black" points="1813.5,-130.5 1813.5,-149.5 1938.5,-149.5 1938.5,-130.5 1813.5,-130.5"/>
<text text-anchor="middle" x="1876" y="-137.5" font-family="Helvetica,sans-Serif" font-size="10.00">MathUtils/Cartesian2D.h</text>
</a>
</g>
</g>
<!-- Node19&#45;&gt;Node26 -->
<g id="edge35" class="edge"><title>Node19&#45;&gt;Node26</title>
<path fill="none" stroke="midnightblue" d="M1063.21,-198.442C1074.57,-195.982 1087.26,-193.548 1099,-192 1392.89,-153.248 1469.88,-183.871 1765,-156 1779.47,-154.633 1794.96,-152.786 1809.63,-150.855"/>
<polygon fill="midnightblue" stroke="midnightblue" points="1810.19,-154.311 1819.63,-149.51 1809.26,-147.374 1810.19,-154.311"/>
</g>
<!-- Node29 -->
<g id="node29" class="node"><title>Node29</title>
<polygon fill="none" stroke="#bfbfbf" points="726,-130.5 726,-149.5 780,-149.5 780,-130.5 726,-130.5"/>
<text text-anchor="middle" x="753" y="-137.5" font-family="Helvetica,sans-Serif" font-size="10.00">iostream</text>
</g>
<!-- Node19&#45;&gt;Node29 -->
<g id="edge38" class="edge"><title>Node19&#45;&gt;Node29</title>
<path fill="none" stroke="midnightblue" d="M972.879,-198.445C923.716,-190.072 850.124,-175.704 788,-156 785.574,-155.231 783.086,-154.353 780.61,-153.418"/>
<polygon fill="midnightblue" stroke="midnightblue" points="781.854,-150.146 771.272,-149.629 779.222,-156.632 781.854,-150.146"/>
</g>
<!-- Node27 -->
<g id="node27" class="node"><title>Node27</title>
<polygon fill="none" stroke="#bfbfbf" points="1891.5,-57 1891.5,-87 2042.5,-87 2042.5,-57 1891.5,-57"/>
<text text-anchor="start" x="1899.5" y="-75" font-family="Helvetica,sans-Serif" font-size="10.00">Math/GenVector/Displacement</text>
<text text-anchor="middle" x="1967" y="-64" font-family="Helvetica,sans-Serif" font-size="10.00">Vector2D.h</text>
</g>
<!-- Node26&#45;&gt;Node27 -->
<g id="edge36" class="edge"><title>Node26&#45;&gt;Node27</title>
<path fill="none" stroke="midnightblue" d="M1887.9,-130.372C1900.78,-121.029 1921.78,-105.797 1938.91,-93.375"/>
<polygon fill="midnightblue" stroke="midnightblue" points="1941.41,-95.8859 1947.45,-87.1815 1937.3,-90.2194 1941.41,-95.8859"/>
</g>
<!-- Node28 -->
<g id="node28" class="node"><title>Node28</title>
<polygon fill="none" stroke="#bfbfbf" points="1697,-62.5 1697,-81.5 1873,-81.5 1873,-62.5 1697,-62.5"/>
<text text-anchor="middle" x="1785" y="-69.5" font-family="Helvetica,sans-Serif" font-size="10.00">Math/GenVector/PositionVector2D.h</text>
</g>
<!-- Node26&#45;&gt;Node28 -->
<g id="edge37" class="edge"><title>Node26&#45;&gt;Node28</title>
<path fill="none" stroke="midnightblue" d="M1864.1,-130.372C1849.12,-119.502 1823.14,-100.66 1805.06,-87.5474"/>
<polygon fill="midnightblue" stroke="midnightblue" points="1807.05,-84.6684 1796.9,-81.6305 1802.94,-90.3349 1807.05,-84.6684"/>
</g>
<!-- Node32&#45;&gt;Node16 -->
<g id="edge44" class="edge"><title>Node32&#45;&gt;Node16</title>
<path fill="none" stroke="midnightblue" d="M2041.82,-205.417C1979.45,-201.795 1881.87,-190.498 1805,-156 1784.23,-146.678 1786.31,-132.021 1765,-124 1661.66,-85.0972 864.013,-75.1296 679.162,-73.3324"/>
<polygon fill="midnightblue" stroke="midnightblue" points="679.132,-69.832 669.1,-73.2368 679.066,-76.8317 679.132,-69.832"/>
</g>
<!-- Node33 -->
<g id="node33" class="node"><title>Node33</title>
<polygon fill="none" stroke="#bfbfbf" points="2530,-62.5 2530,-81.5 2576,-81.5 2576,-62.5 2530,-62.5"/>
<text text-anchor="middle" x="2553" y="-69.5" font-family="Helvetica,sans-Serif" font-size="10.00">cstdint</text>
</g>
<!-- Node32&#45;&gt;Node33 -->
<g id="edge45" class="edge"><title>Node32&#45;&gt;Node33</title>
<path fill="none" stroke="midnightblue" d="M2166.28,-203.457C2257.55,-197.427 2422.5,-183.101 2475,-156 2504.6,-140.722 2529.01,-109.617 2542.25,-90.1262"/>
<polygon fill="midnightblue" stroke="midnightblue" points="2545.28,-91.8945 2547.83,-81.6111 2539.42,-88.0597 2545.28,-91.8945"/>
</g>
<!-- Node34 -->
<g id="node34" class="node"><title>Node34</title>
<polygon fill="none" stroke="#bfbfbf" points="1956.5,-130.5 1956.5,-149.5 1997.5,-149.5 1997.5,-130.5 1956.5,-130.5"/>
<text text-anchor="middle" x="1977" y="-137.5" font-family="Helvetica,sans-Serif" font-size="10.00">ctime</text>
</g>
<!-- Node32&#45;&gt;Node34 -->
<g id="edge46" class="edge"><title>Node32&#45;&gt;Node34</title>
<path fill="none" stroke="midnightblue" d="M2076.76,-192.841C2054.79,-181.425 2024.12,-165.485 2002.6,-154.303"/>
<polygon fill="midnightblue" stroke="midnightblue" points="2004.19,-151.188 1993.71,-149.682 2000.97,-157.399 2004.19,-151.188"/>
</g>
<!-- Node35 -->
<g id="node35" class="node"><title>Node35</title>
<g id="a_node35"><a xlink:href="../../d4/dc6/LHCConstants_8h.html" target="_top" xlink:title="Header to collect LHC related constants. ">
<polygon fill="none" stroke="black" points="2015,-130.5 2015,-149.5 2193,-149.5 2193,-130.5 2015,-130.5"/>
<text text-anchor="middle" x="2104" y="-137.5" font-family="Helvetica,sans-Serif" font-size="10.00">CommonConstants/LHCConstants.h</text>
</a>
</g>
</g>
<!-- Node32&#45;&gt;Node35 -->
<g id="edge47" class="edge"><title>Node32&#45;&gt;Node35</title>
<path fill="none" stroke="midnightblue" d="M2104,-192.679C2104,-183.101 2104,-170.394 2104,-159.977"/>
<polygon fill="midnightblue" stroke="midnightblue" points="2107.5,-159.828 2104,-149.828 2100.5,-159.828 2107.5,-159.828"/>
</g>
<!-- Node36 -->
<g id="node36" class="node"><title>Node36</title>
<g id="a_node36"><a xlink:href="../../da/d58/Units_8h.html" target="_top" xlink:title="Header to collect definitions for different units. ">
<polygon fill="none" stroke="black" points="2211,-130.5 2211,-149.5 2329,-149.5 2329,-130.5 2211,-130.5"/>
<text text-anchor="middle" x="2270" y="-137.5" font-family="Helvetica,sans-Serif" font-size="10.00">CommonTypes/Units.h</text>
</a>
</g>
</g>
<!-- Node32&#45;&gt;Node36 -->
<g id="edge48" class="edge"><title>Node32&#45;&gt;Node36</title>
<path fill="none" stroke="midnightblue" d="M2139.61,-192.841C2169.1,-181.118 2210.58,-164.624 2238.78,-153.411"/>
<polygon fill="midnightblue" stroke="midnightblue" points="2240.16,-156.629 2248.16,-149.682 2237.58,-150.124 2240.16,-156.629"/>
</g>
<!-- Node37 -->
<g id="node37" class="node"><title>Node37</title>
<g id="a_node37"><a xlink:href="../../d6/d31/DetID_8h.html" target="_top" xlink:title="DetectorsBase/DetID.h">
<polygon fill="none" stroke="black" points="2347.5,-130.5 2347.5,-149.5 2466.5,-149.5 2466.5,-130.5 2347.5,-130.5"/>
<text text-anchor="middle" x="2407" y="-137.5" font-family="Helvetica,sans-Serif" font-size="10.00">DetectorsBase/DetID.h</text>
</a>
</g>
</g>
<!-- Node32&#45;&gt;Node37 -->
<g id="edge49" class="edge"><title>Node32&#45;&gt;Node37</title>
<path fill="none" stroke="midnightblue" d="M2166.05,-193.485C2222.7,-181.145 2305.34,-163.143 2357.62,-151.755"/>
<polygon fill="midnightblue" stroke="midnightblue" points="2358.63,-155.118 2367.66,-149.569 2357.14,-148.278 2358.63,-155.118"/>
</g>
<!-- Node37&#45;&gt;Node16 -->
<g id="edge50" class="edge"><title>Node37&#45;&gt;Node16</title>
<path fill="none" stroke="midnightblue" d="M2373.52,-130.425C2362.3,-127.9 2349.68,-125.433 2338,-124 2001.4,-82.7122 898.838,-74.443 679.241,-73.1925"/>
<polygon fill="midnightblue" stroke="midnightblue" points="679.189,-69.6923 669.17,-73.1366 679.15,-76.6922 679.189,-69.6923"/>
</g>
<!-- Node37&#45;&gt;Node33 -->
<g id="edge54" class="edge"><title>Node37&#45;&gt;Node33</title>
<path fill="none" stroke="midnightblue" d="M2426.2,-130.353C2448.69,-120.221 2487.06,-102.919 2520,-88 2521.58,-87.286 2523.2,-86.5522 2524.83,-85.8113"/>
<polygon fill="midnightblue" stroke="midnightblue" points="2526.5,-88.897 2534.16,-81.5756 2523.6,-82.5232 2526.5,-88.897"/>
</g>
<!-- Node38 -->
<g id="node38" class="node"><title>Node38</title>
<polygon fill="none" stroke="#bfbfbf" points="2151,-0.5 2151,-19.5 2189,-19.5 2189,-0.5 2151,-0.5"/>
<text text-anchor="middle" x="2170" y="-7.5" font-family="Helvetica,sans-Serif" font-size="10.00">array</text>
</g>
<!-- Node37&#45;&gt;Node38 -->
<g id="edge51" class="edge"><title>Node37&#45;&gt;Node38</title>
<path fill="none" stroke="midnightblue" d="M2368.5,-130.473C2305.12,-116.401 2185.61,-89.6865 2184,-88 2169.29,-72.6121 2167.34,-47.2172 2168.04,-29.8285"/>
<polygon fill="midnightblue" stroke="midnightblue" points="2171.54,-29.9719 2168.78,-19.7434 2164.56,-29.4616 2171.54,-29.9719"/>
</g>
<!-- Node39 -->
<g id="node39" class="node"><title>Node39</title>
<polygon fill="none" stroke="#bfbfbf" points="2323.5,-62.5 2323.5,-81.5 2364.5,-81.5 2364.5,-62.5 2323.5,-62.5"/>
<text text-anchor="middle" x="2344" y="-69.5" font-family="Helvetica,sans-Serif" font-size="10.00">bitset</text>
</g>
<!-- Node37&#45;&gt;Node39 -->
<g id="edge52" class="edge"><title>Node37&#45;&gt;Node39</title>
<path fill="none" stroke="midnightblue" d="M2398.76,-130.372C2388.82,-119.955 2371.89,-102.217 2359.48,-89.2162"/>
<polygon fill="midnightblue" stroke="midnightblue" points="2361.88,-86.658 2352.44,-81.8411 2356.81,-91.4914 2361.88,-86.658"/>
</g>
<!-- Node40 -->
<g id="node40" class="node"><title>Node40</title>
<polygon fill="none" stroke="#bfbfbf" points="2382.5,-62.5 2382.5,-81.5 2431.5,-81.5 2431.5,-62.5 2382.5,-62.5"/>
<text text-anchor="middle" x="2407" y="-69.5" font-family="Helvetica,sans-Serif" font-size="10.00">cassert</text>
</g>
<!-- Node37&#45;&gt;Node40 -->
<g id="edge53" class="edge"><title>Node37&#45;&gt;Node40</title>
<path fill="none" stroke="midnightblue" d="M2407,-130.372C2407,-120.643 2407,-104.528 2407,-91.8504"/>
<polygon fill="midnightblue" stroke="midnightblue" points="2410.5,-91.8411 2407,-81.8411 2403.5,-91.8412 2410.5,-91.8411"/>
</g>
<!-- Node41 -->
<g id="node41" class="node"><title>Node41</title>
<polygon fill="none" stroke="#bfbfbf" points="2450,-62.5 2450,-81.5 2512,-81.5 2512,-62.5 2450,-62.5"/>
<text text-anchor="middle" x="2481" y="-69.5" font-family="Helvetica,sans-Serif" font-size="10.00">type_traits</text>
</g>
<!-- Node37&#45;&gt;Node41 -->
<g id="edge55" class="edge"><title>Node37&#45;&gt;Node41</title>
<path fill="none" stroke="midnightblue" d="M2416.67,-130.372C2428.46,-119.856 2448.62,-101.882 2463.23,-88.8496"/>
<polygon fill="midnightblue" stroke="midnightblue" points="2465.95,-91.1093 2471.09,-81.8411 2461.29,-85.8853 2465.95,-91.1093"/>
</g>
<!-- Node42 -->
<g id="node42" class="node"><title>Node42</title>
<g id="a_node42"><a xlink:href="../../d9/ded/Utils_8h.html" target="_top" xlink:title="DetectorsBase/Utils.h">
<polygon fill="none" stroke="black" points="2192.5,-62.5 2192.5,-81.5 2305.5,-81.5 2305.5,-62.5 2192.5,-62.5"/>
<text text-anchor="middle" x="2249" y="-69.5" font-family="Helvetica,sans-Serif" font-size="10.00">DetectorsBase/Utils.h</text>
</a>
</g>
</g>
<!-- Node37&#45;&gt;Node42 -->
<g id="edge56" class="edge"><title>Node37&#45;&gt;Node42</title>
<path fill="none" stroke="midnightblue" d="M2386.34,-130.372C2359.02,-118.958 2310.66,-98.7562 2279.22,-85.6252"/>
<polygon fill="midnightblue" stroke="midnightblue" points="2280.24,-82.2554 2269.66,-81.6305 2277.54,-88.7145 2280.24,-82.2554"/>
</g>
<!-- Node42&#45;&gt;Node38 -->
<g id="edge59" class="edge"><title>Node42&#45;&gt;Node38</title>
<path fill="none" stroke="midnightblue" d="M2237.68,-62.4035C2225.13,-52.8688 2204.65,-37.3154 2189.5,-25.8106"/>
<polygon fill="midnightblue" stroke="midnightblue" points="2191.38,-22.8417 2181.3,-19.5806 2187.14,-28.4162 2191.38,-22.8417"/>
</g>
<!-- Node43 -->
<g id="node43" class="node"><title>Node43</title>
<g id="a_node43"><a xlink:href="../../d1/daa/Base_2include_2DetectorsBase_2Constants_8h.html" target="_top" xlink:title="DetectorsBase/Constants.h">
<polygon fill="none" stroke="black" points="2282,-0.5 2282,-19.5 2420,-19.5 2420,-0.5 2282,-0.5"/>
<text text-anchor="middle" x="2351" y="-7.5" font-family="Helvetica,sans-Serif" font-size="10.00">DetectorsBase/Constants.h</text>
</a>
</g>
</g>
<!-- Node42&#45;&gt;Node43 -->
<g id="edge57" class="edge"><title>Node42&#45;&gt;Node43</title>
<path fill="none" stroke="midnightblue" d="M2263.61,-62.4035C2280.35,-52.5569 2308,-36.2915 2327.72,-24.6949"/>
<polygon fill="midnightblue" stroke="midnightblue" points="2329.57,-27.6676 2336.41,-19.5806 2326.02,-21.6341 2329.57,-27.6676"/>
</g>
<!-- Node44 -->
<g id="node44" class="node"><title>Node44</title>
<polygon fill="none" stroke="#bfbfbf" points="2220,-0.5 2220,-19.5 2264,-19.5 2264,-0.5 2220,-0.5"/>
<text text-anchor="middle" x="2242" y="-7.5" font-family="Helvetica,sans-Serif" font-size="10.00">cmath</text>
</g>
<!-- Node42&#45;&gt;Node44 -->
<g id="edge58" class="edge"><title>Node42&#45;&gt;Node44</title>
<path fill="none" stroke="midnightblue" d="M2248,-62.4035C2247.01,-53.9381 2245.47,-40.7283 2244.2,-29.8199"/>
<polygon fill="midnightblue" stroke="midnightblue" points="2247.64,-29.1076 2243,-19.5806 2240.68,-29.9188 2247.64,-29.1076"/>
</g>
</g>
</svg>
