<?xml version="1.0" encoding="UTF-8" standalone="no"?>
<!DOCTYPE svg PUBLIC "-//W3C//DTD SVG 1.1//EN"
 "http://www.w3.org/Graphics/SVG/1.1/DTD/svg11.dtd">
<!-- Generated by graphviz version 2.36.0 (20140111.2315)
 -->
<!-- Title: o2::trd::Detector Pages: 1 -->
<svg width="237pt" height="826pt"
 viewBox="0.00 0.00 237.00 826.00" xmlns="http://www.w3.org/2000/svg" xmlns:xlink="http://www.w3.org/1999/xlink">
<g id="graph0" class="graph" transform="scale(1 1) rotate(0) translate(4 822)">
<title>o2::trd::Detector</title>
<!-- Node1 -->
<g id="node1" class="node"><title>Node1</title>
<polygon fill="#bfbfbf" stroke="black" points="43.5,-1 43.5,-157 160.5,-157 160.5,-1 43.5,-1"/>
<text text-anchor="middle" x="102" y="-145" font-family="Helvetica,sans-Serif" font-size="10.00">o2::trd::Detector</text>
<polyline fill="none" stroke="black" points="43.5,-138 160.5,-138 "/>
<text text-anchor="middle" x="102" y="-126" font-family="Helvetica,sans-Serif" font-size="10.00"> </text>
<polyline fill="none" stroke="black" points="43.5,-119 160.5,-119 "/>
<text text-anchor="start" x="51.5" y="-107" font-family="Helvetica,sans-Serif" font-size="10.00">+ Detector()</text>
<text text-anchor="start" x="51.5" y="-96" font-family="Helvetica,sans-Serif" font-size="10.00">+ ~Detector()</text>
<text text-anchor="start" x="51.5" y="-85" font-family="Helvetica,sans-Serif" font-size="10.00">+ Initialize()</text>
<text text-anchor="start" x="51.5" y="-74" font-family="Helvetica,sans-Serif" font-size="10.00">+ ProcessHits()</text>
<text text-anchor="start" x="51.5" y="-63" font-family="Helvetica,sans-Serif" font-size="10.00">+ Register()</text>
<text text-anchor="start" x="51.5" y="-52" font-family="Helvetica,sans-Serif" font-size="10.00">+ getHits()</text>
<text text-anchor="start" x="51.5" y="-41" font-family="Helvetica,sans-Serif" font-size="10.00">+ Reset()</text>
<text text-anchor="start" x="51.5" y="-30" font-family="Helvetica,sans-Serif" font-size="10.00">+ EndOfEvent()</text>
<text text-anchor="start" x="51.5" y="-19" font-family="Helvetica,sans-Serif" font-size="10.00">+ createMaterials()</text>
<text text-anchor="start" x="51.5" y="-8" font-family="Helvetica,sans-Serif" font-size="10.00">+ ConstructGeometry()</text>
</g>
<!-- Node2 -->
<g id="node2" class="node"><title>Node2</title>
<g id="a_node2"><a xlink:href="../../d4/d8a/classo2_1_1Base_1_1DetImpl.html" target="_top" xlink:title="{o2::Base::DetImpl\&lt;\l Detector \&gt;\n||+ updateHitTrackIndices()\l}">
<polygon fill="none" stroke="black" points="37,-197 37,-265 167,-265 167,-197 37,-197"/>
<text text-anchor="start" x="45" y="-253" font-family="Helvetica,sans-Serif" font-size="10.00">o2::Base::DetImpl&lt;</text>
<text text-anchor="middle" x="102" y="-242" font-family="Helvetica,sans-Serif" font-size="10.00"> Detector &gt;</text>
<polyline fill="none" stroke="black" points="37,-235 167,-235 "/>
<text text-anchor="middle" x="102" y="-223" font-family="Helvetica,sans-Serif" font-size="10.00"> </text>
<polyline fill="none" stroke="black" points="37,-216 167,-216 "/>
<text text-anchor="start" x="45" y="-204" font-family="Helvetica,sans-Serif" font-size="10.00">+ updateHitTrackIndices()</text>
</a>
</g>
</g>
<!-- Node2&#45;&gt;Node1 -->
<g id="edge1" class="edge"><title>Node2&#45;&gt;Node1</title>
<path fill="none" stroke="midnightblue" d="M102,-186.595C102,-177.303 102,-167.219 102,-157.084"/>
<polygon fill="none" stroke="midnightblue" points="98.5001,-186.71 102,-196.71 105.5,-186.71 98.5001,-186.71"/>
</g>
<!-- Node3 -->
<g id="node3" class="node"><title>Node3</title>
<g id="a_node3"><a xlink:href="../../d7/d02/classo2_1_1Base_1_1Detector.html" target="_top" xlink:title="{o2::Base::Detector\n||+ Detector()\l+ Detector()\l+ ~Detector()\l+ Material()\l+ Mixture()\l+ Medium()\l+ Matrix()\l+ addAlignableVolumes()\l+ defineWrapperVolume()\l+ setNumberOfWrapperVolumes()\l+ defineLayer()\l+ defineLayerTurbo()\l+ getMaterialID()\l+ getMediumID()\l+ getMediumIDMappingAsVector()\l+ addNameTo()\l+ updateHitTrackIndices()\l+ GetCollection()\l+ setDensityFactor()\l+ getDensityFactor()\l+ initFieldTrackingParams()\l# Detector()\l# operator=()\l}">
<polygon fill="none" stroke="black" points="-0.5,-422.5 -0.5,-721.5 166.5,-721.5 166.5,-422.5 -0.5,-422.5"/>
<text text-anchor="middle" x="83" y="-709.5" font-family="Helvetica,sans-Serif" font-size="10.00">o2::Base::Detector</text>
<polyline fill="none" stroke="black" points="-0.5,-702.5 166.5,-702.5 "/>
<text text-anchor="middle" x="83" y="-690.5" font-family="Helvetica,sans-Serif" font-size="10.00"> </text>
<polyline fill="none" stroke="black" points="-0.5,-683.5 166.5,-683.5 "/>
<text text-anchor="start" x="7.5" y="-671.5" font-family="Helvetica,sans-Serif" font-size="10.00">+ Detector()</text>
<text text-anchor="start" x="7.5" y="-660.5" font-family="Helvetica,sans-Serif" font-size="10.00">+ Detector()</text>
<text text-anchor="start" x="7.5" y="-649.5" font-family="Helvetica,sans-Serif" font-size="10.00">+ ~Detector()</text>
<text text-anchor="start" x="7.5" y="-638.5" font-family="Helvetica,sans-Serif" font-size="10.00">+ Material()</text>
<text text-anchor="start" x="7.5" y="-627.5" font-family="Helvetica,sans-Serif" font-size="10.00">+ Mixture()</text>
<text text-anchor="start" x="7.5" y="-616.5" font-family="Helvetica,sans-Serif" font-size="10.00">+ Medium()</text>
<text text-anchor="start" x="7.5" y="-605.5" font-family="Helvetica,sans-Serif" font-size="10.00">+ Matrix()</text>
<text text-anchor="start" x="7.5" y="-594.5" font-family="Helvetica,sans-Serif" font-size="10.00">+ addAlignableVolumes()</text>
<text text-anchor="start" x="7.5" y="-583.5" font-family="Helvetica,sans-Serif" font-size="10.00">+ defineWrapperVolume()</text>
<text text-anchor="start" x="7.5" y="-572.5" font-family="Helvetica,sans-Serif" font-size="10.00">+ setNumberOfWrapperVolumes()</text>
<text text-anchor="start" x="7.5" y="-561.5" font-family="Helvetica,sans-Serif" font-size="10.00">+ defineLayer()</text>
<text text-anchor="start" x="7.5" y="-550.5" font-family="Helvetica,sans-Serif" font-size="10.00">+ defineLayerTurbo()</text>
<text text-anchor="start" x="7.5" y="-539.5" font-family="Helvetica,sans-Serif" font-size="10.00">+ getMaterialID()</text>
<text text-anchor="start" x="7.5" y="-528.5" font-family="Helvetica,sans-Serif" font-size="10.00">+ getMediumID()</text>
<text text-anchor="start" x="7.5" y="-517.5" font-family="Helvetica,sans-Serif" font-size="10.00">+ getMediumIDMappingAsVector()</text>
<text text-anchor="start" x="7.5" y="-506.5" font-family="Helvetica,sans-Serif" font-size="10.00">+ addNameTo()</text>
<text text-anchor="start" x="7.5" y="-495.5" font-family="Helvetica,sans-Serif" font-size="10.00">+ updateHitTrackIndices()</text>
<text text-anchor="start" x="7.5" y="-484.5" font-family="Helvetica,sans-Serif" font-size="10.00">+ GetCollection()</text>
<text text-anchor="start" x="7.5" y="-473.5" font-family="Helvetica,sans-Serif" font-size="10.00">+ setDensityFactor()</text>
<text text-anchor="start" x="7.5" y="-462.5" font-family="Helvetica,sans-Serif" font-size="10.00">+ getDensityFactor()</text>
<text text-anchor="start" x="7.5" y="-451.5" font-family="Helvetica,sans-Serif" font-size="10.00">+ initFieldTrackingParams()</text>
<text text-anchor="start" x="7.5" y="-440.5" font-family="Helvetica,sans-Serif" font-size="10.00"># Detector()</text>
<text text-anchor="start" x="7.5" y="-429.5" font-family="Helvetica,sans-Serif" font-size="10.00"># operator=()</text>
</a>
</g>
</g>
<!-- Node3&#45;&gt;Node2 -->
<g id="edge2" class="edge"><title>Node3&#45;&gt;Node2</title>
<path fill="none" stroke="midnightblue" d="M84.3882,-412.307C85.4969,-379.751 87.2553,-345.736 90,-314 91.4009,-297.802 93.9031,-279.927 96.2615,-265.012"/>
<polygon fill="none" stroke="midnightblue" points="80.8883,-412.253 84.0646,-422.36 87.8846,-412.478 80.8883,-412.253"/>
</g>
<!-- Node5 -->
<g id="node5" class="node"><title>Node5</title>
<g id="a_node5"><a xlink:href="../../d4/d8a/classo2_1_1Base_1_1DetImpl.html" target="_top" xlink:title="{o2::Base::DetImpl\&lt;\l Det \&gt;\n||+ updateHitTrackIndices()\l}">
<polygon fill="none" stroke="black" points="99,-315 99,-383 229,-383 229,-315 99,-315"/>
<text text-anchor="start" x="107" y="-371" font-family="Helvetica,sans-Serif" font-size="10.00">o2::Base::DetImpl&lt;</text>
<text text-anchor="middle" x="164" y="-360" font-family="Helvetica,sans-Serif" font-size="10.00"> Det &gt;</text>
<polyline fill="none" stroke="black" points="99,-353 229,-353 "/>
<text text-anchor="middle" x="164" y="-341" font-family="Helvetica,sans-Serif" font-size="10.00"> </text>
<polyline fill="none" stroke="black" points="99,-334 229,-334 "/>
<text text-anchor="start" x="107" y="-322" font-family="Helvetica,sans-Serif" font-size="10.00">+ updateHitTrackIndices()</text>
</a>
</g>
</g>
<!-- Node3&#45;&gt;Node5 -->
<g id="edge5" class="edge"><title>Node3&#45;&gt;Node5</title>
<path fill="none" stroke="midnightblue" d="M140.996,-412.763C144.926,-402.041 148.584,-392.06 151.775,-383.355"/>
<polygon fill="none" stroke="midnightblue" points="137.633,-411.77 137.478,-422.364 144.205,-414.179 137.633,-411.77"/>
</g>
<!-- Node4 -->
<g id="node4" class="node"><title>Node4</title>
<g id="a_node4"><a xlink:href="../../d6/d0c/classFairDetector.html" target="_top" xlink:title="{FairDetector\n||}">
<polygon fill="none" stroke="black" points="47.5,-760.5 47.5,-817.5 118.5,-817.5 118.5,-760.5 47.5,-760.5"/>
<text text-anchor="middle" x="83" y="-805.5" font-family="Helvetica,sans-Serif" font-size="10.00">FairDetector</text>
<polyline fill="none" stroke="black" points="47.5,-798.5 118.5,-798.5 "/>
<text text-anchor="middle" x="83" y="-786.5" font-family="Helvetica,sans-Serif" font-size="10.00"> </text>
<polyline fill="none" stroke="black" points="47.5,-779.5 118.5,-779.5 "/>
<text text-anchor="middle" x="83" y="-767.5" font-family="Helvetica,sans-Serif" font-size="10.00"> </text>
</a>
</g>
</g>
<!-- Node4&#45;&gt;Node3 -->
<g id="edge3" class="edge"><title>Node4&#45;&gt;Node3</title>
<path fill="none" stroke="midnightblue" d="M83,-750.122C83,-741.603 83,-732.059 83,-721.937"/>
<polygon fill="none" stroke="midnightblue" points="79.5001,-750.333 83,-760.333 86.5001,-750.333 79.5001,-750.333"/>
</g>
<!-- Node5&#45;&gt;Node2 -->
<g id="edge4" class="edge"><title>Node5&#45;&gt;Node2</title>
<path fill="none" stroke="orange" d="M141.42,-305.753C134.289,-292.411 126.515,-277.866 119.769,-265.246"/>
<polygon fill="orange" stroke="orange" points="138.433,-307.59 146.233,-314.759 144.606,-304.29 138.433,-307.59"/>
<text text-anchor="middle" x="163.5" y="-287.5" font-family="Helvetica,sans-Serif" font-size="10.00"> &lt; Detector &gt;</text>
</g>
</g>
</svg>
