<?xml version="1.0" encoding="UTF-8" standalone="no"?>
<!DOCTYPE svg PUBLIC "-//W3C//DTD SVG 1.1//EN"
 "http://www.w3.org/Graphics/SVG/1.1/DTD/svg11.dtd">
<!-- Generated by graphviz version 2.36.0 (20140111.2315)
 -->
<!-- Title: /home/travis/build/AliceO2Group/AliceO2/Detectors/TOF/simulation/include/TOFSimulation/DigitizerTask.h Pages: 1 -->
<!--zoomable 468 -->
<svg id="main" version="1.1" xmlns="http://www.w3.org/2000/svg" xmlns:xlink="http://www.w3.org/1999/xlink" xml:space="preserve" onload="init(evt)">
<style type="text/css"><![CDATA[
.edge:hover path { stroke: red; }
.edge:hover polygon { stroke: red; fill: red; }
]]></style>
<script type="text/javascript"><![CDATA[
var edges = document.getElementsByTagName('g');
if (edges && edges.length) {
  for (var i=0;i<edges.length;i++) {
    if (edges[i].id.substr(0,4)=='edge') {
      edges[i].setAttribute('class','edge');
    }
  }
}
]]></script>
        <defs>
                <circle id="rim" cx="0" cy="0" r="7"/>
                <circle id="rim2" cx="0" cy="0" r="3.5"/>
                <g id="zoomPlus">
                        <use xlink:href="#rim" fill="#404040">
                                <set attributeName="fill" to="#808080" begin="zoomplus.mouseover" end="zoomplus.mouseout"/>
                        </use>
                        <path d="M-4,0h8M0,-4v8" fill="none" stroke="white" stroke-width="1.5" pointer-events="none"/>
                </g>
                <g id="zoomMin">
                        <use xlink:href="#rim" fill="#404040">
                                <set attributeName="fill" to="#808080" begin="zoomminus.mouseover" end="zoomminus.mouseout"/>
                        </use>
                        <path d="M-4,0h8" fill="none" stroke="white" stroke-width="1.5" pointer-events="none"/>
                </g>
                <g id="dirArrow">
                        <path fill="none" stroke="white" stroke-width="1.5" d="M0,-3.0v7 M-2.5,-0.5L0,-3.0L2.5,-0.5"/>
                </g>
               <g id="resetDef">
                       <use xlink:href="#rim2" fill="#404040">
                               <set attributeName="fill" to="#808080" begin="reset.mouseover" end="reset.mouseout"/>
                       </use>
               </g>
        </defs>

<script type="text/javascript">
var viewWidth = 2441;
var viewHeight = 468;
var sectionId = 'dynsection-0';
</script>
<script xlink:href="../../svgpan.js"/>
<svg id="graph" class="graph">
<g id="viewport">
<title>/home/travis/build/AliceO2Group/AliceO2/Detectors/TOF/simulation/include/TOFSimulation/DigitizerTask.h</title>
<!-- Node1 -->
<g id="node1" class="node"><title>Node1</title>
<polygon fill="#bfbfbf" stroke="black" points="1838,-396.5 1838,-459.5 1996,-459.5 1996,-396.5 1838,-396.5"/>
<text text-anchor="start" x="1846" y="-447.5" font-family="Helvetica,sans-Serif" font-size="10.00">/home/travis/build</text>
<text text-anchor="start" x="1846" y="-436.5" font-family="Helvetica,sans-Serif" font-size="10.00">/AliceO2Group/AliceO2</text>
<text text-anchor="start" x="1846" y="-425.5" font-family="Helvetica,sans-Serif" font-size="10.00">/Detectors/TOF/simulation</text>
<text text-anchor="start" x="1846" y="-414.5" font-family="Helvetica,sans-Serif" font-size="10.00">/include/TOFSimulation/Digitizer</text>
<text text-anchor="middle" x="1917" y="-403.5" font-family="Helvetica,sans-Serif" font-size="10.00">Task.h</text>
</g>
<!-- Node2 -->
<g id="node2" class="node"><title>Node2</title>
<polygon fill="none" stroke="#bfbfbf" points="1686.5,-340.5 1686.5,-359.5 1749.5,-359.5 1749.5,-340.5 1686.5,-340.5"/>
<text text-anchor="middle" x="1718" y="-347.5" font-family="Helvetica,sans-Serif" font-size="10.00">FairTask.h</text>
</g>
<!-- Node1&#45;&gt;Node2 -->
<g id="edge1" class="edge"><title>Node1&#45;&gt;Node2</title>
<path fill="none" stroke="midnightblue" d="M1837.78,-396.744C1807.05,-385.009 1773.63,-372.245 1749.92,-363.189"/>
<polygon fill="midnightblue" stroke="midnightblue" points="1750.97,-359.847 1740.38,-359.549 1748.48,-366.386 1750.97,-359.847"/>
</g>
<!-- Node3 -->
<g id="node3" class="node"><title>Node3</title>
<polygon fill="none" stroke="#bfbfbf" points="1798,-74.5 1798,-93.5 1854,-93.5 1854,-74.5 1798,-74.5"/>
<text text-anchor="middle" x="1826" y="-81.5" font-family="Helvetica,sans-Serif" font-size="10.00">Rtypes.h</text>
</g>
<!-- Node1&#45;&gt;Node3 -->
<g id="edge2" class="edge"><title>Node1&#45;&gt;Node3</title>
<path fill="none" stroke="midnightblue" d="M1996.21,-422.236C2140.86,-411.351 2433,-378.312 2433,-289 2433,-289 2433,-289 2433,-219 2433,-101.974 1997.35,-87.0585 1864.2,-85.2327"/>
<polygon fill="midnightblue" stroke="midnightblue" points="1864.1,-81.7314 1854.06,-85.1114 1864.02,-88.7309 1864.1,-81.7314"/>
</g>
<!-- Node4 -->
<g id="node4" class="node"><title>Node4</title>
<g id="a_node4"><a xlink:href="../../df/d9c/TOF_2base_2include_2TOFBase_2Digit_8h.html" target="_top" xlink:title="TOFBase/Digit.h">
<polygon fill="none" stroke="black" points="1919,-278.5 1919,-297.5 2009,-297.5 2009,-278.5 1919,-278.5"/>
<text text-anchor="middle" x="1964" y="-285.5" font-family="Helvetica,sans-Serif" font-size="10.00">TOFBase/Digit.h</text>
</a>
</g>
</g>
<!-- Node1&#45;&gt;Node4 -->
<g id="edge3" class="edge"><title>Node1&#45;&gt;Node4</title>
<path fill="none" stroke="midnightblue" d="M1930.21,-396.241C1934.84,-384.945 1939.91,-371.988 1944,-360 1950,-342.422 1955.62,-321.973 1959.36,-307.548"/>
<polygon fill="midnightblue" stroke="midnightblue" points="1962.76,-308.393 1961.84,-297.839 1955.98,-306.664 1962.76,-308.393"/>
</g>
<!-- Node8 -->
<g id="node8" class="node"><title>Node8</title>
<g id="a_node8"><a xlink:href="../../d5/d3c/TOF_2simulation_2include_2TOFSimulation_2Detector_8h.html" target="_top" xlink:title="TOFSimulation/Detector.h">
<polygon fill="none" stroke="black" points="1581.5,-278.5 1581.5,-297.5 1712.5,-297.5 1712.5,-278.5 1581.5,-278.5"/>
<text text-anchor="middle" x="1647" y="-285.5" font-family="Helvetica,sans-Serif" font-size="10.00">TOFSimulation/Detector.h</text>
</a>
</g>
</g>
<!-- Node1&#45;&gt;Node8 -->
<g id="edge8" class="edge"><title>Node1&#45;&gt;Node8</title>
<path fill="none" stroke="midnightblue" d="M1863.41,-396.457C1832.81,-379.326 1793.57,-357.874 1758,-340 1730.6,-326.23 1698.74,-311.744 1676.2,-301.744"/>
<polygon fill="midnightblue" stroke="midnightblue" points="1677.41,-298.454 1666.85,-297.617 1674.58,-304.857 1677.41,-298.454"/>
</g>
<!-- Node33 -->
<g id="node33" class="node"><title>Node33</title>
<g id="a_node33"><a xlink:href="../../d0/d85/TOF_2simulation_2include_2TOFSimulation_2Digitizer_8h.html" target="_top" xlink:title="TOFSimulation/Digitizer.h">
<polygon fill="none" stroke="black" points="1806.5,-340.5 1806.5,-359.5 1935.5,-359.5 1935.5,-340.5 1806.5,-340.5"/>
<text text-anchor="middle" x="1871" y="-347.5" font-family="Helvetica,sans-Serif" font-size="10.00">TOFSimulation/Digitizer.h</text>
</a>
</g>
</g>
<!-- Node1&#45;&gt;Node33 -->
<g id="edge38" class="edge"><title>Node1&#45;&gt;Node33</title>
<path fill="none" stroke="midnightblue" d="M1898.29,-396.088C1892.57,-386.636 1886.48,-376.577 1881.51,-368.364"/>
<polygon fill="midnightblue" stroke="midnightblue" points="1884.45,-366.461 1876.28,-359.718 1878.46,-370.086 1884.45,-366.461"/>
</g>
<!-- Node34 -->
<g id="node34" class="node"><title>Node34</title>
<g id="a_node34"><a xlink:href="../../db/d14/MCTruthContainer_8h.html" target="_top" xlink:title="Definition of a container to keep Monte Carlo truth external to simulation objects. ">
<polygon fill="none" stroke="black" points="2136,-273 2136,-303 2250,-303 2250,-273 2136,-273"/>
<text text-anchor="start" x="2144" y="-291" font-family="Helvetica,sans-Serif" font-size="10.00">SimulationDataFormat</text>
<text text-anchor="middle" x="2193" y="-280" font-family="Helvetica,sans-Serif" font-size="10.00">/MCTruthContainer.h</text>
</a>
</g>
</g>
<!-- Node1&#45;&gt;Node34 -->
<g id="edge50" class="edge"><title>Node1&#45;&gt;Node34</title>
<path fill="none" stroke="midnightblue" d="M1978.25,-396.373C2032.52,-369.241 2110,-330.5 2155.54,-307.73"/>
<polygon fill="midnightblue" stroke="midnightblue" points="2157.37,-310.727 2164.75,-303.124 2154.24,-304.466 2157.37,-310.727"/>
</g>
<!-- Node4&#45;&gt;Node3 -->
<g id="edge5" class="edge"><title>Node4&#45;&gt;Node3</title>
<path fill="none" stroke="midnightblue" d="M1968.23,-278.474C1979.83,-253.742 2009.22,-180.89 1977,-136 1951.52,-100.503 1900.02,-89.3926 1864.3,-86.0902"/>
<polygon fill="midnightblue" stroke="midnightblue" points="1864.45,-82.5922 1854.22,-85.3245 1863.92,-89.5721 1864.45,-82.5922"/>
</g>
<!-- Node5 -->
<g id="node5" class="node"><title>Node5</title>
<polygon fill="none" stroke="#bfbfbf" points="2024,-210.5 2024,-229.5 2116,-229.5 2116,-210.5 2024,-210.5"/>
<text text-anchor="middle" x="2070" y="-217.5" font-family="Helvetica,sans-Serif" font-size="10.00">FairTimeStamp.h</text>
</g>
<!-- Node4&#45;&gt;Node5 -->
<g id="edge4" class="edge"><title>Node4&#45;&gt;Node5</title>
<path fill="none" stroke="midnightblue" d="M1977.86,-278.372C1995.55,-267.353 2026.4,-248.145 2047.49,-235.014"/>
<polygon fill="midnightblue" stroke="midnightblue" points="2049.5,-237.887 2056.14,-229.63 2045.8,-231.945 2049.5,-237.887"/>
</g>
<!-- Node6 -->
<g id="node6" class="node"><title>Node6</title>
<polygon fill="none" stroke="#bfbfbf" points="1809.5,-210.5 1809.5,-229.5 1854.5,-229.5 1854.5,-210.5 1809.5,-210.5"/>
<text text-anchor="middle" x="1832" y="-217.5" font-family="Helvetica,sans-Serif" font-size="10.00">iosfwd</text>
</g>
<!-- Node4&#45;&gt;Node6 -->
<g id="edge6" class="edge"><title>Node4&#45;&gt;Node6</title>
<path fill="none" stroke="midnightblue" d="M1946.74,-278.372C1924.21,-267.106 1884.56,-247.279 1858.28,-234.14"/>
<polygon fill="midnightblue" stroke="midnightblue" points="1859.77,-230.972 1849.26,-229.63 1856.64,-237.233 1859.77,-230.972"/>
</g>
<!-- Node7 -->
<g id="node7" class="node"><title>Node7</title>
<polygon fill="none" stroke="#bfbfbf" points="1872.5,-205 1872.5,-235 1967.5,-235 1967.5,-205 1872.5,-205"/>
<text text-anchor="start" x="1880.5" y="-223" font-family="Helvetica,sans-Serif" font-size="10.00">boost/serialization</text>
<text text-anchor="middle" x="1920" y="-212" font-family="Helvetica,sans-Serif" font-size="10.00">/base_object.hpp</text>
</g>
<!-- Node4&#45;&gt;Node7 -->
<g id="edge7" class="edge"><title>Node4&#45;&gt;Node7</title>
<path fill="none" stroke="midnightblue" d="M1958.25,-278.372C1952.42,-269.629 1943.15,-255.729 1935.2,-243.801"/>
<polygon fill="midnightblue" stroke="midnightblue" points="1937.91,-241.561 1929.45,-235.181 1932.09,-245.443 1937.91,-241.561"/>
</g>
<!-- Node9 -->
<g id="node9" class="node"><title>Node9</title>
<g id="a_node9"><a xlink:href="../../d1/d3a/Base_2include_2DetectorsBase_2Detector_8h.html" target="_top" xlink:title="DetectorsBase/Detector.h">
<polygon fill="none" stroke="black" points="1369.5,-210.5 1369.5,-229.5 1500.5,-229.5 1500.5,-210.5 1369.5,-210.5"/>
<text text-anchor="middle" x="1435" y="-217.5" font-family="Helvetica,sans-Serif" font-size="10.00">DetectorsBase/Detector.h</text>
</a>
</g>
</g>
<!-- Node8&#45;&gt;Node9 -->
<g id="edge9" class="edge"><title>Node8&#45;&gt;Node9</title>
<path fill="none" stroke="midnightblue" d="M1619.28,-278.372C1581.57,-266.629 1513.97,-245.585 1471.97,-232.508"/>
<polygon fill="midnightblue" stroke="midnightblue" points="1472.97,-229.157 1462.39,-229.526 1470.89,-235.84 1472.97,-229.157"/>
</g>
<!-- Node20 -->
<g id="node20" class="node"><title>Node20</title>
<g id="a_node20"><a xlink:href="../../d4/d54/Geo_8h.html" target="_top" xlink:title="TOFBase/Geo.h">
<polygon fill="none" stroke="black" points="1665,-210.5 1665,-229.5 1753,-229.5 1753,-210.5 1665,-210.5"/>
<text text-anchor="middle" x="1709" y="-217.5" font-family="Helvetica,sans-Serif" font-size="10.00">TOFBase/Geo.h</text>
</a>
</g>
</g>
<!-- Node8&#45;&gt;Node20 -->
<g id="edge23" class="edge"><title>Node8&#45;&gt;Node20</title>
<path fill="none" stroke="midnightblue" d="M1655.11,-278.372C1664.89,-267.955 1681.55,-250.217 1693.77,-237.216"/>
<polygon fill="midnightblue" stroke="midnightblue" points="1696.4,-239.526 1700.69,-229.841 1691.3,-234.733 1696.4,-239.526"/>
</g>
<!-- Node21 -->
<g id="node21" class="node"><title>Node21</title>
<g id="a_node21"><a xlink:href="../../d4/d25/BaseHits_8h.html" target="_top" xlink:title="SimulationDataFormat\l/BaseHits.h">
<polygon fill="none" stroke="black" points="961,-205 961,-235 1075,-235 1075,-205 961,-205"/>
<text text-anchor="start" x="969" y="-223" font-family="Helvetica,sans-Serif" font-size="10.00">SimulationDataFormat</text>
<text text-anchor="middle" x="1018" y="-212" font-family="Helvetica,sans-Serif" font-size="10.00">/BaseHits.h</text>
</a>
</g>
</g>
<!-- Node8&#45;&gt;Node21 -->
<g id="edge25" class="edge"><title>Node8&#45;&gt;Node21</title>
<path fill="none" stroke="midnightblue" d="M1581.47,-280.124C1461.31,-267.516 1206.94,-240.826 1085.41,-228.073"/>
<polygon fill="midnightblue" stroke="midnightblue" points="1085.44,-224.557 1075.13,-226.994 1084.71,-231.519 1085.44,-224.557"/>
</g>
<!-- Node9&#45;&gt;Node3 -->
<g id="edge18" class="edge"><title>Node9&#45;&gt;Node3</title>
<path fill="none" stroke="midnightblue" d="M1500.51,-215.058C1584.49,-208.976 1724.48,-195.067 1768,-168 1792.8,-152.574 1809.84,-122.213 1818.75,-102.798"/>
<polygon fill="midnightblue" stroke="midnightblue" points="1821.99,-104.109 1822.76,-93.5419 1815.57,-101.326 1821.99,-104.109"/>
</g>
<!-- Node10 -->
<g id="node10" class="node"><title>Node10</title>
<polygon fill="none" stroke="#bfbfbf" points="1192.5,-74.5 1192.5,-93.5 1227.5,-93.5 1227.5,-74.5 1192.5,-74.5"/>
<text text-anchor="middle" x="1210" y="-81.5" font-family="Helvetica,sans-Serif" font-size="10.00">map</text>
</g>
<!-- Node9&#45;&gt;Node10 -->
<g id="edge10" class="edge"><title>Node9&#45;&gt;Node10</title>
<path fill="none" stroke="midnightblue" d="M1369.08,-215.7C1256.97,-209.407 1038.99,-193.955 1016,-168 1006.57,-157.353 1007.07,-147.066 1016,-136 1063.7,-76.9247 1111.93,-126.727 1183,-100 1184.41,-99.4691 1185.84,-98.8739 1187.26,-98.2347"/>
<polygon fill="midnightblue" stroke="midnightblue" points="1189.04,-101.256 1196.36,-93.5988 1185.86,-95.0189 1189.04,-101.256"/>
</g>
<!-- Node11 -->
<g id="node11" class="node"><title>Node11</title>
<polygon fill="none" stroke="#bfbfbf" points="1209,-142.5 1209,-161.5 1253,-161.5 1253,-142.5 1209,-142.5"/>
<text text-anchor="middle" x="1231" y="-149.5" font-family="Helvetica,sans-Serif" font-size="10.00">vector</text>
</g>
<!-- Node9&#45;&gt;Node11 -->
<g id="edge11" class="edge"><title>Node9&#45;&gt;Node11</title>
<path fill="none" stroke="midnightblue" d="M1399.98,-210.48C1364.63,-201.463 1308.73,-186.055 1262,-168 1260.35,-167.363 1258.67,-166.673 1256.99,-165.951"/>
<polygon fill="midnightblue" stroke="midnightblue" points="1258.06,-162.593 1247.51,-161.608 1255.14,-168.956 1258.06,-162.593"/>
</g>
<!-- Node12 -->
<g id="node12" class="node"><title>Node12</title>
<polygon fill="none" stroke="#bfbfbf" points="1271,-142.5 1271,-161.5 1323,-161.5 1323,-142.5 1271,-142.5"/>
<text text-anchor="middle" x="1297" y="-149.5" font-family="Helvetica,sans-Serif" font-size="10.00">memory</text>
</g>
<!-- Node9&#45;&gt;Node12 -->
<g id="edge12" class="edge"><title>Node9&#45;&gt;Node12</title>
<path fill="none" stroke="midnightblue" d="M1416.96,-210.372C1393.3,-199.057 1351.58,-179.105 1324.11,-165.968"/>
<polygon fill="midnightblue" stroke="midnightblue" points="1325.58,-162.788 1315.05,-161.63 1322.56,-169.103 1325.58,-162.788"/>
</g>
<!-- Node13 -->
<g id="node13" class="node"><title>Node13</title>
<polygon fill="none" stroke="#bfbfbf" points="1341.5,-142.5 1341.5,-161.5 1420.5,-161.5 1420.5,-142.5 1341.5,-142.5"/>
<text text-anchor="middle" x="1381" y="-149.5" font-family="Helvetica,sans-Serif" font-size="10.00">FairDetector.h</text>
</g>
<!-- Node9&#45;&gt;Node13 -->
<g id="edge13" class="edge"><title>Node9&#45;&gt;Node13</title>
<path fill="none" stroke="midnightblue" d="M1427.94,-210.372C1419.5,-200.053 1405.18,-182.551 1394.57,-169.585"/>
<polygon fill="midnightblue" stroke="midnightblue" points="1397.27,-167.364 1388.23,-161.841 1391.86,-171.797 1397.27,-167.364"/>
</g>
<!-- Node14 -->
<g id="node14" class="node"><title>Node14</title>
<polygon fill="none" stroke="#bfbfbf" points="1439,-142.5 1439,-161.5 1539,-161.5 1539,-142.5 1439,-142.5"/>
<text text-anchor="middle" x="1489" y="-149.5" font-family="Helvetica,sans-Serif" font-size="10.00">FairRootManager.h</text>
</g>
<!-- Node9&#45;&gt;Node14 -->
<g id="edge14" class="edge"><title>Node9&#45;&gt;Node14</title>
<path fill="none" stroke="midnightblue" d="M1442.06,-210.372C1450.5,-200.053 1464.82,-182.551 1475.43,-169.585"/>
<polygon fill="midnightblue" stroke="midnightblue" points="1478.14,-171.797 1481.77,-161.841 1472.73,-167.364 1478.14,-171.797"/>
</g>
<!-- Node15 -->
<g id="node15" class="node"><title>Node15</title>
<g id="a_node15"><a xlink:href="../../d0/d9a/MaterialManager_8h.html" target="_top" xlink:title="DetectorsBase/MaterialManager.h">
<polygon fill="none" stroke="black" points="1025.5,-142.5 1025.5,-161.5 1190.5,-161.5 1190.5,-142.5 1025.5,-142.5"/>
<text text-anchor="middle" x="1108" y="-149.5" font-family="Helvetica,sans-Serif" font-size="10.00">DetectorsBase/MaterialManager.h</text>
</a>
</g>
</g>
<!-- Node9&#45;&gt;Node15 -->
<g id="edge15" class="edge"><title>Node9&#45;&gt;Node15</title>
<path fill="none" stroke="midnightblue" d="M1392.59,-210.439C1333.04,-198.421 1224.75,-176.565 1160.29,-163.555"/>
<polygon fill="midnightblue" stroke="midnightblue" points="1160.83,-160.093 1150.34,-161.546 1159.45,-166.955 1160.83,-160.093"/>
</g>
<!-- Node16 -->
<g id="node16" class="node"><title>Node16</title>
<polygon fill="none" stroke="#bfbfbf" points="1557.5,-142.5 1557.5,-161.5 1610.5,-161.5 1610.5,-142.5 1557.5,-142.5"/>
<text text-anchor="middle" x="1584" y="-149.5" font-family="Helvetica,sans-Serif" font-size="10.00">cxxabi.h</text>
</g>
<!-- Node9&#45;&gt;Node16 -->
<g id="edge19" class="edge"><title>Node9&#45;&gt;Node16</title>
<path fill="none" stroke="midnightblue" d="M1454.48,-210.372C1480.13,-199.007 1525.46,-178.931 1555.11,-165.796"/>
<polygon fill="midnightblue" stroke="midnightblue" points="1556.79,-168.881 1564.52,-161.63 1553.96,-162.48 1556.79,-168.881"/>
</g>
<!-- Node17 -->
<g id="node17" class="node"><title>Node17</title>
<polygon fill="none" stroke="#bfbfbf" points="1628.5,-142.5 1628.5,-161.5 1679.5,-161.5 1679.5,-142.5 1628.5,-142.5"/>
<text text-anchor="middle" x="1654" y="-149.5" font-family="Helvetica,sans-Serif" font-size="10.00">typeinfo</text>
</g>
<!-- Node9&#45;&gt;Node17 -->
<g id="edge20" class="edge"><title>Node9&#45;&gt;Node17</title>
<path fill="none" stroke="midnightblue" d="M1471.41,-210.447C1508.85,-201.293 1568.64,-185.679 1619,-168 1621.26,-167.205 1623.59,-166.335 1625.91,-165.426"/>
<polygon fill="midnightblue" stroke="midnightblue" points="1627.38,-168.608 1635.29,-161.567 1624.71,-162.134 1627.38,-168.608"/>
</g>
<!-- Node18 -->
<g id="node18" class="node"><title>Node18</title>
<polygon fill="none" stroke="#bfbfbf" points="1698,-142.5 1698,-161.5 1760,-161.5 1760,-142.5 1698,-142.5"/>
<text text-anchor="middle" x="1729" y="-149.5" font-family="Helvetica,sans-Serif" font-size="10.00">type_traits</text>
</g>
<!-- Node9&#45;&gt;Node18 -->
<g id="edge21" class="edge"><title>Node9&#45;&gt;Node18</title>
<path fill="none" stroke="midnightblue" d="M1489.86,-210.417C1541.49,-201.758 1620.72,-186.969 1688,-168 1691.21,-167.095 1694.53,-166.058 1697.82,-164.961"/>
<polygon fill="midnightblue" stroke="midnightblue" points="1699.22,-168.179 1707.5,-161.563 1696.9,-161.574 1699.22,-168.179"/>
</g>
<!-- Node19 -->
<g id="node19" class="node"><title>Node19</title>
<polygon fill="none" stroke="#bfbfbf" points="927.5,-142.5 927.5,-161.5 968.5,-161.5 968.5,-142.5 927.5,-142.5"/>
<text text-anchor="middle" x="948" y="-149.5" font-family="Helvetica,sans-Serif" font-size="10.00">string</text>
</g>
<!-- Node9&#45;&gt;Node19 -->
<g id="edge22" class="edge"><title>Node9&#45;&gt;Node19</title>
<path fill="none" stroke="midnightblue" d="M1369.15,-217.571C1280.16,-214.291 1117.17,-203.496 983,-168 980.184,-167.255 977.3,-166.322 974.456,-165.288"/>
<polygon fill="midnightblue" stroke="midnightblue" points="975.675,-162.006 965.091,-161.509 973.055,-168.497 975.675,-162.006"/>
</g>
<!-- Node15&#45;&gt;Node3 -->
<g id="edge16" class="edge"><title>Node15&#45;&gt;Node3</title>
<path fill="none" stroke="midnightblue" d="M1155.65,-142.484C1169.88,-140.142 1185.54,-137.765 1200,-136 1421.92,-108.913 1689.91,-92.5008 1787.83,-87.0389"/>
<polygon fill="midnightblue" stroke="midnightblue" points="1788.05,-90.5319 1797.84,-86.4855 1787.66,-83.5426 1788.05,-90.5319"/>
</g>
<!-- Node15&#45;&gt;Node10 -->
<g id="edge17" class="edge"><title>Node15&#45;&gt;Node10</title>
<path fill="none" stroke="midnightblue" d="M1121.33,-142.372C1138.29,-131.403 1167.78,-112.317 1188.07,-99.1912"/>
<polygon fill="midnightblue" stroke="midnightblue" points="1190.17,-102.002 1196.66,-93.6305 1186.36,-96.1245 1190.17,-102.002"/>
</g>
<!-- Node20&#45;&gt;Node3 -->
<g id="edge24" class="edge"><title>Node20&#45;&gt;Node3</title>
<path fill="none" stroke="midnightblue" d="M1736.45,-210.466C1757.31,-202.621 1785.19,-188.983 1802,-168 1816.84,-149.473 1822.5,-122.135 1824.67,-103.959"/>
<polygon fill="midnightblue" stroke="midnightblue" points="1828.17,-104.038 1825.63,-93.7541 1821.2,-103.382 1828.17,-104.038"/>
</g>
<!-- Node22 -->
<g id="node22" class="node"><title>Node22</title>
<g id="a_node22"><a xlink:href="../../dd/d76/Cartesian3D_8h.html" target="_top" xlink:title="MathUtils/Cartesian3D.h">
<polygon fill="none" stroke="black" points="624.5,-142.5 624.5,-161.5 749.5,-161.5 749.5,-142.5 624.5,-142.5"/>
<text text-anchor="middle" x="687" y="-149.5" font-family="Helvetica,sans-Serif" font-size="10.00">MathUtils/Cartesian3D.h</text>
</a>
</g>
</g>
<!-- Node21&#45;&gt;Node22 -->
<g id="edge26" class="edge"><title>Node21&#45;&gt;Node22</title>
<path fill="none" stroke="midnightblue" d="M960.722,-207.579C898.628,-195.198 800.34,-175.6 739.98,-163.564"/>
<polygon fill="midnightblue" stroke="midnightblue" points="740.391,-160.077 729.899,-161.554 739.022,-166.942 740.391,-160.077"/>
</g>
<!-- Node22&#45;&gt;Node3 -->
<g id="edge30" class="edge"><title>Node22&#45;&gt;Node3</title>
<path fill="none" stroke="midnightblue" d="M749.738,-146.777C796.193,-143.687 861.036,-139.449 918,-136 1254.9,-115.601 1662.29,-93.7081 1787.53,-87.0403"/>
<polygon fill="midnightblue" stroke="midnightblue" points="1787.95,-90.5228 1797.75,-86.4965 1787.58,-83.5327 1787.95,-90.5228"/>
</g>
<!-- Node23 -->
<g id="node23" class="node"><title>Node23</title>
<polygon fill="none" stroke="#bfbfbf" points="672.5,-74.5 672.5,-93.5 821.5,-93.5 821.5,-74.5 672.5,-74.5"/>
<text text-anchor="middle" x="747" y="-81.5" font-family="Helvetica,sans-Serif" font-size="10.00">Math/GenVector/Rotation3D.h</text>
</g>
<!-- Node22&#45;&gt;Node23 -->
<g id="edge27" class="edge"><title>Node22&#45;&gt;Node23</title>
<path fill="none" stroke="midnightblue" d="M694.844,-142.372C704.225,-132.053 720.135,-114.551 731.922,-101.585"/>
<polygon fill="midnightblue" stroke="midnightblue" points="734.826,-103.595 738.963,-93.8411 729.646,-98.8862 734.826,-103.595"/>
</g>
<!-- Node24 -->
<g id="node24" class="node"><title>Node24</title>
<polygon fill="none" stroke="#bfbfbf" points="840,-74.5 840,-93.5 996,-93.5 996,-74.5 840,-74.5"/>
<text text-anchor="middle" x="918" y="-81.5" font-family="Helvetica,sans-Serif" font-size="10.00">Math/GenVector/Transform3D.h</text>
</g>
<!-- Node22&#45;&gt;Node24 -->
<g id="edge28" class="edge"><title>Node22&#45;&gt;Node24</title>
<path fill="none" stroke="midnightblue" d="M717.199,-142.372C758.471,-130.58 832.575,-109.407 878.299,-96.3432"/>
<polygon fill="midnightblue" stroke="midnightblue" points="879.506,-99.6385 888.159,-93.5259 877.583,-92.9078 879.506,-99.6385"/>
</g>
<!-- Node25 -->
<g id="node25" class="node"><title>Node25</title>
<polygon fill="none" stroke="#bfbfbf" points="1014,-74.5 1014,-93.5 1174,-93.5 1174,-74.5 1014,-74.5"/>
<text text-anchor="middle" x="1094" y="-81.5" font-family="Helvetica,sans-Serif" font-size="10.00">Math/GenVector/Translation3D.h</text>
</g>
<!-- Node22&#45;&gt;Node25 -->
<g id="edge29" class="edge"><title>Node22&#45;&gt;Node25</title>
<path fill="none" stroke="midnightblue" d="M741.037,-142.468C804.324,-132.444 912.31,-115.243 1005,-100 1014.3,-98.4714 1024.13,-96.8335 1033.75,-95.222"/>
<polygon fill="midnightblue" stroke="midnightblue" points="1034.37,-98.6666 1043.65,-93.5578 1033.21,-91.7634 1034.37,-98.6666"/>
</g>
<!-- Node26 -->
<g id="node26" class="node"><title>Node26</title>
<polygon fill="none" stroke="#bfbfbf" points="0,-74.5 0,-93.5 76,-93.5 76,-74.5 0,-74.5"/>
<text text-anchor="middle" x="38" y="-81.5" font-family="Helvetica,sans-Serif" font-size="10.00">TGeoMatrix.h</text>
</g>
<!-- Node22&#45;&gt;Node26 -->
<g id="edge31" class="edge"><title>Node22&#45;&gt;Node26</title>
<path fill="none" stroke="midnightblue" d="M624.392,-150.302C514.267,-148.055 279.158,-138.696 85,-100 80.4351,-99.0902 75.6904,-97.8907 71.0478,-96.5656"/>
<polygon fill="midnightblue" stroke="midnightblue" points="71.7441,-93.1181 61.1572,-93.5275 69.6886,-99.8096 71.7441,-93.1181"/>
</g>
<!-- Node27 -->
<g id="node27" class="node"><title>Node27</title>
<polygon fill="none" stroke="#bfbfbf" points="94.5,-69 94.5,-99 245.5,-99 245.5,-69 94.5,-69"/>
<text text-anchor="start" x="102.5" y="-87" font-family="Helvetica,sans-Serif" font-size="10.00">Math/GenVector/Displacement</text>
<text text-anchor="middle" x="170" y="-76" font-family="Helvetica,sans-Serif" font-size="10.00">Vector3D.h</text>
</g>
<!-- Node22&#45;&gt;Node27 -->
<g id="edge32" class="edge"><title>Node22&#45;&gt;Node27</title>
<path fill="none" stroke="midnightblue" d="M624.253,-144.729C542.029,-136.258 393.126,-120.049 255.403,-100.005"/>
<polygon fill="midnightblue" stroke="midnightblue" points="255.909,-96.5423 245.507,-98.5557 254.894,-103.468 255.909,-96.5423"/>
</g>
<!-- Node28 -->
<g id="node28" class="node"><title>Node28</title>
<polygon fill="none" stroke="#bfbfbf" points="264,-74.5 264,-93.5 440,-93.5 440,-74.5 264,-74.5"/>
<text text-anchor="middle" x="352" y="-81.5" font-family="Helvetica,sans-Serif" font-size="10.00">Math/GenVector/PositionVector3D.h</text>
</g>
<!-- Node22&#45;&gt;Node28 -->
<g id="edge33" class="edge"><title>Node22&#45;&gt;Node28</title>
<path fill="none" stroke="midnightblue" d="M643.548,-142.439C582.547,-130.421 471.608,-108.565 405.573,-95.5547"/>
<polygon fill="midnightblue" stroke="midnightblue" points="405.863,-92.0446 395.375,-93.5455 404.51,-98.9126 405.863,-92.0446"/>
</g>
<!-- Node29 -->
<g id="node29" class="node"><title>Node29</title>
<g id="a_node29"><a xlink:href="../../d2/dd0/Cartesian2D_8h.html" target="_top" xlink:title="MathUtils/Cartesian2D.h">
<polygon fill="none" stroke="black" points="457.5,-74.5 457.5,-93.5 582.5,-93.5 582.5,-74.5 457.5,-74.5"/>
<text text-anchor="middle" x="520" y="-81.5" font-family="Helvetica,sans-Serif" font-size="10.00">MathUtils/Cartesian2D.h</text>
</a>
</g>
</g>
<!-- Node22&#45;&gt;Node29 -->
<g id="edge34" class="edge"><title>Node22&#45;&gt;Node29</title>
<path fill="none" stroke="midnightblue" d="M665.168,-142.372C636.083,-130.877 584.444,-110.469 551.24,-97.3465"/>
<polygon fill="midnightblue" stroke="midnightblue" points="552.16,-93.9464 541.573,-93.5259 549.587,-100.456 552.16,-93.9464"/>
</g>
<!-- Node32 -->
<g id="node32" class="node"><title>Node32</title>
<polygon fill="none" stroke="#bfbfbf" points="601,-74.5 601,-93.5 655,-93.5 655,-74.5 601,-74.5"/>
<text text-anchor="middle" x="628" y="-81.5" font-family="Helvetica,sans-Serif" font-size="10.00">iostream</text>
</g>
<!-- Node22&#45;&gt;Node32 -->
<g id="edge37" class="edge"><title>Node22&#45;&gt;Node32</title>
<path fill="none" stroke="midnightblue" d="M679.287,-142.372C670.063,-132.053 654.417,-114.551 642.826,-101.585"/>
<polygon fill="midnightblue" stroke="midnightblue" points="645.177,-98.9639 635.903,-93.8411 639.959,-103.629 645.177,-98.9639"/>
</g>
<!-- Node30 -->
<g id="node30" class="node"><title>Node30</title>
<polygon fill="none" stroke="#bfbfbf" points="353.5,-1 353.5,-31 504.5,-31 504.5,-1 353.5,-1"/>
<text text-anchor="start" x="361.5" y="-19" font-family="Helvetica,sans-Serif" font-size="10.00">Math/GenVector/Displacement</text>
<text text-anchor="middle" x="429" y="-8" font-family="Helvetica,sans-Serif" font-size="10.00">Vector2D.h</text>
</g>
<!-- Node29&#45;&gt;Node30 -->
<g id="edge35" class="edge"><title>Node29&#45;&gt;Node30</title>
<path fill="none" stroke="midnightblue" d="M508.103,-74.3717C495.221,-65.0286 474.22,-49.7966 457.093,-37.375"/>
<polygon fill="midnightblue" stroke="midnightblue" points="458.703,-34.2194 448.553,-31.1815 454.593,-39.8859 458.703,-34.2194"/>
</g>
<!-- Node31 -->
<g id="node31" class="node"><title>Node31</title>
<polygon fill="none" stroke="#bfbfbf" points="523,-6.5 523,-25.5 699,-25.5 699,-6.5 523,-6.5"/>
<text text-anchor="middle" x="611" y="-13.5" font-family="Helvetica,sans-Serif" font-size="10.00">Math/GenVector/PositionVector2D.h</text>
</g>
<!-- Node29&#45;&gt;Node31 -->
<g id="edge36" class="edge"><title>Node29&#45;&gt;Node31</title>
<path fill="none" stroke="midnightblue" d="M531.897,-74.3717C546.884,-63.5015 572.862,-44.6602 590.942,-31.5474"/>
<polygon fill="midnightblue" stroke="midnightblue" points="593.06,-34.3349 599.1,-25.6305 588.95,-28.6684 593.06,-34.3349"/>
</g>
<!-- Node33&#45;&gt;Node4 -->
<g id="edge40" class="edge"><title>Node33&#45;&gt;Node4</title>
<path fill="none" stroke="midnightblue" d="M1884.32,-340.403C1899.38,-330.691 1924.12,-314.732 1942.04,-303.17"/>
<polygon fill="midnightblue" stroke="midnightblue" points="1944.19,-305.943 1950.7,-297.581 1940.4,-300.061 1944.19,-305.943"/>
</g>
<!-- Node33&#45;&gt;Node8 -->
<g id="edge41" class="edge"><title>Node33&#45;&gt;Node8</title>
<path fill="none" stroke="midnightblue" d="M1838.91,-340.403C1799.4,-329.822 1732.22,-311.827 1688.74,-300.18"/>
<polygon fill="midnightblue" stroke="midnightblue" points="1689.6,-296.787 1679.03,-297.581 1687.79,-303.549 1689.6,-296.787"/>
</g>
<!-- Node33&#45;&gt;Node20 -->
<g id="edge39" class="edge"><title>Node33&#45;&gt;Node20</title>
<path fill="none" stroke="midnightblue" d="M1834.15,-340.424C1810.9,-333.575 1781.35,-322.071 1760,-304 1738.97,-286.196 1724.05,-257.434 1715.98,-238.875"/>
<polygon fill="midnightblue" stroke="midnightblue" points="1719.17,-237.424 1712.12,-229.517 1712.7,-240.096 1719.17,-237.424"/>
</g>
<!-- Node33&#45;&gt;Node34 -->
<g id="edge42" class="edge"><title>Node33&#45;&gt;Node34</title>
<path fill="none" stroke="midnightblue" d="M1916.79,-340.467C1971.4,-330.292 2063.13,-313.199 2125.78,-301.525"/>
<polygon fill="midnightblue" stroke="midnightblue" points="2126.77,-304.901 2135.96,-299.628 2125.49,-298.019 2126.77,-304.901"/>
</g>
<!-- Node39 -->
<g id="node39" class="node"><title>Node39</title>
<g id="a_node39"><a xlink:href="../../df/d71/MCLabel_8h.html" target="_top" xlink:title="TOFSimulation/MCLabel.h">
<polygon fill="none" stroke="black" points="1769,-278.5 1769,-297.5 1901,-297.5 1901,-278.5 1769,-278.5"/>
<text text-anchor="middle" x="1835" y="-285.5" font-family="Helvetica,sans-Serif" font-size="10.00">TOFSimulation/MCLabel.h</text>
</a>
</g>
</g>
<!-- Node33&#45;&gt;Node39 -->
<g id="edge47" class="edge"><title>Node33&#45;&gt;Node39</title>
<path fill="none" stroke="midnightblue" d="M1865.84,-340.403C1860.55,-331.582 1852.16,-317.608 1845.47,-306.455"/>
<polygon fill="midnightblue" stroke="midnightblue" points="1848.29,-304.355 1840.15,-297.581 1842.29,-307.956 1848.29,-304.355"/>
</g>
<!-- Node35 -->
<g id="node35" class="node"><title>Node35</title>
<polygon fill="none" stroke="#bfbfbf" points="2198,-210.5 2198,-229.5 2260,-229.5 2260,-210.5 2198,-210.5"/>
<text text-anchor="middle" x="2229" y="-217.5" font-family="Helvetica,sans-Serif" font-size="10.00">TNamed.h</text>
</g>
<!-- Node34&#45;&gt;Node35 -->
<g id="edge43" class="edge"><title>Node34&#45;&gt;Node35</title>
<path fill="none" stroke="midnightblue" d="M2200.81,-272.679C2206.26,-262.694 2213.56,-249.307 2219.37,-238.66"/>
<polygon fill="midnightblue" stroke="midnightblue" points="2222.47,-240.283 2224.18,-229.828 2216.32,-236.931 2222.47,-240.283"/>
</g>
<!-- Node36 -->
<g id="node36" class="node"><title>Node36</title>
<polygon fill="none" stroke="#bfbfbf" points="2278.5,-210.5 2278.5,-229.5 2327.5,-229.5 2327.5,-210.5 2278.5,-210.5"/>
<text text-anchor="middle" x="2303" y="-217.5" font-family="Helvetica,sans-Serif" font-size="10.00">cassert</text>
</g>
<!-- Node34&#45;&gt;Node36 -->
<g id="edge44" class="edge"><title>Node34&#45;&gt;Node36</title>
<path fill="none" stroke="midnightblue" d="M2216.6,-272.841C2235.28,-261.63 2261.24,-246.056 2279.82,-234.91"/>
<polygon fill="midnightblue" stroke="midnightblue" points="2281.76,-237.828 2288.53,-229.682 2278.15,-231.826 2281.76,-237.828"/>
</g>
<!-- Node37 -->
<g id="node37" class="node"><title>Node37</title>
<polygon fill="none" stroke="#bfbfbf" points="2345.5,-210.5 2345.5,-229.5 2404.5,-229.5 2404.5,-210.5 2345.5,-210.5"/>
<text text-anchor="middle" x="2375" y="-217.5" font-family="Helvetica,sans-Serif" font-size="10.00">stdexcept</text>
</g>
<!-- Node34&#45;&gt;Node37 -->
<g id="edge45" class="edge"><title>Node34&#45;&gt;Node37</title>
<path fill="none" stroke="midnightblue" d="M2233.16,-272.974C2261.87,-262.873 2301.4,-248.822 2336,-236 2338.53,-235.063 2341.14,-234.083 2343.77,-233.09"/>
<polygon fill="midnightblue" stroke="midnightblue" points="2345.07,-236.338 2353.17,-229.504 2342.58,-229.797 2345.07,-236.338"/>
</g>
<!-- Node38 -->
<g id="node38" class="node"><title>Node38</title>
<polygon fill="none" stroke="#bfbfbf" points="2134.5,-210.5 2134.5,-229.5 2179.5,-229.5 2179.5,-210.5 2134.5,-210.5"/>
<text text-anchor="middle" x="2157" y="-217.5" font-family="Helvetica,sans-Serif" font-size="10.00">gsl/gsl</text>
</g>
<!-- Node34&#45;&gt;Node38 -->
<g id="edge46" class="edge"><title>Node34&#45;&gt;Node38</title>
<path fill="none" stroke="midnightblue" d="M2185.19,-272.679C2179.74,-262.694 2172.44,-249.307 2166.63,-238.66"/>
<polygon fill="midnightblue" stroke="midnightblue" points="2169.68,-236.931 2161.82,-229.828 2163.53,-240.283 2169.68,-236.931"/>
</g>
<!-- Node40 -->
<g id="node40" class="node"><title>Node40</title>
<g id="a_node40"><a xlink:href="../../d7/dcd/MCCompLabel_8h.html" target="_top" xlink:title="SimulationDataFormat\l/MCCompLabel.h">
<polygon fill="none" stroke="black" points="1854,-137 1854,-167 1968,-167 1968,-137 1854,-137"/>
<text text-anchor="start" x="1862" y="-155" font-family="Helvetica,sans-Serif" font-size="10.00">SimulationDataFormat</text>
<text text-anchor="middle" x="1911" y="-144" font-family="Helvetica,sans-Serif" font-size="10.00">/MCCompLabel.h</text>
</a>
</g>
</g>
<!-- Node39&#45;&gt;Node40 -->
<g id="edge48" class="edge"><title>Node39&#45;&gt;Node40</title>
<path fill="none" stroke="midnightblue" d="M1826.02,-278.282C1811.01,-262.618 1783.96,-229.015 1800,-204 1810.24,-188.032 1826.87,-176.996 1844.18,-169.396"/>
<polygon fill="midnightblue" stroke="midnightblue" points="1845.85,-172.494 1853.83,-165.517 1843.24,-165.999 1845.85,-172.494"/>
</g>
<!-- Node40&#45;&gt;Node3 -->
<g id="edge49" class="edge"><title>Node40&#45;&gt;Node3</title>
<path fill="none" stroke="midnightblue" d="M1892.56,-136.679C1878.65,-125.879 1859.61,-111.098 1845.46,-100.11"/>
<polygon fill="midnightblue" stroke="midnightblue" points="1847.41,-97.1968 1837.37,-93.8283 1843.12,-102.726 1847.41,-97.1968"/>
</g>
</g>
</svg>
        <g id="navigator" transform="translate(0 0)" fill="#404254">
                <rect fill="#f2f5e9" fill-opacity="0.5" stroke="#606060" stroke-width=".5" x="0" y="0" width="60" height="60"/>
                <use id="zoomplus" xlink:href="#zoomPlus" x="17" y="9" onmousedown="handleZoom(evt,'in')"/>
                <use id="zoomminus" xlink:href="#zoomMin" x="42" y="9" onmousedown="handleZoom(evt,'out')"/>
                <use id="reset" xlink:href="#resetDef" x="30" y="36" onmousedown="handleReset()"/>
                <g id="arrowUp" xlink:href="#dirArrow" transform="translate(30 24)" onmousedown="handlePan(0,-1)">
                  <use xlink:href="#rim" fill="#404040">
                        <set attributeName="fill" to="#808080" begin="arrowUp.mouseover" end="arrowUp.mouseout"/>
                  </use>
                  <path fill="none" stroke="white" stroke-width="1.5" d="M0,-3.0v7 M-2.5,-0.5L0,-3.0L2.5,-0.5"/>
                </g>
                <g id="arrowRight" xlink:href="#dirArrow" transform="rotate(90) translate(36 -43)" onmousedown="handlePan(1,0)">
                  <use xlink:href="#rim" fill="#404040">
                        <set attributeName="fill" to="#808080" begin="arrowRight.mouseover" end="arrowRight.mouseout"/>
                  </use>
                  <path fill="none" stroke="white" stroke-width="1.5" d="M0,-3.0v7 M-2.5,-0.5L0,-3.0L2.5,-0.5"/>
                </g>
                <g id="arrowDown" xlink:href="#dirArrow" transform="rotate(180) translate(-30 -48)" onmousedown="handlePan(0,1)">
                  <use xlink:href="#rim" fill="#404040">
                        <set attributeName="fill" to="#808080" begin="arrowDown.mouseover" end="arrowDown.mouseout"/>
                  </use>
                  <path fill="none" stroke="white" stroke-width="1.5" d="M0,-3.0v7 M-2.5,-0.5L0,-3.0L2.5,-0.5"/>
                </g>
                <g id="arrowLeft" xlink:href="#dirArrow" transform="rotate(270) translate(-36 17)" onmousedown="handlePan(-1,0)">
                  <use xlink:href="#rim" fill="#404040">
                        <set attributeName="fill" to="#808080" begin="arrowLeft.mouseover" end="arrowLeft.mouseout"/>
                  </use>
                  <path fill="none" stroke="white" stroke-width="1.5" d="M0,-3.0v7 M-2.5,-0.5L0,-3.0L2.5,-0.5"/>
                </g>
        </g>
        <svg viewBox="0 0 15 15" width="100%" height="30px" preserveAspectRatio="xMaxYMin meet">
         <g id="arrow_out" transform="scale(0.3 0.3)">
          <a xlink:href="TOF_2simulation_2include_2TOFSimulation_2DigitizerTask_8h__incl_org.svg" target="_base">
           <rect id="button" ry="5" rx="5" y="6" x="6" height="38" width="38"
                fill="#f2f5e9" fill-opacity="0.5" stroke="#606060" stroke-width="1.0"/>
           <path id="arrow"
             d="M 11.500037,31.436501 C 11.940474,20.09759 22.043105,11.32322 32.158766,21.979434 L 37.068811,17.246167 C 37.068811,17.246167 37.088388,32 37.088388,32 L 22.160133,31.978069 C 22.160133,31.978069 26.997745,27.140456 26.997745,27.140456 C 18.528582,18.264221 13.291696,25.230495 11.500037,31.436501 z"
             style="fill:#404040;"/>
          </a>
         </g>
        </svg>
</svg>
