<?xml version="1.0" encoding="UTF-8" standalone="no"?>
<!DOCTYPE svg PUBLIC "-//W3C//DTD SVG 1.1//EN"
 "http://www.w3.org/Graphics/SVG/1.1/DTD/svg11.dtd">
<!-- Generated by graphviz version 2.36.0 (20140111.2315)
 -->
<!-- Title: o2::tof::Digit Pages: 1 -->
<svg width="90pt" height="282pt"
 viewBox="0.00 0.00 90.00 282.00" xmlns="http://www.w3.org/2000/svg" xmlns:xlink="http://www.w3.org/1999/xlink">
<g id="graph0" class="graph" transform="scale(1 1) rotate(0) translate(4 278)">
<title>o2::tof::Digit</title>
<!-- Node1 -->
<g id="node1" class="node"><title>Node1</title>
<polygon fill="#bfbfbf" stroke="black" points="0,-1 0,-179 82,-179 82,-1 0,-1"/>
<text text-anchor="middle" x="41" y="-167" font-family="Helvetica,sans-Serif" font-size="10.00">o2::tof::Digit</text>
<polyline fill="none" stroke="black" points="0,-160 82,-160 "/>
<text text-anchor="middle" x="41" y="-148" font-family="Helvetica,sans-Serif" font-size="10.00"> </text>
<polyline fill="none" stroke="black" points="0,-141 82,-141 "/>
<text text-anchor="start" x="8" y="-129" font-family="Helvetica,sans-Serif" font-size="10.00">+ Digit()</text>
<text text-anchor="start" x="8" y="-118" font-family="Helvetica,sans-Serif" font-size="10.00">+ Digit()</text>
<text text-anchor="start" x="8" y="-107" font-family="Helvetica,sans-Serif" font-size="10.00">+ ~Digit()</text>
<text text-anchor="start" x="8" y="-96" font-family="Helvetica,sans-Serif" font-size="10.00">+ getChannel()</text>
<text text-anchor="start" x="8" y="-85" font-family="Helvetica,sans-Serif" font-size="10.00">+ setChannel()</text>
<text text-anchor="start" x="8" y="-74" font-family="Helvetica,sans-Serif" font-size="10.00">+ getTDC()</text>
<text text-anchor="start" x="8" y="-63" font-family="Helvetica,sans-Serif" font-size="10.00">+ setTDC()</text>
<text text-anchor="start" x="8" y="-52" font-family="Helvetica,sans-Serif" font-size="10.00">+ getTOT()</text>
<text text-anchor="start" x="8" y="-41" font-family="Helvetica,sans-Serif" font-size="10.00">+ setTOT()</text>
<text text-anchor="start" x="8" y="-30" font-family="Helvetica,sans-Serif" font-size="10.00">+ getBC()</text>
<text text-anchor="start" x="8" y="-19" font-family="Helvetica,sans-Serif" font-size="10.00">+ setBC()</text>
<text text-anchor="start" x="8" y="-8" font-family="Helvetica,sans-Serif" font-size="10.00">+ printStream()</text>
</g>
<!-- Node2 -->
<g id="node2" class="node"><title>Node2</title>
<g id="a_node2"><a xlink:href="../../d6/d15/classFairTimeStamp.html" target="_top" xlink:title="{FairTimeStamp\n||}">
<polygon fill="none" stroke="black" points="-0.5,-216.5 -0.5,-273.5 82.5,-273.5 82.5,-216.5 -0.5,-216.5"/>
<text text-anchor="middle" x="41" y="-261.5" font-family="Helvetica,sans-Serif" font-size="10.00">FairTimeStamp</text>
<polyline fill="none" stroke="black" points="-0.5,-254.5 82.5,-254.5 "/>
<text text-anchor="middle" x="41" y="-242.5" font-family="Helvetica,sans-Serif" font-size="10.00"> </text>
<polyline fill="none" stroke="black" points="-0.5,-235.5 82.5,-235.5 "/>
<text text-anchor="middle" x="41" y="-223.5" font-family="Helvetica,sans-Serif" font-size="10.00"> </text>
</a>
</g>
</g>
<!-- Node2&#45;&gt;Node1 -->
<g id="edge1" class="edge"><title>Node2&#45;&gt;Node1</title>
<path fill="none" stroke="midnightblue" d="M41,-206.166C41,-197.781 41,-188.554 41,-179.086"/>
<polygon fill="none" stroke="midnightblue" points="37.5001,-206.293 41,-216.293 44.5001,-206.293 37.5001,-206.293"/>
</g>
</g>
</svg>
