<?xml version="1.0" encoding="UTF-8" standalone="no"?>
<!DOCTYPE svg PUBLIC "-//W3C//DTD SVG 1.1//EN"
 "http://www.w3.org/Graphics/SVG/1.1/DTD/svg11.dtd">
<!-- Generated by graphviz version 2.36.0 (20140111.2315)
 -->
<!-- Title: /home/travis/build/AliceO2Group/AliceO2/Detectors/TOF/base/src/Digit.cxx Pages: 1 -->
<svg width="350pt" height="186pt"
 viewBox="0.00 0.00 350.00 186.00" xmlns="http://www.w3.org/2000/svg" xmlns:xlink="http://www.w3.org/1999/xlink">
<g id="graph0" class="graph" transform="scale(1 1) rotate(0) translate(4 182)">
<title>/home/travis/build/AliceO2Group/AliceO2/Detectors/TOF/base/src/Digit.cxx</title>
<!-- Node1 -->
<g id="node1" class="node"><title>Node1</title>
<polygon fill="#bfbfbf" stroke="black" points="109.5,-125 109.5,-177 234.5,-177 234.5,-125 109.5,-125"/>
<text text-anchor="start" x="117.5" y="-165" font-family="Helvetica,sans-Serif" font-size="10.00">/home/travis/build</text>
<text text-anchor="start" x="117.5" y="-154" font-family="Helvetica,sans-Serif" font-size="10.00">/AliceO2Group/AliceO2</text>
<text text-anchor="start" x="117.5" y="-143" font-family="Helvetica,sans-Serif" font-size="10.00">/Detectors/TOF/base/src</text>
<text text-anchor="middle" x="172" y="-132" font-family="Helvetica,sans-Serif" font-size="10.00">/Digit.cxx</text>
</g>
<!-- Node2 -->
<g id="node2" class="node"><title>Node2</title>
<g id="a_node2"><a xlink:href="../../df/d9c/TOF_2base_2include_2TOFBase_2Digit_8h.html" target="_top" xlink:title="TOFBase/Digit.h">
<polygon fill="none" stroke="black" points="127,-68.5 127,-87.5 217,-87.5 217,-68.5 127,-68.5"/>
<text text-anchor="middle" x="172" y="-75.5" font-family="Helvetica,sans-Serif" font-size="10.00">TOFBase/Digit.h</text>
</a>
</g>
</g>
<!-- Node1&#45;&gt;Node2 -->
<g id="edge1" class="edge"><title>Node1&#45;&gt;Node2</title>
<path fill="none" stroke="midnightblue" d="M172,-124.768C172,-115.89 172,-106.074 172,-97.8165"/>
<polygon fill="midnightblue" stroke="midnightblue" points="175.5,-97.7571 172,-87.7572 168.5,-97.7572 175.5,-97.7571"/>
</g>
<!-- Node3 -->
<g id="node3" class="node"><title>Node3</title>
<polygon fill="none" stroke="#bfbfbf" points="0,-6.5 0,-25.5 92,-25.5 92,-6.5 0,-6.5"/>
<text text-anchor="middle" x="46" y="-13.5" font-family="Helvetica,sans-Serif" font-size="10.00">FairTimeStamp.h</text>
</g>
<!-- Node2&#45;&gt;Node3 -->
<g id="edge2" class="edge"><title>Node2&#45;&gt;Node3</title>
<path fill="none" stroke="midnightblue" d="M153.947,-68.4035C132.802,-58.3341 97.5596,-41.5522 73.1218,-29.9151"/>
<polygon fill="midnightblue" stroke="midnightblue" points="74.5526,-26.72 64.0192,-25.5806 71.5431,-33.04 74.5526,-26.72"/>
</g>
<!-- Node4 -->
<g id="node4" class="node"><title>Node4</title>
<polygon fill="none" stroke="#bfbfbf" points="110,-6.5 110,-25.5 166,-25.5 166,-6.5 110,-6.5"/>
<text text-anchor="middle" x="138" y="-13.5" font-family="Helvetica,sans-Serif" font-size="10.00">Rtypes.h</text>
</g>
<!-- Node2&#45;&gt;Node4 -->
<g id="edge3" class="edge"><title>Node2&#45;&gt;Node4</title>
<path fill="none" stroke="midnightblue" d="M167.129,-68.4035C162.13,-59.5816 154.211,-45.6075 147.891,-34.4548"/>
<polygon fill="midnightblue" stroke="midnightblue" points="150.838,-32.5553 142.862,-25.5806 144.747,-36.0064 150.838,-32.5553"/>
</g>
<!-- Node5 -->
<g id="node5" class="node"><title>Node5</title>
<polygon fill="none" stroke="#bfbfbf" points="184.5,-6.5 184.5,-25.5 229.5,-25.5 229.5,-6.5 184.5,-6.5"/>
<text text-anchor="middle" x="207" y="-13.5" font-family="Helvetica,sans-Serif" font-size="10.00">iosfwd</text>
</g>
<!-- Node2&#45;&gt;Node5 -->
<g id="edge4" class="edge"><title>Node2&#45;&gt;Node5</title>
<path fill="none" stroke="midnightblue" d="M177.015,-68.4035C182.161,-59.5816 190.312,-45.6075 196.818,-34.4548"/>
<polygon fill="midnightblue" stroke="midnightblue" points="199.979,-35.982 201.995,-25.5806 193.933,-32.4548 199.979,-35.982"/>
</g>
<!-- Node6 -->
<g id="node6" class="node"><title>Node6</title>
<polygon fill="none" stroke="#bfbfbf" points="247.5,-1 247.5,-31 342.5,-31 342.5,-1 247.5,-1"/>
<text text-anchor="start" x="255.5" y="-19" font-family="Helvetica,sans-Serif" font-size="10.00">boost/serialization</text>
<text text-anchor="middle" x="295" y="-8" font-family="Helvetica,sans-Serif" font-size="10.00">/base_object.hpp</text>
</g>
<!-- Node2&#45;&gt;Node6 -->
<g id="edge5" class="edge"><title>Node2&#45;&gt;Node6</title>
<path fill="none" stroke="midnightblue" d="M189.623,-68.4035C207.06,-59.8976 234.316,-46.6018 256.74,-35.6635"/>
<polygon fill="midnightblue" stroke="midnightblue" points="258.558,-38.6708 266.011,-31.1408 255.489,-32.3794 258.558,-38.6708"/>
</g>
</g>
</svg>
