<?xml version="1.0" encoding="UTF-8" standalone="no"?>
<!DOCTYPE svg PUBLIC "-//W3C//DTD SVG 1.1//EN"
 "http://www.w3.org/Graphics/SVG/1.1/DTD/svg11.dtd">
<!-- Generated by graphviz version 2.36.0 (20140111.2315)
 -->
<!-- Title: /home/travis/build/AliceO2Group/AliceO2/Detectors/TOF/simulation/src/Detector.cxx Pages: 1 -->
<svg width="2533pt" height="390pt"
 viewBox="0.00 0.00 2533.00 390.00" xmlns="http://www.w3.org/2000/svg" xmlns:xlink="http://www.w3.org/1999/xlink">
<g id="graph0" class="graph" transform="scale(1 1) rotate(0) translate(4 386)">
<title>/home/travis/build/AliceO2Group/AliceO2/Detectors/TOF/simulation/src/Detector.cxx</title>
<!-- Node1 -->
<g id="node1" class="node"><title>Node1</title>
<polygon fill="#bfbfbf" stroke="black" points="1667,-329 1667,-381 1799,-381 1799,-329 1667,-329"/>
<text text-anchor="start" x="1675" y="-369" font-family="Helvetica,sans-Serif" font-size="10.00">/home/travis/build</text>
<text text-anchor="start" x="1675" y="-358" font-family="Helvetica,sans-Serif" font-size="10.00">/AliceO2Group/AliceO2</text>
<text text-anchor="start" x="1675" y="-347" font-family="Helvetica,sans-Serif" font-size="10.00">/Detectors/TOF/simulation</text>
<text text-anchor="middle" x="1733" y="-336" font-family="Helvetica,sans-Serif" font-size="10.00">/src/Detector.cxx</text>
</g>
<!-- Node2 -->
<g id="node2" class="node"><title>Node2</title>
<polygon fill="none" stroke="#bfbfbf" points="1446,-198.5 1446,-217.5 1532,-217.5 1532,-198.5 1446,-198.5"/>
<text text-anchor="middle" x="1489" y="-205.5" font-family="Helvetica,sans-Serif" font-size="10.00">TGeoManager.h</text>
</g>
<!-- Node1&#45;&gt;Node2 -->
<g id="edge1" class="edge"><title>Node1&#45;&gt;Node2</title>
<path fill="none" stroke="midnightblue" d="M1690.78,-328.908C1639.02,-298.152 1553.16,-247.126 1512.16,-222.766"/>
<polygon fill="midnightblue" stroke="midnightblue" points="1513.82,-219.681 1503.44,-217.581 1510.25,-225.698 1513.82,-219.681"/>
</g>
<!-- Node3 -->
<g id="node3" class="node"><title>Node3</title>
<polygon fill="none" stroke="#bfbfbf" points="0,-136.5 0,-155.5 92,-155.5 92,-136.5 0,-136.5"/>
<text text-anchor="middle" x="46" y="-143.5" font-family="Helvetica,sans-Serif" font-size="10.00">TLorentzVector.h</text>
</g>
<!-- Node1&#45;&gt;Node3 -->
<g id="edge2" class="edge"><title>Node1&#45;&gt;Node3</title>
<path fill="none" stroke="midnightblue" d="M1666.98,-352.746C1497.77,-348.984 1034.93,-335.235 652,-292 471.939,-271.67 424.915,-271.327 250,-224 185.763,-206.619 113.554,-176.801 74.6114,-159.821"/>
<polygon fill="midnightblue" stroke="midnightblue" points="75.5609,-156.416 64.9979,-155.595 72.7438,-162.824 75.5609,-156.416"/>
</g>
<!-- Node4 -->
<g id="node4" class="node"><title>Node4</title>
<polygon fill="none" stroke="#bfbfbf" points="1872.5,-136.5 1872.5,-155.5 1925.5,-155.5 1925.5,-136.5 1872.5,-136.5"/>
<text text-anchor="middle" x="1899" y="-143.5" font-family="Helvetica,sans-Serif" font-size="10.00">TMath.h</text>
</g>
<!-- Node1&#45;&gt;Node4 -->
<g id="edge3" class="edge"><title>Node1&#45;&gt;Node4</title>
<path fill="none" stroke="midnightblue" d="M1799.18,-353.171C1887.16,-348.041 2039.59,-324.22 2109,-224 2152.22,-161.6 2007.01,-149.599 1935.92,-147.413"/>
<polygon fill="midnightblue" stroke="midnightblue" points="1935.68,-143.906 1925.6,-147.148 1935.5,-150.903 1935.68,-143.906"/>
</g>
<!-- Node5 -->
<g id="node5" class="node"><title>Node5</title>
<polygon fill="none" stroke="#bfbfbf" points="2096,-266.5 2096,-285.5 2152,-285.5 2152,-266.5 2096,-266.5"/>
<text text-anchor="middle" x="2124" y="-273.5" font-family="Helvetica,sans-Serif" font-size="10.00">TString.h</text>
</g>
<!-- Node1&#45;&gt;Node5 -->
<g id="edge4" class="edge"><title>Node1&#45;&gt;Node5</title>
<path fill="none" stroke="midnightblue" d="M1799,-345.63C1869.72,-335.886 1984.9,-317.771 2082,-292 2085.4,-291.099 2088.91,-290.046 2092.39,-288.923"/>
<polygon fill="midnightblue" stroke="midnightblue" points="2093.65,-292.189 2101.99,-285.643 2091.39,-285.565 2093.65,-292.189"/>
</g>
<!-- Node6 -->
<g id="node6" class="node"><title>Node6</title>
<polygon fill="none" stroke="#bfbfbf" points="2029.5,-198.5 2029.5,-217.5 2100.5,-217.5 2100.5,-198.5 2029.5,-198.5"/>
<text text-anchor="middle" x="2065" y="-205.5" font-family="Helvetica,sans-Serif" font-size="10.00">FairLogger.h</text>
</g>
<!-- Node1&#45;&gt;Node6 -->
<g id="edge5" class="edge"><title>Node1&#45;&gt;Node6</title>
<path fill="none" stroke="midnightblue" d="M1790.45,-328.908C1861.91,-297.699 1981.16,-245.617 2035.91,-221.706"/>
<polygon fill="midnightblue" stroke="midnightblue" points="2037.59,-224.791 2045.35,-217.581 2034.79,-218.376 2037.59,-224.791"/>
</g>
<!-- Node7 -->
<g id="node7" class="node"><title>Node7</title>
<polygon fill="none" stroke="#bfbfbf" points="916,-136.5 916,-155.5 1016,-155.5 1016,-136.5 916,-136.5"/>
<text text-anchor="middle" x="966" y="-143.5" font-family="Helvetica,sans-Serif" font-size="10.00">FairRootManager.h</text>
</g>
<!-- Node1&#45;&gt;Node7 -->
<g id="edge6" class="edge"><title>Node1&#45;&gt;Node7</title>
<path fill="none" stroke="midnightblue" d="M1666.95,-349.701C1545.3,-341.209 1290.63,-320.599 1207,-292 1116.75,-261.138 1023.91,-192.95 984.979,-162.367"/>
<polygon fill="midnightblue" stroke="midnightblue" points="986.692,-159.257 976.685,-155.776 982.336,-164.738 986.692,-159.257"/>
</g>
<!-- Node8 -->
<g id="node8" class="node"><title>Node8</title>
<polygon fill="none" stroke="#bfbfbf" points="2170,-266.5 2170,-285.5 2244,-285.5 2244,-266.5 2170,-266.5"/>
<text text-anchor="middle" x="2207" y="-273.5" font-family="Helvetica,sans-Serif" font-size="10.00">FairVolume.h</text>
</g>
<!-- Node1&#45;&gt;Node8 -->
<g id="edge7" class="edge"><title>Node1&#45;&gt;Node8</title>
<path fill="none" stroke="midnightblue" d="M1799.09,-347.817C1883.55,-339.138 2033.9,-321.068 2160,-292 2164.23,-291.026 2168.62,-289.851 2172.95,-288.592"/>
<polygon fill="midnightblue" stroke="midnightblue" points="2174.29,-291.841 2182.82,-285.557 2172.23,-285.15 2174.29,-291.841"/>
</g>
<!-- Node9 -->
<g id="node9" class="node"><title>Node9</title>
<g id="a_node9"><a xlink:href="../../d5/d3c/TOF_2simulation_2include_2TOFSimulation_2Detector_8h.html" target="_top" xlink:title="TOFSimulation/Detector.h">
<polygon fill="none" stroke="black" points="1216.5,-266.5 1216.5,-285.5 1347.5,-285.5 1347.5,-266.5 1216.5,-266.5"/>
<text text-anchor="middle" x="1282" y="-273.5" font-family="Helvetica,sans-Serif" font-size="10.00">TOFSimulation/Detector.h</text>
</a>
</g>
</g>
<!-- Node1&#45;&gt;Node9 -->
<g id="edge8" class="edge"><title>Node1&#45;&gt;Node9</title>
<path fill="none" stroke="midnightblue" d="M1666.94,-342.721C1579.36,-327.769 1426.09,-301.601 1341.79,-287.208"/>
<polygon fill="midnightblue" stroke="midnightblue" points="1342.31,-283.745 1331.86,-285.512 1341.13,-290.646 1342.31,-283.745"/>
</g>
<!-- Node34 -->
<g id="node34" class="node"><title>Node34</title>
<polygon fill="none" stroke="#bfbfbf" points="2262,-266.5 2262,-285.5 2336,-285.5 2336,-266.5 2262,-266.5"/>
<text text-anchor="middle" x="2299" y="-273.5" font-family="Helvetica,sans-Serif" font-size="10.00">TVirtualMC.h</text>
</g>
<!-- Node1&#45;&gt;Node34 -->
<g id="edge38" class="edge"><title>Node1&#45;&gt;Node34</title>
<path fill="none" stroke="midnightblue" d="M1799.36,-350.274C1898.89,-343.748 2092.3,-327.421 2253,-292 2257.25,-291.064 2261.65,-289.894 2265.99,-288.622"/>
<polygon fill="midnightblue" stroke="midnightblue" points="2267.35,-291.863 2275.84,-285.533 2265.26,-285.183 2267.35,-291.863"/>
</g>
<!-- Node35 -->
<g id="node35" class="node"><title>Node35</title>
<g id="a_node35"><a xlink:href="../../db/dcc/Detectors_2Base_2include_2DetectorsBase_2GeometryManager_8h.html" target="_top" xlink:title="DetectorsBase/GeometryManager.h">
<polygon fill="none" stroke="black" points="1646.5,-266.5 1646.5,-285.5 1819.5,-285.5 1819.5,-266.5 1646.5,-266.5"/>
<text text-anchor="middle" x="1733" y="-273.5" font-family="Helvetica,sans-Serif" font-size="10.00">DetectorsBase/GeometryManager.h</text>
</a>
</g>
</g>
<!-- Node1&#45;&gt;Node35 -->
<g id="edge39" class="edge"><title>Node1&#45;&gt;Node35</title>
<path fill="none" stroke="midnightblue" d="M1733,-328.787C1733,-318.069 1733,-305.785 1733,-295.871"/>
<polygon fill="midnightblue" stroke="midnightblue" points="1736.5,-295.558 1733,-285.558 1729.5,-295.558 1736.5,-295.558"/>
</g>
<!-- Node48 -->
<g id="node48" class="node"><title>Node48</title>
<g id="a_node48"><a xlink:href="../../dc/db6/Stack_8h.html" target="_top" xlink:title="Definition of the Stack class. ">
<polygon fill="none" stroke="black" points="661,-261 661,-291 775,-291 775,-261 661,-261"/>
<text text-anchor="start" x="669" y="-279" font-family="Helvetica,sans-Serif" font-size="10.00">SimulationDataFormat</text>
<text text-anchor="middle" x="718" y="-268" font-family="Helvetica,sans-Serif" font-size="10.00">/Stack.h</text>
</a>
</g>
</g>
<!-- Node1&#45;&gt;Node48 -->
<g id="edge59" class="edge"><title>Node1&#45;&gt;Node48</title>
<path fill="none" stroke="midnightblue" d="M1666.79,-348.978C1483.41,-335.066 970.241,-296.135 785.415,-282.114"/>
<polygon fill="midnightblue" stroke="midnightblue" points="785.525,-278.613 775.289,-281.346 784.996,-285.593 785.525,-278.613"/>
</g>
<!-- Node10 -->
<g id="node10" class="node"><title>Node10</title>
<g id="a_node10"><a xlink:href="../../d1/d3a/Base_2include_2DetectorsBase_2Detector_8h.html" target="_top" xlink:title="DetectorsBase/Detector.h">
<polygon fill="none" stroke="black" points="1126.5,-198.5 1126.5,-217.5 1257.5,-217.5 1257.5,-198.5 1126.5,-198.5"/>
<text text-anchor="middle" x="1192" y="-205.5" font-family="Helvetica,sans-Serif" font-size="10.00">DetectorsBase/Detector.h</text>
</a>
</g>
</g>
<!-- Node9&#45;&gt;Node10 -->
<g id="edge9" class="edge"><title>Node9&#45;&gt;Node10</title>
<path fill="none" stroke="midnightblue" d="M1270.23,-266.372C1255.41,-255.502 1229.72,-236.66 1211.84,-223.547"/>
<polygon fill="midnightblue" stroke="midnightblue" points="1213.9,-220.722 1203.77,-217.63 1209.76,-226.367 1213.9,-220.722"/>
</g>
<!-- Node21 -->
<g id="node21" class="node"><title>Node21</title>
<g id="a_node21"><a xlink:href="../../d4/d54/Geo_8h.html" target="_top" xlink:title="TOFBase/Geo.h">
<polygon fill="none" stroke="black" points="846,-198.5 846,-217.5 934,-217.5 934,-198.5 846,-198.5"/>
<text text-anchor="middle" x="890" y="-205.5" font-family="Helvetica,sans-Serif" font-size="10.00">TOFBase/Geo.h</text>
</a>
</g>
</g>
<!-- Node9&#45;&gt;Node21 -->
<g id="edge23" class="edge"><title>Node9&#45;&gt;Node21</title>
<path fill="none" stroke="midnightblue" d="M1231.15,-266.439C1157.16,-253.981 1020.36,-230.949 944.407,-218.16"/>
<polygon fill="midnightblue" stroke="midnightblue" points="944.548,-214.635 934.106,-216.426 943.386,-221.538 944.548,-214.635"/>
</g>
<!-- Node22 -->
<g id="node22" class="node"><title>Node22</title>
<g id="a_node22"><a xlink:href="../../d4/d25/BaseHits_8h.html" target="_top" xlink:title="SimulationDataFormat\l/BaseHits.h">
<polygon fill="none" stroke="black" points="1314,-193 1314,-223 1428,-223 1428,-193 1314,-193"/>
<text text-anchor="start" x="1322" y="-211" font-family="Helvetica,sans-Serif" font-size="10.00">SimulationDataFormat</text>
<text text-anchor="middle" x="1371" y="-200" font-family="Helvetica,sans-Serif" font-size="10.00">/BaseHits.h</text>
</a>
</g>
</g>
<!-- Node9&#45;&gt;Node22 -->
<g id="edge25" class="edge"><title>Node9&#45;&gt;Node22</title>
<path fill="none" stroke="midnightblue" d="M1293.64,-266.372C1306.23,-257.029 1326.77,-241.797 1343.52,-229.375"/>
<polygon fill="midnightblue" stroke="midnightblue" points="1345.93,-231.949 1351.88,-223.181 1341.76,-226.327 1345.93,-231.949"/>
</g>
<!-- Node10&#45;&gt;Node7 -->
<g id="edge14" class="edge"><title>Node10&#45;&gt;Node7</title>
<path fill="none" stroke="midnightblue" d="M1159.62,-198.403C1119.76,-187.822 1051.98,-169.827 1008.11,-158.18"/>
<polygon fill="midnightblue" stroke="midnightblue" points="1008.88,-154.764 998.32,-155.581 1007.09,-161.529 1008.88,-154.764"/>
</g>
<!-- Node11 -->
<g id="node11" class="node"><title>Node11</title>
<polygon fill="none" stroke="#bfbfbf" points="1297.5,-74.5 1297.5,-93.5 1332.5,-93.5 1332.5,-74.5 1297.5,-74.5"/>
<text text-anchor="middle" x="1315" y="-81.5" font-family="Helvetica,sans-Serif" font-size="10.00">map</text>
</g>
<!-- Node10&#45;&gt;Node11 -->
<g id="edge10" class="edge"><title>Node10&#45;&gt;Node11</title>
<path fill="none" stroke="midnightblue" d="M1233.82,-198.435C1246.09,-196.12 1259.55,-193.768 1272,-192 1313,-186.178 1615.16,-186.667 1643,-156 1648.97,-149.418 1648.9,-142.648 1643,-136 1598.28,-85.6162 1406.09,-120.747 1342,-100 1340.35,-99.4664 1338.69,-98.8285 1337.04,-98.1211"/>
<polygon fill="midnightblue" stroke="midnightblue" points="1338.5,-94.9342 1327.99,-93.553 1335.34,-101.183 1338.5,-94.9342"/>
</g>
<!-- Node12 -->
<g id="node12" class="node"><title>Node12</title>
<polygon fill="none" stroke="#bfbfbf" points="1170,-136.5 1170,-155.5 1214,-155.5 1214,-136.5 1170,-136.5"/>
<text text-anchor="middle" x="1192" y="-143.5" font-family="Helvetica,sans-Serif" font-size="10.00">vector</text>
</g>
<!-- Node10&#45;&gt;Node12 -->
<g id="edge11" class="edge"><title>Node10&#45;&gt;Node12</title>
<path fill="none" stroke="midnightblue" d="M1192,-198.403C1192,-189.938 1192,-176.728 1192,-165.82"/>
<polygon fill="midnightblue" stroke="midnightblue" points="1195.5,-165.581 1192,-155.581 1188.5,-165.581 1195.5,-165.581"/>
</g>
<!-- Node13 -->
<g id="node13" class="node"><title>Node13</title>
<polygon fill="none" stroke="#bfbfbf" points="846,-136.5 846,-155.5 898,-155.5 898,-136.5 846,-136.5"/>
<text text-anchor="middle" x="872" y="-143.5" font-family="Helvetica,sans-Serif" font-size="10.00">memory</text>
</g>
<!-- Node10&#45;&gt;Node13 -->
<g id="edge12" class="edge"><title>Node10&#45;&gt;Node13</title>
<path fill="none" stroke="midnightblue" d="M1137.39,-198.471C1081.98,-189.538 993.553,-174.517 908.178,-156.133"/>
<polygon fill="midnightblue" stroke="midnightblue" points="908.838,-152.695 898.323,-153.993 907.352,-159.536 908.838,-152.695"/>
</g>
<!-- Node14 -->
<g id="node14" class="node"><title>Node14</title>
<polygon fill="none" stroke="#bfbfbf" points="1415.5,-136.5 1415.5,-155.5 1494.5,-155.5 1494.5,-136.5 1415.5,-136.5"/>
<text text-anchor="middle" x="1455" y="-143.5" font-family="Helvetica,sans-Serif" font-size="10.00">FairDetector.h</text>
</g>
<!-- Node10&#45;&gt;Node14 -->
<g id="edge13" class="edge"><title>Node10&#45;&gt;Node14</title>
<path fill="none" stroke="midnightblue" d="M1229.4,-198.467C1276.33,-187.76 1356.85,-169.392 1407.92,-157.74"/>
<polygon fill="midnightblue" stroke="midnightblue" points="1408.76,-161.14 1417.73,-155.503 1407.2,-154.315 1408.76,-161.14"/>
</g>
<!-- Node15 -->
<g id="node15" class="node"><title>Node15</title>
<g id="a_node15"><a xlink:href="../../d0/d9a/MaterialManager_8h.html" target="_top" xlink:title="DetectorsBase/MaterialManager.h">
<polygon fill="none" stroke="black" points="1232.5,-136.5 1232.5,-155.5 1397.5,-155.5 1397.5,-136.5 1232.5,-136.5"/>
<text text-anchor="middle" x="1315" y="-143.5" font-family="Helvetica,sans-Serif" font-size="10.00">DetectorsBase/MaterialManager.h</text>
</a>
</g>
</g>
<!-- Node10&#45;&gt;Node15 -->
<g id="edge15" class="edge"><title>Node10&#45;&gt;Node15</title>
<path fill="none" stroke="midnightblue" d="M1209.62,-198.403C1230.17,-188.379 1264.36,-171.701 1288.21,-160.07"/>
<polygon fill="midnightblue" stroke="midnightblue" points="1289.96,-163.111 1297.41,-155.581 1286.89,-156.819 1289.96,-163.111"/>
</g>
<!-- Node16 -->
<g id="node16" class="node"><title>Node16</title>
<polygon fill="none" stroke="#bfbfbf" points="911,-74.5 911,-93.5 967,-93.5 967,-74.5 911,-74.5"/>
<text text-anchor="middle" x="939" y="-81.5" font-family="Helvetica,sans-Serif" font-size="10.00">Rtypes.h</text>
</g>
<!-- Node10&#45;&gt;Node16 -->
<g id="edge18" class="edge"><title>Node10&#45;&gt;Node16</title>
<path fill="none" stroke="midnightblue" d="M1176.94,-198.494C1152.35,-184.734 1101.94,-157.013 1058,-136 1028.42,-121.852 993.9,-107.265 969.684,-97.3354"/>
<polygon fill="midnightblue" stroke="midnightblue" points="970.883,-94.0443 960.301,-93.5095 968.24,-100.526 970.883,-94.0443"/>
</g>
<!-- Node17 -->
<g id="node17" class="node"><title>Node17</title>
<polygon fill="none" stroke="#bfbfbf" points="1512.5,-136.5 1512.5,-155.5 1565.5,-155.5 1565.5,-136.5 1512.5,-136.5"/>
<text text-anchor="middle" x="1539" y="-143.5" font-family="Helvetica,sans-Serif" font-size="10.00">cxxabi.h</text>
</g>
<!-- Node10&#45;&gt;Node17 -->
<g id="edge19" class="edge"><title>Node10&#45;&gt;Node17</title>
<path fill="none" stroke="midnightblue" d="M1236.39,-198.426C1247.97,-196.258 1260.44,-193.984 1272,-192 1371.31,-174.956 1399.47,-176.507 1502.46,-155.946"/>
<polygon fill="midnightblue" stroke="midnightblue" points="1503.21,-159.363 1512.32,-153.954 1501.83,-152.501 1503.21,-159.363"/>
</g>
<!-- Node18 -->
<g id="node18" class="node"><title>Node18</title>
<polygon fill="none" stroke="#bfbfbf" points="1583.5,-136.5 1583.5,-155.5 1634.5,-155.5 1634.5,-136.5 1583.5,-136.5"/>
<text text-anchor="middle" x="1609" y="-143.5" font-family="Helvetica,sans-Serif" font-size="10.00">typeinfo</text>
</g>
<!-- Node10&#45;&gt;Node18 -->
<g id="edge20" class="edge"><title>Node10&#45;&gt;Node18</title>
<path fill="none" stroke="midnightblue" d="M1234.67,-198.453C1246.72,-196.19 1259.85,-193.861 1272,-192 1402.48,-172.013 1439.42,-180.465 1573.64,-155.815"/>
<polygon fill="midnightblue" stroke="midnightblue" points="1574.28,-159.255 1583.47,-153.982 1573,-152.374 1574.28,-159.255"/>
</g>
<!-- Node19 -->
<g id="node19" class="node"><title>Node19</title>
<polygon fill="none" stroke="#bfbfbf" points="831,-74.5 831,-93.5 893,-93.5 893,-74.5 831,-74.5"/>
<text text-anchor="middle" x="862" y="-81.5" font-family="Helvetica,sans-Serif" font-size="10.00">type_traits</text>
</g>
<!-- Node10&#45;&gt;Node19 -->
<g id="edge21" class="edge"><title>Node10&#45;&gt;Node19</title>
<path fill="none" stroke="midnightblue" d="M1165.47,-198.493C1138,-189.32 1094.12,-173.64 1058,-156 1042.59,-148.475 1040.7,-142.912 1025,-136 972.87,-113.045 956.037,-118.012 902,-100 899.23,-99.0765 896.365,-98.0823 893.501,-97.0608"/>
<polygon fill="midnightblue" stroke="midnightblue" points="894.496,-93.698 883.902,-93.5469 892.09,-100.271 894.496,-93.698"/>
</g>
<!-- Node20 -->
<g id="node20" class="node"><title>Node20</title>
<polygon fill="none" stroke="#bfbfbf" points="1110.5,-136.5 1110.5,-155.5 1151.5,-155.5 1151.5,-136.5 1110.5,-136.5"/>
<text text-anchor="middle" x="1131" y="-143.5" font-family="Helvetica,sans-Serif" font-size="10.00">string</text>
</g>
<!-- Node10&#45;&gt;Node20 -->
<g id="edge22" class="edge"><title>Node10&#45;&gt;Node20</title>
<path fill="none" stroke="midnightblue" d="M1183.26,-198.403C1173.84,-189.136 1158.64,-174.183 1147.05,-162.788"/>
<polygon fill="midnightblue" stroke="midnightblue" points="1149.31,-160.098 1139.72,-155.581 1144.4,-165.088 1149.31,-160.098"/>
</g>
<!-- Node15&#45;&gt;Node11 -->
<g id="edge17" class="edge"><title>Node15&#45;&gt;Node11</title>
<path fill="none" stroke="midnightblue" d="M1315,-136.403C1315,-127.938 1315,-114.728 1315,-103.82"/>
<polygon fill="midnightblue" stroke="midnightblue" points="1318.5,-103.581 1315,-93.5806 1311.5,-103.581 1318.5,-103.581"/>
</g>
<!-- Node15&#45;&gt;Node16 -->
<g id="edge16" class="edge"><title>Node15&#45;&gt;Node16</title>
<path fill="none" stroke="midnightblue" d="M1261.53,-136.467C1184.74,-124.214 1045.07,-101.926 977.568,-91.1545"/>
<polygon fill="midnightblue" stroke="midnightblue" points="977.801,-87.6475 967.375,-89.5279 976.698,-94.5601 977.801,-87.6475"/>
</g>
<!-- Node21&#45;&gt;Node16 -->
<g id="edge24" class="edge"><title>Node21&#45;&gt;Node16</title>
<path fill="none" stroke="midnightblue" d="M875.249,-198.387C854.918,-185.369 822.363,-159.683 837,-136 841.232,-129.153 881.245,-110.426 909.874,-97.6745"/>
<polygon fill="midnightblue" stroke="midnightblue" points="911.348,-100.85 919.078,-93.6049 908.517,-94.4476 911.348,-100.85"/>
</g>
<!-- Node23 -->
<g id="node23" class="node"><title>Node23</title>
<g id="a_node23"><a xlink:href="../../dd/d76/Cartesian3D_8h.html" target="_top" xlink:title="MathUtils/Cartesian3D.h">
<polygon fill="none" stroke="black" points="1729.5,-136.5 1729.5,-155.5 1854.5,-155.5 1854.5,-136.5 1729.5,-136.5"/>
<text text-anchor="middle" x="1792" y="-143.5" font-family="Helvetica,sans-Serif" font-size="10.00">MathUtils/Cartesian3D.h</text>
</a>
</g>
</g>
<!-- Node22&#45;&gt;Node23 -->
<g id="edge26" class="edge"><title>Node22&#45;&gt;Node23</title>
<path fill="none" stroke="midnightblue" d="M1428.17,-193.649C1431.15,-193.065 1434.11,-192.511 1437,-192 1464.08,-187.218 1623.5,-167.527 1719.26,-155.836"/>
<polygon fill="midnightblue" stroke="midnightblue" points="1719.96,-159.276 1729.46,-154.591 1719.11,-152.328 1719.96,-159.276"/>
</g>
<!-- Node23&#45;&gt;Node16 -->
<g id="edge30" class="edge"><title>Node23&#45;&gt;Node16</title>
<path fill="none" stroke="midnightblue" d="M1729.28,-140.588C1562.58,-128.863 1112.1,-97.1755 977.49,-87.7074"/>
<polygon fill="midnightblue" stroke="midnightblue" points="977.482,-84.1983 967.261,-86.9879 976.991,-91.181 977.482,-84.1983"/>
</g>
<!-- Node24 -->
<g id="node24" class="node"><title>Node24</title>
<polygon fill="none" stroke="#bfbfbf" points="2023.5,-74.5 2023.5,-93.5 2172.5,-93.5 2172.5,-74.5 2023.5,-74.5"/>
<text text-anchor="middle" x="2098" y="-81.5" font-family="Helvetica,sans-Serif" font-size="10.00">Math/GenVector/Rotation3D.h</text>
</g>
<!-- Node23&#45;&gt;Node24 -->
<g id="edge27" class="edge"><title>Node23&#45;&gt;Node24</title>
<path fill="none" stroke="midnightblue" d="M1835.52,-136.467C1890.58,-125.671 1985.36,-107.086 2044.7,-95.4501"/>
<polygon fill="midnightblue" stroke="midnightblue" points="2045.49,-98.8622 2054.63,-93.5034 2044.15,-91.993 2045.49,-98.8622"/>
</g>
<!-- Node25 -->
<g id="node25" class="node"><title>Node25</title>
<polygon fill="none" stroke="#bfbfbf" points="2191,-74.5 2191,-93.5 2347,-93.5 2347,-74.5 2191,-74.5"/>
<text text-anchor="middle" x="2269" y="-81.5" font-family="Helvetica,sans-Serif" font-size="10.00">Math/GenVector/Transform3D.h</text>
</g>
<!-- Node23&#45;&gt;Node25 -->
<g id="edge28" class="edge"><title>Node23&#45;&gt;Node25</title>
<path fill="none" stroke="midnightblue" d="M1854.71,-137.004C1857.51,-136.662 1860.29,-136.326 1863,-136 2004.22,-119.056 2040.17,-119.958 2181,-100 2191.01,-98.5811 2201.64,-96.911 2211.91,-95.2099"/>
<polygon fill="midnightblue" stroke="midnightblue" points="2212.76,-98.6175 2222.04,-93.5067 2211.59,-91.7145 2212.76,-98.6175"/>
</g>
<!-- Node26 -->
<g id="node26" class="node"><title>Node26</title>
<polygon fill="none" stroke="#bfbfbf" points="2365,-74.5 2365,-93.5 2525,-93.5 2525,-74.5 2365,-74.5"/>
<text text-anchor="middle" x="2445" y="-81.5" font-family="Helvetica,sans-Serif" font-size="10.00">Math/GenVector/Translation3D.h</text>
</g>
<!-- Node23&#45;&gt;Node26 -->
<g id="edge29" class="edge"><title>Node23&#45;&gt;Node26</title>
<path fill="none" stroke="midnightblue" d="M1854.7,-136.869C1857.5,-136.563 1860.28,-136.272 1863,-136 2081.61,-114.179 2137.88,-126.285 2356,-100 2366.84,-98.6938 2378.37,-96.9876 2389.41,-95.1958"/>
<polygon fill="midnightblue" stroke="midnightblue" points="2390.1,-98.6304 2399.39,-93.5352 2388.95,-91.7255 2390.1,-98.6304"/>
</g>
<!-- Node27 -->
<g id="node27" class="node"><title>Node27</title>
<polygon fill="none" stroke="#bfbfbf" points="1351,-74.5 1351,-93.5 1427,-93.5 1427,-74.5 1351,-74.5"/>
<text text-anchor="middle" x="1389" y="-81.5" font-family="Helvetica,sans-Serif" font-size="10.00">TGeoMatrix.h</text>
</g>
<!-- Node23&#45;&gt;Node27 -->
<g id="edge31" class="edge"><title>Node23&#45;&gt;Node27</title>
<path fill="none" stroke="midnightblue" d="M1729.48,-137.398C1631.18,-125.403 1450.12,-103.119 1436,-100 1431.77,-99.065 1427.37,-97.9132 1423.04,-96.6669"/>
<polygon fill="midnightblue" stroke="midnightblue" points="1423.75,-93.2244 1413.16,-93.645 1421.7,-99.918 1423.75,-93.2244"/>
</g>
<!-- Node28 -->
<g id="node28" class="node"><title>Node28</title>
<polygon fill="none" stroke="#bfbfbf" points="1445.5,-69 1445.5,-99 1596.5,-99 1596.5,-69 1445.5,-69"/>
<text text-anchor="start" x="1453.5" y="-87" font-family="Helvetica,sans-Serif" font-size="10.00">Math/GenVector/Displacement</text>
<text text-anchor="middle" x="1521" y="-76" font-family="Helvetica,sans-Serif" font-size="10.00">Vector3D.h</text>
</g>
<!-- Node23&#45;&gt;Node28 -->
<g id="edge32" class="edge"><title>Node23&#45;&gt;Node28</title>
<path fill="none" stroke="midnightblue" d="M1753.46,-136.467C1712.22,-127.337 1645.83,-112.638 1594.53,-101.281"/>
<polygon fill="midnightblue" stroke="midnightblue" points="1595.01,-97.801 1584.49,-99.0565 1593.5,-104.636 1595.01,-97.801"/>
</g>
<!-- Node29 -->
<g id="node29" class="node"><title>Node29</title>
<polygon fill="none" stroke="#bfbfbf" points="1615,-74.5 1615,-93.5 1791,-93.5 1791,-74.5 1615,-74.5"/>
<text text-anchor="middle" x="1703" y="-81.5" font-family="Helvetica,sans-Serif" font-size="10.00">Math/GenVector/PositionVector3D.h</text>
</g>
<!-- Node23&#45;&gt;Node29 -->
<g id="edge33" class="edge"><title>Node23&#45;&gt;Node29</title>
<path fill="none" stroke="midnightblue" d="M1779.25,-136.403C1764.97,-126.78 1741.6,-111.024 1724.49,-99.4891"/>
<polygon fill="midnightblue" stroke="midnightblue" points="1725.98,-96.2684 1715.73,-93.5806 1722.06,-102.073 1725.98,-96.2684"/>
</g>
<!-- Node30 -->
<g id="node30" class="node"><title>Node30</title>
<g id="a_node30"><a xlink:href="../../d2/dd0/Cartesian2D_8h.html" target="_top" xlink:title="MathUtils/Cartesian2D.h">
<polygon fill="none" stroke="black" points="1808.5,-74.5 1808.5,-93.5 1933.5,-93.5 1933.5,-74.5 1808.5,-74.5"/>
<text text-anchor="middle" x="1871" y="-81.5" font-family="Helvetica,sans-Serif" font-size="10.00">MathUtils/Cartesian2D.h</text>
</a>
</g>
</g>
<!-- Node23&#45;&gt;Node30 -->
<g id="edge34" class="edge"><title>Node23&#45;&gt;Node30</title>
<path fill="none" stroke="midnightblue" d="M1803.32,-136.403C1815.87,-126.869 1836.35,-111.315 1851.5,-99.8106"/>
<polygon fill="midnightblue" stroke="midnightblue" points="1853.86,-102.416 1859.7,-93.5806 1849.62,-96.8417 1853.86,-102.416"/>
</g>
<!-- Node33 -->
<g id="node33" class="node"><title>Node33</title>
<polygon fill="none" stroke="#bfbfbf" points="1952,-74.5 1952,-93.5 2006,-93.5 2006,-74.5 1952,-74.5"/>
<text text-anchor="middle" x="1979" y="-81.5" font-family="Helvetica,sans-Serif" font-size="10.00">iostream</text>
</g>
<!-- Node23&#45;&gt;Node33 -->
<g id="edge37" class="edge"><title>Node23&#45;&gt;Node33</title>
<path fill="none" stroke="midnightblue" d="M1823.59,-136.453C1854.14,-127.97 1901.61,-114.212 1942,-100 1944.4,-99.1546 1946.88,-98.2428 1949.36,-97.301"/>
<polygon fill="midnightblue" stroke="midnightblue" points="1950.75,-100.514 1958.77,-93.5979 1948.19,-93.9998 1950.75,-100.514"/>
</g>
<!-- Node31 -->
<g id="node31" class="node"><title>Node31</title>
<polygon fill="none" stroke="#bfbfbf" points="1704.5,-1 1704.5,-31 1855.5,-31 1855.5,-1 1704.5,-1"/>
<text text-anchor="start" x="1712.5" y="-19" font-family="Helvetica,sans-Serif" font-size="10.00">Math/GenVector/Displacement</text>
<text text-anchor="middle" x="1780" y="-8" font-family="Helvetica,sans-Serif" font-size="10.00">Vector2D.h</text>
</g>
<!-- Node30&#45;&gt;Node31 -->
<g id="edge35" class="edge"><title>Node30&#45;&gt;Node31</title>
<path fill="none" stroke="midnightblue" d="M1859.1,-74.3717C1846.22,-65.0286 1825.22,-49.7966 1808.09,-37.375"/>
<polygon fill="midnightblue" stroke="midnightblue" points="1809.7,-34.2194 1799.55,-31.1815 1805.59,-39.8859 1809.7,-34.2194"/>
</g>
<!-- Node32 -->
<g id="node32" class="node"><title>Node32</title>
<polygon fill="none" stroke="#bfbfbf" points="1874,-6.5 1874,-25.5 2050,-25.5 2050,-6.5 1874,-6.5"/>
<text text-anchor="middle" x="1962" y="-13.5" font-family="Helvetica,sans-Serif" font-size="10.00">Math/GenVector/PositionVector2D.h</text>
</g>
<!-- Node30&#45;&gt;Node32 -->
<g id="edge36" class="edge"><title>Node30&#45;&gt;Node32</title>
<path fill="none" stroke="midnightblue" d="M1882.9,-74.3717C1897.88,-63.5015 1923.86,-44.6602 1941.94,-31.5474"/>
<polygon fill="midnightblue" stroke="midnightblue" points="1944.06,-34.3349 1950.1,-25.6305 1939.95,-28.6684 1944.06,-34.3349"/>
</g>
<!-- Node35&#45;&gt;Node2 -->
<g id="edge40" class="edge"><title>Node35&#45;&gt;Node2</title>
<path fill="none" stroke="midnightblue" d="M1699.99,-266.458C1661.69,-256.496 1596.67,-239.422 1541,-224 1536.71,-222.811 1532.22,-221.548 1527.76,-220.279"/>
<polygon fill="midnightblue" stroke="midnightblue" points="1528.7,-216.907 1518.12,-217.518 1526.77,-223.636 1528.7,-216.907"/>
</g>
<!-- Node35&#45;&gt;Node4 -->
<g id="edge44" class="edge"><title>Node35&#45;&gt;Node4</title>
<path fill="none" stroke="midnightblue" d="M1767.97,-266.477C1793.78,-258.788 1828.52,-245.348 1853,-224 1871.56,-207.813 1884.75,-182.234 1892.11,-165.048"/>
<polygon fill="midnightblue" stroke="midnightblue" points="1895.43,-166.174 1895.94,-155.591 1888.95,-163.546 1895.43,-166.174"/>
</g>
<!-- Node35&#45;&gt;Node6 -->
<g id="edge57" class="edge"><title>Node35&#45;&gt;Node6</title>
<path fill="none" stroke="midnightblue" d="M1796.27,-266.469C1854.8,-257.938 1943.97,-243.316 2020,-224 2023.84,-223.024 2027.83,-221.885 2031.77,-220.679"/>
<polygon fill="midnightblue" stroke="midnightblue" points="2032.92,-223.986 2041.37,-217.596 2030.78,-217.321 2032.92,-223.986"/>
</g>
<!-- Node35&#45;&gt;Node23 -->
<g id="edge58" class="edge"><title>Node35&#45;&gt;Node23</title>
<path fill="none" stroke="midnightblue" d="M1733.57,-266.273C1734.9,-250.593 1739.13,-216.966 1752,-192 1757.6,-181.129 1766.44,-170.795 1774.38,-162.778"/>
<polygon fill="midnightblue" stroke="midnightblue" points="1777.08,-165.045 1781.88,-155.6 1772.23,-159.99 1777.08,-165.045"/>
</g>
<!-- Node36 -->
<g id="node36" class="node"><title>Node36</title>
<polygon fill="none" stroke="#bfbfbf" points="1761.5,-198.5 1761.5,-217.5 1844.5,-217.5 1844.5,-198.5 1761.5,-198.5"/>
<text text-anchor="middle" x="1803" y="-205.5" font-family="Helvetica,sans-Serif" font-size="10.00">TGeoMaterial.h</text>
</g>
<!-- Node35&#45;&gt;Node36 -->
<g id="edge41" class="edge"><title>Node35&#45;&gt;Node36</title>
<path fill="none" stroke="midnightblue" d="M1742.15,-266.372C1753.3,-255.856 1772.37,-237.882 1786.19,-224.85"/>
<polygon fill="midnightblue" stroke="midnightblue" points="1788.75,-227.248 1793.62,-217.841 1783.95,-222.155 1788.75,-227.248"/>
</g>
<!-- Node37 -->
<g id="node37" class="node"><title>Node37</title>
<polygon fill="none" stroke="#bfbfbf" points="1901,-198.5 1901,-217.5 2011,-217.5 2011,-198.5 1901,-198.5"/>
<text text-anchor="middle" x="1956" y="-205.5" font-family="Helvetica,sans-Serif" font-size="10.00">TGeoPhysicalNode.h</text>
</g>
<!-- Node35&#45;&gt;Node37 -->
<g id="edge42" class="edge"><title>Node35&#45;&gt;Node37</title>
<path fill="none" stroke="midnightblue" d="M1762.15,-266.372C1801.91,-254.604 1873.23,-233.496 1917.4,-220.426"/>
<polygon fill="midnightblue" stroke="midnightblue" points="1918.6,-223.72 1927.19,-217.526 1916.61,-217.008 1918.6,-223.72"/>
</g>
<!-- Node38 -->
<g id="node38" class="node"><title>Node38</title>
<polygon fill="none" stroke="#bfbfbf" points="1550.5,-198.5 1550.5,-217.5 1627.5,-217.5 1627.5,-198.5 1550.5,-198.5"/>
<text text-anchor="middle" x="1589" y="-205.5" font-family="Helvetica,sans-Serif" font-size="10.00">TGeoShape.h</text>
</g>
<!-- Node35&#45;&gt;Node38 -->
<g id="edge43" class="edge"><title>Node35&#45;&gt;Node38</title>
<path fill="none" stroke="midnightblue" d="M1714.17,-266.372C1689.49,-255.057 1645.96,-235.105 1617.29,-221.968"/>
<polygon fill="midnightblue" stroke="midnightblue" points="1618.38,-218.615 1607.83,-217.63 1615.46,-224.979 1618.38,-218.615"/>
</g>
<!-- Node39 -->
<g id="node39" class="node"><title>Node39</title>
<polygon fill="none" stroke="#bfbfbf" points="1645.5,-198.5 1645.5,-217.5 1704.5,-217.5 1704.5,-198.5 1645.5,-198.5"/>
<text text-anchor="middle" x="1675" y="-205.5" font-family="Helvetica,sans-Serif" font-size="10.00">TObject.h</text>
</g>
<!-- Node35&#45;&gt;Node39 -->
<g id="edge45" class="edge"><title>Node35&#45;&gt;Node39</title>
<path fill="none" stroke="midnightblue" d="M1725.42,-266.372C1716.35,-256.053 1700.97,-238.551 1689.58,-225.585"/>
<polygon fill="midnightblue" stroke="midnightblue" points="1692,-223.042 1682.77,-217.841 1686.74,-227.663 1692,-223.042"/>
</g>
<!-- Node40 -->
<g id="node40" class="node"><title>Node40</title>
<g id="a_node40"><a xlink:href="../../d6/d31/DetID_8h.html" target="_top" xlink:title="DetectorsBase/DetID.h">
<polygon fill="none" stroke="black" points="594.5,-136.5 594.5,-155.5 713.5,-155.5 713.5,-136.5 594.5,-136.5"/>
<text text-anchor="middle" x="654" y="-143.5" font-family="Helvetica,sans-Serif" font-size="10.00">DetectorsBase/DetID.h</text>
</a>
</g>
</g>
<!-- Node35&#45;&gt;Node40 -->
<g id="edge46" class="edge"><title>Node35&#45;&gt;Node40</title>
<path fill="none" stroke="midnightblue" d="M1646.31,-271.746C1436.78,-263.642 914.366,-241.916 837,-224 777.453,-210.21 712.595,-178.579 678.355,-160.439"/>
<polygon fill="midnightblue" stroke="midnightblue" points="680.005,-157.353 669.539,-155.707 676.694,-163.521 680.005,-157.353"/>
</g>
<!-- Node40&#45;&gt;Node16 -->
<g id="edge47" class="edge"><title>Node40&#45;&gt;Node16</title>
<path fill="none" stroke="midnightblue" d="M713.637,-137.475C764.135,-130.313 838.13,-117.948 901,-100 903.973,-99.1512 907.036,-98.1565 910.071,-97.0903"/>
<polygon fill="midnightblue" stroke="midnightblue" points="911.403,-100.329 919.53,-93.5313 908.938,-93.7769 911.403,-100.329"/>
</g>
<!-- Node40&#45;&gt;Node19 -->
<g id="edge52" class="edge"><title>Node40&#45;&gt;Node19</title>
<path fill="none" stroke="midnightblue" d="M689.122,-136.487C723.096,-128.03 775.918,-114.29 821,-100 823.94,-99.0681 826.981,-98.0536 830.016,-97.0062"/>
<polygon fill="midnightblue" stroke="midnightblue" points="831.317,-100.259 839.565,-93.6095 828.97,-93.6634 831.317,-100.259"/>
</g>
<!-- Node41 -->
<g id="node41" class="node"><title>Node41</title>
<polygon fill="none" stroke="#bfbfbf" points="583,-6.5 583,-25.5 621,-25.5 621,-6.5 583,-6.5"/>
<text text-anchor="middle" x="602" y="-13.5" font-family="Helvetica,sans-Serif" font-size="10.00">array</text>
</g>
<!-- Node40&#45;&gt;Node41 -->
<g id="edge48" class="edge"><title>Node40&#45;&gt;Node41</title>
<path fill="none" stroke="midnightblue" d="M649.052,-136.207C644.126,-127.258 636.522,-112.906 631,-100 621.74,-78.3581 613.112,-52.6699 607.716,-35.6645"/>
<polygon fill="midnightblue" stroke="midnightblue" points="610.981,-34.3774 604.662,-25.8731 604.298,-36.4617 610.981,-34.3774"/>
</g>
<!-- Node42 -->
<g id="node42" class="node"><title>Node42</title>
<polygon fill="none" stroke="#bfbfbf" points="771.5,-74.5 771.5,-93.5 812.5,-93.5 812.5,-74.5 771.5,-74.5"/>
<text text-anchor="middle" x="792" y="-81.5" font-family="Helvetica,sans-Serif" font-size="10.00">bitset</text>
</g>
<!-- Node40&#45;&gt;Node42 -->
<g id="edge49" class="edge"><title>Node40&#45;&gt;Node42</title>
<path fill="none" stroke="midnightblue" d="M675.705,-136.468C697.649,-127.722 732.448,-113.525 762,-100 763.357,-99.379 764.743,-98.7321 766.138,-98.0705"/>
<polygon fill="midnightblue" stroke="midnightblue" points="767.824,-101.142 775.28,-93.6149 764.757,-94.8501 767.824,-101.142"/>
</g>
<!-- Node43 -->
<g id="node43" class="node"><title>Node43</title>
<polygon fill="none" stroke="#bfbfbf" points="470.5,-74.5 470.5,-93.5 519.5,-93.5 519.5,-74.5 470.5,-74.5"/>
<text text-anchor="middle" x="495" y="-81.5" font-family="Helvetica,sans-Serif" font-size="10.00">cassert</text>
</g>
<!-- Node40&#45;&gt;Node43 -->
<g id="edge50" class="edge"><title>Node40&#45;&gt;Node43</title>
<path fill="none" stroke="midnightblue" d="M628.427,-136.381C603.023,-127.681 563.05,-113.621 529,-100 527.158,-99.2632 525.268,-98.4869 523.368,-97.6914"/>
<polygon fill="midnightblue" stroke="midnightblue" points="524.531,-94.3817 513.962,-93.6457 521.765,-100.812 524.531,-94.3817"/>
</g>
<!-- Node44 -->
<g id="node44" class="node"><title>Node44</title>
<polygon fill="none" stroke="#bfbfbf" points="538,-74.5 538,-93.5 584,-93.5 584,-74.5 538,-74.5"/>
<text text-anchor="middle" x="561" y="-81.5" font-family="Helvetica,sans-Serif" font-size="10.00">cstdint</text>
</g>
<!-- Node40&#45;&gt;Node44 -->
<g id="edge51" class="edge"><title>Node40&#45;&gt;Node44</title>
<path fill="none" stroke="midnightblue" d="M640.675,-136.403C625.62,-126.691 600.884,-110.732 582.963,-99.1697"/>
<polygon fill="midnightblue" stroke="midnightblue" points="584.6,-96.0609 574.3,-93.5806 580.805,-101.943 584.6,-96.0609"/>
</g>
<!-- Node45 -->
<g id="node45" class="node"><title>Node45</title>
<g id="a_node45"><a xlink:href="../../d9/ded/Utils_8h.html" target="_top" xlink:title="DetectorsBase/Utils.h">
<polygon fill="none" stroke="black" points="640.5,-74.5 640.5,-93.5 753.5,-93.5 753.5,-74.5 640.5,-74.5"/>
<text text-anchor="middle" x="697" y="-81.5" font-family="Helvetica,sans-Serif" font-size="10.00">DetectorsBase/Utils.h</text>
</a>
</g>
</g>
<!-- Node40&#45;&gt;Node45 -->
<g id="edge53" class="edge"><title>Node40&#45;&gt;Node45</title>
<path fill="none" stroke="midnightblue" d="M660.161,-136.403C666.611,-127.403 676.904,-113.041 684.973,-101.782"/>
<polygon fill="midnightblue" stroke="midnightblue" points="687.87,-103.748 690.851,-93.5806 682.18,-99.6699 687.87,-103.748"/>
</g>
<!-- Node45&#45;&gt;Node41 -->
<g id="edge56" class="edge"><title>Node45&#45;&gt;Node41</title>
<path fill="none" stroke="midnightblue" d="M684.58,-74.3717C668.863,-63.4521 641.567,-44.4888 622.683,-31.369"/>
<polygon fill="midnightblue" stroke="midnightblue" points="624.632,-28.4617 614.423,-25.6305 620.638,-34.2105 624.632,-28.4617"/>
</g>
<!-- Node46 -->
<g id="node46" class="node"><title>Node46</title>
<g id="a_node46"><a xlink:href="../../d1/daa/Base_2include_2DetectorsBase_2Constants_8h.html" target="_top" xlink:title="DetectorsBase/Constants.h">
<polygon fill="none" stroke="black" points="639,-6.5 639,-25.5 777,-25.5 777,-6.5 639,-6.5"/>
<text text-anchor="middle" x="708" y="-13.5" font-family="Helvetica,sans-Serif" font-size="10.00">DetectorsBase/Constants.h</text>
</a>
</g>
</g>
<!-- Node45&#45;&gt;Node46 -->
<g id="edge54" class="edge"><title>Node45&#45;&gt;Node46</title>
<path fill="none" stroke="midnightblue" d="M698.438,-74.3717C700.06,-64.6426 702.745,-48.528 704.858,-35.8504"/>
<polygon fill="midnightblue" stroke="midnightblue" points="708.335,-36.2805 706.526,-25.8411 701.43,-35.1296 708.335,-36.2805"/>
</g>
<!-- Node47 -->
<g id="node47" class="node"><title>Node47</title>
<polygon fill="none" stroke="#bfbfbf" points="795,-6.5 795,-25.5 839,-25.5 839,-6.5 795,-6.5"/>
<text text-anchor="middle" x="817" y="-13.5" font-family="Helvetica,sans-Serif" font-size="10.00">cmath</text>
</g>
<!-- Node45&#45;&gt;Node47 -->
<g id="edge55" class="edge"><title>Node45&#45;&gt;Node47</title>
<path fill="none" stroke="midnightblue" d="M712.688,-74.3717C732.991,-63.2051 768.588,-43.6266 792.477,-30.4876"/>
<polygon fill="midnightblue" stroke="midnightblue" points="794.233,-33.5165 801.308,-25.6305 790.859,-27.3829 794.233,-33.5165"/>
</g>
<!-- Node48&#45;&gt;Node11 -->
<g id="edge74" class="edge"><title>Node48&#45;&gt;Node11</title>
<path fill="none" stroke="midnightblue" d="M775.244,-273.893C897.123,-270.858 1178.29,-260.051 1266,-224 1286.74,-215.476 1284.3,-200.609 1305,-192 1378.22,-161.554 1606.83,-214.829 1660,-156 1665.96,-149.405 1665.92,-142.629 1660,-136 1612.62,-82.9589 1409.73,-121.689 1342,-100 1340.35,-99.4716 1338.69,-98.8376 1337.04,-98.133"/>
<polygon fill="midnightblue" stroke="midnightblue" points="1338.49,-94.9456 1327.99,-93.5712 1335.34,-101.197 1338.49,-94.9456"/>
</g>
<!-- Node48&#45;&gt;Node13 -->
<g id="edge77" class="edge"><title>Node48&#45;&gt;Node13</title>
<path fill="none" stroke="midnightblue" d="M775.011,-269.999C834.356,-263.472 921.478,-249.72 942,-224 950.87,-212.883 948.815,-204.483 942,-192 934.181,-177.679 919.638,-167.236 905.824,-160.036"/>
<polygon fill="midnightblue" stroke="midnightblue" points="907.001,-156.719 896.469,-155.562 903.981,-163.034 907.001,-156.719"/>
</g>
<!-- Node48&#45;&gt;Node16 -->
<g id="edge72" class="edge"><title>Node48&#45;&gt;Node16</title>
<path fill="none" stroke="midnightblue" d="M726.46,-260.595C743.178,-233.172 782.936,-172.912 830,-136 842.941,-125.85 881.19,-108.896 908.724,-97.3448"/>
<polygon fill="midnightblue" stroke="midnightblue" points="910.068,-100.576 917.958,-93.5045 907.38,-94.1132 910.068,-100.576"/>
</g>
<!-- Node48&#45;&gt;Node40 -->
<g id="edge71" class="edge"><title>Node48&#45;&gt;Node40</title>
<path fill="none" stroke="midnightblue" d="M723.176,-260.804C728.577,-243.447 734.758,-213.705 723,-192 715.251,-177.696 700.766,-167.219 687.06,-159.992"/>
<polygon fill="midnightblue" stroke="midnightblue" points="688.314,-156.71 677.788,-155.501 685.262,-163.01 688.314,-156.71"/>
</g>
<!-- Node49 -->
<g id="node49" class="node"><title>Node49</title>
<polygon fill="none" stroke="#bfbfbf" points="495.5,-198.5 495.5,-217.5 596.5,-217.5 596.5,-198.5 495.5,-198.5"/>
<text text-anchor="middle" x="546" y="-205.5" font-family="Helvetica,sans-Serif" font-size="10.00">FairGenericStack.h</text>
</g>
<!-- Node48&#45;&gt;Node49 -->
<g id="edge60" class="edge"><title>Node48&#45;&gt;Node49</title>
<path fill="none" stroke="midnightblue" d="M681.102,-260.841C650.417,-249.067 607.19,-232.48 577.963,-221.265"/>
<polygon fill="midnightblue" stroke="midnightblue" points="579.216,-217.997 568.626,-217.682 576.708,-224.532 579.216,-217.997"/>
</g>
<!-- Node50 -->
<g id="node50" class="node"><title>Node50</title>
<g id="a_node50"><a xlink:href="../../d2/de2/MCTrack_8h.html" target="_top" xlink:title="Definition of the MCTrack class. ">
<polygon fill="none" stroke="black" points="363,-193 363,-223 477,-223 477,-193 363,-193"/>
<text text-anchor="start" x="371" y="-211" font-family="Helvetica,sans-Serif" font-size="10.00">SimulationDataFormat</text>
<text text-anchor="middle" x="420" y="-200" font-family="Helvetica,sans-Serif" font-size="10.00">/MCTrack.h</text>
</a>
</g>
</g>
<!-- Node48&#45;&gt;Node50 -->
<g id="edge61" class="edge"><title>Node48&#45;&gt;Node50</title>
<path fill="none" stroke="midnightblue" d="M660.77,-262.538C616.092,-252.781 552.177,-238.766 487.238,-224.269"/>
<polygon fill="midnightblue" stroke="midnightblue" points="487.754,-220.798 477.232,-222.033 486.228,-227.63 487.754,-220.798"/>
</g>
<!-- Node53 -->
<g id="node53" class="node"><title>Node53</title>
<polygon fill="none" stroke="#bfbfbf" points="110,-136.5 110,-155.5 174,-155.5 174,-136.5 110,-136.5"/>
<text text-anchor="middle" x="142" y="-143.5" font-family="Helvetica,sans-Serif" font-size="10.00">TParticle.h</text>
</g>
<!-- Node48&#45;&gt;Node53 -->
<g id="edge73" class="edge"><title>Node48&#45;&gt;Node53</title>
<path fill="none" stroke="midnightblue" d="M660.865,-270.715C588.584,-264.449 460.665,-250.533 354,-224 286.565,-207.226 210.749,-176.706 170.577,-159.559"/>
<polygon fill="midnightblue" stroke="midnightblue" points="171.727,-156.244 161.158,-155.504 168.959,-162.673 171.727,-156.244"/>
</g>
<!-- Node56 -->
<g id="node56" class="node"><title>Node56</title>
<polygon fill="none" stroke="#bfbfbf" points="614.5,-198.5 614.5,-217.5 655.5,-217.5 655.5,-198.5 614.5,-198.5"/>
<text text-anchor="middle" x="635" y="-205.5" font-family="Helvetica,sans-Serif" font-size="10.00">stack</text>
</g>
<!-- Node48&#45;&gt;Node56 -->
<g id="edge75" class="edge"><title>Node48&#45;&gt;Node56</title>
<path fill="none" stroke="midnightblue" d="M699.99,-260.679C686.408,-249.879 667.821,-235.098 654.002,-224.11"/>
<polygon fill="midnightblue" stroke="midnightblue" points="656.108,-221.313 646.102,-217.828 651.751,-226.792 656.108,-221.313"/>
</g>
<!-- Node57 -->
<g id="node57" class="node"><title>Node57</title>
<polygon fill="none" stroke="#bfbfbf" points="674,-198.5 674,-217.5 714,-217.5 714,-198.5 674,-198.5"/>
<text text-anchor="middle" x="694" y="-205.5" font-family="Helvetica,sans-Serif" font-size="10.00">utility</text>
</g>
<!-- Node48&#45;&gt;Node57 -->
<g id="edge76" class="edge"><title>Node48&#45;&gt;Node57</title>
<path fill="none" stroke="midnightblue" d="M712.792,-260.679C709.235,-250.898 704.491,-237.852 700.66,-227.315"/>
<polygon fill="midnightblue" stroke="midnightblue" points="703.917,-226.03 697.21,-217.828 697.339,-228.422 703.917,-226.03"/>
</g>
<!-- Node50&#45;&gt;Node3 -->
<g id="edge63" class="edge"><title>Node50&#45;&gt;Node3</title>
<path fill="none" stroke="midnightblue" d="M362.941,-197.942C301.228,-188.131 199.654,-171.941 102.232,-156.195"/>
<polygon fill="midnightblue" stroke="midnightblue" points="102.642,-152.716 92.2115,-154.574 101.524,-159.626 102.642,-152.716"/>
</g>
<!-- Node50&#45;&gt;Node4 -->
<g id="edge64" class="edge"><title>Node50&#45;&gt;Node4</title>
<path fill="none" stroke="midnightblue" d="M477.115,-193.294C480.11,-192.803 483.085,-192.366 486,-192 1090.04,-116.218 1254.56,-237.362 1862.06,-155.744"/>
<polygon fill="midnightblue" stroke="midnightblue" points="1862.95,-159.155 1872.39,-154.342 1862.01,-152.218 1862.95,-159.155"/>
</g>
<!-- Node50&#45;&gt;Node16 -->
<g id="edge62" class="edge"><title>Node50&#45;&gt;Node16</title>
<path fill="none" stroke="midnightblue" d="M477.185,-193.738C480.162,-193.131 483.114,-192.547 486,-192 590.244,-172.23 620.298,-186.239 722,-156 742.59,-149.878 745.775,-143.237 766,-136 824.467,-115.08 842.022,-119.432 901,-100 903.625,-99.1351 906.331,-98.1859 909.034,-97.1982"/>
<polygon fill="midnightblue" stroke="midnightblue" points="910.55,-100.366 918.648,-93.5337 908.057,-93.8247 910.55,-100.366"/>
</g>
<!-- Node50&#45;&gt;Node40 -->
<g id="edge66" class="edge"><title>Node50&#45;&gt;Node40</title>
<path fill="none" stroke="midnightblue" d="M474.863,-192.933C516.404,-182.281 572.667,-167.855 610.982,-158.03"/>
<polygon fill="midnightblue" stroke="midnightblue" points="611.983,-161.387 620.8,-155.513 610.245,-154.606 611.983,-161.387"/>
</g>
<!-- Node51 -->
<g id="node51" class="node"><title>Node51</title>
<polygon fill="none" stroke="#bfbfbf" points="192.5,-136.5 192.5,-155.5 257.5,-155.5 257.5,-136.5 192.5,-136.5"/>
<text text-anchor="middle" x="225" y="-143.5" font-family="Helvetica,sans-Serif" font-size="10.00">TVector3.h</text>
</g>
<!-- Node50&#45;&gt;Node51 -->
<g id="edge65" class="edge"><title>Node50&#45;&gt;Node51</title>
<path fill="none" stroke="midnightblue" d="M374.281,-192.933C340.253,-182.462 294.37,-168.345 262.491,-158.536"/>
<polygon fill="midnightblue" stroke="midnightblue" points="263.253,-155.108 252.666,-155.513 261.195,-161.799 263.253,-155.108"/>
</g>
<!-- Node52 -->
<g id="node52" class="node"><title>Node52</title>
<polygon fill="none" stroke="#bfbfbf" points="275.5,-136.5 275.5,-155.5 370.5,-155.5 370.5,-136.5 275.5,-136.5"/>
<text text-anchor="middle" x="323" y="-143.5" font-family="Helvetica,sans-Serif" font-size="10.00">TDatabasePDG.h</text>
</g>
<!-- Node50&#45;&gt;Node52 -->
<g id="edge67" class="edge"><title>Node50&#45;&gt;Node52</title>
<path fill="none" stroke="midnightblue" d="M397.012,-192.781C381.517,-183.196 361.163,-170.606 345.723,-161.056"/>
<polygon fill="midnightblue" stroke="midnightblue" points="347.177,-157.84 336.832,-155.556 343.495,-163.793 347.177,-157.84"/>
</g>
<!-- Node50&#45;&gt;Node53 -->
<g id="edge68" class="edge"><title>Node50&#45;&gt;Node53</title>
<path fill="none" stroke="midnightblue" d="M362.999,-194.803C317.235,-184.994 251.045,-170.773 184.106,-156.234"/>
<polygon fill="midnightblue" stroke="midnightblue" points="184.741,-152.791 174.226,-154.087 183.255,-159.631 184.741,-152.791"/>
</g>
<!-- Node54 -->
<g id="node54" class="node"><title>Node54</title>
<polygon fill="none" stroke="#bfbfbf" points="389,-136.5 389,-155.5 475,-155.5 475,-136.5 389,-136.5"/>
<text text-anchor="middle" x="432" y="-143.5" font-family="Helvetica,sans-Serif" font-size="10.00">TParticlePDG.h</text>
</g>
<!-- Node50&#45;&gt;Node54 -->
<g id="edge69" class="edge"><title>Node50&#45;&gt;Node54</title>
<path fill="none" stroke="midnightblue" d="M422.844,-192.781C424.462,-184.691 426.508,-174.462 428.255,-165.725"/>
<polygon fill="midnightblue" stroke="midnightblue" points="431.725,-166.223 430.254,-155.731 424.861,-164.85 431.725,-166.223"/>
</g>
<!-- Node55 -->
<g id="node55" class="node"><title>Node55</title>
<polygon fill="none" stroke="#bfbfbf" points="493.5,-136.5 493.5,-155.5 576.5,-155.5 576.5,-136.5 493.5,-136.5"/>
<text text-anchor="middle" x="535" y="-143.5" font-family="Helvetica,sans-Serif" font-size="10.00">TMCProcess.h</text>
</g>
<!-- Node50&#45;&gt;Node55 -->
<g id="edge70" class="edge"><title>Node50&#45;&gt;Node55</title>
<path fill="none" stroke="midnightblue" d="M446.962,-192.933C465.845,-183.081 490.916,-170 509.473,-160.318"/>
<polygon fill="midnightblue" stroke="midnightblue" points="511.27,-163.329 518.517,-155.6 508.032,-157.123 511.27,-163.329"/>
</g>
</g>
</svg>
