<?xml version="1.0" encoding="UTF-8" standalone="no"?>
<!DOCTYPE svg PUBLIC "-//W3C//DTD SVG 1.1//EN"
 "http://www.w3.org/Graphics/SVG/1.1/DTD/svg11.dtd">
<!-- Generated by graphviz version 2.36.0 (20140111.2315)
 -->
<!-- Title: /home/travis/build/AliceO2Group/AliceO2/Detectors/TPC/reconstruction/src/HardwareClusterDecoder.cxx Pages: 1 -->
<svg width="1773pt" height="738pt"
 viewBox="0.00 0.00 1773.00 738.00" xmlns="http://www.w3.org/2000/svg" xmlns:xlink="http://www.w3.org/1999/xlink">
<g id="graph0" class="graph" transform="scale(1 1) rotate(0) translate(4 734)">
<title>/home/travis/build/AliceO2Group/AliceO2/Detectors/TPC/reconstruction/src/HardwareClusterDecoder.cxx</title>
<!-- Node1 -->
<g id="node1" class="node"><title>Node1</title>
<polygon fill="#bfbfbf" stroke="black" points="852.5,-677 852.5,-729 1017.5,-729 1017.5,-677 852.5,-677"/>
<text text-anchor="start" x="860.5" y="-717" font-family="Helvetica,sans-Serif" font-size="10.00">/home/travis/build</text>
<text text-anchor="start" x="860.5" y="-706" font-family="Helvetica,sans-Serif" font-size="10.00">/AliceO2Group/AliceO2</text>
<text text-anchor="start" x="860.5" y="-695" font-family="Helvetica,sans-Serif" font-size="10.00">/Detectors/TPC/reconstruction</text>
<text text-anchor="middle" x="935" y="-684" font-family="Helvetica,sans-Serif" font-size="10.00">/src/HardwareClusterDecoder.cxx</text>
</g>
<!-- Node2 -->
<g id="node2" class="node"><title>Node2</title>
<g id="a_node2"><a xlink:href="../../d2/d41/HardwareClusterDecoder_8h.html" target="_top" xlink:title="TPCReconstruction/Hardware\lClusterDecoder.h">
<polygon fill="none" stroke="black" points="208,-609 208,-639 356,-639 356,-609 208,-609"/>
<text text-anchor="start" x="216" y="-627" font-family="Helvetica,sans-Serif" font-size="10.00">TPCReconstruction/Hardware</text>
<text text-anchor="middle" x="282" y="-616" font-family="Helvetica,sans-Serif" font-size="10.00">ClusterDecoder.h</text>
</a>
</g>
</g>
<!-- Node1&#45;&gt;Node2 -->
<g id="edge1" class="edge"><title>Node1&#45;&gt;Node2</title>
<path fill="none" stroke="midnightblue" d="M852.139,-693.108C745.592,-681.543 554.875,-660.401 392,-640 383.684,-638.958 375.019,-637.838 366.364,-636.695"/>
<polygon fill="midnightblue" stroke="midnightblue" points="366.604,-633.196 356.23,-635.347 365.681,-640.135 366.604,-633.196"/>
</g>
<!-- Node3 -->
<g id="node3" class="node"><title>Node3</title>
<polygon fill="none" stroke="#bfbfbf" points="347,-372.5 347,-391.5 391,-391.5 391,-372.5 347,-372.5"/>
<text text-anchor="middle" x="369" y="-379.5" font-family="Helvetica,sans-Serif" font-size="10.00">vector</text>
</g>
<!-- Node1&#45;&gt;Node3 -->
<g id="edge66" class="edge"><title>Node1&#45;&gt;Node3</title>
<path fill="none" stroke="midnightblue" d="M852.303,-689.258C802.594,-679.706 738.922,-664.065 686,-640 550.306,-578.298 514.499,-555.276 411,-448 397.338,-433.839 385.562,-414.608 377.985,-400.742"/>
<polygon fill="midnightblue" stroke="midnightblue" points="381.002,-398.958 373.243,-391.742 374.809,-402.221 381.002,-398.958"/>
</g>
<!-- Node6 -->
<g id="node6" class="node"><title>Node6</title>
<g id="a_node6"><a xlink:href="../../de/dcd/ClusterNative_8h.html" target="_top" xlink:title="Class of a TPC cluster in TPC&#45;native coordinates (row, time) ">
<polygon fill="none" stroke="black" points="28.5,-484.5 28.5,-503.5 193.5,-503.5 193.5,-484.5 28.5,-484.5"/>
<text text-anchor="middle" x="111" y="-491.5" font-family="Helvetica,sans-Serif" font-size="10.00">DataFormatsTPC/ClusterNative.h</text>
</a>
</g>
</g>
<!-- Node1&#45;&gt;Node6 -->
<g id="edge62" class="edge"><title>Node1&#45;&gt;Node6</title>
<path fill="none" stroke="midnightblue" d="M852.423,-698.919C672.106,-691.638 254.757,-671.571 199,-640 150.406,-612.485 125.516,-546.165 115.878,-513.631"/>
<polygon fill="midnightblue" stroke="midnightblue" points="119.152,-512.342 113.091,-503.652 112.41,-514.225 119.152,-512.342"/>
</g>
<!-- Node7 -->
<g id="node7" class="node"><title>Node7</title>
<g id="a_node7"><a xlink:href="../../d6/d51/TPC_2base_2include_2TPCBase_2Constants_8h.html" target="_top" xlink:title="TPCBase/Constants.h">
<polygon fill="none" stroke="black" points="111,-192.5 111,-211.5 227,-211.5 227,-192.5 111,-192.5"/>
<text text-anchor="middle" x="169" y="-199.5" font-family="Helvetica,sans-Serif" font-size="10.00">TPCBase/Constants.h</text>
</a>
</g>
</g>
<!-- Node1&#45;&gt;Node7 -->
<g id="edge63" class="edge"><title>Node1&#45;&gt;Node7</title>
<path fill="none" stroke="midnightblue" d="M852.372,-699.564C679.976,-693.804 287.33,-676.96 159,-640 82.3981,-617.938 0,-636.716 0,-557 0,-557 0,-557 0,-319 0,-260.282 70.2061,-229.066 120.118,-214.293"/>
<polygon fill="midnightblue" stroke="midnightblue" points="121.133,-217.644 129.803,-211.555 119.228,-210.908 121.133,-217.644"/>
</g>
<!-- Node8 -->
<g id="node8" class="node"><title>Node8</title>
<g id="a_node8"><a xlink:href="../../d7/d2c/Mapper_8h.html" target="_top" xlink:title="TPCBase/Mapper.h">
<polygon fill="none" stroke="black" points="819.5,-484.5 819.5,-503.5 922.5,-503.5 922.5,-484.5 819.5,-484.5"/>
<text text-anchor="middle" x="871" y="-491.5" font-family="Helvetica,sans-Serif" font-size="10.00">TPCBase/Mapper.h</text>
</a>
</g>
</g>
<!-- Node1&#45;&gt;Node8 -->
<g id="edge64" class="edge"><title>Node1&#45;&gt;Node8</title>
<path fill="none" stroke="midnightblue" d="M852.226,-690.961C792.337,-681.078 718.766,-664.359 700,-640 654.678,-581.17 771.893,-529.49 834.547,-506.979"/>
<polygon fill="midnightblue" stroke="midnightblue" points="835.828,-510.239 844.101,-503.621 833.506,-503.636 835.828,-510.239"/>
</g>
<!-- Node36 -->
<g id="node36" class="node"><title>Node36</title>
<g id="a_node36"><a xlink:href="../../d3/dc4/ClusterHardware_8h.html" target="_top" xlink:title="Class of a TPC cluster as produced by the hardware cluster finder (needs a postprocessing step to con...">
<polygon fill="none" stroke="black" points="709.5,-614.5 709.5,-633.5 888.5,-633.5 888.5,-614.5 709.5,-614.5"/>
<text text-anchor="middle" x="799" y="-621.5" font-family="Helvetica,sans-Serif" font-size="10.00">DataFormatsTPC/ClusterHardware.h</text>
</a>
</g>
</g>
<!-- Node1&#45;&gt;Node36 -->
<g id="edge60" class="edge"><title>Node1&#45;&gt;Node36</title>
<path fill="none" stroke="midnightblue" d="M890.469,-676.787C867.936,-664.03 841.486,-649.054 822.84,-638.498"/>
<polygon fill="midnightblue" stroke="midnightblue" points="824.541,-635.439 814.115,-633.558 821.093,-641.53 824.541,-635.439"/>
</g>
<!-- Node38 -->
<g id="node38" class="node"><title>Node38</title>
<polygon fill="none" stroke="#bfbfbf" points="907,-614.5 907,-633.5 963,-633.5 963,-614.5 907,-614.5"/>
<text text-anchor="middle" x="935" y="-621.5" font-family="Helvetica,sans-Serif" font-size="10.00">algorithm</text>
</g>
<!-- Node1&#45;&gt;Node38 -->
<g id="edge65" class="edge"><title>Node1&#45;&gt;Node38</title>
<path fill="none" stroke="midnightblue" d="M935,-676.787C935,-666.069 935,-653.785 935,-643.871"/>
<polygon fill="midnightblue" stroke="midnightblue" points="938.5,-643.558 935,-633.558 931.5,-643.558 938.5,-643.558"/>
</g>
<!-- Node39 -->
<g id="node39" class="node"><title>Node39</title>
<polygon fill="none" stroke="#bfbfbf" points="981.5,-614.5 981.5,-633.5 1052.5,-633.5 1052.5,-614.5 981.5,-614.5"/>
<text text-anchor="middle" x="1017" y="-621.5" font-family="Helvetica,sans-Serif" font-size="10.00">FairLogger.h</text>
</g>
<!-- Node1&#45;&gt;Node39 -->
<g id="edge67" class="edge"><title>Node1&#45;&gt;Node39</title>
<path fill="none" stroke="midnightblue" d="M961.85,-676.787C974.629,-664.787 989.498,-650.825 1000.58,-640.423"/>
<polygon fill="midnightblue" stroke="midnightblue" points="1002.99,-642.955 1007.89,-633.558 998.201,-637.852 1002.99,-642.955"/>
</g>
<!-- Node40 -->
<g id="node40" class="node"><title>Node40</title>
<g id="a_node40"><a xlink:href="../../db/d14/MCTruthContainer_8h.html" target="_top" xlink:title="Definition of a container to keep Monte Carlo truth external to simulation objects. ">
<polygon fill="none" stroke="black" points="1071,-609 1071,-639 1185,-639 1185,-609 1071,-609"/>
<text text-anchor="start" x="1079" y="-627" font-family="Helvetica,sans-Serif" font-size="10.00">SimulationDataFormat</text>
<text text-anchor="middle" x="1128" y="-616" font-family="Helvetica,sans-Serif" font-size="10.00">/MCTruthContainer.h</text>
</a>
</g>
</g>
<!-- Node1&#45;&gt;Node40 -->
<g id="edge68" class="edge"><title>Node1&#45;&gt;Node40</title>
<path fill="none" stroke="midnightblue" d="M997.928,-676.894C1025.83,-665.764 1058,-652.928 1083.37,-642.807"/>
<polygon fill="midnightblue" stroke="midnightblue" points="1084.74,-646.027 1092.73,-639.07 1082.15,-639.525 1084.74,-646.027"/>
</g>
<!-- Node45 -->
<g id="node45" class="node"><title>Node45</title>
<g id="a_node45"><a xlink:href="../../d7/dcd/MCCompLabel_8h.html" target="_top" xlink:title="SimulationDataFormat\l/MCCompLabel.h">
<polygon fill="none" stroke="black" points="1329,-305 1329,-335 1443,-335 1443,-305 1329,-305"/>
<text text-anchor="start" x="1337" y="-323" font-family="Helvetica,sans-Serif" font-size="10.00">SimulationDataFormat</text>
<text text-anchor="middle" x="1386" y="-312" font-family="Helvetica,sans-Serif" font-size="10.00">/MCCompLabel.h</text>
</a>
</g>
</g>
<!-- Node1&#45;&gt;Node45 -->
<g id="edge73" class="edge"><title>Node1&#45;&gt;Node45</title>
<path fill="none" stroke="midnightblue" d="M1017.66,-699.698C1072.72,-694.268 1143.89,-679.311 1194,-640 1254.38,-592.635 1229.74,-550.523 1268,-484 1298.72,-430.573 1343.14,-373.375 1367.79,-342.975"/>
<polygon fill="midnightblue" stroke="midnightblue" points="1370.57,-345.096 1374.19,-335.137 1365.15,-340.669 1370.57,-345.096"/>
</g>
<!-- Node46 -->
<g id="node46" class="node"><title>Node46</title>
<g id="a_node46"><a xlink:href="../../db/dad/ParameterDetector_8h.html" target="_top" xlink:title="Definition of the parameter class for the detector. ">
<polygon fill="none" stroke="black" points="1277.5,-484.5 1277.5,-503.5 1430.5,-503.5 1430.5,-484.5 1277.5,-484.5"/>
<text text-anchor="middle" x="1354" y="-491.5" font-family="Helvetica,sans-Serif" font-size="10.00">TPCBase/ParameterDetector.h</text>
</a>
</g>
</g>
<!-- Node1&#45;&gt;Node46 -->
<g id="edge75" class="edge"><title>Node1&#45;&gt;Node46</title>
<path fill="none" stroke="midnightblue" d="M1017.58,-693.978C1101.3,-684.527 1223.92,-666.654 1263,-640 1309.34,-608.391 1336.82,-544.571 1348.05,-513.22"/>
<polygon fill="midnightblue" stroke="midnightblue" points="1351.42,-514.185 1351.36,-503.59 1344.8,-511.915 1351.42,-514.185"/>
</g>
<!-- Node47 -->
<g id="node47" class="node"><title>Node47</title>
<g id="a_node47"><a xlink:href="../../db/d5b/ParameterGas_8h.html" target="_top" xlink:title="Definition of the parameter class for the detector gas. ">
<polygon fill="none" stroke="black" points="1449,-484.5 1449,-503.5 1583,-503.5 1583,-484.5 1449,-484.5"/>
<text text-anchor="middle" x="1516" y="-491.5" font-family="Helvetica,sans-Serif" font-size="10.00">TPCBase/ParameterGas.h</text>
</a>
</g>
</g>
<!-- Node1&#45;&gt;Node47 -->
<g id="edge77" class="edge"><title>Node1&#45;&gt;Node47</title>
<path fill="none" stroke="midnightblue" d="M1017.75,-697.266C1092.22,-690.802 1203.51,-675.6 1294,-640 1377.33,-607.219 1462.2,-540.54 1498.15,-510.402"/>
<polygon fill="midnightblue" stroke="midnightblue" points="1500.85,-512.706 1506.21,-503.57 1496.32,-507.367 1500.85,-512.706"/>
</g>
<!-- Node48 -->
<g id="node48" class="node"><title>Node48</title>
<g id="a_node48"><a xlink:href="../../d3/d47/ParameterElectronics_8h.html" target="_top" xlink:title="Definition of the parameter class for the detector electronics. ">
<polygon fill="none" stroke="black" points="1601,-484.5 1601,-503.5 1765,-503.5 1765,-484.5 1601,-484.5"/>
<text text-anchor="middle" x="1683" y="-491.5" font-family="Helvetica,sans-Serif" font-size="10.00">TPCBase/ParameterElectronics.h</text>
</a>
</g>
</g>
<!-- Node1&#45;&gt;Node48 -->
<g id="edge79" class="edge"><title>Node1&#45;&gt;Node48</title>
<path fill="none" stroke="midnightblue" d="M1017.55,-695.474C1100.5,-687.507 1231.41,-671.07 1341,-640 1464.21,-605.068 1602.05,-537.083 1657.69,-508.341"/>
<polygon fill="midnightblue" stroke="midnightblue" points="1659.55,-511.322 1666.81,-503.604 1656.32,-505.111 1659.55,-511.322"/>
</g>
<!-- Node2&#45;&gt;Node3 -->
<g id="edge2" class="edge"><title>Node2&#45;&gt;Node3</title>
<path fill="none" stroke="midnightblue" d="M305.661,-608.992C318.548,-600.072 333.548,-587.322 342,-572 372.782,-516.199 372.557,-437.609 370.536,-401.935"/>
<polygon fill="midnightblue" stroke="midnightblue" points="374.002,-401.314 369.825,-391.577 367.019,-401.794 374.002,-401.314"/>
</g>
<!-- Node4 -->
<g id="node4" class="node"><title>Node4</title>
<g id="a_node4"><a xlink:href="../../db/d19/DigitalCurrentClusterIntegrator_8h.html" target="_top" xlink:title="TPCReconstruction/Digital\lCurrentClusterIntegrator.h">
<polygon fill="none" stroke="black" points="199,-541 199,-571 333,-571 333,-541 199,-541"/>
<text text-anchor="start" x="207" y="-559" font-family="Helvetica,sans-Serif" font-size="10.00">TPCReconstruction/Digital</text>
<text text-anchor="middle" x="266" y="-548" font-family="Helvetica,sans-Serif" font-size="10.00">CurrentClusterIntegrator.h</text>
</a>
</g>
</g>
<!-- Node2&#45;&gt;Node4 -->
<g id="edge3" class="edge"><title>Node2&#45;&gt;Node4</title>
<path fill="none" stroke="midnightblue" d="M278.528,-608.679C276.578,-600.636 274.093,-590.385 271.851,-581.137"/>
<polygon fill="midnightblue" stroke="midnightblue" points="275.223,-580.187 269.465,-571.293 268.42,-581.836 275.223,-580.187"/>
</g>
<!-- Node2&#45;&gt;Node6 -->
<g id="edge59" class="edge"><title>Node2&#45;&gt;Node6</title>
<path fill="none" stroke="midnightblue" d="M251.771,-608.819C233.2,-599.494 209.344,-586.384 190,-572 165.395,-553.704 140.669,-528.178 125.595,-511.62"/>
<polygon fill="midnightblue" stroke="midnightblue" points="127.925,-508.976 118.645,-503.865 122.712,-513.648 127.925,-508.976"/>
</g>
<!-- Node4&#45;&gt;Node3 -->
<g id="edge4" class="edge"><title>Node4&#45;&gt;Node3</title>
<path fill="none" stroke="midnightblue" d="M266.35,-540.964C267.215,-526.118 270.033,-502.353 279,-484 296.218,-448.761 329.269,-416.519 350.17,-398.359"/>
<polygon fill="midnightblue" stroke="midnightblue" points="352.68,-400.82 358.045,-391.683 348.153,-395.48 352.68,-400.82"/>
</g>
<!-- Node5 -->
<g id="node5" class="node"><title>Node5</title>
<polygon fill="none" stroke="#bfbfbf" points="288,-484.5 288,-503.5 340,-503.5 340,-484.5 288,-484.5"/>
<text text-anchor="middle" x="314" y="-491.5" font-family="Helvetica,sans-Serif" font-size="10.00">memory</text>
</g>
<!-- Node4&#45;&gt;Node5 -->
<g id="edge5" class="edge"><title>Node4&#45;&gt;Node5</title>
<path fill="none" stroke="midnightblue" d="M277.375,-540.781C284.35,-532.062 293.314,-520.857 300.628,-511.715"/>
<polygon fill="midnightblue" stroke="midnightblue" points="303.502,-513.726 307.016,-503.731 298.036,-509.353 303.502,-513.726"/>
</g>
<!-- Node4&#45;&gt;Node6 -->
<g id="edge6" class="edge"><title>Node4&#45;&gt;Node6</title>
<path fill="none" stroke="midnightblue" d="M229.659,-540.933C203.276,-530.72 167.926,-517.036 142.688,-507.266"/>
<polygon fill="midnightblue" stroke="midnightblue" points="143.806,-503.946 133.217,-503.6 141.279,-510.474 143.806,-503.946"/>
</g>
<!-- Node4&#45;&gt;Node7 -->
<g id="edge9" class="edge"><title>Node4&#45;&gt;Node7</title>
<path fill="none" stroke="midnightblue" d="M256.687,-540.96C238.714,-512.462 201,-445.248 201,-383 201,-383 201,-383 201,-319 201,-283.111 186.589,-243.151 177.109,-220.746"/>
<polygon fill="midnightblue" stroke="midnightblue" points="180.278,-219.257 173.053,-211.508 173.869,-222.072 180.278,-219.257"/>
</g>
<!-- Node4&#45;&gt;Node8 -->
<g id="edge10" class="edge"><title>Node4&#45;&gt;Node8</title>
<path fill="none" stroke="midnightblue" d="M333.057,-548.35C451.319,-536.621 695.225,-512.432 809.453,-501.104"/>
<polygon fill="midnightblue" stroke="midnightblue" points="809.829,-504.584 819.434,-500.114 809.138,-497.618 809.829,-504.584"/>
</g>
<!-- Node6&#45;&gt;Node3 -->
<g id="edge7" class="edge"><title>Node6&#45;&gt;Node3</title>
<path fill="none" stroke="midnightblue" d="M131.154,-484.361C160.255,-471.893 215.737,-448.138 263,-428 288.722,-417.04 317.975,-404.625 339.224,-395.616"/>
<polygon fill="midnightblue" stroke="midnightblue" points="340.831,-398.736 348.672,-391.611 338.099,-392.291 340.831,-398.736"/>
</g>
<!-- Node6&#45;&gt;Node7 -->
<g id="edge8" class="edge"><title>Node6&#45;&gt;Node7</title>
<path fill="none" stroke="midnightblue" d="M114.506,-484.325C121.603,-465.959 137,-421.658 137,-383 137,-383 137,-383 137,-319 137,-283.111 151.411,-243.151 160.891,-220.746"/>
<polygon fill="midnightblue" stroke="midnightblue" points="164.131,-222.072 164.947,-211.508 157.722,-219.257 164.131,-222.072"/>
</g>
<!-- Node8&#45;&gt;Node3 -->
<g id="edge12" class="edge"><title>Node8&#45;&gt;Node3</title>
<path fill="none" stroke="midnightblue" d="M819.423,-491.364C721.197,-487.626 511.178,-476.48 445,-448 419.703,-437.113 396.576,-414.762 382.642,-399.333"/>
<polygon fill="midnightblue" stroke="midnightblue" points="385.102,-396.828 375.892,-391.591 379.826,-401.429 385.102,-396.828"/>
</g>
<!-- Node9 -->
<g id="node9" class="node"><title>Node9</title>
<polygon fill="none" stroke="#bfbfbf" points="825.5,-428.5 825.5,-447.5 860.5,-447.5 860.5,-428.5 825.5,-428.5"/>
<text text-anchor="middle" x="843" y="-435.5" font-family="Helvetica,sans-Serif" font-size="10.00">map</text>
</g>
<!-- Node8&#45;&gt;Node9 -->
<g id="edge11" class="edge"><title>Node8&#45;&gt;Node9</title>
<path fill="none" stroke="midnightblue" d="M866.376,-484.083C862.544,-476.691 856.976,-465.953 852.235,-456.811"/>
<polygon fill="midnightblue" stroke="midnightblue" points="855.248,-455.018 847.538,-447.751 849.034,-458.24 855.248,-455.018"/>
</g>
<!-- Node10 -->
<g id="node10" class="node"><title>Node10</title>
<polygon fill="none" stroke="#bfbfbf" points="1416,-428.5 1416,-447.5 1454,-447.5 1454,-428.5 1416,-428.5"/>
<text text-anchor="middle" x="1435" y="-435.5" font-family="Helvetica,sans-Serif" font-size="10.00">array</text>
</g>
<!-- Node8&#45;&gt;Node10 -->
<g id="edge13" class="edge"><title>Node8&#45;&gt;Node10</title>
<path fill="none" stroke="midnightblue" d="M922.546,-488.065C1038.18,-476.994 1315.2,-450.47 1405.79,-441.797"/>
<polygon fill="midnightblue" stroke="midnightblue" points="1406.27,-445.267 1415.89,-440.83 1405.6,-438.299 1406.27,-445.267"/>
</g>
<!-- Node11 -->
<g id="node11" class="node"><title>Node11</title>
<polygon fill="none" stroke="#bfbfbf" points="878.5,-428.5 878.5,-447.5 919.5,-447.5 919.5,-428.5 878.5,-428.5"/>
<text text-anchor="middle" x="899" y="-435.5" font-family="Helvetica,sans-Serif" font-size="10.00">string</text>
</g>
<!-- Node8&#45;&gt;Node11 -->
<g id="edge14" class="edge"><title>Node8&#45;&gt;Node11</title>
<path fill="none" stroke="midnightblue" d="M875.624,-484.083C879.456,-476.691 885.024,-465.953 889.765,-456.811"/>
<polygon fill="midnightblue" stroke="midnightblue" points="892.966,-458.24 894.462,-447.751 886.752,-455.018 892.966,-458.24"/>
</g>
<!-- Node12 -->
<g id="node12" class="node"><title>Node12</title>
<polygon fill="none" stroke="#bfbfbf" points="1148,-136.5 1148,-155.5 1192,-155.5 1192,-136.5 1148,-136.5"/>
<text text-anchor="middle" x="1170" y="-143.5" font-family="Helvetica,sans-Serif" font-size="10.00">cmath</text>
</g>
<!-- Node8&#45;&gt;Node12 -->
<g id="edge15" class="edge"><title>Node8&#45;&gt;Node12</title>
<path fill="none" stroke="midnightblue" d="M922.541,-492.012C980.814,-489.282 1077.52,-479.817 1154,-448 1199.22,-429.186 1243,-431.982 1243,-383 1243,-383 1243,-383 1243,-257 1243,-217.776 1210.38,-181.836 1188.75,-162.318"/>
<polygon fill="midnightblue" stroke="midnightblue" points="1190.93,-159.581 1181.09,-155.67 1186.35,-164.868 1190.93,-159.581"/>
</g>
<!-- Node13 -->
<g id="node13" class="node"><title>Node13</title>
<g id="a_node13"><a xlink:href="../../d1/d73/Defs_8h.html" target="_top" xlink:title="Common definitions for 2D coordinates. ">
<polygon fill="none" stroke="black" points="955,-192.5 955,-211.5 1047,-211.5 1047,-192.5 955,-192.5"/>
<text text-anchor="middle" x="1001" y="-199.5" font-family="Helvetica,sans-Serif" font-size="10.00">TPCBase/Defs.h</text>
</a>
</g>
</g>
<!-- Node8&#45;&gt;Node13 -->
<g id="edge16" class="edge"><title>Node8&#45;&gt;Node13</title>
<path fill="none" stroke="midnightblue" d="M922.821,-486.851C1016.64,-474.264 1205,-441.684 1205,-383 1205,-383 1205,-383 1205,-319 1205,-250.734 1117.61,-222.137 1057.22,-210.526"/>
<polygon fill="midnightblue" stroke="midnightblue" points="1057.5,-207.019 1047.04,-208.676 1056.25,-213.906 1057.5,-207.019"/>
</g>
<!-- Node26 -->
<g id="node26" class="node"><title>Node26</title>
<g id="a_node26"><a xlink:href="../../de/d41/PadPos_8h.html" target="_top" xlink:title="TPCBase/PadPos.h">
<polygon fill="none" stroke="black" points="831.5,-310.5 831.5,-329.5 936.5,-329.5 936.5,-310.5 831.5,-310.5"/>
<text text-anchor="middle" x="884" y="-317.5" font-family="Helvetica,sans-Serif" font-size="10.00">TPCBase/PadPos.h</text>
</a>
</g>
</g>
<!-- Node8&#45;&gt;Node26 -->
<g id="edge31" class="edge"><title>Node8&#45;&gt;Node26</title>
<path fill="none" stroke="midnightblue" d="M922.822,-487.432C971.366,-481.022 1038.81,-468.63 1055,-448 1060.49,-441.008 1060.36,-435.091 1055,-428 1019.62,-381.199 974.843,-427.323 928,-392 910.144,-378.535 897.834,-355.527 890.867,-339.36"/>
<polygon fill="midnightblue" stroke="midnightblue" points="894.038,-337.863 887.057,-329.893 887.544,-340.476 894.038,-337.863"/>
</g>
<!-- Node27 -->
<g id="node27" class="node"><title>Node27</title>
<g id="a_node27"><a xlink:href="../../dd/d0b/PadSecPos_8h.html" target="_top" xlink:title="TPCBase/PadSecPos.h">
<polygon fill="none" stroke="black" points="683,-372.5 683,-391.5 805,-391.5 805,-372.5 683,-372.5"/>
<text text-anchor="middle" x="744" y="-379.5" font-family="Helvetica,sans-Serif" font-size="10.00">TPCBase/PadSecPos.h</text>
</a>
</g>
</g>
<!-- Node8&#45;&gt;Node27 -->
<g id="edge32" class="edge"><title>Node8&#45;&gt;Node27</title>
<path fill="none" stroke="midnightblue" d="M819.212,-488.311C767.34,-482.415 692.727,-470.258 675,-448 659.09,-428.023 687.82,-408.382 712.919,-396.009"/>
<polygon fill="midnightblue" stroke="midnightblue" points="714.686,-399.047 722.259,-391.638 711.718,-392.707 714.686,-399.047"/>
</g>
<!-- Node28 -->
<g id="node28" class="node"><title>Node28</title>
<g id="a_node28"><a xlink:href="../../d3/dd6/Sector_8h.html" target="_top" xlink:title="TPCBase/Sector.h">
<polygon fill="none" stroke="black" points="675.5,-248.5 675.5,-267.5 774.5,-267.5 774.5,-248.5 675.5,-248.5"/>
<text text-anchor="middle" x="725" y="-255.5" font-family="Helvetica,sans-Serif" font-size="10.00">TPCBase/Sector.h</text>
</a>
</g>
</g>
<!-- Node8&#45;&gt;Node28 -->
<g id="edge58" class="edge"><title>Node8&#45;&gt;Node28</title>
<path fill="none" stroke="midnightblue" d="M819.099,-488.826C765.069,-483.277 685.741,-471.325 667,-448 624.391,-394.968 682.528,-310.761 710.95,-275.442"/>
<polygon fill="midnightblue" stroke="midnightblue" points="713.787,-277.503 717.457,-267.564 708.39,-273.045 713.787,-277.503"/>
</g>
<!-- Node29 -->
<g id="node29" class="node"><title>Node29</title>
<g id="a_node29"><a xlink:href="../../da/d61/PadROCPos_8h.html" target="_top" xlink:title="TPCBase/PadROCPos.h">
<polygon fill="none" stroke="black" points="1049,-372.5 1049,-391.5 1177,-391.5 1177,-372.5 1049,-372.5"/>
<text text-anchor="middle" x="1113" y="-379.5" font-family="Helvetica,sans-Serif" font-size="10.00">TPCBase/PadROCPos.h</text>
</a>
</g>
</g>
<!-- Node8&#45;&gt;Node29 -->
<g id="edge37" class="edge"><title>Node8&#45;&gt;Node29</title>
<path fill="none" stroke="midnightblue" d="M922.567,-488.005C978.628,-481.61 1063.51,-468.796 1088,-448 1101.66,-436.4 1107.88,-416.443 1110.7,-401.695"/>
<polygon fill="midnightblue" stroke="midnightblue" points="1114.18,-402.075 1112.26,-391.657 1107.27,-401.001 1114.18,-402.075"/>
</g>
<!-- Node31 -->
<g id="node31" class="node"><title>Node31</title>
<g id="a_node31"><a xlink:href="../../d3/d54/DigitPos_8h.html" target="_top" xlink:title="TPCBase/DigitPos.h">
<polygon fill="none" stroke="black" points="938,-428.5 938,-447.5 1046,-447.5 1046,-428.5 938,-428.5"/>
<text text-anchor="middle" x="992" y="-435.5" font-family="Helvetica,sans-Serif" font-size="10.00">TPCBase/DigitPos.h</text>
</a>
</g>
</g>
<!-- Node8&#45;&gt;Node31 -->
<g id="edge43" class="edge"><title>Node8&#45;&gt;Node31</title>
<path fill="none" stroke="midnightblue" d="M890.173,-484.444C909.909,-475.636 940.885,-461.812 963.493,-451.722"/>
<polygon fill="midnightblue" stroke="midnightblue" points="965.211,-454.788 972.917,-447.516 962.359,-448.396 965.211,-454.788"/>
</g>
<!-- Node33 -->
<g id="node33" class="node"><title>Node33</title>
<g id="a_node33"><a xlink:href="../../d1/d1f/FECInfo_8h.html" target="_top" xlink:title="TPCBase/FECInfo.h">
<polygon fill="none" stroke="black" points="1300.5,-248.5 1300.5,-267.5 1407.5,-267.5 1407.5,-248.5 1300.5,-248.5"/>
<text text-anchor="middle" x="1354" y="-255.5" font-family="Helvetica,sans-Serif" font-size="10.00">TPCBase/FECInfo.h</text>
</a>
</g>
</g>
<!-- Node8&#45;&gt;Node33 -->
<g id="edge51" class="edge"><title>Node8&#45;&gt;Node33</title>
<path fill="none" stroke="midnightblue" d="M922.638,-493.187C1015.34,-492.532 1205.15,-486.385 1257,-448 1313.15,-406.438 1284.7,-364.283 1320,-304 1325.88,-293.966 1333.62,-283.558 1340.23,-275.282"/>
<polygon fill="midnightblue" stroke="midnightblue" points="1342.95,-277.486 1346.58,-267.535 1337.53,-273.047 1342.95,-277.486"/>
</g>
<!-- Node34 -->
<g id="node34" class="node"><title>Node34</title>
<g id="a_node34"><a xlink:href="../../da/d9d/PadRegionInfo_8h.html" target="_top" xlink:title="TPCBase/PadRegionInfo.h">
<polygon fill="none" stroke="black" points="454.5,-428.5 454.5,-447.5 589.5,-447.5 589.5,-428.5 454.5,-428.5"/>
<text text-anchor="middle" x="522" y="-435.5" font-family="Helvetica,sans-Serif" font-size="10.00">TPCBase/PadRegionInfo.h</text>
</a>
</g>
</g>
<!-- Node8&#45;&gt;Node34 -->
<g id="edge53" class="edge"><title>Node8&#45;&gt;Node34</title>
<path fill="none" stroke="midnightblue" d="M819.128,-484.974C757.359,-475.417 654.137,-459.445 587.072,-449.068"/>
<polygon fill="midnightblue" stroke="midnightblue" points="587.457,-445.587 577.04,-447.516 586.387,-452.504 587.457,-445.587"/>
</g>
<!-- Node35 -->
<g id="node35" class="node"><title>Node35</title>
<g id="a_node35"><a xlink:href="../../d6/d42/PartitionInfo_8h.html" target="_top" xlink:title="TPCBase/PartitionInfo.h">
<polygon fill="none" stroke="black" points="684.5,-428.5 684.5,-447.5 807.5,-447.5 807.5,-428.5 684.5,-428.5"/>
<text text-anchor="middle" x="746" y="-435.5" font-family="Helvetica,sans-Serif" font-size="10.00">TPCBase/PartitionInfo.h</text>
</a>
</g>
</g>
<!-- Node8&#45;&gt;Node35 -->
<g id="edge57" class="edge"><title>Node8&#45;&gt;Node35</title>
<path fill="none" stroke="midnightblue" d="M851.193,-484.444C830.713,-475.596 798.517,-461.687 775.135,-451.586"/>
<polygon fill="midnightblue" stroke="midnightblue" points="776.282,-448.269 765.714,-447.516 773.506,-454.695 776.282,-448.269"/>
</g>
<!-- Node13&#45;&gt;Node12 -->
<g id="edge17" class="edge"><title>Node13&#45;&gt;Node12</title>
<path fill="none" stroke="midnightblue" d="M1027.78,-192.444C1057.76,-182.863 1106.31,-167.349 1138.2,-157.16"/>
<polygon fill="midnightblue" stroke="midnightblue" points="1139.46,-160.431 1147.92,-154.054 1137.33,-153.764 1139.46,-160.431"/>
</g>
<!-- Node14 -->
<g id="node14" class="node"><title>Node14</title>
<g id="a_node14"><a xlink:href="../../d2/dd0/Cartesian2D_8h.html" target="_top" xlink:title="MathUtils/Cartesian2D.h">
<polygon fill="none" stroke="black" points="234.5,-74.5 234.5,-93.5 359.5,-93.5 359.5,-74.5 234.5,-74.5"/>
<text text-anchor="middle" x="297" y="-81.5" font-family="Helvetica,sans-Serif" font-size="10.00">MathUtils/Cartesian2D.h</text>
</a>
</g>
</g>
<!-- Node13&#45;&gt;Node14 -->
<g id="edge18" class="edge"><title>Node13&#45;&gt;Node14</title>
<path fill="none" stroke="midnightblue" d="M954.798,-194.437C850.098,-179.386 586.847,-140.551 368,-100 360.761,-98.6587 353.127,-97.1481 345.656,-95.6154"/>
<polygon fill="midnightblue" stroke="midnightblue" points="346.125,-92.1381 335.622,-93.5256 344.698,-98.991 346.125,-92.1381"/>
</g>
<!-- Node17 -->
<g id="node17" class="node"><title>Node17</title>
<g id="a_node17"><a xlink:href="../../dd/d76/Cartesian3D_8h.html" target="_top" xlink:title="MathUtils/Cartesian3D.h">
<polygon fill="none" stroke="black" points="931.5,-136.5 931.5,-155.5 1056.5,-155.5 1056.5,-136.5 931.5,-136.5"/>
<text text-anchor="middle" x="994" y="-143.5" font-family="Helvetica,sans-Serif" font-size="10.00">MathUtils/Cartesian3D.h</text>
</a>
</g>
</g>
<!-- Node13&#45;&gt;Node17 -->
<g id="edge21" class="edge"><title>Node13&#45;&gt;Node17</title>
<path fill="none" stroke="midnightblue" d="M999.844,-192.083C998.916,-184.927 997.582,-174.635 996.423,-165.691"/>
<polygon fill="midnightblue" stroke="midnightblue" points="999.891,-165.218 995.134,-155.751 992.949,-166.118 999.891,-165.218"/>
</g>
<!-- Node15 -->
<g id="node15" class="node"><title>Node15</title>
<polygon fill="none" stroke="#bfbfbf" points="130.5,-1 130.5,-31 281.5,-31 281.5,-1 130.5,-1"/>
<text text-anchor="start" x="138.5" y="-19" font-family="Helvetica,sans-Serif" font-size="10.00">Math/GenVector/Displacement</text>
<text text-anchor="middle" x="206" y="-8" font-family="Helvetica,sans-Serif" font-size="10.00">Vector2D.h</text>
</g>
<!-- Node14&#45;&gt;Node15 -->
<g id="edge19" class="edge"><title>Node14&#45;&gt;Node15</title>
<path fill="none" stroke="midnightblue" d="M285.103,-74.3717C272.221,-65.0286 251.22,-49.7966 234.093,-37.375"/>
<polygon fill="midnightblue" stroke="midnightblue" points="235.703,-34.2194 225.553,-31.1815 231.593,-39.8859 235.703,-34.2194"/>
</g>
<!-- Node16 -->
<g id="node16" class="node"><title>Node16</title>
<polygon fill="none" stroke="#bfbfbf" points="300,-6.5 300,-25.5 476,-25.5 476,-6.5 300,-6.5"/>
<text text-anchor="middle" x="388" y="-13.5" font-family="Helvetica,sans-Serif" font-size="10.00">Math/GenVector/PositionVector2D.h</text>
</g>
<!-- Node14&#45;&gt;Node16 -->
<g id="edge20" class="edge"><title>Node14&#45;&gt;Node16</title>
<path fill="none" stroke="midnightblue" d="M308.897,-74.3717C323.884,-63.5015 349.862,-44.6602 367.942,-31.5474"/>
<polygon fill="midnightblue" stroke="midnightblue" points="370.06,-34.3349 376.1,-25.6305 365.95,-28.6684 370.06,-34.3349"/>
</g>
<!-- Node17&#45;&gt;Node14 -->
<g id="edge29" class="edge"><title>Node17&#45;&gt;Node14</title>
<path fill="none" stroke="midnightblue" d="M931.06,-143.315C817.885,-139.654 572.731,-128.848 368,-100 359.752,-98.8378 351.028,-97.2753 342.625,-95.5969"/>
<polygon fill="midnightblue" stroke="midnightblue" points="343.09,-92.1189 332.587,-93.5112 341.666,-98.9725 343.09,-92.1189"/>
</g>
<!-- Node18 -->
<g id="node18" class="node"><title>Node18</title>
<polygon fill="none" stroke="#bfbfbf" points="570.5,-74.5 570.5,-93.5 719.5,-93.5 719.5,-74.5 570.5,-74.5"/>
<text text-anchor="middle" x="645" y="-81.5" font-family="Helvetica,sans-Serif" font-size="10.00">Math/GenVector/Rotation3D.h</text>
</g>
<!-- Node17&#45;&gt;Node18 -->
<g id="edge22" class="edge"><title>Node17&#45;&gt;Node18</title>
<path fill="none" stroke="midnightblue" d="M942.681,-136.418C889.281,-127.457 803.247,-112.933 729,-100 720.411,-98.5039 711.332,-96.9029 702.442,-95.3244"/>
<polygon fill="midnightblue" stroke="midnightblue" points="702.979,-91.8652 692.521,-93.5585 701.753,-98.7569 702.979,-91.8652"/>
</g>
<!-- Node19 -->
<g id="node19" class="node"><title>Node19</title>
<polygon fill="none" stroke="#bfbfbf" points="738,-74.5 738,-93.5 894,-93.5 894,-74.5 738,-74.5"/>
<text text-anchor="middle" x="816" y="-81.5" font-family="Helvetica,sans-Serif" font-size="10.00">Math/GenVector/Transform3D.h</text>
</g>
<!-- Node17&#45;&gt;Node19 -->
<g id="edge23" class="edge"><title>Node17&#45;&gt;Node19</title>
<path fill="none" stroke="midnightblue" d="M968.497,-136.403C937.699,-126.022 885.735,-108.506 851.152,-96.849"/>
<polygon fill="midnightblue" stroke="midnightblue" points="852.05,-93.4582 841.456,-93.5806 849.814,-100.092 852.05,-93.4582"/>
</g>
<!-- Node20 -->
<g id="node20" class="node"><title>Node20</title>
<polygon fill="none" stroke="#bfbfbf" points="912,-74.5 912,-93.5 1072,-93.5 1072,-74.5 912,-74.5"/>
<text text-anchor="middle" x="992" y="-81.5" font-family="Helvetica,sans-Serif" font-size="10.00">Math/GenVector/Translation3D.h</text>
</g>
<!-- Node17&#45;&gt;Node20 -->
<g id="edge24" class="edge"><title>Node17&#45;&gt;Node20</title>
<path fill="none" stroke="midnightblue" d="M993.713,-136.403C993.431,-127.938 992.991,-114.728 992.627,-103.82"/>
<polygon fill="midnightblue" stroke="midnightblue" points="996.117,-103.458 992.286,-93.5806 989.121,-103.692 996.117,-103.458"/>
</g>
<!-- Node21 -->
<g id="node21" class="node"><title>Node21</title>
<polygon fill="none" stroke="#bfbfbf" points="1426,-74.5 1426,-93.5 1482,-93.5 1482,-74.5 1426,-74.5"/>
<text text-anchor="middle" x="1454" y="-81.5" font-family="Helvetica,sans-Serif" font-size="10.00">Rtypes.h</text>
</g>
<!-- Node17&#45;&gt;Node21 -->
<g id="edge25" class="edge"><title>Node17&#45;&gt;Node21</title>
<path fill="none" stroke="midnightblue" d="M1056.64,-140.492C1157.27,-132.887 1350.38,-116.697 1417,-100 1420.06,-99.2328 1423.2,-98.2639 1426.3,-97.1895"/>
<polygon fill="midnightblue" stroke="midnightblue" points="1427.81,-100.361 1435.89,-93.5151 1425.3,-93.8238 1427.81,-100.361"/>
</g>
<!-- Node22 -->
<g id="node22" class="node"><title>Node22</title>
<polygon fill="none" stroke="#bfbfbf" points="1090,-74.5 1090,-93.5 1166,-93.5 1166,-74.5 1090,-74.5"/>
<text text-anchor="middle" x="1128" y="-81.5" font-family="Helvetica,sans-Serif" font-size="10.00">TGeoMatrix.h</text>
</g>
<!-- Node17&#45;&gt;Node22 -->
<g id="edge26" class="edge"><title>Node17&#45;&gt;Node22</title>
<path fill="none" stroke="midnightblue" d="M1013.2,-136.403C1035.79,-126.29 1073.5,-109.404 1099.5,-97.761"/>
<polygon fill="midnightblue" stroke="midnightblue" points="1101.14,-100.862 1108.84,-93.5806 1098.28,-94.4729 1101.14,-100.862"/>
</g>
<!-- Node23 -->
<g id="node23" class="node"><title>Node23</title>
<polygon fill="none" stroke="#bfbfbf" points="1184.5,-69 1184.5,-99 1335.5,-99 1335.5,-69 1184.5,-69"/>
<text text-anchor="start" x="1192.5" y="-87" font-family="Helvetica,sans-Serif" font-size="10.00">Math/GenVector/Displacement</text>
<text text-anchor="middle" x="1260" y="-76" font-family="Helvetica,sans-Serif" font-size="10.00">Vector3D.h</text>
</g>
<!-- Node17&#45;&gt;Node23 -->
<g id="edge27" class="edge"><title>Node17&#45;&gt;Node23</title>
<path fill="none" stroke="midnightblue" d="M1031.83,-136.467C1072.3,-127.337 1137.47,-112.638 1187.82,-101.281"/>
<polygon fill="midnightblue" stroke="midnightblue" points="1188.7,-104.671 1197.68,-99.0565 1187.16,-97.8427 1188.7,-104.671"/>
</g>
<!-- Node24 -->
<g id="node24" class="node"><title>Node24</title>
<polygon fill="none" stroke="#bfbfbf" points="377,-74.5 377,-93.5 553,-93.5 553,-74.5 377,-74.5"/>
<text text-anchor="middle" x="465" y="-81.5" font-family="Helvetica,sans-Serif" font-size="10.00">Math/GenVector/PositionVector3D.h</text>
</g>
<!-- Node17&#45;&gt;Node24 -->
<g id="edge28" class="edge"><title>Node17&#45;&gt;Node24</title>
<path fill="none" stroke="midnightblue" d="M931.499,-139.522C847.221,-131.903 692.533,-117.099 561,-100 549.744,-98.5367 537.772,-96.8063 526.239,-95.0503"/>
<polygon fill="midnightblue" stroke="midnightblue" points="526.663,-91.5744 516.246,-93.5067 525.595,-98.4923 526.663,-91.5744"/>
</g>
<!-- Node25 -->
<g id="node25" class="node"><title>Node25</title>
<polygon fill="none" stroke="#bfbfbf" points="1354,-74.5 1354,-93.5 1408,-93.5 1408,-74.5 1354,-74.5"/>
<text text-anchor="middle" x="1381" y="-81.5" font-family="Helvetica,sans-Serif" font-size="10.00">iostream</text>
</g>
<!-- Node17&#45;&gt;Node25 -->
<g id="edge30" class="edge"><title>Node17&#45;&gt;Node25</title>
<path fill="none" stroke="midnightblue" d="M1056.57,-141.814C1127.31,-137.097 1245.48,-125.841 1344,-100 1346.99,-99.2163 1350.06,-98.251 1353.09,-97.1909"/>
<polygon fill="midnightblue" stroke="midnightblue" points="1354.41,-100.433 1362.5,-93.5887 1351.91,-93.8959 1354.41,-100.433"/>
</g>
<!-- Node27&#45;&gt;Node26 -->
<g id="edge36" class="edge"><title>Node27&#45;&gt;Node26</title>
<path fill="none" stroke="midnightblue" d="M764.059,-372.403C787.762,-362.245 827.406,-345.255 854.583,-333.607"/>
<polygon fill="midnightblue" stroke="midnightblue" points="856.166,-336.737 863.979,-329.581 853.408,-330.303 856.166,-336.737"/>
</g>
<!-- Node27&#45;&gt;Node28 -->
<g id="edge33" class="edge"><title>Node27&#45;&gt;Node28</title>
<path fill="none" stroke="midnightblue" d="M742.634,-372.226C739.566,-352.53 732.076,-304.437 727.912,-277.7"/>
<polygon fill="midnightblue" stroke="midnightblue" points="731.351,-277.037 726.354,-267.694 724.435,-278.114 731.351,-277.037"/>
</g>
<!-- Node28&#45;&gt;Node7 -->
<g id="edge34" class="edge"><title>Node28&#45;&gt;Node7</title>
<path fill="none" stroke="midnightblue" d="M675.169,-252.16C575.297,-242.461 350.518,-220.629 237.138,-209.618"/>
<polygon fill="midnightblue" stroke="midnightblue" points="237.475,-206.134 227.183,-208.651 236.798,-213.101 237.475,-206.134"/>
</g>
<!-- Node28&#45;&gt;Node13 -->
<g id="edge35" class="edge"><title>Node28&#45;&gt;Node13</title>
<path fill="none" stroke="midnightblue" d="M768.733,-248.444C817.183,-238.964 895.329,-223.675 947.418,-213.483"/>
<polygon fill="midnightblue" stroke="midnightblue" points="948.33,-216.871 957.472,-211.516 946.986,-210.002 948.33,-216.871"/>
</g>
<!-- Node29&#45;&gt;Node13 -->
<g id="edge38" class="edge"><title>Node29&#45;&gt;Node13</title>
<path fill="none" stroke="midnightblue" d="M1119.22,-372.043C1128.66,-357.244 1144.38,-327.033 1133,-304 1111.86,-261.212 1062.94,-231.555 1030.96,-215.921"/>
<polygon fill="midnightblue" stroke="midnightblue" points="1032.16,-212.62 1021.63,-211.52 1029.18,-218.951 1032.16,-212.62"/>
</g>
<!-- Node29&#45;&gt;Node26 -->
<g id="edge42" class="edge"><title>Node29&#45;&gt;Node26</title>
<path fill="none" stroke="midnightblue" d="M1080.19,-372.403C1039.8,-361.822 971.123,-343.827 926.671,-332.18"/>
<polygon fill="midnightblue" stroke="midnightblue" points="927.31,-328.729 916.749,-329.581 925.536,-335.501 927.31,-328.729"/>
</g>
<!-- Node30 -->
<g id="node30" class="node"><title>Node30</title>
<g id="a_node30"><a xlink:href="../../dc/d14/ROC_8h.html" target="_top" xlink:title="TPCBase/ROC.h">
<polygon fill="none" stroke="black" points="1031.5,-310.5 1031.5,-329.5 1124.5,-329.5 1124.5,-310.5 1031.5,-310.5"/>
<text text-anchor="middle" x="1078" y="-317.5" font-family="Helvetica,sans-Serif" font-size="10.00">TPCBase/ROC.h</text>
</a>
</g>
</g>
<!-- Node29&#45;&gt;Node30 -->
<g id="edge39" class="edge"><title>Node29&#45;&gt;Node30</title>
<path fill="none" stroke="midnightblue" d="M1107.99,-372.403C1102.84,-363.582 1094.69,-349.608 1088.18,-338.455"/>
<polygon fill="midnightblue" stroke="midnightblue" points="1091.07,-336.455 1083.01,-329.581 1085.02,-339.982 1091.07,-336.455"/>
</g>
<!-- Node30&#45;&gt;Node13 -->
<g id="edge40" class="edge"><title>Node30&#45;&gt;Node13</title>
<path fill="none" stroke="midnightblue" d="M1072.21,-310.281C1059.5,-291.126 1028.93,-245.083 1012.28,-219.994"/>
<polygon fill="midnightblue" stroke="midnightblue" points="1015.09,-217.901 1006.65,-211.505 1009.26,-221.772 1015.09,-217.901"/>
</g>
<!-- Node30&#45;&gt;Node28 -->
<g id="edge41" class="edge"><title>Node30&#45;&gt;Node28</title>
<path fill="none" stroke="midnightblue" d="M1031.49,-311.094C968.053,-300.312 854.348,-280.986 784.692,-269.146"/>
<polygon fill="midnightblue" stroke="midnightblue" points="785.191,-265.681 774.746,-267.455 784.018,-272.582 785.191,-265.681"/>
</g>
<!-- Node31&#45;&gt;Node13 -->
<g id="edge44" class="edge"><title>Node31&#45;&gt;Node13</title>
<path fill="none" stroke="midnightblue" d="M960.465,-428.422C901.871,-410.787 785.34,-366.778 822,-304 850.545,-255.117 912.452,-228.033 955.41,-214.503"/>
<polygon fill="midnightblue" stroke="midnightblue" points="956.518,-217.824 965.079,-211.584 954.495,-211.123 956.518,-217.824"/>
</g>
<!-- Node31&#45;&gt;Node26 -->
<g id="edge49" class="edge"><title>Node31&#45;&gt;Node26</title>
<path fill="none" stroke="midnightblue" d="M953.243,-428.432C932.782,-421.884 909.064,-410.691 895,-392 883.775,-377.082 881.916,-355.339 882.307,-339.85"/>
<polygon fill="midnightblue" stroke="midnightblue" points="885.801,-340.051 882.889,-329.864 878.813,-339.644 885.801,-340.051"/>
</g>
<!-- Node31&#45;&gt;Node27 -->
<g id="edge50" class="edge"><title>Node31&#45;&gt;Node27</title>
<path fill="none" stroke="midnightblue" d="M952.704,-428.444C909.441,-419.023 839.827,-403.866 793.027,-393.675"/>
<polygon fill="midnightblue" stroke="midnightblue" points="793.628,-390.224 783.112,-391.516 792.139,-397.064 793.628,-390.224"/>
</g>
<!-- Node32 -->
<g id="node32" class="node"><title>Node32</title>
<g id="a_node32"><a xlink:href="../../df/d26/CRU_8h.html" target="_top" xlink:title="TPCBase/CRU.h">
<polygon fill="none" stroke="black" points="937.5,-372.5 937.5,-391.5 1030.5,-391.5 1030.5,-372.5 937.5,-372.5"/>
<text text-anchor="middle" x="984" y="-379.5" font-family="Helvetica,sans-Serif" font-size="10.00">TPCBase/CRU.h</text>
</a>
</g>
</g>
<!-- Node31&#45;&gt;Node32 -->
<g id="edge45" class="edge"><title>Node31&#45;&gt;Node32</title>
<path fill="none" stroke="midnightblue" d="M990.679,-428.083C989.619,-420.927 988.094,-410.635 986.769,-401.691"/>
<polygon fill="midnightblue" stroke="midnightblue" points="990.224,-401.13 985.296,-391.751 983.3,-402.156 990.224,-401.13"/>
</g>
<!-- Node32&#45;&gt;Node13 -->
<g id="edge46" class="edge"><title>Node32&#45;&gt;Node13</title>
<path fill="none" stroke="midnightblue" d="M984.82,-372.415C987.417,-345.227 995.502,-260.563 999.165,-222.217"/>
<polygon fill="midnightblue" stroke="midnightblue" points="1002.68,-222.206 1000.15,-211.918 995.713,-221.54 1002.68,-222.206"/>
</g>
<!-- Node32&#45;&gt;Node28 -->
<g id="edge47" class="edge"><title>Node32&#45;&gt;Node28</title>
<path fill="none" stroke="midnightblue" d="M982.195,-372.241C978.373,-356.04 967.872,-321.455 945,-304 920.31,-285.158 841.131,-272.338 784.855,-265.344"/>
<polygon fill="midnightblue" stroke="midnightblue" points="784.98,-261.833 774.632,-264.105 784.139,-268.782 784.98,-261.833"/>
</g>
<!-- Node32&#45;&gt;Node30 -->
<g id="edge48" class="edge"><title>Node32&#45;&gt;Node30</title>
<path fill="none" stroke="midnightblue" d="M997.468,-372.403C1012.68,-362.691 1037.69,-346.732 1055.8,-335.17"/>
<polygon fill="midnightblue" stroke="midnightblue" points="1058.01,-337.911 1064.56,-329.581 1054.24,-332.011 1058.01,-337.911"/>
</g>
<!-- Node33&#45;&gt;Node25 -->
<g id="edge52" class="edge"><title>Node33&#45;&gt;Node25</title>
<path fill="none" stroke="midnightblue" d="M1355.38,-248.234C1359.57,-221.548 1372.23,-140.877 1378.03,-103.893"/>
<polygon fill="midnightblue" stroke="midnightblue" points="1381.57,-103.966 1379.66,-93.5442 1374.65,-102.88 1381.57,-103.966"/>
</g>
<!-- Node34&#45;&gt;Node3 -->
<g id="edge54" class="edge"><title>Node34&#45;&gt;Node3</title>
<path fill="none" stroke="midnightblue" d="M497.757,-428.444C471.526,-419.186 429.595,-404.387 400.752,-394.207"/>
<polygon fill="midnightblue" stroke="midnightblue" points="401.738,-390.843 391.143,-390.815 399.408,-397.444 401.738,-390.843"/>
</g>
<!-- Node34&#45;&gt;Node13 -->
<g id="edge55" class="edge"><title>Node34&#45;&gt;Node13</title>
<path fill="none" stroke="midnightblue" d="M525.62,-428.31C538.954,-397.509 588.613,-292.992 666,-248 712.204,-221.137 862.26,-209.719 944.988,-205.367"/>
<polygon fill="midnightblue" stroke="midnightblue" points="945.167,-208.863 954.976,-204.859 944.811,-201.872 945.167,-208.863"/>
</g>
<!-- Node34&#45;&gt;Node26 -->
<g id="edge56" class="edge"><title>Node34&#45;&gt;Node26</title>
<path fill="none" stroke="midnightblue" d="M539.416,-428.423C567.29,-414.956 623.891,-388.671 674,-372 725.908,-354.731 786.812,-340.589 829.625,-331.614"/>
<polygon fill="midnightblue" stroke="midnightblue" points="830.476,-335.012 839.558,-329.556 829.056,-328.157 830.476,-335.012"/>
</g>
<!-- Node37 -->
<g id="node37" class="node"><title>Node37</title>
<polygon fill="none" stroke="#bfbfbf" points="776,-546.5 776,-565.5 822,-565.5 822,-546.5 776,-546.5"/>
<text text-anchor="middle" x="799" y="-553.5" font-family="Helvetica,sans-Serif" font-size="10.00">cstdint</text>
</g>
<!-- Node36&#45;&gt;Node37 -->
<g id="edge61" class="edge"><title>Node36&#45;&gt;Node37</title>
<path fill="none" stroke="midnightblue" d="M799,-614.372C799,-604.643 799,-588.528 799,-575.85"/>
<polygon fill="midnightblue" stroke="midnightblue" points="802.5,-575.841 799,-565.841 795.5,-575.841 802.5,-575.841"/>
</g>
<!-- Node41 -->
<g id="node41" class="node"><title>Node41</title>
<polygon fill="none" stroke="#bfbfbf" points="951,-546.5 951,-565.5 1013,-565.5 1013,-546.5 951,-546.5"/>
<text text-anchor="middle" x="982" y="-553.5" font-family="Helvetica,sans-Serif" font-size="10.00">TNamed.h</text>
</g>
<!-- Node40&#45;&gt;Node41 -->
<g id="edge69" class="edge"><title>Node40&#45;&gt;Node41</title>
<path fill="none" stroke="midnightblue" d="M1096.68,-608.841C1071.09,-597.272 1035.21,-581.055 1010.44,-569.855"/>
<polygon fill="midnightblue" stroke="midnightblue" points="1011.76,-566.612 1001.21,-565.682 1008.88,-572.99 1011.76,-566.612"/>
</g>
<!-- Node42 -->
<g id="node42" class="node"><title>Node42</title>
<polygon fill="none" stroke="#bfbfbf" points="1031.5,-546.5 1031.5,-565.5 1080.5,-565.5 1080.5,-546.5 1031.5,-546.5"/>
<text text-anchor="middle" x="1056" y="-553.5" font-family="Helvetica,sans-Serif" font-size="10.00">cassert</text>
</g>
<!-- Node40&#45;&gt;Node42 -->
<g id="edge70" class="edge"><title>Node40&#45;&gt;Node42</title>
<path fill="none" stroke="midnightblue" d="M1112.38,-608.679C1100.82,-598.082 1085.08,-583.655 1073.17,-572.736"/>
<polygon fill="midnightblue" stroke="midnightblue" points="1075.37,-570.006 1065.63,-565.828 1070.64,-575.166 1075.37,-570.006"/>
</g>
<!-- Node43 -->
<g id="node43" class="node"><title>Node43</title>
<polygon fill="none" stroke="#bfbfbf" points="1098.5,-546.5 1098.5,-565.5 1157.5,-565.5 1157.5,-546.5 1098.5,-546.5"/>
<text text-anchor="middle" x="1128" y="-553.5" font-family="Helvetica,sans-Serif" font-size="10.00">stdexcept</text>
</g>
<!-- Node40&#45;&gt;Node43 -->
<g id="edge71" class="edge"><title>Node40&#45;&gt;Node43</title>
<path fill="none" stroke="midnightblue" d="M1128,-608.679C1128,-599.101 1128,-586.394 1128,-575.977"/>
<polygon fill="midnightblue" stroke="midnightblue" points="1131.5,-575.828 1128,-565.828 1124.5,-575.828 1131.5,-575.828"/>
</g>
<!-- Node44 -->
<g id="node44" class="node"><title>Node44</title>
<polygon fill="none" stroke="#bfbfbf" points="1175.5,-546.5 1175.5,-565.5 1220.5,-565.5 1220.5,-546.5 1175.5,-546.5"/>
<text text-anchor="middle" x="1198" y="-553.5" font-family="Helvetica,sans-Serif" font-size="10.00">gsl/gsl</text>
</g>
<!-- Node40&#45;&gt;Node44 -->
<g id="edge72" class="edge"><title>Node40&#45;&gt;Node44</title>
<path fill="none" stroke="midnightblue" d="M1143.19,-608.679C1154.43,-598.082 1169.73,-583.655 1181.31,-572.736"/>
<polygon fill="midnightblue" stroke="midnightblue" points="1183.76,-575.235 1188.64,-565.828 1178.96,-570.142 1183.76,-575.235"/>
</g>
<!-- Node45&#45;&gt;Node21 -->
<g id="edge74" class="edge"><title>Node45&#45;&gt;Node21</title>
<path fill="none" stroke="midnightblue" d="M1395.99,-304.912C1402.58,-295.012 1410.9,-281.226 1416,-268 1438.15,-210.589 1448.34,-137.813 1452.13,-103.941"/>
<polygon fill="midnightblue" stroke="midnightblue" points="1455.64,-103.984 1453.21,-93.6719 1448.68,-103.249 1455.64,-103.984"/>
</g>
<!-- Node46&#45;&gt;Node10 -->
<g id="edge76" class="edge"><title>Node46&#45;&gt;Node10</title>
<path fill="none" stroke="midnightblue" d="M1367.01,-484.324C1379.53,-475.979 1398.68,-463.212 1413.47,-453.352"/>
<polygon fill="midnightblue" stroke="midnightblue" points="1415.64,-456.114 1422.02,-447.655 1411.76,-450.289 1415.64,-456.114"/>
</g>
<!-- Node47&#45;&gt;Node10 -->
<g id="edge78" class="edge"><title>Node47&#45;&gt;Node10</title>
<path fill="none" stroke="midnightblue" d="M1502.99,-484.324C1490.47,-475.979 1471.32,-463.212 1456.53,-453.352"/>
<polygon fill="midnightblue" stroke="midnightblue" points="1458.24,-450.289 1447.98,-447.655 1454.36,-456.114 1458.24,-450.289"/>
</g>
<!-- Node48&#45;&gt;Node10 -->
<g id="edge80" class="edge"><title>Node48&#45;&gt;Node10</title>
<path fill="none" stroke="midnightblue" d="M1643.7,-484.444C1593.76,-473.568 1508.69,-455.046 1464.15,-445.348"/>
<polygon fill="midnightblue" stroke="midnightblue" points="1464.78,-441.902 1454.26,-443.194 1463.29,-448.742 1464.78,-441.902"/>
</g>
</g>
</svg>
