<?xml version="1.0" encoding="UTF-8" standalone="no"?>
<!DOCTYPE svg PUBLIC "-//W3C//DTD SVG 1.1//EN"
 "http://www.w3.org/Graphics/SVG/1.1/DTD/svg11.dtd">
<!-- Generated by graphviz version 2.36.0 (20140111.2315)
 -->
<!-- Title: /home/travis/build/AliceO2Group/AliceO2/Detectors/TPC/reconstruction/include/TPCReconstruction/HardwareClusterDecoder.h Pages: 1 -->
<svg width="1639pt" height="668pt"
 viewBox="0.00 0.00 1639.00 668.00" xmlns="http://www.w3.org/2000/svg" xmlns:xlink="http://www.w3.org/1999/xlink">
<g id="graph0" class="graph" transform="scale(1 1) rotate(0) translate(4 664)">
<title>/home/travis/build/AliceO2Group/AliceO2/Detectors/TPC/reconstruction/include/TPCReconstruction/HardwareClusterDecoder.h</title>
<!-- Node1 -->
<g id="node1" class="node"><title>Node1</title>
<polygon fill="#bfbfbf" stroke="black" points="156,-596.5 156,-659.5 306,-659.5 306,-596.5 156,-596.5"/>
<text text-anchor="start" x="164" y="-647.5" font-family="Helvetica,sans-Serif" font-size="10.00">/home/travis/build</text>
<text text-anchor="start" x="164" y="-636.5" font-family="Helvetica,sans-Serif" font-size="10.00">/AliceO2Group/AliceO2</text>
<text text-anchor="start" x="164" y="-625.5" font-family="Helvetica,sans-Serif" font-size="10.00">/Detectors/TPC/reconstruction</text>
<text text-anchor="start" x="164" y="-614.5" font-family="Helvetica,sans-Serif" font-size="10.00">/include/TPCReconstruction</text>
<text text-anchor="middle" x="231" y="-603.5" font-family="Helvetica,sans-Serif" font-size="10.00">/HardwareClusterDecoder.h</text>
</g>
<!-- Node2 -->
<g id="node2" class="node"><title>Node2</title>
<polygon fill="none" stroke="#bfbfbf" points="295,-360.5 295,-379.5 339,-379.5 339,-360.5 295,-360.5"/>
<text text-anchor="middle" x="317" y="-367.5" font-family="Helvetica,sans-Serif" font-size="10.00">vector</text>
</g>
<!-- Node1&#45;&gt;Node2 -->
<g id="edge1" class="edge"><title>Node1&#45;&gt;Node2</title>
<path fill="none" stroke="midnightblue" d="M275.527,-596.364C287.431,-586.112 299.154,-573.749 307,-560 338.449,-504.892 328.143,-425.384 321.181,-389.641"/>
<polygon fill="midnightblue" stroke="midnightblue" points="324.567,-388.733 319.095,-379.661 317.715,-390.165 324.567,-388.733"/>
</g>
<!-- Node3 -->
<g id="node3" class="node"><title>Node3</title>
<g id="a_node3"><a xlink:href="../../db/d19/DigitalCurrentClusterIntegrator_8h.html" target="_top" xlink:title="TPCReconstruction/Digital\lCurrentClusterIntegrator.h">
<polygon fill="none" stroke="black" points="164,-529 164,-559 298,-559 298,-529 164,-529"/>
<text text-anchor="start" x="172" y="-547" font-family="Helvetica,sans-Serif" font-size="10.00">TPCReconstruction/Digital</text>
<text text-anchor="middle" x="231" y="-536" font-family="Helvetica,sans-Serif" font-size="10.00">CurrentClusterIntegrator.h</text>
</a>
</g>
</g>
<!-- Node1&#45;&gt;Node3 -->
<g id="edge2" class="edge"><title>Node1&#45;&gt;Node3</title>
<path fill="none" stroke="midnightblue" d="M231,-596.466C231,-587.502 231,-577.822 231,-569.302"/>
<polygon fill="midnightblue" stroke="midnightblue" points="234.5,-569.272 231,-559.272 227.5,-569.272 234.5,-569.272"/>
</g>
<!-- Node5 -->
<g id="node5" class="node"><title>Node5</title>
<g id="a_node5"><a xlink:href="../../de/dcd/ClusterNative_8h.html" target="_top" xlink:title="Class of a TPC cluster in TPC&#45;native coordinates (row, time) ">
<polygon fill="none" stroke="black" points="-0.5,-472.5 -0.5,-491.5 164.5,-491.5 164.5,-472.5 -0.5,-472.5"/>
<text text-anchor="middle" x="82" y="-479.5" font-family="Helvetica,sans-Serif" font-size="10.00">DataFormatsTPC/ClusterNative.h</text>
</a>
</g>
</g>
<!-- Node1&#45;&gt;Node5 -->
<g id="edge58" class="edge"><title>Node1&#45;&gt;Node5</title>
<path fill="none" stroke="midnightblue" d="M194.834,-596.286C182.027,-585.105 167.661,-572.211 155,-560 133.999,-539.746 111.04,-515.078 96.5858,-499.213"/>
<polygon fill="midnightblue" stroke="midnightblue" points="99.1661,-496.848 89.8576,-491.788 93.9791,-501.548 99.1661,-496.848"/>
</g>
<!-- Node3&#45;&gt;Node2 -->
<g id="edge3" class="edge"><title>Node3&#45;&gt;Node2</title>
<path fill="none" stroke="midnightblue" d="M233.367,-528.934C236.152,-514.271 241.503,-490.844 250,-472 264.411,-440.04 288.444,-406.899 303.47,-387.652"/>
<polygon fill="midnightblue" stroke="midnightblue" points="306.376,-389.62 309.857,-379.613 300.896,-385.266 306.376,-389.62"/>
</g>
<!-- Node4 -->
<g id="node4" class="node"><title>Node4</title>
<polygon fill="none" stroke="#bfbfbf" points="259,-472.5 259,-491.5 311,-491.5 311,-472.5 259,-472.5"/>
<text text-anchor="middle" x="285" y="-479.5" font-family="Helvetica,sans-Serif" font-size="10.00">memory</text>
</g>
<!-- Node3&#45;&gt;Node4 -->
<g id="edge4" class="edge"><title>Node3&#45;&gt;Node4</title>
<path fill="none" stroke="midnightblue" d="M243.797,-528.781C251.725,-519.972 261.936,-508.626 270.21,-499.433"/>
<polygon fill="midnightblue" stroke="midnightblue" points="273.054,-501.505 277.143,-491.731 267.851,-496.822 273.054,-501.505"/>
</g>
<!-- Node3&#45;&gt;Node5 -->
<g id="edge5" class="edge"><title>Node3&#45;&gt;Node5</title>
<path fill="none" stroke="midnightblue" d="M196.066,-528.933C170.816,-518.765 137.023,-505.157 112.784,-495.396"/>
<polygon fill="midnightblue" stroke="midnightblue" points="113.94,-492.089 103.357,-491.6 111.325,-498.582 113.94,-492.089"/>
</g>
<!-- Node6 -->
<g id="node6" class="node"><title>Node6</title>
<g id="a_node6"><a xlink:href="../../d6/d51/TPC_2base_2include_2TPCBase_2Constants_8h.html" target="_top" xlink:title="TPCBase/Constants.h">
<polygon fill="none" stroke="black" points="135,-192.5 135,-211.5 251,-211.5 251,-192.5 135,-192.5"/>
<text text-anchor="middle" x="193" y="-199.5" font-family="Helvetica,sans-Serif" font-size="10.00">TPCBase/Constants.h</text>
</a>
</g>
</g>
<!-- Node3&#45;&gt;Node6 -->
<g id="edge8" class="edge"><title>Node3&#45;&gt;Node6</title>
<path fill="none" stroke="midnightblue" d="M223.126,-528.841C211.996,-507.463 193,-465.357 193,-427 193,-427 193,-427 193,-313 193,-280.948 193,-243.643 193,-221.749"/>
<polygon fill="midnightblue" stroke="midnightblue" points="196.5,-221.558 193,-211.558 189.5,-221.558 196.5,-221.558"/>
</g>
<!-- Node7 -->
<g id="node7" class="node"><title>Node7</title>
<g id="a_node7"><a xlink:href="../../d7/d2c/Mapper_8h.html" target="_top" xlink:title="TPCBase/Mapper.h">
<polygon fill="none" stroke="black" points="777.5,-472.5 777.5,-491.5 880.5,-491.5 880.5,-472.5 777.5,-472.5"/>
<text text-anchor="middle" x="829" y="-479.5" font-family="Helvetica,sans-Serif" font-size="10.00">TPCBase/Mapper.h</text>
</a>
</g>
</g>
<!-- Node3&#45;&gt;Node7 -->
<g id="edge9" class="edge"><title>Node3&#45;&gt;Node7</title>
<path fill="none" stroke="midnightblue" d="M298.146,-536.263C415.019,-524.537 654.137,-500.545 767.177,-489.203"/>
<polygon fill="midnightblue" stroke="midnightblue" points="767.787,-492.659 777.387,-488.179 767.088,-485.694 767.787,-492.659"/>
</g>
<!-- Node5&#45;&gt;Node2 -->
<g id="edge6" class="edge"><title>Node5&#45;&gt;Node2</title>
<path fill="none" stroke="midnightblue" d="M100.44,-472.368C141.538,-453.131 240.843,-406.648 289.374,-383.931"/>
<polygon fill="midnightblue" stroke="midnightblue" points="291.073,-387.001 298.646,-379.591 288.105,-380.661 291.073,-387.001"/>
</g>
<!-- Node5&#45;&gt;Node6 -->
<g id="edge7" class="edge"><title>Node5&#45;&gt;Node6</title>
<path fill="none" stroke="midnightblue" d="M86.99,-472.49C97.0894,-454.436 119,-410.693 119,-371 119,-371 119,-371 119,-313 119,-273.61 152.07,-237.726 173.996,-218.264"/>
<polygon fill="midnightblue" stroke="midnightblue" points="176.427,-220.79 181.761,-211.636 171.883,-215.466 176.427,-220.79"/>
</g>
<!-- Node7&#45;&gt;Node2 -->
<g id="edge11" class="edge"><title>Node7&#45;&gt;Node2</title>
<path fill="none" stroke="midnightblue" d="M777.462,-479.95C675.878,-477.205 453.692,-467.664 385,-436 361.691,-425.256 341.374,-403.207 329.159,-387.782"/>
<polygon fill="midnightblue" stroke="midnightblue" points="331.78,-385.446 322.943,-379.602 326.206,-389.681 331.78,-385.446"/>
</g>
<!-- Node8 -->
<g id="node8" class="node"><title>Node8</title>
<polygon fill="none" stroke="#bfbfbf" points="1059.5,-416.5 1059.5,-435.5 1094.5,-435.5 1094.5,-416.5 1059.5,-416.5"/>
<text text-anchor="middle" x="1077" y="-423.5" font-family="Helvetica,sans-Serif" font-size="10.00">map</text>
</g>
<!-- Node7&#45;&gt;Node8 -->
<g id="edge10" class="edge"><title>Node7&#45;&gt;Node8</title>
<path fill="none" stroke="midnightblue" d="M874.715,-472.424C918.576,-463.972 986.581,-450.282 1045,-436 1046.47,-435.64 1047.98,-435.26 1049.5,-434.866"/>
<polygon fill="midnightblue" stroke="midnightblue" points="1050.71,-438.162 1059.45,-432.17 1048.88,-431.406 1050.71,-438.162"/>
</g>
<!-- Node9 -->
<g id="node9" class="node"><title>Node9</title>
<polygon fill="none" stroke="#bfbfbf" points="1113,-416.5 1113,-435.5 1151,-435.5 1151,-416.5 1113,-416.5"/>
<text text-anchor="middle" x="1132" y="-423.5" font-family="Helvetica,sans-Serif" font-size="10.00">array</text>
</g>
<!-- Node7&#45;&gt;Node9 -->
<g id="edge12" class="edge"><title>Node7&#45;&gt;Node9</title>
<path fill="none" stroke="midnightblue" d="M880.677,-474.68C936.077,-467.403 1026.41,-454.083 1103,-436 1103.1,-435.977 1103.2,-435.953 1103.3,-435.929"/>
<polygon fill="midnightblue" stroke="midnightblue" points="1104.02,-439.361 1112.76,-433.378 1102.19,-432.602 1104.02,-439.361"/>
</g>
<!-- Node10 -->
<g id="node10" class="node"><title>Node10</title>
<polygon fill="none" stroke="#bfbfbf" points="427.5,-416.5 427.5,-435.5 468.5,-435.5 468.5,-416.5 427.5,-416.5"/>
<text text-anchor="middle" x="448" y="-423.5" font-family="Helvetica,sans-Serif" font-size="10.00">string</text>
</g>
<!-- Node7&#45;&gt;Node10 -->
<g id="edge13" class="edge"><title>Node7&#45;&gt;Node10</title>
<path fill="none" stroke="midnightblue" d="M777.223,-477.214C710.183,-471.687 589.677,-459.634 478.804,-436.091"/>
<polygon fill="midnightblue" stroke="midnightblue" points="479.307,-432.619 468.794,-433.928 477.829,-439.461 479.307,-432.619"/>
</g>
<!-- Node11 -->
<g id="node11" class="node"><title>Node11</title>
<polygon fill="none" stroke="#bfbfbf" points="1092,-136.5 1092,-155.5 1136,-155.5 1136,-136.5 1092,-136.5"/>
<text text-anchor="middle" x="1114" y="-143.5" font-family="Helvetica,sans-Serif" font-size="10.00">cmath</text>
</g>
<!-- Node7&#45;&gt;Node11 -->
<g id="edge14" class="edge"><title>Node7&#45;&gt;Node11</title>
<path fill="none" stroke="midnightblue" d="M880.542,-480.639C962.914,-478.998 1119.13,-471.188 1160,-436 1182.81,-416.364 1179,-401.098 1179,-371 1179,-371 1179,-371 1179,-257 1179,-219.178 1150.16,-182.94 1130.91,-162.955"/>
<polygon fill="midnightblue" stroke="midnightblue" points="1133.14,-160.243 1123.59,-155.659 1128.2,-165.199 1133.14,-160.243"/>
</g>
<!-- Node12 -->
<g id="node12" class="node"><title>Node12</title>
<g id="a_node12"><a xlink:href="../../d1/d73/Defs_8h.html" target="_top" xlink:title="Common definitions for 2D coordinates. ">
<polygon fill="none" stroke="black" points="902,-192.5 902,-211.5 994,-211.5 994,-192.5 902,-192.5"/>
<text text-anchor="middle" x="948" y="-199.5" font-family="Helvetica,sans-Serif" font-size="10.00">TPCBase/Defs.h</text>
</a>
</g>
</g>
<!-- Node7&#45;&gt;Node12 -->
<g id="edge15" class="edge"><title>Node7&#45;&gt;Node12</title>
<path fill="none" stroke="midnightblue" d="M867.396,-472.487C934.806,-456.616 1069.54,-420.428 1093,-380 1124.57,-325.603 1091.9,-286.278 1042,-248 1023.91,-234.122 1000.85,-223.002 982.094,-215.288"/>
<polygon fill="midnightblue" stroke="midnightblue" points="983.315,-212.007 972.729,-211.568 980.731,-218.512 983.315,-212.007"/>
</g>
<!-- Node25 -->
<g id="node25" class="node"><title>Node25</title>
<g id="a_node25"><a xlink:href="../../de/d41/PadPos_8h.html" target="_top" xlink:title="TPCBase/PadPos.h">
<polygon fill="none" stroke="black" points="701.5,-304.5 701.5,-323.5 806.5,-323.5 806.5,-304.5 701.5,-304.5"/>
<text text-anchor="middle" x="754" y="-311.5" font-family="Helvetica,sans-Serif" font-size="10.00">TPCBase/PadPos.h</text>
</a>
</g>
</g>
<!-- Node7&#45;&gt;Node25 -->
<g id="edge30" class="edge"><title>Node7&#45;&gt;Node25</title>
<path fill="none" stroke="midnightblue" d="M824.968,-472.075C813.111,-445.832 778.192,-368.545 762.185,-333.117"/>
<polygon fill="midnightblue" stroke="midnightblue" points="765.178,-331.24 757.871,-323.568 758.799,-334.122 765.178,-331.24"/>
</g>
<!-- Node26 -->
<g id="node26" class="node"><title>Node26</title>
<g id="a_node26"><a xlink:href="../../dd/d0b/PadSecPos_8h.html" target="_top" xlink:title="TPCBase/PadSecPos.h">
<polygon fill="none" stroke="black" points="610,-360.5 610,-379.5 732,-379.5 732,-360.5 610,-360.5"/>
<text text-anchor="middle" x="671" y="-367.5" font-family="Helvetica,sans-Serif" font-size="10.00">TPCBase/PadSecPos.h</text>
</a>
</g>
</g>
<!-- Node7&#45;&gt;Node26 -->
<g id="edge31" class="edge"><title>Node7&#45;&gt;Node26</title>
<path fill="none" stroke="midnightblue" d="M823.143,-472.372C813.588,-458.833 793.444,-432.452 771,-416 751.691,-401.846 727.222,-390.739 707.322,-383.101"/>
<polygon fill="midnightblue" stroke="midnightblue" points="708.266,-379.719 697.673,-379.529 705.836,-386.283 708.266,-379.719"/>
</g>
<!-- Node27 -->
<g id="node27" class="node"><title>Node27</title>
<g id="a_node27"><a xlink:href="../../d3/dd6/Sector_8h.html" target="_top" xlink:title="TPCBase/Sector.h">
<polygon fill="none" stroke="black" points="683.5,-248.5 683.5,-267.5 782.5,-267.5 782.5,-248.5 683.5,-248.5"/>
<text text-anchor="middle" x="733" y="-255.5" font-family="Helvetica,sans-Serif" font-size="10.00">TPCBase/Sector.h</text>
</a>
</g>
</g>
<!-- Node7&#45;&gt;Node27 -->
<g id="edge57" class="edge"><title>Node7&#45;&gt;Node27</title>
<path fill="none" stroke="midnightblue" d="M777.331,-479.126C672.263,-474.781 441.598,-462.323 418,-436 336.504,-345.094 560.991,-290.107 673.314,-268.967"/>
<polygon fill="midnightblue" stroke="midnightblue" points="673.969,-272.405 683.166,-267.145 672.696,-265.522 673.969,-272.405"/>
</g>
<!-- Node28 -->
<g id="node28" class="node"><title>Node28</title>
<g id="a_node28"><a xlink:href="../../da/d61/PadROCPos_8h.html" target="_top" xlink:title="TPCBase/PadROCPos.h">
<polygon fill="none" stroke="black" points="938,-360.5 938,-379.5 1066,-379.5 1066,-360.5 938,-360.5"/>
<text text-anchor="middle" x="1002" y="-367.5" font-family="Helvetica,sans-Serif" font-size="10.00">TPCBase/PadROCPos.h</text>
</a>
</g>
</g>
<!-- Node7&#45;&gt;Node28 -->
<g id="edge36" class="edge"><title>Node7&#45;&gt;Node28</title>
<path fill="none" stroke="midnightblue" d="M880.589,-475.806C910.96,-470.333 948.327,-459.09 974,-436 987.395,-423.952 994.631,-404.382 998.37,-389.859"/>
<polygon fill="midnightblue" stroke="midnightblue" points="1001.82,-390.468 1000.59,-379.945 994.989,-388.938 1001.82,-390.468"/>
</g>
<!-- Node30 -->
<g id="node30" class="node"><title>Node30</title>
<g id="a_node30"><a xlink:href="../../d3/d54/DigitPos_8h.html" target="_top" xlink:title="TPCBase/DigitPos.h">
<polygon fill="none" stroke="black" points="857,-416.5 857,-435.5 965,-435.5 965,-416.5 857,-416.5"/>
<text text-anchor="middle" x="911" y="-423.5" font-family="Helvetica,sans-Serif" font-size="10.00">TPCBase/DigitPos.h</text>
</a>
</g>
</g>
<!-- Node7&#45;&gt;Node30 -->
<g id="edge42" class="edge"><title>Node7&#45;&gt;Node30</title>
<path fill="none" stroke="midnightblue" d="M842.175,-472.324C854.847,-463.979 874.233,-451.212 889.206,-441.352"/>
<polygon fill="midnightblue" stroke="midnightblue" points="891.431,-444.078 897.858,-435.655 887.581,-438.231 891.431,-444.078"/>
</g>
<!-- Node32 -->
<g id="node32" class="node"><title>Node32</title>
<g id="a_node32"><a xlink:href="../../d1/d1f/FECInfo_8h.html" target="_top" xlink:title="TPCBase/FECInfo.h">
<polygon fill="none" stroke="black" points="1378.5,-248.5 1378.5,-267.5 1485.5,-267.5 1485.5,-248.5 1378.5,-248.5"/>
<text text-anchor="middle" x="1432" y="-255.5" font-family="Helvetica,sans-Serif" font-size="10.00">TPCBase/FECInfo.h</text>
</a>
</g>
</g>
<!-- Node7&#45;&gt;Node32 -->
<g id="edge50" class="edge"><title>Node7&#45;&gt;Node32</title>
<path fill="none" stroke="midnightblue" d="M880.639,-477.864C967.165,-472.07 1137.42,-458.214 1193,-436 1289.28,-397.519 1381.57,-310.497 1416.89,-274.766"/>
<polygon fill="midnightblue" stroke="midnightblue" points="1419.42,-277.183 1423.9,-267.582 1414.41,-272.293 1419.42,-277.183"/>
</g>
<!-- Node33 -->
<g id="node33" class="node"><title>Node33</title>
<g id="a_node33"><a xlink:href="../../da/d9d/PadRegionInfo_8h.html" target="_top" xlink:title="TPCBase/PadRegionInfo.h">
<polygon fill="none" stroke="black" points="627.5,-416.5 627.5,-435.5 762.5,-435.5 762.5,-416.5 627.5,-416.5"/>
<text text-anchor="middle" x="695" y="-423.5" font-family="Helvetica,sans-Serif" font-size="10.00">TPCBase/PadRegionInfo.h</text>
</a>
</g>
</g>
<!-- Node7&#45;&gt;Node33 -->
<g id="edge52" class="edge"><title>Node7&#45;&gt;Node33</title>
<path fill="none" stroke="midnightblue" d="M807.767,-472.444C785.616,-463.517 750.681,-449.439 725.564,-439.317"/>
<polygon fill="midnightblue" stroke="midnightblue" points="726.717,-436.008 716.133,-435.516 724.1,-442.501 726.717,-436.008"/>
</g>
<!-- Node34 -->
<g id="node34" class="node"><title>Node34</title>
<g id="a_node34"><a xlink:href="../../d6/d42/PartitionInfo_8h.html" target="_top" xlink:title="TPCBase/PartitionInfo.h">
<polygon fill="none" stroke="black" points="486.5,-416.5 486.5,-435.5 609.5,-435.5 609.5,-416.5 486.5,-416.5"/>
<text text-anchor="middle" x="548" y="-423.5" font-family="Helvetica,sans-Serif" font-size="10.00">TPCBase/PartitionInfo.h</text>
</a>
</g>
</g>
<!-- Node7&#45;&gt;Node34 -->
<g id="edge56" class="edge"><title>Node7&#45;&gt;Node34</title>
<path fill="none" stroke="midnightblue" d="M784.475,-472.444C735.044,-462.944 655.254,-447.611 602.222,-437.42"/>
<polygon fill="midnightblue" stroke="midnightblue" points="602.798,-433.967 592.317,-435.516 601.477,-440.841 602.798,-433.967"/>
</g>
<!-- Node12&#45;&gt;Node11 -->
<g id="edge16" class="edge"><title>Node12&#45;&gt;Node11</title>
<path fill="none" stroke="midnightblue" d="M974.303,-192.444C1003.59,-182.917 1050.91,-167.523 1082.24,-157.332"/>
<polygon fill="midnightblue" stroke="midnightblue" points="1083.38,-160.642 1091.8,-154.22 1081.21,-153.986 1083.38,-160.642"/>
</g>
<!-- Node13 -->
<g id="node13" class="node"><title>Node13</title>
<g id="a_node13"><a xlink:href="../../d2/dd0/Cartesian2D_8h.html" target="_top" xlink:title="MathUtils/Cartesian2D.h">
<polygon fill="none" stroke="black" points="382.5,-74.5 382.5,-93.5 507.5,-93.5 507.5,-74.5 382.5,-74.5"/>
<text text-anchor="middle" x="445" y="-81.5" font-family="Helvetica,sans-Serif" font-size="10.00">MathUtils/Cartesian2D.h</text>
</a>
</g>
</g>
<!-- Node12&#45;&gt;Node13 -->
<g id="edge17" class="edge"><title>Node12&#45;&gt;Node13</title>
<path fill="none" stroke="midnightblue" d="M911.013,-192.47C821.082,-171.731 591.082,-118.689 491.797,-95.7921"/>
<polygon fill="midnightblue" stroke="midnightblue" points="492.572,-92.379 482.041,-93.5423 490.999,-99.2 492.572,-92.379"/>
</g>
<!-- Node16 -->
<g id="node16" class="node"><title>Node16</title>
<g id="a_node16"><a xlink:href="../../dd/d76/Cartesian3D_8h.html" target="_top" xlink:title="MathUtils/Cartesian3D.h">
<polygon fill="none" stroke="black" points="885.5,-136.5 885.5,-155.5 1010.5,-155.5 1010.5,-136.5 885.5,-136.5"/>
<text text-anchor="middle" x="948" y="-143.5" font-family="Helvetica,sans-Serif" font-size="10.00">MathUtils/Cartesian3D.h</text>
</a>
</g>
</g>
<!-- Node12&#45;&gt;Node16 -->
<g id="edge20" class="edge"><title>Node12&#45;&gt;Node16</title>
<path fill="none" stroke="midnightblue" d="M948,-192.083C948,-185.006 948,-174.861 948,-165.986"/>
<polygon fill="midnightblue" stroke="midnightblue" points="951.5,-165.751 948,-155.751 944.5,-165.751 951.5,-165.751"/>
</g>
<!-- Node14 -->
<g id="node14" class="node"><title>Node14</title>
<polygon fill="none" stroke="#bfbfbf" points="278.5,-1 278.5,-31 429.5,-31 429.5,-1 278.5,-1"/>
<text text-anchor="start" x="286.5" y="-19" font-family="Helvetica,sans-Serif" font-size="10.00">Math/GenVector/Displacement</text>
<text text-anchor="middle" x="354" y="-8" font-family="Helvetica,sans-Serif" font-size="10.00">Vector2D.h</text>
</g>
<!-- Node13&#45;&gt;Node14 -->
<g id="edge18" class="edge"><title>Node13&#45;&gt;Node14</title>
<path fill="none" stroke="midnightblue" d="M433.103,-74.3717C420.221,-65.0286 399.22,-49.7966 382.093,-37.375"/>
<polygon fill="midnightblue" stroke="midnightblue" points="383.703,-34.2194 373.553,-31.1815 379.593,-39.8859 383.703,-34.2194"/>
</g>
<!-- Node15 -->
<g id="node15" class="node"><title>Node15</title>
<polygon fill="none" stroke="#bfbfbf" points="448,-6.5 448,-25.5 624,-25.5 624,-6.5 448,-6.5"/>
<text text-anchor="middle" x="536" y="-13.5" font-family="Helvetica,sans-Serif" font-size="10.00">Math/GenVector/PositionVector2D.h</text>
</g>
<!-- Node13&#45;&gt;Node15 -->
<g id="edge19" class="edge"><title>Node13&#45;&gt;Node15</title>
<path fill="none" stroke="midnightblue" d="M456.897,-74.3717C471.884,-63.5015 497.862,-44.6602 515.942,-31.5474"/>
<polygon fill="midnightblue" stroke="midnightblue" points="518.06,-34.3349 524.1,-25.6305 513.95,-28.6684 518.06,-34.3349"/>
</g>
<!-- Node16&#45;&gt;Node13 -->
<g id="edge28" class="edge"><title>Node16&#45;&gt;Node13</title>
<path fill="none" stroke="midnightblue" d="M885.289,-140.457C801.165,-133.906 647.271,-120.317 517,-100 508.928,-98.7411 500.393,-97.1744 492.131,-95.5325"/>
<polygon fill="midnightblue" stroke="midnightblue" points="492.737,-92.0839 482.238,-93.508 491.333,-98.9418 492.737,-92.0839"/>
</g>
<!-- Node17 -->
<g id="node17" class="node"><title>Node17</title>
<polygon fill="none" stroke="#bfbfbf" points="1235.5,-74.5 1235.5,-93.5 1384.5,-93.5 1384.5,-74.5 1235.5,-74.5"/>
<text text-anchor="middle" x="1310" y="-81.5" font-family="Helvetica,sans-Serif" font-size="10.00">Math/GenVector/Rotation3D.h</text>
</g>
<!-- Node16&#45;&gt;Node17 -->
<g id="edge21" class="edge"><title>Node16&#45;&gt;Node17</title>
<path fill="none" stroke="midnightblue" d="M1002.38,-136.465C1058.45,-127.602 1148.4,-113.208 1226,-100 1234.7,-98.519 1243.9,-96.915 1252.9,-95.3253"/>
<polygon fill="midnightblue" stroke="midnightblue" points="1253.7,-98.7383 1262.93,-93.544 1252.47,-91.8461 1253.7,-98.7383"/>
</g>
<!-- Node18 -->
<g id="node18" class="node"><title>Node18</title>
<polygon fill="none" stroke="#bfbfbf" points="1403,-74.5 1403,-93.5 1559,-93.5 1559,-74.5 1403,-74.5"/>
<text text-anchor="middle" x="1481" y="-81.5" font-family="Helvetica,sans-Serif" font-size="10.00">Math/GenVector/Transform3D.h</text>
</g>
<!-- Node16&#45;&gt;Node18 -->
<g id="edge22" class="edge"><title>Node16&#45;&gt;Node18</title>
<path fill="none" stroke="midnightblue" d="M1010.8,-140.005C1097.12,-132.831 1257.19,-118.42 1393,-100 1403.24,-98.6109 1414.12,-96.9277 1424.61,-95.1978"/>
<polygon fill="midnightblue" stroke="midnightblue" points="1425.23,-98.6427 1434.51,-93.533 1424.07,-91.7396 1425.23,-98.6427"/>
</g>
<!-- Node19 -->
<g id="node19" class="node"><title>Node19</title>
<polygon fill="none" stroke="#bfbfbf" points="526,-74.5 526,-93.5 686,-93.5 686,-74.5 526,-74.5"/>
<text text-anchor="middle" x="606" y="-81.5" font-family="Helvetica,sans-Serif" font-size="10.00">Math/GenVector/Translation3D.h</text>
</g>
<!-- Node16&#45;&gt;Node19 -->
<g id="edge23" class="edge"><title>Node16&#45;&gt;Node19</title>
<path fill="none" stroke="midnightblue" d="M899.363,-136.467C837.443,-125.604 730.573,-106.855 664.337,-95.2346"/>
<polygon fill="midnightblue" stroke="midnightblue" points="664.924,-91.7841 654.469,-93.5034 663.714,-98.6788 664.924,-91.7841"/>
</g>
<!-- Node20 -->
<g id="node20" class="node"><title>Node20</title>
<polygon fill="none" stroke="#bfbfbf" points="704,-74.5 704,-93.5 760,-93.5 760,-74.5 704,-74.5"/>
<text text-anchor="middle" x="732" y="-81.5" font-family="Helvetica,sans-Serif" font-size="10.00">Rtypes.h</text>
</g>
<!-- Node16&#45;&gt;Node20 -->
<g id="edge24" class="edge"><title>Node16&#45;&gt;Node20</title>
<path fill="none" stroke="midnightblue" d="M907.378,-136.48C870.797,-128.409 815.755,-115.273 769,-100 766.432,-99.1613 763.789,-98.2304 761.153,-97.2547"/>
<polygon fill="midnightblue" stroke="midnightblue" points="762.371,-93.9732 751.782,-93.6103 759.834,-100.497 762.371,-93.9732"/>
</g>
<!-- Node21 -->
<g id="node21" class="node"><title>Node21</title>
<polygon fill="none" stroke="#bfbfbf" points="778,-74.5 778,-93.5 854,-93.5 854,-74.5 778,-74.5"/>
<text text-anchor="middle" x="816" y="-81.5" font-family="Helvetica,sans-Serif" font-size="10.00">TGeoMatrix.h</text>
</g>
<!-- Node16&#45;&gt;Node21 -->
<g id="edge25" class="edge"><title>Node16&#45;&gt;Node21</title>
<path fill="none" stroke="midnightblue" d="M929.088,-136.403C906.837,-126.29 869.688,-109.404 844.074,-97.761"/>
<polygon fill="midnightblue" stroke="midnightblue" points="845.429,-94.5324 834.877,-93.5806 842.533,-100.905 845.429,-94.5324"/>
</g>
<!-- Node22 -->
<g id="node22" class="node"><title>Node22</title>
<polygon fill="none" stroke="#bfbfbf" points="872.5,-69 872.5,-99 1023.5,-99 1023.5,-69 872.5,-69"/>
<text text-anchor="start" x="880.5" y="-87" font-family="Helvetica,sans-Serif" font-size="10.00">Math/GenVector/Displacement</text>
<text text-anchor="middle" x="948" y="-76" font-family="Helvetica,sans-Serif" font-size="10.00">Vector3D.h</text>
</g>
<!-- Node16&#45;&gt;Node22 -->
<g id="edge26" class="edge"><title>Node16&#45;&gt;Node22</title>
<path fill="none" stroke="midnightblue" d="M948,-136.403C948,-129.341 948,-118.975 948,-109.399"/>
<polygon fill="midnightblue" stroke="midnightblue" points="951.5,-109.141 948,-99.1408 944.5,-109.141 951.5,-109.141"/>
</g>
<!-- Node23 -->
<g id="node23" class="node"><title>Node23</title>
<polygon fill="none" stroke="#bfbfbf" points="1042,-74.5 1042,-93.5 1218,-93.5 1218,-74.5 1042,-74.5"/>
<text text-anchor="middle" x="1130" y="-81.5" font-family="Helvetica,sans-Serif" font-size="10.00">Math/GenVector/PositionVector3D.h</text>
</g>
<!-- Node16&#45;&gt;Node23 -->
<g id="edge27" class="edge"><title>Node16&#45;&gt;Node23</title>
<path fill="none" stroke="midnightblue" d="M974.076,-136.403C1005.57,-126.022 1058.7,-108.506 1094.06,-96.849"/>
<polygon fill="midnightblue" stroke="midnightblue" points="1095.57,-100.036 1103.97,-93.5806 1093.38,-93.3876 1095.57,-100.036"/>
</g>
<!-- Node24 -->
<g id="node24" class="node"><title>Node24</title>
<polygon fill="none" stroke="#bfbfbf" points="1577,-74.5 1577,-93.5 1631,-93.5 1631,-74.5 1577,-74.5"/>
<text text-anchor="middle" x="1604" y="-81.5" font-family="Helvetica,sans-Serif" font-size="10.00">iostream</text>
</g>
<!-- Node16&#45;&gt;Node24 -->
<g id="edge29" class="edge"><title>Node16&#45;&gt;Node24</title>
<path fill="none" stroke="midnightblue" d="M1010.7,-140.715C1165.54,-130.099 1554.56,-103.199 1568,-100 1571,-99.2863 1574.07,-98.352 1577.09,-97.2981"/>
<polygon fill="midnightblue" stroke="midnightblue" points="1578.39,-100.547 1586.44,-93.6479 1575.85,-94.0272 1578.39,-100.547"/>
</g>
<!-- Node26&#45;&gt;Node25 -->
<g id="edge35" class="edge"><title>Node26&#45;&gt;Node25</title>
<path fill="none" stroke="midnightblue" d="M684.335,-360.324C697.162,-351.979 716.785,-339.212 731.94,-329.352"/>
<polygon fill="midnightblue" stroke="midnightblue" points="734.224,-332.042 740.698,-323.655 730.407,-326.174 734.224,-332.042"/>
</g>
<!-- Node26&#45;&gt;Node27 -->
<g id="edge32" class="edge"><title>Node26&#45;&gt;Node27</title>
<path fill="none" stroke="midnightblue" d="M672.621,-360.097C675.258,-347.098 681.288,-322.464 692,-304 698.205,-293.304 707.303,-282.985 715.352,-274.933"/>
<polygon fill="midnightblue" stroke="midnightblue" points="718.1,-277.148 722.907,-267.707 713.261,-272.09 718.1,-277.148"/>
</g>
<!-- Node27&#45;&gt;Node6 -->
<g id="edge33" class="edge"><title>Node27&#45;&gt;Node6</title>
<path fill="none" stroke="midnightblue" d="M683.166,-252.017C586.067,-242.307 371.421,-220.842 261.215,-209.822"/>
<polygon fill="midnightblue" stroke="midnightblue" points="261.505,-206.333 251.206,-208.821 260.808,-213.298 261.505,-206.333"/>
</g>
<!-- Node27&#45;&gt;Node12 -->
<g id="edge34" class="edge"><title>Node27&#45;&gt;Node12</title>
<path fill="none" stroke="midnightblue" d="M767.067,-248.444C804.18,-239.122 863.661,-224.183 904.215,-213.997"/>
<polygon fill="midnightblue" stroke="midnightblue" points="905.246,-217.347 914.092,-211.516 903.541,-210.558 905.246,-217.347"/>
</g>
<!-- Node28&#45;&gt;Node12 -->
<g id="edge37" class="edge"><title>Node28&#45;&gt;Node12</title>
<path fill="none" stroke="midnightblue" d="M1003.54,-360.42C1005.48,-347.824 1008.01,-323.687 1003,-304 994.829,-271.908 974.159,-239.005 960.616,-219.812"/>
<polygon fill="midnightblue" stroke="midnightblue" points="963.331,-217.594 954.626,-211.555 957.665,-221.705 963.331,-217.594"/>
</g>
<!-- Node28&#45;&gt;Node25 -->
<g id="edge41" class="edge"><title>Node28&#45;&gt;Node25</title>
<path fill="none" stroke="midnightblue" d="M962.704,-360.444C919.441,-351.023 849.827,-335.866 803.027,-325.675"/>
<polygon fill="midnightblue" stroke="midnightblue" points="803.628,-322.224 793.112,-323.516 802.139,-329.064 803.628,-322.224"/>
</g>
<!-- Node29 -->
<g id="node29" class="node"><title>Node29</title>
<g id="a_node29"><a xlink:href="../../dc/d14/ROC_8h.html" target="_top" xlink:title="TPCBase/ROC.h">
<polygon fill="none" stroke="black" points="901.5,-304.5 901.5,-323.5 994.5,-323.5 994.5,-304.5 901.5,-304.5"/>
<text text-anchor="middle" x="948" y="-311.5" font-family="Helvetica,sans-Serif" font-size="10.00">TPCBase/ROC.h</text>
</a>
</g>
</g>
<!-- Node28&#45;&gt;Node29 -->
<g id="edge38" class="edge"><title>Node28&#45;&gt;Node29</title>
<path fill="none" stroke="midnightblue" d="M993.083,-360.083C985.22,-352.22 973.569,-340.569 964.081,-331.081"/>
<polygon fill="midnightblue" stroke="midnightblue" points="966.297,-328.347 956.751,-323.751 961.347,-333.297 966.297,-328.347"/>
</g>
<!-- Node29&#45;&gt;Node12 -->
<g id="edge39" class="edge"><title>Node29&#45;&gt;Node12</title>
<path fill="none" stroke="midnightblue" d="M948,-304.368C948,-286.617 948,-245.666 948,-221.597"/>
<polygon fill="midnightblue" stroke="midnightblue" points="951.5,-221.591 948,-211.591 944.5,-221.591 951.5,-221.591"/>
</g>
<!-- Node29&#45;&gt;Node27 -->
<g id="edge40" class="edge"><title>Node29&#45;&gt;Node27</title>
<path fill="none" stroke="midnightblue" d="M913.933,-304.444C876.82,-295.122 817.339,-280.183 776.785,-269.997"/>
<polygon fill="midnightblue" stroke="midnightblue" points="777.459,-266.558 766.908,-267.516 775.754,-273.347 777.459,-266.558"/>
</g>
<!-- Node30&#45;&gt;Node12 -->
<g id="edge43" class="edge"><title>Node30&#45;&gt;Node12</title>
<path fill="none" stroke="midnightblue" d="M965.161,-417.3C1007.58,-410.031 1061.57,-397.608 1075,-380 1120.46,-320.385 1019.37,-246.969 971.432,-216.867"/>
<polygon fill="midnightblue" stroke="midnightblue" points="973.229,-213.864 962.879,-211.602 969.56,-219.825 973.229,-213.864"/>
</g>
<!-- Node30&#45;&gt;Node25 -->
<g id="edge48" class="edge"><title>Node30&#45;&gt;Node25</title>
<path fill="none" stroke="midnightblue" d="M887.328,-416.397C867.515,-408.577 839.029,-395.852 817,-380 797.563,-366.013 778.945,-345.649 767.057,-331.454"/>
<polygon fill="midnightblue" stroke="midnightblue" points="769.615,-329.053 760.577,-323.525 764.195,-333.483 769.615,-329.053"/>
</g>
<!-- Node30&#45;&gt;Node26 -->
<g id="edge49" class="edge"><title>Node30&#45;&gt;Node26</title>
<path fill="none" stroke="midnightblue" d="M872.971,-416.444C831.192,-407.043 764.018,-391.929 718.73,-381.739"/>
<polygon fill="midnightblue" stroke="midnightblue" points="719.375,-378.297 708.851,-379.516 717.839,-385.126 719.375,-378.297"/>
</g>
<!-- Node31 -->
<g id="node31" class="node"><title>Node31</title>
<g id="a_node31"><a xlink:href="../../df/d26/CRU_8h.html" target="_top" xlink:title="TPCBase/CRU.h">
<polygon fill="none" stroke="black" points="826.5,-360.5 826.5,-379.5 919.5,-379.5 919.5,-360.5 826.5,-360.5"/>
<text text-anchor="middle" x="873" y="-367.5" font-family="Helvetica,sans-Serif" font-size="10.00">TPCBase/CRU.h</text>
</a>
</g>
</g>
<!-- Node30&#45;&gt;Node31 -->
<g id="edge44" class="edge"><title>Node30&#45;&gt;Node31</title>
<path fill="none" stroke="midnightblue" d="M904.725,-416.083C899.358,-408.455 891.482,-397.264 884.921,-387.941"/>
<polygon fill="midnightblue" stroke="midnightblue" points="887.775,-385.915 879.158,-379.751 882.051,-389.943 887.775,-385.915"/>
</g>
<!-- Node31&#45;&gt;Node12 -->
<g id="edge45" class="edge"><title>Node31&#45;&gt;Node12</title>
<path fill="none" stroke="midnightblue" d="M875.061,-360.394C878.215,-347.764 884.752,-323.586 893,-304 905.86,-273.462 925.161,-240.071 937.147,-220.36"/>
<polygon fill="midnightblue" stroke="midnightblue" points="940.266,-221.971 942.53,-211.621 934.305,-218.3 940.266,-221.971"/>
</g>
<!-- Node31&#45;&gt;Node27 -->
<g id="edge46" class="edge"><title>Node31&#45;&gt;Node27</title>
<path fill="none" stroke="midnightblue" d="M866.662,-360.142C856.768,-346.761 836.54,-321.138 815,-304 798.854,-291.153 778.535,-279.973 762.163,-271.97"/>
<polygon fill="midnightblue" stroke="midnightblue" points="763.575,-268.767 753.041,-267.637 760.571,-275.089 763.575,-268.767"/>
</g>
<!-- Node31&#45;&gt;Node29 -->
<g id="edge47" class="edge"><title>Node31&#45;&gt;Node29</title>
<path fill="none" stroke="midnightblue" d="M885.05,-360.324C896.463,-352.107 913.831,-339.602 927.435,-329.807"/>
<polygon fill="midnightblue" stroke="midnightblue" points="929.66,-332.517 935.731,-323.834 925.57,-326.837 929.66,-332.517"/>
</g>
<!-- Node32&#45;&gt;Node24 -->
<g id="edge51" class="edge"><title>Node32&#45;&gt;Node24</title>
<path fill="none" stroke="midnightblue" d="M1440.77,-248.234C1468.26,-220.74 1553.06,-135.939 1588.35,-100.654"/>
<polygon fill="midnightblue" stroke="midnightblue" points="1590.86,-103.09 1595.46,-93.5442 1585.91,-98.1404 1590.86,-103.09"/>
</g>
<!-- Node33&#45;&gt;Node2 -->
<g id="edge53" class="edge"><title>Node33&#45;&gt;Node2</title>
<path fill="none" stroke="midnightblue" d="M627.239,-417.015C542.984,-406.924 404.037,-389.705 353,-380 351.754,-379.763 350.487,-379.509 349.209,-379.243"/>
<polygon fill="midnightblue" stroke="midnightblue" points="349.907,-375.812 339.381,-377.015 348.36,-382.639 349.907,-375.812"/>
</g>
<!-- Node33&#45;&gt;Node12 -->
<g id="edge54" class="edge"><title>Node33&#45;&gt;Node12</title>
<path fill="none" stroke="midnightblue" d="M648.643,-416.467C627.925,-410.095 605.419,-399.052 593,-380 557.888,-326.132 544.549,-328.031 674,-248 709.491,-226.058 822.277,-213.214 891.591,-207.197"/>
<polygon fill="midnightblue" stroke="midnightblue" points="892.236,-210.655 901.905,-206.324 891.646,-203.68 892.236,-210.655"/>
</g>
<!-- Node33&#45;&gt;Node25 -->
<g id="edge55" class="edge"><title>Node33&#45;&gt;Node25</title>
<path fill="none" stroke="midnightblue" d="M661.308,-416.42C626.924,-405.99 581.209,-386.451 601,-360 612.268,-344.941 654.667,-333.192 691.982,-325.48"/>
<polygon fill="midnightblue" stroke="midnightblue" points="692.718,-328.903 701.838,-323.51 691.346,-322.038 692.718,-328.903"/>
</g>
</g>
</svg>
