<?xml version="1.0" encoding="UTF-8" standalone="no"?>
<!DOCTYPE svg PUBLIC "-//W3C//DTD SVG 1.1//EN"
 "http://www.w3.org/Graphics/SVG/1.1/DTD/svg11.dtd">
<!-- Generated by graphviz version 2.36.0 (20140111.2315)
 -->
<!-- Title: /home/travis/build/AliceO2Group/AliceO2/Detectors/Base/include/DetectorsBase/Propagator.h Pages: 1 -->
<!--zoomable 422 -->
<svg id="main" version="1.1" xmlns="http://www.w3.org/2000/svg" xmlns:xlink="http://www.w3.org/1999/xlink" xml:space="preserve" onload="init(evt)">
<style type="text/css"><![CDATA[
.edge:hover path { stroke: red; }
.edge:hover polygon { stroke: red; fill: red; }
]]></style>
<script type="text/javascript"><![CDATA[
var edges = document.getElementsByTagName('g');
if (edges && edges.length) {
  for (var i=0;i<edges.length;i++) {
    if (edges[i].id.substr(0,4)=='edge') {
      edges[i].setAttribute('class','edge');
    }
  }
}
]]></script>
        <defs>
                <circle id="rim" cx="0" cy="0" r="7"/>
                <circle id="rim2" cx="0" cy="0" r="3.5"/>
                <g id="zoomPlus">
                        <use xlink:href="#rim" fill="#404040">
                                <set attributeName="fill" to="#808080" begin="zoomplus.mouseover" end="zoomplus.mouseout"/>
                        </use>
                        <path d="M-4,0h8M0,-4v8" fill="none" stroke="white" stroke-width="1.5" pointer-events="none"/>
                </g>
                <g id="zoomMin">
                        <use xlink:href="#rim" fill="#404040">
                                <set attributeName="fill" to="#808080" begin="zoomminus.mouseover" end="zoomminus.mouseout"/>
                        </use>
                        <path d="M-4,0h8" fill="none" stroke="white" stroke-width="1.5" pointer-events="none"/>
                </g>
                <g id="dirArrow">
                        <path fill="none" stroke="white" stroke-width="1.5" d="M0,-3.0v7 M-2.5,-0.5L0,-3.0L2.5,-0.5"/>
                </g>
               <g id="resetDef">
                       <use xlink:href="#rim2" fill="#404040">
                               <set attributeName="fill" to="#808080" begin="reset.mouseover" end="reset.mouseout"/>
                       </use>
               </g>
        </defs>

<script type="text/javascript">
var viewWidth = 1964;
var viewHeight = 422;
var sectionId = 'dynsection-0';
</script>
<script xlink:href="../../svgpan.js"/>
<svg id="graph" class="graph">
<g id="viewport">
<title>/home/travis/build/AliceO2Group/AliceO2/Detectors/Base/include/DetectorsBase/Propagator.h</title>
<!-- Node1 -->
<g id="node1" class="node"><title>Node1</title>
<polygon fill="#bfbfbf" stroke="black" points="397.593,-361 397.593,-413 540.593,-413 540.593,-361 397.593,-361"/>
<text text-anchor="start" x="405.593" y="-401" font-family="Helvetica,sans-Serif" font-size="10.00">/home/travis/build</text>
<text text-anchor="start" x="405.593" y="-390" font-family="Helvetica,sans-Serif" font-size="10.00">/AliceO2Group/AliceO2</text>
<text text-anchor="start" x="405.593" y="-379" font-family="Helvetica,sans-Serif" font-size="10.00">/Detectors/Base/include</text>
<text text-anchor="middle" x="469.093" y="-368" font-family="Helvetica,sans-Serif" font-size="10.00">/DetectorsBase/Propagator.h</text>
</g>
<!-- Node2 -->
<g id="node2" class="node"><title>Node2</title>
<g id="a_node2"><a xlink:href="../../d3/d9d/PhysicsConstants_8h.html" target="_top" xlink:title="Header to collect physics constants. ">
<polygon fill="none" stroke="black" points="285.593,-304.5 285.593,-323.5 478.593,-323.5 478.593,-304.5 285.593,-304.5"/>
<text text-anchor="middle" x="382.093" y="-311.5" font-family="Helvetica,sans-Serif" font-size="10.00">CommonConstants/PhysicsConstants.h</text>
</a>
</g>
</g>
<!-- Node1&#45;&gt;Node2 -->
<g id="edge1" class="edge"><title>Node1&#45;&gt;Node2</title>
<path fill="none" stroke="midnightblue" d="M438.175,-360.768C425.689,-350.578 411.689,-339.153 400.8,-330.267"/>
<polygon fill="midnightblue" stroke="midnightblue" points="402.784,-327.368 392.823,-323.757 398.358,-332.791 402.784,-327.368"/>
</g>
<!-- Node3 -->
<g id="node3" class="node"><title>Node3</title>
<g id="a_node3"><a xlink:href="../../d7/d65/Detectors_2Base_2include_2DetectorsBase_2Track_8h.html" target="_top" xlink:title="DetectorsBase/Track.h">
<polygon fill="none" stroke="black" points="497.093,-304.5 497.093,-323.5 615.093,-323.5 615.093,-304.5 497.093,-304.5"/>
<text text-anchor="middle" x="556.093" y="-311.5" font-family="Helvetica,sans-Serif" font-size="10.00">DetectorsBase/Track.h</text>
</a>
</g>
</g>
<!-- Node1&#45;&gt;Node3 -->
<g id="edge2" class="edge"><title>Node1&#45;&gt;Node3</title>
<path fill="none" stroke="midnightblue" d="M500.011,-360.768C512.497,-350.578 526.497,-339.153 537.385,-330.267"/>
<polygon fill="midnightblue" stroke="midnightblue" points="539.828,-332.791 545.362,-323.757 535.402,-327.368 539.828,-332.791"/>
</g>
<!-- Node4 -->
<g id="node4" class="node"><title>Node4</title>
<polygon fill="none" stroke="#bfbfbf" points="610.093,-74.5 610.093,-93.5 666.093,-93.5 666.093,-74.5 610.093,-74.5"/>
<text text-anchor="middle" x="638.093" y="-81.5" font-family="Helvetica,sans-Serif" font-size="10.00">Rtypes.h</text>
</g>
<!-- Node3&#45;&gt;Node4 -->
<g id="edge3" class="edge"><title>Node3&#45;&gt;Node4</title>
<path fill="none" stroke="midnightblue" d="M554.807,-304.211C551.293,-277.165 543.761,-193.543 575.093,-136 583.568,-120.436 598.951,-107.842 612.394,-99.0637"/>
<polygon fill="midnightblue" stroke="midnightblue" points="614.592,-101.821 621.282,-93.606 610.929,-95.856 614.592,-101.821"/>
</g>
<!-- Node5 -->
<g id="node5" class="node"><title>Node5</title>
<polygon fill="none" stroke="#bfbfbf" points="29.0929,-248.5 29.0929,-267.5 85.0929,-267.5 85.0929,-248.5 29.0929,-248.5"/>
<text text-anchor="middle" x="57.0929" y="-255.5" font-family="Helvetica,sans-Serif" font-size="10.00">algorithm</text>
</g>
<!-- Node3&#45;&gt;Node5 -->
<g id="edge4" class="edge"><title>Node3&#45;&gt;Node5</title>
<path fill="none" stroke="midnightblue" d="M497.015,-305.147C493.66,-304.747 490.335,-304.362 487.093,-304 314.976,-284.797 270.286,-294.19 99.0929,-268 97.8489,-267.81 96.5865,-267.605 95.3134,-267.39"/>
<polygon fill="midnightblue" stroke="midnightblue" points="95.9468,-263.948 85.4752,-265.559 94.6659,-270.829 95.9468,-263.948"/>
</g>
<!-- Node6 -->
<g id="node6" class="node"><title>Node6</title>
<polygon fill="none" stroke="#bfbfbf" points="163.093,-6.5 163.093,-25.5 201.093,-25.5 201.093,-6.5 163.093,-6.5"/>
<text text-anchor="middle" x="182.093" y="-13.5" font-family="Helvetica,sans-Serif" font-size="10.00">array</text>
</g>
<!-- Node3&#45;&gt;Node6 -->
<g id="edge5" class="edge"><title>Node3&#45;&gt;Node6</title>
<path fill="none" stroke="midnightblue" d="M497.011,-305.183C493.657,-304.774 490.333,-304.376 487.093,-304 447.931,-299.45 160.519,-297.258 134.093,-268 123.431,-256.196 63.1762,-319.882 149.093,-68 153.324,-55.595 161.225,-43.2147 168.235,-33.7588"/>
<polygon fill="midnightblue" stroke="midnightblue" points="171.143,-35.7211 174.534,-25.6835 165.623,-31.4157 171.143,-35.7211"/>
</g>
<!-- Node7 -->
<g id="node7" class="node"><title>Node7</title>
<polygon fill="none" stroke="#bfbfbf" points="143.593,-248.5 143.593,-267.5 184.593,-267.5 184.593,-248.5 143.593,-248.5"/>
<text text-anchor="middle" x="164.093" y="-255.5" font-family="Helvetica,sans-Serif" font-size="10.00">cfloat</text>
</g>
<!-- Node3&#45;&gt;Node7 -->
<g id="edge6" class="edge"><title>Node3&#45;&gt;Node7</title>
<path fill="none" stroke="midnightblue" d="M497.001,-305.271C493.649,-304.839 490.328,-304.413 487.093,-304 359.136,-287.658 325.816,-292.112 199.093,-268 197.629,-267.721 196.136,-267.417 194.631,-267.094"/>
<polygon fill="midnightblue" stroke="midnightblue" points="195.258,-263.646 184.723,-264.769 193.659,-270.461 195.258,-263.646"/>
</g>
<!-- Node8 -->
<g id="node8" class="node"><title>Node8</title>
<polygon fill="none" stroke="#bfbfbf" points="62.0929,-6.5 62.0929,-25.5 106.093,-25.5 106.093,-6.5 62.0929,-6.5"/>
<text text-anchor="middle" x="84.0929" y="-13.5" font-family="Helvetica,sans-Serif" font-size="10.00">cmath</text>
</g>
<!-- Node3&#45;&gt;Node8 -->
<g id="edge7" class="edge"><title>Node3&#45;&gt;Node8</title>
<path fill="none" stroke="midnightblue" d="M497.022,-305.087C493.665,-304.702 490.337,-304.336 487.093,-304 435.328,-298.633 60.5051,-300.792 20.0929,-268 -3.27863,-249.036 1.09288,-233.098 1.09288,-203 1.09288,-203 1.09288,-203 1.09288,-145 1.09288,-97.8853 41.1707,-54.4424 65.6274,-32.3185"/>
<polygon fill="midnightblue" stroke="midnightblue" points="68.0192,-34.8764 73.2421,-25.6583 63.4107,-29.6074 68.0192,-34.8764"/>
</g>
<!-- Node9 -->
<g id="node9" class="node"><title>Node9</title>
<polygon fill="none" stroke="#bfbfbf" points="482.093,-248.5 482.093,-267.5 528.093,-267.5 528.093,-248.5 482.093,-248.5"/>
<text text-anchor="middle" x="505.093" y="-255.5" font-family="Helvetica,sans-Serif" font-size="10.00">cstring</text>
</g>
<!-- Node3&#45;&gt;Node9 -->
<g id="edge8" class="edge"><title>Node3&#45;&gt;Node9</title>
<path fill="none" stroke="midnightblue" d="M547.671,-304.083C540.245,-296.22 529.241,-284.569 520.281,-275.081"/>
<polygon fill="midnightblue" stroke="midnightblue" points="522.769,-272.618 513.358,-267.751 517.679,-277.424 522.769,-272.618"/>
</g>
<!-- Node10 -->
<g id="node10" class="node"><title>Node10</title>
<polygon fill="none" stroke="#bfbfbf" points="1805.09,-74.5 1805.09,-93.5 1859.09,-93.5 1859.09,-74.5 1805.09,-74.5"/>
<text text-anchor="middle" x="1832.09" y="-81.5" font-family="Helvetica,sans-Serif" font-size="10.00">iostream</text>
</g>
<!-- Node3&#45;&gt;Node10 -->
<g id="edge9" class="edge"><title>Node3&#45;&gt;Node10</title>
<path fill="none" stroke="midnightblue" d="M615.306,-308.427C696.677,-301.735 847.502,-287.876 975.093,-268 1342.67,-210.739 1439,-207.668 1795.09,-100 1797.74,-99.2001 1800.46,-98.2854 1803.16,-97.3112"/>
<polygon fill="midnightblue" stroke="midnightblue" points="1804.67,-100.48 1812.75,-93.6204 1802.16,-93.9482 1804.67,-100.48"/>
</g>
<!-- Node11 -->
<g id="node11" class="node"><title>Node11</title>
<polygon fill="none" stroke="#bfbfbf" points="584.593,-248.5 584.593,-267.5 667.593,-267.5 667.593,-248.5 584.593,-248.5"/>
<text text-anchor="middle" x="626.093" y="-255.5" font-family="Helvetica,sans-Serif" font-size="10.00">Math/SMatrix.h</text>
</g>
<!-- Node3&#45;&gt;Node11 -->
<g id="edge10" class="edge"><title>Node3&#45;&gt;Node11</title>
<path fill="none" stroke="midnightblue" d="M567.34,-304.324C577.89,-296.185 593.894,-283.839 606.535,-274.087"/>
<polygon fill="midnightblue" stroke="midnightblue" points="608.862,-276.713 614.642,-267.834 604.586,-271.171 608.862,-276.713"/>
</g>
<!-- Node12 -->
<g id="node12" class="node"><title>Node12</title>
<polygon fill="none" stroke="#bfbfbf" points="685.593,-248.5 685.593,-267.5 770.593,-267.5 770.593,-248.5 685.593,-248.5"/>
<text text-anchor="middle" x="728.093" y="-255.5" font-family="Helvetica,sans-Serif" font-size="10.00">Math/SVector.h</text>
</g>
<!-- Node3&#45;&gt;Node12 -->
<g id="edge11" class="edge"><title>Node3&#45;&gt;Node12</title>
<path fill="none" stroke="midnightblue" d="M583.347,-304.444C612.534,-295.28 659.014,-280.688 691.402,-270.519"/>
<polygon fill="midnightblue" stroke="midnightblue" points="692.474,-273.851 700.966,-267.516 690.377,-267.173 692.474,-273.851"/>
</g>
<!-- Node13 -->
<g id="node13" class="node"><title>Node13</title>
<g id="a_node13"><a xlink:href="../../d4/de2/BaseCluster_8h.html" target="_top" xlink:title="DetectorsBase/BaseCluster.h">
<polygon fill="none" stroke="black" points="793.593,-248.5 793.593,-267.5 940.593,-267.5 940.593,-248.5 793.593,-248.5"/>
<text text-anchor="middle" x="867.093" y="-255.5" font-family="Helvetica,sans-Serif" font-size="10.00">DetectorsBase/BaseCluster.h</text>
</a>
</g>
</g>
<!-- Node3&#45;&gt;Node13 -->
<g id="edge12" class="edge"><title>Node3&#45;&gt;Node13</title>
<path fill="none" stroke="midnightblue" d="M605.372,-304.444C660.421,-294.885 749.492,-279.419 808.177,-269.23"/>
<polygon fill="midnightblue" stroke="midnightblue" points="808.791,-272.676 818.045,-267.516 807.593,-265.779 808.791,-272.676"/>
</g>
<!-- Node18 -->
<g id="node18" class="node"><title>Node18</title>
<g id="a_node18"><a xlink:href="../../dd/d76/Cartesian3D_8h.html" target="_top" xlink:title="MathUtils/Cartesian3D.h">
<polygon fill="none" stroke="black" points="957.593,-136.5 957.593,-155.5 1082.59,-155.5 1082.59,-136.5 957.593,-136.5"/>
<text text-anchor="middle" x="1020.09" y="-143.5" font-family="Helvetica,sans-Serif" font-size="10.00">MathUtils/Cartesian3D.h</text>
</a>
</g>
</g>
<!-- Node3&#45;&gt;Node18 -->
<g id="edge49" class="edge"><title>Node3&#45;&gt;Node18</title>
<path fill="none" stroke="midnightblue" d="M615.395,-312.576C711.374,-310.854 895.424,-302.939 949.093,-268 986.229,-243.824 1006.44,-192.898 1015.03,-165.454"/>
<polygon fill="midnightblue" stroke="midnightblue" points="1018.47,-166.16 1017.93,-155.579 1011.75,-164.187 1018.47,-166.16"/>
</g>
<!-- Node34 -->
<g id="node34" class="node"><title>Node34</title>
<g id="a_node34"><a xlink:href="../../d9/ded/Utils_8h.html" target="_top" xlink:title="DetectorsBase/Utils.h">
<polygon fill="none" stroke="black" points="168.593,-74.5 168.593,-93.5 281.593,-93.5 281.593,-74.5 168.593,-74.5"/>
<text text-anchor="middle" x="225.093" y="-81.5" font-family="Helvetica,sans-Serif" font-size="10.00">DetectorsBase/Utils.h</text>
</a>
</g>
</g>
<!-- Node3&#45;&gt;Node34 -->
<g id="edge48" class="edge"><title>Node3&#45;&gt;Node34</title>
<path fill="none" stroke="midnightblue" d="M538.524,-304.374C521.443,-295.779 494.949,-281.894 473.093,-268 383.485,-211.035 283.782,-132.425 243.478,-99.955"/>
<polygon fill="midnightblue" stroke="midnightblue" points="245.569,-97.1451 235.592,-93.5794 241.168,-102.588 245.569,-97.1451"/>
</g>
<!-- Node35 -->
<g id="node35" class="node"><title>Node35</title>
<g id="a_node35"><a xlink:href="../../d1/daa/Base_2include_2DetectorsBase_2Constants_8h.html" target="_top" xlink:title="DetectorsBase/Constants.h">
<polygon fill="none" stroke="black" points="1818.09,-6.5 1818.09,-25.5 1956.09,-25.5 1956.09,-6.5 1818.09,-6.5"/>
<text text-anchor="middle" x="1887.09" y="-13.5" font-family="Helvetica,sans-Serif" font-size="10.00">DetectorsBase/Constants.h</text>
</a>
</g>
</g>
<!-- Node3&#45;&gt;Node35 -->
<g id="edge47" class="edge"><title>Node3&#45;&gt;Node35</title>
<path fill="none" stroke="midnightblue" d="M615.435,-311.25C873.725,-303.251 1887.09,-267.741 1887.09,-203 1887.09,-203 1887.09,-203 1887.09,-145 1887.09,-106.248 1887.09,-60.8973 1887.09,-35.9188"/>
<polygon fill="midnightblue" stroke="midnightblue" points="1890.59,-35.6912 1887.09,-25.6913 1883.59,-35.6913 1890.59,-35.6912"/>
</g>
<!-- Node13&#45;&gt;Node10 -->
<g id="edge17" class="edge"><title>Node13&#45;&gt;Node10</title>
<path fill="none" stroke="midnightblue" d="M904.384,-248.478C999.424,-227.003 1258.66,-169.969 1477.09,-136 1617.64,-114.144 1657.24,-135.044 1795.09,-100 1798.09,-99.239 1801.16,-98.2884 1804.19,-97.2373"/>
<polygon fill="midnightblue" stroke="midnightblue" points="1805.51,-100.481 1813.6,-93.6463 1803.01,-93.9414 1805.51,-100.481"/>
</g>
<!-- Node14 -->
<g id="node14" class="node"><title>Node14</title>
<polygon fill="none" stroke="#bfbfbf" points="769.593,-192.5 769.593,-211.5 828.593,-211.5 828.593,-192.5 769.593,-192.5"/>
<text text-anchor="middle" x="799.093" y="-199.5" font-family="Helvetica,sans-Serif" font-size="10.00">TObject.h</text>
</g>
<!-- Node13&#45;&gt;Node14 -->
<g id="edge13" class="edge"><title>Node13&#45;&gt;Node14</title>
<path fill="none" stroke="midnightblue" d="M856.168,-248.324C845.918,-240.185 830.372,-227.839 818.092,-218.087"/>
<polygon fill="midnightblue" stroke="midnightblue" points="820.225,-215.312 810.217,-211.834 815.872,-220.794 820.225,-215.312"/>
</g>
<!-- Node15 -->
<g id="node15" class="node"><title>Node15</title>
<polygon fill="none" stroke="#bfbfbf" points="550.593,-74.5 550.593,-93.5 591.593,-93.5 591.593,-74.5 550.593,-74.5"/>
<text text-anchor="middle" x="571.093" y="-81.5" font-family="Helvetica,sans-Serif" font-size="10.00">bitset</text>
</g>
<!-- Node13&#45;&gt;Node15 -->
<g id="edge14" class="edge"><title>Node13&#45;&gt;Node15</title>
<path fill="none" stroke="midnightblue" d="M798.339,-248.49C715.226,-237.881 585.473,-220.153 578.093,-212 551.262,-182.36 558.882,-131.121 565.643,-103.66"/>
<polygon fill="midnightblue" stroke="midnightblue" points="569.082,-104.348 568.296,-93.7821 562.322,-102.532 569.082,-104.348"/>
</g>
<!-- Node16 -->
<g id="node16" class="node"><title>Node16</title>
<polygon fill="none" stroke="#bfbfbf" points="847.093,-192.5 847.093,-211.5 897.093,-211.5 897.093,-192.5 847.093,-192.5"/>
<text text-anchor="middle" x="872.093" y="-199.5" font-family="Helvetica,sans-Serif" font-size="10.00">iomanip</text>
</g>
<!-- Node13&#45;&gt;Node16 -->
<g id="edge15" class="edge"><title>Node13&#45;&gt;Node16</title>
<path fill="none" stroke="midnightblue" d="M867.919,-248.083C868.574,-241.006 869.513,-230.861 870.335,-221.986"/>
<polygon fill="midnightblue" stroke="midnightblue" points="873.846,-222.031 871.283,-211.751 866.875,-221.386 873.846,-222.031"/>
</g>
<!-- Node17 -->
<g id="node17" class="node"><title>Node17</title>
<polygon fill="none" stroke="#bfbfbf" points="915.593,-192.5 915.593,-211.5 944.593,-211.5 944.593,-192.5 915.593,-192.5"/>
<text text-anchor="middle" x="930.093" y="-199.5" font-family="Helvetica,sans-Serif" font-size="10.00">ios</text>
</g>
<!-- Node13&#45;&gt;Node17 -->
<g id="edge16" class="edge"><title>Node13&#45;&gt;Node17</title>
<path fill="none" stroke="midnightblue" d="M877.215,-248.324C886.619,-240.263 900.837,-228.077 912.162,-218.369"/>
<polygon fill="midnightblue" stroke="midnightblue" points="914.472,-220.999 919.787,-211.834 909.916,-215.684 914.472,-220.999"/>
</g>
<!-- Node13&#45;&gt;Node18 -->
<g id="edge18" class="edge"><title>Node13&#45;&gt;Node18</title>
<path fill="none" stroke="midnightblue" d="M887.51,-248.346C905.564,-240.232 932.202,-227.109 953.093,-212 973.072,-197.55 992.967,-177.318 1005.82,-163.28"/>
<polygon fill="midnightblue" stroke="midnightblue" points="1008.44,-165.598 1012.53,-155.821 1003.24,-160.92 1008.44,-165.598"/>
</g>
<!-- Node28 -->
<g id="node28" class="node"><title>Node28</title>
<g id="a_node28"><a xlink:href="../../d4/d20/DetMatrixCache_8h.html" target="_top" xlink:title="DetectorsBase/DetMatrixCache.h">
<polygon fill="none" stroke="black" points="587.093,-192.5 587.093,-211.5 751.093,-211.5 751.093,-192.5 587.093,-192.5"/>
<text text-anchor="middle" x="669.093" y="-199.5" font-family="Helvetica,sans-Serif" font-size="10.00">DetectorsBase/DetMatrixCache.h</text>
</a>
</g>
</g>
<!-- Node13&#45;&gt;Node28 -->
<g id="edge30" class="edge"><title>Node13&#45;&gt;Node28</title>
<path fill="none" stroke="midnightblue" d="M835.719,-248.444C801.83,-239.201 747.69,-224.436 710.369,-214.257"/>
<polygon fill="midnightblue" stroke="midnightblue" points="710.888,-210.771 700.32,-211.516 709.046,-217.524 710.888,-210.771"/>
</g>
<!-- Node18&#45;&gt;Node4 -->
<g id="edge22" class="edge"><title>Node18&#45;&gt;Node4</title>
<path fill="none" stroke="midnightblue" d="M957.474,-141.647C887.634,-136.802 771.766,-125.451 675.093,-100 672.106,-99.2136 669.038,-98.2465 666.007,-97.1853"/>
<polygon fill="midnightblue" stroke="midnightblue" points="667.19,-93.8904 656.599,-93.5817 664.686,-100.427 667.19,-93.8904"/>
</g>
<!-- Node18&#45;&gt;Node10 -->
<g id="edge29" class="edge"><title>Node18&#45;&gt;Node10</title>
<path fill="none" stroke="midnightblue" d="M1082.85,-142.534C1255.01,-135.604 1726.52,-115.448 1795.09,-100 1798.34,-99.2688 1801.67,-98.2845 1804.94,-97.1676"/>
<polygon fill="midnightblue" stroke="midnightblue" points="1806.32,-100.385 1814.41,-93.5402 1803.82,-93.8482 1806.32,-100.385"/>
</g>
<!-- Node19 -->
<g id="node19" class="node"><title>Node19</title>
<polygon fill="none" stroke="#bfbfbf" points="1319.59,-74.5 1319.59,-93.5 1468.59,-93.5 1468.59,-74.5 1319.59,-74.5"/>
<text text-anchor="middle" x="1394.09" y="-81.5" font-family="Helvetica,sans-Serif" font-size="10.00">Math/GenVector/Rotation3D.h</text>
</g>
<!-- Node18&#45;&gt;Node19 -->
<g id="edge19" class="edge"><title>Node18&#45;&gt;Node19</title>
<path fill="none" stroke="midnightblue" d="M1077.65,-136.463C1136.21,-127.685 1229.56,-113.437 1310.09,-100 1319,-98.514 1328.43,-96.8852 1337.62,-95.2659"/>
<polygon fill="midnightblue" stroke="midnightblue" points="1338.24,-98.7115 1347.47,-93.5198 1337.02,-91.8189 1338.24,-98.7115"/>
</g>
<!-- Node20 -->
<g id="node20" class="node"><title>Node20</title>
<polygon fill="none" stroke="#bfbfbf" points="1487.09,-74.5 1487.09,-93.5 1643.09,-93.5 1643.09,-74.5 1487.09,-74.5"/>
<text text-anchor="middle" x="1565.09" y="-81.5" font-family="Helvetica,sans-Serif" font-size="10.00">Math/GenVector/Transform3D.h</text>
</g>
<!-- Node18&#45;&gt;Node20 -->
<g id="edge20" class="edge"><title>Node18&#45;&gt;Node20</title>
<path fill="none" stroke="midnightblue" d="M1082.72,-140.244C1170.91,-133.225 1336.64,-118.861 1477.09,-100 1487.34,-98.6244 1498.21,-96.9476 1508.7,-95.2199"/>
<polygon fill="midnightblue" stroke="midnightblue" points="1509.32,-98.6649 1518.6,-93.5559 1508.16,-91.7617 1509.32,-98.6649"/>
</g>
<!-- Node21 -->
<g id="node21" class="node"><title>Node21</title>
<polygon fill="none" stroke="#bfbfbf" points="684.093,-74.5 684.093,-93.5 844.093,-93.5 844.093,-74.5 684.093,-74.5"/>
<text text-anchor="middle" x="764.093" y="-81.5" font-family="Helvetica,sans-Serif" font-size="10.00">Math/GenVector/Translation3D.h</text>
</g>
<!-- Node18&#45;&gt;Node21 -->
<g id="edge21" class="edge"><title>Node18&#45;&gt;Node21</title>
<path fill="none" stroke="midnightblue" d="M983.686,-136.467C938.098,-125.783 859.96,-107.469 810.228,-95.8129"/>
<polygon fill="midnightblue" stroke="midnightblue" points="810.909,-92.3777 800.374,-93.5034 809.311,-99.193 810.909,-92.3777"/>
</g>
<!-- Node22 -->
<g id="node22" class="node"><title>Node22</title>
<polygon fill="none" stroke="#bfbfbf" points="862.093,-74.5 862.093,-93.5 938.093,-93.5 938.093,-74.5 862.093,-74.5"/>
<text text-anchor="middle" x="900.093" y="-81.5" font-family="Helvetica,sans-Serif" font-size="10.00">TGeoMatrix.h</text>
</g>
<!-- Node18&#45;&gt;Node22 -->
<g id="edge23" class="edge"><title>Node18&#45;&gt;Node22</title>
<path fill="none" stroke="midnightblue" d="M1002.9,-136.403C982.85,-126.379 949.494,-109.701 926.233,-98.0699"/>
<polygon fill="midnightblue" stroke="midnightblue" points="927.764,-94.9223 917.254,-93.5806 924.633,-101.183 927.764,-94.9223"/>
</g>
<!-- Node23 -->
<g id="node23" class="node"><title>Node23</title>
<polygon fill="none" stroke="#bfbfbf" points="956.593,-69 956.593,-99 1107.59,-99 1107.59,-69 956.593,-69"/>
<text text-anchor="start" x="964.593" y="-87" font-family="Helvetica,sans-Serif" font-size="10.00">Math/GenVector/Displacement</text>
<text text-anchor="middle" x="1032.09" y="-76" font-family="Helvetica,sans-Serif" font-size="10.00">Vector3D.h</text>
</g>
<!-- Node18&#45;&gt;Node23 -->
<g id="edge24" class="edge"><title>Node18&#45;&gt;Node23</title>
<path fill="none" stroke="midnightblue" d="M1021.81,-136.403C1023.24,-129.265 1025.34,-118.752 1027.27,-109.09"/>
<polygon fill="midnightblue" stroke="midnightblue" points="1030.74,-109.633 1029.26,-99.1408 1023.87,-108.26 1030.74,-109.633"/>
</g>
<!-- Node24 -->
<g id="node24" class="node"><title>Node24</title>
<polygon fill="none" stroke="#bfbfbf" points="1126.09,-74.5 1126.09,-93.5 1302.09,-93.5 1302.09,-74.5 1126.09,-74.5"/>
<text text-anchor="middle" x="1214.09" y="-81.5" font-family="Helvetica,sans-Serif" font-size="10.00">Math/GenVector/PositionVector3D.h</text>
</g>
<!-- Node18&#45;&gt;Node24 -->
<g id="edge25" class="edge"><title>Node18&#45;&gt;Node24</title>
<path fill="none" stroke="midnightblue" d="M1047.89,-136.403C1081.74,-125.933 1139.06,-108.205 1176.75,-96.5501"/>
<polygon fill="midnightblue" stroke="midnightblue" points="1177.83,-99.8791 1186.35,-93.5806 1175.76,-93.1916 1177.83,-99.8791"/>
</g>
<!-- Node25 -->
<g id="node25" class="node"><title>Node25</title>
<g id="a_node25"><a xlink:href="../../d2/dd0/Cartesian2D_8h.html" target="_top" xlink:title="MathUtils/Cartesian2D.h">
<polygon fill="none" stroke="black" points="1661.59,-74.5 1661.59,-93.5 1786.59,-93.5 1786.59,-74.5 1661.59,-74.5"/>
<text text-anchor="middle" x="1724.09" y="-81.5" font-family="Helvetica,sans-Serif" font-size="10.00">MathUtils/Cartesian2D.h</text>
</a>
</g>
</g>
<!-- Node18&#45;&gt;Node25 -->
<g id="edge26" class="edge"><title>Node18&#45;&gt;Node25</title>
<path fill="none" stroke="midnightblue" d="M1082.73,-143.326C1196.57,-139.666 1444.81,-128.838 1652.09,-100 1660.55,-98.8239 1669.49,-97.2393 1678.1,-95.5398"/>
<polygon fill="midnightblue" stroke="midnightblue" points="1678.91,-98.9475 1688,-93.5094 1677.5,-92.0903 1678.91,-98.9475"/>
</g>
<!-- Node26 -->
<g id="node26" class="node"><title>Node26</title>
<polygon fill="none" stroke="#bfbfbf" points="1648.59,-1 1648.59,-31 1799.59,-31 1799.59,-1 1648.59,-1"/>
<text text-anchor="start" x="1656.59" y="-19" font-family="Helvetica,sans-Serif" font-size="10.00">Math/GenVector/Displacement</text>
<text text-anchor="middle" x="1724.09" y="-8" font-family="Helvetica,sans-Serif" font-size="10.00">Vector2D.h</text>
</g>
<!-- Node25&#45;&gt;Node26 -->
<g id="edge27" class="edge"><title>Node25&#45;&gt;Node26</title>
<path fill="none" stroke="midnightblue" d="M1724.09,-74.3717C1724.09,-65.9715 1724.09,-52.811 1724.09,-41.2126"/>
<polygon fill="midnightblue" stroke="midnightblue" points="1727.59,-41.1814 1724.09,-31.1815 1720.59,-41.1815 1727.59,-41.1814"/>
</g>
<!-- Node27 -->
<g id="node27" class="node"><title>Node27</title>
<polygon fill="none" stroke="#bfbfbf" points="1454.09,-6.5 1454.09,-25.5 1630.09,-25.5 1630.09,-6.5 1454.09,-6.5"/>
<text text-anchor="middle" x="1542.09" y="-13.5" font-family="Helvetica,sans-Serif" font-size="10.00">Math/GenVector/PositionVector2D.h</text>
</g>
<!-- Node25&#45;&gt;Node27 -->
<g id="edge28" class="edge"><title>Node25&#45;&gt;Node27</title>
<path fill="none" stroke="midnightblue" d="M1700.3,-74.3717C1668.33,-62.7779 1611.35,-42.1162 1575.21,-29.0087"/>
<polygon fill="midnightblue" stroke="midnightblue" points="1576.2,-25.6447 1565.6,-25.5259 1573.81,-32.2254 1576.2,-25.6447"/>
</g>
<!-- Node28&#45;&gt;Node4 -->
<g id="edge45" class="edge"><title>Node28&#45;&gt;Node4</title>
<path fill="none" stroke="midnightblue" d="M686.54,-192.431C707.756,-180.776 739.207,-158.758 726.093,-136 719.429,-124.436 689.949,-108.745 666.923,-97.834"/>
<polygon fill="midnightblue" stroke="midnightblue" points="668.394,-94.658 657.85,-93.6196 665.445,-101.007 668.394,-94.658"/>
</g>
<!-- Node28&#45;&gt;Node6 -->
<g id="edge32" class="edge"><title>Node28&#45;&gt;Node6</title>
<path fill="none" stroke="midnightblue" d="M586.939,-197.47C456.083,-189.875 209.863,-166.849 159.093,-100 144.306,-80.5307 157.789,-52.0746 169.463,-34.0524"/>
<polygon fill="midnightblue" stroke="midnightblue" points="172.441,-35.8994 175.243,-25.6819 166.681,-31.9216 172.441,-35.8994"/>
</g>
<!-- Node28&#45;&gt;Node18 -->
<g id="edge33" class="edge"><title>Node28&#45;&gt;Node18</title>
<path fill="none" stroke="midnightblue" d="M724.71,-192.444C787.225,-182.826 888.614,-167.228 954.827,-157.041"/>
<polygon fill="midnightblue" stroke="midnightblue" points="955.385,-160.496 964.736,-155.516 954.32,-153.578 955.385,-160.496"/>
</g>
<!-- Node29 -->
<g id="node29" class="node"><title>Node29</title>
<polygon fill="none" stroke="#bfbfbf" points="584.093,-136.5 584.093,-155.5 628.093,-155.5 628.093,-136.5 584.093,-136.5"/>
<text text-anchor="middle" x="606.093" y="-143.5" font-family="Helvetica,sans-Serif" font-size="10.00">vector</text>
</g>
<!-- Node28&#45;&gt;Node29 -->
<g id="edge31" class="edge"><title>Node28&#45;&gt;Node29</title>
<path fill="none" stroke="midnightblue" d="M658.971,-192.324C649.567,-184.263 635.349,-172.077 624.024,-162.369"/>
<polygon fill="midnightblue" stroke="midnightblue" points="626.269,-159.684 616.399,-155.834 621.714,-164.999 626.269,-159.684"/>
</g>
<!-- Node30 -->
<g id="node30" class="node"><title>Node30</title>
<g id="a_node30"><a xlink:href="../../d6/d31/DetID_8h.html" target="_top" xlink:title="DetectorsBase/DetID.h">
<polygon fill="none" stroke="black" points="369.593,-136.5 369.593,-155.5 488.593,-155.5 488.593,-136.5 369.593,-136.5"/>
<text text-anchor="middle" x="429.093" y="-143.5" font-family="Helvetica,sans-Serif" font-size="10.00">DetectorsBase/DetID.h</text>
</a>
</g>
</g>
<!-- Node28&#45;&gt;Node30 -->
<g id="edge34" class="edge"><title>Node28&#45;&gt;Node30</title>
<path fill="none" stroke="midnightblue" d="M631.064,-192.444C589.285,-183.043 522.111,-167.929 476.823,-157.739"/>
<polygon fill="midnightblue" stroke="midnightblue" points="477.468,-154.297 466.944,-155.516 475.931,-161.126 477.468,-154.297"/>
</g>
<!-- Node36 -->
<g id="node36" class="node"><title>Node36</title>
<polygon fill="none" stroke="#bfbfbf" points="646.593,-136.5 646.593,-155.5 717.593,-155.5 717.593,-136.5 646.593,-136.5"/>
<text text-anchor="middle" x="682.093" y="-143.5" font-family="Helvetica,sans-Serif" font-size="10.00">FairLogger.h</text>
</g>
<!-- Node28&#45;&gt;Node36 -->
<g id="edge46" class="edge"><title>Node28&#45;&gt;Node36</title>
<path fill="none" stroke="midnightblue" d="M671.24,-192.083C672.962,-184.927 675.44,-174.635 677.593,-165.691"/>
<polygon fill="midnightblue" stroke="midnightblue" points="681.048,-166.293 679.986,-155.751 674.243,-164.654 681.048,-166.293"/>
</g>
<!-- Node30&#45;&gt;Node4 -->
<g id="edge35" class="edge"><title>Node30&#45;&gt;Node4</title>
<path fill="none" stroke="midnightblue" d="M466.827,-136.432C501.727,-128.187 554.876,-114.816 600.093,-100 602.719,-99.1394 605.427,-98.1932 608.13,-97.2075"/>
<polygon fill="midnightblue" stroke="midnightblue" points="609.645,-100.376 617.745,-93.5463 607.154,-93.8337 609.645,-100.376"/>
</g>
<!-- Node30&#45;&gt;Node6 -->
<g id="edge36" class="edge"><title>Node30&#45;&gt;Node6</title>
<path fill="none" stroke="midnightblue" d="M405.578,-136.462C384.733,-128.424 353.849,-115.349 329.093,-100 310.037,-88.1854 309.04,-79.9887 290.093,-68 264.45,-51.7745 232.832,-37.4335 210.449,-28.1248"/>
<polygon fill="midnightblue" stroke="midnightblue" points="211.75,-24.8753 201.169,-24.333 209.102,-31.3553 211.75,-24.8753"/>
</g>
<!-- Node30&#45;&gt;Node15 -->
<g id="edge37" class="edge"><title>Node30&#45;&gt;Node15</title>
<path fill="none" stroke="midnightblue" d="M451.386,-136.458C473.928,-127.705 509.685,-113.503 540.093,-100 541.493,-99.3782 542.924,-98.7306 544.364,-98.0686"/>
<polygon fill="midnightblue" stroke="midnightblue" points="546.258,-101.045 553.807,-93.6113 543.27,-94.7149 546.258,-101.045"/>
</g>
<!-- Node31 -->
<g id="node31" class="node"><title>Node31</title>
<polygon fill="none" stroke="#bfbfbf" points="338.593,-74.5 338.593,-93.5 387.593,-93.5 387.593,-74.5 338.593,-74.5"/>
<text text-anchor="middle" x="363.093" y="-81.5" font-family="Helvetica,sans-Serif" font-size="10.00">cassert</text>
</g>
<!-- Node30&#45;&gt;Node31 -->
<g id="edge38" class="edge"><title>Node30&#45;&gt;Node31</title>
<path fill="none" stroke="midnightblue" d="M419.637,-136.403C409.345,-127.047 392.677,-111.895 380.099,-100.46"/>
<polygon fill="midnightblue" stroke="midnightblue" points="382.285,-97.7176 372.532,-93.5806 377.577,-102.897 382.285,-97.7176"/>
</g>
<!-- Node32 -->
<g id="node32" class="node"><title>Node32</title>
<polygon fill="none" stroke="#bfbfbf" points="406.093,-74.5 406.093,-93.5 452.093,-93.5 452.093,-74.5 406.093,-74.5"/>
<text text-anchor="middle" x="429.093" y="-81.5" font-family="Helvetica,sans-Serif" font-size="10.00">cstdint</text>
</g>
<!-- Node30&#45;&gt;Node32 -->
<g id="edge39" class="edge"><title>Node30&#45;&gt;Node32</title>
<path fill="none" stroke="midnightblue" d="M429.093,-136.403C429.093,-127.938 429.093,-114.728 429.093,-103.82"/>
<polygon fill="midnightblue" stroke="midnightblue" points="432.593,-103.581 429.093,-93.5806 425.593,-103.581 432.593,-103.581"/>
</g>
<!-- Node33 -->
<g id="node33" class="node"><title>Node33</title>
<polygon fill="none" stroke="#bfbfbf" points="470.093,-74.5 470.093,-93.5 532.093,-93.5 532.093,-74.5 470.093,-74.5"/>
<text text-anchor="middle" x="501.093" y="-81.5" font-family="Helvetica,sans-Serif" font-size="10.00">type_traits</text>
</g>
<!-- Node30&#45;&gt;Node33 -->
<g id="edge40" class="edge"><title>Node30&#45;&gt;Node33</title>
<path fill="none" stroke="midnightblue" d="M439.409,-136.403C450.743,-126.958 469.166,-111.606 482.932,-100.134"/>
<polygon fill="midnightblue" stroke="midnightblue" points="485.355,-102.671 490.796,-93.5806 480.873,-97.2937 485.355,-102.671"/>
</g>
<!-- Node30&#45;&gt;Node34 -->
<g id="edge41" class="edge"><title>Node30&#45;&gt;Node34</title>
<path fill="none" stroke="midnightblue" d="M399.865,-136.403C364.19,-125.911 303.733,-108.129 264.11,-96.4758"/>
<polygon fill="midnightblue" stroke="midnightblue" points="264.848,-93.0445 254.267,-93.5806 262.873,-99.7601 264.848,-93.0445"/>
</g>
<!-- Node34&#45;&gt;Node6 -->
<g id="edge44" class="edge"><title>Node34&#45;&gt;Node6</title>
<path fill="none" stroke="midnightblue" d="M219.471,-74.3717C212.877,-64.2495 201.779,-47.2154 193.384,-34.3312"/>
<polygon fill="midnightblue" stroke="midnightblue" points="196.244,-32.3092 187.853,-25.8411 190.379,-36.1304 196.244,-32.3092"/>
</g>
<!-- Node34&#45;&gt;Node8 -->
<g id="edge43" class="edge"><title>Node34&#45;&gt;Node8</title>
<path fill="none" stroke="midnightblue" d="M206.66,-74.3717C182.487,-63.0569 139.863,-43.1053 111.797,-29.9678"/>
<polygon fill="midnightblue" stroke="midnightblue" points="113.071,-26.7 102.531,-25.6305 110.104,-33.0398 113.071,-26.7"/>
</g>
<!-- Node34&#45;&gt;Node35 -->
<g id="edge42" class="edge"><title>Node34&#45;&gt;Node35</title>
<path fill="none" stroke="midnightblue" d="M275.736,-74.4637C292.654,-71.9415 311.642,-69.4657 329.093,-68 984.314,-12.9705 1154.25,-101.56 1808.09,-32 1818.19,-30.9256 1828.93,-29.2505 1839.13,-27.4028"/>
<polygon fill="midnightblue" stroke="midnightblue" points="1839.93,-30.8132 1849.11,-25.5135 1838.63,-23.9354 1839.93,-30.8132"/>
</g>
</g>
</svg>
        <g id="navigator" transform="translate(0 0)" fill="#404254">
                <rect fill="#f2f5e9" fill-opacity="0.5" stroke="#606060" stroke-width=".5" x="0" y="0" width="60" height="60"/>
                <use id="zoomplus" xlink:href="#zoomPlus" x="17" y="9" onmousedown="handleZoom(evt,'in')"/>
                <use id="zoomminus" xlink:href="#zoomMin" x="42" y="9" onmousedown="handleZoom(evt,'out')"/>
                <use id="reset" xlink:href="#resetDef" x="30" y="36" onmousedown="handleReset()"/>
                <g id="arrowUp" xlink:href="#dirArrow" transform="translate(30 24)" onmousedown="handlePan(0,-1)">
                  <use xlink:href="#rim" fill="#404040">
                        <set attributeName="fill" to="#808080" begin="arrowUp.mouseover" end="arrowUp.mouseout"/>
                  </use>
                  <path fill="none" stroke="white" stroke-width="1.5" d="M0,-3.0v7 M-2.5,-0.5L0,-3.0L2.5,-0.5"/>
                </g>
                <g id="arrowRight" xlink:href="#dirArrow" transform="rotate(90) translate(36 -43)" onmousedown="handlePan(1,0)">
                  <use xlink:href="#rim" fill="#404040">
                        <set attributeName="fill" to="#808080" begin="arrowRight.mouseover" end="arrowRight.mouseout"/>
                  </use>
                  <path fill="none" stroke="white" stroke-width="1.5" d="M0,-3.0v7 M-2.5,-0.5L0,-3.0L2.5,-0.5"/>
                </g>
                <g id="arrowDown" xlink:href="#dirArrow" transform="rotate(180) translate(-30 -48)" onmousedown="handlePan(0,1)">
                  <use xlink:href="#rim" fill="#404040">
                        <set attributeName="fill" to="#808080" begin="arrowDown.mouseover" end="arrowDown.mouseout"/>
                  </use>
                  <path fill="none" stroke="white" stroke-width="1.5" d="M0,-3.0v7 M-2.5,-0.5L0,-3.0L2.5,-0.5"/>
                </g>
                <g id="arrowLeft" xlink:href="#dirArrow" transform="rotate(270) translate(-36 17)" onmousedown="handlePan(-1,0)">
                  <use xlink:href="#rim" fill="#404040">
                        <set attributeName="fill" to="#808080" begin="arrowLeft.mouseover" end="arrowLeft.mouseout"/>
                  </use>
                  <path fill="none" stroke="white" stroke-width="1.5" d="M0,-3.0v7 M-2.5,-0.5L0,-3.0L2.5,-0.5"/>
                </g>
        </g>
        <svg viewBox="0 0 15 15" width="100%" height="30px" preserveAspectRatio="xMaxYMin meet">
         <g id="arrow_out" transform="scale(0.3 0.3)">
          <a xlink:href="Propagator_8h__incl_org.svg" target="_base">
           <rect id="button" ry="5" rx="5" y="6" x="6" height="38" width="38"
                fill="#f2f5e9" fill-opacity="0.5" stroke="#606060" stroke-width="1.0"/>
           <path id="arrow"
             d="M 11.500037,31.436501 C 11.940474,20.09759 22.043105,11.32322 32.158766,21.979434 L 37.068811,17.246167 C 37.068811,17.246167 37.088388,32 37.088388,32 L 22.160133,31.978069 C 22.160133,31.978069 26.997745,27.140456 26.997745,27.140456 C 18.528582,18.264221 13.291696,25.230495 11.500037,31.436501 z"
             style="fill:#404040;"/>
          </a>
         </g>
        </svg>
</svg>
