<?xml version="1.0" encoding="UTF-8" standalone="no"?>
<!DOCTYPE svg PUBLIC "-//W3C//DTD SVG 1.1//EN"
 "http://www.w3.org/Graphics/SVG/1.1/DTD/svg11.dtd">
<!-- Generated by graphviz version 2.36.0 (20140111.2315)
 -->
<!-- Title: /home/travis/build/AliceO2Group/AliceO2/Detectors/PHOS/simulation/include/PHOSSimulation/Detector.h Pages: 1 -->
<svg width="1636pt" height="378pt"
 viewBox="0.00 0.00 1635.88 378.00" xmlns="http://www.w3.org/2000/svg" xmlns:xlink="http://www.w3.org/1999/xlink">
<g id="graph0" class="graph" transform="scale(1 1) rotate(0) translate(4 374)">
<title>/home/travis/build/AliceO2Group/AliceO2/Detectors/PHOS/simulation/include/PHOSSimulation/Detector.h</title>
<!-- Node1 -->
<g id="node1" class="node"><title>Node1</title>
<polygon fill="#bfbfbf" stroke="black" points="835.878,-317 835.878,-369 1011.88,-369 1011.88,-317 835.878,-317"/>
<text text-anchor="start" x="843.878" y="-357" font-family="Helvetica,sans-Serif" font-size="10.00">/home/travis/build</text>
<text text-anchor="start" x="843.878" y="-346" font-family="Helvetica,sans-Serif" font-size="10.00">/AliceO2Group/AliceO2</text>
<text text-anchor="start" x="843.878" y="-335" font-family="Helvetica,sans-Serif" font-size="10.00">/Detectors/PHOS/simulation</text>
<text text-anchor="middle" x="923.878" y="-324" font-family="Helvetica,sans-Serif" font-size="10.00">/include/PHOSSimulation/Detector.h</text>
</g>
<!-- Node2 -->
<g id="node2" class="node"><title>Node2</title>
<g id="a_node2"><a xlink:href="../../d1/d3a/Base_2include_2DetectorsBase_2Detector_8h.html" target="_top" xlink:title="DetectorsBase/Detector.h">
<polygon fill="none" stroke="black" points="346.378,-260.5 346.378,-279.5 477.378,-279.5 477.378,-260.5 346.378,-260.5"/>
<text text-anchor="middle" x="411.878" y="-267.5" font-family="Helvetica,sans-Serif" font-size="10.00">DetectorsBase/Detector.h</text>
</a>
</g>
</g>
<!-- Node1&#45;&gt;Node2 -->
<g id="edge1" class="edge"><title>Node1&#45;&gt;Node2</title>
<path fill="none" stroke="midnightblue" d="M835.863,-329.795C736.239,-315.98 575.848,-293.738 483.539,-280.937"/>
<polygon fill="midnightblue" stroke="midnightblue" points="483.838,-277.445 473.452,-279.538 482.876,-284.379 483.838,-277.445"/>
</g>
<!-- Node3 -->
<g id="node3" class="node"><title>Node3</title>
<polygon fill="none" stroke="#bfbfbf" points="806.378,-136.5 806.378,-155.5 841.378,-155.5 841.378,-136.5 806.378,-136.5"/>
<text text-anchor="middle" x="823.878" y="-143.5" font-family="Helvetica,sans-Serif" font-size="10.00">map</text>
</g>
<!-- Node1&#45;&gt;Node3 -->
<g id="edge32" class="edge"><title>Node1&#45;&gt;Node3</title>
<path fill="none" stroke="midnightblue" d="M926.974,-316.787C929.543,-284.901 929.372,-229.628 903.878,-192 891.435,-173.633 868.866,-161.935 850.865,-155.083"/>
<polygon fill="midnightblue" stroke="midnightblue" points="852.022,-151.78 841.427,-151.764 849.7,-158.384 852.022,-151.78"/>
</g>
<!-- Node4 -->
<g id="node4" class="node"><title>Node4</title>
<polygon fill="none" stroke="#bfbfbf" points="851.878,-198.5 851.878,-217.5 895.878,-217.5 895.878,-198.5 851.878,-198.5"/>
<text text-anchor="middle" x="873.878" y="-205.5" font-family="Helvetica,sans-Serif" font-size="10.00">vector</text>
</g>
<!-- Node1&#45;&gt;Node4 -->
<g id="edge33" class="edge"><title>Node1&#45;&gt;Node4</title>
<path fill="none" stroke="midnightblue" d="M914.474,-316.984C904.657,-290.87 889.497,-250.546 880.748,-227.273"/>
<polygon fill="midnightblue" stroke="midnightblue" points="883.915,-225.751 877.12,-217.622 877.363,-228.214 883.915,-225.751"/>
</g>
<!-- Node9 -->
<g id="node9" class="node"><title>Node9</title>
<polygon fill="none" stroke="#bfbfbf" points="318.878,-74.5 318.878,-93.5 374.878,-93.5 374.878,-74.5 318.878,-74.5"/>
<text text-anchor="middle" x="346.878" y="-81.5" font-family="Helvetica,sans-Serif" font-size="10.00">Rtypes.h</text>
</g>
<!-- Node1&#45;&gt;Node9 -->
<g id="edge31" class="edge"><title>Node1&#45;&gt;Node9</title>
<path fill="none" stroke="midnightblue" d="M835.572,-337.195C617.679,-324.422 68.2387,-286.285 15.8785,-224 -67.8744,-124.371 205.268,-94.7899 308.773,-87.2711"/>
<polygon fill="midnightblue" stroke="midnightblue" points="309.083,-90.7581 318.816,-86.5725 308.597,-83.775 309.083,-90.7581"/>
</g>
<!-- Node14 -->
<g id="node14" class="node"><title>Node14</title>
<g id="a_node14"><a xlink:href="../../dd/d76/Cartesian3D_8h.html" target="_top" xlink:title="MathUtils/Cartesian3D.h">
<polygon fill="none" stroke="black" points="946.378,-136.5 946.378,-155.5 1071.38,-155.5 1071.38,-136.5 946.378,-136.5"/>
<text text-anchor="middle" x="1008.88" y="-143.5" font-family="Helvetica,sans-Serif" font-size="10.00">MathUtils/Cartesian3D.h</text>
</a>
</g>
</g>
<!-- Node1&#45;&gt;Node14 -->
<g id="edge15" class="edge"><title>Node1&#45;&gt;Node14</title>
<path fill="none" stroke="midnightblue" d="M1007.81,-316.917C1026.76,-307.88 1045.27,-295.852 1058.88,-280 1084.77,-249.835 1093.45,-227.146 1074.88,-192 1067.45,-177.953 1053.46,-167.467 1040.26,-160.167"/>
<polygon fill="midnightblue" stroke="midnightblue" points="1041.84,-157.043 1031.34,-155.618 1038.66,-163.279 1041.84,-157.043"/>
</g>
<!-- Node25 -->
<g id="node25" class="node"><title>Node25</title>
<g id="a_node25"><a xlink:href="../../d1/def/PHOS_2base_2include_2PHOSBase_2Hit_8h.html" target="_top" xlink:title="PHOSBase/Hit.h">
<polygon fill="none" stroke="black" points="957.878,-260.5 957.878,-279.5 1049.88,-279.5 1049.88,-260.5 957.878,-260.5"/>
<text text-anchor="middle" x="1003.88" y="-267.5" font-family="Helvetica,sans-Serif" font-size="10.00">PHOSBase/Hit.h</text>
</a>
</g>
</g>
<!-- Node1&#45;&gt;Node25 -->
<g id="edge27" class="edge"><title>Node1&#45;&gt;Node25</title>
<path fill="none" stroke="midnightblue" d="M952.309,-316.768C963.677,-306.679 976.409,-295.379 986.378,-286.532"/>
<polygon fill="midnightblue" stroke="midnightblue" points="988.855,-289.013 994.011,-279.757 984.209,-283.777 988.855,-289.013"/>
</g>
<!-- Node27 -->
<g id="node27" class="node"><title>Node27</title>
<polygon fill="none" stroke="#bfbfbf" points="1121.88,-260.5 1121.88,-279.5 1201.88,-279.5 1201.88,-260.5 1121.88,-260.5"/>
<text text-anchor="middle" x="1161.88" y="-267.5" font-family="Helvetica,sans-Serif" font-size="10.00">RStringView.h</text>
</g>
<!-- Node1&#45;&gt;Node27 -->
<g id="edge30" class="edge"><title>Node1&#45;&gt;Node27</title>
<path fill="none" stroke="midnightblue" d="M1007.79,-316.968C1047.28,-305.188 1092.43,-291.718 1123.6,-282.419"/>
<polygon fill="midnightblue" stroke="midnightblue" points="1124.62,-285.767 1133.2,-279.554 1122.62,-279.059 1124.62,-285.767"/>
</g>
<!-- Node2&#45;&gt;Node3 -->
<g id="edge2" class="edge"><title>Node2&#45;&gt;Node3</title>
<path fill="none" stroke="midnightblue" d="M477.536,-265.483C582.741,-259.259 779.771,-244.952 803.878,-224 820.376,-209.662 824.119,-183.627 824.573,-165.835"/>
<polygon fill="midnightblue" stroke="midnightblue" points="828.073,-165.746 824.506,-155.77 821.073,-165.793 828.073,-165.746"/>
</g>
<!-- Node2&#45;&gt;Node4 -->
<g id="edge3" class="edge"><title>Node2&#45;&gt;Node4</title>
<path fill="none" stroke="midnightblue" d="M477.504,-267.927C562.063,-265.219 713.039,-255.879 837.878,-224 840.865,-223.237 843.929,-222.271 846.947,-221.199"/>
<polygon fill="midnightblue" stroke="midnightblue" points="848.259,-224.444 856.284,-217.526 845.697,-217.929 848.259,-224.444"/>
</g>
<!-- Node5 -->
<g id="node5" class="node"><title>Node5</title>
<polygon fill="none" stroke="#bfbfbf" points="343.878,-198.5 343.878,-217.5 395.878,-217.5 395.878,-198.5 343.878,-198.5"/>
<text text-anchor="middle" x="369.878" y="-205.5" font-family="Helvetica,sans-Serif" font-size="10.00">memory</text>
</g>
<!-- Node2&#45;&gt;Node5 -->
<g id="edge4" class="edge"><title>Node2&#45;&gt;Node5</title>
<path fill="none" stroke="midnightblue" d="M405.861,-260.403C399.561,-251.403 389.507,-237.041 381.626,-225.782"/>
<polygon fill="midnightblue" stroke="midnightblue" points="384.487,-223.766 375.885,-217.581 378.752,-227.78 384.487,-223.766"/>
</g>
<!-- Node6 -->
<g id="node6" class="node"><title>Node6</title>
<polygon fill="none" stroke="#bfbfbf" points="414.378,-198.5 414.378,-217.5 493.378,-217.5 493.378,-198.5 414.378,-198.5"/>
<text text-anchor="middle" x="453.878" y="-205.5" font-family="Helvetica,sans-Serif" font-size="10.00">FairDetector.h</text>
</g>
<!-- Node2&#45;&gt;Node6 -->
<g id="edge5" class="edge"><title>Node2&#45;&gt;Node6</title>
<path fill="none" stroke="midnightblue" d="M417.896,-260.403C424.196,-251.403 434.25,-237.041 442.131,-225.782"/>
<polygon fill="midnightblue" stroke="midnightblue" points="445.005,-227.78 447.872,-217.581 439.27,-223.766 445.005,-227.78"/>
</g>
<!-- Node7 -->
<g id="node7" class="node"><title>Node7</title>
<polygon fill="none" stroke="#bfbfbf" points="511.878,-198.5 511.878,-217.5 611.878,-217.5 611.878,-198.5 511.878,-198.5"/>
<text text-anchor="middle" x="561.878" y="-205.5" font-family="Helvetica,sans-Serif" font-size="10.00">FairRootManager.h</text>
</g>
<!-- Node2&#45;&gt;Node7 -->
<g id="edge6" class="edge"><title>Node2&#45;&gt;Node7</title>
<path fill="none" stroke="midnightblue" d="M433.37,-260.403C458.989,-250.156 501.988,-232.956 531.123,-221.302"/>
<polygon fill="midnightblue" stroke="midnightblue" points="532.442,-224.544 540.427,-217.581 529.842,-218.045 532.442,-224.544"/>
</g>
<!-- Node8 -->
<g id="node8" class="node"><title>Node8</title>
<g id="a_node8"><a xlink:href="../../d0/d9a/MaterialManager_8h.html" target="_top" xlink:title="DetectorsBase/MaterialManager.h">
<polygon fill="none" stroke="black" points="630.378,-198.5 630.378,-217.5 795.378,-217.5 795.378,-198.5 630.378,-198.5"/>
<text text-anchor="middle" x="712.878" y="-205.5" font-family="Helvetica,sans-Serif" font-size="10.00">DetectorsBase/MaterialManager.h</text>
</a>
</g>
</g>
<!-- Node2&#45;&gt;Node8 -->
<g id="edge7" class="edge"><title>Node2&#45;&gt;Node8</title>
<path fill="none" stroke="midnightblue" d="M454.685,-260.467C508.734,-249.693 601.697,-231.162 660.091,-219.522"/>
<polygon fill="midnightblue" stroke="midnightblue" points="661.097,-222.891 670.22,-217.503 659.729,-216.026 661.097,-222.891"/>
</g>
<!-- Node2&#45;&gt;Node9 -->
<g id="edge10" class="edge"><title>Node2&#45;&gt;Node9</title>
<path fill="none" stroke="midnightblue" d="M383.506,-260.495C366.126,-253.653 345.282,-242.13 334.878,-224 312.751,-185.439 328.523,-130.717 339.222,-102.832"/>
<polygon fill="midnightblue" stroke="midnightblue" points="342.472,-104.131 342.985,-93.5482 335.985,-101.501 342.472,-104.131"/>
</g>
<!-- Node10 -->
<g id="node10" class="node"><title>Node10</title>
<polygon fill="none" stroke="#bfbfbf" points="25.3785,-198.5 25.3785,-217.5 78.3785,-217.5 78.3785,-198.5 25.3785,-198.5"/>
<text text-anchor="middle" x="51.8785" y="-205.5" font-family="Helvetica,sans-Serif" font-size="10.00">cxxabi.h</text>
</g>
<!-- Node2&#45;&gt;Node10 -->
<g id="edge11" class="edge"><title>Node2&#45;&gt;Node10</title>
<path fill="none" stroke="midnightblue" d="M346.09,-265.063C279.687,-259.892 174.685,-248.418 86.8785,-224 84.2233,-223.262 81.5048,-222.366 78.8139,-221.384"/>
<polygon fill="midnightblue" stroke="midnightblue" points="79.9358,-218.063 69.3522,-217.574 77.3214,-224.556 79.9358,-218.063"/>
</g>
<!-- Node11 -->
<g id="node11" class="node"><title>Node11</title>
<polygon fill="none" stroke="#bfbfbf" points="96.3785,-198.5 96.3785,-217.5 147.378,-217.5 147.378,-198.5 96.3785,-198.5"/>
<text text-anchor="middle" x="121.878" y="-205.5" font-family="Helvetica,sans-Serif" font-size="10.00">typeinfo</text>
</g>
<!-- Node2&#45;&gt;Node11 -->
<g id="edge12" class="edge"><title>Node2&#45;&gt;Node11</title>
<path fill="none" stroke="midnightblue" d="M346.202,-261.638C294.125,-254.795 219.884,-242.787 156.878,-224 154.384,-223.256 151.829,-222.386 149.291,-221.447"/>
<polygon fill="midnightblue" stroke="midnightblue" points="150.333,-218.093 139.75,-217.597 147.714,-224.585 150.333,-218.093"/>
</g>
<!-- Node12 -->
<g id="node12" class="node"><title>Node12</title>
<polygon fill="none" stroke="#bfbfbf" points="165.878,-198.5 165.878,-217.5 227.878,-217.5 227.878,-198.5 165.878,-198.5"/>
<text text-anchor="middle" x="196.878" y="-205.5" font-family="Helvetica,sans-Serif" font-size="10.00">type_traits</text>
</g>
<!-- Node2&#45;&gt;Node12 -->
<g id="edge13" class="edge"><title>Node2&#45;&gt;Node12</title>
<path fill="none" stroke="midnightblue" d="M373.998,-260.497C338.328,-252.2 283.554,-238.706 236.878,-224 233.932,-223.072 230.885,-222.048 227.849,-220.985"/>
<polygon fill="midnightblue" stroke="midnightblue" points="228.915,-217.649 218.321,-217.523 226.524,-224.228 228.915,-217.649"/>
</g>
<!-- Node13 -->
<g id="node13" class="node"><title>Node13</title>
<polygon fill="none" stroke="#bfbfbf" points="246.378,-198.5 246.378,-217.5 287.378,-217.5 287.378,-198.5 246.378,-198.5"/>
<text text-anchor="middle" x="266.878" y="-205.5" font-family="Helvetica,sans-Serif" font-size="10.00">string</text>
</g>
<!-- Node2&#45;&gt;Node13 -->
<g id="edge14" class="edge"><title>Node2&#45;&gt;Node13</title>
<path fill="none" stroke="midnightblue" d="M390.748,-260.477C368.57,-251.503 332.71,-236.912 301.878,-224 300.049,-223.234 298.168,-222.441 296.272,-221.639"/>
<polygon fill="midnightblue" stroke="midnightblue" points="297.416,-218.322 286.844,-217.624 294.673,-224.762 297.416,-218.322"/>
</g>
<!-- Node8&#45;&gt;Node3 -->
<g id="edge9" class="edge"><title>Node8&#45;&gt;Node3</title>
<path fill="none" stroke="midnightblue" d="M728.782,-198.403C747.163,-188.468 777.635,-171.997 799.123,-160.381"/>
<polygon fill="midnightblue" stroke="midnightblue" points="800.872,-163.415 808.004,-155.581 797.543,-157.257 800.872,-163.415"/>
</g>
<!-- Node8&#45;&gt;Node9 -->
<g id="edge8" class="edge"><title>Node8&#45;&gt;Node9</title>
<path fill="none" stroke="midnightblue" d="M687.142,-198.421C622.96,-177.027 455.716,-121.279 382.302,-96.8079"/>
<polygon fill="midnightblue" stroke="midnightblue" points="383.18,-93.4113 372.586,-93.5693 380.966,-100.052 383.18,-93.4113"/>
</g>
<!-- Node14&#45;&gt;Node9 -->
<g id="edge19" class="edge"><title>Node14&#45;&gt;Node9</title>
<path fill="none" stroke="midnightblue" d="M946.254,-141.443C842.163,-135.207 627.054,-120.94 445.878,-100 425.719,-97.6701 403.359,-94.3459 384.997,-91.4188"/>
<polygon fill="midnightblue" stroke="midnightblue" points="385.403,-87.9389 374.972,-89.7972 384.285,-94.8491 385.403,-87.9389"/>
</g>
<!-- Node15 -->
<g id="node15" class="node"><title>Node15</title>
<polygon fill="none" stroke="#bfbfbf" points="1479.38,-74.5 1479.38,-93.5 1628.38,-93.5 1628.38,-74.5 1479.38,-74.5"/>
<text text-anchor="middle" x="1553.88" y="-81.5" font-family="Helvetica,sans-Serif" font-size="10.00">Math/GenVector/Rotation3D.h</text>
</g>
<!-- Node14&#45;&gt;Node15 -->
<g id="edge16" class="edge"><title>Node14&#45;&gt;Node15</title>
<path fill="none" stroke="midnightblue" d="M1071.47,-140.535C1160.47,-133.815 1328.6,-119.753 1470.88,-100 1480.46,-98.67 1490.62,-97.0276 1500.43,-95.3227"/>
<polygon fill="midnightblue" stroke="midnightblue" points="1501.25,-98.7321 1510.48,-93.5338 1500.02,-91.8404 1501.25,-98.7321"/>
</g>
<!-- Node16 -->
<g id="node16" class="node"><title>Node16</title>
<polygon fill="none" stroke="#bfbfbf" points="454.878,-74.5 454.878,-93.5 610.878,-93.5 610.878,-74.5 454.878,-74.5"/>
<text text-anchor="middle" x="532.878" y="-81.5" font-family="Helvetica,sans-Serif" font-size="10.00">Math/GenVector/Transform3D.h</text>
</g>
<!-- Node14&#45;&gt;Node16 -->
<g id="edge17" class="edge"><title>Node14&#45;&gt;Node16</title>
<path fill="none" stroke="midnightblue" d="M946.082,-138.82C869.067,-130.992 734.611,-116.514 619.878,-100 610.093,-98.5916 599.716,-96.9407 589.667,-95.2589"/>
<polygon fill="midnightblue" stroke="midnightblue" points="590.205,-91.8003 579.76,-93.5746 589.032,-98.7013 590.205,-91.8003"/>
</g>
<!-- Node17 -->
<g id="node17" class="node"><title>Node17</title>
<polygon fill="none" stroke="#bfbfbf" points="628.878,-74.5 628.878,-93.5 788.878,-93.5 788.878,-74.5 628.878,-74.5"/>
<text text-anchor="middle" x="708.878" y="-81.5" font-family="Helvetica,sans-Serif" font-size="10.00">Math/GenVector/Translation3D.h</text>
</g>
<!-- Node14&#45;&gt;Node17 -->
<g id="edge18" class="edge"><title>Node14&#45;&gt;Node17</title>
<path fill="none" stroke="midnightblue" d="M966.214,-136.467C912.345,-125.693 819.69,-107.162 761.49,-95.5223"/>
<polygon fill="midnightblue" stroke="midnightblue" points="761.888,-92.0326 751.395,-93.5034 760.515,-98.8967 761.888,-92.0326"/>
</g>
<!-- Node18 -->
<g id="node18" class="node"><title>Node18</title>
<polygon fill="none" stroke="#bfbfbf" points="806.878,-74.5 806.878,-93.5 882.878,-93.5 882.878,-74.5 806.878,-74.5"/>
<text text-anchor="middle" x="844.878" y="-81.5" font-family="Helvetica,sans-Serif" font-size="10.00">TGeoMatrix.h</text>
</g>
<!-- Node14&#45;&gt;Node18 -->
<g id="edge20" class="edge"><title>Node14&#45;&gt;Node18</title>
<path fill="none" stroke="midnightblue" d="M985.381,-136.403C957.249,-126.111 909.949,-108.806 878.09,-97.1504"/>
<polygon fill="midnightblue" stroke="midnightblue" points="878.926,-93.7295 868.332,-93.5806 876.521,-100.303 878.926,-93.7295"/>
</g>
<!-- Node19 -->
<g id="node19" class="node"><title>Node19</title>
<polygon fill="none" stroke="#bfbfbf" points="901.378,-69 901.378,-99 1052.38,-99 1052.38,-69 901.378,-69"/>
<text text-anchor="start" x="909.378" y="-87" font-family="Helvetica,sans-Serif" font-size="10.00">Math/GenVector/Displacement</text>
<text text-anchor="middle" x="976.878" y="-76" font-family="Helvetica,sans-Serif" font-size="10.00">Vector3D.h</text>
</g>
<!-- Node14&#45;&gt;Node19 -->
<g id="edge21" class="edge"><title>Node14&#45;&gt;Node19</title>
<path fill="none" stroke="midnightblue" d="M1004.29,-136.403C1000.36,-129.037 994.52,-118.077 989.235,-108.168"/>
<polygon fill="midnightblue" stroke="midnightblue" points="992.214,-106.317 984.42,-99.1408 986.038,-109.611 992.214,-106.317"/>
</g>
<!-- Node20 -->
<g id="node20" class="node"><title>Node20</title>
<polygon fill="none" stroke="#bfbfbf" points="1070.88,-74.5 1070.88,-93.5 1246.88,-93.5 1246.88,-74.5 1070.88,-74.5"/>
<text text-anchor="middle" x="1158.88" y="-81.5" font-family="Helvetica,sans-Serif" font-size="10.00">Math/GenVector/PositionVector3D.h</text>
</g>
<!-- Node14&#45;&gt;Node20 -->
<g id="edge22" class="edge"><title>Node14&#45;&gt;Node20</title>
<path fill="none" stroke="midnightblue" d="M1030.37,-136.403C1055.99,-126.156 1098.99,-108.956 1128.12,-97.3021"/>
<polygon fill="midnightblue" stroke="midnightblue" points="1129.44,-100.544 1137.43,-93.5806 1126.84,-94.0449 1129.44,-100.544"/>
</g>
<!-- Node21 -->
<g id="node21" class="node"><title>Node21</title>
<g id="a_node21"><a xlink:href="../../d2/dd0/Cartesian2D_8h.html" target="_top" xlink:title="MathUtils/Cartesian2D.h">
<polygon fill="none" stroke="black" points="1264.38,-74.5 1264.38,-93.5 1389.38,-93.5 1389.38,-74.5 1264.38,-74.5"/>
<text text-anchor="middle" x="1326.88" y="-81.5" font-family="Helvetica,sans-Serif" font-size="10.00">MathUtils/Cartesian2D.h</text>
</a>
</g>
</g>
<!-- Node14&#45;&gt;Node21 -->
<g id="edge23" class="edge"><title>Node14&#45;&gt;Node21</title>
<path fill="none" stroke="midnightblue" d="M1057.49,-136.47C1107.16,-127.668 1186.49,-113.377 1254.88,-100 1262.03,-98.6014 1269.57,-97.081 1276.97,-95.5626"/>
<polygon fill="midnightblue" stroke="midnightblue" points="1277.84,-98.9566 1286.93,-93.505 1276.42,-92.1015 1277.84,-98.9566"/>
</g>
<!-- Node24 -->
<g id="node24" class="node"><title>Node24</title>
<polygon fill="none" stroke="#bfbfbf" points="1407.88,-74.5 1407.88,-93.5 1461.88,-93.5 1461.88,-74.5 1407.88,-74.5"/>
<text text-anchor="middle" x="1434.88" y="-81.5" font-family="Helvetica,sans-Serif" font-size="10.00">iostream</text>
</g>
<!-- Node14&#45;&gt;Node24 -->
<g id="edge26" class="edge"><title>Node14&#45;&gt;Node24</title>
<path fill="none" stroke="midnightblue" d="M1071.46,-142.946C1149.12,-139.22 1285.08,-128.822 1397.88,-100 1400.87,-99.2353 1403.94,-98.2824 1406.98,-97.2298"/>
<polygon fill="midnightblue" stroke="midnightblue" points="1408.29,-100.474 1416.39,-93.637 1405.8,-93.934 1408.29,-100.474"/>
</g>
<!-- Node22 -->
<g id="node22" class="node"><title>Node22</title>
<polygon fill="none" stroke="#bfbfbf" points="1160.38,-1 1160.38,-31 1311.38,-31 1311.38,-1 1160.38,-1"/>
<text text-anchor="start" x="1168.38" y="-19" font-family="Helvetica,sans-Serif" font-size="10.00">Math/GenVector/Displacement</text>
<text text-anchor="middle" x="1235.88" y="-8" font-family="Helvetica,sans-Serif" font-size="10.00">Vector2D.h</text>
</g>
<!-- Node21&#45;&gt;Node22 -->
<g id="edge24" class="edge"><title>Node21&#45;&gt;Node22</title>
<path fill="none" stroke="midnightblue" d="M1314.98,-74.3717C1302.1,-65.0286 1281.1,-49.7966 1263.97,-37.375"/>
<polygon fill="midnightblue" stroke="midnightblue" points="1265.58,-34.2194 1255.43,-31.1815 1261.47,-39.8859 1265.58,-34.2194"/>
</g>
<!-- Node23 -->
<g id="node23" class="node"><title>Node23</title>
<polygon fill="none" stroke="#bfbfbf" points="1329.88,-6.5 1329.88,-25.5 1505.88,-25.5 1505.88,-6.5 1329.88,-6.5"/>
<text text-anchor="middle" x="1417.88" y="-13.5" font-family="Helvetica,sans-Serif" font-size="10.00">Math/GenVector/PositionVector2D.h</text>
</g>
<!-- Node21&#45;&gt;Node23 -->
<g id="edge25" class="edge"><title>Node21&#45;&gt;Node23</title>
<path fill="none" stroke="midnightblue" d="M1338.78,-74.3717C1353.76,-63.5015 1379.74,-44.6602 1397.82,-31.5474"/>
<polygon fill="midnightblue" stroke="midnightblue" points="1399.94,-34.3349 1405.98,-25.6305 1395.83,-28.6684 1399.94,-34.3349"/>
</g>
<!-- Node26 -->
<g id="node26" class="node"><title>Node26</title>
<g id="a_node26"><a xlink:href="../../d4/d25/BaseHits_8h.html" target="_top" xlink:title="SimulationDataFormat\l/BaseHits.h">
<polygon fill="none" stroke="black" points="951.878,-193 951.878,-223 1065.88,-223 1065.88,-193 951.878,-193"/>
<text text-anchor="start" x="959.878" y="-211" font-family="Helvetica,sans-Serif" font-size="10.00">SimulationDataFormat</text>
<text text-anchor="middle" x="1008.88" y="-200" font-family="Helvetica,sans-Serif" font-size="10.00">/BaseHits.h</text>
</a>
</g>
</g>
<!-- Node25&#45;&gt;Node26 -->
<g id="edge28" class="edge"><title>Node25&#45;&gt;Node26</title>
<path fill="none" stroke="midnightblue" d="M1004.59,-260.403C1005.18,-253.341 1006.05,-242.975 1006.85,-233.399"/>
<polygon fill="midnightblue" stroke="midnightblue" points="1010.36,-233.397 1007.7,-223.141 1003.38,-232.816 1010.36,-233.397"/>
</g>
<!-- Node26&#45;&gt;Node14 -->
<g id="edge29" class="edge"><title>Node26&#45;&gt;Node14</title>
<path fill="none" stroke="midnightblue" d="M1008.88,-192.781C1008.88,-184.781 1008.88,-174.689 1008.88,-166.017"/>
<polygon fill="midnightblue" stroke="midnightblue" points="1012.38,-165.73 1008.88,-155.731 1005.38,-165.731 1012.38,-165.73"/>
</g>
</g>
</svg>
