<?xml version="1.0" encoding="UTF-8" standalone="no"?>
<!DOCTYPE svg PUBLIC "-//W3C//DTD SVG 1.1//EN"
 "http://www.w3.org/Graphics/SVG/1.1/DTD/svg11.dtd">
<!-- Generated by graphviz version 2.36.0 (20140111.2315)
 -->
<!-- Title: /home/travis/build/AliceO2Group/AliceO2/Common/Utils/test/testTreeStream.cxx Pages: 1 -->
<svg width="2461pt" height="410pt"
 viewBox="0.00 0.00 2461.00 410.00" xmlns="http://www.w3.org/2000/svg" xmlns:xlink="http://www.w3.org/1999/xlink">
<g id="graph0" class="graph" transform="scale(1 1) rotate(0) translate(4 406)">
<title>/home/travis/build/AliceO2Group/AliceO2/Common/Utils/test/testTreeStream.cxx</title>
<!-- Node1 -->
<g id="node1" class="node"><title>Node1</title>
<polygon fill="#bfbfbf" stroke="black" points="286.5,-360.5 286.5,-401.5 477.5,-401.5 477.5,-360.5 286.5,-360.5"/>
<text text-anchor="start" x="294.5" y="-389.5" font-family="Helvetica,sans-Serif" font-size="10.00">/home/travis/build</text>
<text text-anchor="start" x="294.5" y="-378.5" font-family="Helvetica,sans-Serif" font-size="10.00">/AliceO2Group/AliceO2</text>
<text text-anchor="middle" x="382" y="-367.5" font-family="Helvetica,sans-Serif" font-size="10.00">/Common/Utils/test/testTreeStream.cxx</text>
</g>
<!-- Node2 -->
<g id="node2" class="node"><title>Node2</title>
<polygon fill="none" stroke="#bfbfbf" points="-0.5,-304.5 -0.5,-323.5 46.5,-323.5 46.5,-304.5 -0.5,-304.5"/>
<text text-anchor="middle" x="23" y="-311.5" font-family="Helvetica,sans-Serif" font-size="10.00">TFile.h</text>
</g>
<!-- Node1&#45;&gt;Node2 -->
<g id="edge1" class="edge"><title>Node1&#45;&gt;Node2</title>
<path fill="none" stroke="midnightblue" d="M286.31,-366.043C223.577,-356.31 139.63,-342.186 56.5839,-323.949"/>
<polygon fill="midnightblue" stroke="midnightblue" points="57.2457,-320.511 46.7252,-321.763 55.7306,-327.345 57.2457,-320.511"/>
</g>
<!-- Node3 -->
<g id="node3" class="node"><title>Node3</title>
<polygon fill="none" stroke="#bfbfbf" points="65,-304.5 65,-323.5 133,-323.5 133,-304.5 65,-304.5"/>
<text text-anchor="middle" x="99" y="-311.5" font-family="Helvetica,sans-Serif" font-size="10.00">TRandom.h</text>
</g>
<!-- Node1&#45;&gt;Node3 -->
<g id="edge2" class="edge"><title>Node1&#45;&gt;Node3</title>
<path fill="none" stroke="midnightblue" d="M297.091,-360.498C246.36,-348.846 184.009,-334.525 142.972,-325.1"/>
<polygon fill="midnightblue" stroke="midnightblue" points="143.547,-321.641 133.018,-322.813 141.98,-328.463 143.547,-321.641"/>
</g>
<!-- Node4 -->
<g id="node4" class="node"><title>Node4</title>
<polygon fill="none" stroke="#bfbfbf" points="147,-192.5 147,-211.5 203,-211.5 203,-192.5 147,-192.5"/>
<text text-anchor="middle" x="175" y="-199.5" font-family="Helvetica,sans-Serif" font-size="10.00">TString.h</text>
</g>
<!-- Node1&#45;&gt;Node4 -->
<g id="edge3" class="edge"><title>Node1&#45;&gt;Node4</title>
<path fill="none" stroke="midnightblue" d="M309.545,-360.438C263.695,-343.903 207.966,-315.168 180,-268 171.793,-254.157 171.16,-235.64 172.219,-221.911"/>
<polygon fill="midnightblue" stroke="midnightblue" points="175.727,-222.043 173.378,-211.712 168.772,-221.253 175.727,-222.043"/>
</g>
<!-- Node5 -->
<g id="node5" class="node"><title>Node5</title>
<polygon fill="none" stroke="#bfbfbf" points="2249.5,-304.5 2249.5,-323.5 2316.5,-323.5 2316.5,-304.5 2249.5,-304.5"/>
<text text-anchor="middle" x="2283" y="-311.5" font-family="Helvetica,sans-Serif" font-size="10.00">TVectorD.h</text>
</g>
<!-- Node1&#45;&gt;Node5 -->
<g id="edge4" class="edge"><title>Node1&#45;&gt;Node5</title>
<path fill="none" stroke="midnightblue" d="M477.698,-379.07C806.578,-375.568 1889.22,-361.413 2235,-324 2236.3,-323.859 2237.63,-323.702 2238.96,-323.532"/>
<polygon fill="midnightblue" stroke="midnightblue" points="2239.89,-326.932 2249.27,-322.005 2238.86,-320.008 2239.89,-326.932"/>
</g>
<!-- Node6 -->
<g id="node6" class="node"><title>Node6</title>
<polygon fill="none" stroke="#bfbfbf" points="2334.5,-304.5 2334.5,-323.5 2453.5,-323.5 2453.5,-304.5 2334.5,-304.5"/>
<text text-anchor="middle" x="2394" y="-311.5" font-family="Helvetica,sans-Serif" font-size="10.00">boost/test/unit_test.hpp</text>
</g>
<!-- Node1&#45;&gt;Node6 -->
<g id="edge5" class="edge"><title>Node1&#45;&gt;Node6</title>
<path fill="none" stroke="midnightblue" d="M477.712,-380.654C759.283,-381.848 1609.35,-380.225 2324.21,-323.965"/>
<polygon fill="midnightblue" stroke="midnightblue" points="2324.51,-327.453 2334.2,-323.175 2323.95,-320.475 2324.51,-327.453"/>
</g>
<!-- Node7 -->
<g id="node7" class="node"><title>Node7</title>
<polygon fill="none" stroke="#bfbfbf" points="2139,-74.5 2139,-93.5 2193,-93.5 2193,-74.5 2139,-74.5"/>
<text text-anchor="middle" x="2166" y="-81.5" font-family="Helvetica,sans-Serif" font-size="10.00">iostream</text>
</g>
<!-- Node1&#45;&gt;Node7 -->
<g id="edge6" class="edge"><title>Node1&#45;&gt;Node7</title>
<path fill="none" stroke="midnightblue" d="M477.641,-378.762C855.124,-373.256 2221,-347.239 2221,-259 2221,-259 2221,-259 2221,-201 2221,-162.581 2196.06,-123.307 2179.77,-101.749"/>
<polygon fill="midnightblue" stroke="midnightblue" points="2182.34,-99.3555 2173.42,-93.6478 2176.84,-103.676 2182.34,-99.3555"/>
</g>
<!-- Node8 -->
<g id="node8" class="node"><title>Node8</title>
<g id="a_node8"><a xlink:href="../../d7/d65/Detectors_2Base_2include_2DetectorsBase_2Track_8h.html" target="_top" xlink:title="DetectorsBase/Track.h">
<polygon fill="none" stroke="black" points="1364,-304.5 1364,-323.5 1482,-323.5 1482,-304.5 1364,-304.5"/>
<text text-anchor="middle" x="1423" y="-311.5" font-family="Helvetica,sans-Serif" font-size="10.00">DetectorsBase/Track.h</text>
</a>
</g>
</g>
<!-- Node1&#45;&gt;Node8 -->
<g id="edge7" class="edge"><title>Node1&#45;&gt;Node8</title>
<path fill="none" stroke="midnightblue" d="M477.605,-374.03C685.059,-361.077 1172.4,-330.647 1353.57,-319.335"/>
<polygon fill="midnightblue" stroke="midnightblue" points="1354.01,-322.815 1363.77,-318.698 1353.57,-315.828 1354.01,-322.815"/>
</g>
<!-- Node41 -->
<g id="node41" class="node"><title>Node41</title>
<g id="a_node41"><a xlink:href="../../d2/dec/TreeStream_8h.html" target="_top" xlink:title="CommonUtils/TreeStream.h">
<polygon fill="none" stroke="black" points="189.5,-248.5 189.5,-267.5 328.5,-267.5 328.5,-248.5 189.5,-248.5"/>
<text text-anchor="middle" x="259" y="-255.5" font-family="Helvetica,sans-Serif" font-size="10.00">CommonUtils/TreeStream.h</text>
</a>
</g>
</g>
<!-- Node1&#45;&gt;Node41 -->
<g id="edge55" class="edge"><title>Node1&#45;&gt;Node41</title>
<path fill="none" stroke="midnightblue" d="M330.028,-360.371C312.433,-351.544 293.975,-339.547 281,-324 269.917,-310.72 264.329,-291.596 261.568,-277.529"/>
<polygon fill="midnightblue" stroke="midnightblue" points="265,-276.83 259.909,-267.539 258.095,-277.977 265,-276.83"/>
</g>
<!-- Node43 -->
<g id="node43" class="node"><title>Node43</title>
<g id="a_node43"><a xlink:href="../../d1/d22/TreeStreamRedirector_8h.html" target="_top" xlink:title="CommonUtils/TreeStreamRedirector.h">
<polygon fill="none" stroke="black" points="290,-304.5 290,-323.5 474,-323.5 474,-304.5 290,-304.5"/>
<text text-anchor="middle" x="382" y="-311.5" font-family="Helvetica,sans-Serif" font-size="10.00">CommonUtils/TreeStreamRedirector.h</text>
</a>
</g>
</g>
<!-- Node1&#45;&gt;Node43 -->
<g id="edge59" class="edge"><title>Node1&#45;&gt;Node43</title>
<path fill="none" stroke="midnightblue" d="M382,-360.498C382,-352.065 382,-342.235 382,-333.874"/>
<polygon fill="midnightblue" stroke="midnightblue" points="385.5,-333.652 382,-323.652 378.5,-333.653 385.5,-333.652"/>
</g>
<!-- Node8&#45;&gt;Node7 -->
<g id="edge14" class="edge"><title>Node8&#45;&gt;Node7</title>
<path fill="none" stroke="midnightblue" d="M1482.25,-305.237C1533.11,-297.876 1608.09,-285.356 1672,-268 1853.61,-218.678 2062.42,-130.419 2137.38,-97.6784"/>
<polygon fill="midnightblue" stroke="midnightblue" points="2138.89,-100.834 2146.65,-93.6126 2136.08,-94.4229 2138.89,-100.834"/>
</g>
<!-- Node9 -->
<g id="node9" class="node"><title>Node9</title>
<polygon fill="none" stroke="#bfbfbf" points="427,-74.5 427,-93.5 483,-93.5 483,-74.5 427,-74.5"/>
<text text-anchor="middle" x="455" y="-81.5" font-family="Helvetica,sans-Serif" font-size="10.00">Rtypes.h</text>
</g>
<!-- Node8&#45;&gt;Node9 -->
<g id="edge8" class="edge"><title>Node8&#45;&gt;Node9</title>
<path fill="none" stroke="midnightblue" d="M1363.72,-311.413C1193.87,-306.023 708.779,-284.512 570,-212 520.948,-186.37 482.45,-130.909 465.076,-102.518"/>
<polygon fill="midnightblue" stroke="midnightblue" points="467.95,-100.503 459.829,-93.6984 461.934,-104.082 467.95,-100.503"/>
</g>
<!-- Node10 -->
<g id="node10" class="node"><title>Node10</title>
<polygon fill="none" stroke="#bfbfbf" points="1014,-248.5 1014,-267.5 1070,-267.5 1070,-248.5 1014,-248.5"/>
<text text-anchor="middle" x="1042" y="-255.5" font-family="Helvetica,sans-Serif" font-size="10.00">algorithm</text>
</g>
<!-- Node8&#45;&gt;Node10 -->
<g id="edge9" class="edge"><title>Node8&#45;&gt;Node10</title>
<path fill="none" stroke="midnightblue" d="M1363.84,-307.095C1295.25,-299.82 1178.95,-286.159 1080,-268 1079.9,-267.982 1079.8,-267.963 1079.7,-267.945"/>
<polygon fill="midnightblue" stroke="midnightblue" points="1080.65,-264.566 1070.15,-266.006 1079.26,-271.426 1080.65,-264.566"/>
</g>
<!-- Node11 -->
<g id="node11" class="node"><title>Node11</title>
<polygon fill="none" stroke="#bfbfbf" points="1134,-6.5 1134,-25.5 1172,-25.5 1172,-6.5 1134,-6.5"/>
<text text-anchor="middle" x="1153" y="-13.5" font-family="Helvetica,sans-Serif" font-size="10.00">array</text>
</g>
<!-- Node8&#45;&gt;Node11 -->
<g id="edge10" class="edge"><title>Node8&#45;&gt;Node11</title>
<path fill="none" stroke="midnightblue" d="M1482.3,-310.269C1551.92,-303.503 1658,-280.481 1658,-203 1658,-203 1658,-203 1658,-145 1658,-109.751 1665.58,-91.1553 1639,-68 1604.47,-37.9182 1282.5,-22.3013 1182.49,-18.1474"/>
<polygon fill="midnightblue" stroke="midnightblue" points="1182.34,-14.6385 1172.2,-17.7285 1182.05,-21.6327 1182.34,-14.6385"/>
</g>
<!-- Node12 -->
<g id="node12" class="node"><title>Node12</title>
<polygon fill="none" stroke="#bfbfbf" points="1088.5,-248.5 1088.5,-267.5 1129.5,-267.5 1129.5,-248.5 1088.5,-248.5"/>
<text text-anchor="middle" x="1109" y="-255.5" font-family="Helvetica,sans-Serif" font-size="10.00">cfloat</text>
</g>
<!-- Node8&#45;&gt;Node12 -->
<g id="edge11" class="edge"><title>Node8&#45;&gt;Node12</title>
<path fill="none" stroke="midnightblue" d="M1363.82,-305.978C1308.26,-298.855 1222.72,-286.528 1139.44,-267.817"/>
<polygon fill="midnightblue" stroke="midnightblue" points="1140.09,-264.375 1129.56,-265.564 1138.53,-271.2 1140.09,-264.375"/>
</g>
<!-- Node13 -->
<g id="node13" class="node"><title>Node13</title>
<polygon fill="none" stroke="#bfbfbf" points="1930,-6.5 1930,-25.5 1974,-25.5 1974,-6.5 1930,-6.5"/>
<text text-anchor="middle" x="1952" y="-13.5" font-family="Helvetica,sans-Serif" font-size="10.00">cmath</text>
</g>
<!-- Node8&#45;&gt;Node13 -->
<g id="edge12" class="edge"><title>Node8&#45;&gt;Node13</title>
<path fill="none" stroke="midnightblue" d="M1482.01,-306.33C1648.7,-286.125 2116.51,-219.529 2202,-100 2210.27,-88.4321 2211,-79.0159 2202,-68 2174.91,-34.8238 2046.08,-22.6678 1984.69,-18.7063"/>
<polygon fill="midnightblue" stroke="midnightblue" points="1984.59,-15.1939 1974.39,-18.0785 1984.16,-22.1809 1984.59,-15.1939"/>
</g>
<!-- Node14 -->
<g id="node14" class="node"><title>Node14</title>
<polygon fill="none" stroke="#bfbfbf" points="1148,-248.5 1148,-267.5 1194,-267.5 1194,-248.5 1148,-248.5"/>
<text text-anchor="middle" x="1171" y="-255.5" font-family="Helvetica,sans-Serif" font-size="10.00">cstring</text>
</g>
<!-- Node8&#45;&gt;Node14 -->
<g id="edge13" class="edge"><title>Node8&#45;&gt;Node14</title>
<path fill="none" stroke="midnightblue" d="M1377.09,-304.448C1332.65,-295.962 1263.46,-282.202 1204,-268 1203.9,-267.976 1203.8,-267.952 1203.7,-267.927"/>
<polygon fill="midnightblue" stroke="midnightblue" points="1204.58,-264.542 1194.03,-265.482 1202.87,-271.328 1204.58,-264.542"/>
</g>
<!-- Node15 -->
<g id="node15" class="node"><title>Node15</title>
<polygon fill="none" stroke="#bfbfbf" points="1212.5,-248.5 1212.5,-267.5 1295.5,-267.5 1295.5,-248.5 1212.5,-248.5"/>
<text text-anchor="middle" x="1254" y="-255.5" font-family="Helvetica,sans-Serif" font-size="10.00">Math/SMatrix.h</text>
</g>
<!-- Node8&#45;&gt;Node15 -->
<g id="edge15" class="edge"><title>Node8&#45;&gt;Node15</title>
<path fill="none" stroke="midnightblue" d="M1396.22,-304.444C1367.67,-295.32 1322.27,-280.813 1290.46,-270.651"/>
<polygon fill="midnightblue" stroke="midnightblue" points="1291.24,-267.226 1280.65,-267.516 1289.11,-273.894 1291.24,-267.226"/>
</g>
<!-- Node16 -->
<g id="node16" class="node"><title>Node16</title>
<polygon fill="none" stroke="#bfbfbf" points="1313.5,-248.5 1313.5,-267.5 1398.5,-267.5 1398.5,-248.5 1313.5,-248.5"/>
<text text-anchor="middle" x="1356" y="-255.5" font-family="Helvetica,sans-Serif" font-size="10.00">Math/SVector.h</text>
</g>
<!-- Node8&#45;&gt;Node16 -->
<g id="edge16" class="edge"><title>Node8&#45;&gt;Node16</title>
<path fill="none" stroke="midnightblue" d="M1412.24,-304.324C1402.23,-296.263 1387.11,-284.077 1375.07,-274.369"/>
<polygon fill="midnightblue" stroke="midnightblue" points="1376.94,-271.384 1366.96,-267.834 1372.55,-276.834 1376.94,-271.384"/>
</g>
<!-- Node17 -->
<g id="node17" class="node"><title>Node17</title>
<g id="a_node17"><a xlink:href="../../d4/de2/BaseCluster_8h.html" target="_top" xlink:title="DetectorsBase/BaseCluster.h">
<polygon fill="none" stroke="black" points="1416.5,-248.5 1416.5,-267.5 1563.5,-267.5 1563.5,-248.5 1416.5,-248.5"/>
<text text-anchor="middle" x="1490" y="-255.5" font-family="Helvetica,sans-Serif" font-size="10.00">DetectorsBase/BaseCluster.h</text>
</a>
</g>
</g>
<!-- Node8&#45;&gt;Node17 -->
<g id="edge17" class="edge"><title>Node8&#45;&gt;Node17</title>
<path fill="none" stroke="midnightblue" d="M1433.76,-304.324C1443.77,-296.263 1458.89,-284.077 1470.93,-274.369"/>
<polygon fill="midnightblue" stroke="midnightblue" points="1473.45,-276.834 1479.04,-267.834 1469.06,-271.384 1473.45,-276.834"/>
</g>
<!-- Node22 -->
<g id="node22" class="node"><title>Node22</title>
<g id="a_node22"><a xlink:href="../../dd/d76/Cartesian3D_8h.html" target="_top" xlink:title="MathUtils/Cartesian3D.h">
<polygon fill="none" stroke="black" points="1345.5,-136.5 1345.5,-155.5 1470.5,-155.5 1470.5,-136.5 1345.5,-136.5"/>
<text text-anchor="middle" x="1408" y="-143.5" font-family="Helvetica,sans-Serif" font-size="10.00">MathUtils/Cartesian3D.h</text>
</a>
</g>
</g>
<!-- Node8&#45;&gt;Node22 -->
<g id="edge54" class="edge"><title>Node8&#45;&gt;Node22</title>
<path fill="none" stroke="midnightblue" d="M1482.42,-309.365C1531.13,-303.486 1589.43,-288.12 1572,-248 1550.89,-199.411 1493.09,-172.279 1452.1,-158.655"/>
<polygon fill="midnightblue" stroke="midnightblue" points="1452.93,-155.245 1442.34,-155.557 1450.81,-161.917 1452.93,-155.245"/>
</g>
<!-- Node38 -->
<g id="node38" class="node"><title>Node38</title>
<g id="a_node38"><a xlink:href="../../d9/ded/Utils_8h.html" target="_top" xlink:title="DetectorsBase/Utils.h">
<polygon fill="none" stroke="black" points="1829.5,-74.5 1829.5,-93.5 1942.5,-93.5 1942.5,-74.5 1829.5,-74.5"/>
<text text-anchor="middle" x="1886" y="-81.5" font-family="Helvetica,sans-Serif" font-size="10.00">DetectorsBase/Utils.h</text>
</a>
</g>
</g>
<!-- Node8&#45;&gt;Node38 -->
<g id="edge53" class="edge"><title>Node8&#45;&gt;Node38</title>
<path fill="none" stroke="midnightblue" d="M1482,-311.003C1534.2,-307.264 1611.28,-296.819 1672,-268 1760.31,-226.086 1841.23,-137.993 1872.42,-101.439"/>
<polygon fill="midnightblue" stroke="midnightblue" points="1875.18,-103.596 1878.95,-93.6911 1869.83,-99.0879 1875.18,-103.596"/>
</g>
<!-- Node39 -->
<g id="node39" class="node"><title>Node39</title>
<g id="a_node39"><a xlink:href="../../d1/daa/Base_2include_2DetectorsBase_2Constants_8h.html" target="_top" xlink:title="DetectorsBase/Constants.h">
<polygon fill="none" stroke="black" points="2124,-6.5 2124,-25.5 2262,-25.5 2262,-6.5 2124,-6.5"/>
<text text-anchor="middle" x="2193" y="-13.5" font-family="Helvetica,sans-Serif" font-size="10.00">DetectorsBase/Constants.h</text>
</a>
</g>
</g>
<!-- Node8&#45;&gt;Node39 -->
<g id="edge52" class="edge"><title>Node8&#45;&gt;Node39</title>
<path fill="none" stroke="midnightblue" d="M1482.04,-309.339C1592.03,-301.176 1834.65,-276.812 2028,-212 2121.3,-180.724 2179.78,-190.254 2219,-100 2228.55,-78.0319 2216.28,-51.4209 2205.57,-34.3552"/>
<polygon fill="midnightblue" stroke="midnightblue" points="2208.4,-32.2994 2199.92,-25.9464 2202.59,-36.2002 2208.4,-32.2994"/>
</g>
<!-- Node17&#45;&gt;Node7 -->
<g id="edge22" class="edge"><title>Node17&#45;&gt;Node7</title>
<path fill="none" stroke="midnightblue" d="M1509.71,-248.353C1561.65,-225.946 1707.01,-165.685 1834,-136 1963.05,-105.835 2001.86,-133.802 2130,-100 2132.82,-99.2552 2135.72,-98.3357 2138.58,-97.3215"/>
<polygon fill="midnightblue" stroke="midnightblue" points="2139.99,-100.529 2148.02,-93.6245 2137.43,-94.0104 2139.99,-100.529"/>
</g>
<!-- Node18 -->
<g id="node18" class="node"><title>Node18</title>
<polygon fill="none" stroke="#bfbfbf" points="1428.5,-192.5 1428.5,-211.5 1487.5,-211.5 1487.5,-192.5 1428.5,-192.5"/>
<text text-anchor="middle" x="1458" y="-199.5" font-family="Helvetica,sans-Serif" font-size="10.00">TObject.h</text>
</g>
<!-- Node17&#45;&gt;Node18 -->
<g id="edge18" class="edge"><title>Node17&#45;&gt;Node18</title>
<path fill="none" stroke="midnightblue" d="M1484.72,-248.083C1480.29,-240.613 1473.84,-229.724 1468.38,-220.52"/>
<polygon fill="midnightblue" stroke="midnightblue" points="1471.29,-218.57 1463.19,-211.751 1465.27,-222.138 1471.29,-218.57"/>
</g>
<!-- Node19 -->
<g id="node19" class="node"><title>Node19</title>
<polygon fill="none" stroke="#bfbfbf" points="501.5,-74.5 501.5,-93.5 542.5,-93.5 542.5,-74.5 501.5,-74.5"/>
<text text-anchor="middle" x="522" y="-81.5" font-family="Helvetica,sans-Serif" font-size="10.00">bitset</text>
</g>
<!-- Node17&#45;&gt;Node19 -->
<g id="edge19" class="edge"><title>Node17&#45;&gt;Node19</title>
<path fill="none" stroke="midnightblue" d="M1416.26,-248.758C1413.13,-248.486 1410.03,-248.232 1407,-248 1317.17,-241.141 674.229,-258.386 597,-212 556.514,-187.683 535.435,-132.484 526.814,-103.523"/>
<polygon fill="midnightblue" stroke="midnightblue" points="530.167,-102.517 524.106,-93.8279 523.426,-104.401 530.167,-102.517"/>
</g>
<!-- Node20 -->
<g id="node20" class="node"><title>Node20</title>
<polygon fill="none" stroke="#bfbfbf" points="1313,-192.5 1313,-211.5 1363,-211.5 1363,-192.5 1313,-192.5"/>
<text text-anchor="middle" x="1338" y="-199.5" font-family="Helvetica,sans-Serif" font-size="10.00">iomanip</text>
</g>
<!-- Node17&#45;&gt;Node20 -->
<g id="edge20" class="edge"><title>Node17&#45;&gt;Node20</title>
<path fill="none" stroke="midnightblue" d="M1465.92,-248.444C1440.46,-239.399 1400.11,-225.064 1371.54,-214.916"/>
<polygon fill="midnightblue" stroke="midnightblue" points="1372.57,-211.566 1361.97,-211.516 1370.22,-218.162 1372.57,-211.566"/>
</g>
<!-- Node21 -->
<g id="node21" class="node"><title>Node21</title>
<polygon fill="none" stroke="#bfbfbf" points="1381.5,-192.5 1381.5,-211.5 1410.5,-211.5 1410.5,-192.5 1381.5,-192.5"/>
<text text-anchor="middle" x="1396" y="-199.5" font-family="Helvetica,sans-Serif" font-size="10.00">ios</text>
</g>
<!-- Node17&#45;&gt;Node21 -->
<g id="edge21" class="edge"><title>Node17&#45;&gt;Node21</title>
<path fill="none" stroke="midnightblue" d="M1474.9,-248.324C1460.01,-239.771 1437.04,-226.574 1419.71,-216.622"/>
<polygon fill="midnightblue" stroke="midnightblue" points="1421.17,-213.423 1410.76,-211.476 1417.68,-219.493 1421.17,-213.423"/>
</g>
<!-- Node17&#45;&gt;Node22 -->
<g id="edge23" class="edge"><title>Node17&#45;&gt;Node22</title>
<path fill="none" stroke="midnightblue" d="M1493.91,-248.257C1499.19,-235.025 1506.76,-209.594 1496,-192 1486.49,-176.46 1469.74,-166.07 1453.38,-159.231"/>
<polygon fill="midnightblue" stroke="midnightblue" points="1454.44,-155.891 1443.85,-155.603 1451.95,-162.433 1454.44,-155.891"/>
</g>
<!-- Node32 -->
<g id="node32" class="node"><title>Node32</title>
<g id="a_node32"><a xlink:href="../../d4/d20/DetMatrixCache_8h.html" target="_top" xlink:title="DetectorsBase/DetMatrixCache.h">
<polygon fill="none" stroke="black" points="606,-192.5 606,-211.5 770,-211.5 770,-192.5 606,-192.5"/>
<text text-anchor="middle" x="688" y="-199.5" font-family="Helvetica,sans-Serif" font-size="10.00">DetectorsBase/DetMatrixCache.h</text>
</a>
</g>
</g>
<!-- Node17&#45;&gt;Node32 -->
<g id="edge35" class="edge"><title>Node17&#45;&gt;Node32</title>
<path fill="none" stroke="midnightblue" d="M1416.25,-248.827C1413.13,-248.536 1410.03,-248.259 1407,-248 1182.09,-228.778 916.934,-214.292 780.071,-207.419"/>
<polygon fill="midnightblue" stroke="midnightblue" points="780.202,-203.921 770.039,-206.917 779.852,-210.913 780.202,-203.921"/>
</g>
<!-- Node22&#45;&gt;Node7 -->
<g id="edge34" class="edge"><title>Node22&#45;&gt;Node7</title>
<path fill="none" stroke="midnightblue" d="M1470.77,-140.628C1492.68,-139.127 1517.42,-137.459 1540,-136 1802.16,-119.065 1874.08,-159.346 2130,-100 2133.07,-99.2888 2136.21,-98.341 2139.29,-97.2661"/>
<polygon fill="midnightblue" stroke="midnightblue" points="2140.78,-100.443 2148.81,-93.5332 2138.22,-93.9265 2140.78,-100.443"/>
</g>
<!-- Node22&#45;&gt;Node9 -->
<g id="edge27" class="edge"><title>Node22&#45;&gt;Node9</title>
<path fill="none" stroke="midnightblue" d="M1345.4,-144.649C1166.45,-143.215 655.158,-135.993 492,-100 488.751,-99.2833 485.42,-98.308 482.151,-97.1963"/>
<polygon fill="midnightblue" stroke="midnightblue" points="483.269,-93.8766 472.678,-93.5741 480.769,-100.415 483.269,-93.8766"/>
</g>
<!-- Node23 -->
<g id="node23" class="node"><title>Node23</title>
<polygon fill="none" stroke="#bfbfbf" points="1306.5,-74.5 1306.5,-93.5 1455.5,-93.5 1455.5,-74.5 1306.5,-74.5"/>
<text text-anchor="middle" x="1381" y="-81.5" font-family="Helvetica,sans-Serif" font-size="10.00">Math/GenVector/Rotation3D.h</text>
</g>
<!-- Node22&#45;&gt;Node23 -->
<g id="edge24" class="edge"><title>Node22&#45;&gt;Node23</title>
<path fill="none" stroke="midnightblue" d="M1404.13,-136.403C1400.2,-127.671 1394,-113.889 1389.01,-102.794"/>
<polygon fill="midnightblue" stroke="midnightblue" points="1392.16,-101.264 1384.86,-93.5806 1385.77,-104.136 1392.16,-101.264"/>
</g>
<!-- Node24 -->
<g id="node24" class="node"><title>Node24</title>
<polygon fill="none" stroke="#bfbfbf" points="1474,-74.5 1474,-93.5 1630,-93.5 1630,-74.5 1474,-74.5"/>
<text text-anchor="middle" x="1552" y="-81.5" font-family="Helvetica,sans-Serif" font-size="10.00">Math/GenVector/Transform3D.h</text>
</g>
<!-- Node22&#45;&gt;Node24 -->
<g id="edge25" class="edge"><title>Node22&#45;&gt;Node24</title>
<path fill="none" stroke="midnightblue" d="M1428.63,-136.403C1453.12,-126.2 1494.15,-109.105 1522.11,-97.4544"/>
<polygon fill="midnightblue" stroke="midnightblue" points="1523.52,-100.658 1531.41,-93.5806 1520.83,-94.196 1523.52,-100.658"/>
</g>
<!-- Node25 -->
<g id="node25" class="node"><title>Node25</title>
<polygon fill="none" stroke="#bfbfbf" points="1961,-74.5 1961,-93.5 2121,-93.5 2121,-74.5 1961,-74.5"/>
<text text-anchor="middle" x="2041" y="-81.5" font-family="Helvetica,sans-Serif" font-size="10.00">Math/GenVector/Translation3D.h</text>
</g>
<!-- Node22&#45;&gt;Node25 -->
<g id="edge26" class="edge"><title>Node22&#45;&gt;Node25</title>
<path fill="none" stroke="midnightblue" d="M1470.68,-140.46C1593.01,-131.491 1859.6,-111.385 1951,-100 1961.83,-98.6509 1973.35,-96.9413 1984.41,-95.163"/>
<polygon fill="midnightblue" stroke="midnightblue" points="1985.1,-98.5968 1994.4,-93.519 1983.96,-91.6897 1985.1,-98.5968"/>
</g>
<!-- Node26 -->
<g id="node26" class="node"><title>Node26</title>
<polygon fill="none" stroke="#bfbfbf" points="1019,-74.5 1019,-93.5 1095,-93.5 1095,-74.5 1019,-74.5"/>
<text text-anchor="middle" x="1057" y="-81.5" font-family="Helvetica,sans-Serif" font-size="10.00">TGeoMatrix.h</text>
</g>
<!-- Node22&#45;&gt;Node26 -->
<g id="edge28" class="edge"><title>Node22&#45;&gt;Node26</title>
<path fill="none" stroke="midnightblue" d="M1345.44,-138.738C1283.59,-131.846 1186.51,-119.14 1104,-100 1099.78,-99.0201 1095.38,-97.8412 1091.06,-96.5803"/>
<polygon fill="midnightblue" stroke="midnightblue" points="1091.77,-93.1384 1081.19,-93.5444 1089.71,-99.8292 1091.77,-93.1384"/>
</g>
<!-- Node27 -->
<g id="node27" class="node"><title>Node27</title>
<polygon fill="none" stroke="#bfbfbf" points="849.5,-69 849.5,-99 1000.5,-99 1000.5,-69 849.5,-69"/>
<text text-anchor="start" x="857.5" y="-87" font-family="Helvetica,sans-Serif" font-size="10.00">Math/GenVector/Displacement</text>
<text text-anchor="middle" x="925" y="-76" font-family="Helvetica,sans-Serif" font-size="10.00">Vector3D.h</text>
</g>
<!-- Node22&#45;&gt;Node27 -->
<g id="edge29" class="edge"><title>Node22&#45;&gt;Node27</title>
<path fill="none" stroke="midnightblue" d="M1345.46,-139.141C1269.01,-131.708 1135.48,-117.85 1010.63,-100.031"/>
<polygon fill="midnightblue" stroke="midnightblue" points="1010.9,-96.5348 1000.5,-98.5751 1009.9,-103.463 1010.9,-96.5348"/>
</g>
<!-- Node28 -->
<g id="node28" class="node"><title>Node28</title>
<polygon fill="none" stroke="#bfbfbf" points="1113,-74.5 1113,-93.5 1289,-93.5 1289,-74.5 1113,-74.5"/>
<text text-anchor="middle" x="1201" y="-81.5" font-family="Helvetica,sans-Serif" font-size="10.00">Math/GenVector/PositionVector3D.h</text>
</g>
<!-- Node22&#45;&gt;Node28 -->
<g id="edge30" class="edge"><title>Node22&#45;&gt;Node28</title>
<path fill="none" stroke="midnightblue" d="M1378.34,-136.403C1342.07,-125.889 1280.54,-108.054 1240.34,-96.4016"/>
<polygon fill="midnightblue" stroke="midnightblue" points="1241.18,-93.003 1230.6,-93.5806 1239.23,-99.7263 1241.18,-93.003"/>
</g>
<!-- Node29 -->
<g id="node29" class="node"><title>Node29</title>
<g id="a_node29"><a xlink:href="../../d2/dd0/Cartesian2D_8h.html" target="_top" xlink:title="MathUtils/Cartesian2D.h">
<polygon fill="none" stroke="black" points="1686.5,-74.5 1686.5,-93.5 1811.5,-93.5 1811.5,-74.5 1686.5,-74.5"/>
<text text-anchor="middle" x="1749" y="-81.5" font-family="Helvetica,sans-Serif" font-size="10.00">MathUtils/Cartesian2D.h</text>
</a>
</g>
</g>
<!-- Node22&#45;&gt;Node29 -->
<g id="edge31" class="edge"><title>Node22&#45;&gt;Node29</title>
<path fill="none" stroke="midnightblue" d="M1456.49,-136.467C1518.11,-125.626 1624.35,-106.932 1690.43,-95.3062"/>
<polygon fill="midnightblue" stroke="midnightblue" points="1691.43,-98.6834 1700.67,-93.5034 1690.22,-91.7893 1691.43,-98.6834"/>
</g>
<!-- Node30 -->
<g id="node30" class="node"><title>Node30</title>
<polygon fill="none" stroke="#bfbfbf" points="1716.5,-1 1716.5,-31 1867.5,-31 1867.5,-1 1716.5,-1"/>
<text text-anchor="start" x="1724.5" y="-19" font-family="Helvetica,sans-Serif" font-size="10.00">Math/GenVector/Displacement</text>
<text text-anchor="middle" x="1792" y="-8" font-family="Helvetica,sans-Serif" font-size="10.00">Vector2D.h</text>
</g>
<!-- Node29&#45;&gt;Node30 -->
<g id="edge32" class="edge"><title>Node29&#45;&gt;Node30</title>
<path fill="none" stroke="midnightblue" d="M1754.62,-74.3717C1760.32,-65.6286 1769.37,-51.7288 1777.15,-39.8006"/>
<polygon fill="midnightblue" stroke="midnightblue" points="1780.23,-41.4707 1782.76,-31.1815 1774.37,-37.6495 1780.23,-41.4707"/>
</g>
<!-- Node31 -->
<g id="node31" class="node"><title>Node31</title>
<polygon fill="none" stroke="#bfbfbf" points="1522,-6.5 1522,-25.5 1698,-25.5 1698,-6.5 1522,-6.5"/>
<text text-anchor="middle" x="1610" y="-13.5" font-family="Helvetica,sans-Serif" font-size="10.00">Math/GenVector/PositionVector2D.h</text>
</g>
<!-- Node29&#45;&gt;Node31 -->
<g id="edge33" class="edge"><title>Node29&#45;&gt;Node31</title>
<path fill="none" stroke="midnightblue" d="M1730.83,-74.3717C1707,-63.0569 1664.98,-43.1053 1637.31,-29.9678"/>
<polygon fill="midnightblue" stroke="midnightblue" points="1638.71,-26.7581 1628.18,-25.6305 1635.71,-33.0815 1638.71,-26.7581"/>
</g>
<!-- Node32&#45;&gt;Node9 -->
<g id="edge50" class="edge"><title>Node32&#45;&gt;Node9</title>
<path fill="none" stroke="midnightblue" d="M664.653,-192.363C642.319,-183.867 607.861,-170.148 579,-156 542.46,-138.088 501.833,-113.978 477.36,-98.9684"/>
<polygon fill="midnightblue" stroke="midnightblue" points="479.162,-95.9675 468.814,-93.6932 475.485,-101.924 479.162,-95.9675"/>
</g>
<!-- Node32&#45;&gt;Node11 -->
<g id="edge37" class="edge"><title>Node32&#45;&gt;Node11</title>
<path fill="none" stroke="midnightblue" d="M687.537,-192.348C686.375,-178.779 682.299,-152.355 668,-136 642.869,-107.256 610.578,-132.161 590,-100 582.335,-88.0201 580.408,-78.5005 590,-68 626.274,-28.2915 1013.2,-19.1924 1123.69,-17.397"/>
<polygon fill="midnightblue" stroke="midnightblue" points="1123.84,-20.8952 1133.79,-17.2411 1123.74,-13.896 1123.84,-20.8952"/>
</g>
<!-- Node32&#45;&gt;Node22 -->
<g id="edge38" class="edge"><title>Node32&#45;&gt;Node22</title>
<path fill="none" stroke="midnightblue" d="M770.242,-194.832C911.928,-184.205 1199.82,-162.614 1334.91,-152.482"/>
<polygon fill="midnightblue" stroke="midnightblue" points="1335.44,-155.952 1345.15,-151.713 1334.92,-148.971 1335.44,-155.952"/>
</g>
<!-- Node33 -->
<g id="node33" class="node"><title>Node33</title>
<polygon fill="none" stroke="#bfbfbf" points="332,-136.5 332,-155.5 376,-155.5 376,-136.5 332,-136.5"/>
<text text-anchor="middle" x="354" y="-143.5" font-family="Helvetica,sans-Serif" font-size="10.00">vector</text>
</g>
<!-- Node32&#45;&gt;Node33 -->
<g id="edge36" class="edge"><title>Node32&#45;&gt;Node33</title>
<path fill="none" stroke="midnightblue" d="M635.077,-192.444C565.118,-181.133 443.997,-161.55 386.327,-152.226"/>
<polygon fill="midnightblue" stroke="midnightblue" points="386.754,-148.75 376.323,-150.609 385.637,-155.66 386.754,-148.75"/>
</g>
<!-- Node34 -->
<g id="node34" class="node"><title>Node34</title>
<g id="a_node34"><a xlink:href="../../d6/d31/DetID_8h.html" target="_top" xlink:title="DetectorsBase/DetID.h">
<polygon fill="none" stroke="black" points="716.5,-136.5 716.5,-155.5 835.5,-155.5 835.5,-136.5 716.5,-136.5"/>
<text text-anchor="middle" x="776" y="-143.5" font-family="Helvetica,sans-Serif" font-size="10.00">DetectorsBase/DetID.h</text>
</a>
</g>
</g>
<!-- Node32&#45;&gt;Node34 -->
<g id="edge39" class="edge"><title>Node32&#45;&gt;Node34</title>
<path fill="none" stroke="midnightblue" d="M702.139,-192.324C715.866,-183.9 736.936,-170.971 753.064,-161.074"/>
<polygon fill="midnightblue" stroke="midnightblue" points="755.204,-163.868 761.896,-155.655 751.543,-157.902 755.204,-163.868"/>
</g>
<!-- Node40 -->
<g id="node40" class="node"><title>Node40</title>
<polygon fill="none" stroke="#bfbfbf" points="588.5,-136.5 588.5,-155.5 659.5,-155.5 659.5,-136.5 588.5,-136.5"/>
<text text-anchor="middle" x="624" y="-143.5" font-family="Helvetica,sans-Serif" font-size="10.00">FairLogger.h</text>
</g>
<!-- Node32&#45;&gt;Node40 -->
<g id="edge51" class="edge"><title>Node32&#45;&gt;Node40</title>
<path fill="none" stroke="midnightblue" d="M677.717,-192.324C668.164,-184.263 653.72,-172.077 642.216,-162.369"/>
<polygon fill="midnightblue" stroke="midnightblue" points="644.37,-159.608 634.47,-155.834 639.856,-164.958 644.37,-159.608"/>
</g>
<!-- Node34&#45;&gt;Node9 -->
<g id="edge40" class="edge"><title>Node34&#45;&gt;Node9</title>
<path fill="none" stroke="midnightblue" d="M716.417,-139.553C658.363,-133.316 567.993,-121.126 492,-100 489.183,-99.2168 486.289,-98.2843 483.421,-97.2731"/>
<polygon fill="midnightblue" stroke="midnightblue" points="484.505,-93.9406 473.915,-93.6341 482.003,-100.478 484.505,-93.9406"/>
</g>
<!-- Node34&#45;&gt;Node11 -->
<g id="edge41" class="edge"><title>Node34&#45;&gt;Node11</title>
<path fill="none" stroke="midnightblue" d="M780.678,-136.075C789.829,-119.597 811.782,-84.5691 841,-68 889.264,-40.63 1055.9,-24.6812 1123.83,-19.1852"/>
<polygon fill="midnightblue" stroke="midnightblue" points="1124.16,-22.6703 1133.85,-18.3927 1123.61,-15.692 1124.16,-22.6703"/>
</g>
<!-- Node34&#45;&gt;Node19 -->
<g id="edge42" class="edge"><title>Node34&#45;&gt;Node19</title>
<path fill="none" stroke="midnightblue" d="M739.878,-136.467C689.709,-124.616 599.807,-103.38 552.703,-92.2526"/>
<polygon fill="midnightblue" stroke="midnightblue" points="553.322,-88.8026 542.785,-89.9099 551.713,-95.6151 553.322,-88.8026"/>
</g>
<!-- Node35 -->
<g id="node35" class="node"><title>Node35</title>
<polygon fill="none" stroke="#bfbfbf" points="679.5,-74.5 679.5,-93.5 728.5,-93.5 728.5,-74.5 679.5,-74.5"/>
<text text-anchor="middle" x="704" y="-81.5" font-family="Helvetica,sans-Serif" font-size="10.00">cassert</text>
</g>
<!-- Node34&#45;&gt;Node35 -->
<g id="edge43" class="edge"><title>Node34&#45;&gt;Node35</title>
<path fill="none" stroke="midnightblue" d="M765.684,-136.403C754.349,-126.958 735.927,-111.606 722.161,-100.134"/>
<polygon fill="midnightblue" stroke="midnightblue" points="724.22,-97.2937 714.297,-93.5806 719.738,-102.671 724.22,-97.2937"/>
</g>
<!-- Node36 -->
<g id="node36" class="node"><title>Node36</title>
<polygon fill="none" stroke="#bfbfbf" points="747,-74.5 747,-93.5 793,-93.5 793,-74.5 747,-74.5"/>
<text text-anchor="middle" x="770" y="-81.5" font-family="Helvetica,sans-Serif" font-size="10.00">cstdint</text>
</g>
<!-- Node34&#45;&gt;Node36 -->
<g id="edge44" class="edge"><title>Node34&#45;&gt;Node36</title>
<path fill="none" stroke="midnightblue" d="M775.14,-136.403C774.294,-127.938 772.973,-114.728 771.882,-103.82"/>
<polygon fill="midnightblue" stroke="midnightblue" points="775.336,-103.183 770.858,-93.5806 768.371,-103.879 775.336,-103.183"/>
</g>
<!-- Node37 -->
<g id="node37" class="node"><title>Node37</title>
<polygon fill="none" stroke="#bfbfbf" points="599,-74.5 599,-93.5 661,-93.5 661,-74.5 599,-74.5"/>
<text text-anchor="middle" x="630" y="-81.5" font-family="Helvetica,sans-Serif" font-size="10.00">type_traits</text>
</g>
<!-- Node34&#45;&gt;Node37 -->
<g id="edge45" class="edge"><title>Node34&#45;&gt;Node37</title>
<path fill="none" stroke="midnightblue" d="M755.082,-136.403C730.254,-126.2 688.657,-109.105 660.306,-97.4544"/>
<polygon fill="midnightblue" stroke="midnightblue" points="661.459,-94.1445 650.879,-93.5806 658.798,-100.619 661.459,-94.1445"/>
</g>
<!-- Node34&#45;&gt;Node38 -->
<g id="edge46" class="edge"><title>Node34&#45;&gt;Node38</title>
<path fill="none" stroke="midnightblue" d="M835.546,-143.847C1027.33,-139.91 1627.6,-125.795 1820,-100 1827.78,-98.957 1835.99,-97.4371 1843.88,-95.7601"/>
<polygon fill="midnightblue" stroke="midnightblue" points="1844.65,-99.1742 1853.65,-93.576 1843.13,-92.343 1844.65,-99.1742"/>
</g>
<!-- Node38&#45;&gt;Node11 -->
<g id="edge49" class="edge"><title>Node38&#45;&gt;Node11</title>
<path fill="none" stroke="midnightblue" d="M1852.94,-74.4853C1842.47,-72.0578 1830.81,-69.6319 1820,-68 1575.33,-31.0479 1275.9,-20.2776 1182.35,-17.7043"/>
<polygon fill="midnightblue" stroke="midnightblue" points="1182.31,-14.2021 1172.22,-17.436 1182.12,-21.1996 1182.31,-14.2021"/>
</g>
<!-- Node38&#45;&gt;Node13 -->
<g id="edge48" class="edge"><title>Node38&#45;&gt;Node13</title>
<path fill="none" stroke="midnightblue" d="M1894.63,-74.3717C1905.05,-63.9547 1922.78,-46.2173 1935.78,-33.2162"/>
<polygon fill="midnightblue" stroke="midnightblue" points="1938.56,-35.3871 1943.16,-25.8411 1933.61,-30.4373 1938.56,-35.3871"/>
</g>
<!-- Node38&#45;&gt;Node39 -->
<g id="edge47" class="edge"><title>Node38&#45;&gt;Node39</title>
<path fill="none" stroke="midnightblue" d="M1922.98,-74.4933C1932.43,-72.3464 1942.59,-70.0652 1952,-68 2017.32,-53.6659 2092.77,-37.8139 2141.59,-27.6468"/>
<polygon fill="midnightblue" stroke="midnightblue" points="2142.52,-31.0296 2151.59,-25.5662 2141.09,-24.1763 2142.52,-31.0296"/>
</g>
<!-- Node41&#45;&gt;Node4 -->
<g id="edge56" class="edge"><title>Node41&#45;&gt;Node4</title>
<path fill="none" stroke="midnightblue" d="M245.504,-248.324C232.4,-239.9 212.288,-226.971 196.893,-217.074"/>
<polygon fill="midnightblue" stroke="midnightblue" points="198.767,-214.118 188.463,-211.655 194.982,-220.006 198.767,-214.118"/>
</g>
<!-- Node41&#45;&gt;Node33 -->
<g id="edge58" class="edge"><title>Node41&#45;&gt;Node33</title>
<path fill="none" stroke="midnightblue" d="M266.454,-248.368C282.271,-230.055 319.412,-187.049 339.869,-163.362"/>
<polygon fill="midnightblue" stroke="midnightblue" points="342.693,-165.447 346.58,-155.591 337.395,-160.872 342.693,-165.447"/>
</g>
<!-- Node42 -->
<g id="node42" class="node"><title>Node42</title>
<polygon fill="none" stroke="#bfbfbf" points="234,-192.5 234,-211.5 284,-211.5 284,-192.5 234,-192.5"/>
<text text-anchor="middle" x="259" y="-199.5" font-family="Helvetica,sans-Serif" font-size="10.00">TTree.h</text>
</g>
<!-- Node41&#45;&gt;Node42 -->
<g id="edge57" class="edge"><title>Node41&#45;&gt;Node42</title>
<path fill="none" stroke="midnightblue" d="M259,-248.083C259,-241.006 259,-230.861 259,-221.986"/>
<polygon fill="midnightblue" stroke="midnightblue" points="262.5,-221.751 259,-211.751 255.5,-221.751 262.5,-221.751"/>
</g>
<!-- Node43&#45;&gt;Node9 -->
<g id="edge60" class="edge"><title>Node43&#45;&gt;Node9</title>
<path fill="none" stroke="midnightblue" d="M393.791,-304.422C404.057,-296.266 418.445,-283.035 426,-268 453.64,-212.997 456.162,-137.966 455.673,-103.586"/>
<polygon fill="midnightblue" stroke="midnightblue" points="459.172,-103.483 455.424,-93.573 452.174,-103.657 459.172,-103.483"/>
</g>
<!-- Node43&#45;&gt;Node41 -->
<g id="edge62" class="edge"><title>Node43&#45;&gt;Node41</title>
<path fill="none" stroke="midnightblue" d="M362.51,-304.444C342.358,-295.596 310.677,-281.687 287.669,-271.586"/>
<polygon fill="midnightblue" stroke="midnightblue" points="288.962,-268.332 278.399,-267.516 286.148,-274.741 288.962,-268.332"/>
</g>
<!-- Node44 -->
<g id="node44" class="node"><title>Node44</title>
<polygon fill="none" stroke="#bfbfbf" points="346.5,-248.5 346.5,-267.5 417.5,-267.5 417.5,-248.5 346.5,-248.5"/>
<text text-anchor="middle" x="382" y="-255.5" font-family="Helvetica,sans-Serif" font-size="10.00">TDirectory.h</text>
</g>
<!-- Node43&#45;&gt;Node44 -->
<g id="edge61" class="edge"><title>Node43&#45;&gt;Node44</title>
<path fill="none" stroke="midnightblue" d="M382,-304.083C382,-297.006 382,-286.861 382,-277.986"/>
<polygon fill="midnightblue" stroke="midnightblue" points="385.5,-277.751 382,-267.751 378.5,-277.751 385.5,-277.751"/>
</g>
</g>
</svg>
