<?xml version="1.0" encoding="UTF-8" standalone="no"?>
<!DOCTYPE svg PUBLIC "-//W3C//DTD SVG 1.1//EN"
 "http://www.w3.org/Graphics/SVG/1.1/DTD/svg11.dtd">
<!-- Generated by graphviz version 2.36.0 (20140111.2315)
 -->
<!-- Title: /home/travis/build/AliceO2Group/AliceO2/Detectors/TOF/simulation/src/Digitizer.cxx Pages: 1 -->
<svg width="2274pt" height="458pt"
 viewBox="0.00 0.00 2274.00 458.00" xmlns="http://www.w3.org/2000/svg" xmlns:xlink="http://www.w3.org/1999/xlink">
<g id="graph0" class="graph" transform="scale(1 1) rotate(0) translate(4 454)">
<title>/home/travis/build/AliceO2Group/AliceO2/Detectors/TOF/simulation/src/Digitizer.cxx</title>
<!-- Node1 -->
<g id="node1" class="node"><title>Node1</title>
<polygon fill="#bfbfbf" stroke="black" points="1481,-397 1481,-449 1613,-449 1613,-397 1481,-397"/>
<text text-anchor="start" x="1489" y="-437" font-family="Helvetica,sans-Serif" font-size="10.00">/home/travis/build</text>
<text text-anchor="start" x="1489" y="-426" font-family="Helvetica,sans-Serif" font-size="10.00">/AliceO2Group/AliceO2</text>
<text text-anchor="start" x="1489" y="-415" font-family="Helvetica,sans-Serif" font-size="10.00">/Detectors/TOF/simulation</text>
<text text-anchor="middle" x="1547" y="-404" font-family="Helvetica,sans-Serif" font-size="10.00">/src/Digitizer.cxx</text>
</g>
<!-- Node2 -->
<g id="node2" class="node"><title>Node2</title>
<g id="a_node2"><a xlink:href="../../d0/d85/TOF_2simulation_2include_2TOFSimulation_2Digitizer_8h.html" target="_top" xlink:title="TOFSimulation/Digitizer.h">
<polygon fill="none" stroke="black" points="730.5,-340.5 730.5,-359.5 859.5,-359.5 859.5,-340.5 730.5,-340.5"/>
<text text-anchor="middle" x="795" y="-347.5" font-family="Helvetica,sans-Serif" font-size="10.00">TOFSimulation/Digitizer.h</text>
</a>
</g>
</g>
<!-- Node1&#45;&gt;Node2 -->
<g id="edge1" class="edge"><title>Node1&#45;&gt;Node2</title>
<path fill="none" stroke="midnightblue" d="M1480.92,-415.761C1341.27,-402.576 1016.91,-371.952 869.865,-358.068"/>
<polygon fill="midnightblue" stroke="midnightblue" points="869.874,-354.554 859.589,-357.098 869.216,-361.523 869.874,-354.554"/>
</g>
<!-- Node35 -->
<g id="node35" class="node"><title>Node35</title>
<polygon fill="none" stroke="#bfbfbf" points="1283.5,-210.5 1283.5,-229.5 1332.5,-229.5 1332.5,-210.5 1283.5,-210.5"/>
<text text-anchor="middle" x="1308" y="-217.5" font-family="Helvetica,sans-Serif" font-size="10.00">cassert</text>
</g>
<!-- Node1&#45;&gt;Node35 -->
<g id="edge55" class="edge"><title>Node1&#45;&gt;Node35</title>
<path fill="none" stroke="midnightblue" d="M1480.93,-414.842C1414.44,-406.115 1318.59,-388.847 1296,-360 1268.34,-324.672 1286.99,-267.686 1299.42,-238.887"/>
<polygon fill="midnightblue" stroke="midnightblue" points="1302.67,-240.196 1303.62,-229.644 1296.29,-237.301 1302.67,-240.196"/>
</g>
<!-- Node40 -->
<g id="node40" class="node"><title>Node40</title>
<polygon fill="none" stroke="#bfbfbf" points="1305.5,-340.5 1305.5,-359.5 1370.5,-359.5 1370.5,-340.5 1305.5,-340.5"/>
<text text-anchor="middle" x="1338" y="-347.5" font-family="Helvetica,sans-Serif" font-size="10.00">TCanvas.h</text>
</g>
<!-- Node1&#45;&gt;Node40 -->
<g id="edge46" class="edge"><title>Node1&#45;&gt;Node40</title>
<path fill="none" stroke="midnightblue" d="M1480.87,-399.535C1445.03,-387.361 1402.2,-372.811 1372.84,-362.837"/>
<polygon fill="midnightblue" stroke="midnightblue" points="1373.65,-359.414 1363.05,-359.511 1371.4,-366.042 1373.65,-359.414"/>
</g>
<!-- Node41 -->
<g id="node41" class="node"><title>Node41</title>
<polygon fill="none" stroke="#bfbfbf" points="1388.5,-340.5 1388.5,-359.5 1435.5,-359.5 1435.5,-340.5 1388.5,-340.5"/>
<text text-anchor="middle" x="1412" y="-347.5" font-family="Helvetica,sans-Serif" font-size="10.00">TFile.h</text>
</g>
<!-- Node1&#45;&gt;Node41 -->
<g id="edge47" class="edge"><title>Node1&#45;&gt;Node41</title>
<path fill="none" stroke="midnightblue" d="M1499.4,-396.968C1478.52,-385.986 1454.85,-373.537 1437.41,-364.366"/>
<polygon fill="midnightblue" stroke="midnightblue" points="1438.91,-361.196 1428.43,-359.639 1435.65,-367.391 1438.91,-361.196"/>
</g>
<!-- Node42 -->
<g id="node42" class="node"><title>Node42</title>
<polygon fill="none" stroke="#bfbfbf" points="1454,-340.5 1454,-359.5 1504,-359.5 1504,-340.5 1454,-340.5"/>
<text text-anchor="middle" x="1479" y="-347.5" font-family="Helvetica,sans-Serif" font-size="10.00">TH1F.h</text>
</g>
<!-- Node1&#45;&gt;Node42 -->
<g id="edge48" class="edge"><title>Node1&#45;&gt;Node42</title>
<path fill="none" stroke="midnightblue" d="M1522.83,-396.768C1513.36,-386.881 1502.78,-375.831 1494.39,-367.066"/>
<polygon fill="midnightblue" stroke="midnightblue" points="1496.83,-364.558 1487.39,-359.757 1491.78,-369.4 1496.83,-364.558"/>
</g>
<!-- Node43 -->
<g id="node43" class="node"><title>Node43</title>
<polygon fill="none" stroke="#bfbfbf" points="1522,-340.5 1522,-359.5 1572,-359.5 1572,-340.5 1522,-340.5"/>
<text text-anchor="middle" x="1547" y="-347.5" font-family="Helvetica,sans-Serif" font-size="10.00">TH2F.h</text>
</g>
<!-- Node1&#45;&gt;Node43 -->
<g id="edge49" class="edge"><title>Node1&#45;&gt;Node43</title>
<path fill="none" stroke="midnightblue" d="M1547,-396.768C1547,-387.89 1547,-378.074 1547,-369.816"/>
<polygon fill="midnightblue" stroke="midnightblue" points="1550.5,-369.757 1547,-359.757 1543.5,-369.757 1550.5,-369.757"/>
</g>
<!-- Node44 -->
<g id="node44" class="node"><title>Node44</title>
<polygon fill="none" stroke="#bfbfbf" points="1590,-340.5 1590,-359.5 1640,-359.5 1640,-340.5 1590,-340.5"/>
<text text-anchor="middle" x="1615" y="-347.5" font-family="Helvetica,sans-Serif" font-size="10.00">TLeaf.h</text>
</g>
<!-- Node1&#45;&gt;Node44 -->
<g id="edge50" class="edge"><title>Node1&#45;&gt;Node44</title>
<path fill="none" stroke="midnightblue" d="M1571.17,-396.768C1580.64,-386.881 1591.22,-375.831 1599.61,-367.066"/>
<polygon fill="midnightblue" stroke="midnightblue" points="1602.22,-369.4 1606.61,-359.757 1597.17,-364.558 1602.22,-369.4"/>
</g>
<!-- Node45 -->
<g id="node45" class="node"><title>Node45</title>
<polygon fill="none" stroke="#bfbfbf" points="1658.5,-340.5 1658.5,-359.5 1711.5,-359.5 1711.5,-340.5 1658.5,-340.5"/>
<text text-anchor="middle" x="1685" y="-347.5" font-family="Helvetica,sans-Serif" font-size="10.00">TMath.h</text>
</g>
<!-- Node1&#45;&gt;Node45 -->
<g id="edge51" class="edge"><title>Node1&#45;&gt;Node45</title>
<path fill="none" stroke="midnightblue" d="M1595.65,-396.968C1617,-385.986 1641.2,-373.537 1659.02,-364.366"/>
<polygon fill="midnightblue" stroke="midnightblue" points="1660.92,-367.326 1668.21,-359.639 1657.72,-361.102 1660.92,-367.326"/>
</g>
<!-- Node46 -->
<g id="node46" class="node"><title>Node46</title>
<polygon fill="none" stroke="#bfbfbf" points="1729.5,-340.5 1729.5,-359.5 1800.5,-359.5 1800.5,-340.5 1729.5,-340.5"/>
<text text-anchor="middle" x="1765" y="-347.5" font-family="Helvetica,sans-Serif" font-size="10.00">TProfile2D.h</text>
</g>
<!-- Node1&#45;&gt;Node46 -->
<g id="edge52" class="edge"><title>Node1&#45;&gt;Node46</title>
<path fill="none" stroke="midnightblue" d="M1613.3,-400.408C1651.39,-388.002 1697.75,-372.904 1729.11,-362.688"/>
<polygon fill="midnightblue" stroke="midnightblue" points="1730.32,-365.977 1738.74,-359.552 1728.15,-359.321 1730.32,-365.977"/>
</g>
<!-- Node47 -->
<g id="node47" class="node"><title>Node47</title>
<polygon fill="none" stroke="#bfbfbf" points="1819,-340.5 1819,-359.5 1887,-359.5 1887,-340.5 1819,-340.5"/>
<text text-anchor="middle" x="1853" y="-347.5" font-family="Helvetica,sans-Serif" font-size="10.00">TRandom.h</text>
</g>
<!-- Node1&#45;&gt;Node47 -->
<g id="edge53" class="edge"><title>Node1&#45;&gt;Node47</title>
<path fill="none" stroke="midnightblue" d="M1613.02,-406.681C1672.32,-392.923 1757.72,-373.109 1809.04,-361.2"/>
<polygon fill="midnightblue" stroke="midnightblue" points="1809.88,-364.598 1818.83,-358.928 1808.3,-357.779 1809.88,-364.598"/>
</g>
<!-- Node48 -->
<g id="node48" class="node"><title>Node48</title>
<polygon fill="none" stroke="#bfbfbf" points="1905,-340.5 1905,-359.5 1961,-359.5 1961,-340.5 1905,-340.5"/>
<text text-anchor="middle" x="1933" y="-347.5" font-family="Helvetica,sans-Serif" font-size="10.00">algorithm</text>
</g>
<!-- Node1&#45;&gt;Node48 -->
<g id="edge54" class="edge"><title>Node1&#45;&gt;Node48</title>
<path fill="none" stroke="midnightblue" d="M1613.17,-411.516C1681.34,-400.427 1790.88,-381.814 1894.73,-360.167"/>
<polygon fill="midnightblue" stroke="midnightblue" points="1895.69,-363.541 1904.76,-358.063 1894.25,-356.69 1895.69,-363.541"/>
</g>
<!-- Node3 -->
<g id="node3" class="node"><title>Node3</title>
<g id="a_node3"><a xlink:href="../../d4/d54/Geo_8h.html" target="_top" xlink:title="TOFBase/Geo.h">
<polygon fill="none" stroke="black" points="674,-210.5 674,-229.5 762,-229.5 762,-210.5 674,-210.5"/>
<text text-anchor="middle" x="718" y="-217.5" font-family="Helvetica,sans-Serif" font-size="10.00">TOFBase/Geo.h</text>
</a>
</g>
</g>
<!-- Node2&#45;&gt;Node3 -->
<g id="edge2" class="edge"><title>Node2&#45;&gt;Node3</title>
<path fill="none" stroke="midnightblue" d="M789.707,-340.202C777.064,-319.184 744.92,-265.75 728.3,-238.123"/>
<polygon fill="midnightblue" stroke="midnightblue" points="731.281,-236.287 723.127,-229.522 725.282,-239.896 731.281,-236.287"/>
</g>
<!-- Node5 -->
<g id="node5" class="node"><title>Node5</title>
<g id="a_node5"><a xlink:href="../../df/d9c/TOF_2base_2include_2TOFBase_2Digit_8h.html" target="_top" xlink:title="TOFBase/Digit.h">
<polygon fill="none" stroke="black" points="176,-278.5 176,-297.5 266,-297.5 266,-278.5 176,-278.5"/>
<text text-anchor="middle" x="221" y="-285.5" font-family="Helvetica,sans-Serif" font-size="10.00">TOFBase/Digit.h</text>
</a>
</g>
</g>
<!-- Node2&#45;&gt;Node5 -->
<g id="edge4" class="edge"><title>Node2&#45;&gt;Node5</title>
<path fill="none" stroke="midnightblue" d="M730.271,-342.234C616.63,-330.355 383.195,-305.954 276.463,-294.797"/>
<polygon fill="midnightblue" stroke="midnightblue" points="276.541,-291.287 266.231,-293.728 275.813,-298.249 276.541,-291.287"/>
</g>
<!-- Node9 -->
<g id="node9" class="node"><title>Node9</title>
<g id="a_node9"><a xlink:href="../../d5/d3c/TOF_2simulation_2include_2TOFSimulation_2Detector_8h.html" target="_top" xlink:title="TOFSimulation/Detector.h">
<polygon fill="none" stroke="black" points="779.5,-278.5 779.5,-297.5 910.5,-297.5 910.5,-278.5 779.5,-278.5"/>
<text text-anchor="middle" x="845" y="-285.5" font-family="Helvetica,sans-Serif" font-size="10.00">TOFSimulation/Detector.h</text>
</a>
</g>
</g>
<!-- Node2&#45;&gt;Node9 -->
<g id="edge9" class="edge"><title>Node2&#45;&gt;Node9</title>
<path fill="none" stroke="midnightblue" d="M802.164,-340.403C809.738,-331.314 821.87,-316.756 831.293,-305.449"/>
<polygon fill="midnightblue" stroke="midnightblue" points="834.136,-307.503 837.85,-297.581 828.759,-303.022 834.136,-307.503"/>
</g>
<!-- Node33 -->
<g id="node33" class="node"><title>Node33</title>
<g id="a_node33"><a xlink:href="../../db/d14/MCTruthContainer_8h.html" target="_top" xlink:title="Definition of a container to keep Monte Carlo truth external to simulation objects. ">
<polygon fill="none" stroke="black" points="1105,-273 1105,-303 1219,-303 1219,-273 1105,-273"/>
<text text-anchor="start" x="1113" y="-291" font-family="Helvetica,sans-Serif" font-size="10.00">SimulationDataFormat</text>
<text text-anchor="middle" x="1162" y="-280" font-family="Helvetica,sans-Serif" font-size="10.00">/MCTruthContainer.h</text>
</a>
</g>
</g>
<!-- Node2&#45;&gt;Node33 -->
<g id="edge38" class="edge"><title>Node2&#45;&gt;Node33</title>
<path fill="none" stroke="midnightblue" d="M847.192,-340.467C912.171,-329.844 1023.28,-311.679 1094.63,-300.014"/>
<polygon fill="midnightblue" stroke="midnightblue" points="1095.55,-303.41 1104.86,-298.342 1094.42,-296.502 1095.55,-303.41"/>
</g>
<!-- Node38 -->
<g id="node38" class="node"><title>Node38</title>
<g id="a_node38"><a xlink:href="../../df/d71/MCLabel_8h.html" target="_top" xlink:title="TOFSimulation/MCLabel.h">
<polygon fill="none" stroke="black" points="582,-278.5 582,-297.5 714,-297.5 714,-278.5 582,-278.5"/>
<text text-anchor="middle" x="648" y="-285.5" font-family="Helvetica,sans-Serif" font-size="10.00">TOFSimulation/MCLabel.h</text>
</a>
</g>
</g>
<!-- Node2&#45;&gt;Node38 -->
<g id="edge43" class="edge"><title>Node2&#45;&gt;Node38</title>
<path fill="none" stroke="midnightblue" d="M773.938,-340.403C748.941,-330.2 707.058,-313.105 678.513,-301.454"/>
<polygon fill="midnightblue" stroke="midnightblue" points="679.604,-298.119 669.022,-297.581 676.958,-304.6 679.604,-298.119"/>
</g>
<!-- Node4 -->
<g id="node4" class="node"><title>Node4</title>
<polygon fill="none" stroke="#bfbfbf" points="458,-74.5 458,-93.5 514,-93.5 514,-74.5 458,-74.5"/>
<text text-anchor="middle" x="486" y="-81.5" font-family="Helvetica,sans-Serif" font-size="10.00">Rtypes.h</text>
</g>
<!-- Node3&#45;&gt;Node4 -->
<g id="edge3" class="edge"><title>Node3&#45;&gt;Node4</title>
<path fill="none" stroke="midnightblue" d="M673.86,-215.282C614.659,-209.302 514.263,-195.341 491,-168 475.978,-150.345 477.834,-122.18 481.305,-103.638"/>
<polygon fill="midnightblue" stroke="midnightblue" points="484.75,-104.269 483.479,-93.7506 477.913,-102.766 484.75,-104.269"/>
</g>
<!-- Node5&#45;&gt;Node4 -->
<g id="edge6" class="edge"><title>Node5&#45;&gt;Node4</title>
<path fill="none" stroke="midnightblue" d="M233.692,-278.179C246.189,-268.928 265.086,-253.341 277,-236 304.014,-196.681 280.939,-168.35 316,-136 352.329,-102.48 409.882,-90.9437 447.794,-87.0015"/>
<polygon fill="midnightblue" stroke="midnightblue" points="448.291,-90.4709 457.932,-86.0791 447.656,-83.4997 448.291,-90.4709"/>
</g>
<!-- Node6 -->
<g id="node6" class="node"><title>Node6</title>
<polygon fill="none" stroke="#bfbfbf" points="0,-210.5 0,-229.5 92,-229.5 92,-210.5 0,-210.5"/>
<text text-anchor="middle" x="46" y="-217.5" font-family="Helvetica,sans-Serif" font-size="10.00">FairTimeStamp.h</text>
</g>
<!-- Node5&#45;&gt;Node6 -->
<g id="edge5" class="edge"><title>Node5&#45;&gt;Node6</title>
<path fill="none" stroke="midnightblue" d="M198.122,-278.372C167.512,-266.827 113.064,-246.293 78.288,-233.177"/>
<polygon fill="midnightblue" stroke="midnightblue" points="79.1983,-229.78 68.6065,-229.526 76.7281,-236.33 79.1983,-229.78"/>
</g>
<!-- Node7 -->
<g id="node7" class="node"><title>Node7</title>
<polygon fill="none" stroke="#bfbfbf" points="110.5,-210.5 110.5,-229.5 155.5,-229.5 155.5,-210.5 110.5,-210.5"/>
<text text-anchor="middle" x="133" y="-217.5" font-family="Helvetica,sans-Serif" font-size="10.00">iosfwd</text>
</g>
<!-- Node5&#45;&gt;Node7 -->
<g id="edge7" class="edge"><title>Node5&#45;&gt;Node7</title>
<path fill="none" stroke="midnightblue" d="M209.496,-278.372C195.134,-267.6 170.336,-249.002 152.875,-235.906"/>
<polygon fill="midnightblue" stroke="midnightblue" points="154.607,-232.83 144.507,-229.63 150.407,-238.431 154.607,-232.83"/>
</g>
<!-- Node8 -->
<g id="node8" class="node"><title>Node8</title>
<polygon fill="none" stroke="#bfbfbf" points="173.5,-205 173.5,-235 268.5,-235 268.5,-205 173.5,-205"/>
<text text-anchor="start" x="181.5" y="-223" font-family="Helvetica,sans-Serif" font-size="10.00">boost/serialization</text>
<text text-anchor="middle" x="221" y="-212" font-family="Helvetica,sans-Serif" font-size="10.00">/base_object.hpp</text>
</g>
<!-- Node5&#45;&gt;Node8 -->
<g id="edge8" class="edge"><title>Node5&#45;&gt;Node8</title>
<path fill="none" stroke="midnightblue" d="M221,-278.372C221,-269.971 221,-256.811 221,-245.213"/>
<polygon fill="midnightblue" stroke="midnightblue" points="224.5,-245.181 221,-235.181 217.5,-245.181 224.5,-245.181"/>
</g>
<!-- Node9&#45;&gt;Node3 -->
<g id="edge24" class="edge"><title>Node9&#45;&gt;Node3</title>
<path fill="none" stroke="midnightblue" d="M828.397,-278.372C806.815,-267.156 768.902,-247.453 743.619,-234.314"/>
<polygon fill="midnightblue" stroke="midnightblue" points="745.094,-231.136 734.607,-229.63 741.866,-237.348 745.094,-231.136"/>
</g>
<!-- Node10 -->
<g id="node10" class="node"><title>Node10</title>
<g id="a_node10"><a xlink:href="../../d1/d3a/Base_2include_2DetectorsBase_2Detector_8h.html" target="_top" xlink:title="DetectorsBase/Detector.h">
<polygon fill="none" stroke="black" points="780.5,-210.5 780.5,-229.5 911.5,-229.5 911.5,-210.5 780.5,-210.5"/>
<text text-anchor="middle" x="846" y="-217.5" font-family="Helvetica,sans-Serif" font-size="10.00">DetectorsBase/Detector.h</text>
</a>
</g>
</g>
<!-- Node9&#45;&gt;Node10 -->
<g id="edge10" class="edge"><title>Node9&#45;&gt;Node10</title>
<path fill="none" stroke="midnightblue" d="M845.131,-278.372C845.278,-268.643 845.522,-252.528 845.714,-239.85"/>
<polygon fill="midnightblue" stroke="midnightblue" points="849.214,-239.893 845.866,-229.841 842.215,-239.787 849.214,-239.893"/>
</g>
<!-- Node21 -->
<g id="node21" class="node"><title>Node21</title>
<g id="a_node21"><a xlink:href="../../d4/d25/BaseHits_8h.html" target="_top" xlink:title="SimulationDataFormat\l/BaseHits.h">
<polygon fill="none" stroke="black" points="930,-205 930,-235 1044,-235 1044,-205 930,-205"/>
<text text-anchor="start" x="938" y="-223" font-family="Helvetica,sans-Serif" font-size="10.00">SimulationDataFormat</text>
<text text-anchor="middle" x="987" y="-212" font-family="Helvetica,sans-Serif" font-size="10.00">/BaseHits.h</text>
</a>
</g>
</g>
<!-- Node9&#45;&gt;Node21 -->
<g id="edge25" class="edge"><title>Node9&#45;&gt;Node21</title>
<path fill="none" stroke="midnightblue" d="M863.564,-278.372C884.747,-268.526 920.001,-252.141 947.421,-239.396"/>
<polygon fill="midnightblue" stroke="midnightblue" points="949.165,-242.445 956.758,-235.056 946.214,-236.097 949.165,-242.445"/>
</g>
<!-- Node10&#45;&gt;Node4 -->
<g id="edge19" class="edge"><title>Node10&#45;&gt;Node4</title>
<path fill="none" stroke="midnightblue" d="M804.653,-210.453C793.43,-208.239 781.267,-205.935 770,-204 715.548,-194.648 568.203,-201.144 524,-168 503.331,-152.502 493.577,-123.089 489.218,-103.764"/>
<polygon fill="midnightblue" stroke="midnightblue" points="492.608,-102.864 487.233,-93.734 485.741,-104.223 492.608,-102.864"/>
</g>
<!-- Node11 -->
<g id="node11" class="node"><title>Node11</title>
<polygon fill="none" stroke="#bfbfbf" points="1038.5,-74.5 1038.5,-93.5 1073.5,-93.5 1073.5,-74.5 1038.5,-74.5"/>
<text text-anchor="middle" x="1056" y="-81.5" font-family="Helvetica,sans-Serif" font-size="10.00">map</text>
</g>
<!-- Node10&#45;&gt;Node11 -->
<g id="edge11" class="edge"><title>Node10&#45;&gt;Node11</title>
<path fill="none" stroke="midnightblue" d="M885.996,-210.459C897.285,-208.195 909.599,-205.865 921,-204 983.346,-193.799 1161.25,-215.416 1203,-168 1212.4,-157.326 1211.49,-147.41 1203,-136 1169.76,-91.327 1134.3,-121.646 1083,-100 1081.64,-99.4267 1080.26,-98.8035 1078.88,-98.1478"/>
<polygon fill="midnightblue" stroke="midnightblue" points="1080.49,-95.0385 1070,-93.5311 1077.26,-101.249 1080.49,-95.0385"/>
</g>
<!-- Node12 -->
<g id="node12" class="node"><title>Node12</title>
<polygon fill="none" stroke="#bfbfbf" points="1251,-142.5 1251,-161.5 1295,-161.5 1295,-142.5 1251,-142.5"/>
<text text-anchor="middle" x="1273" y="-149.5" font-family="Helvetica,sans-Serif" font-size="10.00">vector</text>
</g>
<!-- Node10&#45;&gt;Node12 -->
<g id="edge12" class="edge"><title>Node10&#45;&gt;Node12</title>
<path fill="none" stroke="midnightblue" d="M885.591,-210.436C896.986,-208.146 909.456,-205.809 921,-204 1060.65,-182.12 1100.19,-203.534 1237,-168 1239.83,-167.266 1242.72,-166.354 1245.58,-165.344"/>
<polygon fill="midnightblue" stroke="midnightblue" points="1246.99,-168.552 1255.03,-161.653 1244.44,-162.032 1246.99,-168.552"/>
</g>
<!-- Node13 -->
<g id="node13" class="node"><title>Node13</title>
<polygon fill="none" stroke="#bfbfbf" points="1313,-142.5 1313,-161.5 1365,-161.5 1365,-142.5 1313,-142.5"/>
<text text-anchor="middle" x="1339" y="-149.5" font-family="Helvetica,sans-Serif" font-size="10.00">memory</text>
</g>
<!-- Node10&#45;&gt;Node13 -->
<g id="edge13" class="edge"><title>Node10&#45;&gt;Node13</title>
<path fill="none" stroke="midnightblue" d="M884.793,-210.447C896.396,-208.104 909.176,-205.735 921,-204 1089.72,-179.245 1137.54,-209.26 1303,-168 1305.99,-167.254 1309.06,-166.299 1312.08,-165.233"/>
<polygon fill="midnightblue" stroke="midnightblue" points="1313.39,-168.479 1321.42,-161.568 1310.83,-161.963 1313.39,-168.479"/>
</g>
<!-- Node14 -->
<g id="node14" class="node"><title>Node14</title>
<polygon fill="none" stroke="#bfbfbf" points="533.5,-142.5 533.5,-161.5 612.5,-161.5 612.5,-142.5 533.5,-142.5"/>
<text text-anchor="middle" x="573" y="-149.5" font-family="Helvetica,sans-Serif" font-size="10.00">FairDetector.h</text>
</g>
<!-- Node10&#45;&gt;Node14 -->
<g id="edge14" class="edge"><title>Node10&#45;&gt;Node14</title>
<path fill="none" stroke="midnightblue" d="M804.079,-210.414C758.905,-200.939 685.011,-184.794 622,-168 617.89,-166.905 613.606,-165.695 609.356,-164.452"/>
<polygon fill="midnightblue" stroke="midnightblue" points="610.184,-161.047 599.6,-161.53 608.176,-167.753 610.184,-161.047"/>
</g>
<!-- Node15 -->
<g id="node15" class="node"><title>Node15</title>
<polygon fill="none" stroke="#bfbfbf" points="631,-142.5 631,-161.5 731,-161.5 731,-142.5 631,-142.5"/>
<text text-anchor="middle" x="681" y="-149.5" font-family="Helvetica,sans-Serif" font-size="10.00">FairRootManager.h</text>
</g>
<!-- Node10&#45;&gt;Node15 -->
<g id="edge15" class="edge"><title>Node10&#45;&gt;Node15</title>
<path fill="none" stroke="midnightblue" d="M824.429,-210.372C795.692,-198.877 744.672,-178.469 711.866,-165.346"/>
<polygon fill="midnightblue" stroke="midnightblue" points="712.899,-161.99 702.315,-161.526 710.3,-168.49 712.899,-161.99"/>
</g>
<!-- Node16 -->
<g id="node16" class="node"><title>Node16</title>
<g id="a_node16"><a xlink:href="../../d0/d9a/MaterialManager_8h.html" target="_top" xlink:title="DetectorsBase/MaterialManager.h">
<polygon fill="none" stroke="black" points="1029.5,-142.5 1029.5,-161.5 1194.5,-161.5 1194.5,-142.5 1029.5,-142.5"/>
<text text-anchor="middle" x="1112" y="-149.5" font-family="Helvetica,sans-Serif" font-size="10.00">DetectorsBase/MaterialManager.h</text>
</a>
</g>
</g>
<!-- Node10&#45;&gt;Node16 -->
<g id="edge16" class="edge"><title>Node10&#45;&gt;Node16</title>
<path fill="none" stroke="midnightblue" d="M880.502,-210.439C928.44,-198.545 1015.22,-177.013 1067.83,-163.959"/>
<polygon fill="midnightblue" stroke="midnightblue" points="1068.7,-167.351 1077.56,-161.546 1067.01,-160.557 1068.7,-167.351"/>
</g>
<!-- Node17 -->
<g id="node17" class="node"><title>Node17</title>
<polygon fill="none" stroke="#bfbfbf" points="749.5,-142.5 749.5,-161.5 802.5,-161.5 802.5,-142.5 749.5,-142.5"/>
<text text-anchor="middle" x="776" y="-149.5" font-family="Helvetica,sans-Serif" font-size="10.00">cxxabi.h</text>
</g>
<!-- Node10&#45;&gt;Node17 -->
<g id="edge20" class="edge"><title>Node10&#45;&gt;Node17</title>
<path fill="none" stroke="midnightblue" d="M836.849,-210.372C825.696,-199.856 806.632,-181.882 792.81,-168.85"/>
<polygon fill="midnightblue" stroke="midnightblue" points="795.054,-166.155 785.377,-161.841 790.252,-171.248 795.054,-166.155"/>
</g>
<!-- Node18 -->
<g id="node18" class="node"><title>Node18</title>
<polygon fill="none" stroke="#bfbfbf" points="820.5,-142.5 820.5,-161.5 871.5,-161.5 871.5,-142.5 820.5,-142.5"/>
<text text-anchor="middle" x="846" y="-149.5" font-family="Helvetica,sans-Serif" font-size="10.00">typeinfo</text>
</g>
<!-- Node10&#45;&gt;Node18 -->
<g id="edge21" class="edge"><title>Node10&#45;&gt;Node18</title>
<path fill="none" stroke="midnightblue" d="M846,-210.372C846,-200.643 846,-184.528 846,-171.85"/>
<polygon fill="midnightblue" stroke="midnightblue" points="849.5,-171.841 846,-161.841 842.5,-171.841 849.5,-171.841"/>
</g>
<!-- Node19 -->
<g id="node19" class="node"><title>Node19</title>
<polygon fill="none" stroke="#bfbfbf" points="890,-142.5 890,-161.5 952,-161.5 952,-142.5 890,-142.5"/>
<text text-anchor="middle" x="921" y="-149.5" font-family="Helvetica,sans-Serif" font-size="10.00">type_traits</text>
</g>
<!-- Node10&#45;&gt;Node19 -->
<g id="edge22" class="edge"><title>Node10&#45;&gt;Node19</title>
<path fill="none" stroke="midnightblue" d="M855.805,-210.372C867.866,-199.758 888.562,-181.545 903.403,-168.485"/>
<polygon fill="midnightblue" stroke="midnightblue" points="905.758,-171.075 910.953,-161.841 901.134,-165.82 905.758,-171.075"/>
</g>
<!-- Node20 -->
<g id="node20" class="node"><title>Node20</title>
<polygon fill="none" stroke="#bfbfbf" points="970.5,-142.5 970.5,-161.5 1011.5,-161.5 1011.5,-142.5 970.5,-142.5"/>
<text text-anchor="middle" x="991" y="-149.5" font-family="Helvetica,sans-Serif" font-size="10.00">string</text>
</g>
<!-- Node10&#45;&gt;Node20 -->
<g id="edge23" class="edge"><title>Node10&#45;&gt;Node20</title>
<path fill="none" stroke="midnightblue" d="M865.853,-210.334C888.662,-200.328 927.173,-183.281 960,-168 961.389,-167.353 962.81,-166.686 964.244,-166.008"/>
<polygon fill="midnightblue" stroke="midnightblue" points="966.154,-168.975 973.664,-161.501 963.133,-162.66 966.154,-168.975"/>
</g>
<!-- Node16&#45;&gt;Node4 -->
<g id="edge17" class="edge"><title>Node16&#45;&gt;Node4</title>
<path fill="none" stroke="midnightblue" d="M1063.39,-142.455C1049.41,-140.166 1034.12,-137.824 1020,-136 834.723,-112.075 611.931,-94.3306 524.175,-87.7706"/>
<polygon fill="midnightblue" stroke="midnightblue" points="524.386,-84.2767 514.154,-87.0263 523.867,-91.2574 524.386,-84.2767"/>
</g>
<!-- Node16&#45;&gt;Node11 -->
<g id="edge18" class="edge"><title>Node16&#45;&gt;Node11</title>
<path fill="none" stroke="midnightblue" d="M1104.68,-142.372C1095.92,-132.053 1081.07,-114.551 1070.07,-101.585"/>
<polygon fill="midnightblue" stroke="midnightblue" points="1072.64,-99.2018 1063.5,-93.8411 1067.3,-103.731 1072.64,-99.2018"/>
</g>
<!-- Node22 -->
<g id="node22" class="node"><title>Node22</title>
<g id="a_node22"><a xlink:href="../../dd/d76/Cartesian3D_8h.html" target="_top" xlink:title="MathUtils/Cartesian3D.h">
<polygon fill="none" stroke="black" points="1494.5,-142.5 1494.5,-161.5 1619.5,-161.5 1619.5,-142.5 1494.5,-142.5"/>
<text text-anchor="middle" x="1557" y="-149.5" font-family="Helvetica,sans-Serif" font-size="10.00">MathUtils/Cartesian3D.h</text>
</a>
</g>
</g>
<!-- Node21&#45;&gt;Node22 -->
<g id="edge26" class="edge"><title>Node21&#45;&gt;Node22</title>
<path fill="none" stroke="midnightblue" d="M1044.15,-205.56C1047.14,-204.999 1050.1,-204.474 1053,-204 1134.07,-190.738 1365.19,-169.674 1484.21,-159.257"/>
<polygon fill="midnightblue" stroke="midnightblue" points="1484.67,-162.73 1494.32,-158.374 1484.06,-155.757 1484.67,-162.73"/>
</g>
<!-- Node22&#45;&gt;Node4 -->
<g id="edge30" class="edge"><title>Node22&#45;&gt;Node4</title>
<path fill="none" stroke="midnightblue" d="M1494.35,-145.484C1459.03,-142.47 1414.07,-138.792 1374,-136 1045.07,-113.077 647.068,-92.9127 524.057,-86.8528"/>
<polygon fill="midnightblue" stroke="midnightblue" points="524.17,-83.3542 514.01,-86.3591 523.827,-90.3458 524.17,-83.3542"/>
</g>
<!-- Node23 -->
<g id="node23" class="node"><title>Node23</title>
<polygon fill="none" stroke="#bfbfbf" points="1764.5,-74.5 1764.5,-93.5 1913.5,-93.5 1913.5,-74.5 1764.5,-74.5"/>
<text text-anchor="middle" x="1839" y="-81.5" font-family="Helvetica,sans-Serif" font-size="10.00">Math/GenVector/Rotation3D.h</text>
</g>
<!-- Node22&#45;&gt;Node23 -->
<g id="edge27" class="edge"><title>Node22&#45;&gt;Node23</title>
<path fill="none" stroke="midnightblue" d="M1593.58,-142.439C1644.5,-130.52 1736.78,-108.924 1792.52,-95.8777"/>
<polygon fill="midnightblue" stroke="midnightblue" points="1793.55,-99.2323 1802.49,-93.5455 1791.95,-92.4165 1793.55,-99.2323"/>
</g>
<!-- Node24 -->
<g id="node24" class="node"><title>Node24</title>
<polygon fill="none" stroke="#bfbfbf" points="1932,-74.5 1932,-93.5 2088,-93.5 2088,-74.5 1932,-74.5"/>
<text text-anchor="middle" x="2010" y="-81.5" font-family="Helvetica,sans-Serif" font-size="10.00">Math/GenVector/Transform3D.h</text>
</g>
<!-- Node22&#45;&gt;Node24 -->
<g id="edge28" class="edge"><title>Node22&#45;&gt;Node24</title>
<path fill="none" stroke="midnightblue" d="M1619.73,-142.817C1692.52,-133.187 1816.09,-116.421 1922,-100 1931.55,-98.5195 1941.66,-96.8705 1951.51,-95.2229"/>
<polygon fill="midnightblue" stroke="midnightblue" points="1952.35,-98.63 1961.63,-93.5135 1951.18,-91.7277 1952.35,-98.63"/>
</g>
<!-- Node25 -->
<g id="node25" class="node"><title>Node25</title>
<polygon fill="none" stroke="#bfbfbf" points="2106,-74.5 2106,-93.5 2266,-93.5 2266,-74.5 2106,-74.5"/>
<text text-anchor="middle" x="2186" y="-81.5" font-family="Helvetica,sans-Serif" font-size="10.00">Math/GenVector/Translation3D.h</text>
</g>
<!-- Node22&#45;&gt;Node25 -->
<g id="edge29" class="edge"><title>Node22&#45;&gt;Node25</title>
<path fill="none" stroke="midnightblue" d="M1619.53,-146.581C1720.29,-139.126 1924.74,-122.62 2097,-100 2107.48,-98.6241 2118.61,-96.932 2129.33,-95.1858"/>
<polygon fill="midnightblue" stroke="midnightblue" points="2130.15,-98.5971 2139.44,-93.5037 2129,-91.692 2130.15,-98.5971"/>
</g>
<!-- Node26 -->
<g id="node26" class="node"><title>Node26</title>
<polygon fill="none" stroke="#bfbfbf" points="1092,-74.5 1092,-93.5 1168,-93.5 1168,-74.5 1092,-74.5"/>
<text text-anchor="middle" x="1130" y="-81.5" font-family="Helvetica,sans-Serif" font-size="10.00">TGeoMatrix.h</text>
</g>
<!-- Node22&#45;&gt;Node26 -->
<g id="edge31" class="edge"><title>Node22&#45;&gt;Node26</title>
<path fill="none" stroke="midnightblue" d="M1494.2,-145.975C1418.36,-139.126 1287.24,-124.787 1177,-100 1172.77,-99.0488 1168.37,-97.8872 1164.04,-96.6356"/>
<polygon fill="midnightblue" stroke="midnightblue" points="1164.76,-93.1933 1154.17,-93.6086 1162.71,-99.8859 1164.76,-93.1933"/>
</g>
<!-- Node27 -->
<g id="node27" class="node"><title>Node27</title>
<polygon fill="none" stroke="#bfbfbf" points="1186.5,-69 1186.5,-99 1337.5,-99 1337.5,-69 1186.5,-69"/>
<text text-anchor="start" x="1194.5" y="-87" font-family="Helvetica,sans-Serif" font-size="10.00">Math/GenVector/Displacement</text>
<text text-anchor="middle" x="1262" y="-76" font-family="Helvetica,sans-Serif" font-size="10.00">Vector3D.h</text>
</g>
<!-- Node22&#45;&gt;Node27 -->
<g id="edge32" class="edge"><title>Node22&#45;&gt;Node27</title>
<path fill="none" stroke="midnightblue" d="M1518.74,-142.439C1472.24,-132.037 1392.8,-114.263 1334.57,-101.236"/>
<polygon fill="midnightblue" stroke="midnightblue" points="1335.21,-97.7926 1324.69,-99.0247 1333.68,-104.624 1335.21,-97.7926"/>
</g>
<!-- Node28 -->
<g id="node28" class="node"><title>Node28</title>
<polygon fill="none" stroke="#bfbfbf" points="1356,-74.5 1356,-93.5 1532,-93.5 1532,-74.5 1356,-74.5"/>
<text text-anchor="middle" x="1444" y="-81.5" font-family="Helvetica,sans-Serif" font-size="10.00">Math/GenVector/PositionVector3D.h</text>
</g>
<!-- Node22&#45;&gt;Node28 -->
<g id="edge33" class="edge"><title>Node22&#45;&gt;Node28</title>
<path fill="none" stroke="midnightblue" d="M1542.23,-142.372C1523.28,-131.304 1490.18,-111.972 1467.69,-98.838"/>
<polygon fill="midnightblue" stroke="midnightblue" points="1469.18,-95.6517 1458.78,-93.6305 1465.65,-101.696 1469.18,-95.6517"/>
</g>
<!-- Node29 -->
<g id="node29" class="node"><title>Node29</title>
<g id="a_node29"><a xlink:href="../../d2/dd0/Cartesian2D_8h.html" target="_top" xlink:title="MathUtils/Cartesian2D.h">
<polygon fill="none" stroke="black" points="1549.5,-74.5 1549.5,-93.5 1674.5,-93.5 1674.5,-74.5 1549.5,-74.5"/>
<text text-anchor="middle" x="1612" y="-81.5" font-family="Helvetica,sans-Serif" font-size="10.00">MathUtils/Cartesian2D.h</text>
</a>
</g>
</g>
<!-- Node22&#45;&gt;Node29 -->
<g id="edge34" class="edge"><title>Node22&#45;&gt;Node29</title>
<path fill="none" stroke="midnightblue" d="M1564.19,-142.372C1572.79,-132.053 1587.37,-114.551 1598.18,-101.585"/>
<polygon fill="midnightblue" stroke="midnightblue" points="1600.92,-103.764 1604.63,-93.8411 1595.54,-99.2827 1600.92,-103.764"/>
</g>
<!-- Node32 -->
<g id="node32" class="node"><title>Node32</title>
<polygon fill="none" stroke="#bfbfbf" points="1693,-74.5 1693,-93.5 1747,-93.5 1747,-74.5 1693,-74.5"/>
<text text-anchor="middle" x="1720" y="-81.5" font-family="Helvetica,sans-Serif" font-size="10.00">iostream</text>
</g>
<!-- Node22&#45;&gt;Node32 -->
<g id="edge37" class="edge"><title>Node22&#45;&gt;Node32</title>
<path fill="none" stroke="midnightblue" d="M1578.4,-142.341C1603.47,-132.197 1646.25,-114.885 1683,-100 1685.09,-99.1542 1687.24,-98.2814 1689.41,-97.4021"/>
<polygon fill="midnightblue" stroke="midnightblue" points="1690.92,-100.569 1698.87,-93.5689 1688.29,-94.0817 1690.92,-100.569"/>
</g>
<!-- Node30 -->
<g id="node30" class="node"><title>Node30</title>
<polygon fill="none" stroke="#bfbfbf" points="1445.5,-1 1445.5,-31 1596.5,-31 1596.5,-1 1445.5,-1"/>
<text text-anchor="start" x="1453.5" y="-19" font-family="Helvetica,sans-Serif" font-size="10.00">Math/GenVector/Displacement</text>
<text text-anchor="middle" x="1521" y="-8" font-family="Helvetica,sans-Serif" font-size="10.00">Vector2D.h</text>
</g>
<!-- Node29&#45;&gt;Node30 -->
<g id="edge35" class="edge"><title>Node29&#45;&gt;Node30</title>
<path fill="none" stroke="midnightblue" d="M1600.1,-74.3717C1587.22,-65.0286 1566.22,-49.7966 1549.09,-37.375"/>
<polygon fill="midnightblue" stroke="midnightblue" points="1550.7,-34.2194 1540.55,-31.1815 1546.59,-39.8859 1550.7,-34.2194"/>
</g>
<!-- Node31 -->
<g id="node31" class="node"><title>Node31</title>
<polygon fill="none" stroke="#bfbfbf" points="1615,-6.5 1615,-25.5 1791,-25.5 1791,-6.5 1615,-6.5"/>
<text text-anchor="middle" x="1703" y="-13.5" font-family="Helvetica,sans-Serif" font-size="10.00">Math/GenVector/PositionVector2D.h</text>
</g>
<!-- Node29&#45;&gt;Node31 -->
<g id="edge36" class="edge"><title>Node29&#45;&gt;Node31</title>
<path fill="none" stroke="midnightblue" d="M1623.9,-74.3717C1638.88,-63.5015 1664.86,-44.6602 1682.94,-31.5474"/>
<polygon fill="midnightblue" stroke="midnightblue" points="1685.06,-34.3349 1691.1,-25.6305 1680.95,-28.6684 1685.06,-34.3349"/>
</g>
<!-- Node34 -->
<g id="node34" class="node"><title>Node34</title>
<polygon fill="none" stroke="#bfbfbf" points="1203,-210.5 1203,-229.5 1265,-229.5 1265,-210.5 1203,-210.5"/>
<text text-anchor="middle" x="1234" y="-217.5" font-family="Helvetica,sans-Serif" font-size="10.00">TNamed.h</text>
</g>
<!-- Node33&#45;&gt;Node34 -->
<g id="edge39" class="edge"><title>Node33&#45;&gt;Node34</title>
<path fill="none" stroke="midnightblue" d="M1177.62,-272.679C1189.18,-262.082 1204.92,-247.655 1216.83,-236.736"/>
<polygon fill="midnightblue" stroke="midnightblue" points="1219.36,-239.166 1224.37,-229.828 1214.63,-234.006 1219.36,-239.166"/>
</g>
<!-- Node33&#45;&gt;Node35 -->
<g id="edge40" class="edge"><title>Node33&#45;&gt;Node35</title>
<path fill="none" stroke="midnightblue" d="M1193.32,-272.841C1218.91,-261.272 1254.79,-245.055 1279.56,-233.855"/>
<polygon fill="midnightblue" stroke="midnightblue" points="1281.12,-236.99 1288.79,-229.682 1278.24,-230.612 1281.12,-236.99"/>
</g>
<!-- Node36 -->
<g id="node36" class="node"><title>Node36</title>
<polygon fill="none" stroke="#bfbfbf" points="1062.5,-210.5 1062.5,-229.5 1121.5,-229.5 1121.5,-210.5 1062.5,-210.5"/>
<text text-anchor="middle" x="1092" y="-217.5" font-family="Helvetica,sans-Serif" font-size="10.00">stdexcept</text>
</g>
<!-- Node33&#45;&gt;Node36 -->
<g id="edge41" class="edge"><title>Node33&#45;&gt;Node36</title>
<path fill="none" stroke="midnightblue" d="M1146.81,-272.679C1135.57,-262.082 1120.27,-247.655 1108.69,-236.736"/>
<polygon fill="midnightblue" stroke="midnightblue" points="1111.04,-234.142 1101.36,-229.828 1106.24,-239.235 1111.04,-234.142"/>
</g>
<!-- Node37 -->
<g id="node37" class="node"><title>Node37</title>
<polygon fill="none" stroke="#bfbfbf" points="1139.5,-210.5 1139.5,-229.5 1184.5,-229.5 1184.5,-210.5 1139.5,-210.5"/>
<text text-anchor="middle" x="1162" y="-217.5" font-family="Helvetica,sans-Serif" font-size="10.00">gsl/gsl</text>
</g>
<!-- Node33&#45;&gt;Node37 -->
<g id="edge42" class="edge"><title>Node33&#45;&gt;Node37</title>
<path fill="none" stroke="midnightblue" d="M1162,-272.679C1162,-263.101 1162,-250.394 1162,-239.977"/>
<polygon fill="midnightblue" stroke="midnightblue" points="1165.5,-239.828 1162,-229.828 1158.5,-239.828 1165.5,-239.828"/>
</g>
<!-- Node39 -->
<g id="node39" class="node"><title>Node39</title>
<g id="a_node39"><a xlink:href="../../d7/dcd/MCCompLabel_8h.html" target="_top" xlink:title="SimulationDataFormat\l/MCCompLabel.h">
<polygon fill="none" stroke="black" points="325,-137 325,-167 439,-167 439,-137 325,-137"/>
<text text-anchor="start" x="333" y="-155" font-family="Helvetica,sans-Serif" font-size="10.00">SimulationDataFormat</text>
<text text-anchor="middle" x="382" y="-144" font-family="Helvetica,sans-Serif" font-size="10.00">/MCCompLabel.h</text>
</a>
</g>
</g>
<!-- Node38&#45;&gt;Node39 -->
<g id="edge44" class="edge"><title>Node38&#45;&gt;Node39</title>
<path fill="none" stroke="midnightblue" d="M630.956,-278.414C588.594,-257.074 477.75,-201.235 419.305,-171.793"/>
<polygon fill="midnightblue" stroke="midnightblue" points="420.557,-168.505 410.052,-167.131 417.408,-174.756 420.557,-168.505"/>
</g>
<!-- Node39&#45;&gt;Node4 -->
<g id="edge45" class="edge"><title>Node39&#45;&gt;Node4</title>
<path fill="none" stroke="midnightblue" d="M404.311,-136.841C421.896,-125.681 446.295,-110.198 463.841,-99.0625"/>
<polygon fill="midnightblue" stroke="midnightblue" points="465.752,-101.995 472.319,-93.6819 462.001,-96.085 465.752,-101.995"/>
</g>
</g>
</svg>
