<?xml version="1.0" encoding="UTF-8" standalone="no"?>
<!DOCTYPE svg PUBLIC "-//W3C//DTD SVG 1.1//EN"
 "http://www.w3.org/Graphics/SVG/1.1/DTD/svg11.dtd">
<!-- Generated by graphviz version 2.36.0 (20140111.2315)
 -->
<!-- Title: /home/travis/build/AliceO2Group/AliceO2/Common/Constants/include/CommonConstants/PhysicsConstants.h Pages: 1 -->
<svg width="314pt" height="230pt"
 viewBox="0.00 0.00 314.00 230.00" xmlns="http://www.w3.org/2000/svg" xmlns:xlink="http://www.w3.org/1999/xlink">
<g id="graph0" class="graph" transform="scale(1 1) rotate(0) translate(4 226)">
<title>/home/travis/build/AliceO2Group/AliceO2/Common/Constants/include/CommonConstants/PhysicsConstants.h</title>
<!-- Node1 -->
<g id="node1" class="node"><title>Node1</title>
<polygon fill="#bfbfbf" stroke="black" points="44,-169 44,-221 240,-221 240,-169 44,-169"/>
<text text-anchor="start" x="52" y="-209" font-family="Helvetica,sans-Serif" font-size="10.00">/home/travis/build</text>
<text text-anchor="start" x="52" y="-198" font-family="Helvetica,sans-Serif" font-size="10.00">/AliceO2Group/AliceO2</text>
<text text-anchor="start" x="52" y="-187" font-family="Helvetica,sans-Serif" font-size="10.00">/Common/Constants/include</text>
<text text-anchor="middle" x="142" y="-176" font-family="Helvetica,sans-Serif" font-size="10.00">/CommonConstants/PhysicsConstants.h</text>
</g>
<!-- Node2 -->
<g id="node2" class="node"><title>Node2</title>
<g id="a_node2"><a xlink:href="../../d9/df6/GRPObject_8cxx.html" target="_top" xlink:title="Implementation of General Run Parameters object. ">
<polygon fill="none" stroke="black" points="0,-79 0,-131 130,-131 130,-79 0,-79"/>
<text text-anchor="start" x="8" y="-119" font-family="Helvetica,sans-Serif" font-size="10.00">/home/travis/build</text>
<text text-anchor="start" x="8" y="-108" font-family="Helvetica,sans-Serif" font-size="10.00">/AliceO2Group/AliceO2</text>
<text text-anchor="start" x="8" y="-97" font-family="Helvetica,sans-Serif" font-size="10.00">/DataFormats/Parameters</text>
<text text-anchor="middle" x="65" y="-86" font-family="Helvetica,sans-Serif" font-size="10.00">/src/GRPObject.cxx</text>
</a>
</g>
</g>
<!-- Node1&#45;&gt;Node2 -->
<g id="edge1" class="edge"><title>Node1&#45;&gt;Node2</title>
<path fill="none" stroke="midnightblue" d="M112.99,-160.846C104.362,-150.985 95.0555,-140.349 86.9556,-131.092"/>
<polygon fill="midnightblue" stroke="midnightblue" points="110.509,-163.326 119.728,-168.547 115.777,-158.716 110.509,-163.326"/>
</g>
<!-- Node3 -->
<g id="node3" class="node"><title>Node3</title>
<g id="a_node3"><a xlink:href="../../d2/df9/Propagator_8h.html" target="_top" xlink:title="/home/travis/build\l/AliceO2Group/AliceO2\l/Detectors/Base/include\l/DetectorsBase/Propagator.h">
<polygon fill="none" stroke="black" points="148.5,-79 148.5,-131 291.5,-131 291.5,-79 148.5,-79"/>
<text text-anchor="start" x="156.5" y="-119" font-family="Helvetica,sans-Serif" font-size="10.00">/home/travis/build</text>
<text text-anchor="start" x="156.5" y="-108" font-family="Helvetica,sans-Serif" font-size="10.00">/AliceO2Group/AliceO2</text>
<text text-anchor="start" x="156.5" y="-97" font-family="Helvetica,sans-Serif" font-size="10.00">/Detectors/Base/include</text>
<text text-anchor="middle" x="220" y="-86" font-family="Helvetica,sans-Serif" font-size="10.00">/DetectorsBase/Propagator.h</text>
</a>
</g>
</g>
<!-- Node1&#45;&gt;Node3 -->
<g id="edge2" class="edge"><title>Node1&#45;&gt;Node3</title>
<path fill="none" stroke="midnightblue" d="M171.387,-160.846C180.127,-150.985 189.554,-140.349 197.759,-131.092"/>
<polygon fill="midnightblue" stroke="midnightblue" points="168.575,-158.742 164.561,-168.547 173.813,-163.385 168.575,-158.742"/>
</g>
<!-- Node4 -->
<g id="node4" class="node"><title>Node4</title>
<g id="a_node4"><a xlink:href="../../d8/dee/Propagator_8cxx.html" target="_top" xlink:title="/home/travis/build\l/AliceO2Group/AliceO2\l/Detectors/Base/src/Propagator.cxx">
<polygon fill="none" stroke="black" points="133.5,-0.5 133.5,-41.5 306.5,-41.5 306.5,-0.5 133.5,-0.5"/>
<text text-anchor="start" x="141.5" y="-29.5" font-family="Helvetica,sans-Serif" font-size="10.00">/home/travis/build</text>
<text text-anchor="start" x="141.5" y="-18.5" font-family="Helvetica,sans-Serif" font-size="10.00">/AliceO2Group/AliceO2</text>
<text text-anchor="middle" x="220" y="-7.5" font-family="Helvetica,sans-Serif" font-size="10.00">/Detectors/Base/src/Propagator.cxx</text>
</a>
</g>
</g>
<!-- Node3&#45;&gt;Node4 -->
<g id="edge3" class="edge"><title>Node3&#45;&gt;Node4</title>
<path fill="none" stroke="midnightblue" d="M220,-68.7604C220,-59.4912 220,-49.8211 220,-41.6965"/>
<polygon fill="midnightblue" stroke="midnightblue" points="216.5,-68.9517 220,-78.9517 223.5,-68.9518 216.5,-68.9517"/>
</g>
</g>
</svg>
